<svg xmlns="http://www.w3.org/2000/svg" viewBox="0 0 415 415" enable-background="new 0 0 415 415"><path fill="#1D1D1B" d="M321.5 165.4l-110.7-76.7c-2.5-1.9-6-2.1-8.7-.2l-108.9 77c-2.1 1.3-3.5 3.6-3.5 6.2v137.5c0 4 3.3 7.3 7.3 7.3h220.8c4 0 7.3-3.3 7.3-7.3v-137.5c.1-2.7-1.4-5.1-3.6-6.3zm-115.1-62l98.5 68.2-88.7 58.7-4.7-3.2c-2.5-2-6-2.2-8.7-.3l-4.7 3.3-88.1-58.6 96.4-68.1zm-102 81.9l80.8 53.6-80.8 56.2v-109.8zm16 116.6l86.6-60.3 4.7 3.3.6.4 82.2 56.6h-174.1zm190.2-6.6l-81.4-56.1 81.4-53.9v110z"/></svg>