<svg xmlns="http://www.w3.org/2000/svg" viewBox="0 0 800 800" enable-background="new 0 0 800 800"><path fill="none" d="M264.8 22.1h750.4v755.8h-750.4z"/><path d="M399.7 192.5c-114.5 0-207.4 92.9-207.4 207.6 0 85 51.1 158 124.2 190.2-.6-14.5-.2-31.9 3.6-47.7 3.9-16.8 26.8-113.2 26.8-113.2s-6.7-13.3-6.7-32.8c0-30.7 17.9-53.7 40.1-53.7 18.9 0 28 14.2 28 31.2 0 18.9-12.1 47.4-18.3 73.7-5.1 22.1 11 39.9 32.8 39.9 39.3 0 65.8-50.5 65.8-110.3 0-45.5-30.7-79.6-86.4-79.6-62.9 0-102.1 46.9-102.1 99.4 0 18.2 5.3 30.9 13.6 40.7 3.8 4.5 4.4 6.4 3 11.5-1.1 3.8-3.3 13-4.2 16.6-1.4 5.3-5.6 7.1-10.4 5.1-29-11.8-42.5-43.6-42.5-79.3 0-59 49.8-129.7 148.4-129.7 79.3 0 131.5 57.3 131.5 118.9 0 81.4-45.2 142.2-112 142.2-22.4 0-43.4-12.1-50.7-25.9 0 0-12.1 47.8-14.7 57-4.4 16-13 31.9-20.9 44.5 18.6 5.4 38.4 8.5 58.9 8.5 114.7 0 207.6-92.9 207.6-207.6-.4-114.3-93.3-207.2-208-207.2z"/></svg>