<?xml version="1.0" encoding="utf-8"?>
<!-- Generator: Adobe Illustrator 17.1.0, SVG Export Plug-In . SVG Version: 6.00 Build 0)  -->
<!DOCTYPE svg PUBLIC "-//W3C//DTD SVG 1.1//EN" "http://www.w3.org/Graphics/SVG/1.1/DTD/svg11.dtd">
<svg version="1.1" id="Logo" xmlns="http://www.w3.org/2000/svg" xmlns:xlink="http://www.w3.org/1999/xlink" x="0px" y="0px"
	 viewBox="0 0 800 800" enable-background="new 0 0 800 800" xml:space="preserve">
<rect x="264.8" y="22.1" fill="none" width="750.4" height="755.8"/>
<g>
	<path d="M399.7,192.5c-114.5,0-207.4,92.9-207.4,207.6c0,85,51.1,158,124.2,190.2c-0.6-14.5-0.2-31.9,3.6-47.7
		c3.9-16.8,26.8-113.2,26.8-113.2s-6.7-13.3-6.7-32.8c0-30.7,17.9-53.7,40.1-53.7c18.9,0,28,14.2,28,31.2
		c0,18.9-12.1,47.4-18.3,73.7c-5.1,22.1,11,39.9,32.8,39.9c39.3,0,65.8-50.5,65.8-110.3c0-45.5-30.7-79.6-86.4-79.6
		c-62.9,0-102.1,46.9-102.1,99.4c0,18.2,5.3,30.9,13.6,40.7c3.8,4.5,4.4,6.4,3,11.5c-1.1,3.8-3.3,13-4.2,16.6
		c-1.4,5.3-5.6,7.1-10.4,5.1c-29-11.8-42.5-43.6-42.5-79.3c0-59,49.8-129.7,148.4-129.7c79.3,0,131.5,57.3,131.5,118.9
		c0,81.4-45.2,142.2-112,142.2c-22.4,0-43.4-12.1-50.7-25.9c0,0-12.1,47.8-14.7,57c-4.4,16-13,31.9-20.9,44.5
		c18.6,5.4,38.4,8.5,58.9,8.5c114.7,0,207.6-92.9,207.6-207.6C607.3,285.4,514.4,192.5,399.7,192.5z"/>
</g>
</svg>
