<svg xmlns="http://www.w3.org/2000/svg" viewBox="0 0 415 415" enable-background="new 0 0 415 415"><path fill="#1D1D1B" d="M340.1 125.3c-9.8 4.3-20.2 7.2-31.2 8.6 11.2-6.7 19.9-17.4 23.9-30.1-10.5 6.2-22.1 10.8-34.5 13.2-9.9-10.6-24.1-17.2-39.7-17.2-30 0-54.4 24.3-54.4 54.4 0 4.3.5 8.4 1.4 12.4-45.2-2.3-85.3-23.9-112.1-56.8-4.7 8-7.4 17.4-7.4 27.3 0 18.9 9.6 35.5 24.2 45.3-8.9-.3-17.3-2.7-24.6-6.8v.7c0 26.4 18.8 48.3 43.6 53.3-4.6 1.2-9.4 1.9-14.3 1.9-3.5 0-6.9-.3-10.2-1 6.9 21.6 27 37.3 50.8 37.8-18.6 14.6-42.1 23.3-67.6 23.3-4.4 0-8.7-.3-13-.8 24.1 15.4 52.7 24.4 83.4 24.4 100.1 0 154.8-82.9 154.8-154.8 0-2.4 0-4.7-.2-7 10.5-7.6 19.8-17.2 27.1-28.1z"/></svg>