<?xml version="1.0" encoding="utf-8"?>
<!-- Generator: Adobe Illustrator 17.1.0, SVG Export Plug-In . SVG Version: 6.00 Build 0)  -->
<!DOCTYPE svg PUBLIC "-//W3C//DTD SVG 1.1//EN" "http://www.w3.org/Graphics/SVG/1.1/DTD/svg11.dtd">
<svg version="1.1" id="Ebene_1" xmlns="http://www.w3.org/2000/svg" xmlns:xlink="http://www.w3.org/1999/xlink" x="0px" y="0px"
	 viewBox="0 0 600 400" enable-background="new 0 0 600 400" xml:space="preserve">
<g id="Ebene_1_1_">
</g>
<g id="Ebene_4">
</g>
<g id="Ebene_2">
</g>
<g>
	<path fill="none" stroke="#1D1D1B" stroke-width="8" stroke-miterlimit="10" d="M166.7,58.6c-19.8,0-40.7,3.2-58.7,9.1v313.1
		c18,5.9,38.8,9.1,58.7,9.1c95.4,0,172.7-74.2,172.7-165.7S262.1,58.6,166.7,58.6z"/>
	<path fill="#1D1D1B" stroke="#1D1D1B" stroke-width="8" stroke-miterlimit="10" d="M279,107c-7.5-14.4-171,0-171,0v159
		c0,0,157.1,3.9,170,0C284.3,272.7,286.5,121.4,279,107z"/>
	<polygon fill="#FFFFFF" stroke="#1D1D1B" stroke-width="8" stroke-miterlimit="10" points="388.3,255.2 359.5,231.5 346.7,265.6 
		338.1,230.3 306.7,250.8 321.5,217.3 283.5,216.3 316,197.5 285.9,175.3 323.8,178.4 313.1,143.6 341.9,167.3 354.7,133.2 
		363.3,168.5 394.7,148.1 379.9,181.5 417.9,182.6 385.4,201.3 415.4,223.5 377.6,220.4 	"/>
	<path fill="#FFFFFF" stroke="#1D1D1B" stroke-width="8" stroke-miterlimit="10" d="M447.5,241.4l-40.5-13.2l3.6,40.7
		c18,1.4,32.2,15.8,32.2,33.4c0,18.5-15.7,33.5-35.1,33.5c-19.4,0-35.2-15-35.2-33.5c0-15.2,10.6-28.1,25.1-32.2l-4.1-46.3
		l-39.5-12.9l5-13.9l93.5,30.5L447.5,241.4z"/>
	<path fill="#1D1D1B" stroke="#1D1D1B" stroke-width="8" stroke-miterlimit="10" d="M481.3,204.3c6.7,6,8.1,11.7,9.5,17.2
		c-1.4,5.6-4.3,9.3-7,12.4c-2.8,3.1-8.9,1.8-13.3,0.4c-16.5-5.4-112.9-34.1-114.9-37.5c-2-3.4,10.4-29,10.4-29l0.4-1c0,0,3-6,2.9-8
		c14.6-19,53.3-148.8,53.3-148.8s44.5,13.3,48.1,15.7s-47.5,140.4-53.3,148.8C411.5,183,461.8,186.9,481.3,204.3z"/>
</g>
</svg>
