<?xml version="1.0" encoding="utf-8"?>
<!-- Generator: Adobe Illustrator 17.1.0, SVG Export Plug-In . SVG Version: 6.00 Build 0)  -->
<!DOCTYPE svg PUBLIC "-//W3C//DTD SVG 1.1//EN" "http://www.w3.org/Graphics/SVG/1.1/DTD/svg11.dtd">
<svg version="1.1" id="Ebene_1" xmlns="http://www.w3.org/2000/svg" xmlns:xlink="http://www.w3.org/1999/xlink" x="0px" y="0px"
	 viewBox="0 0 600 400" enable-background="new 0 0 600 400" xml:space="preserve">
<g id="Ebene_1_1_">
</g>
<g id="Ebene_3">
</g>
<g>
	<g>
		<polyline fill="none" stroke="#1D1D1B" stroke-width="8" stroke-miterlimit="10" points="142.8,88.5 142.8,119.4 158.2,119.4 
			158.2,88.6 		"/>
		<polyline fill="none" stroke="#1D1D1B" stroke-width="8" stroke-miterlimit="10" points="136.4,238.5 136.5,118.7 164.5,118.7 
			164.4,238.5 		"/>
		<rect x="143.4" y="134.1" fill="none" stroke="#1D1D1B" stroke-width="8" stroke-miterlimit="10" width="14" height="210.2"/>
	</g>
	<path fill="none" stroke="#1D1D1B" stroke-width="8" stroke-miterlimit="10" d="M189,88.7h-77c0,0-28-34.8,0.1-32.9
		c68.7,6.6,38.1,0.6,76.9,1.9C207.3,60.6,189,88.7,189,88.7z"/>
	<path fill="none" stroke="#1D1D1B" stroke-width="8" stroke-miterlimit="10" d="M281,304.7c2.4,3.8-116.2,8.8-108,0
		c8.2-8.8-1.5-166.1,0-170c1.5-3.9,101.3-10.8,108,0C287.7,145.5,278.6,300.8,281,304.7z"/>
	<path fill="#1D1D1B" stroke="#1D1D1B" stroke-width="8" stroke-miterlimit="10" d="M487.3,184.9c0,0-50.6-72.3-55.4-79.8
		c-4.7-7.5-20.5-8-24.3-1.1c-3.8,6.9-43.7,79.5-43.7,79.5c-1.4,0.5-2.5,1.2-3.3,2.2c-10.9,12.2-5.5,123,11,137.2
		c16.6,14.1,105-0.9,105-0.9S522.1,192.6,487.3,184.9z M378.7,183c0,0,37.6-69.5,41.4-74c3.7-4.5,53.2,77.6,53.2,77.6
		C436.2,196.3,400.2,185.7,378.7,183z"/>
</g>
</svg>
