<?xml version="1.0" encoding="utf-8"?>
<!-- Generator: Adobe Illustrator 17.1.0, SVG Export Plug-In . SVG Version: 6.00 Build 0)  -->
<!DOCTYPE svg PUBLIC "-//W3C//DTD SVG 1.1//EN" "http://www.w3.org/Graphics/SVG/1.1/DTD/svg11.dtd">
<svg version="1.1" id="Ebene_1" xmlns="http://www.w3.org/2000/svg" xmlns:xlink="http://www.w3.org/1999/xlink" x="0px" y="0px"
	 viewBox="0 0 600 400" enable-background="new 0 0 600 400" xml:space="preserve">
<g id="Ebene_1_1_">
</g>
<g id="Ebene_3">
</g>
<g id="Ebene_4">
</g>
<g>
	<path fill="none" stroke="#1D1D1B" stroke-width="8" stroke-miterlimit="10" d="M492.1,201.5c-1.9-11.7-91.6-47.1-91.6-47.1
		c-29.5-1-62.4,0-92.8,0c-24.2,0-48.3,0-72.5,0c-9.9,0-22.4-0.4-33.2,1.3c-0.4,0.1-0.8-0.1-1.2,0.1c0,0-86.5,34.8-92.4,45.7
		c-5.9,10.9,39.5,59.1,44.4,61.4s47.7-24.5,47.7-24.5s-0.3,136.3,0,140.8s199.9,8.7,199.9,0s0-140.6,0-140.6s46.4,20,47.2,24.3
		C448.5,267.2,494,213.2,492.1,201.5z"/>
	<g>
		<path fill="#1D1D1B" stroke="#1D1D1B" stroke-width="8" stroke-miterlimit="10" d="M420.1,248.4c7.2-6.8,15.9-12.2,20.8-20.7
			c3.9-6.7-5.1-8.6-11-10.8c-4-1.5-7.9-4.6-9.9-7.9c-1.8-3-1.3-7.1-4.8-9.3c-5.4-3.5-13.7-2.8-17.1,1.7c-4.9,6.4-3.1,14.5-10.2,20.2
			c-4.1,3.3-9.5,3.4-14.4,5.6c-5.8,2.6-10,7.6-14.3,11.8c-15.5,14.9-6,31.4,3.6,47.1c3,5,4,6.6,0.5,12c-2.9,4.5-10.5,8.5-11.4,13.6
			c-0.9,5.1,6.1,9.8,11.4,11c6.6,1.6,10-0.4,13.7-4.8c4.5-5.2,6.9-10,13.5-13.4c5.7-2.9,8.5-4.8,7.5-10.8c-0.7-4-1.4-8-2-12.1
			c-0.8-5.4-1.4-10.1-1.4-15.6c0-5.3-1.3-13.8,1.7-18.5c1.4-2.2,3-2.6,3.4-5.4c0.3-1.7-1.3-7,0.4-8.3c3.5-2.7,4.2,2.2,4.4,3.7
			c0.3,2.7,0.3,2.9,2.9,4.6c2.2,1.4,8.5,6.5,11.4,4.3"/>
		<path fill="#1D1D1B" stroke="#1D1D1B" stroke-width="8" stroke-miterlimit="10" d="M189.4,241.2c-6,0.5-16.4-4.5-18.9-9.5
			c-3.1-6.2,2.6-10.6,9.7-11.4c6.1-0.7,17.1,2.6,20.2-3.4c3.5-6.7-3.7-9.9-3.4-15.9c0.5-10.6,18.7-10.2,26.4-5.5
			c2.6,1.6,4.3,3.7,6,6c3.6,5.1,8,7.1,15,7.5c2.7,0.2,8-1.4,10.3-0.5c2.4,1,2.9,7.4,3.1,8.9c0.7,5.3,2.5,13.3,1,18.6
			c-1.1,3.9-5.3,7.4-9.9,8.3c-4.4,0.9-10.5-1-14.5,0.9c-9,4.3-3.5,17.8-2.8,24.2c0.9,8.2-5.8,11.2-14.4,11.2c-4,0-12.7-1.4-14.8-5
			c-1.6-2.7,0.8-6.8,2.2-9.2c2.5-4.2-1.2-9.1-1.6-14c-0.4-4.9-0.8-5.4-0.9-10.5c-0.1-4.5,1.1-5.8-2.5-3.9c-4,2.1-2.4,0.3-3.6,2.8
			C195.2,242.3,191.4,240.3,189.4,241.2"/>
	</g>
	<g>
		<path fill="#FFFFFF" stroke="#1D1D1B" stroke-width="8" stroke-miterlimit="10" d="M201.8,293.1c-1-9.5-4.1-20-1.7-29.4
			c3.7-14.8,7.4-29.5,11.2-44.3c4.4-17.6,8.9-35.1,13.3-52.7c3.7-14.6,2.2-13.5,20.9-13.5C230.9,199.8,216.4,246.5,201.8,293.1z"/>
		<path fill="#FFFFFF" stroke="#1D1D1B" stroke-width="8" stroke-miterlimit="10" d="M399.1,293.1c1-9.5,4.2-20,1.8-29.4
			c-3.8-14.8-7.5-29.5-11.3-44.3c-4.5-17.6-9-35.1-13.5-52.7c-3.7-14.6-2.3-13.5-20.9-13.5C369.8,199.8,384.4,246.5,399.1,293.1z"/>
	</g>
	<g>
		<ellipse fill="none" stroke="#1D1D1B" stroke-width="8" stroke-miterlimit="10" cx="299.7" cy="82.3" rx="73.8" ry="66.6"/>
		<g>
			<g>
				<path fill="none" stroke="#1D1D1B" stroke-width="8" stroke-miterlimit="10" d="M263,60.6c-11,0-11,16.5,0,16.5
					S274,60.6,263,60.6z"/>
				<path fill="none" stroke="#1D1D1B" stroke-width="8" stroke-miterlimit="10" d="M319,60.6c-9,0-9,16.5,0,16.5
					C332,77.1,332,60.6,319,60.6z"/>
			</g>
			<path fill="none" stroke="#1D1D1B" stroke-width="8" stroke-miterlimit="10" d="M275.2,120.7c-13.6-25.9,56.8-16.7,41,0
				C296.9,127.1,311.4,104.5,275.2,120.7z"/>
		</g>
	</g>
</g>
</svg>
