<svg xmlns="http://www.w3.org/2000/svg" viewBox="0 0 500 500" enable-background="new 0 0 500 500"><path fill="#fff" d="M448.7 500v-4.1c-.6 0-1.2.1-1.8 0l1.8 4.1zM400.5 500v-.1z"/><path d="M400.5 500v-.1.1z"/><path fill="#fff" d="M202.2 100.1c.1.9.2 1.7.1 2.6l31.8.3c.2-1 .5-2 1-3-10.9-.1-21.9 0-32.9.1z"/><path d="M202.4 102.7c0 .7-.1 1.4-.2 2.1 3.2.2 3.1.9 3.1 6.1 0 2.2-.5 4.6 1.3 6.3.4.4.9.5 1.3.7l-.1-1.6c0-.3.2-.8.4-.8 1.2-.1 2.5-.2 3.7.1.7.2 1.2 1.2 1.7 1.8v.3c.5 5.2-.1 6-4.7 5.8-1.8-.1-3.7-.2-5.5-.2-4.5 0-6.6 1.4-8.1 6.5-1.2 4-1.9 8.1-2.6 12.3-.4 2.1-.9 3.3-2.9 3.7-.9.2-2.2 1.3-2.5 2.3-1.2 4.1-4 6.6-6.5 9.4-.6.6-1.3 1.2-1.5 2-.2.6.2 1.5.4 2.3l.8-1.5c.2-.3.4-.7.7-.9 3.3-2.9 5.9-6.7 8.4-10.6.4-.6.9-1.3 1.3-1.4 2.6-.3 2.8-2.1 3.1-4.8.6-4.8 1.9-9.4 3.1-14.1.6-2.2 2.4-3 4.2-3.1 3.4-.2 6.8-.2 10.3-.3 2.4-.1 3.6-1.2 3.7-4.1.1-2.3 0-4.7 0-7 2.3.2 4.6.4 6.8.6-1.1 1.2-1.6 6.9-.6 7.9.2.2.7 0 1-.2.2-.1.3-.6.2-.8-.6-4.7 2.1-5.1 4.9-5.5 3.6-.6 5.6-3.7 5.3-8.1-.1-1.9 0-2.6.9-2.9 0-.7.1-1.5.2-2.2-10.4.1-21 0-31.6-.1zm4.8 2.2l.6 1c0 .6-.2 1.1-.3 1.7-.2-.2-.4-.3-.4-.5 0-.7 0-1.3.1-2.2zm.7 8.4c-.3-.2-.5-.5-.7-.7.1-.2.4-.5.4-.4.4.3.7.6 1.2 1.1-.5 0-.8.1-.9 0zm6.7.8c-.3-.1-.7-.3-1-.5.4 0 .8 0 1.1.1.2.1.4.3.6.5l-.7-.1zm2.5-1.9c-1.6-.6-3.4-.7-5.2-.7-1.5 0-2.5-.3-2.3-2.3.1-1.8 0-4 2.2-4.1 2.5-.1 5.1 0 7.6 0v.1h5.8c1.1 0 2.6-.4 2.6 1.6 0 1.9.3 4.4-1.7 5-2.9.6-5.9 1.5-9 .4zm10 2.1c-.3 0-.6-.1-.8-.2.2-.2.4-.4.6-.4 2.8-.2 2.9-2.7 3.2-5.1.1-.7.3-1.3.5-2 .2.7.5 1.3.5 1.5 0 4.3-1 5.8-4 6.2zM336.2 386.1c-1.1-3.6-2.4-7-3.6-10.6-.7-2-1.1-4.1-1.8-6.2-.8-2.6-1.5-5.3-2.6-7.7-1.9-4.1-.7-7.9.7-11.5.7-2 .4-3.4-.7-4.7-.8-.9-1.6-2-2.6-2.6-2.3-1.5-3.5-3.9-4.4-6.7-3.5-10.3-7-20.5-10.4-30.8l-.5-2.1v-.6c-2-5.3-4.2-10.5-5.9-15.8-2.5-7.8-4.6-15.8-6.9-23.7-2-6.9-4-13.9-6.2-20.7-2.1-6.5-4.6-12.9-6.8-19.4l-8.8-27.1c-3.2-9.4-6.5-18.7-9.8-28-.8-2.2-1.4-4.2-.5-6.5.3-.8.5-1.4 1.1-.2.9 1.6 1.4.7 1.6-.5.5-2.6-1.3-6.6-3.3-7.7-1.7-.9-3.3-1.8-5-2.8-2.7-1.6-5.5-2.2-8.4-1.7-.6.1-1.2 1-1.7 1.5.6.3 1.2.7 1.8.7 4.1 0 7.8 1.3 11 4.4 2.1 2 2.3 3.1 1.3 6.1-.6 1.7-.9 3.5-1.4 5.2-2 .1-3.6 1.1-4.7 3-.6 1-1.2 2-2 2.7-1.7 1.6-1.8 1.8.1 3 2.4 1.6 4.8 3 5.1 6.8l.1.2-.1-.2c-2.6-1-5.1-2-7.6-3.1-1.3-.5-3.5-1.2-3.5-1.9-.1-1.9.8-3.8 1.2-5.7 0-.2.3-.3.4-.4.5-.7 1-1.5 1.6-2.2-.9.2-2 .1-2.8.7-2.4 1.7-2.7 4.7-2.9 7.6-.2 2.6.2 5.2.4 7.8.5 11.2 1.1 22.4 1.5 33.6l.4 11.4c0 .4.1.9-.1 1.2-.2.5-.5 1-.8 1.5-.2-.5-.7-1-.7-1.5-.3-4.3-.5-8.6-.7-12.9-.2-4.6-.2-9.3-.5-13.9-.1-1.5-.7-2.9-1.1-4.4-.2-.8-.6-1.6-.6-2.4-.1-6.1-.8-12.2.4-18.4.7-3.3.2-6.9.4-10.4 0-.9.5-1.8.8-2.7-1.9-.9-4.1.7-4.1 2.9.1 6.7.1 13.4.4 20 .3 6.2 1 12.3 1.4 18.4.4 6.4.6 12.8.7 19.2.1 3.9-.3 7.8-.4 11.6v.3c1.6 3.1-.1 6.1-.1 9.1 0 .7-.2 1.3-.3 2-.3-.6-.7-1.2-.8-1.8-1-5.1-2.1-10.2-3-15.4-1.9-11.6-1.8-23.4-1.4-35.1.2-7.2.4-14.4.5-21.7 0-1.8-.5-3.7-.7-5.5-.2-1.2-.5-2.5 1-3 .2-.1.4-.5.6-.8-.2-.1-.5-.3-.7-.3-4.8-.3-9.6-.6-14.4-.8-4.1-.2-8.2-.4-12.4-.6-4.2-.3-8.4-.7-12.6-.8-1.8 0-3.6.4-5.3 1.1-.7.3-1.4 1.8-1.6 2.9-.7 6.5-1.4 13-1.9 19.6l-2.3 33.1c-.3 4.1-.7 8.2-1.1 12.3.4-10.4.6-20.9 1.2-31.3.4-7.4 1.3-14.7 1.9-22.1.3-4.3.5-8.6.7-12.9.1-1.9-.6-2.6-2.2-2.5-1.2.1-2.5 0-3.7.2-1 .1-2.7.6-2.7 1 0 1.8.1 3.9.8 5.5.6 1.4 2.7 2 3 3.4.2.9-1.8 2.3-2.3 3.7-.7 1.7-1.4 3.6-1.4 5.5 0 5.4.4 10.9.5 16.3v10.2l.5 13.9c.2 7.8.4 15.6.5 23.5v22.3c.1 6.3.7 12.5.9 18.8.1 5.1-.1 10.3-.1 15.4 0 1.6.2 3.2.4 4.9.1 1 .4 2 .4 3 .1 9.6.3 19.3.1 28.9-.1 5.3-.7 10.6-1 15.9l-.1 7.1c0 .7-.7 1.3-1.1 1.9-.4-.6-1.1-1.2-1.3-1.9-.2-1.2-.1-2.5-.2-3.7 0-.4-.2-.9 0-1.2 1.6-3.3.1-6.8.5-10.2.4-3.7.7-7.4.7-11.1.1-3.6-.1-7.2-.2-10.8-.3-10.5-.8-21-1-31.5l-.7-58.2-.7-23.5c-.1-10 .1-20 .2-30v-3.1c-.1-1.6-.6-2.7-2.2-2.7-1.7 0-2.8-1.2-2.9-3.3-.1-2.1 1-2.9 2.7-2.9.4 0 1-.5 1.1-.9.1-.5-.3-1.6-.5-1.6-1.6 0-1.4-1-.7-2 1.4-2.2-.7-3.8-.7-5.8 0-.1-.2-.2-.3-.3-.1.3-.3.5-.3.8l.1 2.8c-.1 2.4-.4 4.6-2.5 6-.9.6-1.8 2.9-1.4 3.8.8 1.9 2.1 4 3.6 4.9 2.6 1.5 2.5 1.1 2.2 4.5-.3 4.6-.2 9.3-.2 13.9 0 4.5-.1 9 0 13.6l.6 19.2.5 22.8.4 18.6c.1 7.5 0 15.1 0 22.6 0 3.1.2 6.2 0 9.2-.2 3.1-.9 3.6-3.6 3.6h-8.2c-1.6 0-2.5.8-3.3 2.5-1.3 2.9-2.4 5.8-1.2 9.1.4 1.2 1.3 2.7 2.2 3 2.1.7 4.3.8 6.5 1 2.2.2 4.4-.1 6.5.2.7.1 1.7 1.2 1.8 1.9.3 2 .2 4.1.2 6.2-.1 2.1-.8 3.5-2.5 4.7-3.5 2.6-5.7 6.5-6.4 11.5-.6 4.1-1.8 8.2-2.7 12.2-.2.7-.3 1.4-.4 2.1 0 .1.5.3.8.4.2 0 .4-.1.6-.2.4 4.4 3.5 4.3 6 5.1 1.1.4 2.2 1.1 3.3 1.3 1.1.2 2.3.3 3.2-.2 2.2-1.2 3.9-.4 6.1.3 5.2 1.8 6.6 5.5 7.3 11.3.8 6.6 2.9 12.9 4.4 19.4l1.7 8.4c.1.4.4.8.6 1.2.2-.4.5-.8.6-1.2.1-.9 0-1.8 0-2.7 2.2 3.8 3.2 8 3.1 12.5 0 .8 0 1.7.4 2.4 2.5 5.4 1 11.3 1.4 16.9 0 .3-.9.8-1.5 1.1l-2.1.8h.1c2-.6 4.1-1.1 6.1-1.4-.9-.5-.9-1.6-.7-3.8.3-4.8 0-9.6-.1-14.4-.1-4.2-.1-8.4-.3-12.6l-.7-10.8c-.3-8.6-.5-17.3-.7-25.9-.2-9-.4-17.9-.5-26.9l.2-8.3-.3-33.1c-.1-7.7-.5-15.4-.5-23.1 0-4 .3-8 .4-12 .1-1.6.9-2 2.1-2.1 3.1-.2 6.3-.5 9.4-.8v.1c2.2 0 4.4-.2 6.6 0 3.1.3 3.3 1.4 3.2 4.9-.2 6.2-1.1 12.4.5 18.5.3 1-.1 2.2-.1 3.3.1 9.4.2 18.7.2 28.1l-.1 6.8.2 5.8.3 14.5c0 .6-.1 1.3.1 1.8 1 3.7.2 7.6.6 11.3.9 8-.3 16 .5 24 .4 4-.1 8.2-.1 12.3 0 1.3.4 2.6.4 4 0 11.6-.1 23.2-.2 34.8 0 1.2 0 2.1-.1 2.8.5.2 1 .5 1.4.7 0 0-.1 0-.1-.1.6.3.5.3.1.1 1 .5 1.9 1.1 2.8 1.9.2 0 .3 0 .5-.1.4-.6.8-1.3 1.2-1.8-.1-.2-.1-.4-.1-.7 0-4.4.1-8.9.2-13.3 0-.8.5-1.6.7-2.4.4.3 1.2.5 1.2.9.1.9-.1 1.8-.3 2.7-.1.5-.5 1.4-.4 1.5 1.9 1.7 1.1 4.2 1.3 6.3.1.7.3 1.4.5 2.1 0 0 .1 0 .1-.1.2-.7.5-1.3 1-1.8v-22c0-3.4.1-6.8 0-10.2-.1-2.2.7-3.6 2.4-4.7.8-.5 1.2-1.8 1.8-2.7-1.3-1.1-1.9.4-2.9.9-3.5 1.8-3.5 5.2-3.4 8.8v.6c-.2 1.2.4 2.9-1.3 3.1-.2 0-.7-2-.8-3.1-.3-3.9-.3-7.8-.7-11.6-.1-.8.5-3.6-1.9-2.2-.1 0-.5-.4-.5-.6-.2-2.8-.4-5.5-.5-8.3 0-1.6 3-4.6 4.5-4.5.3 0 .8.7.8 1.1.1 1-.1 2.1.1 3 .3 1.5 1.1 2.1 2.6 1.6 3.1-1.1 5.4-2.9 5.4-7.2 0-1.2.1-2.7 1.7-3 .3-.1.7-1.4.7-2.1l-1-26.5c-.1-2.8.3-5.6.3-8.3-.1-5.3-.3-10.7-.5-16 0-.9-.1-1.9 0-2.8.2-.9.6-1.7 1-2.5.7.8 1.9 1.5 2 2.3.3 5.2.5 10.5.6 15.7.1 4.7.1 9.5 0 14.2-.2 8.3-.7 16.7-.8 25-.1 4.3.6 8.6.6 12.8 0 3.5.2 7.2-3.2 9-.4.2-.8.5-1.1.9-.3.4-.3 1-.5 1.6.5.1 1.1.4 1.4.2 2-1.1 3.6-2.6 4.2-5.2.5-2 1.6-3.1 3.3-2.6 1 .3 2 1.3 2.6 2.4 1.6 2.7.9 7.6-1.5 9.5-2 1.5-2.5 3.4-2.4 6 .1 1.7.4 4.4-1.7 4.4-2 0-1.5-2.4-1.6-4.1-.2-2.5 0-5.3-2.3-6.8-.5-.3-1.2-.3-1.8-.5.1.7 0 1.6.3 1.9 2.3 2.2 2.5 5 2.1 8.1-.2 1.9.7 3.1 2.1 3.9 1.4.8 2.3-.1 3.3-1 1.7-1.7 2.5-3.6 2.2-6.3-.1-1.2.5-2.6 1-3.8.8-1.9 2.1-3.6 2.7-5.6.4-1.4.4-3.4-.1-4.7-.9-2.3-.6-4.3.4-6.1 2.1-3.7 2.5-7.9 2.9-12.1.1-1-.7-2.4-1.4-3.2-1.4-1.4-2.1-4-1.3-5.8.1-.3.6-.5.9-.4l4.4 1c2 .4 3.7-.3 5.3-2.1 1.1-1.3 2.4-2.3 3.8-3.2 6-4.1 12.1-8.1 18.2-12.2l1.2-.4c.1.6.3 1.2.1 1.7l-1.4 3.3c-.5 1.5-.3 2.9 1.1 3.6 1.6.8 1.9-.7 2.4-2 .2-.7.4-1.4.7-2 .5-1.3 1.1-1.8 2.5-1.1 5.3 2.7 10.6 5.3 16 7.9 1.4.7 2.6 1.7 3.2 3.7 2.5 7.7 5.4 15.3 8.1 22.9 1 2.9 2.6 4.9 5.3 5.4 1.8-.1 2.5-.8 1.9-2.5zm-162.3-31.3c1.3-5.3.5-11.5 4.4-15.8.4-.4.7-1 1.1-1.3.3-.2.8-.1 1.2-.1 0 .5.1 1 0 1.4-.3.6-.8 1.1-1.2 1.6-3.6 4.6-3.9 7.8-1.1 13 .3.5.4 1.1.5 1.7l-3.9.4c-.2 0-1-.7-1-.9zm2.3 3.5c0-.1.2-.3.4-.4.1.2.4.4.4.6-.1.2-.3.4-.6.7-.2-.5-.2-.7-.2-.9zm1.8 5.5c-.4 0-.9-.3-1.4-.5.4-.2.8-.3 1.1-.4.8.2 1.3.3 1.9.4-.5.2-1.1.5-1.6.5zm2.4-4.1c-.2.3-.7.5-.9.4-.3-.2-.5-.7-.5-1.2-.1-1.2-.1-2.4-.1-3.6 1.8.5 2.7 2.8 1.5 4.4zm.6-10.1c-.1.7-.4 1.3-.6 1.9-.4-.6-1.1-1.2-1.2-1.8-.1-1.4 0-2.8.4-4.2.2-.8.9-1.3 1.4-2 .2.8.5 1.6.6 2.2-.3 1.5-.4 2.7-.6 3.9zm-.2-31.3c-.1.7-1.2 1.2-1.5 1.5-3.7 0-6.8.1-9.8-.1-.9-.1-2.4-.9-2.4-1.5-.1-1.6 1-2.5 2.4-2.5 3-.1 6.1-.3 9.1-.2 1.2.2 2.5 1 2.2 2.8zm.4-3.9c-3.7-.1-7.4-.4-11.1-.3-1.5 0-2.6-.2-2.9-2.2-.2-1.9.8-3.5 2.5-3.6 2.3-.1 4.7 0 7.1 0v-.3c.5 0 1 .1 1.6.1 1.1.1 2.9-.3 3.1.3.6 1.5.5 3.3.6 5.1 0 .3-.6.9-.9.9zm57.5 94.3c0-.4.5-.8.8-1.2.3.5.9 1 .9 1.5s-.5 1-1.2 2.1c-.3-1.2-.6-1.8-.5-2.4zm.6 3.8c.4.7 1.2 1.3 1.2 1.9-.1.8-.8 1.5-1.2 2.3-.3-.4-.7-.9-1.1-1.5.4-1.1.8-1.9 1.1-2.7zm66.3-115.5c.7 1.4.5 1.6.4 1.8-.2-.3-.4-.6-.5-.9-.1-.2 0-.6.1-.9zm-2.6-8.7c.3 1.2.6 2.4 1 3.6l-1.4-3.4c.1-.1.2-.1.4-.2zm-3.9-12c.2.2.3.3.6.5-.1.3-.2.5-.3.7-.2-.2-.4-.3-.4-.6-.1-.1 0-.4.1-.6zm-16.7-53l1 2.4c.1.4-.1.8-.1 1.2-.3-.3-.7-.6-.8-1-.2-.8-.1-1.7-.1-2.6zm-3.1-9c.2.2.4.4.5.6.8 2.7 1.7 5.4 2.5 8l-3.1-7.9c-.1-.1 0-.4.1-.7zm1.7 14.8c1.2 4.9 3 9.4 5.1 13.8 1.8 3.6 2.6 7.8 3.8 11.8.2.6-.2 1.4-.3 2.1 2.7 5.1 4.3 10.6 5.7 16.3 1.1 4.6 2.5 9.2 4.2 13.6 3.1 7.6 4.9 15.8 7.8 23.5 1.2 3.1 2 6.1 1.9 9.5 0 .8-.6 1.6-.9 2.3-.5-.6-1.2-1-1.4-1.7l-4.1-13-7.7-25.6c-1-3.5-2-7.1-3-10.7l-4.8-13.7c-1.4-4.5-2.8-9-4.2-13.6-2.2-7.2-4.3-14.5-6.4-21.8 2.8 1.6 3.7 4.4 4.3 7.2zm-20.6 75.4c6.2-.2 12.4-.5 18.6-.8 1.7-.1 3.3-.2 5-.6 2.2-.4 3-1.7 2.8-4.3-.5-4.8-1.8-9.3-5.3-12.3-.8-.7-2.1-.9-3.1-.7-2.9.7-5.8.9-8.8.4-3.9-.7-8-1.6-11.9.1l-.1.1c-.6-.2-1.7-.3-1.8-.7-1.6-5.4-.7-7.8 3.4-11.2 3.7-3.1 7.2-6.6 10.7-10 2.1-2 4.2-4 6.2-6.1 2.3-2.3 6.8-1.1 7.9 2.1 1.1 3.1 2.2 6.3 3.2 9.5l4.3 13.9 6.8 20.7c1.2 3.8 2.4 7.7 3.5 11.5h.5c.7 1.8 1.7 3.4 2.1 5.3.3 1.6.1 3.4-.1 5.1-.3 2.2-1 4.3-1.2 6.6-.2 2-1 3.2-2.8 2.6-3.4-1.2-6.9-2.3-10.1-4-7.9-4.1-15.6-8.3-23.4-12.7-1.8-1-3.1-3.1-4.9-3.9-3.4-1.7-2.5-5.2-3.2-8.1-.3-1.7.2-2.5 1.7-2.5zm-1.7-3.3c.5-.3.9-.9 1.4-1 5.1-.7 10.2-1.9 15.4-.8 1.9.4 3.8.2 5.8.3.6 0 1.1.4 1.6.7-.6.3-1.1.8-1.7.9-2 .3-4 .4-5.2.6h-15.8c-.4 0-1-.5-1.5-.7zm5.2-9.9c-.7.2-1.4.5-2 .7-.2.1-.3 0-1.1 0-.2 0-.9-.2-1.6-.4l2.3-.7h.5c.7.1 1.3.3 1.9.4zm-7.2-2.3l-.7 1.2.3-1.4c.1.1.2.1.4.2zm-.4-17.6c.3-.8.9-1.6 1.5-2.1l11.6-9c.3-.3.8-.3 1.2-.5-.2.5-.2 1.2-.5 1.5l-10.5 10.2c-.6.5-1.1 1-1.7 1.4-.5.3-1.1.5-1.6.7 0-.6-.2-1.5 0-2.2zm15.9-15.5l1.2-.3-1 .7c-.1-.2-.2-.3-.2-.4zm8.8-7.3l-1.2-2.5c0-.1.3-.4.4-.6l1.2 2.3-.4.8zm1 3c0 .3-.2.6-.4.8-.2-.2-.4-.4-.5-.6 0-.2.1-.5.3-.8.2.3.6.5.6.6zm-2.2-10.9c-4.4-9.6-7.1-19.9-10-30.2-2.3-8.3-5.2-16.4-7.7-24.6-.4-1.1-.5-2.3-.7-3.5 1.3 3.3 2.8 6.6 3.9 10 3.4 10.7 6.8 21.4 10.1 32.1l5.1 15.9c.1.4.1 1 .1 1.5-.4-.4-.7-.8-.8-1.2zm1.8 14.1c.2.1.4.3.8.6l-.8.3c-1.4-.3-2.7-.6-4.1-1-.2-.1-.3-.4-.5-.6.2-.1.5-.3.7-.3 1.3.3 2.6.6 3.9 1zm6.6 11.4c.3.5.7 1 1 1.4-.1.5-.2.8-.3 1-.3-.5-.6-1.1-.8-1.6-.1-.2.1-.5.1-.8zm-18.7-80.8c.3.4.6.7.8 1.1 1.6 5.2 3.1 10.4 4.6 15.7.1.2.1.4.2.7l-.2-.6c-1.9-5-3.8-10.1-5.6-15.2-.1-.5.2-1.2.2-1.7zm-5.1-14.6l.4.7c1.2 2.8 2.4 5.6 3.5 8.5.1.3-.1.9-.2 1.3-.2-.3-.5-.6-.6-.9l-3.4-8.6-.2-.9c.1 0 .3-.1.5-.1zm-5.6 3.8c-.4-.4-1.1-1.4-1-1.5.7-1.1 1.6-2.1 2.5-3 .1-.1 1.2.8 1.4 1.4 1.8 4.5 3.6 8.9 5.2 13.5 3 8.5 5.9 17.2 8.8 25.7.5 1.4.9 2.9 1.3 4.4-.1.3-.2.5-.4.7-.2-.2-.5-.3-.6-.5-1.6-3-3.5-5.7-4.7-8.9l-6.2-19.6c-1.4-4.5-2.8-9.2-6.3-12.2zm-1.7 29.1h.4l.6-15.4c0-.9.1-1.9.3-2.8.1-.4.4-1 .5-1 .4.1.9.3 1 .7.8 1.9 1.5 3.7 2.1 5.7 2.1 7.1 4.2 14.2 6.2 21.3l3.3 11c1.9 6.2 3.9 12.3 5.8 18.6 1.4 4.5 1.3 5.7-2 8.5-3.9 3.4-8.2 6.2-12.4 9.3l-3.8 3.1c-1.9 1.5-2.7 1.2-2.7-1.5 0-8.2.2-16.5.3-24.7 0-.9.2-1.8.2-2.8.2-10 .2-20 .2-30zm-1.2-20.6c.1-.4.6-.8.9-1.2.1.5.2.9.2 1-.2 1.4-.4 2.4-.6 3.4l-.3 1.9-.4-2.1c0-.9 0-2 .2-3zm0 14.1l-.5 16.1c0 .4-.2.7-.3 1.1-.1-.3-.2-.6-.2-.9.4-5.4.7-10.9 1-16.3zm-.9 20.4c.1.7.3 1.5.4 2.1-.1.8-.2 1.5-.3 2.1-.2-1.1-.4-2.2-.5-3.2 0-.4.3-.7.4-1zm-.5 12.4c.2-1.4.5-2.7.7-4v4.3c-.1 3.1-.2 6.5-.4 9.9 0 .6-.3 1.1-.5 1.7-.2-.5-.5-1-.5-1.5 0-1.9 0-3.9.1-5.8.2-1.5.4-3 .6-4.6zm-4.8-47.4c.1-1.5.6-2.6 2.2-2.3 1.4.3 2.1 1 2 2.9-.3 8.2-.5 16.4-.7 24.7-.2 6.6-.3 13.2-.6 19.8-.1 2.2-.5 4.5-.8 6.7 0 .2-.3.4-.4.6-.1-.3-.2-.6-.2-.9l-.6-8.3h.3c-.5-12.4-1.1-24.9-1.5-37.3 0-2 .2-4 .3-5.9zm-.8 56.3c.1.4.4.7.4 1.1 0 6.5 1.6 12.8.8 19.3 0 .3-.1.6-.2.9l-.3-.8c-.1-1.2-.2-2.5-.2-3.7h.2c-.3-5.1-.6-10.3-.8-15.4-.1-.5.1-.9.1-1.4zm-1 47.6c.1 1.2 0 2.5 0 3.7h.2l-.3 3.5-.7-3.5c-.2-1.2-.3-2.4-.3-3.7 0-.4.4-.7.7-1.1l.4 1.1zm-3.3-23.5c2-.8 1.3-2.4.8-3.8-1.4-4.3.2-8.5 0-12.8 0-.1.1-.3.2-.5.1.4.3.7.3 1.1l1.4 11.9c-.2 0-.3 0-.5.1l.6 20.7c0 .7-.3 1.5-.5 2.2-.3-.7-.8-1.3-.9-2-.7-5.1-1.3-10.2-1.9-15.3 0-.5.2-1.5.5-1.6zm-57.7-93.3c-1.4-.7-1.3-1.7-.6-2.9.3-.4.8-1.1.9-1.1.8.4 1.9.8 2.1 1.6.3 1.4.1 2.9.1 4.4-.8-.6-1.6-1.5-2.5-2zm-.6 41.7c0 .6-.2 1.1-.3 1.6l-.1-1.8v-22.5h-.4c.1-2.8.2-5.5.4-8.3 0-.6.1-1.3.4-1.7.8-1.1 1.8-2 2.7-2.9 0 1.3 0 2.5-.1 3.8l-1 12-1 12c-.3 2.5-.4 5.2-.6 7.8zm.2 36.4c.4-5 .9-10 1.4-15-.2 5-.3 10.1-.6 15.1 0 .4-.4.7-.6 1.1 0-.5-.2-.8-.2-1.2zm1.3 16.1c1.3-12.9 2-25.9 2.9-38.8 1-13.2 1.9-26.5 3-39.7.4-5.5 1.1-11 1.6-16.6.2-2.1.8-2.8 2.6-2.6 3.1.4 6.3.3 9.4.6 1.1.1 2.9.5 3.2 1.3.5 1.7.8 3.9-.7 5.5-1.1 1.2-2.4 2.3-3.1 3.8-1.4 2.8-2.6 5.8-3.5 8.9-2.3 7.5-2.7 15.3-2.6 23.1.2 8.6.5 17.1.3 25.7-.1 4.3-1 8.5-1.6 12.8-.4 2.8-1 5.7-1.5 8.5-.1.7-.5 1.4-.7 2.1v-2.1c.2-9.1.6-18.1.6-27.2.1-10.4-.1-20.8-.3-31.2 0-1.9-.6-3.8-.9-5.7-.3 1.9-.7 3.7-.7 5.6-.1 3.4 0 6.8 0 10.2h.6c0 12.6.2 25.1-.1 37.7-.2 7-1 14-2.1 20.9-1.4 8.8-3.3 17.5-5 26.2-.1.5-.4.9-.6 1.3-.2-.5-.5-1-.5-1.5-.8-9.7-1.3-19.2-.3-28.8zm6.9 43.4c.2-.3.6-.5.7-.8.3-.7.6-1.5.7-2.3l8.1-38.4c.1-.6.3-1.2.5-1.8.1-.3.3-.5.5-.7.2.3.4.6.4 1 .1 1.2 0 2.5 0 3.7h.1c0 5.3-.9 11 .3 16 1 4.2-.3 7.7-.5 11.4-.1 4-.9 7.9-1.5 11.9-.4 2.6-1.6 3-4.8 2.4-1.2-.2-2.8-.9-3.5-.3-.7.6-.4 2.7-.5 4.1 0 1.1-.1 1.9-1.3 1.4-2.1-1-2.4 1-2.2 2.4.6 3.8-1.2 6.8-2.3 10-.2.6-.8 1-1.2 1.4-.1-.6-.3-1.1-.3-1.7.1-7.2 0-14.5.6-21.7.4-4.6 1.8-9.2 2.7-13.8 1.5-7.8 3-15.7 4.5-23.6.5-2.9 3-4.5 5.2-2.9.6.4 1 2 .8 2.8l-6.4 30.9c-.5 2.3-.7 4.7-1 7 .1.7.3 1.2.4 1.6zm-6.9 51.1c-.1-.2-.3-.5-.3-.7 0-.6.1-1.2.2-1.8-.1-2.7-.3-5.4-.3-8 0-.8.7-2.3.9-2.3 1.2.3 3.1.6 2.8 2.5-.7 3.4-1.9 6.6-3 9.8 0 .3-.1.4-.3.5zm19.3 44.7c-.6-1.1-1.5-2-1.8-3.2-1.6-7-3.1-14.1-4.7-21.2-.7-3.1-1.5-6.1-2.4-9.1-.2-.6-1-1-1.6-1.4-2.2-1.2-4.3-2.3-6.5-3.3-1.3-.6-1.8-1.6-1.3-3.2l2.7-8.7c.3-.9.6-.9 1.5-.6 1.8.6 3.8.6 5.7.7.2 0 .8-.9.7-1.2-1.3-4.9.8-9.6 1-14.4l.2-.9c-.1-.8-.2-1.6-.3-2.5-.5.5-1.1 1-1.4 1.6-1.3 2.6-2.6 5.1-3.8 7.8-.9 2-1.5 2.7-3.6 1.3-3.9-2.8-4.4-3.7-2.6-8.9.5-1.4.7-2.9 1.1-4.3l1.4-4.3 2.4-8.4c.1-.4.2-1.1.3-1.1 2.3-.3 2.4-2.9 3.5-4.5.8-1.1 3.1-1.4 4.6-1.1 1.7.4.7 2.4.6 3.7l-1.1 9.8c-.1.7.2 1.5.3 2.3.3-.7.8-1.3.9-2l3-16.9c.1-.4.2-.8.4-1.2l.1 1.2c.1 3 .3 6 .3 9 0 1.1-.5 2.2-.9 3.1-1.3 3.1-2.1 6.1-2.2 9.7 0 3.9-.8 7.8-1.3 11.6l-1 8.3c-.3 2.1.4 2.7 2.1 2.2.5-.1 1-.2 1.5-.4 2.4-1 2.8-.8 2.9 2.1.1 4.7.1 9.5.1 14.2 0 1.2-.1 2.1-1.5 1.2-1-.7-2.1-1.1-3.2-1.5-.5-.2-1.3-.3-1.5 0-.5.5-1.1 1.5-1 2.2.3 2.5 1.1 4.9 1.3 7.4.5 6.6 2.6 12.6 5.1 18.4.2.6.7 1.1.7 1.6-.2 1.7-.5 3.3-.7 4.9zm-12-54.6l1.9-4.2c.1-.1.4 0 .6 0-.2 1.4-.3 2.8-.6 4.2-.1.5-.7.7-1.2 1.3-.3-.6-.7-1.1-.7-1.3zm12.2-2.9c-.1 1.1-1 2.4-1.8 2.9-1.5.9-2.3 0-2-2 .8-5.3 1.6-10.7 2.5-16 .1-.7.2-1.4.4-2.1l.3-.8c.1.3.2.6.2.8l.9 9.2h-.3c-.1 2.7.1 5.4-.2 8zm.8 47.2c0 .3-.1.6-.2 1-.1-.2-.3-.5-.4-.8-2-6-3.2-12.2-3.6-18.6-.1-1.9.8-2.2 2.2-2.2 1.7 0 2.5.8 2.1 3.6l-.1 17zm20.5-132.4c-6.3 0-12.6-.7-18.9-.6-3.2.1-6.5 1.2-9.7 1.9-.5.1-1 .2-1.4.1-.2-.1-.2-1-.1-1.4l1.4-6c.8-3.7 1.7-7.4 2.3-11.1.4-2.2 1.2-3 3.1-3.3 3.8-.6 7.6-1.7 11.4-2.4 5.8-1.1 11.5-.8 17.2 1.2.5.2 1.1-.1 1.6-.1-.4-.4-.6-1-1.1-1.2-2.1-.7-4.1-1.8-6.2-2-7.4-.5-14.9-1.4-22.1 2.2-2.2 1.1-3.1.2-3.2-2.6-.2-5.9-.2-11.7-.3-17.6 0-2-.3-3.9-.2-5.9.4-7.2.5-14.5 1.7-21.5.7-4.3 2.7-8.5 5.7-11.5 2.1-2.1 3-4.7 3-7.9 0-3.4.7-4.2 3.6-4.2l13.9-.1h2.1c4.1.2 4.4.6 4.5 5.4.2 4.5.6 9 .7 13.6.1 3.2-.1 6.4-.3 9.6 0 .2-.5.6-.7.6-.3 0-.7-.3-1-.5-.1.8-.6 1.7-.4 2.3 1.6 4.2 1 8.7 1.3 13.1.4 5.9.4 12 1.3 17.8 1.1 7.2 2.9 14.2 4.4 21.3.2 2.3.2 4.7.8 6.8.6 2.3.1 3.4-1.8 3.5-4.2.1-8.4.5-12.6.5zm3.2 16.8c-.2-4.2-.4-8.4-.4-12.6 0-.6.4-1.2.6-1.8.3.5.6.9.8 1.4 1.1 3.7 2.2 7.4 3.4 11.2l-2.6 2.5c-.4.4-.9.7-1.3 1-.2-.4-.5-1-.5-1.7zm7.9 34.8l.3-2.2c.1.8.4 1.6.4 2.4 0 1.6-.2 3.3-.3 4.9l-.2.7-.1-.9v-3.1c-.1-.6-.2-1.2-.1-1.8zm-.8-7c-.6-.1-1.1-1.2-1.7-2 .5-1 .8-1.5 1.1-2 .9.9 1.8 1.8 2.7 2.6-.7.6-1.5 1.5-2.1 1.4zm.1 43.3c-.2 1-.4 1.8-.5 2.6-.3-.7-.9-1.4-.9-2.1 0-1 .5-2 .7-3.1l.7 2.6zm-1.7-26.7c.1 1.9.1 3.9.2 5.9l.5 11.4-1.6-17.4c0-.2.2-.5.3-.7.3.3.6.5.6.8zm-.9-3.9c-.1-.4-.4-.9-.4-1.3-.3-4.1-.6-8.1-.9-11.7v-3.8c.3 1.1.7 2.2.8 3.3.4 4.1.6 8.2.9 12.2 0 .4-.3.9-.4 1.3zm-2.1-28.7l.6 4 .6 4.2c0 .3-.2.7-.3 1-.2-.3-.6-.5-.6-.8-.1-1.5-.1-3-.2-4.6h-.1v-3.8zm-.5-4.2c0-.4-.2-.8-.1-1.2.1-.6.3-1.2.4-1.9 0 .5.1 1 .2 1.8-.1.3-.3.8-.5 1.3zm-.1 57.5c-.2-.8-.1-1.7-.1-2.6 0-.4.1-.8.2-1.2-.4-.7-1-1.3-1-2l-.1-16.7-.3-17.6c0-.3.1-.5.2-.8.1.2.3.4.4.7.1.4.2.8.2 1.2l2.2 31.9c.1 1.5.4 3.1.4 4.6 0 .8-.3 1.8-.7 2.5-.1.4-1.3.2-1.4 0zm1.8 56c.3.6.7 1.1.8 1.7.3 5 .6 10 .9 14.7-.2 7.2-.3 14-.6 20.8 0 .4-.4 1-.6 1-.4.1-1-.2-1.1-.5-.3-.8-.5-1.8-.5-2.7-.2-6.3-.5-12.5-.4-18.8.1-4.9.6-9.8 1-14.7 0-.5.3-1 .5-1.5zm5.8-29c0-1.6-1.4-2.4-2.8-1.5-.8.5-1.4 1.2-2.1 1.8.3.6.5 1.5 1 1.8 3.2 1.7 0 1.8-.4 2.3-.7.8-1.2.4-1.2-.8-.3-7.9-.6-15.8-.8-23.7 0-.6.3-1.2.5-1.9l.4 1.7c.1.8.1 1.7.4 2.4.9 1.8 1.1 3.3.3 5.3-.3.8.3 2.5.9 3.2.5.6 2.1.7 2.6.2.7-.6 1.1-2 1.1-3.1 0-3.4-.3-6.8-.4-10.2 0-.6.2-1.6.6-1.9.3-.2 1.2.1 1.6.5 1.8 1.9 3.6 3.5 3.2 7.2-.5 4-.1 8.2 0 12.3 0 2.4-.8 4.2-2.4 5.5-1.1.6-2.4 2.3-2.5-1.1zm3.9 6.9c-.4.3-1.1.6-1.4.4-.3-.2-.3-1-.6-1.8.4-.7.7-1.5 1.2-2.2.8-1.1 1.6-2.1 2.5-3.1.1-.1.5-.1.5-.1.4 1.3-1.1 6.1-2.2 6.8zm-.8-32.7c-.6-.6-1.6-1.2-1.8-2-1-4.6-2.4-9.3-1.5-14.2.1-.4 0-.8 0-1.2v-3.1c.4 1 .9 1.9 1.2 3 .7 3.3 1.2 6.6 1.8 9.9.1.8.5 1.6.9 2.1.3.4.9.4 1.4.6.1-.5.4-1.1.3-1.6-.9-4.9-1.9-9.7-2.6-14.7-.7-5-1.1-10.1-1.6-15.2-.1-1.6.7-1.7 1.7-1l2.6 2.1c1 .8 1.2 1.7 1.1 3.3-.2 4.3.2 8.6.2 12.9v19.1c0 1 .3 2 .5 3-1.4-.9-2.8-1.9-4.2-3zm10.5-34.7v-12.9c0-.4 0-.9-.2-1.2-.2-.5-.6-.9-.9-1.4-.3.5-.9 1-.9 1.6l-.1 9.2c-.1 1.8-.4 3.5-.7 5.3-1.3-.6-2.8-.8-3.8-1.8-3.4-3.2-6.6-6.6-9.9-10 .2-2.5.7-5 .5-7.5-.4-4.4-1.2-8.7-1.7-13.1-.5-3.9-.9-7.8-1.2-11.6-.1-1.4-.5-2.9 1.4-3.3 2.2-.4 3.8.2 4.2 2.2.8 4.7 1.6 9.5 2.2 14.3.6 4.3.9 8.6 1.6 12.8.7 4 1.8 7.9 2.7 11.8.1.3.4.6.6.9.3-.5.7-.9.7-1.4.2-3.3.3-6.5.3-9.8 0-3.4-.1-6.8-.2-10.2 0-.3.2-.6.3-.9l.2.9.5 3.3c.1.3.4.5.6.8.1-.4.4-.7.3-1.1-.1-1.1-.3-2.3-.3-3.4.1-7.8.4-15.6 1.9-23.3.6-3.2.2-6.7.3-10.1 0-1.3.4-2.6.5-3.9.1 1.2.4 2.4.4 3.7-.2 5.5-.7 11.1-.7 16.6 0 7.1-1.2 14.1.1 21.2.3 1.6.2 3.4 2.2 3.6-.6 3.3-.1 4.1 2.5 4 7.2-.2 14.4-.4 21.5-.7.6 0 1.2-.6 1.8-.9-.3-.6-.4-1.5-.8-1.8-1-.7-2.1-1.2-3.2-1.8-.3-.2-.7-.2-1.1-.3.4-.2.7-.7 1.1-.7.9 0 2-.1 2.5.5 1.4 1.8 2.8 3.7 3.7 5.8.8 2.1.1 3.1-1.9 3.2-2.6.1-5.3-.3-7.9-.3-4.4 0-8.7.1-13.1.4-1.7.1-3.3 1-4.2-1.6-.1-.3-.8-.6-.8-.5-.3.5-.7 1-.7 1.5.2 2.5.5 5.1.9 7.6l1 4.2c.1 1-.3 2-.5 3-1-.5-2.3-.9-1.7-2.9zm21.8-17.6c.1-.1.2-.3.3-.3h1.3l-.5.4c-.4 0-.8 0-1.1-.1zm-21.7 25.6c0-.9.6-1.7 1-2.5.5.7 1.2 1.4 1.6 2.1.3.5.4 1.2.5 1.7.5 2.2 1.2 4.4 1.5 6.6.5 3.9.9 7.8 1.3 11.7.1 1.1-.1 2.2-.1 3.3-.5-1.9-1-3.7-1.6-5.5-.1-.4-.6-.6-.9-.9-.2.5-.4 1-.4 1.5 0 1 .1 1.9.2 2.9-.6-.8-1.5-1.6-1.7-2.5-.6-2.5-1.1-5-1.3-7.5-.3-3.7-.2-7.3-.1-10.9zm.1 34.6c.1-2.1.3-4.3.5-6.4 0-.3.3-.6.5-.9l.3.4c.8 2.3 1.6 4.7 2.3 6.9-.7 1.7.2 4.4-2.1 4.2-2.2-.2-1.6-2.6-1.5-4.2zm3.8 10.6c-.2 2.3-.5 4.6-.9 6.9-.1.4-.5.6-.8 1-.2-.3-.5-.6-.6-.9-.3-1.8-.5-3.6-.7-5.2 0-.9-.2-1.7 0-2.1.4-.6 1.1-1.2 1.7-1.2.5 0 1.3 1 1.3 1.5zm-3.2 21c-.2-.4-.6-.8-.5-1.2.1-.5.5-1 .7-1.4.2.4.4.7.7 1.2-.4.6-.6 1-.9 1.4zm4.4-1.6c-.1.7-.7 1.2-1 1.8-.3-.8-.7-1.5-.8-2.3-.1-.4.1-1 .3-1.5.4-1.2.1-1.9-.9-1.9-1.6 0-2.1-1-2.1-2.7 0-1.7.9-2 2.1-2 1.9-.1 2-1.9 2.3-3.5.1-.3.4-.6.6-.8.1.3.2.6.2.9v4.9l-.7 7.1zm.2-19.8c-.1-.3-.4-.7-.3-1 .1-1 .4-1.9.6-2.8.2.5.4 1 .7 1.7l-1 2.1zm2.6 9.6c.1.3.4.7.4 1-.3 2.2-.6 4.3-1 6.5 0-2.2 0-4.4.1-6.6 0-.3.3-.6.5-.9zm5.7-11.3c-2.2.9-4.1 0-5-2.6-.8-2.3-1.4-4.7-1.8-7.1-.5-3.4-.8-6.9-1.1-10.4 1-.2 1.2.2 1.4 1.5.6 4.5 1.3 9 2.2 13.5.8 4 1.7 4.6 5.2 3.6l2.3-.6c-1.1.7-2 1.6-3.2 2.1zm8-4.7l-.7.2c.1-.3.2-.7.4-.8l5.8-3.5c-1.8 1.4-3.6 2.7-5.5 4.1zm5.9-4.3l2.1-1.9.2.4c-.8.5-1.6 1-2.3 1.5zm8.7-5.9c-1.2.9-2.4 1.8-3.7 2.7 0 0-.2-.2-.2-.3 1.1-.8 2.2-1.6 3.3-2.3l.7-.3c0 .1-.1.2-.1.2zm.3-.3l2.5-1.4c0 .1.1.2.1.2l-2.6 1.2zm4.2-5.4c-5 3.2-10 6.4-14.9 9.6-3.7 2.4-7.4 4.8-11.1 7-2.3 1.4-3.1.8-3.6-2.2-1.5-9-2.9-18-4.3-27-.1-.8-.2-1.6-.2-2.5l.4-.2-1-3.3c-.2-.6-.1-1.4-.1-2.1.6 0 1.2-.2 1.7 0l16.8 9.5c1.6.9 3.4 1.4 5.1 2.2 3.8 1.9 7.6 3.8 11.4 5.8.6.3 1 .9 1.5 1.4-.6.8-1.1 1.4-1.7 1.8zm1.5 11.7c-.1-.1-.3-.4-.3-.4.2-.5.5-1 .8-1.6.1.1.2.2.3.4l-.8 1.6zm8.7-13.1c-1.1 1.8-2.4 3.5-1.7 6.1.1.5-.9 1.4-1.7 2.5-1.5-1.2-2.6-2.1-3.7-3-.1-.1-.2-.3-.3-.5-1.2-1.2-1.3-1.5.4-2.7 1.9-1.4 4-2.7 6-4 .3-.2.9.1 1.4.2-.1.5-.1 1.1-.4 1.4zm1.3 5.6c.7-.5 1.4-1 2-1.5l.3.6c-.5.6-1.1 1.2-1.7 1.8-.3-.5-.5-.7-.6-.9zm1.2-5c0-.3.3-.5.5-.8.2.3.3.6.5 1-.2.3-.3.5-.5.7-.2-.4-.5-.6-.5-.9zm.8 8.8c-.1-.1.2-1.5.5-1.8.8-.7 1.7-2.3 2.8-.4.9 1.5 1.7 3.1 2.5 4.7-2.5 1.2-4-1.3-5.8-2.5zm9.9 4.3c-1.2-.1-2.3-.8-3.5-1.3.2-.8.6-1.8.4-2.3-1.4-2.3-1-5.4-2.9-7.5-1-1-1.3-3.3-1.4-5-.3-3.2-.5-3.5-3.3-3.2-1 .1-2.2.4-2.3-1.5-.1-1.3-.5-2.3 1.4-2.4.8 0 1.4-1.9 2.2-2.7 3-2.8 3.1-6 1.6-9.8-1.5-3.9-2.7-8-4.1-12.1-.2-.5-.5-1-.5-1.4 0-.6.3-1.2.4-1.8.4.4.9.7 1.1 1.1 1.5 4.2 2.9 8.4 4.3 12.6l8.4 25.3c.3 1 1 1.9 1.6 2.8.7.9 2.6 1.6-.1 2.4-.3.1-.4 1.7-.2 2.5.5 3.5-.2 4.6-3.1 4.3zm2 2.4c.9-.7 1.8-1.4 2.8-2 .1-.1.5.3.7.5-.8.9-1.6 1.7-2.4 2.7-.6-.6-.9-.9-1.1-1.2zm11.7 30.9c-.4-.3-1.1-.4-1.3-.9-.6-1.1-1-2.4-1.4-3.6l-6.9-21c-.2-.5.1-1.2.2-1.9.6.1 1.3.1 1.9.4.3.2.4.9.6 1.3 2.4 7.4 4.8 14.8 7.1 22.2.2.6.3 1.2.5 2l-.7 1.5zM248.6 347.2c0-.2 0-.4-.1-.5l.2.7c0-.1 0-.1-.1-.2zM276.5 221.2l.3-.2.3 1-.6-.8zM262.1 379.3l.2-.4-.2.6s-.1-.1 0-.2zM290 245.2l-.2.1-.5-1.5c.2.5.4.9.7 1.4zM256.5 340.4zM268.1 258.6l.2-.2-.2.2zM286.6 261.7l.1.2-.1-.2-.1-.2c0 .1 0 .1.1.2zM316.1 353.4l.2.1s-.1 0-.2-.1c-.1 0-.1 0-.2-.1.1.1.2.1.2.1zM285.5 233.8l.2.7c0-.2-.1-.5-.2-.7zM295 261.7c0 .2 0 .4.1.5l.1.2-.2-.7-.5-1c.2.3.4.7.5 1zM258.6 345.4l-.1-.2.1.2c.1.3.2.7.3 1.1-.1-.4-.2-.8-.3-1.1zM300.3 280.3c.1.3.2.7.3 1.1l.3-.2-.6-.9zM305.9 344.2l-.3-.4c-.1.2-.2.4-.3.7 0 0 .3.2.4.3 0-.3.1-.4.2-.6zM301.7 285.6l.3-.3-.3-.8c-.1.1-.3.2-.3.3l.3.8zM203 263.4c-.1.1-.2.1-.4.2.1.2.1.4.2.5 0 0 .2-.1.3-.2.1-.2 0-.3-.1-.5zM296.4 266.1c-.1-.2-.2-.3-.2-.5-.1.1-.2.2-.2.4 0 .1.1.2.1.2l.3-.1zM290.7 248.5c.1-.1.3-.2.3-.3 0-.2-.1-.3-.2-.5-.1.1-.3.2-.3.3 0 .2.1.3.2.5zM298 273.1l-.2.5.1.3c.1-.1.3-.2.3-.3 0-.2-.1-.3-.2-.5zM186.1 220.4c0-.2 0-.3.1-.5l-.1.1c-.1.2-.1.3 0 .4zM232.6 297.4c-.1.2-.2.3-.2.4h.2v-.4zM256.3 193.5c0-.1-.1-.2-.1-.2l-.1.2c0 .1 0 .2.1.2 0 0 0-.1.1-.2zM239.2 354.1l-.1-.1-.1.1zM326.5 348.9l.1.2.1-.2zM290 271.4v-.2l-.1.1zM237.8 294.1l-.1.2h.1zM248.4 235.4l-.1-.2-.1.2z"/><path fill="#fff" d="M241.6 432.7c-.2-.7-.4-1.4-.5-2.1-.3-2.2.6-4.6-1.3-6.3-.1-.1.3-.9.4-1.5.2-.9.4-1.8.3-2.7 0-.3-.8-.6-1.2-.9-.2.8-.7 1.6-.7 2.4-.1 4.4-.2 8.9-.2 13.3 0 .3.1.5.1.7.9-1.1 1.9-2.2 3.1-2.9zM255.2 143.4c-7.4 13.1-7.8-17-10.8-23.2-.6-1.2-1.1-2.3-1.7-3.4-5-1.7-8.7-5.8-8.7-11.7-.9.2-1 .9-.9 2.9.3 4.4-1.7 7.5-5.3 8.1-2.8.5-5.6.8-4.9 5.5 0 .3-.1.7-.2.8-.3.2-.9.4-1 .2-1-1-.5-6.6.6-7.9-2.3-.2-4.6-.4-6.8-.6 0 2.3.1 4.7 0 7-.1 2.9-1.3 4-3.7 4.1-3.4.1-6.8.1-10.3.3-1.8.1-3.6.8-4.2 3.1-1.2 4.6-2.5 9.3-3.1 14.1-.3 2.7-.5 4.5-3.1 4.8-.5.1-1 .8-1.3 1.4-2.5 3.9-5.1 7.6-8.4 10.6-.3.2-.5.6-.7.9-.3.5-.6 1-.8 1.5-.2-.8-.6-1.7-.4-2.3.2-.8.9-1.4 1.5-2 2.5-2.8 5.3-5.2 6.5-9.4.3-1 1.5-2.1 2.5-2.3 1.9-.4 2.5-1.6 2.9-3.7.7-4.1 1.5-8.3 2.6-12.3 1.5-5.1 3.6-6.6 8.1-6.5 1.8 0 3.7.1 5.5.2 4.7.2 5.3-.6 4.7-5.8v-.3c-.6-.7-1.1-1.7-1.7-1.8-1.2-.3-2.4-.1-3.7-.1-.1 0-.4.5-.4.8l.1 1.6c-.5-.2-1-.4-1.3-.7-1.8-1.7-1.3-4.1-1.3-6.3 0-5.2 0-5.9-3.1-6.1-1.3 6.5-7 12.3-15.3 10.3-1.2-.3-2.5-.5-3.7-.7-11.1 23.5-30.1 60.9-27 68.5 11.5 28 2.4 105.5-.7 113.2-7.2 25.2 37.3 136.7 40.9 134.9 1-.5 2.6-3.3 1-2.8-3.6 1.2-.5-16.4 5.6-16.5.4 0 .7.1 1.1.2.1-.3.2-.6.2-.9 0 .3.1.7.2 1 1.5.7 2.7 2.5 2.6 4.4-.4 5.5.8 10.8-.1 16.3-.3 2.1-1.8 3.2-3.3 3.4 0 .3.1.6.1.8.1.1.5.5 1 1.2.3-.2.7-.3 1-.4.2-.1.3-.1.5-.1h-.1l2.1-.8c.5-.3 1.5-.8 1.5-1.1-.4-5.6 1.1-11.5-1.4-16.9-.3-.7-.4-1.6-.4-2.4.1-4.6-.9-8.8-3.1-12.5 0 .9.1 1.8 0 2.7 0 .4-.4.8-.6 1.2-.2-.4-.5-.8-.6-1.2-.6-2.8-1-5.7-1.7-8.4-1.5-6.5-3.6-12.8-4.4-19.4-.7-5.8-2.2-9.5-7.3-11.3-2.2-.8-3.9-1.6-6.1-.3-.9.5-2.2.4-3.2.2-1.1-.2-2.2-1-3.3-1.3-2.6-.8-5.6-.7-6-5.1-.2.1-.4.2-.6.2-.3-.1-.8-.3-.8-.4.1-.7.2-1.4.4-2.1.9-4.1 2.1-8.1 2.7-12.2.7-5.1 2.9-8.9 6.4-11.5 1.6-1.2 2.4-2.7 2.5-4.7.1-2.1.1-4.2-.2-6.2-.1-.8-1.2-1.8-1.8-1.9-2.2-.3-4.4 0-6.5-.2-2.2-.2-4.4-.3-6.5-1-.9-.3-1.8-1.8-2.2-3-1.1-3.2-.1-6.2 1.2-9.1.8-1.7 1.7-2.5 3.3-2.5h8.2c2.7 0 3.4-.5 3.6-3.6.2-3.1 0-6.1 0-9.2v-22.6l-.4-18.6-.5-22.8c-.2-6.4-.5-12.8-.6-19.2-.1-4.5 0-9 0-13.6s-.1-9.3.2-13.9c.2-3.3.4-2.9-2.2-4.5-1.5-.9-2.8-3-3.6-4.9-.3-.8.6-3.2 1.4-3.8 2.2-1.4 2.4-3.6 2.5-6l-.1-2.8c0-.3.2-.5.3-.8.1.1.3.2.3.3 0 2 2.1 3.6.7 5.8-.7 1-.9 1.9.7 2 .2 0 .6 1.1.5 1.6-.1.4-.7.9-1.1.9-1.7 0-2.7.8-2.7 2.9.1 2.1 1.1 3.3 2.9 3.3 1.6 0 2.1 1.1 2.2 2.7.1 1 .1 2.1 0 3.1-.1 10-.3 20-.2 30l.7 23.5c.3 19.4.3 38.8.7 58.2.2 10.5.7 21 1 31.5.1 3.6.3 7.2.2 10.8-.1 3.7-.3 7.4-.7 11.1-.4 3.4 1.1 6.9-.5 10.2-.1.3 0 .8 0 1.2 0 1.3-.1 2.5.2 3.7.1.7.8 1.3 1.3 1.9.4-.6 1.1-1.2 1.1-1.9.2-2.4 0-4.7.1-7.1.3-5.3.9-10.6 1-15.9.1-9.6-.1-19.3-.1-28.9 0-1-.3-2-.4-3-.2-1.6-.4-3.2-.4-4.9 0-5.1.3-10.3.1-15.4l-.9-18.8c-.2-7.4 0-14.9 0-22.3-.1-7.8-.3-15.6-.5-23.5l-.5-13.9v-10.2c-.1-5.4-.5-10.9-.5-16.3 0-1.8.7-3.8 1.4-5.5.6-1.4 2.6-2.8 2.3-3.7-.3-1.3-2.4-2-3-3.4-.7-1.6-.8-3.6-.8-5.5 0-.3 1.7-.8 2.7-1l3.7-.2c1.6-.2 2.3.6 2.2 2.5-.2 4.3-.3 8.6-.7 12.9-.6 7.4-1.5 14.7-1.9 22.1-.6 10.4-.8 20.9-1.2 31.3.4-4.1.8-8.2 1.1-12.3l2.3-33.1c.5-6.5 1.2-13.1 1.9-19.6.1-1.1.8-2.5 1.6-2.9 1.7-.7 3.5-1.2 5.3-1.1 4.2.1 8.4.6 12.6.8 4.1.2 8.2.4 12.4.6l14.4.8c.2 0 .5.2.7.3-.2.3-.3.7-.6.8-1.5.5-1.2 1.8-1 3 .3 1.8.7 3.7.7 5.5-.1 7.2-.2 14.4-.5 21.7-.3 11.8-.5 23.5 1.4 35.1.8 5.2 1.9 10.3 3 15.4.1.6.5 1.2.8 1.8.1-.7.3-1.3.3-2 0-3 1.7-6 .1-9.1v-.3c.1-3.9.5-7.8.4-11.6-.1-6.4-.3-12.8-.7-19.2-.3-6.2-1.1-12.3-1.4-18.4-.3-6.7-.3-13.4-.4-20 0-2.2 2.2-3.8 4.1-2.9-.3.9-.7 1.8-.8 2.7-.2 3.5.3 7.1-.4 10.4-1.2 6.2-.5 12.3-.4 18.4 0 .8.4 1.6.6 2.4.4 1.5 1 2.9 1.1 4.4.3 4.6.3 9.3.5 13.9.2 4.3.4 8.6.7 12.9 0 .5.5 1 .7 1.5.3-.5.6-1 .8-1.5.1-.4.1-.8.1-1.2-.1-3.8-.2-7.6-.4-11.4-.5-11.2-1-22.4-1.6-33.6-.1-2.6-.5-5.3-.4-7.8.2-2.8.5-5.9 2.9-7.6.8-.5 1.9-.5 2.8-.7-.5.7-1 1.5-1.6 2.2-.1.2-.3.3-.4.4-.5 1.9-1.4 3.9-1.2 5.7 0 .7 2.2 1.4 3.5 1.9 2.5 1.1 5.1 2.1 7.6 3.1-.2-3.8-2.7-5.2-5.1-6.8-1.9-1.2-1.8-1.4-.1-3 .8-.7 1.4-1.7 2-2.7 1.2-1.9 2.7-2.9 4.7-3 .5-1.7.8-3.5 1.4-5.2 1-3 .8-4.1-1.3-6.1-3.2-3.1-6.9-4.4-11-4.4-.6 0-1.2-.5-1.8-.7.6-.5 1.1-1.4 1.7-1.5 2.9-.6 5.8.1 8.4 1.7 1.6 1 3.3 1.9 5 2.8 2 1.1 3.8 5.1 3.3 7.7-.2 1.2-.7 2.1-1.6.5-.6-1.2-.8-.6-1.1.2-.9 2.3-.3 4.3.5 6.5 3.3 9.3 6.6 18.6 9.8 28l8.8 27.1c2.2 6.5 4.7 12.9 6.8 19.4 2.2 6.8 4.2 13.8 6.2 20.7 2.3 7.9 4.4 15.9 6.9 23.7 1.7 5.4 3.9 10.6 5.9 15.8.2.1.4.1.5.2-.2.1-.4.3-.5.4.1.7.2 1.4.5 2.1 3.5 10.3 7 20.5 10.4 30.8.9 2.7 2.1 5.2 4.4 6.7 1 .6 1.8 1.7 2.6 2.6 1.1 1.3 1.4 2.7.7 4.7-1.3 3.7-2.6 7.4-.7 11.5 1.1 2.4 1.8 5.1 2.6 7.7.6 2 1.1 4.1 1.8 6.2 1.1 3.5 2.5 7 3.6 10.6.5 1.8-.2 2.5-1.8 2.2-2.7-.5-4.3-2.5-5.3-5.4-2.7-7.6-5.5-15.2-8.1-22.9-.7-2-1.8-3-3.2-3.7l-16-7.9c-1.3-.7-2-.2-2.5 1.1-.3.7-.5 1.3-.7 2-.4 1.2-.8 2.8-2.4 2-1.4-.7-1.6-2.1-1.1-3.6l1.4-3.3c.2-.5-.1-1.1-.1-1.7-.4.1-.9.1-1.2.4-6.1 4-12.2 8.1-18.2 12.2-1.4.9-2.7 2-3.8 3.2-1.5 1.8-3.2 2.5-5.3 2.1l-4.4-1c-.3-.1-.8.1-.9.4-.8 1.8-.1 4.3 1.3 5.8.7.8 1.5 2.2 1.4 3.2-.4 4.2-.8 8.4-2.9 12.1-1.1 1.9-1.3 3.8-.4 6.1.5 1.4.5 3.3.1 4.7-.6 2-1.9 3.7-2.7 5.6-.5 1.2-1.1 2.6-1 3.8.3 2.7-.5 4.6-2.2 6.3-1 1-1.9 1.9-3.3 1-1.4-.8-2.3-2-2.1-3.9.4-3.1.2-6-2.1-8.1-.3-.3-.2-1.3-.3-1.9.6.1 1.3.1 1.8.5 2.3 1.5 2.2 4.3 2.3 6.8.1 1.7-.4 4.2 1.6 4.1 2.1 0 1.8-2.7 1.7-4.4-.1-2.6.4-4.5 2.4-6 2.4-1.8 3.1-6.8 1.5-9.5-.6-1-1.6-2.1-2.6-2.4-1.7-.5-2.8.6-3.3 2.6-.6 2.6-2.3 4.1-4.2 5.2-.4.2-.9-.2-1.4-.2.1-.5.2-1.1.5-1.6.2-.4.7-.7 1.1-.9 3.4-1.9 3.2-5.6 3.2-9-.1-4.3-.7-8.6-.6-12.8.1-8.3.6-16.7.8-25 .1-4.7.1-9.5 0-14.2-.1-5.2-.2-10.5-.6-15.7-.1-.8-1.3-1.6-2-2.3-.3.8-.8 1.6-1 2.5-.2.9 0 1.9 0 2.8.2 5.3.4 10.7.5 16 0 2.8-.4 5.6-.3 8.3l1 26.5c0 .7-.4 2-.7 2.1-1.6.3-1.7 1.8-1.7 3-.1 4.3-2.3 6-5.4 7.2-1.5.5-2.3-.1-2.6-1.6-.2-1 0-2-.1-3-.1-.4-.5-1.1-.8-1.1-1.5-.1-4.6 2.8-4.5 4.5 0 2.8.3 5.6.5 8.3 0 .2.4.7.5.6 2.4-1.4 1.8 1.4 1.9 2.2.4 3.8.4 7.7.7 11.6.1 1.1.6 3.1.8 3.1 1.7-.2 1.1-1.9 1.3-3.1v-.6c-.1-3.6-.1-7 3.4-8.8 1-.5 1.6-2 2.9-.9-.6.9-1 2.2-1.8 2.7-1.7 1-2.4 2.4-2.4 4.7.1 3.4 0 6.8 0 10.2 0 7.3.1 14.6 0 21.9v.1c.7-.9 52.9.9 57.1 1.4 1.3-1.6 52.5-14.8 61.6-22.6 3.5-3.5-92-293.2-106.5-266.5zm-30.6-19.6c4.2.1 8.4 0 12.5.7 2.7.5 4.4 3.3 5.4 6.4 1.3 3.8 2.7 7.5 4 11.4.6 1.8.9 3.7 1.4 5.6-.4 1.2-.7 2.3-1 3.3l-1-3.2c-.8-3-1.5-6.1-2.5-9.1-.7-2.2-1.7-4.3-2.5-6.5-2.6-7-3-6.3-9-6.8-2.2-.2-4.5.8-6.7.8-.8 0-1.7-1.1-2.5-1.6.6-.2 1.2-1 1.9-1zm-.3 5c3.8-.8 7.7-1 11.5.3s5 5.5 6.5 9.2c.3.8.5 1.8.6 2.7.2 1.5.3 3.1.4 4.6-1.1.1-2.2.3-3.3.3-2 .1-4 .3-6 .3s-4-.4-6.1-.6l-3.6.2c-1.3.1-2.4-.4-2.5-2.1-.2-3.8-.3-7.6-.3-11.4-.1-2.1 1.1-3.2 2.8-3.5zm18.1 20.8h-1.5l-8.3-.9v.3h-5.8c-1.5 0-2.8.2-3.1 2.4-.1.5-.6.9-.9 1.3-.4-.5-.9-.9-1.1-1.5-.5-2.1.9-3.9 3.2-4.1 1.9-.2 3.8-.1 5.8 0 2.9.1 5.8.2 8.6.3.7 0 1.4.2 2 .6.6.3.8 1 1.1 1.6zm-46.3-6.9c.6-4.5 1-9.1 4-12.5.8-.9 2-1.7 3.1-1.8 2.9-.3 5.8-.1 8.7-.1 2.1 0 3.1 1.1 3 3.6-.1 1.5 0 3.1 0 4.6h.3l-.8 7.6c-.2 1.7-1.2 2.3-2.6 2.4-4 .2-8 .5-12.1.7-3.1.2-4.1-1.1-3.6-4.5zm-3.5 7c1.8-.8 3.7-1.4 5.6-1.5 4-.2 8.1-.1 12.1 0 .7 0 1.3.6 2 .9-.8.3-1.5.8-2.3.8-3.9 0-7.8-.1-11.8-.1-.4 0-.9.1-1.3.3-.6.2-1.1.5-1.6.7.6.2 1.2.5 1.9.6 1.5.1 3 0 4.5 0v.2l6.3-.4c.4 0 .9.3 1.3.5l-1.3 3-1.1-.6c-.6-.3-1.1-.9-1.7-.9l-11.8.2c-.7 0-1.5-.6-2.2-.9.3-1.1.7-2.5 1.4-2.8zm53.4 9.6c-2.5.4-5.1.7-7.6 1-1.3-.2-2.7-.2-3.9-.5-5.7-1.5-11.5-1-17.3-.4-2.9.3-5.8 0-8.7 0h-13.1c-1.4 0-2.8-.1-4.2-.3-.5-.1-.8-.7-1.3-1.2.4-.2.9-.6 1.3-.6 6.6 0 13.3.2 19.9.1 5.4 0 10.9-.2 16.3-.4.7 0 1.4-.2 2.1 0 5.4 1.4 10.8.2 16.2.7.4 0 .8.5 1.2.7-.2.3-.5.8-.9.9zm1.9 7.7c-.6-.2-1-.9-1.4-1.4.6.1 1.2 0 1.7.2s.9.6 1.3.9c-.5.2-1.1.5-1.6.3zm2.2-12.4c3.1-3.1 9.4-1.5 11.1 2.8l.4 1.2c-.4.2-1.1.6-1.2.5-3.2-4.3-6.7-4.8-10.7-1.5-.1.1-.8-.8-.8-.9.3-.8.7-1.6 1.2-2.1zm52 242.2c-.3 1.5-1.9 2.6-3.1 1.2l-11.3-13.8c-1.7-2 .8-4.8 2.6-3.1 1.7 1.6 3.3 3.4 4.9 5.1.6-.6 1.5-.7 2.2.3 1.8 2.5 3.8 4.6 5.3 7.3.6 1.1.2 2.4-.6 3zM371.3 410c.4-1.2.9-2.5 1.5-3.6l1.1-1.9c-8.6 9.8-6.4 15.4-2.6 5.5zM282.9 367.7c-.1 0-.1 0-.2-.1 0 0 .1.1.2.1zM315.4 280.6c.1-.1.3-.2.3-.4 0-.1-.1-.3-.1-.5-.1.1-.3.2-.3.3-.1.2 0 .4.1.6zM188.8 385.4l.3.3c.1-.1.2-.2.1-.2l-.3-.3c0 .1 0 .1-.1.2zM355.7 379l.1-.2h-.2zM248.8 381l-.1-.2-.2.3c.1 0 .2.1.2.1s0-.1.1-.2zM358.2 359.9l-.2-.1v.2zM348.2 351.4v.2l.1-.2zM325.4 336.9l-.1.2h.1zM126.3 391.7l-.2.1.2.1zM371.2 374.6h-.2l.1.1zM360.1 373.7l.2-.1-.1-.1zM302.6 260.9l.1-.2h-.1zM316.9 291c-.1-.1-.2-.1-.3-.1 0 .1 0 .1.1.2.1 0 .1 0 .2-.1zM178.2 218.8l.2.1-.1-.2zM209.6 333.4l-.2 8.3c.1 9 .3 17.9.5 26.9.2 8.6.4 17.3.7 25.9l.7 10.8c.2 4.2.2 8.4.3 12.6.1 4.8.4 9.7.1 14.4-.2 2.3-.2 3.3.7 3.8 3.8-.6 7.7-.8 11.5-.8 1.9-1.5 4.3-2.1 7.2-.9.1.1.8.4 1.5.7.1-.6.1-1.5.1-2.8l.2-34.8c0-1.3-.4-2.6-.4-4 0-4.1.5-8.2.1-12.3-.8-8 .4-16-.5-24-.4-3.7.4-7.5-.6-11.3-.2-.6-.1-1.2-.1-1.8l-.3-14.5-.2-5.8.1-6.8-.2-28.1c0-1.1.3-2.3.1-3.3-1.6-6.1-.6-12.4-.5-18.5.1-3.5-.1-4.5-3.2-4.9-2.2-.2-4.4 0-6.6 0v-.1c-3.1.3-6.3.6-9.4.8-1.2.1-2.1.5-2.1 2.1-.1 4-.4 8-.4 12l.5 23.1c.2 11.2.3 22.2.4 33.3zM242.2 249.3c.2 2.3.2 4.7.8 6.8.6 2.3.1 3.4-1.8 3.5-4.2.3-8.4.7-12.6.7-6.3 0-12.6-.7-18.9-.6-3.2.1-6.5 1.2-9.7 1.9-.5.1-1 .2-1.4.1-.2-.1-.2-1-.1-1.4l1.4-6c.8-3.7 1.7-7.4 2.3-11.1.4-2.2 1.2-3 3.1-3.3 3.8-.6 7.6-1.7 11.4-2.4 5.8-1.1 11.5-.8 17.2 1.2.5.2 1.1-.1 1.6-.1-.4-.4-.6-1-1.1-1.2-2.1-.7-4.1-1.8-6.2-2-7.4-.5-14.9-1.4-22.1 2.2-2.2 1.1-3.1.2-3.2-2.6-.2-5.9-.2-11.7-.3-17.6 0-2-.3-3.9-.2-5.9.4-7.2.5-14.5 1.7-21.5.7-4.3 2.7-8.5 5.7-11.5 2.1-2.1 3-4.7 3-7.9 0-3.4.7-4.2 3.6-4.2l13.9-.1h2.1c4.1.2 4.4.6 4.5 5.4.2 4.5.6 9 .7 13.6.1 3.2-.1 6.4-.3 9.6 0 .2-.5.6-.7.6-.3 0-.7-.3-1-.5-.1.8-.6 1.7-.4 2.3 1.6 4.2 1 8.7 1.3 13.1.4 5.9.4 12 1.3 17.8 1.1 7 2.9 14 4.4 21.1zm-16.3-24.2zm7.4 32.9c0-.1 0-.2.1-.2-.1 0-.1.1-.1.2zm-8.9-88.3c.3 3.2.9 6 3.2 7.9 1 .8 1.8 2.3 2.4 3.6l3.9 9.1c.2.5.8.8 1.3 1.2.1-.6.4-1.2.3-1.7-1.5-4.1-2.8-8.5-4.8-12.3-1.6-3.1-4.6-5.2-4.6-9.4 0-.3-.4-.6-.7-.7-.1 0-.4.3-.5.6-.3.6-.4 1.3-.5 1.7zM257.5 286.5c-.6-.2-1.7-.3-1.8-.7-1.6-5.4-.7-7.8 3.4-11.2 3.7-3.1 7.2-6.6 10.7-10 2.1-2 4.2-4 6.3-6.1 2.3-2.3 6.8-1.1 7.9 2.1 1.1 3.1 2.2 6.3 3.2 9.5l4.3 13.9 6.8 20.7c1.2 3.8 2.4 7.7 3.5 11.5v.6c0 .1 0 .2-.1.2 0-.1 0-.2.1-.2.2-.2.4-.4.5-.6.7 1.8 1.7 3.4 2.1 5.3.3 1.6.1 3.4-.1 5.1-.3 2.2-1 4.3-1.2 6.6-.2 2-1 3.2-2.8 2.6-3.4-1.2-6.9-2.3-10.1-4-7.9-4.1-15.6-8.3-23.4-12.7-1.8-1-3.1-3.1-4.9-3.9-3.4-1.7-2.5-5.2-3.2-8.1-.4-1.7.1-2.5 1.6-2.5 6.2-.2 12.4-.5 18.6-.8 1.7-.1 3.3-.2 5-.6 2.2-.4 3-1.7 2.8-4.3-.5-4.8-1.8-9.3-5.3-12.3-.8-.7-2.1-.9-3.1-.7-2.9.7-5.8.9-8.8.4-3.9-.7-8-1.6-11.9.1l-.4-1c-.1.1-.2.1-.2.1.2.4.3.7.5 1zM196.2 208c0 12.6.2 25.1-.1 37.7-.2 7-1 14-2.1 20.9-1.4 8.8-3.3 17.5-5 26.2-.1.5-.4.9-.6 1.3-.2-.5-.5-1-.5-1.5-.7-9.5-1.1-19-.2-28.6 1.3-12.9 2-25.9 2.9-38.8 1-13.2 1.9-26.5 3-39.7.4-5.5 1.1-11 1.6-16.6.2-2.1.8-2.8 2.6-2.6 3.1.4 6.3.3 9.4.6 1.1.1 2.9.5 3.2 1.3.5 1.7.8 3.9-.7 5.5-1.1 1.2-2.4 2.3-3.1 3.8-1.4 2.8-2.6 5.8-3.5 8.9-2.3 7.5-2.7 15.3-2.6 23.1.2 8.6.5 17.1.3 25.7-.1 4.3-1 8.5-1.6 12.8-.4 2.8-1 5.7-1.5 8.5-.1.7-.5 1.4-.7 2.1v-2.1c.2-9.1.6-18.1.6-27.2.1-10.4-.1-20.8-.3-31.2 0-1.9-.6-3.8-.9-5.7-.3 1.9-.7 3.7-.7 5.6-.1 3.4 0 6.8 0 10.2.1-.2.3-.2.5-.2zM257.5 203.7l.6-15.4c0-.9.1-1.9.3-2.8.1-.4.4-1 .5-1 .4.1.9.3 1 .7.8 1.9 1.5 3.7 2.1 5.7 2.1 7.1 4.2 14.2 6.2 21.3l3.3 11c1.9 6.2 3.9 12.3 5.8 18.6 1.4 4.5 1.3 5.7-2 8.5-3.9 3.4-8.2 6.2-12.4 9.3l-3.8 3.1c-1.9 1.5-2.7 1.2-2.7-1.5 0-8.2.2-16.5.3-24.7 0-.9.2-1.8.2-2.8v-30h.6zM262.6 256.7c.1 0 .2 0 .2-.1v-.3c-.1 0-.2.1-.4.1.2.1.2.2.2.3zM190 331.7l1.4-4.3 2.4-8.4c.1-.4.2-1.1.3-1.1 2.3-.3 2.4-2.9 3.5-4.5.8-1.1 3.1-1.4 4.6-1.1 1.7.4.7 2.4.6 3.7l-1.1 9.8c-.1.7.2 1.5.3 2.3.3-.7.8-1.3.9-2l3-16.9c.1-.4.2-.8.4-1.2l.1 1.2c.1 3 .3 6 .3 9 0 1.1-.5 2.2-.9 3.1-1.3 3.1-2.1 6.1-2.2 9.7 0 3.9-.8 7.8-1.3 11.6l-1 8.3c-.3 2.1.4 2.7 2.1 2.2.5-.1 1-.2 1.5-.4 2.4-1 2.8-.8 2.9 2.1.1 4.7.1 9.5.1 14.2 0 1.2-.1 2.1-1.5 1.2-1-.7-2.1-1.1-3.2-1.5-.5-.2-1.3-.3-1.5 0-.5.5-1.1 1.5-1 2.2.3 2.5 1.1 4.9 1.3 7.4.5 6.6 2.6 12.6 5.1 18.4.2.6.7 1.1.7 1.6-.1 1.6-.4 3.2-.6 4.8-.6-1.1-1.5-2-1.8-3.2-1.6-7-3.1-14.1-4.7-21.2-.7-3.1-1.5-6.1-2.4-9.1-.2-.6-1-1-1.6-1.4-2.2-1.2-4.3-2.3-6.5-3.3-1.3-.6-1.8-1.6-1.3-3.2l2.7-8.7c.3-.9.6-.9 1.5-.6 1.8.6 3.8.6 5.7.7.2 0 .8-.9.7-1.2-1.3-4.9.8-9.6 1-14.4l.2-.9c-.1-.8-.2-1.6-.3-2.5-.5.5-1.1 1-1.4 1.6-1.3 2.6-2.6 5.1-3.8 7.8-.9 2-1.5 2.7-3.6 1.3-3.9-2.8-4.4-3.7-2.6-8.9.4-1.2.6-2.7 1-4.2zM261.9 324.1l-1-3.3c-.2-.6-.1-1.4-.1-2.1.6 0 1.2-.2 1.7 0l16.8 9.5c1.6.9 3.4 1.4 5.1 2.2 3.8 1.9 7.6 3.8 11.4 5.8.6.3 1 .9 1.5 1.4-.5.5-1 1.1-1.6 1.5-5 3.2-10 6.4-14.9 9.6-3.7 2.4-7.4 4.8-11.1 7-2.3 1.4-3.1.8-3.6-2.2-1.5-9-2.9-18-4.3-27-.1-.8-.2-1.6-.2-2.5 0 .2.2.1.3.1zM205.8 268.1c0 5.3-.9 11 .3 16 1 4.2-.3 7.7-.5 11.4-.1 4-.9 7.9-1.5 11.9-.4 2.6-1.6 3-4.8 2.4-1.2-.2-2.8-.9-3.5-.3-.7.6-.4 2.7-.5 4.1 0 1.1-.1 1.9-1.3 1.4-2.1-1-2.4 1-2.2 2.4.6 3.8-1.2 6.8-2.3 10-.2.6-.8 1-1.2 1.4-.1-.6-.3-1.1-.3-1.7.1-7.2 0-14.5.6-21.7.4-4.6 1.8-9.2 2.7-13.8 1.5-7.8 3-15.7 4.5-23.6.5-2.9 3-4.5 5.2-2.9.6.4 1 2 .8 2.8l-6.4 30.9c-.5 2.3-.7 4.7-1 7-.1.4.2.9.3 1.3.2-.3.6-.5.7-.8.3-.7.6-1.5.7-2.3l8.1-38.4c.1-.6.3-1.2.5-1.8.1-.3.3-.5.5-.7.2.3.4.6.4 1 .1 1.2 0 2.5 0 3.7l.2.3zM256 290.2c-.6 3.3-.1 4.1 2.5 4 7.2-.2 14.4-.4 21.5-.7.6 0 1.2-.6 1.8-.9-.3-.6-.4-1.5-.8-1.8-1-.7-2.1-1.2-3.2-1.8-.3-.2-.7-.2-1.1-.3.4-.2.7-.7 1.1-.7.9 0 2-.1 2.5.5 1.4 1.8 2.8 3.7 3.7 5.8.8 2.1.1 3.1-1.9 3.2-2.6.1-5.3-.3-7.9-.3-4.4 0-8.7.1-13.1.4-1.7.1-3.3 1-4.2-1.6-.1-.3-.8-.6-.8-.5-.3.5-.7 1-.7 1.5.2 2.5.5 5.1.9 7.6l1 4.2c.1 1-.3 2-.5 3-1.2-.5-2.4-.9-1.8-3l.1.2-.1-.2v-12.9c0-.4 0-.9-.2-1.2-.2-.5-.6-.9-.9-1.4-.3.5-.9 1-.9 1.6l-.1 9.2c-.1 1.8-.4 3.5-.7 5.3-1.3-.6-2.8-.8-3.8-1.8-3.4-3.2-6.6-6.6-9.9-10 .2-2.5.7-5 .5-7.5-.4-4.4-1.2-8.7-1.7-13.1-.5-3.9-.9-7.8-1.2-11.6-.1-1.4-.5-2.9 1.4-3.3 2.2-.4 3.8.2 4.2 2.2.8 4.7 1.6 9.5 2.2 14.3.6 4.3.9 8.6 1.6 12.8.7 4 1.8 7.9 2.7 11.8.1.3.4.6.6.9.3-.5.7-.9.7-1.4.2-3.3.3-6.5.3-9.8 0-3.4-.1-6.8-.2-10.2 0-.3.2-.6.3-.9l.2.9.5 3.3c.1.3.4.5.6.8.1-.4.4-.7.3-1.1-.1-1.1-.3-2.3-.3-3.4.1-7.8.4-15.6 1.9-23.3.6-3.2.2-6.7.3-10.1 0-1.3.4-2.6.5-3.9.1 1.2.4 2.4.4 3.7-.2 5.5-.7 11.1-.7 16.6 0 7.1-1.2 14.1.1 21.2.4 1.8.3 3.5 2.3 3.7zM277.1 222c2.4 1.5 3.3 4.3 4 7 1.2 4.9 3 9.4 5.1 13.8 1.8 3.6 2.6 7.8 3.8 11.8.2.6-.2 1.4-.3 2.1 2.7 5.1 4.3 10.6 5.7 16.3 1.1 4.6 2.5 9.2 4.2 13.6 3.1 7.6 4.9 15.8 7.8 23.5 1.2 3.1 2 6.1 1.9 9.5 0 .8-.6 1.6-.9 2.3-.5-.6-1.2-1-1.4-1.7l-4.1-13-7.7-25.6c-1-3.5-2-7.1-3-10.7l-4.8-13.7.2-.2-.2.2c-1.4-4.5-2.8-9-4.2-13.6-1.9-7-4-14.3-6.1-21.6zM315.6 350.4c.1-.8.6-1.8.4-2.3-1.4-2.3-1-5.4-2.9-7.5-1-1-1.3-3.3-1.4-5-.3-3.2-.5-3.5-3.3-3.2-1 .1-2.2.4-2.3-1.5-.1-1.3-.5-2.3 1.4-2.4.8 0 1.4-1.9 2.2-2.7 3-2.8 3.1-6 1.6-9.8-1.5-3.9-2.7-8-4.1-12.1-.2-.5-.5-1-.5-1.4 0-.6.3-1.2.4-1.8.4.4.9.7 1.1 1.1 1.5 4.2 2.9 8.4 4.3 12.6l8.4 25.3c.3 1 1 1.9 1.6 2.8.7.9 2.6 1.6-.1 2.4-.3.1-.4 1.7-.2 2.5.5 3.4-.2 4.5-3.1 4.2-1.2-.1-2.3-.8-3.5-1.2zM316.7 331.2h-.2v.2zM248.6 346.6l-4.2-3.1c0-.1 0-.2.1-.2 0 .1 0 .2-.1.2-.6-.7-1.6-1.2-1.8-2-1-4.6-2.4-9.3-1.5-14.2.1-.4 0-.8 0-1.2v-3.1c.4 1 .9 1.9 1.2 3 .7 3.3 1.2 6.6 1.8 9.9.1.8.5 1.6.9 2.1.3.4.9.4 1.4.6.1-.5.4-1.1.3-1.6-.9-4.9-1.9-9.7-2.6-14.7-.7-5-1.1-10.1-1.6-15.2-.1-1.6.7-1.7 1.7-1l2.6 2.1c1 .8 1.2 1.7 1.1 3.3-.2 4.3.2 8.6.2 12.9v19.1c0 1.1.3 2.1.5 3.1zM236.5 369.6c.3.6.5 1.5 1 1.8 3.2 1.7 0 1.8-.4 2.3-.7.8-1.2.4-1.2-.8-.3-7.9-.6-15.8-.8-23.7 0-.6.3-1.2.5-1.9l.4 1.7c.1.8.1 1.7.4 2.4.9 1.8 1.1 3.3.3 5.3-.3.8.3 2.5.9 3.2.5.6 2.1.7 2.6.2.7-.6 1.1-2 1.1-3.1 0-3.4-.3-6.8-.4-10.2 0-.6.2-1.6.6-1.9.3-.2 1.2.1 1.6.5 1.8 1.9 3.6 3.5 3.2 7.2-.5 4-.1 8.2 0 12.3 0 2.4-.8 4.2-2.4 5.5-1 .8-2.2 2.5-2.3-.9 0-1.6-1.4-2.4-2.8-1.5-1 .2-1.7 1-2.3 1.6zm5.5-6.4c-1.1-.9-1.7-1.6-2.2-1.6-1.4 0-2.7.9-2.6 2.6 0 .7 1.4 2.1 1.7 2 .9-.6 1.8-1.6 3.1-3zM251 225.7c-.5-12.4-1.1-24.9-1.5-37.3-.1-1.9.1-3.9.3-5.8.1-1.5.6-2.6 2.2-2.3 1.4.3 2.1 1 2 2.9-.3 8.2-.5 16.4-.7 24.7-.2 6.6-.3 13.2-.6 19.8-.1 2.2-.5 4.5-.8 6.7 0 .2-.3.4-.4.6-.1-.3-.2-.6-.2-.9l-.6-8.3.3-.1zM219.4 105h5.8c1.1 0 2.6-.4 2.6 1.6 0 1.9.3 4.4-1.7 5-2.9.8-5.9 1.7-9 .6-1.6-.6-3.4-.7-5.2-.7-1.5 0-2.5-.3-2.3-2.3.1-1.8 0-4 2.2-4.1 2.6-.2 5.1-.1 7.6-.1zM277.1 215.1c-.1.3-.2.5-.4.7-.2-.2-.5-.3-.6-.5-1.6-3-3.5-5.7-4.7-8.9l-6.2-19.6c-1.6-4.4-2.9-9.1-6.4-12.1-.4-.4-1.1-1.4-1-1.5.7-1.1 1.6-2.1 2.5-3 .1-.1 1.2.8 1.4 1.4 1.8 4.5 3.6 8.9 5.2 13.5 3 8.5 5.9 17.2 8.8 25.7.5 1.3.9 2.8 1.4 4.3zM237.2 414.7c-.2 7.2-.3 14-.6 20.8 0 .4-.4 1-.6 1-.4.1-1-.2-1.1-.5-.3-.8-.5-1.8-.5-2.7-.2-6.3-.5-12.5-.4-18.8.1-4.9.6-9.8 1-14.7 0-.5.4-1 .6-1.5.3.6.7 1.1.8 1.7.2 5 .5 10 .8 14.7zM260.7 339.8c-.5-1.9-1-3.7-1.6-5.6-.1-.4-.6-.6-.9-.9-.2.5-.4 1-.4 1.5 0 1 .1 1.9.2 2.9-.6-.8-1.5-1.6-1.7-2.5-.6-2.5-1.1-5-1.3-7.5-.2-3.6-.1-7.2-.1-10.8 0-.9.6-1.7 1-2.5.5.7 1.2 1.4 1.6 2.1.3.5.4 1.2.5 1.7.5 2.2 1.2 4.4 1.5 6.6.5 3.9.9 7.8 1.3 11.7.1 1.1-.1 2.2-.1 3.3zM176.7 308c.5 0 1 .1 1.6.1 1.1.1 2.9-.3 3.1.3.6 1.5.5 3.3.6 5.1 0 .3-.6.9-.9.9-3.7-.1-7.4-.4-11.1-.3-1.5 0-2.6-.2-2.9-2.2-.2-1.9.8-3.5 2.5-3.6 2.3-.1 4.7 0 7.1 0v-.3zM185.5 188.7c.1-2.8.2-5.5.4-8.3 0-.6.1-1.3.4-1.7.8-1.1 1.8-2 2.7-2.9 0 1.3 0 2.5-.1 3.8l-1 12-1 12-.5 8c0 .6-.2 1.1-.3 1.6l-.1-1.8v-22.5c-.3-.2-.4-.2-.5-.2zM233.8 338.6c-.4-.7-1-1.3-1-2l-.1-16.7-.3-17.6c0-.3.1-.5.2-.8.1.2.3.4.4.7.1.4.2.8.2 1.2l2.2 31.9c.1 1.5.4 3.1.4 4.6 0 .8-.3 1.8-.7 2.5-.1.2-1.3.1-1.4-.1-.2-.8-.1-1.7-.1-2.6 0-.3.1-.7.2-1.1l.6-.9-.3-.2-.3 1.1zM246.8 259l.6 20.7c0 .7-.3 1.5-.5 2.2-.3-.7-.8-1.3-.9-2-.7-5.1-1.3-10.2-1.9-15.3-.1-.5.2-1.5.4-1.6 2-.8 1.3-2.4.8-3.8-1.4-4.3.2-8.5 0-12.8 0-.2.1-.3.2-.5.1.4.3.7.3 1.1l1.4 11.9c0 .1-.2.1-.4.1zM333.4 383.5c-.2.4-.4.9-.6 1.4-.4-.3-1.1-.4-1.3-.9-.6-1.1-1-2.4-1.4-3.6l-6.9-21c-.2-.5.1-1.2.2-1.9.6.1 1.3.1 1.9.4.3.2.4.9.6 1.3 2.4 7.4 4.8 14.8 7.1 22.2.1.7.2 1.3.4 2.1zM261.2 182.4c1.3 3.3 2.8 6.6 3.9 10 3.4 10.7 6.8 21.4 10.1 32.1l5.1 15.9c.1.4.1 1 .1 1.5l-.7-1.1c-4.4-9.6-7.1-19.9-10-30.2-2.3-8.3-5.2-16.4-7.7-24.6-.4-1.2-.5-2.5-.8-3.6zM208.1 375.8v17c0 .3-.1.6-.2 1-.1-.2-.3-.5-.4-.8-2-6-3.2-12.2-3.6-18.6-.1-1.9.8-2.2 2.2-2.2 1.7 0 2.5.8 2 3.6zM179.3 319.8c-3.7 0-6.8.1-9.8-.1-.9-.1-2.4-.9-2.4-1.5-.1-1.6 1-2.5 2.4-2.5 3-.1 6.1-.3 9.1-.2 1.3 0 2.6.9 2.2 2.7-.1.9-1.2 1.4-1.5 1.6zM276.1 301.9h-15.8c-.5 0-1.1-.4-1.6-.7.5-.3.9-.9 1.4-1 5.1-.7 10.2-1.9 15.4-.8 1.9.4 3.8.2 5.8.3.6 0 1.1.4 1.6.7-.6.3-1.1.8-1.7.9-2 .3-4 .5-5.1.6zM207.4 337.6c0 2.7.2 5.4-.1 8-.1 1.1-1 2.4-1.8 2.9-1.5.9-2.3 0-2-2 .8-5.3 1.6-10.7 2.5-16 .1-.7.2-1.4.4-2.1l.3-.8c.1.3.2.6.2.8l.9 9.2h-.4zM302.6 346.5c-1.5-1.2-2.6-2.1-3.7-3-.1-.1-.2-.3-.3-.5-1.2-1.2-1.3-1.5.4-2.7 1.9-1.4 4-2.7 6-4 .3-.2.9.1 1.4.2-.1.5-.2 1-.4 1.4-1.1 1.8-2.4 3.5-1.7 6.1.1.5-1 1.4-1.7 2.5zM259.7 271.6c-.6.5-1.1 1-1.7 1.4-.5.3-1.1.5-1.6.7 0-.8-.2-1.7 0-2.3.3-.8.9-1.6 1.5-2.1l11.6-9c.3-.3.8-.3 1.2-.5-.2.5-.2 1.2-.5 1.5-3.5 3.5-7 6.9-10.5 10.3l-.2-.2.2.2zM236.1 275.6l-2.6 2.5c-.4.4-.9.7-1.3 1-.2-.6-.4-1.3-.4-1.9-.2-4.2-.4-8.4-.4-12.6 0-.6.4-1.2.6-1.8.3.5.6.9.8 1.4 1.1 3.9 2.2 7.6 3.3 11.4zM178.9 355.3l-3.9.4c-.4 0-1.2-.7-1.1-.8 1.3-5.3.5-11.5 4.4-15.8.4-.4.7-1 1.1-1.3.3-.2.8-.1 1.2-.1 0 .5.1 1 0 1.4-.3.6-.8 1.1-1.2 1.6-3.6 4.6-3.9 7.8-1.1 13 .4.4.4 1 .6 1.6zM260.7 374.3c-.2 2.4-.3 4.7-.6 7.1-.1.7-.7 1.2-1 1.8-.3-.8-.7-1.5-.8-2.3-.1-.4.1-1 .3-1.5.4-1.2.1-1.9-.9-1.9-1.6 0-2.1-1-2.1-2.7 0-1.7.9-2 2.1-2 1.9-.1 2-1.9 2.3-3.5.1-.3.4-.6.6-.8.1.3.2.6.2.9-.1 1.6-.1 3.3-.1 4.9zM260.7 339.8c1-.2 1.2.2 1.4 1.5.6 4.5 1.3 9 2.2 13.5.8 4 1.7 4.6 5.2 3.6l2.3-.6c-1 .7-2 1.6-3.2 2.1-2.2.9-4.1 0-5-2.6-.8-2.3-1.4-4.7-1.8-7.1-.5-3.4-.7-6.9-1.1-10.4zM187.7 356c-.1-2.7-.3-5.4-.3-8 0-.8.7-2.3.9-2.3 1.2.3 3.1.6 2.8 2.5-.7 3.4-1.9 6.6-3 9.8-.1.2-.2.3-.3.4-.1-.2-.3-.5-.3-.7.1-.6.2-1.2.2-1.7zM258.6 351.4c-.7 1.7.2 4.4-2.1 4.2-2.1-.2-1.5-2.6-1.4-4.2.1-2.1.3-4.3.5-6.4 0-.3.3-.6.5-.9l.3.4 2.2 6.9zM255.8 363.8c0-.9-.2-1.7 0-2.1.4-.6 1.1-1.2 1.7-1.2.4 0 1.2 1 1.2 1.4-.2 2.3-.5 4.6-.9 6.9-.1.4-.5.6-.8 1-.2-.3-.5-.6-.6-.9-.1-1.7-.3-3.5-.6-5.1zM275 202.2c-1.9-5-3.8-10.1-5.6-15.2-.2-.4.1-1.1.2-1.6.3.4.6.7.8 1.1 1.5 5.2 3 10.5 4.6 15.7zM315.1 349.7c-2.5 1.3-4-1.2-5.8-2.4-.1-.1.2-1.5.5-1.8.8-.7 1.7-2.3 2.8-.4.8 1.5 1.6 3.1 2.5 4.6zM243.2 374.8c.4-.7.7-1.5 1.2-2.2.8-1.1 1.6-2.1 2.5-3.1.1-.1.5-.1.5-.1.4 1.2-1.1 6.1-2.2 6.8-.4.3-1.1.6-1.4.4-.3-.2-.3-1-.6-1.8zM186.3 166.9c.3-.4.8-1.1.9-1.1.8.4 1.9.8 2.1 1.6.3 1.4.1 2.9.1 4.4-.9-.7-1.7-1.6-2.6-2.1-1.3-.7-1.2-1.6-.5-2.8zM249.6 255.7c-.3-5.1-.6-10.3-.8-15.4 0-.5.1-.9.2-1.4.1.4.4.7.4 1.1 0 6.5 1.6 12.8.8 19.3 0 .3-.1.6-.2.9l-.3-.8c-.1-1.2-.2-2.5-.2-3.7h.1zM255.2 230.3c-.1 3.1-.2 6.5-.4 9.9 0 .6-.3 1.1-.5 1.7-.2-.5-.5-1-.5-1.5 0-1.9 0-3.9.1-5.8.1-1.5.4-3.1.6-4.6.2-1.4.5-2.7.7-4v4.3zM181.5 345.8c-.2 1.5-.3 2.6-.6 3.8-.1.7-.4 1.3-.6 1.9-.4-.6-1.1-1.2-1.2-1.8-.1-1.4 0-2.8.4-4.2.2-.8.9-1.3 1.4-2 .2.8.5 1.7.6 2.3zM187.9 232.6l-.6 15.3c0 .4-.4.7-.6 1.1-.1-.4-.3-.8-.3-1.1.5-5.2 1-10.3 1.5-15.3zM238 339.2l-1.6-17.7c0-.2.2-.5.3-.7.2.3.6.6.6.9.1 1.9.1 3.9.2 5.9.2 3.8.3 7.7.5 11.6zM235.1 304.7v-3.8c.3 1.1.7 2.2.8 3.3.4 4.1.6 8.2.9 12.2 0 .4-.2.9-.4 1.3-.1-.4-.4-.9-.4-1.3-.3-4.1-.6-8.2-.9-11.7zM264.4 170.8l.4.7c1.2 2.8 2.4 5.6 3.5 8.5.1.3-.1.9-.2 1.3-.2-.3-.5-.6-.6-.9l-3.4-8.6-.2-.9c.1 0 .3-.1.5-.1zM256 196.6c-.2 5.6-.4 11.1-.5 16.7 0 .4-.2.7-.3 1.1-.1-.3-.2-.6-.2-.9.3-5.6.6-11.3 1-16.9zM237.1 303c.5-1 .8-1.5 1.1-2 .9.9 1.8 1.8 2.7 2.6-.7.5-1.4 1.4-2.1 1.3-.5.1-1-1.1-1.7-1.9zM231.1 108.1c0 4.3-1 5.8-4 6.2-.3 0-.6-.1-.8-.2.2-.2.4-.4.6-.4 2.8-.2 2.9-2.7 3.2-5.1.1-.7.3-1.3.5-2 .2.7.5 1.4.5 1.5zM195.9 349.7c-.3-.5-.8-1-.7-1.2l1.9-4.2c.1-.1.4 0 .6 0-.2 1.4-.3 2.8-.6 4.2-.1.4-.7.7-1.2 1.2zM248.1 290.2l-.3 3.5-.7-3.5c-.2-1.2-.3-2.4-.3-3.7 0-.4.4-.7.7-1.1.2.3.5.6.5 1 .1 1.2 0 2.5 0 3.7 0 .1 0 .1.1.1zM238.1 415.2c.5-1.1.8-1.9 1.2-2.7.4.7 1.2 1.3 1.2 1.9-.1.8-.8 1.5-1.2 2.3-.4-.4-.7-.9-1.2-1.5zM282.4 223.3c-1.1-2.7-2.2-5.4-3.2-8.2-.1-.2.1-.5.1-.7.2.2.4.4.5.6.8 2.7 1.7 5.5 2.6 8.3zM178.9 355.3c1.8.4 2.7 2.8 1.5 4.4-.2.3-.7.5-.9.4-.3-.2-.5-.7-.5-1.2l-.1-3.6zM234.3 292.9v-3.9l.6 4 .6 4.2c0 .3-.2.7-.3 1-.2-.3-.6-.5-.6-.8-.2-1.5-.2-3-.3-4.5zM262.3 378.9c0-2.2 0-4.5.1-6.7 0-.3.3-.6.5-.9.1.3.4.7.4 1-.3 2.2-.7 4.3-1 6.6zM322.2 355.2c-.5-.6-.8-.9-1.1-1.2.9-.7 1.8-1.4 2.8-2 .1-.1.5.3.7.5-.8.9-1.6 1.7-2.4 2.7zM239 348.3c-.2 1-.4 1.8-.5 2.6-.3-.7-.9-1.4-.9-2.1 0-1 .5-2 .7-3.1l.7 2.6zM257 182.9c-.2 1.4-.4 2.4-.6 3.4l-.3 1.9-.4-2.1c0-1 0-2 .1-3 .1-.4.6-.8.9-1.2.2.5.3 1 .3 1zM260.8 292c-.2 0-.9-.2-1.6-.4l2.3-.7h.5l1.9.4c-.7.2-1.4.5-2 .7-.2.1-.3 0-1.1 0zM239.3 411.1c-.3-1.2-.6-1.8-.6-2.4 0-.4.5-.8.8-1.2.3.5.9 1 .9 1.5.1.5-.5 1-1.1 2.1zM282.3 351l-5.7 4.2-.7.2c.1-.3.2-.7.4-.8 2-1.3 4-2.4 6-3.6zM282.4 255.4l-.8.3c-1.4-.3-2.7-.6-4.1-1-.2-.1-.3-.4-.5-.6.2-.1.5-.3.7-.3 1.3.3 2.6.6 3.8 1 .3.1.5.3.9.6zM239.7 313.8v-1.9l.3-2.2c.1.8.4 1.6.4 2.4 0 1.6-.2 3.3-.3 4.9l-.2.7-.1-.9c-.1-.9-.1-2-.1-3zM261.3 359.4l-1 2.2c-.1-.3-.4-.7-.3-1 .1-1 .4-1.9.6-2.8.2.4.4.9.7 1.6zM281.4 247.8c-.2.4-.3.6-.5.8l-1.2-2.5c0-.1.3-.4.4-.6.5.8.9 1.6 1.3 2.3zM307.8 344.4c-.3-.5-.4-.7-.6-.9.7-.5 1.4-1 2-1.5l.3.6c-.5.6-1.1 1.2-1.7 1.8zM256.6 381.6l-.9 1.4c-.2-.4-.6-.8-.5-1.2.1-.5.5-1 .7-1.4.2.4.4.7.7 1.2zM255.4 219.6c-.1.8-.2 1.5-.3 2.1-.2-1.1-.4-2.2-.5-3.2 0-.3.2-.6.3-.9.3.7.4 1.4.5 2zM291.3 344.8l-.1.3c-1.2.9-2.4 1.8-3.7 2.7 0 0-.2-.2-.2-.3 1.1-.8 2.2-1.6 3.3-2.3.2-.3.5-.3.7-.4zM177.7 362.9c.8.2 1.3.3 1.9.4-.5.2-1.1.5-1.6.5-.4 0-.9-.3-1.4-.5.5-.1.9-.3 1.1-.4zM282.3 223.3c.3.8.7 1.6 1 2.5.1.4-.1.8-.1 1.2-.3-.3-.7-.6-.8-1l-.1-2.7zM289.2 267.6c-.1.5-.2.8-.3 1-.3-.5-.6-1.1-.8-1.6-.1-.2.1-.5.1-.8.4.5.7 1 1 1.4zM207.2 104.9l.6 1c0 .6-.2 1.1-.3 1.7-.2-.2-.4-.3-.4-.5 0-.7 0-1.3.1-2.2zM304 292.1l-1.4-3.6.4-.2c.3 1.3.6 2.5 1 3.8zM234.3 283.5c-.1.3-.3.8-.5 1.3 0-.4-.2-.8-.1-1.2.1-.6.3-1.2.4-1.9.1.5.1 1.1.2 1.8zM309.4 338.7c-.2.3-.3.5-.5.7-.2-.3-.5-.6-.5-.9 0-.3.3-.5.5-.8.1.3.3.6.5 1zM281.3 251c.3.3.6.4.6.6 0 .3-.2.6-.4.8-.2-.2-.4-.4-.5-.6l.3-.8zM291.3 344.8l2.7-1.5c0 .1.1.2.1.2-.9.5-1.9.9-2.8 1.3zM282.4 351c.7-.7 1.4-1.3 2.2-2 .1.1.2.3.2.4-.8.5-1.6 1-2.4 1.6zM208.8 113.2c-.5.1-.7.2-.9.1-.3-.2-.5-.5-.7-.7.1-.2.4-.5.4-.4.3.2.6.6 1.2 1zM298 349.4c-.2.5-.5 1-.8 1.6-.1-.1-.3-.4-.3-.4.2-.5.5-1 .8-1.6 0 .1.1.2.3.4zM299.7 276.8c-.1.3-.2.5-.3.7-.2-.2-.4-.3-.4-.6 0-.2.1-.5.2-.7.1.2.3.4.5.6zM306.5 298.2c-.2.3-.3.5-.5.7-.2-.3-.4-.6-.5-.9-.1-.3.1-.6.1-.9.2.3.5.7.9 1.1zM215.3 114.2c-.3 0-.5 0-.8-.1-.3-.1-.7-.3-1-.5.4 0 .8 0 1.1.1.3 0 .5.3.7.5zM278.2 290.9l-.5.4-1-.1c.1-.1.2-.3.3-.3h1.2zM305.9 344.2l-.2.5c-.1-.1-.4-.2-.4-.3.1-.2.2-.4.3-.7.1.2.2.4.3.5zM304.5 293.9l1.1 3.1c-.4-1-.7-2-1.1-3.1zM176.3 359.2c0-.4-.1-.7-.1-.9 0-.1.2-.3.4-.4.1.2.4.4.4.6-.1.2-.4.3-.7.7zM256 290.2c.1-.5.2-1 .3-1.4l.4.2-.7 1.2zM301.7 285.6c-.1-.3-.2-.5-.2-.8 0-.1.2-.2.3-.3l.3.8c-.1 0-.3.2-.4.3zM289.2 243.7c.3.5.5 1 .8 1.4l-.2.1c-.2-.4-.4-1-.6-1.5zM273.4 255.5l-1.1.7c0-.1-.1-.2-.1-.4.4 0 .8-.2 1.2-.3zM203 263.4l.2.5c-.1.1-.3.2-.3.2-.1-.1-.2-.3-.2-.5l.3-.2zM296.4 266.1l-.3.1-.1-.2c0-.1.1-.2.2-.4 0 .2.1.3.2.5zM290.7 248.5c-.1-.2-.2-.3-.2-.5 0-.1.2-.2.3-.3.1.2.2.3.2.5 0 .1-.2.2-.3.3zM277.1 222c-.2-.3-.4-.6-.6-.8l.3-.2.3 1zM298 273.1l.3.4c0 .1-.2.2-.3.3l-.1-.3s0-.2.1-.4zM300.3 280.3l.6.9-.3.2c-.1-.4-.2-.8-.3-1.1zM186.1 220.4l-.1-.3c0-.1.1-.1.1-.1v.4zM275 254.3l-1.6 1.2c.5-.4 1-.8 1.6-1.2zM232.6 297.4v.4h-.2c0-.1.1-.2.2-.4zM256.3 193.5l-.1.2c0-.1-.1-.2-.1-.2l.1-.2c0 .1.1.2.1.2zM272.9 357.2l.7-.7c-.2.2-.5.4-.7.7zM239.2 354.1h-.2l.1-.1zM258.6 345.4l.3 1.1c-.1-.4-.2-.8-.3-1.1zM295 261.7l-.5-1c.2.3.4.7.5 1zM326.5 348.9h.2l-.1.2zM248.6 346.6l.2.7-.1-.2c-.1-.1-.1-.3-.1-.5zM262.3 378.8l-.2.7c0-.1-.1-.2 0-.2 0-.1.1-.3.2-.5zM290 271.4l-.1-.1.1-.1zM288.7 241.9c.2.6.3 1.2.5 1.9-.2-.7-.3-1.3-.5-1.9zM237.8 294.1v.2h-.1zM248.4 235.4h-.2l.1-.2zM275.5 204c-.2-.6-.4-1.2-.5-1.8.1.6.3 1.2.5 1.8zM295 261.7l.2.7-.1-.2c0-.1-.1-.3-.1-.5zM285.5 233.8l.2.7c0-.2-.1-.5-.2-.7zM304 292.1c.2.6.4 1.2.5 1.9-.2-.7-.3-1.3-.5-1.9zM204.8 403.7l-.1-.2s0 .1.1.2zM222.2 114.8l.2-.2c-.1.1-.2.1-.2.2zM271.8 357.8l1.1-.6c-.4.2-.8.4-1.1.6zM316.1 353.4c-.1 0-.1 0-.2-.1.1.1.2.1.2.1zM316.1 353.5c.1 0 .1 0 .2.1 0-.1-.1-.1-.2-.1zM286.6 261.7l-.1-.2c0 .1 0 .1.1.2zM286.6 261.7l.1.2-.1-.2zM238 339.2v1.2-1.2zM238 340.4c0 .1 0 .2-.1.2.1 0 .1-.1.1-.2zM258.6 345.4l-.1-.2.1.2zM268.1 258.6l.2-.2-.2.2zM262.3 166.2l.1.2s0-.1-.1-.2zM275 254.3zM242.3 249.3zM288.7 241.9zM285.5 233.8zM261.2 182.4c-.2-.2-.4-.4-.5-.6.2.1.4.4.5.6zM189.5 171.8zM275.5 204.1zM256 196zM256 196.6v-.6.6zM301.9 316.3h.5c-.2-.1-.3-.1-.5 0zM315.1 349.7c.2.2.4.4.5.6-.2-.2-.4-.4-.5-.6zM256.5 340.4zM256.5 340.4zM190 331.7zM300.3 280.3zM268.1 258.6zM238.5 297.7zM310.3 303.2v-.6.6z"/><path d="M227.9 145.6l-3.6.2c-1.3.1-2.4-.4-2.5-2.1-.2-3.8-.3-7.6-.3-11.4 0-2.1 1.2-3.2 2.8-3.5 3.8-.8 7.7-1 11.5.3s5 5.5 6.5 9.2c.3.8.5 1.8.6 2.7.2 1.5.3 3.1.4 4.6-1.1.1-2.2.3-3.3.3-2 .1-4 .3-6 .3-2.1-.1-4.1-.4-6.1-.6zm8.6-1.7v.5l3.4-.4c1.4-.2 1.8-1.1 1.2-2.6-1-2.7-2.1-5.4-3.2-8.1-.6-1.6-1.6-2.2-3.2-2.1-3 .1-6.1.1-9.1 0-1.5-.1-2.2.6-2.2 2.2 0 2.5.2 4.9 0 7.4-.2 2.2.5 3.1 2.3 3.1h10.8zM215.1 136.6l-.8 7.6c-.2 1.7-1.2 2.3-2.6 2.4-4 .2-8 .5-12.1.7-3 .1-4-1.2-3.5-4.6.6-4.5 1-9.1 4-12.5.8-.9 2-1.7 3.1-1.8 2.9-.3 5.8-.1 8.7-.1 2.1 0 3.1 1.1 3 3.6-.1 1.5 0 3.1 0 4.6 0 .1.1.1.2.1zm-11.3 8.5c2.4-.2 4.9-.4 7.3-.7.5-.1 1.3-.8 1.3-1.3.3-3.6.4-7.2.5-10.7 0-.7-.7-2-1.1-1.9-3.2.2-6.5.3-9.6 1-.9.2-1.7 1.9-2.3 3.1-.4.8-.5 2-.7 3-1.9 7.3-1.9 7.4 4.6 7.5zM238.4 160.2c-1.3-.2-2.7-.2-3.9-.5-5.7-1.5-11.5-1-17.3-.4-2.9.3-5.8 0-8.7 0h-13.1c-1.4 0-2.8-.1-4.2-.3-.5-.1-.8-.7-1.3-1.2.4-.2.9-.6 1.3-.6 6.6 0 13.3.2 19.9.1 5.4 0 10.9-.2 16.3-.4.7 0 1.4-.2 2.1 0 5.4 1.4 10.8.2 16.2.7.4 0 .8.5 1.2.7-.3.3-.6.8-1 .8-2.4.5-5 .8-7.5 1.1zM247.9 147.9c-.4 1.2-.7 2.3-1 3.3l-1-3.2c-.8-3-1.5-6.1-2.5-9.1-.7-2.2-1.7-4.3-2.5-6.5-2.6-7-3-6.3-9-6.8-2.2-.2-4.5.8-6.7.8-.8 0-1.7-1.1-2.5-1.6.6-.4 1.2-1.2 1.8-1.2 4.2.1 8.4 0 12.5.7 2.7.5 4.4 3.3 5.4 6.4 1.3 3.8 2.7 7.5 4 11.4.6 2 1 3.9 1.5 5.8zM201.5 151.5l6.3-.4c.4 0 .9.3 1.3.5-.4 1-.8 2-1.3 3l-1.1-.6c-.6-.3-1.1-.9-1.7-.9l-11.8.2c-.7 0-1.5-.6-2.2-.9.5-.9.8-2.3 1.5-2.6 1.8-.8 3.7-1.4 5.6-1.5 4-.2 8.1-.1 12.1 0 .7 0 1.3.6 2 .9-.8.3-1.5.8-2.3.8-3.9 0-7.8-.1-11.8-.1-.4 0-.9.1-1.3.3-.6.2-1.1.5-1.6.7.6.2 1.2.5 1.9.6 1.5.1 3 0 4.5 0-.1-.2-.1-.1-.1 0zM232.6 149h-5.8c-1.5 0-2.8.2-3.1 2.4-.1.5-.6.9-.9 1.3-.4-.5-.9-.9-1.1-1.5-.5-2.1.9-3.9 3.2-4.1 1.9-.2 3.8-.1 5.8 0 2.9.1 5.8.2 8.6.3.7 0 1.4.2 2 .6.4.3.6 1.1.9 1.7h-1.5l-8.3-.9c.2 0 .2.1.2.2zM261.6 158.6c-.4.2-1.1.6-1.2.5-3.2-4.3-6.7-4.8-10.7-1.5-.1.1-.8-.8-.8-.9.3-.7.7-1.5 1.2-2 3.1-3.1 9.4-1.5 11.1 2.8.2.2.2.5.4 1.1zM246.5 165.6c.6.1 1.2 0 1.8.2.5.2.9.6 1.3.9-.5.1-1.2.5-1.6.3-.6-.2-1-.9-1.5-1.4zM315.4 280.6c-.1-.2-.2-.4-.1-.5 0-.1.2-.2.3-.3.1.2.2.4.1.5 0 .1-.2.1-.3.3zM188.8 385.4c.1-.1.1-.2.2-.2l.3.3s-.1.1-.1.2c-.2-.1-.3-.2-.4-.3zM355.7 379l-.1-.2h.2zM248.8 381c0 .1-.1.2-.1.2l-.2-.1.2-.3c0 .1 0 .2.1.2zM358.2 359.9l-.2.1v-.2zM348.2 351.4h.1l-.1.2zM325.4 336.9v.2h-.1zM126.3 391.7v.2l-.2-.1zM371.2 374.6l-.1.1-.1-.1zM360.1 373.7l.1-.2.1.1zM302.6 260.9v-.2h.1zM310.3 303.2v-.6c.2.1.4.1.5.2-.1.2-.3.3-.5.4zM316.9 291c-.1 0-.2.1-.2.1 0-.1 0-.1-.1-.2l.3.1zM178.2 218.8l.1-.1.1.2zM282.9 367.7c-.1 0-.1 0-.2-.1 0 .1.1.1.2.1zM282.9 367.7zM224.4 169.7c.1-.5.2-1.1.4-1.6.1-.2.4-.6.5-.6.3.1.7.5.7.7.1 4.2 3.1 6.3 4.6 9.4 2 3.8 3.3 8.1 4.8 12.3.2.4-.2 1.1-.3 1.7-.4-.4-1-.7-1.3-1.2-1.3-3-2.5-6.1-3.9-9.1-.6-1.3-1.4-2.7-2.4-3.6-2.3-2-2.8-4.8-3.1-8zM233.3 258c0-.1 0-.2.1-.3-.1.1-.1.2-.1.3zM225.9 225.1zM225.9 225.1zM233.3 258zM257.5 286.5c-.2-.3-.3-.6-.5-1 0 0 .1-.1.2-.1l.4 1-.1.1zM301.9 316.9c0 .1 0 .2-.1.2l.1-.2zM301.9 316.2h.5c-.2.2-.4.4-.5.6v-.6zM262.6 256.7c0-.1-.1-.2-.1-.2.1 0 .2-.1.4-.1v.3c-.1-.1-.2-.1-.3 0zM254.9 308.8l.1.2c0-.1 0-.1-.1-.2zM287.6 257.4l.2-.2c-.1 0-.1.1-.2.2zM292.4 271zM289.7 256.7zM316.7 331.2l-.2.2v-.2zM244.4 343.5c0-.1 0-.2.1-.2-.1.1-.1.1-.1.2zM242 363.2c-1.4 1.3-2.2 2.4-3.2 3-.3.1-1.7-1.3-1.7-2 0-1.8 1.2-2.6 2.6-2.6.6 0 1.2.7 2.3 1.6zM236.5 369.6zM258.1 318.1zM233.8 338.6l.3-1.1.3.2-.6.9zM259.7 271.6l-.2-.2c.1.1.1.2.2.2zM186.3 166.9z"/><path fill="#fff" d="M236.5 143.9h-10.7c-1.8 0-2.4-.9-2.3-3.1.2-2.4 0-4.9 0-7.4 0-1.7.7-2.3 2.2-2.2 3 .1 6.1.2 9.1 0 1.5-.1 2.5.5 3.2 2.1l3.2 8.1c.6 1.5.2 2.4-1.2 2.6l-3.4.4c-.1-.2-.1-.3-.1-.5zM203.8 145.1c-6.5-.2-6.5-.2-4.7-7.6.2-1 .3-2.1.7-3 .6-1.2 1.4-2.9 2.3-3.1 3.2-.7 6.4-.9 9.6-1 .4 0 1.1 1.3 1.1 1.9 0 3.6-.2 7.2-.5 10.7 0 .5-.8 1.2-1.3 1.3-2.3.5-4.8.6-7.2.8z"/></svg>