<?xml version="1.0" encoding="utf-8"?>
<!-- Generator: Adobe Illustrator 17.1.0, SVG Export Plug-In . SVG Version: 6.00 Build 0)  -->
<!DOCTYPE svg PUBLIC "-//W3C//DTD SVG 1.1//EN" "http://www.w3.org/Graphics/SVG/1.1/DTD/svg11.dtd">
<svg version="1.1" id="Ebene_1" xmlns="http://www.w3.org/2000/svg" xmlns:xlink="http://www.w3.org/1999/xlink" x="0px" y="0px"
	 viewBox="0 0 500 500" enable-background="new 0 0 500 500" xml:space="preserve">
<path fill="#FFFFFF" d="M448.7,500v-4.1c-0.6,0-1.2,0.1-1.8,0C447.5,497.3,448.1,498.6,448.7,500z"/>
<polygon fill="#FFFFFF" points="400.5,500 400.5,500 400.5,499.9 "/>
<polygon points="400.5,500 400.5,499.9 400.5,500 "/>
<g>
	<path fill="#FFFFFF" d="M202.2,100.1c0.1,0.9,0.2,1.7,0.1,2.6c10.6,0.1,21.2,0.2,31.8,0.3c0.2-1,0.5-2,1-3
		C224.2,99.9,213.2,100,202.2,100.1z"/>
	<path d="M202.4,102.7c0,0.7-0.1,1.4-0.2,2.1c3.2,0.2,3.1,0.9,3.1,6.1c0,2.2-0.5,4.6,1.3,6.3c0.4,0.4,0.9,0.5,1.3,0.7
		c0-0.5-0.1-1.1-0.1-1.6c0-0.3,0.2-0.8,0.4-0.8c1.2-0.1,2.5-0.2,3.7,0.1c0.7,0.2,1.2,1.2,1.7,1.8c0,0.1,0,0.2,0,0.3
		c0.5,5.2-0.1,6-4.7,5.8c-1.8-0.1-3.7-0.2-5.5-0.2c-4.5,0-6.6,1.4-8.1,6.5c-1.2,4-1.9,8.1-2.6,12.3c-0.4,2.1-0.9,3.3-2.9,3.7
		c-0.9,0.2-2.2,1.3-2.5,2.3c-1.2,4.1-4,6.6-6.5,9.4c-0.6,0.6-1.3,1.2-1.5,2c-0.2,0.6,0.2,1.5,0.4,2.3c0.3-0.5,0.5-1,0.8-1.5
		c0.2-0.3,0.4-0.7,0.7-0.9c3.3-2.9,5.9-6.7,8.4-10.6c0.4-0.6,0.9-1.3,1.3-1.4c2.6-0.3,2.8-2.1,3.1-4.8c0.6-4.8,1.9-9.4,3.1-14.1
		c0.6-2.2,2.4-3,4.2-3.1c3.4-0.2,6.8-0.2,10.3-0.3c2.4-0.1,3.6-1.2,3.7-4.1c0.1-2.3,0-4.7,0-7c2.3,0.2,4.6,0.4,6.8,0.6
		c-1.1,1.2-1.6,6.9-0.6,7.9c0.2,0.2,0.7,0,1-0.2c0.2-0.1,0.3-0.6,0.2-0.8c-0.6-4.7,2.1-5.1,4.9-5.5c3.6-0.6,5.6-3.7,5.3-8.1
		c-0.1-1.9,0-2.6,0.9-2.9c0-0.7,0.1-1.5,0.2-2.2C223.6,102.9,213,102.8,202.4,102.7z M207.2,104.9c0.3,0.6,0.6,0.8,0.6,1
		c0,0.6-0.2,1.1-0.3,1.7c-0.2-0.2-0.4-0.3-0.4-0.5C207.1,106.4,207.1,105.8,207.2,104.9z M207.9,113.3c-0.3-0.2-0.5-0.5-0.7-0.7
		c0.1-0.2,0.4-0.5,0.4-0.4c0.4,0.3,0.7,0.6,1.2,1.1C208.3,113.3,208,113.4,207.9,113.3z M214.6,114.1c-0.3-0.1-0.7-0.3-1-0.5
		c0.4,0,0.8,0,1.1,0.1c0.2,0.1,0.4,0.3,0.6,0.5C215.1,114.1,214.8,114.2,214.6,114.1z M217.1,112.2c-1.6-0.6-3.4-0.7-5.2-0.7
		c-1.5,0-2.5-0.3-2.3-2.3c0.1-1.8,0-4,2.2-4.1c2.5-0.1,5.1,0,7.6,0c0,0,0,0,0,0.1c1.9,0,3.8,0,5.8,0c1.1,0,2.6-0.4,2.6,1.6
		c0,1.9,0.3,4.4-1.7,5C223.2,112.4,220.2,113.3,217.1,112.2z M227.1,114.3c-0.3,0-0.6-0.1-0.8-0.2c0.2-0.2,0.4-0.4,0.6-0.4
		c2.8-0.2,2.9-2.7,3.2-5.1c0.1-0.7,0.3-1.3,0.5-2c0.2,0.7,0.5,1.3,0.5,1.5C231.1,112.4,230.1,113.9,227.1,114.3z"/>
	<path d="M336.2,386.1c-1.1-3.6-2.4-7-3.6-10.6c-0.7-2-1.1-4.1-1.8-6.2c-0.8-2.6-1.5-5.3-2.6-7.7c-1.9-4.1-0.7-7.9,0.7-11.5
		c0.7-2,0.4-3.4-0.7-4.7c-0.8-0.9-1.6-2-2.6-2.6c-2.3-1.5-3.5-3.9-4.4-6.7c-3.5-10.3-7-20.5-10.4-30.8c-0.2-0.7-0.3-1.4-0.5-2.1
		l0-0.6c-2-5.3-4.2-10.5-5.9-15.8c-2.5-7.8-4.6-15.8-6.9-23.7c-2-6.9-4-13.9-6.2-20.7c-2.1-6.5-4.6-12.9-6.8-19.4
		c-3-9-5.8-18.1-8.8-27.1c-3.2-9.4-6.5-18.7-9.8-28c-0.8-2.2-1.4-4.2-0.5-6.5c0.3-0.8,0.5-1.4,1.1-0.2c0.9,1.6,1.4,0.7,1.6-0.5
		c0.5-2.6-1.3-6.6-3.3-7.7c-1.7-0.9-3.3-1.8-5-2.8c-2.7-1.6-5.5-2.2-8.4-1.7c-0.6,0.1-1.2,1-1.7,1.5c0.6,0.3,1.2,0.7,1.8,0.7
		c4.1,0,7.8,1.3,11,4.4c2.1,2,2.3,3.1,1.3,6.1c-0.6,1.7-0.9,3.5-1.4,5.2c-2,0.1-3.6,1.1-4.7,3c-0.6,1-1.2,2-2,2.7
		c-1.7,1.6-1.8,1.8,0.1,3c2.4,1.6,4.8,3,5.1,6.8c0,0.1,0.1,0.1,0.1,0.2c0-0.1-0.1-0.1-0.1-0.2c-2.6-1-5.1-2-7.6-3.1
		c-1.3-0.5-3.5-1.2-3.5-1.9c-0.1-1.9,0.8-3.8,1.2-5.7c0-0.2,0.3-0.3,0.4-0.4c0.5-0.7,1-1.5,1.6-2.2c-0.9,0.2-2,0.1-2.8,0.7
		c-2.4,1.7-2.7,4.7-2.9,7.6c-0.2,2.6,0.2,5.2,0.4,7.8c0.5,11.2,1.1,22.4,1.5,33.6c0.2,3.8,0.2,7.6,0.4,11.4c0,0.4,0.1,0.9-0.1,1.2
		c-0.2,0.5-0.5,1-0.8,1.5c-0.2-0.5-0.7-1-0.7-1.5c-0.3-4.3-0.5-8.6-0.7-12.9c-0.2-4.6-0.2-9.3-0.5-13.9c-0.1-1.5-0.7-2.9-1.1-4.4
		c-0.2-0.8-0.6-1.6-0.6-2.4c-0.1-6.1-0.8-12.2,0.4-18.4c0.7-3.3,0.2-6.9,0.4-10.4c0-0.9,0.5-1.8,0.8-2.7l0,0
		c-1.9-0.9-4.1,0.7-4.1,2.9c0.1,6.7,0.1,13.4,0.4,20c0.3,6.2,1,12.3,1.4,18.4c0.4,6.4,0.6,12.8,0.7,19.2c0.1,3.9-0.3,7.8-0.4,11.6
		c0,0.1,0,0.2,0,0.3c1.6,3.1-0.1,6.1-0.1,9.1c0,0.7-0.2,1.3-0.3,2c-0.3-0.6-0.7-1.2-0.8-1.8c-1-5.1-2.1-10.2-3-15.4
		c-1.9-11.6-1.8-23.4-1.4-35.1c0.2-7.2,0.4-14.4,0.5-21.7c0-1.8-0.5-3.7-0.7-5.5c-0.2-1.2-0.5-2.5,1-3c0.2-0.1,0.4-0.5,0.6-0.8
		c-0.2-0.1-0.5-0.3-0.7-0.3c-4.8-0.3-9.6-0.6-14.4-0.8c-4.1-0.2-8.2-0.4-12.4-0.6c-4.2-0.3-8.4-0.7-12.6-0.8c-1.8,0-3.6,0.4-5.3,1.1
		c-0.7,0.3-1.4,1.8-1.6,2.9c-0.7,6.5-1.4,13-1.9,19.6c-0.8,11-1.5,22.1-2.3,33.1c-0.3,4.1-0.7,8.2-1.1,12.3
		c0.4-10.4,0.6-20.9,1.2-31.3c0.4-7.4,1.3-14.7,1.9-22.1c0.3-4.3,0.5-8.6,0.7-12.9c0.1-1.9-0.6-2.6-2.2-2.5c-1.2,0.1-2.5,0-3.7,0.2
		c-1,0.1-2.7,0.6-2.7,1c0,1.8,0.1,3.9,0.8,5.5c0.6,1.4,2.7,2,3,3.4c0.2,0.9-1.8,2.3-2.3,3.7c-0.7,1.7-1.4,3.6-1.4,5.5
		c0,5.4,0.4,10.9,0.5,16.3c0.1,3.4-0.1,6.8,0,10.2c0.1,4.6,0.4,9.3,0.5,13.9c0.2,7.8,0.4,15.6,0.5,23.5c0.1,7.4-0.1,14.9,0,22.3
		c0.1,6.3,0.7,12.5,0.9,18.8c0.1,5.1-0.1,10.3-0.1,15.4c0,1.6,0.2,3.2,0.4,4.9c0.1,1,0.4,2,0.4,3c0.1,9.6,0.3,19.3,0.1,28.9
		c-0.1,5.3-0.7,10.6-1,15.9c-0.1,2.4,0,4.7-0.1,7.1c0,0.7-0.7,1.3-1.1,1.9c-0.4-0.6-1.1-1.2-1.3-1.9c-0.2-1.2-0.1-2.5-0.2-3.7
		c0-0.4-0.2-0.9,0-1.2c1.6-3.3,0.1-6.8,0.5-10.2c0.4-3.7,0.7-7.4,0.7-11.1c0.1-3.6-0.1-7.2-0.2-10.8c-0.3-10.5-0.8-21-1-31.5
		c-0.3-19.4-0.4-38.8-0.7-58.2c-0.1-7.8-0.6-15.7-0.7-23.5c-0.1-10,0.1-20,0.2-30c0-1,0-2.1,0-3.1c-0.1-1.6-0.6-2.7-2.2-2.7
		c-1.7,0-2.8-1.2-2.9-3.3c-0.1-2.1,1-2.9,2.7-2.9c0.4,0,1-0.5,1.1-0.9c0.1-0.5-0.3-1.6-0.5-1.6c-1.6,0-1.4-1-0.7-2
		c1.4-2.2-0.7-3.8-0.7-5.8c0-0.1-0.2-0.2-0.3-0.3c-0.1,0.3-0.3,0.5-0.3,0.8c0,0.9,0.1,1.9,0.1,2.8c-0.1,2.4-0.4,4.6-2.5,6
		c-0.9,0.6-1.8,2.9-1.4,3.8c0.8,1.9,2.1,4,3.6,4.9c2.6,1.5,2.5,1.1,2.2,4.5c-0.3,4.6-0.2,9.3-0.2,13.9c0,4.5-0.1,9,0,13.6
		c0.1,6.4,0.5,12.8,0.6,19.2c0.2,7.6,0.3,15.2,0.5,22.8c0.1,6.2,0.3,12.4,0.4,18.6c0.1,7.5,0,15.1,0,22.6c0,3.1,0.2,6.2,0,9.2
		c-0.2,3.1-0.9,3.6-3.6,3.6c-2.7,0-5.4,0-8.2,0c-1.6,0-2.5,0.8-3.3,2.5c-1.3,2.9-2.4,5.8-1.2,9.1c0.4,1.2,1.3,2.7,2.2,3
		c2.1,0.7,4.3,0.8,6.5,1c2.2,0.2,4.4-0.1,6.5,0.2c0.7,0.1,1.7,1.2,1.8,1.9c0.3,2,0.2,4.1,0.2,6.2c-0.1,2.1-0.8,3.5-2.5,4.7
		c-3.5,2.6-5.7,6.5-6.4,11.5c-0.6,4.1-1.8,8.2-2.7,12.2c-0.2,0.7-0.3,1.4-0.4,2.1c0,0.1,0.5,0.3,0.8,0.4c0.2,0,0.4-0.1,0.6-0.2
		c0.4,4.4,3.5,4.3,6,5.1c1.1,0.4,2.2,1.1,3.3,1.3c1.1,0.2,2.3,0.3,3.2-0.2c2.2-1.2,3.9-0.4,6.1,0.3c5.2,1.8,6.6,5.5,7.3,11.3
		c0.8,6.6,2.9,12.9,4.4,19.4c0.6,2.8,1.1,5.6,1.7,8.4c0.1,0.4,0.4,0.8,0.6,1.2c0.2-0.4,0.5-0.8,0.6-1.2c0.1-0.9,0-1.8,0-2.7
		c2.2,3.8,3.2,8,3.1,12.5c0,0.8,0,1.7,0.4,2.4c2.5,5.4,1,11.3,1.4,16.9c0,0.3-0.9,0.8-1.5,1.1c-0.7,0.3-1.4,0.5-2.1,0.8
		c0,0,0,0,0.1,0c2-0.6,4.1-1.1,6.1-1.4c-0.9-0.5-0.9-1.6-0.7-3.8c0.3-4.8,0-9.6-0.1-14.4c-0.1-4.2-0.1-8.4-0.3-12.6
		c-0.1-3.6-0.6-7.2-0.7-10.8c-0.3-8.6-0.5-17.3-0.7-25.9c-0.2-9-0.4-17.9-0.5-26.9c0-2.8,0.2-5.5,0.2-8.3c-0.1-11-0.2-22.1-0.3-33.1
		c-0.1-7.7-0.5-15.4-0.5-23.1c0-4,0.3-8,0.4-12c0.1-1.6,0.9-2,2.1-2.1c3.1-0.2,6.3-0.5,9.4-0.8c0,0,0,0.1,0,0.1c2.2,0,4.4-0.2,6.6,0
		c3.1,0.3,3.3,1.4,3.2,4.9c-0.2,6.2-1.1,12.4,0.5,18.5c0.3,1-0.1,2.2-0.1,3.3c0.1,9.4,0.2,18.7,0.2,28.1c0,2.3-0.1,4.5-0.1,6.8
		c0,1.9,0.2,3.9,0.2,5.8c0.1,4.8,0.2,9.7,0.3,14.5c0,0.6-0.1,1.3,0.1,1.8c1,3.7,0.2,7.6,0.6,11.3c0.9,8-0.3,16,0.5,24
		c0.4,4-0.1,8.2-0.1,12.3c0,1.3,0.4,2.6,0.4,4c0,11.6-0.1,23.2-0.2,34.8c0,1.2,0,2.1-0.1,2.8c0.5,0.2,1,0.5,1.4,0.7
		c0,0-0.1,0-0.1-0.1c0.6,0.3,0.5,0.3,0.1,0.1c1,0.5,1.9,1.1,2.8,1.9c0.2,0,0.3,0,0.5-0.1c0,0,0,0,0,0c0.4-0.6,0.8-1.3,1.2-1.8
		c-0.1-0.2-0.1-0.4-0.1-0.7c0-4.4,0.1-8.9,0.2-13.3c0-0.8,0.5-1.6,0.7-2.4c0.4,0.3,1.2,0.5,1.2,0.9c0.1,0.9-0.1,1.8-0.3,2.7
		c-0.1,0.5-0.5,1.4-0.4,1.5c1.9,1.7,1.1,4.2,1.3,6.3c0.1,0.7,0.3,1.4,0.5,2.1c0,0,0.1,0,0.1-0.1c0.2-0.7,0.5-1.3,1-1.8
		c0,0,0-0.1,0-0.1c0-7.3,0-14.6,0-21.9c0-3.4,0.1-6.8,0-10.2c-0.1-2.2,0.7-3.6,2.4-4.7c0.8-0.5,1.2-1.8,1.8-2.7
		c-1.3-1.1-1.9,0.4-2.9,0.9c-3.5,1.8-3.5,5.2-3.4,8.8c0,0.2,0,0.4,0,0.6c-0.2,1.2,0.4,2.9-1.3,3.1c-0.2,0-0.7-2-0.8-3.1
		c-0.3-3.9-0.3-7.8-0.7-11.6c-0.1-0.8,0.5-3.6-1.9-2.2c-0.1,0-0.5-0.4-0.5-0.6c-0.2-2.8-0.4-5.5-0.5-8.3c0-1.6,3-4.6,4.5-4.5
		c0.3,0,0.8,0.7,0.8,1.1c0.1,1-0.1,2.1,0.1,3c0.3,1.5,1.1,2.1,2.6,1.6c3.1-1.1,5.4-2.9,5.4-7.2c0-1.2,0.1-2.7,1.7-3
		c0.3-0.1,0.7-1.4,0.7-2.1c-0.3-8.8-0.7-17.7-1-26.5c-0.1-2.8,0.3-5.6,0.3-8.3c-0.1-5.3-0.3-10.7-0.5-16c0-0.9-0.1-1.9,0-2.8
		c0.2-0.9,0.6-1.7,1-2.5c0.7,0.8,1.9,1.5,2,2.3c0.3,5.2,0.5,10.5,0.6,15.7c0.1,4.7,0.1,9.5,0,14.2c-0.2,8.3-0.7,16.7-0.8,25
		c-0.1,4.3,0.6,8.6,0.6,12.8c0,3.5,0.2,7.2-3.2,9c-0.4,0.2-0.8,0.5-1.1,0.9c-0.3,0.4-0.3,1-0.5,1.6c0.5,0.1,1.1,0.4,1.4,0.2
		c2-1.1,3.6-2.6,4.2-5.2c0.5-2,1.6-3.1,3.3-2.6c1,0.3,2,1.3,2.6,2.4c1.6,2.7,0.9,7.6-1.5,9.5c-2,1.5-2.5,3.4-2.4,6
		c0.1,1.7,0.4,4.4-1.7,4.4c-2,0-1.5-2.4-1.6-4.1c-0.2-2.5,0-5.3-2.3-6.8c-0.5-0.3-1.2-0.3-1.8-0.5c0.1,0.7,0,1.6,0.3,1.9
		c2.3,2.2,2.5,5,2.1,8.1c-0.2,1.9,0.7,3.1,2.1,3.9c1.4,0.8,2.3-0.1,3.3-1c1.7-1.7,2.5-3.6,2.2-6.3c-0.1-1.2,0.5-2.6,1-3.8
		c0.8-1.9,2.1-3.6,2.7-5.6c0.4-1.4,0.4-3.4-0.1-4.7c-0.9-2.3-0.6-4.3,0.4-6.1c2.1-3.7,2.5-7.9,2.9-12.1c0.1-1-0.7-2.4-1.4-3.2
		c-1.4-1.4-2.1-4-1.3-5.8c0.1-0.3,0.6-0.5,0.9-0.4c1.5,0.3,2.9,0.7,4.4,1c2,0.4,3.7-0.3,5.3-2.1c1.1-1.3,2.4-2.3,3.8-3.2
		c6-4.1,12.1-8.1,18.2-12.2c0.4-0.2,0.8-0.2,1.2-0.4c0.1,0.6,0.3,1.2,0.1,1.7c-0.4,1.1-1,2.2-1.4,3.3c-0.5,1.5-0.3,2.9,1.1,3.6
		c1.6,0.8,1.9-0.7,2.4-2c0.2-0.7,0.4-1.4,0.7-2c0.5-1.3,1.1-1.8,2.5-1.1c5.3,2.7,10.6,5.3,16,7.9c1.4,0.7,2.6,1.7,3.2,3.7
		c2.5,7.7,5.4,15.3,8.1,22.9c1,2.9,2.6,4.9,5.3,5.4C336.1,388.5,336.8,387.8,336.2,386.1z M173.9,354.8c1.3-5.3,0.5-11.5,4.4-15.8
		c0.4-0.4,0.7-1,1.1-1.3c0.3-0.2,0.8-0.1,1.2-0.1c0,0.5,0.1,1,0,1.4c-0.3,0.6-0.8,1.1-1.2,1.6c-3.6,4.6-3.9,7.8-1.1,13
		c0.3,0.5,0.4,1.1,0.5,1.7c-1.3,0.1-2.6,0.3-3.9,0.4C174.7,355.7,173.9,355,173.9,354.8z M176.2,358.3c0-0.1,0.2-0.3,0.4-0.4
		c0.1,0.2,0.4,0.4,0.4,0.6c-0.1,0.2-0.3,0.4-0.6,0.7C176.2,358.7,176.2,358.5,176.2,358.3z M178,363.8c-0.4,0-0.9-0.3-1.4-0.5
		c0.4-0.2,0.8-0.3,1.1-0.4c0.8,0.2,1.3,0.3,1.9,0.4C179.1,363.5,178.5,363.8,178,363.8z M180.4,359.7c-0.2,0.3-0.7,0.5-0.9,0.4
		c-0.3-0.2-0.5-0.7-0.5-1.2c-0.1-1.2-0.1-2.4-0.1-3.6C180.7,355.8,181.6,358.1,180.4,359.7z M181,349.6c-0.1,0.7-0.4,1.3-0.6,1.9
		c-0.4-0.6-1.1-1.2-1.2-1.8c-0.1-1.4,0-2.8,0.4-4.2c0.2-0.8,0.9-1.3,1.4-2c0.2,0.8,0.5,1.6,0.6,2.2
		C181.3,347.2,181.2,348.4,181,349.6z M180.8,318.3c-0.1,0.7-1.2,1.2-1.5,1.5c-3.7,0-6.8,0.1-9.8-0.1c-0.9-0.1-2.4-0.9-2.4-1.5
		c-0.1-1.6,1-2.5,2.4-2.5c3-0.1,6.1-0.3,9.1-0.2C179.8,315.7,181.1,316.5,180.8,318.3z M181.2,314.4c-3.7-0.1-7.4-0.4-11.1-0.3
		c-1.5,0-2.6-0.2-2.9-2.2c-0.2-1.9,0.8-3.5,2.5-3.6c2.3-0.1,4.7,0,7.1,0c0-0.1,0-0.2,0-0.3c0.5,0,1,0.1,1.6,0.1
		c1.1,0.1,2.9-0.3,3.1,0.3c0.6,1.5,0.5,3.3,0.6,5.1C182.1,313.8,181.5,314.4,181.2,314.4z M238.7,408.7c0-0.4,0.5-0.8,0.8-1.2
		c0.3,0.5,0.9,1,0.9,1.5c0,0.5-0.5,1-1.2,2.1C238.9,409.9,238.6,409.3,238.7,408.7z M239.3,412.5c0.4,0.7,1.2,1.3,1.2,1.9
		c-0.1,0.8-0.8,1.5-1.2,2.3c-0.3-0.4-0.7-0.9-1.1-1.5C238.6,414.1,239,413.3,239.3,412.5z M305.6,297c0.7,1.4,0.5,1.6,0.4,1.8
		c-0.2-0.3-0.4-0.6-0.5-0.9C305.4,297.7,305.5,297.3,305.6,297z M303,288.3c0.3,1.2,0.6,2.4,1,3.6c-0.5-1.1-0.9-2.3-1.4-3.4
		C302.7,288.4,302.8,288.4,303,288.3z M299.1,276.3c0.2,0.2,0.3,0.3,0.6,0.5c-0.1,0.3-0.2,0.5-0.3,0.7c-0.2-0.2-0.4-0.3-0.4-0.6
		C298.9,276.8,299,276.5,299.1,276.3z M282.4,223.3c0.3,0.8,0.7,1.6,1,2.4c0.1,0.4-0.1,0.8-0.1,1.2c-0.3-0.3-0.7-0.6-0.8-1
		C282.3,225.1,282.4,224.2,282.4,223.3z M279.3,214.3c0.2,0.2,0.4,0.4,0.5,0.6c0.8,2.7,1.7,5.4,2.5,8c-1-2.6-2.1-5.3-3.1-7.9
		C279.1,214.9,279.2,214.6,279.3,214.3z M281,229.1c1.2,4.9,3,9.4,5.1,13.8c1.8,3.6,2.6,7.8,3.8,11.8c0.2,0.6-0.2,1.4-0.3,2.1l0,0
		c2.7,5.1,4.3,10.6,5.7,16.3c1.1,4.6,2.5,9.2,4.2,13.6c3.1,7.6,4.9,15.8,7.8,23.5c1.2,3.1,2,6.1,1.9,9.5c0,0.8-0.6,1.6-0.9,2.3
		c-0.5-0.6-1.2-1-1.4-1.7c-1.4-4.3-2.7-8.7-4.1-13c-2.6-8.5-5.1-17.1-7.7-25.6c-1-3.5-2-7.1-3-10.7l0,0c-1.6-4.6-3.2-9.1-4.8-13.7
		l0,0c-1.4-4.5-2.8-9-4.2-13.6c-2.2-7.2-4.3-14.5-6.4-21.8C279.5,223.5,280.4,226.3,281,229.1z M260.4,304.5
		c6.2-0.2,12.4-0.5,18.6-0.8c1.7-0.1,3.3-0.2,5-0.6c2.2-0.4,3-1.7,2.8-4.3c-0.5-4.8-1.8-9.3-5.3-12.3c-0.8-0.7-2.1-0.9-3.1-0.7
		c-2.9,0.7-5.8,0.9-8.8,0.4c-3.9-0.7-8-1.6-11.9,0.1l-0.1,0.1c-0.6-0.2-1.7-0.3-1.8-0.7c-1.6-5.4-0.7-7.8,3.4-11.2
		c3.7-3.1,7.2-6.6,10.7-10c2.1-2,4.2-4,6.2-6.1c2.3-2.3,6.8-1.1,7.9,2.1c1.1,3.1,2.2,6.3,3.2,9.5c1.5,4.6,2.8,9.3,4.3,13.9
		c2.2,6.9,4.6,13.8,6.8,20.7c1.2,3.8,2.4,7.7,3.5,11.5c0.2,0,0.4,0,0.5,0c0.7,1.8,1.7,3.4,2.1,5.3c0.3,1.6,0.1,3.4-0.1,5.1
		c-0.3,2.2-1,4.3-1.2,6.6c-0.2,2-1,3.2-2.8,2.6c-3.4-1.2-6.9-2.3-10.1-4c-7.9-4.1-15.6-8.3-23.4-12.7c-1.8-1-3.1-3.1-4.9-3.9
		c-3.4-1.7-2.5-5.2-3.2-8.1C258.4,305.3,258.9,304.5,260.4,304.5z M258.7,301.2c0.5-0.3,0.9-0.9,1.4-1c5.1-0.7,10.2-1.9,15.4-0.8
		c1.9,0.4,3.8,0.2,5.8,0.3c0.6,0,1.1,0.4,1.6,0.7c-0.6,0.3-1.1,0.8-1.7,0.9c-2,0.3-4,0.4-5.2,0.6c-5.8,0-10.8,0-15.8,0
		C259.8,301.9,259.2,301.4,258.7,301.2z M263.9,291.3c-0.7,0.2-1.4,0.5-2,0.7c-0.2,0.1-0.3,0-1.1,0c-0.2,0-0.9-0.2-1.6-0.4
		c0.8-0.2,1.5-0.5,2.3-0.7c0.2,0,0.3,0,0.5,0C262.7,291,263.3,291.2,263.9,291.3z M256.7,289c-0.2,0.4-0.5,0.8-0.7,1.2
		c0.1-0.5,0.2-0.9,0.3-1.4C256.4,288.9,256.5,288.9,256.7,289z M256.3,271.4c0.3-0.8,0.9-1.6,1.5-2.1c3.9-3,7.7-6,11.6-9
		c0.3-0.3,0.8-0.3,1.2-0.5c-0.2,0.5-0.2,1.2-0.5,1.5c-3.5,3.4-7,6.8-10.5,10.2c-0.6,0.5-1.1,1-1.7,1.4c-0.5,0.3-1.1,0.5-1.6,0.7
		C256.3,273,256.1,272.1,256.3,271.4z M272.2,255.9c0.4-0.1,0.8-0.2,1.2-0.3c-0.3,0.2-0.7,0.5-1,0.7
		C272.3,256.1,272.2,256,272.2,255.9z M281,248.6c-0.4-0.8-0.8-1.7-1.2-2.5c0-0.1,0.3-0.4,0.4-0.6c0.4,0.8,0.8,1.5,1.2,2.3
		C281.2,248.2,281.1,248.4,281,248.6z M282,251.6c0,0.3-0.2,0.6-0.4,0.8c-0.2-0.2-0.4-0.4-0.5-0.6c0-0.2,0.1-0.5,0.3-0.8
		C281.6,251.3,282,251.5,282,251.6z M279.8,240.7c-4.4-9.6-7.1-19.9-10-30.2c-2.3-8.3-5.2-16.4-7.7-24.6c-0.4-1.1-0.5-2.3-0.7-3.5
		c1.3,3.3,2.8,6.6,3.9,10c3.4,10.7,6.8,21.4,10.1,32.1c1.7,5.3,3.4,10.6,5.1,15.9c0.1,0.4,0.1,1,0.1,1.5
		C280.2,241.5,279.9,241.1,279.8,240.7z M281.6,254.8c0.2,0.1,0.4,0.3,0.8,0.6c-0.4,0.1-0.6,0.3-0.8,0.3c-1.4-0.3-2.7-0.6-4.1-1
		c-0.2-0.1-0.3-0.4-0.5-0.6c0.2-0.1,0.5-0.3,0.7-0.3C279,254.1,280.3,254.4,281.6,254.8z M288.2,266.2c0.3,0.5,0.7,1,1,1.4
		c-0.1,0.5-0.2,0.8-0.3,1c-0.3-0.5-0.6-1.1-0.8-1.6C288,266.8,288.2,266.5,288.2,266.2z M269.5,185.4c0.3,0.4,0.6,0.7,0.8,1.1
		c1.6,5.2,3.1,10.4,4.6,15.7c0.1,0.2,0.1,0.4,0.2,0.7c-0.1-0.2-0.1-0.4-0.2-0.6c-1.9-5-3.8-10.1-5.6-15.2
		C269.2,186.6,269.5,185.9,269.5,185.4z M264.4,170.8c0.1,0.2,0.3,0.5,0.4,0.7c1.2,2.8,2.4,5.6,3.5,8.5c0.1,0.3-0.1,0.9-0.2,1.3
		c-0.2-0.3-0.5-0.6-0.6-0.9c-1.1-2.9-2.3-5.7-3.4-8.6c-0.1-0.3-0.1-0.6-0.2-0.9C264,170.9,264.2,170.8,264.4,170.8z M258.8,174.6
		c-0.4-0.4-1.1-1.4-1-1.5c0.7-1.1,1.6-2.1,2.5-3c0.1-0.1,1.2,0.8,1.4,1.4c1.8,4.5,3.6,8.9,5.2,13.5c3,8.5,5.9,17.2,8.8,25.7
		c0.5,1.4,0.9,2.9,1.3,4.4c-0.1,0.3-0.2,0.5-0.4,0.7c-0.2-0.2-0.5-0.3-0.6-0.5c-1.6-3-3.5-5.7-4.7-8.9c-2.3-6.4-3.9-13.2-6.2-19.6
		C263.7,182.3,262.3,177.6,258.8,174.6z M257.1,203.7c0.1,0,0.3,0,0.4,0c0.2-5.1,0.4-10.3,0.6-15.4c0-0.9,0.1-1.9,0.3-2.8
		c0.1-0.4,0.4-1,0.5-1c0.4,0.1,0.9,0.3,1,0.7c0.8,1.9,1.5,3.7,2.1,5.7c2.1,7.1,4.2,14.2,6.2,21.3c1.1,3.7,2.2,7.3,3.3,11
		c1.9,6.2,3.9,12.3,5.8,18.6c1.4,4.5,1.3,5.7-2,8.5c-3.9,3.4-8.2,6.2-12.4,9.3c-1.3,1-2.5,2.1-3.8,3.1c-1.9,1.5-2.7,1.2-2.7-1.5
		c0-8.2,0.2-16.5,0.3-24.7c0-0.9,0.2-1.8,0.2-2.8C257.1,223.7,257.1,213.7,257.1,203.7z M255.9,183.1c0.1-0.4,0.6-0.8,0.9-1.2
		c0.1,0.5,0.2,0.9,0.2,1c-0.2,1.4-0.4,2.4-0.6,3.4c-0.1,0.6-0.2,1.3-0.3,1.9c-0.1-0.7-0.3-1.4-0.4-2.1
		C255.7,185.2,255.7,184.1,255.9,183.1z M255.9,197.2c-0.2,5.4-0.3,10.7-0.5,16.1c0,0.4-0.2,0.7-0.3,1.1c-0.1-0.3-0.2-0.6-0.2-0.9
		C255.3,208.1,255.6,202.6,255.9,197.2z M255,217.6c0.1,0.7,0.3,1.5,0.4,2.1c-0.1,0.8-0.2,1.5-0.3,2.1c-0.2-1.1-0.4-2.2-0.5-3.2
		C254.6,218.2,254.9,217.9,255,217.6z M254.5,230c0.2-1.4,0.5-2.7,0.7-4v4.3c-0.1,3.1-0.2,6.5-0.4,9.9c0,0.6-0.3,1.1-0.5,1.7
		c-0.2-0.5-0.5-1-0.5-1.5c0-1.9,0-3.9,0.1-5.8C254.1,233.1,254.3,231.6,254.5,230z M249.7,182.6c0.1-1.5,0.6-2.6,2.2-2.3
		c1.4,0.3,2.1,1,2,2.9c-0.3,8.2-0.5,16.4-0.7,24.7c-0.2,6.6-0.3,13.2-0.6,19.8c-0.1,2.2-0.5,4.5-0.8,6.7c0,0.2-0.3,0.4-0.4,0.6
		c-0.1-0.3-0.2-0.6-0.2-0.9c-0.2-2.8-0.4-5.5-0.6-8.3c0.1,0,0.2,0,0.3,0c-0.5-12.4-1.1-24.9-1.5-37.3
		C249.4,186.5,249.6,184.5,249.7,182.6z M248.9,238.9c0.1,0.4,0.4,0.7,0.4,1.1c0,6.5,1.6,12.8,0.8,19.3c0,0.3-0.1,0.6-0.2,0.9
		c-0.1-0.3-0.2-0.5-0.3-0.8c-0.1-1.2-0.2-2.5-0.2-3.7c0.1,0,0.1,0,0.2,0c-0.3-5.1-0.6-10.3-0.8-15.4
		C248.7,239.8,248.9,239.4,248.9,238.9z M247.9,286.5c0.1,1.2,0,2.5,0,3.7c0.1,0,0.1,0,0.2,0c-0.1,1.2-0.2,2.3-0.3,3.5
		c-0.2-1.2-0.5-2.3-0.7-3.5c-0.2-1.2-0.3-2.4-0.3-3.7c0-0.4,0.4-0.7,0.7-1.1C247.6,285.9,247.9,286.2,247.9,286.5z M244.6,263
		c2-0.8,1.3-2.4,0.8-3.8c-1.4-4.3,0.2-8.5,0-12.8c0-0.1,0.1-0.3,0.2-0.5c0.1,0.4,0.3,0.7,0.3,1.1c0.5,4,0.9,7.9,1.4,11.9
		c-0.2,0-0.3,0-0.5,0.1c0.2,6.9,0.4,13.8,0.6,20.7c0,0.7-0.3,1.5-0.5,2.2c-0.3-0.7-0.8-1.3-0.9-2c-0.7-5.1-1.3-10.2-1.9-15.3
		C244.1,264.1,244.3,263.1,244.6,263z M186.9,169.7c-1.4-0.7-1.3-1.7-0.6-2.9l0,0c0.3-0.4,0.8-1.1,0.9-1.1c0.8,0.4,1.9,0.8,2.1,1.6
		c0.3,1.4,0.1,2.9,0.1,4.4l0,0C188.6,171.1,187.8,170.2,186.9,169.7z M186.3,211.4c0,0.6-0.2,1.1-0.3,1.6c0-0.6-0.1-1.2-0.1-1.8
		c0-7.5,0-15,0-22.5c-0.1,0-0.3,0-0.4,0c0.1-2.8,0.2-5.5,0.4-8.3c0-0.6,0.1-1.3,0.4-1.7c0.8-1.1,1.8-2,2.7-2.9c0,1.3,0,2.5-0.1,3.8
		c-0.3,4-0.7,8-1,12c-0.3,4-0.7,8-1,12C186.6,206.1,186.5,208.8,186.3,211.4z M186.5,247.8c0.4-5,0.9-10,1.4-15
		c-0.2,5-0.3,10.1-0.6,15.1c0,0.4-0.4,0.7-0.6,1.1C186.7,248.5,186.5,248.2,186.5,247.8z M187.8,263.9c1.3-12.9,2-25.9,2.9-38.8
		c1-13.2,1.9-26.5,3-39.7c0.4-5.5,1.1-11,1.6-16.6c0.2-2.1,0.8-2.8,2.6-2.6c3.1,0.4,6.3,0.3,9.4,0.6c1.1,0.1,2.9,0.5,3.2,1.3
		c0.5,1.7,0.8,3.9-0.7,5.5c-1.1,1.2-2.4,2.3-3.1,3.8c-1.4,2.8-2.6,5.8-3.5,8.9c-2.3,7.5-2.7,15.3-2.6,23.1
		c0.2,8.6,0.5,17.1,0.3,25.7c-0.1,4.3-1,8.5-1.6,12.8c-0.4,2.8-1,5.7-1.5,8.5c-0.1,0.7-0.5,1.4-0.7,2.1c0-0.7,0-1.4,0-2.1
		c0.2-9.1,0.6-18.1,0.6-27.2c0.1-10.4-0.1-20.8-0.3-31.2c0-1.9-0.6-3.8-0.9-5.7c-0.3,1.9-0.7,3.7-0.7,5.6c-0.1,3.4,0,6.8,0,10.2
		c0.2,0,0.4,0,0.6,0c0,12.6,0.2,25.1-0.1,37.7c-0.2,7-1,14-2.1,20.9c-1.4,8.8-3.3,17.5-5,26.2c-0.1,0.5-0.4,0.9-0.6,1.3
		c-0.2-0.5-0.5-1-0.5-1.5C187.3,283,186.8,273.5,187.8,263.9z M194.7,307.3c0.2-0.3,0.6-0.5,0.7-0.8c0.3-0.7,0.6-1.5,0.7-2.3
		c2.7-12.8,5.4-25.6,8.1-38.4c0.1-0.6,0.3-1.2,0.5-1.8c0.1-0.3,0.3-0.5,0.5-0.7c0.2,0.3,0.4,0.6,0.4,1c0.1,1.2,0,2.5,0,3.7
		c0,0,0.1,0,0.1,0c0,5.3-0.9,11,0.3,16c1,4.2-0.3,7.7-0.5,11.4c-0.1,4-0.9,7.9-1.5,11.9c-0.4,2.6-1.6,3-4.8,2.4
		c-1.2-0.2-2.8-0.9-3.5-0.3c-0.7,0.6-0.4,2.7-0.5,4.1c0,1.1-0.1,1.9-1.3,1.4c-2.1-1-2.4,1-2.2,2.4c0.6,3.8-1.2,6.8-2.3,10
		c-0.2,0.6-0.8,1-1.2,1.4c-0.1-0.6-0.3-1.1-0.3-1.7c0.1-7.2,0-14.5,0.6-21.7c0.4-4.6,1.8-9.2,2.7-13.8c1.5-7.8,3-15.7,4.5-23.6
		c0.5-2.9,3-4.5,5.2-2.9c0.6,0.4,1,2,0.8,2.8c-2.1,10.3-4.3,20.6-6.4,30.9c-0.5,2.3-0.7,4.7-1,7
		C194.4,306.4,194.6,306.9,194.7,307.3z M187.8,358.4c-0.1-0.2-0.3-0.5-0.3-0.7c0-0.6,0.1-1.2,0.2-1.8c-0.1-2.7-0.3-5.4-0.3-8
		c0-0.8,0.7-2.3,0.9-2.3c1.2,0.3,3.1,0.6,2.8,2.5c-0.7,3.4-1.9,6.6-3,9.8C188.1,358.2,188,358.3,187.8,358.4z M207.1,403.1
		c-0.6-1.1-1.5-2-1.8-3.2c-1.6-7-3.1-14.1-4.7-21.2c-0.7-3.1-1.5-6.1-2.4-9.1c-0.2-0.6-1-1-1.6-1.4c-2.2-1.2-4.3-2.3-6.5-3.3
		c-1.3-0.6-1.8-1.6-1.3-3.2c0.9-2.9,1.8-5.8,2.7-8.7c0.3-0.9,0.6-0.9,1.5-0.6c1.8,0.6,3.8,0.6,5.7,0.7c0.2,0,0.8-0.9,0.7-1.2
		c-1.3-4.9,0.8-9.6,1-14.4c0-0.3,0.2-0.6,0.2-0.9c-0.1-0.8-0.2-1.6-0.3-2.5c-0.5,0.5-1.1,1-1.4,1.6c-1.3,2.6-2.6,5.1-3.8,7.8
		c-0.9,2-1.5,2.7-3.6,1.3c-3.9-2.8-4.4-3.7-2.6-8.9c0.5-1.4,0.7-2.9,1.1-4.3l0,0c0.5-1.4,0.9-2.9,1.4-4.3c0.8-2.8,1.6-5.6,2.4-8.4
		c0.1-0.4,0.2-1.1,0.3-1.1c2.3-0.3,2.4-2.9,3.5-4.5c0.8-1.1,3.1-1.4,4.6-1.1c1.7,0.4,0.7,2.4,0.6,3.7c-0.3,3.3-0.8,6.5-1.1,9.8
		c-0.1,0.7,0.2,1.5,0.3,2.3c0.3-0.7,0.8-1.3,0.9-2c1-5.6,2-11.3,3-16.9c0.1-0.4,0.2-0.8,0.4-1.2c0,0.4,0.1,0.8,0.1,1.2
		c0.1,3,0.3,6,0.3,9c0,1.1-0.5,2.2-0.9,3.1c-1.3,3.1-2.1,6.1-2.2,9.7c0,3.9-0.8,7.8-1.3,11.6c-0.3,2.8-0.7,5.5-1,8.3
		c-0.3,2.1,0.4,2.7,2.1,2.2c0.5-0.1,1-0.2,1.5-0.4c2.4-1,2.8-0.8,2.9,2.1c0.1,4.7,0.1,9.5,0.1,14.2c0,1.2-0.1,2.1-1.5,1.2
		c-1-0.7-2.1-1.1-3.2-1.5c-0.5-0.2-1.3-0.3-1.5,0c-0.5,0.5-1.1,1.5-1,2.2c0.3,2.5,1.1,4.9,1.3,7.4c0.5,6.6,2.6,12.6,5.1,18.4
		c0.2,0.6,0.7,1.1,0.7,1.6C207.6,399.9,207.3,401.5,207.1,403.1z M195.1,348.5c0.6-1.4,1.3-2.8,1.9-4.2c0.1-0.1,0.4,0,0.6,0
		c-0.2,1.4-0.3,2.8-0.6,4.2c-0.1,0.5-0.7,0.7-1.2,1.3C195.5,349.2,195.1,348.7,195.1,348.5z M207.3,345.6c-0.1,1.1-1,2.4-1.8,2.9
		c-1.5,0.9-2.3,0-2-2c0.8-5.3,1.6-10.7,2.5-16c0.1-0.7,0.2-1.4,0.4-2.1c0.1-0.3,0.2-0.5,0.3-0.8c0.1,0.3,0.2,0.6,0.2,0.8
		c0.3,3.1,0.6,6.1,0.9,9.2l-0.3,0C207.4,340.3,207.6,343,207.3,345.6z M208.1,392.8c0,0.3-0.1,0.6-0.2,1c-0.1-0.2-0.3-0.5-0.4-0.8
		c-2-6-3.2-12.2-3.6-18.6c-0.1-1.9,0.8-2.2,2.2-2.2c1.7,0,2.5,0.8,2.1,3.6C208.1,381,208.2,386.9,208.1,392.8z M228.6,260.4
		c-6.3,0-12.6-0.7-18.9-0.6c-3.2,0.1-6.5,1.2-9.7,1.9c-0.5,0.1-1,0.2-1.4,0.1c-0.2-0.1-0.2-1-0.1-1.4c0.4-2,1-4,1.4-6
		c0.8-3.7,1.7-7.4,2.3-11.1c0.4-2.2,1.2-3,3.1-3.3c3.8-0.6,7.6-1.7,11.4-2.4c5.8-1.1,11.5-0.8,17.2,1.2c0.5,0.2,1.1-0.1,1.6-0.1
		c-0.4-0.4-0.6-1-1.1-1.2c-2.1-0.7-4.1-1.8-6.2-2c-7.4-0.5-14.9-1.4-22.1,2.2c-2.2,1.1-3.1,0.2-3.2-2.6c-0.2-5.9-0.2-11.7-0.3-17.6
		c0-2-0.3-3.9-0.2-5.9c0.4-7.2,0.5-14.5,1.7-21.5c0.7-4.3,2.7-8.5,5.7-11.5c2.1-2.1,3-4.7,3-7.9c0-3.4,0.7-4.2,3.6-4.2
		c4.6,0,9.3-0.1,13.9-0.1c0.7,0,1.4,0,2.1,0c4.1,0.2,4.4,0.6,4.5,5.4c0.2,4.5,0.6,9,0.7,13.6c0.1,3.2-0.1,6.4-0.3,9.6
		c0,0.2-0.5,0.6-0.7,0.6c-0.3,0-0.7-0.3-1-0.5c-0.1,0.8-0.6,1.7-0.4,2.3c1.6,4.2,1,8.7,1.3,13.1c0.4,5.9,0.4,12,1.3,17.8
		c1.1,7.2,2.9,14.2,4.4,21.3l0,0c0.2,2.3,0.2,4.7,0.8,6.8c0.6,2.3,0.1,3.4-1.8,3.5C237,260,232.8,260.4,228.6,260.4z M231.8,277.2
		c-0.2-4.2-0.4-8.4-0.4-12.6c0-0.6,0.4-1.2,0.6-1.8c0.3,0.5,0.6,0.9,0.8,1.4c1.1,3.7,2.2,7.4,3.4,11.2c-1.1,1-1.8,1.8-2.6,2.5
		c-0.4,0.4-0.9,0.7-1.3,1C232.1,278.5,231.8,277.9,231.8,277.2z M239.7,312c0.1-0.7,0.2-1.5,0.3-2.2c0.1,0.8,0.4,1.6,0.4,2.4
		c0,1.6-0.2,3.3-0.3,4.9c0,0.2-0.2,0.5-0.2,0.7c0-0.3-0.1-0.6-0.1-0.9c0-1,0-2.1,0-3.1h0C239.7,313.2,239.6,312.6,239.7,312z
		 M238.9,305c-0.6-0.1-1.1-1.2-1.7-2c0.5-1,0.8-1.5,1.1-2c0.9,0.9,1.8,1.8,2.7,2.6C240.3,304.2,239.5,305.1,238.9,305z M239,348.3
		c-0.2,1-0.4,1.8-0.5,2.6c-0.3-0.7-0.9-1.4-0.9-2.1c0-1,0.5-2,0.7-3.1C238.5,346.6,238.8,347.4,239,348.3z M237.3,321.6
		c0.1,1.9,0.1,3.9,0.2,5.9c0.2,3.8,0.3,7.6,0.5,11.4c-0.5-5.8-1.1-11.6-1.6-17.4c0-0.2,0.2-0.5,0.3-0.7
		C237,321.1,237.3,321.3,237.3,321.6z M236.4,317.7c-0.1-0.4-0.4-0.9-0.4-1.3c-0.3-4.1-0.6-8.1-0.9-11.7v-3.8
		c0.3,1.1,0.7,2.2,0.8,3.3c0.4,4.1,0.6,8.2,0.9,12.2C236.8,316.8,236.5,317.3,236.4,317.7z M234.3,289c0.2,1.3,0.4,2.7,0.6,4
		c0.2,1.4,0.4,2.8,0.6,4.2c0,0.3-0.2,0.7-0.3,1c-0.2-0.3-0.6-0.5-0.6-0.8c-0.1-1.5-0.1-3-0.2-4.6c0,0-0.1,0-0.1,0V289z M233.8,284.8
		c0-0.4-0.2-0.8-0.1-1.2c0.1-0.6,0.3-1.2,0.4-1.9c0,0.5,0.1,1,0.2,1.8C234.2,283.8,234,284.3,233.8,284.8z M233.7,342.3
		c-0.2-0.8-0.1-1.7-0.1-2.6c0-0.4,0.1-0.8,0.2-1.2l0,0c-0.4-0.7-1-1.3-1-2c-0.1-5.6,0-11.1-0.1-16.7c-0.1-5.9-0.2-11.7-0.3-17.6
		c0-0.3,0.1-0.5,0.2-0.8c0.1,0.2,0.3,0.4,0.4,0.7c0.1,0.4,0.2,0.8,0.2,1.2c0.7,10.6,1.5,21.3,2.2,31.9c0.1,1.5,0.4,3.1,0.4,4.6
		c0,0.8-0.3,1.8-0.7,2.5C235,342.7,233.8,342.5,233.7,342.3z M235.5,398.3c0.3,0.6,0.7,1.1,0.8,1.7c0.3,5,0.6,10,0.9,14.7
		c-0.2,7.2-0.3,14-0.6,20.8c0,0.4-0.4,1-0.6,1c-0.4,0.1-1-0.2-1.1-0.5c-0.3-0.8-0.5-1.8-0.5-2.7c-0.2-6.3-0.5-12.5-0.4-18.8
		c0.1-4.9,0.6-9.8,1-14.7C235,399.3,235.3,398.8,235.5,398.3z M241.3,369.3c0-1.6-1.4-2.4-2.8-1.5c-0.8,0.5-1.4,1.2-2.1,1.8
		c0.3,0.6,0.5,1.5,1,1.8c3.2,1.7,0,1.8-0.4,2.3c-0.7,0.8-1.2,0.4-1.2-0.8c-0.3-7.9-0.6-15.8-0.8-23.7c0-0.6,0.3-1.2,0.5-1.9
		c0.1,0.6,0.3,1.1,0.4,1.7c0.1,0.8,0.1,1.7,0.4,2.4c0.9,1.8,1.1,3.3,0.3,5.3c-0.3,0.8,0.3,2.5,0.9,3.2c0.5,0.6,2.1,0.7,2.6,0.2
		c0.7-0.6,1.1-2,1.1-3.1c0-3.4-0.3-6.8-0.4-10.2c0-0.6,0.2-1.6,0.6-1.9c0.3-0.2,1.2,0.1,1.6,0.5c1.8,1.9,3.6,3.5,3.2,7.2
		c-0.5,4-0.1,8.2,0,12.3c0,2.4-0.8,4.2-2.4,5.5C242.7,371,241.4,372.7,241.3,369.3z M245.2,376.2c-0.4,0.3-1.1,0.6-1.4,0.4
		c-0.3-0.2-0.3-1-0.6-1.8c0.4-0.7,0.7-1.5,1.2-2.2c0.8-1.1,1.6-2.1,2.5-3.1c0.1-0.1,0.5-0.1,0.5-0.1
		C247.8,370.7,246.3,375.5,245.2,376.2z M244.4,343.5L244.4,343.5c-0.6-0.6-1.6-1.2-1.8-2c-1-4.6-2.4-9.3-1.5-14.2
		c0.1-0.4,0-0.8,0-1.2c0-1,0-2.1,0-3.1c0.4,1,0.9,1.9,1.2,3c0.7,3.3,1.2,6.6,1.8,9.9c0.1,0.8,0.5,1.6,0.9,2.1
		c0.3,0.4,0.9,0.4,1.4,0.6c0.1-0.5,0.4-1.1,0.3-1.6c-0.9-4.9-1.9-9.7-2.6-14.7c-0.7-5-1.1-10.1-1.6-15.2c-0.1-1.6,0.7-1.7,1.7-1
		c0.9,0.7,1.7,1.4,2.6,2.1c1,0.8,1.2,1.7,1.1,3.3c-0.2,4.3,0.2,8.6,0.2,12.9c0,6.4,0,12.7,0,19.1c0,1,0.3,2,0.5,3
		C247.2,345.6,245.8,344.6,244.4,343.5z M254.9,308.8L254.9,308.8c0-4.3,0-8.6,0-12.9c0-0.4,0-0.9-0.2-1.2c-0.2-0.5-0.6-0.9-0.9-1.4
		c-0.3,0.5-0.9,1-0.9,1.6c-0.1,3.1,0,6.2-0.1,9.2c-0.1,1.8-0.4,3.5-0.7,5.3c-1.3-0.6-2.8-0.8-3.8-1.8c-3.4-3.2-6.6-6.6-9.9-10l0,0
		c0.2-2.5,0.7-5,0.5-7.5c-0.4-4.4-1.2-8.7-1.7-13.1c-0.5-3.9-0.9-7.8-1.2-11.6c-0.1-1.4-0.5-2.9,1.4-3.3c2.2-0.4,3.8,0.2,4.2,2.2
		c0.8,4.7,1.6,9.5,2.2,14.3c0.6,4.3,0.9,8.6,1.6,12.8c0.7,4,1.8,7.9,2.7,11.8c0.1,0.3,0.4,0.6,0.6,0.9c0.3-0.5,0.7-0.9,0.7-1.4
		c0.2-3.3,0.3-6.5,0.3-9.8c0-3.4-0.1-6.8-0.2-10.2c0-0.3,0.2-0.6,0.3-0.9c0.1,0.3,0.1,0.6,0.2,0.9c0.2,1.1,0.3,2.2,0.5,3.3
		c0.1,0.3,0.4,0.5,0.6,0.8c0.1-0.4,0.4-0.7,0.3-1.1c-0.1-1.1-0.3-2.3-0.3-3.4c0.1-7.8,0.4-15.6,1.9-23.3c0.6-3.2,0.2-6.7,0.3-10.1
		c0-1.3,0.4-2.6,0.5-3.9c0.1,1.2,0.4,2.4,0.4,3.7c-0.2,5.5-0.7,11.1-0.7,16.6c0,7.1-1.2,14.1,0.1,21.2c0.3,1.6,0.2,3.4,2.2,3.6
		c-0.6,3.3-0.1,4.1,2.5,4c7.2-0.2,14.4-0.4,21.5-0.7c0.6,0,1.2-0.6,1.8-0.9c-0.3-0.6-0.4-1.5-0.8-1.8c-1-0.7-2.1-1.2-3.2-1.8
		c-0.3-0.2-0.7-0.2-1.1-0.3c0.4-0.2,0.7-0.7,1.1-0.7c0.9,0,2-0.1,2.5,0.5c1.4,1.8,2.8,3.7,3.7,5.8c0.8,2.1,0.1,3.1-1.9,3.2
		c-2.6,0.1-5.3-0.3-7.9-0.3c-4.4,0-8.7,0.1-13.1,0.4c-1.7,0.1-3.3,1-4.2-1.6c-0.1-0.3-0.8-0.6-0.8-0.5c-0.3,0.5-0.7,1-0.7,1.5
		c0.2,2.5,0.5,5.1,0.9,7.6c0.2,1.4,0.8,2.8,1,4.2c0.1,1-0.3,2-0.5,3C255.6,311.2,254.3,310.8,254.9,308.8z M276.7,291.2
		c0.1-0.1,0.2-0.3,0.3-0.3c0.3,0,0.7,0,1.3,0c-0.3,0.2-0.4,0.4-0.5,0.4C277.4,291.3,277,291.3,276.7,291.2z M255,316.8
		c0-0.9,0.6-1.7,1-2.5c0.5,0.7,1.2,1.4,1.6,2.1c0.3,0.5,0.4,1.2,0.5,1.7l0,0c0.5,2.2,1.2,4.4,1.5,6.6c0.5,3.9,0.9,7.8,1.3,11.7
		c0.1,1.1-0.1,2.2-0.1,3.3c-0.5-1.9-1-3.7-1.6-5.5c-0.1-0.4-0.6-0.6-0.9-0.9c-0.2,0.5-0.4,1-0.4,1.5c0,1,0.1,1.9,0.2,2.9
		c-0.6-0.8-1.5-1.6-1.7-2.5c-0.6-2.5-1.1-5-1.3-7.5C254.8,324,254.9,320.4,255,316.8z M255.1,351.4c0.1-2.1,0.3-4.3,0.5-6.4
		c0-0.3,0.3-0.6,0.5-0.9c0.1,0.1,0.2,0.3,0.3,0.4c0.8,2.3,1.6,4.7,2.3,6.9c-0.7,1.7,0.2,4.4-2.1,4.2
		C254.4,355.4,255,353,255.1,351.4z M258.9,362c-0.2,2.3-0.5,4.6-0.9,6.9c-0.1,0.4-0.5,0.6-0.8,1c-0.2-0.3-0.5-0.6-0.6-0.9
		c-0.3-1.8-0.5-3.6-0.7-5.2c0-0.9-0.2-1.7,0-2.1c0.4-0.6,1.1-1.2,1.7-1.2C258.1,360.5,258.9,361.5,258.9,362z M255.7,383
		c-0.2-0.4-0.6-0.8-0.5-1.2c0.1-0.5,0.5-1,0.7-1.4c0.2,0.4,0.4,0.7,0.7,1.2C256.2,382.2,256,382.6,255.7,383z M260.1,381.4
		c-0.1,0.7-0.7,1.2-1,1.8c-0.3-0.8-0.7-1.5-0.8-2.3c-0.1-0.4,0.1-1,0.3-1.5c0.4-1.2,0.1-1.9-0.9-1.9c-1.6,0-2.1-1-2.1-2.7
		c0-1.7,0.9-2,2.1-2c1.9-0.1,2-1.9,2.3-3.5c0.1-0.3,0.4-0.6,0.6-0.8c0.1,0.3,0.2,0.6,0.2,0.9c0,1.6,0,3.3,0,4.9
		C260.5,376.7,260.4,379,260.1,381.4z M260.3,361.6c-0.1-0.3-0.4-0.7-0.3-1c0.1-1,0.4-1.9,0.6-2.8c0.2,0.5,0.4,1,0.7,1.7
		C261,360.2,260.6,360.9,260.3,361.6z M262.9,371.2c0.1,0.3,0.4,0.7,0.4,1c-0.3,2.2-0.6,4.3-1,6.5c0-2.2,0-4.4,0.1-6.6
		C262.4,371.8,262.7,371.5,262.9,371.2z M268.6,359.9c-2.2,0.9-4.1,0-5-2.6c-0.8-2.3-1.4-4.7-1.8-7.1c-0.5-3.4-0.8-6.9-1.1-10.4
		c1-0.2,1.2,0.2,1.4,1.5c0.6,4.5,1.3,9,2.2,13.5c0.8,4,1.7,4.6,5.2,3.6c0.8-0.2,1.5-0.4,2.3-0.6
		C270.7,358.5,269.8,359.4,268.6,359.9z M276.6,355.2c-0.2,0.1-0.5,0.1-0.7,0.2c0.1-0.3,0.2-0.7,0.4-0.8c1.9-1.2,3.9-2.3,5.8-3.5
		C280.3,352.5,278.5,353.8,276.6,355.2z M282.5,350.9c0.7-0.6,1.4-1.3,2.1-1.9l0.2,0.4C284,349.9,283.2,350.4,282.5,350.9z
		 M291.2,345c-1.2,0.9-2.4,1.8-3.7,2.7c0,0-0.2-0.2-0.2-0.3c1.1-0.8,2.2-1.6,3.3-2.3c0.2-0.1,0.5-0.2,0.7-0.3
		C291.3,344.9,291.2,345,291.2,345z M291.5,344.7c0.8-0.5,1.7-0.9,2.5-1.4c0,0.1,0.1,0.2,0.1,0.2
		C293.2,343.9,292.4,344.3,291.5,344.7z M295.7,339.3c-5,3.2-10,6.4-14.9,9.6c-3.7,2.4-7.4,4.8-11.1,7c-2.3,1.4-3.1,0.8-3.6-2.2
		c-1.5-9-2.9-18-4.3-27c-0.1-0.8-0.2-1.6-0.2-2.5c0.1-0.1,0.3-0.1,0.4-0.2c-0.3-1.1-0.7-2.2-1-3.3c-0.2-0.6-0.1-1.4-0.1-2.1
		c0.6,0,1.2-0.2,1.7,0c5.6,3.1,11.2,6.4,16.8,9.5c1.6,0.9,3.4,1.4,5.1,2.2c3.8,1.9,7.6,3.8,11.4,5.8c0.6,0.3,1,0.9,1.5,1.4
		C296.8,338.3,296.3,338.9,295.7,339.3z M297.2,351c-0.1-0.1-0.3-0.4-0.3-0.4c0.2-0.5,0.5-1,0.8-1.6c0.1,0.1,0.2,0.2,0.3,0.4
		C297.7,349.9,297.5,350.5,297.2,351z M305.9,337.9c-1.1,1.8-2.4,3.5-1.7,6.1c0.1,0.5-0.9,1.4-1.7,2.5c-1.5-1.2-2.6-2.1-3.7-3
		c-0.1-0.1-0.2-0.3-0.3-0.5c-1.2-1.2-1.3-1.5,0.4-2.7c1.9-1.4,4-2.7,6-4c0.3-0.2,0.9,0.1,1.4,0.2C306.2,337,306.2,337.6,305.9,337.9
		z M307.2,343.5c0.7-0.5,1.4-1,2-1.5c0.1,0.2,0.3,0.6,0.3,0.6c-0.5,0.6-1.1,1.2-1.7,1.8C307.5,343.9,307.3,343.7,307.2,343.5z
		 M308.4,338.5c0-0.3,0.3-0.5,0.5-0.8c0.2,0.3,0.3,0.6,0.5,1c-0.2,0.3-0.3,0.5-0.5,0.7C308.7,339,308.4,338.8,308.4,338.5z
		 M309.2,347.3c-0.1-0.1,0.2-1.5,0.5-1.8c0.8-0.7,1.7-2.3,2.8-0.4c0.9,1.5,1.7,3.1,2.5,4.7C312.5,351,311,348.5,309.2,347.3z
		 M319.1,351.6c-1.2-0.1-2.3-0.8-3.5-1.3l0,0c0.2-0.8,0.6-1.8,0.4-2.3c-1.4-2.3-1-5.4-2.9-7.5c-1-1-1.3-3.3-1.4-5
		c-0.3-3.2-0.5-3.5-3.3-3.2c-1,0.1-2.2,0.4-2.3-1.5c-0.1-1.3-0.5-2.3,1.4-2.4c0.8,0,1.4-1.9,2.2-2.7c3-2.8,3.1-6,1.6-9.8
		c-1.5-3.9-2.7-8-4.1-12.1c-0.2-0.5-0.5-1-0.5-1.4c0-0.6,0.3-1.2,0.4-1.8c0.4,0.4,0.9,0.7,1.1,1.1c1.5,4.2,2.9,8.4,4.3,12.6
		c2.8,8.4,5.6,16.9,8.4,25.3c0.3,1,1,1.9,1.6,2.8c0.7,0.9,2.6,1.6-0.1,2.4c-0.3,0.1-0.4,1.7-0.2,2.5
		C322.7,350.8,322,351.9,319.1,351.6z M321.1,354c0.9-0.7,1.8-1.4,2.8-2c0.1-0.1,0.5,0.3,0.7,0.5c-0.8,0.9-1.6,1.7-2.4,2.7
		C321.6,354.6,321.3,354.3,321.1,354z M332.8,384.9c-0.4-0.3-1.1-0.4-1.3-0.9c-0.6-1.1-1-2.4-1.4-3.6c-2.3-7-4.6-14-6.9-21
		c-0.2-0.5,0.1-1.2,0.2-1.9c0.6,0.1,1.3,0.1,1.9,0.4c0.3,0.2,0.4,0.9,0.6,1.3c2.4,7.4,4.8,14.8,7.1,22.2c0.2,0.6,0.3,1.2,0.5,2
		C333.3,383.9,333,384.4,332.8,384.9z"/>
	<path d="M248.6,347.2c0-0.2,0-0.4-0.1-0.5c0.1,0.2,0.1,0.5,0.2,0.7C248.7,347.3,248.7,347.3,248.6,347.2z"/>
	<path d="M276.5,221.2c0.1-0.1,0.2-0.1,0.3-0.2c0.1,0.3,0.2,0.7,0.3,1C276.9,221.7,276.7,221.5,276.5,221.2z"/>
	<path d="M262.1,379.3c0.1-0.1,0.1-0.3,0.2-0.4c-0.1,0.2-0.1,0.4-0.2,0.6C262.1,379.5,262,379.4,262.1,379.3z"/>
	<path d="M290,245.2c-0.1,0-0.1,0.1-0.2,0.1c-0.2-0.5-0.3-1-0.5-1.5C289.5,244.3,289.7,244.7,290,245.2z"/>
	<path d="M256.5,340.4L256.5,340.4L256.5,340.4z"/>
	<path d="M268.1,258.6c0.1-0.1,0.1-0.1,0.2-0.2C268.2,258.5,268.2,258.5,268.1,258.6L268.1,258.6z"/>
	<path d="M286.6,261.7c0,0.1,0.1,0.1,0.1,0.2C286.7,261.8,286.6,261.8,286.6,261.7c0-0.1-0.1-0.1-0.1-0.2
		C286.5,261.6,286.5,261.6,286.6,261.7z"/>
	<path d="M316.1,353.4c0.1,0,0.1,0.1,0.2,0.1C316.3,353.5,316.2,353.5,316.1,353.4c-0.1,0-0.1,0-0.2-0.1
		C316,353.4,316.1,353.4,316.1,353.4z"/>
	<path d="M285.5,233.8L285.5,233.8c0.1,0.2,0.1,0.5,0.2,0.7C285.7,234.3,285.6,234,285.5,233.8z"/>
	<path d="M295,261.7c0,0.2,0,0.4,0.1,0.5c0,0.1,0.1,0.1,0.1,0.2C295.1,262.2,295.1,261.9,295,261.7c-0.2-0.3-0.3-0.7-0.5-1
		C294.7,261,294.9,261.4,295,261.7z"/>
	<path d="M258.6,345.4c0-0.1-0.1-0.1-0.1-0.2C258.5,345.3,258.6,345.3,258.6,345.4c0.1,0.3,0.2,0.7,0.3,1.1
		C258.8,346.1,258.7,345.7,258.6,345.4z"/>
	<path d="M300.3,280.3L300.3,280.3c0.1,0.3,0.2,0.7,0.3,1.1c0.1-0.1,0.2-0.1,0.3-0.2C300.7,280.9,300.5,280.6,300.3,280.3z"/>
	<path d="M305.9,344.2c-0.1-0.1-0.2-0.3-0.3-0.4c-0.1,0.2-0.2,0.4-0.3,0.7c0,0,0.3,0.2,0.4,0.3C305.7,344.5,305.8,344.4,305.9,344.2
		z"/>
	<path d="M301.7,285.6c0.1-0.1,0.3-0.3,0.3-0.3c-0.1-0.3-0.2-0.5-0.3-0.8c-0.1,0.1-0.3,0.2-0.3,0.3
		C301.5,285.1,301.6,285.3,301.7,285.6z"/>
	<path d="M203,263.4c-0.1,0.1-0.2,0.1-0.4,0.2c0.1,0.2,0.1,0.4,0.2,0.5c0,0,0.2-0.1,0.3-0.2C203.2,263.7,203.1,263.6,203,263.4z"/>
	<path d="M296.4,266.1c-0.1-0.2-0.2-0.3-0.2-0.5c-0.1,0.1-0.2,0.2-0.2,0.4c0,0.1,0.1,0.2,0.1,0.2
		C296.2,266.2,296.3,266.1,296.4,266.1z"/>
	<path d="M290.7,248.5c0.1-0.1,0.3-0.2,0.3-0.3c0-0.2-0.1-0.3-0.2-0.5c-0.1,0.1-0.3,0.2-0.3,0.3
		C290.5,248.2,290.6,248.3,290.7,248.5z"/>
	<path d="M298,273.1c-0.1,0.2-0.1,0.3-0.2,0.5c0,0.1,0.1,0.2,0.1,0.3c0.1-0.1,0.3-0.2,0.3-0.3C298.2,273.4,298.1,273.3,298,273.1z"
		/>
	<path d="M186.1,220.4c0-0.2,0-0.3,0.1-0.5c0,0-0.1,0.1-0.1,0.1C186,220.2,186,220.3,186.1,220.4z"/>
	<path d="M232.6,297.4c-0.1,0.2-0.2,0.3-0.2,0.4c0.1,0,0.1,0,0.2,0C232.6,297.7,232.6,297.6,232.6,297.4z"/>
	<path d="M256.3,193.5c0-0.1-0.1-0.2-0.1-0.2c0,0.1-0.1,0.1-0.1,0.2c0,0.1,0,0.2,0.1,0.2C256.2,193.7,256.2,193.6,256.3,193.5z"/>
	<polygon points="239.2,354.1 239.1,354 239,354.1 	"/>
	<polygon points="326.5,348.9 326.6,349.1 326.7,348.9 	"/>
	<polygon points="290,271.4 290,271.2 289.9,271.3 	"/>
	<polygon points="237.8,294.1 237.7,294.3 237.8,294.3 	"/>
	<polygon points="248.4,235.4 248.3,235.2 248.2,235.4 	"/>
	<path fill="#FFFFFF" d="M241.6,432.7c-0.2-0.7-0.4-1.4-0.5-2.1c-0.3-2.2,0.6-4.6-1.3-6.3c-0.1-0.1,0.3-0.9,0.4-1.5
		c0.2-0.9,0.4-1.8,0.3-2.7c0-0.3-0.8-0.6-1.2-0.9c-0.2,0.8-0.7,1.6-0.7,2.4c-0.1,4.4-0.2,8.9-0.2,13.3c0,0.3,0.1,0.5,0.1,0.7
		C239.4,434.5,240.4,433.4,241.6,432.7z"/>
	<path fill="#FFFFFF" d="M255.2,143.4c-7.4,13.1-7.8-17-10.8-23.2c-0.6-1.2-1.1-2.3-1.7-3.4c-5-1.7-8.7-5.8-8.7-11.7c0,0,0,0,0,0
		c-0.9,0.2-1,0.9-0.9,2.9c0.3,4.4-1.7,7.5-5.3,8.1c-2.8,0.5-5.6,0.8-4.9,5.5c0,0.3-0.1,0.7-0.2,0.8c-0.3,0.2-0.9,0.4-1,0.2
		c-1-1-0.5-6.6,0.6-7.9c-2.3-0.2-4.6-0.4-6.8-0.6c0,2.3,0.1,4.7,0,7c-0.1,2.9-1.3,4-3.7,4.1c-3.4,0.1-6.8,0.1-10.3,0.3
		c-1.8,0.1-3.6,0.8-4.2,3.1c-1.2,4.6-2.5,9.3-3.1,14.1c-0.3,2.7-0.5,4.5-3.1,4.8c-0.5,0.1-1,0.8-1.3,1.4c-2.5,3.9-5.1,7.6-8.4,10.6
		c-0.3,0.2-0.5,0.6-0.7,0.9c-0.3,0.5-0.6,1-0.8,1.5c-0.2-0.8-0.6-1.7-0.4-2.3c0.2-0.8,0.9-1.4,1.5-2c2.5-2.8,5.3-5.2,6.5-9.4
		c0.3-1,1.5-2.1,2.5-2.3c1.9-0.4,2.5-1.6,2.9-3.7c0.7-4.1,1.5-8.3,2.6-12.3c1.5-5.1,3.6-6.6,8.1-6.5c1.8,0,3.7,0.1,5.5,0.2
		c4.7,0.2,5.3-0.6,4.7-5.8c0-0.1,0-0.2,0-0.3c-0.6-0.7-1.1-1.7-1.7-1.8c-1.2-0.3-2.4-0.1-3.7-0.1c-0.1,0-0.4,0.5-0.4,0.8
		c0,0.5,0.1,1.1,0.1,1.6c-0.5-0.2-1-0.4-1.3-0.7c-1.8-1.7-1.3-4.1-1.3-6.3c0-5.2,0-5.9-3.1-6.1c-1.3,6.5-7,12.3-15.3,10.3
		c-1.2-0.3-2.5-0.5-3.7-0.7c-11.1,23.5-30.1,60.9-27,68.5c11.5,28,2.4,105.5-0.7,113.2c-7.2,25.2,37.3,136.7,40.9,134.9
		c1-0.5,2.6-3.3,1-2.8c-3.6,1.2-0.5-16.4,5.6-16.5c0.4,0,0.7,0.1,1.1,0.2c0.1-0.3,0.2-0.6,0.2-0.9c0,0.3,0.1,0.7,0.2,1
		c1.5,0.7,2.7,2.5,2.6,4.4c-0.4,5.5,0.8,10.8-0.1,16.3c-0.3,2.1-1.8,3.2-3.3,3.4c0,0.3,0.1,0.6,0.1,0.8c0.1,0.1,0.5,0.5,1,1.2
		c0.3-0.2,0.7-0.3,1-0.4c0.2-0.1,0.3-0.1,0.5-0.1c0,0,0,0-0.1,0c0.7-0.3,1.4-0.5,2.1-0.8c0.5-0.3,1.5-0.8,1.5-1.1
		c-0.4-5.6,1.1-11.5-1.4-16.9c-0.3-0.7-0.4-1.6-0.4-2.4c0.1-4.6-0.9-8.8-3.1-12.5c0,0.9,0.1,1.8,0,2.7c0,0.4-0.4,0.8-0.6,1.2
		c-0.2-0.4-0.5-0.8-0.6-1.2c-0.6-2.8-1-5.7-1.7-8.4c-1.5-6.5-3.6-12.8-4.4-19.4c-0.7-5.8-2.2-9.5-7.3-11.3c-2.2-0.8-3.9-1.6-6.1-0.3
		c-0.9,0.5-2.2,0.4-3.2,0.2c-1.1-0.2-2.2-1-3.3-1.3c-2.6-0.8-5.6-0.7-6-5.1c-0.2,0.1-0.4,0.2-0.6,0.2c-0.3-0.1-0.8-0.3-0.8-0.4
		c0.1-0.7,0.2-1.4,0.4-2.1c0.9-4.1,2.1-8.1,2.7-12.2c0.7-5.1,2.9-8.9,6.4-11.5c1.6-1.2,2.4-2.7,2.5-4.7c0.1-2.1,0.1-4.2-0.2-6.2
		c-0.1-0.8-1.2-1.8-1.8-1.9c-2.2-0.3-4.4,0-6.5-0.2c-2.2-0.2-4.4-0.3-6.5-1c-0.9-0.3-1.8-1.8-2.2-3c-1.1-3.2-0.1-6.2,1.2-9.1
		c0.8-1.7,1.7-2.5,3.3-2.5c2.7,0,5.4,0,8.2,0c2.7,0,3.4-0.5,3.6-3.6c0.2-3.1,0-6.1,0-9.2c0-7.5,0-15.1,0-22.6
		c-0.1-6.2-0.3-12.4-0.4-18.6c-0.2-7.6-0.3-15.2-0.5-22.8c-0.2-6.4-0.5-12.8-0.6-19.2c-0.1-4.5,0-9,0-13.6c0-4.6-0.1-9.3,0.2-13.9
		c0.2-3.3,0.4-2.9-2.2-4.5c-1.5-0.9-2.8-3-3.6-4.9c-0.3-0.8,0.6-3.2,1.4-3.8c2.2-1.4,2.4-3.6,2.5-6c0-0.9-0.1-1.9-0.1-2.8
		c0-0.3,0.2-0.5,0.3-0.8c0.1,0.1,0.3,0.2,0.3,0.3c0,2,2.1,3.6,0.7,5.8c-0.7,1-0.9,1.9,0.7,2c0.2,0,0.6,1.1,0.5,1.6
		c-0.1,0.4-0.7,0.9-1.1,0.9c-1.7,0-2.7,0.8-2.7,2.9c0.1,2.1,1.1,3.3,2.9,3.3c1.6,0,2.1,1.1,2.2,2.7c0.1,1,0.1,2.1,0,3.1
		c-0.1,10-0.3,20-0.2,30c0.1,7.8,0.6,15.7,0.7,23.5c0.3,19.4,0.3,38.8,0.7,58.2c0.2,10.5,0.7,21,1,31.5c0.1,3.6,0.3,7.2,0.2,10.8
		c-0.1,3.7-0.3,7.4-0.7,11.1c-0.4,3.4,1.1,6.9-0.5,10.2c-0.1,0.3,0,0.8,0,1.2c0,1.3-0.1,2.5,0.2,3.7c0.1,0.7,0.8,1.3,1.3,1.9
		c0.4-0.6,1.1-1.2,1.1-1.9c0.2-2.4,0-4.7,0.1-7.1c0.3-5.3,0.9-10.6,1-15.9c0.1-9.6-0.1-19.3-0.1-28.9c0-1-0.3-2-0.4-3
		c-0.2-1.6-0.4-3.2-0.4-4.9c0-5.1,0.3-10.3,0.1-15.4c-0.2-6.3-0.7-12.5-0.9-18.8c-0.2-7.4,0-14.9,0-22.3c-0.1-7.8-0.3-15.6-0.5-23.5
		c-0.1-4.6-0.4-9.3-0.5-13.9c-0.1-3.4,0.1-6.8,0-10.2c-0.1-5.4-0.5-10.9-0.5-16.3c0-1.8,0.7-3.8,1.4-5.5c0.6-1.4,2.6-2.8,2.3-3.7
		c-0.3-1.3-2.4-2-3-3.4c-0.7-1.6-0.8-3.6-0.8-5.5c0-0.3,1.7-0.8,2.7-1c1.2-0.2,2.5,0,3.7-0.2c1.6-0.2,2.3,0.6,2.2,2.5
		c-0.2,4.3-0.3,8.6-0.7,12.9c-0.6,7.4-1.5,14.7-1.9,22.1c-0.6,10.4-0.8,20.9-1.2,31.3c0.4-4.1,0.8-8.2,1.1-12.3
		c0.8-11,1.5-22.1,2.3-33.1c0.5-6.5,1.2-13.1,1.9-19.6c0.1-1.1,0.8-2.5,1.6-2.9c1.7-0.7,3.5-1.2,5.3-1.1c4.2,0.1,8.4,0.6,12.6,0.8
		c4.1,0.2,8.2,0.4,12.4,0.6c4.8,0.3,9.6,0.5,14.4,0.8c0.2,0,0.5,0.2,0.7,0.3c-0.2,0.3-0.3,0.7-0.6,0.8c-1.5,0.5-1.2,1.8-1,3
		c0.3,1.8,0.7,3.7,0.7,5.5c-0.1,7.2-0.2,14.4-0.5,21.7c-0.3,11.8-0.5,23.5,1.4,35.1c0.8,5.2,1.9,10.3,3,15.4
		c0.1,0.6,0.5,1.2,0.8,1.8c0.1-0.7,0.3-1.3,0.3-2c0-3,1.7-6,0.1-9.1c0-0.1,0-0.2,0-0.3c0.1-3.9,0.5-7.8,0.4-11.6
		c-0.1-6.4-0.3-12.8-0.7-19.2c-0.3-6.2-1.1-12.3-1.4-18.4c-0.3-6.7-0.3-13.4-0.4-20c0-2.2,2.2-3.8,4.1-2.9c0,0,0,0,0,0
		c-0.3,0.9-0.7,1.8-0.8,2.7c-0.2,3.5,0.3,7.1-0.4,10.4c-1.2,6.2-0.5,12.3-0.4,18.4c0,0.8,0.4,1.6,0.6,2.4c0.4,1.5,1,2.9,1.1,4.4
		c0.3,4.6,0.3,9.3,0.5,13.9c0.2,4.3,0.4,8.6,0.7,12.9c0,0.5,0.5,1,0.7,1.5c0.3-0.5,0.6-1,0.8-1.5c0.1-0.4,0.1-0.8,0.1-1.2
		c-0.1-3.8-0.2-7.6-0.4-11.4c-0.5-11.2-1-22.4-1.6-33.6c-0.1-2.6-0.5-5.3-0.4-7.8c0.2-2.8,0.5-5.9,2.9-7.6c0.8-0.5,1.9-0.5,2.8-0.7
		c-0.5,0.7-1,1.5-1.6,2.2c-0.1,0.2-0.3,0.3-0.4,0.4c-0.5,1.9-1.4,3.9-1.2,5.7c0,0.7,2.2,1.4,3.5,1.9c2.5,1.1,5.1,2.1,7.6,3.1l0,0
		c-0.2-3.8-2.7-5.2-5.1-6.8c-1.9-1.2-1.8-1.4-0.1-3c0.8-0.7,1.4-1.7,2-2.7c1.2-1.9,2.7-2.9,4.7-3c0.5-1.7,0.8-3.5,1.4-5.2
		c1-3,0.8-4.1-1.3-6.1c-3.2-3.1-6.9-4.4-11-4.4c-0.6,0-1.2-0.5-1.8-0.7c0.6-0.5,1.1-1.4,1.7-1.5c2.9-0.6,5.8,0.1,8.4,1.7
		c1.6,1,3.3,1.9,5,2.8c2,1.1,3.8,5.1,3.3,7.7c-0.2,1.2-0.7,2.1-1.6,0.5c-0.6-1.2-0.8-0.6-1.1,0.2c-0.9,2.3-0.3,4.3,0.5,6.5
		c3.3,9.3,6.6,18.6,9.8,28c3,9,5.8,18.1,8.8,27.1c2.2,6.5,4.7,12.9,6.8,19.4c2.2,6.8,4.2,13.8,6.2,20.7c2.3,7.9,4.4,15.9,6.9,23.7
		c1.7,5.4,3.9,10.6,5.9,15.8c0.2,0.1,0.4,0.1,0.5,0.2c-0.2,0.1-0.4,0.3-0.5,0.4c0.1,0.7,0.2,1.4,0.5,2.1c3.5,10.3,7,20.5,10.4,30.8
		c0.9,2.7,2.1,5.2,4.4,6.7c1,0.6,1.8,1.7,2.6,2.6c1.1,1.3,1.4,2.7,0.7,4.7c-1.3,3.7-2.6,7.4-0.7,11.5c1.1,2.4,1.8,5.1,2.6,7.7
		c0.6,2,1.1,4.1,1.8,6.2c1.1,3.5,2.5,7,3.6,10.6c0.5,1.8-0.2,2.5-1.8,2.2c-2.7-0.5-4.3-2.5-5.3-5.4c-2.7-7.6-5.5-15.2-8.1-22.9
		c-0.7-2-1.8-3-3.2-3.7c-5.3-2.7-10.7-5.2-16-7.9c-1.3-0.7-2-0.2-2.5,1.1c-0.3,0.7-0.5,1.3-0.7,2c-0.4,1.2-0.8,2.8-2.4,2
		c-1.4-0.7-1.6-2.1-1.1-3.6c0.4-1.1,1-2.2,1.4-3.3c0.2-0.5-0.1-1.1-0.1-1.7c-0.4,0.1-0.9,0.1-1.2,0.4c-6.1,4-12.2,8.1-18.2,12.2
		c-1.4,0.9-2.7,2-3.8,3.2c-1.5,1.8-3.2,2.5-5.3,2.1c-1.5-0.3-2.9-0.7-4.4-1c-0.3-0.1-0.8,0.1-0.9,0.4c-0.8,1.8-0.1,4.3,1.3,5.8
		c0.7,0.8,1.5,2.2,1.4,3.2c-0.4,4.2-0.8,8.4-2.9,12.1c-1.1,1.9-1.3,3.8-0.4,6.1c0.5,1.4,0.5,3.3,0.1,4.7c-0.6,2-1.9,3.7-2.7,5.6
		c-0.5,1.2-1.1,2.6-1,3.8c0.3,2.7-0.5,4.6-2.2,6.3c-1,1-1.9,1.9-3.3,1c-1.4-0.8-2.3-2-2.1-3.9c0.4-3.1,0.2-6-2.1-8.1
		c-0.3-0.3-0.2-1.3-0.3-1.9c0.6,0.1,1.3,0.1,1.8,0.5c2.3,1.5,2.2,4.3,2.3,6.8c0.1,1.7-0.4,4.2,1.6,4.1c2.1,0,1.8-2.7,1.7-4.4
		c-0.1-2.6,0.4-4.5,2.4-6c2.4-1.8,3.1-6.8,1.5-9.5c-0.6-1-1.6-2.1-2.6-2.4c-1.7-0.5-2.8,0.6-3.3,2.6c-0.6,2.6-2.3,4.1-4.2,5.2
		c-0.4,0.2-0.9-0.2-1.4-0.2c0.1-0.5,0.2-1.1,0.5-1.6c0.2-0.4,0.7-0.7,1.1-0.9c3.4-1.9,3.2-5.6,3.2-9c-0.1-4.3-0.7-8.6-0.6-12.8
		c0.1-8.3,0.6-16.7,0.8-25c0.1-4.7,0.1-9.5,0-14.2c-0.1-5.2-0.2-10.5-0.6-15.7c-0.1-0.8-1.3-1.6-2-2.3c-0.3,0.8-0.8,1.6-1,2.5
		c-0.2,0.9,0,1.9,0,2.8c0.2,5.3,0.4,10.7,0.5,16c0,2.8-0.4,5.6-0.3,8.3c0.3,8.8,0.7,17.7,1,26.5c0,0.7-0.4,2-0.7,2.1
		c-1.6,0.3-1.7,1.8-1.7,3c-0.1,4.3-2.3,6-5.4,7.2c-1.5,0.5-2.3-0.1-2.6-1.6c-0.2-1,0-2-0.1-3c-0.1-0.4-0.5-1.1-0.8-1.1
		c-1.5-0.1-4.6,2.8-4.5,4.5c0,2.8,0.3,5.6,0.5,8.3c0,0.2,0.4,0.7,0.5,0.6c2.4-1.4,1.8,1.4,1.9,2.2c0.4,3.8,0.4,7.7,0.7,11.6
		c0.1,1.1,0.6,3.1,0.8,3.1c1.7-0.2,1.1-1.9,1.3-3.1c0-0.2,0-0.4,0-0.6c-0.1-3.6-0.1-7,3.4-8.8c1-0.5,1.6-2,2.9-0.9
		c-0.6,0.9-1,2.2-1.8,2.7c-1.7,1-2.4,2.4-2.4,4.7c0.1,3.4,0,6.8,0,10.2c0,7.3,0.1,14.6,0,21.9c0,0,0,0.1,0,0.1
		c0.7-0.9,52.9,0.9,57.1,1.4c1.3-1.6,52.5-14.8,61.6-22.6C365.2,406.4,269.7,116.7,255.2,143.4z M224.6,123.8
		c4.2,0.1,8.4,0,12.5,0.7c2.7,0.5,4.4,3.3,5.4,6.4c1.3,3.8,2.7,7.5,4,11.4c0.6,1.8,0.9,3.7,1.4,5.6c-0.4,1.2-0.7,2.3-1,3.3
		c-0.3-1.1-0.7-2.1-1-3.2c-0.8-3-1.5-6.1-2.5-9.1c-0.7-2.2-1.7-4.3-2.5-6.5c-2.6-7-3-6.3-9-6.8c-2.2-0.2-4.5,0.8-6.7,0.8
		c-0.8,0-1.7-1.1-2.5-1.6C223.3,124.6,223.9,123.8,224.6,123.8z M224.3,128.8c3.8-0.8,7.7-1,11.5,0.3c3.8,1.3,5,5.5,6.5,9.2
		c0.3,0.8,0.5,1.8,0.6,2.7c0.2,1.5,0.3,3.1,0.4,4.6c-1.1,0.1-2.2,0.3-3.3,0.3c-2,0.1-4,0.3-6,0.3c-2,0-4-0.4-6.1-0.6
		c-1.2,0.1-2.4,0.1-3.6,0.2c-1.3,0.1-2.4-0.4-2.5-2.1c-0.2-3.8-0.3-7.6-0.3-11.4C221.4,130.2,222.6,129.1,224.3,128.8z M242.4,149.6
		c-0.5,0-1,0-1.5,0c-2.8-0.3-5.5-0.6-8.3-0.9c0,0.1,0,0.2,0,0.3c-1.9,0-3.9,0-5.8,0c-1.5,0-2.8,0.2-3.1,2.4
		c-0.1,0.5-0.6,0.9-0.9,1.3c-0.4-0.5-0.9-0.9-1.1-1.5c-0.5-2.1,0.9-3.9,3.2-4.1c1.9-0.2,3.8-0.1,5.8,0c2.9,0.1,5.8,0.2,8.6,0.3
		c0.7,0,1.4,0.2,2,0.6C241.9,148.3,242.1,149,242.4,149.6z M196.1,142.7c0.6-4.5,1-9.1,4-12.5c0.8-0.9,2-1.7,3.1-1.8
		c2.9-0.3,5.8-0.1,8.7-0.1c2.1,0,3.1,1.1,3,3.6c-0.1,1.5,0,3.1,0,4.6c0.1,0,0.2,0,0.3,0c-0.3,2.5-0.5,5.1-0.8,7.6
		c-0.2,1.7-1.2,2.3-2.6,2.4c-4,0.2-8,0.5-12.1,0.7C196.6,147.4,195.6,146.1,196.1,142.7z M192.6,149.7c1.8-0.8,3.7-1.4,5.6-1.5
		c4-0.2,8.1-0.1,12.1,0c0.7,0,1.3,0.6,2,0.9c-0.8,0.3-1.5,0.8-2.3,0.8c-3.9,0-7.8-0.1-11.8-0.1c-0.4,0-0.9,0.1-1.3,0.3
		c-0.6,0.2-1.1,0.5-1.6,0.7c0.6,0.2,1.2,0.5,1.9,0.6c1.5,0.1,3,0,4.5,0c0,0.1,0,0.1,0,0.2c2.1-0.1,4.2-0.3,6.3-0.4
		c0.4,0,0.9,0.3,1.3,0.5l-1.3,3c-0.4-0.2-0.7-0.4-1.1-0.6c-0.6-0.3-1.1-0.9-1.7-0.9c-3.9,0-7.9,0.2-11.8,0.2c-0.7,0-1.5-0.6-2.2-0.9
		C191.5,151.4,191.9,150,192.6,149.7z M246,159.3c-2.5,0.4-5.1,0.7-7.6,1c-1.3-0.2-2.7-0.2-3.9-0.5c-5.7-1.5-11.5-1-17.3-0.4
		c-2.9,0.3-5.8,0-8.7,0c-4.4,0-8.7,0-13.1,0c-1.4,0-2.8-0.1-4.2-0.3c-0.5-0.1-0.8-0.7-1.3-1.2c0.4-0.2,0.9-0.6,1.3-0.6
		c6.6,0,13.3,0.2,19.9,0.1c5.4,0,10.9-0.2,16.3-0.4c0.7,0,1.4-0.2,2.1,0c5.4,1.4,10.8,0.2,16.2,0.7c0.4,0,0.8,0.5,1.2,0.7
		C246.7,158.7,246.4,159.2,246,159.3z M247.9,167c-0.6-0.2-1-0.9-1.4-1.4c0.6,0.1,1.2,0,1.7,0.2c0.5,0.2,0.9,0.6,1.3,0.9
		C249,166.9,248.4,167.2,247.9,167z M250.1,154.6c3.1-3.1,9.4-1.5,11.1,2.8c0.1,0.3,0.2,0.6,0.4,1.2c-0.4,0.2-1.1,0.6-1.2,0.5
		c-3.2-4.3-6.7-4.8-10.7-1.5c-0.1,0.1-0.8-0.8-0.8-0.9C249.2,155.9,249.6,155.1,250.1,154.6z M302.1,396.8c-0.3,1.5-1.9,2.6-3.1,1.2
		c-3.8-4.5-7.5-9.3-11.3-13.8c-1.7-2,0.8-4.8,2.6-3.1c1.7,1.6,3.3,3.4,4.9,5.1c0.6-0.6,1.5-0.7,2.2,0.3c1.8,2.5,3.8,4.6,5.3,7.3
		C303.3,394.9,302.9,396.2,302.1,396.8z"/>
	<path fill="#FFFFFF" d="M371.3,410c0.4-1.2,0.9-2.5,1.5-3.6c0.4-0.6,0.7-1.3,1.1-1.9C365.3,414.3,367.5,419.9,371.3,410z"/>
	<path fill="#FFFFFF" d="M282.9,367.7L282.9,367.7c-0.1,0-0.1,0-0.2-0.1C282.7,367.6,282.8,367.7,282.9,367.7z"/>
	<path fill="#FFFFFF" d="M315.4,280.6c0.1-0.1,0.3-0.2,0.3-0.4c0-0.1-0.1-0.3-0.1-0.5c-0.1,0.1-0.3,0.2-0.3,0.3
		C315.2,280.2,315.3,280.4,315.4,280.6z"/>
	<path fill="#FFFFFF" d="M188.8,385.4c0.1,0.1,0.2,0.2,0.3,0.3c0.1-0.1,0.2-0.2,0.1-0.2c-0.1-0.1-0.2-0.2-0.3-0.3
		C188.9,385.3,188.9,385.3,188.8,385.4z"/>
	<polygon fill="#FFFFFF" points="355.7,379 355.8,378.8 355.6,378.8 	"/>
	<path fill="#FFFFFF" d="M248.8,381c0-0.1-0.1-0.1-0.1-0.2c-0.1,0.1-0.1,0.2-0.2,0.3c0.1,0,0.2,0.1,0.2,0.1
		C248.7,381.2,248.7,381.1,248.8,381z"/>
	<polygon fill="#FFFFFF" points="358.2,359.9 358,359.8 358,360 	"/>
	<polygon fill="#FFFFFF" points="348.2,351.4 348.2,351.6 348.3,351.4 	"/>
	<polygon fill="#FFFFFF" points="325.4,336.9 325.3,337.1 325.4,337.1 	"/>
	<polygon fill="#FFFFFF" points="126.3,391.7 126.1,391.8 126.3,391.9 	"/>
	<polygon fill="#FFFFFF" points="371.2,374.6 371,374.6 371.1,374.7 	"/>
	<polygon fill="#FFFFFF" points="360.1,373.7 360.3,373.6 360.2,373.5 	"/>
	<polygon fill="#FFFFFF" points="302.6,260.9 302.7,260.7 302.6,260.7 	"/>
	<path fill="#FFFFFF" d="M316.9,291c-0.1-0.1-0.2-0.1-0.3-0.1c0,0.1,0,0.1,0.1,0.2C316.8,291.1,316.8,291.1,316.9,291z"/>
	<polygon fill="#FFFFFF" points="178.2,218.8 178.4,218.9 178.3,218.7 	"/>
	<path fill="#FFFFFF" d="M209.6,333.4c0,2.8-0.2,5.5-0.2,8.3c0.1,9,0.3,17.9,0.5,26.9c0.2,8.6,0.4,17.3,0.7,25.9
		c0.1,3.6,0.6,7.2,0.7,10.8c0.2,4.2,0.2,8.4,0.3,12.6c0.1,4.8,0.4,9.7,0.1,14.4c-0.2,2.3-0.2,3.3,0.7,3.8c3.8-0.6,7.7-0.8,11.5-0.8
		c1.9-1.5,4.3-2.1,7.2-0.9c0.1,0.1,0.8,0.4,1.5,0.7c0.1-0.6,0.1-1.5,0.1-2.8c0.1-11.6,0.1-23.2,0.2-34.8c0-1.3-0.4-2.6-0.4-4
		c0-4.1,0.5-8.2,0.1-12.3c-0.8-8,0.4-16-0.5-24c-0.4-3.7,0.4-7.5-0.6-11.3c-0.2-0.6-0.1-1.2-0.1-1.8c-0.1-4.8-0.2-9.7-0.3-14.5
		c0-1.9-0.2-3.9-0.2-5.8c0-2.3,0.1-4.5,0.1-6.8c-0.1-9.4-0.1-18.7-0.2-28.1c0-1.1,0.3-2.3,0.1-3.3c-1.6-6.1-0.6-12.4-0.5-18.5
		c0.1-3.5-0.1-4.5-3.2-4.9c-2.2-0.2-4.4,0-6.6,0c0,0,0-0.1,0-0.1c-3.1,0.3-6.3,0.6-9.4,0.8c-1.2,0.1-2.1,0.5-2.1,2.1
		c-0.1,4-0.4,8-0.4,12c0.1,7.7,0.4,15.4,0.5,23.1C209.4,311.3,209.5,322.3,209.6,333.4z"/>
	<path fill="#FFFFFF" d="M242.2,249.3c0.2,2.3,0.2,4.7,0.8,6.8c0.6,2.3,0.1,3.4-1.8,3.5c-4.2,0.3-8.4,0.7-12.6,0.7
		c-6.3,0-12.6-0.7-18.9-0.6c-3.2,0.1-6.5,1.2-9.7,1.9c-0.5,0.1-1,0.2-1.4,0.1c-0.2-0.1-0.2-1-0.1-1.4c0.4-2,1-4,1.4-6
		c0.8-3.7,1.7-7.4,2.3-11.1c0.4-2.2,1.2-3,3.1-3.3c3.8-0.6,7.6-1.7,11.4-2.4c5.8-1.1,11.5-0.8,17.2,1.2c0.5,0.2,1.1-0.1,1.6-0.1
		c-0.4-0.4-0.6-1-1.1-1.2c-2.1-0.7-4.1-1.8-6.2-2c-7.4-0.5-14.9-1.4-22.1,2.2c-2.2,1.1-3.1,0.2-3.2-2.6c-0.2-5.9-0.2-11.7-0.3-17.6
		c0-2-0.3-3.9-0.2-5.9c0.4-7.2,0.5-14.5,1.7-21.5c0.7-4.3,2.7-8.5,5.7-11.5c2.1-2.1,3-4.7,3-7.9c0-3.4,0.7-4.2,3.6-4.2
		c4.6,0,9.3-0.1,13.9-0.1c0.7,0,1.4,0,2.1,0c4.1,0.2,4.4,0.6,4.5,5.4c0.2,4.5,0.6,9,0.7,13.6c0.1,3.2-0.1,6.4-0.3,9.6
		c0,0.2-0.5,0.6-0.7,0.6c-0.3,0-0.7-0.3-1-0.5c-0.1,0.8-0.6,1.7-0.4,2.3c1.6,4.2,1,8.7,1.3,13.1c0.4,5.9,0.4,12,1.3,17.8
		C238.9,235.2,240.7,242.2,242.2,249.3L242.2,249.3z M225.9,225.1L225.9,225.1L225.9,225.1z M233.3,258c0-0.1,0-0.2,0.1-0.2
		C233.3,257.8,233.3,257.9,233.3,258L233.3,258z M224.4,169.7c0.3,3.2,0.9,6,3.2,7.9c1,0.8,1.8,2.3,2.4,3.6c1.4,3,2.5,6.1,3.9,9.1
		c0.2,0.5,0.8,0.8,1.3,1.2c0.1-0.6,0.4-1.2,0.3-1.7c-1.5-4.1-2.8-8.5-4.8-12.3c-1.6-3.1-4.6-5.2-4.6-9.4c0-0.3-0.4-0.6-0.7-0.7
		c-0.1,0-0.4,0.3-0.5,0.6C224.6,168.6,224.5,169.3,224.4,169.7z"/>
	<path fill="#FFFFFF" d="M257.5,286.5c-0.6-0.2-1.7-0.3-1.8-0.7c-1.6-5.4-0.7-7.8,3.4-11.2c3.7-3.1,7.2-6.6,10.7-10
		c2.1-2,4.2-4,6.3-6.1c2.3-2.3,6.8-1.1,7.9,2.1c1.1,3.1,2.2,6.3,3.2,9.5c1.5,4.6,2.8,9.3,4.3,13.9c2.2,6.9,4.6,13.8,6.8,20.7
		c1.2,3.8,2.4,7.7,3.5,11.5l0,0c0,0.2,0,0.4,0,0.6c0,0.1,0,0.2-0.1,0.2c0-0.1,0-0.2,0.1-0.2c0.2-0.2,0.4-0.4,0.5-0.6l0,0
		c0.7,1.8,1.7,3.4,2.1,5.3c0.3,1.6,0.1,3.4-0.1,5.1c-0.3,2.2-1,4.3-1.2,6.6c-0.2,2-1,3.2-2.8,2.6c-3.4-1.2-6.9-2.3-10.1-4
		c-7.9-4.1-15.6-8.3-23.4-12.7c-1.8-1-3.1-3.1-4.9-3.9c-3.4-1.7-2.5-5.2-3.2-8.1c-0.4-1.7,0.1-2.5,1.6-2.5
		c6.2-0.2,12.4-0.5,18.6-0.8c1.7-0.1,3.3-0.2,5-0.6c2.2-0.4,3-1.7,2.8-4.3c-0.5-4.8-1.8-9.3-5.3-12.3c-0.8-0.7-2.1-0.9-3.1-0.7
		c-2.9,0.7-5.8,0.9-8.8,0.4c-3.9-0.7-8-1.6-11.9,0.1c-0.1-0.3-0.3-0.7-0.4-1c-0.1,0.1-0.2,0.1-0.2,0.1
		C257.2,285.9,257.3,286.2,257.5,286.5z"/>
	<path fill="#FFFFFF" d="M196.2,208c0,12.6,0.2,25.1-0.1,37.7c-0.2,7-1,14-2.1,20.9c-1.4,8.8-3.3,17.5-5,26.2
		c-0.1,0.5-0.4,0.9-0.6,1.3c-0.2-0.5-0.5-1-0.5-1.5c-0.7-9.5-1.1-19-0.2-28.6c1.3-12.9,2-25.9,2.9-38.8c1-13.2,1.9-26.5,3-39.7
		c0.4-5.5,1.1-11,1.6-16.6c0.2-2.1,0.8-2.8,2.6-2.6c3.1,0.4,6.3,0.3,9.4,0.6c1.1,0.1,2.9,0.5,3.2,1.3c0.5,1.7,0.8,3.9-0.7,5.5
		c-1.1,1.2-2.4,2.3-3.1,3.8c-1.4,2.8-2.6,5.8-3.5,8.9c-2.3,7.5-2.7,15.3-2.6,23.1c0.2,8.6,0.5,17.1,0.3,25.7
		c-0.1,4.3-1,8.5-1.6,12.8c-0.4,2.8-1,5.7-1.5,8.5c-0.1,0.7-0.5,1.4-0.7,2.1c0-0.7,0-1.4,0-2.1c0.2-9.1,0.6-18.1,0.6-27.2
		c0.1-10.4-0.1-20.8-0.3-31.2c0-1.9-0.6-3.8-0.9-5.7c-0.3,1.9-0.7,3.7-0.7,5.6c-0.1,3.4,0,6.8,0,10.2C195.8,208,196,208,196.2,208z"
		/>
	<path fill="#FFFFFF" d="M257.5,203.7c0.2-5.1,0.4-10.3,0.6-15.4c0-0.9,0.1-1.9,0.3-2.8c0.1-0.4,0.4-1,0.5-1c0.4,0.1,0.9,0.3,1,0.7
		c0.8,1.9,1.5,3.7,2.1,5.7c2.1,7.1,4.2,14.2,6.2,21.3c1.1,3.7,2.2,7.3,3.3,11c1.9,6.2,3.9,12.3,5.8,18.6c1.4,4.5,1.3,5.7-2,8.5
		c-3.9,3.4-8.2,6.2-12.4,9.3c-1.3,1-2.5,2.1-3.8,3.1c-1.9,1.5-2.7,1.2-2.7-1.5c0-8.2,0.2-16.5,0.3-24.7c0-0.9,0.2-1.8,0.2-2.8
		c0-10,0-20,0-30C257.2,203.7,257.4,203.7,257.5,203.7z"/>
	<path fill="#FFFFFF" d="M262.6,256.7c0.1,0,0.2,0,0.2-0.1c0-0.1,0-0.2,0-0.3c-0.1,0-0.2,0.1-0.4,0.1
		C262.6,256.5,262.6,256.6,262.6,256.7z"/>
	<path fill="#FFFFFF" d="M190,331.7c0.5-1.4,0.9-2.9,1.4-4.3c0.8-2.8,1.6-5.6,2.4-8.4c0.1-0.4,0.2-1.1,0.3-1.1
		c2.3-0.3,2.4-2.9,3.5-4.5c0.8-1.1,3.1-1.4,4.6-1.1c1.7,0.4,0.7,2.4,0.6,3.7c-0.3,3.3-0.8,6.5-1.1,9.8c-0.1,0.7,0.2,1.5,0.3,2.3
		c0.3-0.7,0.8-1.3,0.9-2c1-5.6,2-11.3,3-16.9c0.1-0.4,0.2-0.8,0.4-1.2c0,0.4,0.1,0.8,0.1,1.2c0.1,3,0.3,6,0.3,9
		c0,1.1-0.5,2.2-0.9,3.1c-1.3,3.1-2.1,6.1-2.2,9.7c0,3.9-0.8,7.8-1.3,11.6c-0.3,2.8-0.7,5.5-1,8.3c-0.3,2.1,0.4,2.7,2.1,2.2
		c0.5-0.1,1-0.2,1.5-0.4c2.4-1,2.8-0.8,2.9,2.1c0.1,4.7,0.1,9.5,0.1,14.2c0,1.2-0.1,2.1-1.5,1.2c-1-0.7-2.1-1.1-3.2-1.5
		c-0.5-0.2-1.3-0.3-1.5,0c-0.5,0.5-1.1,1.5-1,2.2c0.3,2.5,1.1,4.9,1.3,7.4c0.5,6.6,2.6,12.6,5.1,18.4c0.2,0.6,0.7,1.1,0.7,1.6
		c-0.1,1.6-0.4,3.2-0.6,4.8c-0.6-1.1-1.5-2-1.8-3.2c-1.6-7-3.1-14.1-4.7-21.2c-0.7-3.1-1.5-6.1-2.4-9.1c-0.2-0.6-1-1-1.6-1.4
		c-2.2-1.2-4.3-2.3-6.5-3.3c-1.3-0.6-1.8-1.6-1.3-3.2c0.9-2.9,1.8-5.8,2.7-8.7c0.3-0.9,0.6-0.9,1.5-0.6c1.8,0.6,3.8,0.6,5.7,0.7
		c0.2,0,0.8-0.9,0.7-1.2c-1.3-4.9,0.8-9.6,1-14.4c0-0.3,0.2-0.6,0.2-0.9c-0.1-0.8-0.2-1.6-0.3-2.5c-0.5,0.5-1.1,1-1.4,1.6
		c-1.3,2.6-2.6,5.1-3.8,7.8c-0.9,2-1.5,2.7-3.6,1.3c-3.9-2.8-4.4-3.7-2.6-8.9C189.4,334.7,189.6,333.2,190,331.7L190,331.7z"/>
	<path fill="#FFFFFF" d="M261.9,324.1c-0.3-1.1-0.7-2.2-1-3.3c-0.2-0.6-0.1-1.4-0.1-2.1c0.6,0,1.2-0.2,1.7,0
		c5.6,3.1,11.2,6.4,16.8,9.5c1.6,0.9,3.4,1.4,5.1,2.2c3.8,1.9,7.6,3.8,11.4,5.8c0.6,0.3,1,0.9,1.5,1.4c-0.5,0.5-1,1.1-1.6,1.5
		c-5,3.2-10,6.4-14.9,9.6c-3.7,2.4-7.4,4.8-11.1,7c-2.3,1.4-3.1,0.8-3.6-2.2c-1.5-9-2.9-18-4.3-27c-0.1-0.8-0.2-1.6-0.2-2.5
		C261.6,324.2,261.8,324.1,261.9,324.1z"/>
	<path fill="#FFFFFF" d="M205.8,268.1c0,5.3-0.9,11,0.3,16c1,4.2-0.3,7.7-0.5,11.4c-0.1,4-0.9,7.9-1.5,11.9c-0.4,2.6-1.6,3-4.8,2.4
		c-1.2-0.2-2.8-0.9-3.5-0.3c-0.7,0.6-0.4,2.7-0.5,4.1c0,1.1-0.1,1.9-1.3,1.4c-2.1-1-2.4,1-2.2,2.4c0.6,3.8-1.2,6.8-2.3,10
		c-0.2,0.6-0.8,1-1.2,1.4c-0.1-0.6-0.3-1.1-0.3-1.7c0.1-7.2,0-14.5,0.6-21.7c0.4-4.6,1.8-9.2,2.7-13.8c1.5-7.8,3-15.7,4.5-23.6
		c0.5-2.9,3-4.5,5.2-2.9c0.6,0.4,1,2,0.8,2.8c-2.1,10.3-4.3,20.6-6.4,30.9c-0.5,2.3-0.7,4.7-1,7c-0.1,0.4,0.2,0.9,0.3,1.3
		c0.2-0.3,0.6-0.5,0.7-0.8c0.3-0.7,0.6-1.5,0.7-2.3c2.7-12.8,5.4-25.6,8.1-38.4c0.1-0.6,0.3-1.2,0.5-1.8c0.1-0.3,0.3-0.5,0.5-0.7
		c0.2,0.3,0.4,0.6,0.4,1c0.1,1.2,0,2.5,0,3.7C205.8,268.1,205.8,268.1,205.8,268.1z"/>
	<path fill="#FFFFFF" d="M256,290.2c-0.6,3.3-0.1,4.1,2.5,4c7.2-0.2,14.4-0.4,21.5-0.7c0.6,0,1.2-0.6,1.8-0.9
		c-0.3-0.6-0.4-1.5-0.8-1.8c-1-0.7-2.1-1.2-3.2-1.8c-0.3-0.2-0.7-0.2-1.1-0.3c0.4-0.2,0.7-0.7,1.1-0.7c0.9,0,2-0.1,2.5,0.5
		c1.4,1.8,2.8,3.7,3.7,5.8c0.8,2.1,0.1,3.1-1.9,3.2c-2.6,0.1-5.3-0.3-7.9-0.3c-4.4,0-8.7,0.1-13.1,0.4c-1.7,0.1-3.3,1-4.2-1.6
		c-0.1-0.3-0.8-0.6-0.8-0.5c-0.3,0.5-0.7,1-0.7,1.5c0.2,2.5,0.5,5.1,0.9,7.6c0.2,1.4,0.8,2.8,1,4.2c0.1,1-0.3,2-0.5,3
		c-1.2-0.5-2.4-0.9-1.8-3c0,0.1,0.1,0.1,0.1,0.2c0-0.1-0.1-0.1-0.1-0.2c0-4.3,0-8.6,0-12.9c0-0.4,0-0.9-0.2-1.2
		c-0.2-0.5-0.6-0.9-0.9-1.4c-0.3,0.5-0.9,1-0.9,1.6c-0.1,3.1,0,6.2-0.1,9.2c-0.1,1.8-0.4,3.5-0.7,5.3c-1.3-0.6-2.8-0.8-3.8-1.8
		c-3.4-3.2-6.6-6.6-9.9-10l0,0c0.2-2.5,0.7-5,0.5-7.5c-0.4-4.4-1.2-8.7-1.7-13.1c-0.5-3.9-0.9-7.8-1.2-11.6
		c-0.1-1.4-0.5-2.9,1.4-3.3c2.2-0.4,3.8,0.2,4.2,2.2c0.8,4.7,1.6,9.5,2.2,14.3c0.6,4.3,0.9,8.6,1.6,12.8c0.7,4,1.8,7.9,2.7,11.8
		c0.1,0.3,0.4,0.6,0.6,0.9c0.3-0.5,0.7-0.9,0.7-1.4c0.2-3.3,0.3-6.5,0.3-9.8c0-3.4-0.1-6.8-0.2-10.2c0-0.3,0.2-0.6,0.3-0.9
		c0.1,0.3,0.1,0.6,0.2,0.9c0.2,1.1,0.3,2.2,0.5,3.3c0.1,0.3,0.4,0.5,0.6,0.8c0.1-0.4,0.4-0.7,0.3-1.1c-0.1-1.1-0.3-2.3-0.3-3.4
		c0.1-7.8,0.4-15.6,1.9-23.3c0.6-3.2,0.2-6.7,0.3-10.1c0-1.3,0.4-2.6,0.5-3.9c0.1,1.2,0.4,2.4,0.4,3.7c-0.2,5.5-0.7,11.1-0.7,16.6
		c0,7.1-1.2,14.1,0.1,21.2C254.1,288.3,254,290,256,290.2L256,290.2z"/>
	<path fill="#FFFFFF" d="M277.1,222c2.4,1.5,3.3,4.3,4,7c1.2,4.9,3,9.4,5.1,13.8c1.8,3.6,2.6,7.8,3.8,11.8c0.2,0.6-0.2,1.4-0.3,2.1
		l0,0c2.7,5.1,4.3,10.6,5.7,16.3c1.1,4.6,2.5,9.2,4.2,13.6c3.1,7.6,4.9,15.8,7.8,23.5c1.2,3.1,2,6.1,1.9,9.5c0,0.8-0.6,1.6-0.9,2.3
		c-0.5-0.6-1.2-1-1.4-1.7c-1.4-4.3-2.7-8.7-4.1-13c-2.6-8.5-5.1-17.1-7.7-25.6c-1-3.5-2-7.1-3-10.7l0,0c-1.6-4.6-3.2-9.1-4.8-13.7
		c0.1-0.1,0.1-0.1,0.2-0.2c-0.1,0.1-0.1,0.1-0.2,0.2c-1.4-4.5-2.8-9-4.2-13.6C281.3,236.6,279.2,229.3,277.1,222L277.1,222z"/>
	<path fill="#FFFFFF" d="M315.6,350.4c0.1-0.8,0.6-1.8,0.4-2.3c-1.4-2.3-1-5.4-2.9-7.5c-1-1-1.3-3.3-1.4-5c-0.3-3.2-0.5-3.5-3.3-3.2
		c-1,0.1-2.2,0.4-2.3-1.5c-0.1-1.3-0.5-2.3,1.4-2.4c0.8,0,1.4-1.9,2.2-2.7c3-2.8,3.1-6,1.6-9.8c-1.5-3.9-2.7-8-4.1-12.1
		c-0.2-0.5-0.5-1-0.5-1.4c0-0.6,0.3-1.2,0.4-1.8c0.4,0.4,0.9,0.7,1.1,1.1c1.5,4.2,2.9,8.4,4.3,12.6c2.8,8.4,5.6,16.9,8.4,25.3
		c0.3,1,1,1.9,1.6,2.8c0.7,0.9,2.6,1.6-0.1,2.4c-0.3,0.1-0.4,1.7-0.2,2.5c0.5,3.4-0.2,4.5-3.1,4.2
		C317.9,351.5,316.8,350.8,315.6,350.4L315.6,350.4z"/>
	<polygon fill="#FFFFFF" points="316.7,331.2 316.5,331.2 316.5,331.4 	"/>
	<path fill="#FFFFFF" d="M248.6,346.6c-1.4-1-2.8-2.1-4.2-3.1c0-0.1,0-0.2,0.1-0.2c0,0.1,0,0.2-0.1,0.2c-0.6-0.7-1.6-1.2-1.8-2
		c-1-4.6-2.4-9.3-1.5-14.2c0.1-0.4,0-0.8,0-1.2c0-1,0-2.1,0-3.1c0.4,1,0.9,1.9,1.2,3c0.7,3.3,1.2,6.6,1.8,9.9
		c0.1,0.8,0.5,1.6,0.9,2.1c0.3,0.4,0.9,0.4,1.4,0.6c0.1-0.5,0.4-1.1,0.3-1.6c-0.9-4.9-1.9-9.7-2.6-14.7c-0.7-5-1.1-10.1-1.6-15.2
		c-0.1-1.6,0.7-1.7,1.7-1c0.9,0.7,1.7,1.4,2.6,2.1c1,0.8,1.2,1.7,1.1,3.3c-0.2,4.3,0.2,8.6,0.2,12.9c0,6.4,0,12.7,0,19.1
		C248.1,344.6,248.4,345.6,248.6,346.6L248.6,346.6z"/>
	<path fill="#FFFFFF" d="M236.5,369.6c0.3,0.6,0.5,1.5,1,1.8c3.2,1.7,0,1.8-0.4,2.3c-0.7,0.8-1.2,0.4-1.2-0.8
		c-0.3-7.9-0.6-15.8-0.8-23.7c0-0.6,0.3-1.2,0.5-1.9c0.1,0.6,0.3,1.1,0.4,1.7c0.1,0.8,0.1,1.7,0.4,2.4c0.9,1.8,1.1,3.3,0.3,5.3
		c-0.3,0.8,0.3,2.5,0.9,3.2c0.5,0.6,2.1,0.7,2.6,0.2c0.7-0.6,1.1-2,1.1-3.1c0-3.4-0.3-6.8-0.4-10.2c0-0.6,0.2-1.6,0.6-1.9
		c0.3-0.2,1.2,0.1,1.6,0.5c1.8,1.9,3.6,3.5,3.2,7.2c-0.5,4-0.1,8.2,0,12.3c0,2.4-0.8,4.2-2.4,5.5c-1,0.8-2.2,2.5-2.3-0.9
		c0-1.6-1.4-2.4-2.8-1.5C237.8,368.2,237.1,369,236.5,369.6L236.5,369.6z M242,363.2c-1.1-0.9-1.7-1.6-2.2-1.6
		c-1.4,0-2.7,0.9-2.6,2.6c0,0.7,1.4,2.1,1.7,2C239.8,365.6,240.7,364.6,242,363.2z"/>
	<path fill="#FFFFFF" d="M251,225.7c-0.5-12.4-1.1-24.9-1.5-37.3c-0.1-1.9,0.1-3.9,0.3-5.8c0.1-1.5,0.6-2.6,2.2-2.3
		c1.4,0.3,2.1,1,2,2.9c-0.3,8.2-0.5,16.4-0.7,24.7c-0.2,6.6-0.3,13.2-0.6,19.8c-0.1,2.2-0.5,4.5-0.8,6.7c0,0.2-0.3,0.4-0.4,0.6
		c-0.1-0.3-0.2-0.6-0.2-0.9c-0.2-2.8-0.4-5.5-0.6-8.3C250.8,225.8,250.9,225.7,251,225.7z"/>
	<path fill="#FFFFFF" d="M219.4,105c1.9,0,3.8,0,5.8,0c1.1,0,2.6-0.4,2.6,1.6c0,1.9,0.3,4.4-1.7,5c-2.9,0.8-5.9,1.7-9,0.6
		c-1.6-0.6-3.4-0.7-5.2-0.7c-1.5,0-2.5-0.3-2.3-2.3c0.1-1.8,0-4,2.2-4.1C214.4,104.9,216.9,105,219.4,105
		C219.4,105,219.4,105,219.4,105z"/>
	<path fill="#FFFFFF" d="M277.1,215.1c-0.1,0.3-0.2,0.5-0.4,0.7c-0.2-0.2-0.5-0.3-0.6-0.5c-1.6-3-3.5-5.7-4.7-8.9
		c-2.3-6.4-3.9-13.2-6.2-19.6c-1.6-4.4-2.9-9.1-6.4-12.1c-0.4-0.4-1.1-1.4-1-1.5c0.7-1.1,1.6-2.1,2.5-3c0.1-0.1,1.2,0.8,1.4,1.4
		c1.8,4.5,3.6,8.9,5.2,13.5c3,8.5,5.9,17.2,8.8,25.7C276.2,212.1,276.6,213.6,277.1,215.1z"/>
	<path fill="#FFFFFF" d="M237.2,414.7c-0.2,7.2-0.3,14-0.6,20.8c0,0.4-0.4,1-0.6,1c-0.4,0.1-1-0.2-1.1-0.5c-0.3-0.8-0.5-1.8-0.5-2.7
		c-0.2-6.3-0.5-12.5-0.4-18.8c0.1-4.9,0.6-9.8,1-14.7c0-0.5,0.4-1,0.6-1.5c0.3,0.6,0.7,1.1,0.8,1.7C236.6,405,236.9,410,237.2,414.7
		z"/>
	<path fill="#FFFFFF" d="M260.7,339.8c-0.5-1.9-1-3.7-1.6-5.6c-0.1-0.4-0.6-0.6-0.9-0.9c-0.2,0.5-0.4,1-0.4,1.5c0,1,0.1,1.9,0.2,2.9
		c-0.6-0.8-1.5-1.6-1.7-2.5c-0.6-2.5-1.1-5-1.3-7.5c-0.2-3.6-0.1-7.2-0.1-10.8c0-0.9,0.6-1.7,1-2.5c0.5,0.7,1.2,1.4,1.6,2.1
		c0.3,0.5,0.4,1.2,0.5,1.7l0,0c0.5,2.2,1.2,4.4,1.5,6.6c0.5,3.9,0.9,7.8,1.3,11.7C260.9,337.6,260.7,338.7,260.7,339.8L260.7,339.8z
		"/>
	<path fill="#FFFFFF" d="M176.7,308c0.5,0,1,0.1,1.6,0.1c1.1,0.1,2.9-0.3,3.1,0.3c0.6,1.5,0.5,3.3,0.6,5.1c0,0.3-0.6,0.9-0.9,0.9
		c-3.7-0.1-7.4-0.4-11.1-0.3c-1.5,0-2.6-0.2-2.9-2.2c-0.2-1.9,0.8-3.5,2.5-3.6c2.3-0.1,4.7,0,7.1,0
		C176.7,308.2,176.7,308.1,176.7,308z"/>
	<path fill="#FFFFFF" d="M185.5,188.7c0.1-2.8,0.2-5.5,0.4-8.3c0-0.6,0.1-1.3,0.4-1.7c0.8-1.1,1.8-2,2.7-2.9c0,1.3,0,2.5-0.1,3.8
		c-0.3,4-0.7,8-1,12c-0.3,4-0.7,8-1,12c-0.2,2.7-0.3,5.3-0.5,8c0,0.6-0.2,1.1-0.3,1.6c0-0.6-0.1-1.2-0.1-1.8c0-7.5,0-15,0-22.5
		C185.7,188.7,185.6,188.7,185.5,188.7z"/>
	<path fill="#FFFFFF" d="M233.8,338.6c-0.4-0.7-1-1.3-1-2c-0.1-5.6,0-11.1-0.1-16.7c-0.1-5.9-0.2-11.7-0.3-17.6
		c0-0.3,0.1-0.5,0.2-0.8c0.1,0.2,0.3,0.4,0.4,0.7c0.1,0.4,0.2,0.8,0.2,1.2c0.7,10.6,1.5,21.3,2.2,31.9c0.1,1.5,0.4,3.1,0.4,4.6
		c0,0.8-0.3,1.8-0.7,2.5c-0.1,0.2-1.3,0.1-1.4-0.1c-0.2-0.8-0.1-1.7-0.1-2.6C233.6,339.4,233.7,339,233.8,338.6
		c0.2-0.3,0.4-0.6,0.6-0.9c-0.1-0.1-0.2-0.1-0.3-0.2C234,337.9,233.9,338.2,233.8,338.6z"/>
	<path fill="#FFFFFF" d="M246.8,259c0.2,6.9,0.4,13.8,0.6,20.7c0,0.7-0.3,1.5-0.5,2.2c-0.3-0.7-0.8-1.3-0.9-2
		c-0.7-5.1-1.3-10.2-1.9-15.3c-0.1-0.5,0.2-1.5,0.4-1.6c2-0.8,1.3-2.4,0.8-3.8c-1.4-4.3,0.2-8.5,0-12.8c0-0.2,0.1-0.3,0.2-0.5
		c0.1,0.4,0.3,0.7,0.3,1.1c0.5,4,0.9,7.9,1.4,11.9C247.2,259,247,259,246.8,259z"/>
	<path fill="#FFFFFF" d="M333.4,383.5c-0.2,0.4-0.4,0.9-0.6,1.4c-0.4-0.3-1.1-0.4-1.3-0.9c-0.6-1.1-1-2.4-1.4-3.6
		c-2.3-7-4.6-14-6.9-21c-0.2-0.5,0.1-1.2,0.2-1.9c0.6,0.1,1.3,0.1,1.9,0.4c0.3,0.2,0.4,0.9,0.6,1.3c2.4,7.4,4.8,14.8,7.1,22.2
		C333.1,382.1,333.2,382.7,333.4,383.5z"/>
	<path fill="#FFFFFF" d="M261.2,182.4c1.3,3.3,2.8,6.6,3.9,10c3.4,10.7,6.8,21.4,10.1,32.1c1.7,5.3,3.4,10.6,5.1,15.9
		c0.1,0.4,0.1,1,0.1,1.5c-0.2-0.4-0.5-0.7-0.7-1.1c-4.4-9.6-7.1-19.9-10-30.2c-2.3-8.3-5.2-16.4-7.7-24.6
		C261.6,184.8,261.5,183.5,261.2,182.4L261.2,182.4z"/>
	<path fill="#FFFFFF" d="M208.1,375.8c0,5.2,0,11.1,0,17c0,0.3-0.1,0.6-0.2,1c-0.1-0.2-0.3-0.5-0.4-0.8c-2-6-3.2-12.2-3.6-18.6
		c-0.1-1.9,0.8-2.2,2.2-2.2C207.8,372.2,208.6,373,208.1,375.8z"/>
	<path fill="#FFFFFF" d="M179.3,319.8c-3.7,0-6.8,0.1-9.8-0.1c-0.9-0.1-2.4-0.9-2.4-1.5c-0.1-1.6,1-2.5,2.4-2.5
		c3-0.1,6.1-0.3,9.1-0.2c1.3,0,2.6,0.9,2.2,2.7C180.7,319.1,179.6,319.6,179.3,319.8z"/>
	<path fill="#FFFFFF" d="M276.1,301.9c-5.8,0-10.8,0-15.8,0c-0.5,0-1.1-0.4-1.6-0.7c0.5-0.3,0.9-0.9,1.4-1
		c5.1-0.7,10.2-1.9,15.4-0.8c1.9,0.4,3.8,0.2,5.8,0.3c0.6,0,1.1,0.4,1.6,0.7c-0.6,0.3-1.1,0.8-1.7,0.9
		C279.2,301.6,277.2,301.8,276.1,301.9z"/>
	<path fill="#FFFFFF" d="M207.4,337.6c0,2.7,0.2,5.4-0.1,8c-0.1,1.1-1,2.4-1.8,2.9c-1.5,0.9-2.3,0-2-2c0.8-5.3,1.6-10.7,2.5-16
		c0.1-0.7,0.2-1.4,0.4-2.1c0.1-0.3,0.2-0.5,0.3-0.8c0.1,0.3,0.2,0.6,0.2,0.8c0.3,3.1,0.6,6.1,0.9,9.2
		C207.6,337.6,207.5,337.6,207.4,337.6z"/>
	<path fill="#FFFFFF" d="M302.6,346.5c-1.5-1.2-2.6-2.1-3.7-3c-0.1-0.1-0.2-0.3-0.3-0.5c-1.2-1.2-1.3-1.5,0.4-2.7c1.9-1.4,4-2.7,6-4
		c0.3-0.2,0.9,0.1,1.4,0.2c-0.1,0.5-0.2,1-0.4,1.4c-1.1,1.8-2.4,3.5-1.7,6.1C304.4,344.5,303.3,345.4,302.6,346.5z"/>
	<path fill="#FFFFFF" d="M259.7,271.6c-0.6,0.5-1.1,1-1.7,1.4c-0.5,0.3-1.1,0.5-1.6,0.7c0-0.8-0.2-1.7,0-2.3
		c0.3-0.8,0.9-1.6,1.5-2.1c3.9-3,7.7-6,11.6-9c0.3-0.3,0.8-0.3,1.2-0.5c-0.2,0.5-0.2,1.2-0.5,1.5
		C266.7,264.8,263.2,268.2,259.7,271.6c-0.1-0.1-0.1-0.1-0.2-0.2C259.6,271.5,259.6,271.5,259.7,271.6z"/>
	<path fill="#FFFFFF" d="M236.1,275.6c-1.1,1-1.8,1.8-2.6,2.5c-0.4,0.4-0.9,0.7-1.3,1c-0.2-0.6-0.4-1.3-0.4-1.9
		c-0.2-4.2-0.4-8.4-0.4-12.6c0-0.6,0.4-1.2,0.6-1.8c0.3,0.5,0.6,0.9,0.8,1.4C233.9,268.1,235,271.8,236.1,275.6z"/>
	<path fill="#FFFFFF" d="M178.9,355.3c-1.3,0.1-2.6,0.3-3.9,0.4c-0.4,0-1.2-0.7-1.1-0.8c1.3-5.3,0.5-11.5,4.4-15.8
		c0.4-0.4,0.7-1,1.1-1.3c0.3-0.2,0.8-0.1,1.2-0.1c0,0.5,0.1,1,0,1.4c-0.3,0.6-0.8,1.1-1.2,1.6c-3.6,4.6-3.9,7.8-1.1,13
		C178.7,354.1,178.7,354.7,178.9,355.3L178.9,355.3z"/>
	<path fill="#FFFFFF" d="M260.7,374.3c-0.2,2.4-0.3,4.7-0.6,7.1c-0.1,0.7-0.7,1.2-1,1.8c-0.3-0.8-0.7-1.5-0.8-2.3
		c-0.1-0.4,0.1-1,0.3-1.5c0.4-1.2,0.1-1.9-0.9-1.9c-1.6,0-2.1-1-2.1-2.7c0-1.7,0.9-2,2.1-2c1.9-0.1,2-1.9,2.3-3.5
		c0.1-0.3,0.4-0.6,0.6-0.8c0.1,0.3,0.2,0.6,0.2,0.9C260.7,371,260.7,372.7,260.7,374.3z"/>
	<path fill="#FFFFFF" d="M260.7,339.8c1-0.2,1.2,0.2,1.4,1.5c0.6,4.5,1.3,9,2.2,13.5c0.8,4,1.7,4.6,5.2,3.6c0.8-0.2,1.5-0.4,2.3-0.6
		l0,0c-1,0.7-2,1.6-3.2,2.1c-2.2,0.9-4.1,0-5-2.6c-0.8-2.3-1.4-4.7-1.8-7.1C261.3,346.8,261.1,343.3,260.7,339.8L260.7,339.8z"/>
	<path fill="#FFFFFF" d="M187.7,356c-0.1-2.7-0.3-5.4-0.3-8c0-0.8,0.7-2.3,0.9-2.3c1.2,0.3,3.1,0.6,2.8,2.5c-0.7,3.4-1.9,6.6-3,9.8
		c-0.1,0.2-0.2,0.3-0.3,0.4c-0.1-0.2-0.3-0.5-0.3-0.7C187.6,357.1,187.7,356.5,187.7,356z"/>
	<path fill="#FFFFFF" d="M258.6,351.4c-0.7,1.7,0.2,4.4-2.1,4.2c-2.1-0.2-1.5-2.6-1.4-4.2c0.1-2.1,0.3-4.3,0.5-6.4
		c0-0.3,0.3-0.6,0.5-0.9c0.1,0.1,0.2,0.3,0.3,0.4C257.1,346.8,257.9,349.1,258.6,351.4z"/>
	<path fill="#FFFFFF" d="M255.8,363.8c0-0.9-0.2-1.7,0-2.1c0.4-0.6,1.1-1.2,1.7-1.2c0.4,0,1.2,1,1.2,1.4c-0.2,2.3-0.5,4.6-0.9,6.9
		c-0.1,0.4-0.5,0.6-0.8,1c-0.2-0.3-0.5-0.6-0.6-0.9C256.3,367.2,256.1,365.4,255.8,363.8z"/>
	<path fill="#FFFFFF" d="M275,202.2c-1.9-5-3.8-10.1-5.6-15.2c-0.2-0.4,0.1-1.1,0.2-1.6c0.3,0.4,0.6,0.7,0.8,1.1
		C271.9,191.7,273.4,197,275,202.2L275,202.2z"/>
	<path fill="#FFFFFF" d="M315.1,349.7c-2.5,1.3-4-1.2-5.8-2.4c-0.1-0.1,0.2-1.5,0.5-1.8c0.8-0.7,1.7-2.3,2.8-0.4
		C313.4,346.6,314.2,348.2,315.1,349.7L315.1,349.7z"/>
	<path fill="#FFFFFF" d="M243.2,374.8c0.4-0.7,0.7-1.5,1.2-2.2c0.8-1.1,1.6-2.1,2.5-3.1c0.1-0.1,0.5-0.1,0.5-0.1
		c0.4,1.2-1.1,6.1-2.2,6.8c-0.4,0.3-1.1,0.6-1.4,0.4C243.5,376.4,243.5,375.6,243.2,374.8z"/>
	<path fill="#FFFFFF" d="M186.3,166.9c0.3-0.4,0.8-1.1,0.9-1.1c0.8,0.4,1.9,0.8,2.1,1.6c0.3,1.4,0.1,2.9,0.1,4.4l0,0
		c-0.9-0.7-1.7-1.6-2.6-2.1C185.5,169,185.6,168.1,186.3,166.9L186.3,166.9z"/>
	<path fill="#FFFFFF" d="M249.6,255.7c-0.3-5.1-0.6-10.3-0.8-15.4c0-0.5,0.1-0.9,0.2-1.4c0.1,0.4,0.4,0.7,0.4,1.1
		c0,6.5,1.6,12.8,0.8,19.3c0,0.3-0.1,0.6-0.2,0.9c-0.1-0.3-0.2-0.5-0.3-0.8c-0.1-1.2-0.2-2.5-0.2-3.7
		C249.4,255.7,249.5,255.7,249.6,255.7z"/>
	<path fill="#FFFFFF" d="M255.2,230.3c-0.1,3.1-0.2,6.5-0.4,9.9c0,0.6-0.3,1.1-0.5,1.7c-0.2-0.5-0.5-1-0.5-1.5c0-1.9,0-3.9,0.1-5.8
		c0.1-1.5,0.4-3.1,0.6-4.6c0.2-1.4,0.5-2.7,0.7-4C255.2,227.3,255.2,228.7,255.2,230.3z"/>
	<path fill="#FFFFFF" d="M181.5,345.8c-0.2,1.5-0.3,2.6-0.6,3.8c-0.1,0.7-0.4,1.3-0.6,1.9c-0.4-0.6-1.1-1.2-1.2-1.8
		c-0.1-1.4,0-2.8,0.4-4.2c0.2-0.8,0.9-1.3,1.4-2C181.1,344.3,181.4,345.2,181.5,345.8z"/>
	<path fill="#FFFFFF" d="M187.9,232.6c-0.2,5.1-0.4,10.2-0.6,15.3c0,0.4-0.4,0.7-0.6,1.1c-0.1-0.4-0.3-0.8-0.3-1.1
		C186.9,242.7,187.4,237.6,187.9,232.6L187.9,232.6z"/>
	<path fill="#FFFFFF" d="M238,339.2c-0.5-5.9-1.1-11.8-1.6-17.7c0-0.2,0.2-0.5,0.3-0.7c0.2,0.3,0.6,0.6,0.6,0.9
		c0.1,1.9,0.1,3.9,0.2,5.9C237.7,331.4,237.8,335.3,238,339.2L238,339.2z"/>
	<path fill="#FFFFFF" d="M235.1,304.7c0-1.6,0-2.7,0-3.8c0.3,1.1,0.7,2.2,0.8,3.3c0.4,4.1,0.6,8.2,0.9,12.2c0,0.4-0.2,0.9-0.4,1.3
		c-0.1-0.4-0.4-0.9-0.4-1.3C235.7,312.3,235.4,308.2,235.1,304.7z"/>
	<path fill="#FFFFFF" d="M264.4,170.8c0.1,0.2,0.3,0.5,0.4,0.7c1.2,2.8,2.4,5.6,3.5,8.5c0.1,0.3-0.1,0.9-0.2,1.3
		c-0.2-0.3-0.5-0.6-0.6-0.9c-1.1-2.9-2.3-5.7-3.4-8.6c-0.1-0.3-0.1-0.6-0.2-0.9C264,170.9,264.2,170.8,264.4,170.8z"/>
	<path fill="#FFFFFF" d="M256,196.6c-0.2,5.6-0.4,11.1-0.5,16.7c0,0.4-0.2,0.7-0.3,1.1c-0.1-0.3-0.2-0.6-0.2-0.9
		C255.3,207.9,255.6,202.2,256,196.6L256,196.6z"/>
	<path fill="#FFFFFF" d="M237.1,303c0.5-1,0.8-1.5,1.1-2c0.9,0.9,1.8,1.8,2.7,2.6c-0.7,0.5-1.4,1.4-2.1,1.3
		C238.3,305,237.8,303.8,237.1,303z"/>
	<path fill="#FFFFFF" d="M231.1,108.1c0,4.3-1,5.8-4,6.2c-0.3,0-0.6-0.1-0.8-0.2c0.2-0.2,0.4-0.4,0.6-0.4c2.8-0.2,2.9-2.7,3.2-5.1
		c0.1-0.7,0.3-1.3,0.5-2C230.8,107.3,231.1,108,231.1,108.1z"/>
	<path fill="#FFFFFF" d="M195.9,349.7c-0.3-0.5-0.8-1-0.7-1.2c0.6-1.4,1.3-2.8,1.9-4.2c0.1-0.1,0.4,0,0.6,0
		c-0.2,1.4-0.3,2.8-0.6,4.2C197,348.9,196.4,349.2,195.9,349.7z"/>
	<path fill="#FFFFFF" d="M248.1,290.2c-0.1,1.2-0.2,2.3-0.3,3.5c-0.2-1.2-0.5-2.3-0.7-3.5c-0.2-1.2-0.3-2.4-0.3-3.7
		c0-0.4,0.4-0.7,0.7-1.1c0.2,0.3,0.5,0.6,0.5,1c0.1,1.2,0,2.5,0,3.7C248,290.2,248,290.2,248.1,290.2z"/>
	<path fill="#FFFFFF" d="M238.1,415.2c0.5-1.1,0.8-1.9,1.2-2.7c0.4,0.7,1.2,1.3,1.2,1.9c-0.1,0.8-0.8,1.5-1.2,2.3
		C238.9,416.3,238.6,415.8,238.1,415.2z"/>
	<path fill="#FFFFFF" d="M282.4,223.3c-1.1-2.7-2.2-5.4-3.2-8.2c-0.1-0.2,0.1-0.5,0.1-0.7c0.2,0.2,0.4,0.4,0.5,0.6
		C280.6,217.7,281.5,220.5,282.4,223.3L282.4,223.3z"/>
	<path fill="#FFFFFF" d="M178.9,355.3c1.8,0.4,2.7,2.8,1.5,4.4c-0.2,0.3-0.7,0.5-0.9,0.4c-0.3-0.2-0.5-0.7-0.5-1.2
		C178.9,357.7,179,356.5,178.9,355.3L178.9,355.3z"/>
	<path fill="#FFFFFF" d="M234.3,292.9c0-1.3,0-2.6,0-3.9c0.2,1.3,0.4,2.7,0.6,4c0.2,1.4,0.4,2.8,0.6,4.2c0,0.3-0.2,0.7-0.3,1
		c-0.2-0.3-0.6-0.5-0.6-0.8C234.4,295.9,234.4,294.4,234.3,292.9C234.3,292.9,234.3,292.9,234.3,292.9z"/>
	<path fill="#FFFFFF" d="M262.3,378.9c0-2.2,0-4.5,0.1-6.7c0-0.3,0.3-0.6,0.5-0.9c0.1,0.3,0.4,0.7,0.4,1
		C263,374.5,262.6,376.6,262.3,378.9L262.3,378.9z"/>
	<path fill="#FFFFFF" d="M322.2,355.2c-0.5-0.6-0.8-0.9-1.1-1.2c0.9-0.7,1.8-1.4,2.8-2c0.1-0.1,0.5,0.3,0.7,0.5
		C323.8,353.4,323,354.2,322.2,355.2z"/>
	<path fill="#FFFFFF" d="M239,348.3c-0.2,1-0.4,1.8-0.5,2.6c-0.3-0.7-0.9-1.4-0.9-2.1c0-1,0.5-2,0.7-3.1
		C238.5,346.6,238.8,347.4,239,348.3z"/>
	<path fill="#FFFFFF" d="M257,182.9c-0.2,1.4-0.4,2.4-0.6,3.4c-0.1,0.6-0.2,1.3-0.3,1.9c-0.1-0.7-0.3-1.4-0.4-2.1c0-1,0-2,0.1-3
		c0.1-0.4,0.6-0.8,0.9-1.2C256.9,182.4,257,182.9,257,182.9z"/>
	<path fill="#FFFFFF" d="M260.8,292c-0.2,0-0.9-0.2-1.6-0.4c0.8-0.2,1.5-0.5,2.3-0.7c0.2,0,0.3,0,0.5,0c0.6,0.1,1.3,0.3,1.9,0.4
		c-0.7,0.2-1.4,0.5-2,0.7C261.7,292.1,261.6,292,260.8,292z"/>
	<path fill="#FFFFFF" d="M239.3,411.1c-0.3-1.2-0.6-1.8-0.6-2.4c0-0.4,0.5-0.8,0.8-1.2c0.3,0.5,0.9,1,0.9,1.5
		C240.5,409.5,239.9,410,239.3,411.1z"/>
	<path fill="#FFFFFF" d="M282.3,351c-1.9,1.4-3.8,2.8-5.7,4.2c-0.2,0.1-0.5,0.1-0.7,0.2c0.1-0.3,0.2-0.7,0.4-0.8
		C278.3,353.3,280.3,352.2,282.3,351L282.3,351z"/>
	<path fill="#FFFFFF" d="M282.4,255.4c-0.4,0.1-0.6,0.3-0.8,0.3c-1.4-0.3-2.7-0.6-4.1-1c-0.2-0.1-0.3-0.4-0.5-0.6
		c0.2-0.1,0.5-0.3,0.7-0.3c1.3,0.3,2.6,0.6,3.8,1C281.8,254.9,282,255.1,282.4,255.4z"/>
	<path fill="#FFFFFF" d="M239.7,313.8c0-0.6,0-1.2,0-1.9c0.1-0.7,0.2-1.5,0.3-2.2c0.1,0.8,0.4,1.6,0.4,2.4c0,1.6-0.2,3.3-0.3,4.9
		c0,0.2-0.2,0.5-0.2,0.7c0-0.3-0.1-0.6-0.1-0.9C239.7,315.9,239.7,314.8,239.7,313.8C239.7,313.8,239.7,313.8,239.7,313.8z"/>
	<path fill="#FFFFFF" d="M261.3,359.4c-0.3,0.7-0.7,1.5-1,2.2c-0.1-0.3-0.4-0.7-0.3-1c0.1-1,0.4-1.9,0.6-2.8
		C260.8,358.2,261,358.7,261.3,359.4z"/>
	<path fill="#FFFFFF" d="M281.4,247.8c-0.2,0.4-0.3,0.6-0.5,0.8c-0.4-0.8-0.8-1.7-1.2-2.5c0-0.1,0.3-0.4,0.4-0.6
		C280.6,246.3,281,247.1,281.4,247.8z"/>
	<path fill="#FFFFFF" d="M307.8,344.4c-0.3-0.5-0.4-0.7-0.6-0.9c0.7-0.5,1.4-1,2-1.5c0.1,0.2,0.3,0.6,0.3,0.6
		C309,343.2,308.4,343.8,307.8,344.4z"/>
	<path fill="#FFFFFF" d="M256.6,381.6c-0.3,0.5-0.6,0.9-0.9,1.4c-0.2-0.4-0.6-0.8-0.5-1.2c0.1-0.5,0.5-1,0.7-1.4
		C256.1,380.8,256.3,381.1,256.6,381.6z"/>
	<path fill="#FFFFFF" d="M255.4,219.6c-0.1,0.8-0.2,1.5-0.3,2.1c-0.2-1.1-0.4-2.2-0.5-3.2c0-0.3,0.2-0.6,0.3-0.9
		C255.2,218.3,255.3,219,255.4,219.6z"/>
	<path fill="#FFFFFF" d="M291.3,344.8c0,0.1-0.1,0.2-0.1,0.3c-1.2,0.9-2.4,1.8-3.7,2.7c0,0-0.2-0.2-0.2-0.3c1.1-0.8,2.2-1.6,3.3-2.3
		C290.8,344.9,291.1,344.9,291.3,344.8L291.3,344.8z"/>
	<path fill="#FFFFFF" d="M177.7,362.9c0.8,0.2,1.3,0.3,1.9,0.4c-0.5,0.2-1.1,0.5-1.6,0.5c-0.4,0-0.9-0.3-1.4-0.5
		C177.1,363.2,177.5,363,177.7,362.9z"/>
	<path fill="#FFFFFF" d="M282.3,223.3c0.3,0.8,0.7,1.6,1,2.5c0.1,0.4-0.1,0.8-0.1,1.2c-0.3-0.3-0.7-0.6-0.8-1
		C282.3,225.1,282.4,224.2,282.3,223.3L282.3,223.3z"/>
	<path fill="#FFFFFF" d="M289.2,267.6c-0.1,0.5-0.2,0.8-0.3,1c-0.3-0.5-0.6-1.1-0.8-1.6c-0.1-0.2,0.1-0.5,0.1-0.8
		C288.6,266.7,288.9,267.2,289.2,267.6z"/>
	<path fill="#FFFFFF" d="M207.2,104.9c0.3,0.6,0.6,0.8,0.6,1c0,0.6-0.2,1.1-0.3,1.7c-0.2-0.2-0.4-0.3-0.4-0.5
		C207.1,106.4,207.1,105.8,207.2,104.9z"/>
	<path fill="#FFFFFF" d="M304,292.1c-0.5-1.2-0.9-2.4-1.4-3.6c0.1-0.1,0.3-0.1,0.4-0.2C303.3,289.6,303.6,290.8,304,292.1L304,292.1
		z"/>
	<path fill="#FFFFFF" d="M234.3,283.5c-0.1,0.3-0.3,0.8-0.5,1.3c0-0.4-0.2-0.8-0.1-1.2c0.1-0.6,0.3-1.2,0.4-1.9
		C234.2,282.2,234.2,282.8,234.3,283.5z"/>
	<path fill="#FFFFFF" d="M309.4,338.7c-0.2,0.3-0.3,0.5-0.5,0.7c-0.2-0.3-0.5-0.6-0.5-0.9c0-0.3,0.3-0.5,0.5-0.8
		C309,338,309.2,338.3,309.4,338.7z"/>
	<path fill="#FFFFFF" d="M281.3,251c0.3,0.3,0.6,0.4,0.6,0.6c0,0.3-0.2,0.6-0.4,0.8c-0.2-0.2-0.4-0.4-0.5-0.6
		C281,251.6,281.2,251.4,281.3,251z"/>
	<path fill="#FFFFFF" d="M291.3,344.8c0.9-0.5,1.8-1,2.7-1.5c0,0.1,0.1,0.2,0.1,0.2C293.2,344,292.2,344.4,291.3,344.8L291.3,344.8z
		"/>
	<path fill="#FFFFFF" d="M282.4,351c0.7-0.7,1.4-1.3,2.2-2c0.1,0.1,0.2,0.3,0.2,0.4C284,349.9,283.2,350.4,282.4,351L282.4,351z"/>
	<path fill="#FFFFFF" d="M208.8,113.2c-0.5,0.1-0.7,0.2-0.9,0.1c-0.3-0.2-0.5-0.5-0.7-0.7c0.1-0.2,0.4-0.5,0.4-0.4
		C207.9,112.4,208.2,112.8,208.8,113.2z"/>
	<path fill="#FFFFFF" d="M298,349.4c-0.2,0.5-0.5,1-0.8,1.6c-0.1-0.1-0.3-0.4-0.3-0.4c0.2-0.5,0.5-1,0.8-1.6
		C297.7,349.1,297.8,349.2,298,349.4z"/>
	<path fill="#FFFFFF" d="M299.7,276.8c-0.1,0.3-0.2,0.5-0.3,0.7c-0.2-0.2-0.4-0.3-0.4-0.6c0-0.2,0.1-0.5,0.2-0.7
		C299.3,276.4,299.5,276.6,299.7,276.8z"/>
	<path fill="#FFFFFF" d="M306.5,298.2c-0.2,0.3-0.3,0.5-0.5,0.7c-0.2-0.3-0.4-0.6-0.5-0.9c-0.1-0.3,0.1-0.6,0.1-0.9
		C305.8,297.4,306.1,297.8,306.5,298.2z"/>
	<path fill="#FFFFFF" d="M215.3,114.2c-0.3,0-0.5,0-0.8-0.1c-0.3-0.1-0.7-0.3-1-0.5c0.4,0,0.8,0,1.1,0.1
		C214.9,113.7,215.1,114,215.3,114.2L215.3,114.2z"/>
	<path fill="#FFFFFF" d="M278.2,290.9c-0.3,0.2-0.4,0.4-0.5,0.4c-0.3,0-0.7-0.1-1-0.1c0.1-0.1,0.2-0.3,0.3-0.3
		C277.3,290.9,277.6,290.9,278.2,290.9z"/>
	<path fill="#FFFFFF" d="M305.9,344.2c-0.1,0.2-0.1,0.3-0.2,0.5c-0.1-0.1-0.4-0.2-0.4-0.3c0.1-0.2,0.2-0.4,0.3-0.7
		C305.7,343.9,305.8,344.1,305.9,344.2z"/>
	<path fill="#FFFFFF" d="M304.5,293.9c0.4,1,0.7,2.1,1.1,3.1C305.2,296,304.9,295,304.5,293.9L304.5,293.9z"/>
	<path fill="#FFFFFF" d="M176.3,359.2c0-0.4-0.1-0.7-0.1-0.9c0-0.1,0.2-0.3,0.4-0.4c0.1,0.2,0.4,0.4,0.4,0.6
		C176.9,358.7,176.6,358.8,176.3,359.2z"/>
	<path fill="#FFFFFF" d="M256,290.2c0.1-0.5,0.2-1,0.3-1.4c0.1,0.1,0.3,0.1,0.4,0.2C256.5,289.4,256.2,289.8,256,290.2L256,290.2z"
		/>
	<path fill="#FFFFFF" d="M301.7,285.6c-0.1-0.3-0.2-0.5-0.2-0.8c0-0.1,0.2-0.2,0.3-0.3c0.1,0.3,0.2,0.5,0.3,0.8
		C302,285.3,301.8,285.5,301.7,285.6z"/>
	<path fill="#FFFFFF" d="M289.2,243.7c0.3,0.5,0.5,1,0.8,1.4c-0.1,0-0.1,0.1-0.2,0.1C289.6,244.8,289.4,244.2,289.2,243.7
		L289.2,243.7z"/>
	<path fill="#FFFFFF" d="M273.4,255.5c-0.4,0.2-0.7,0.5-1.1,0.7c0-0.1-0.1-0.2-0.1-0.4C272.6,255.8,273,255.6,273.4,255.5
		L273.4,255.5z"/>
	<path fill="#FFFFFF" d="M203,263.4c0.1,0.2,0.1,0.3,0.2,0.5c-0.1,0.1-0.3,0.2-0.3,0.2c-0.1-0.1-0.2-0.3-0.2-0.5
		C202.8,263.5,202.9,263.5,203,263.4z"/>
	<path fill="#FFFFFF" d="M296.4,266.1c-0.1,0-0.2,0.1-0.3,0.1c0,0-0.1-0.2-0.1-0.2c0-0.1,0.1-0.2,0.2-0.4
		C296.2,265.8,296.3,265.9,296.4,266.1z"/>
	<path fill="#FFFFFF" d="M290.7,248.5c-0.1-0.2-0.2-0.3-0.2-0.5c0-0.1,0.2-0.2,0.3-0.3c0.1,0.2,0.2,0.3,0.2,0.5
		C291,248.3,290.8,248.4,290.7,248.5z"/>
	<path fill="#FFFFFF" d="M277.1,222c-0.2-0.3-0.4-0.6-0.6-0.8c0.1-0.1,0.2-0.1,0.3-0.2C276.9,221.3,277,221.7,277.1,222L277.1,222z"
		/>
	<path fill="#FFFFFF" d="M298,273.1c0.1,0.1,0.2,0.3,0.3,0.4c0,0.1-0.2,0.2-0.3,0.3c0-0.1-0.1-0.2-0.1-0.3
		C297.9,273.5,297.9,273.3,298,273.1z"/>
	<path fill="#FFFFFF" d="M300.3,280.3c0.2,0.3,0.4,0.6,0.6,0.9c-0.1,0.1-0.2,0.1-0.3,0.2C300.5,281,300.4,280.6,300.3,280.3
		L300.3,280.3z"/>
	<path fill="#FFFFFF" d="M186.1,220.4c0-0.1-0.1-0.2-0.1-0.3c0-0.1,0.1-0.1,0.1-0.1C186.1,220.1,186.1,220.2,186.1,220.4z"/>
	<path fill="#FFFFFF" d="M275,254.3c-0.5,0.4-1.1,0.8-1.6,1.2l0,0C273.9,255.1,274.4,254.7,275,254.3L275,254.3z"/>
	<path fill="#FFFFFF" d="M232.6,297.4c0,0.3,0,0.4,0,0.4c-0.1,0-0.1,0-0.2,0C232.4,297.7,232.5,297.6,232.6,297.4z"/>
	<path fill="#FFFFFF" d="M256.3,193.5c0,0.1-0.1,0.1-0.1,0.2c0-0.1-0.1-0.2-0.1-0.2c0-0.1,0.1-0.1,0.1-0.2
		C256.2,193.4,256.3,193.5,256.3,193.5z"/>
	<path fill="#FFFFFF" d="M272.9,357.2c0.2-0.2,0.5-0.5,0.7-0.7C273.4,356.7,273.1,356.9,272.9,357.2L272.9,357.2z"/>
	<polygon fill="#FFFFFF" points="239.2,354.1 239,354.1 239.1,354 	"/>
	<path fill="#FFFFFF" d="M258.6,345.4c0.1,0.4,0.2,0.7,0.3,1.1C258.8,346.1,258.7,345.7,258.6,345.4L258.6,345.4z"/>
	<path fill="#FFFFFF" d="M295,261.7c-0.2-0.3-0.3-0.7-0.5-1C294.7,261,294.9,261.4,295,261.7L295,261.7z"/>
	<polygon fill="#FFFFFF" points="326.5,348.9 326.7,348.9 326.6,349.1 	"/>
	<path fill="#FFFFFF" d="M248.6,346.6c0.1,0.2,0.1,0.5,0.2,0.7c0-0.1-0.1-0.1-0.1-0.2C248.6,347,248.6,346.8,248.6,346.6
		L248.6,346.6z"/>
	<path fill="#FFFFFF" d="M262.3,378.8c-0.1,0.2-0.1,0.5-0.2,0.7c0-0.1-0.1-0.2,0-0.2C262.1,379.2,262.2,379,262.3,378.8L262.3,378.8
		z"/>
	<polygon fill="#FFFFFF" points="290,271.4 289.9,271.3 290,271.2 	"/>
	<path fill="#FFFFFF" d="M288.7,241.9c0.2,0.6,0.3,1.2,0.5,1.9l0,0C289,243.1,288.9,242.5,288.7,241.9L288.7,241.9z"/>
	<polygon fill="#FFFFFF" points="237.8,294.1 237.8,294.3 237.7,294.3 	"/>
	<polygon fill="#FFFFFF" points="248.4,235.4 248.2,235.4 248.3,235.2 	"/>
	<path fill="#FFFFFF" d="M275.5,204c-0.2-0.6-0.4-1.2-0.5-1.8l0,0C275.1,202.8,275.3,203.4,275.5,204L275.5,204z"/>
	<path fill="#FFFFFF" d="M295,261.7c0.1,0.2,0.1,0.5,0.2,0.7c0-0.1-0.1-0.1-0.1-0.2C295.1,262.1,295,261.9,295,261.7L295,261.7z"/>
	<path fill="#FFFFFF" d="M285.5,233.8c0.1,0.2,0.1,0.5,0.2,0.7C285.7,234.3,285.6,234,285.5,233.8L285.5,233.8z"/>
	<path fill="#FFFFFF" d="M304,292.1c0.2,0.6,0.4,1.2,0.5,1.9l0,0C304.3,293.3,304.2,292.7,304,292.1L304,292.1z"/>
	<path fill="#FFFFFF" d="M204.8,403.7c0-0.1-0.1-0.1-0.1-0.2C204.7,403.5,204.7,403.6,204.8,403.7L204.8,403.7z"/>
	<path fill="#FFFFFF" d="M222.2,114.8c0.1-0.1,0.1-0.1,0.2-0.2C222.3,114.7,222.2,114.7,222.2,114.8L222.2,114.8z"/>
	<path fill="#FFFFFF" d="M271.8,357.8c0.4-0.2,0.7-0.4,1.1-0.6l0,0C272.5,357.4,272.1,357.6,271.8,357.8L271.8,357.8z"/>
	<path fill="#FFFFFF" d="M316.1,353.4c-0.1,0-0.1,0-0.2-0.1C316,353.4,316.1,353.4,316.1,353.4L316.1,353.4z"/>
	<path fill="#FFFFFF" d="M316.1,353.5c0.1,0,0.1,0,0.2,0.1C316.3,353.5,316.2,353.5,316.1,353.5L316.1,353.5z"/>
	<path fill="#FFFFFF" d="M286.6,261.7c0-0.1-0.1-0.1-0.1-0.2C286.5,261.6,286.5,261.6,286.6,261.7L286.6,261.7z"/>
	<path fill="#FFFFFF" d="M286.6,261.7c0,0.1,0.1,0.1,0.1,0.2C286.7,261.8,286.6,261.8,286.6,261.7L286.6,261.7z"/>
	<path fill="#FFFFFF" d="M238,339.2c0,0.4,0,0.8,0,1.2l0,0C238,340,238,339.6,238,339.2C238,339.2,238,339.2,238,339.2z"/>
	<path fill="#FFFFFF" d="M238,340.4c0,0.1,0,0.2-0.1,0.2C238,340.6,238,340.5,238,340.4L238,340.4z"/>
	<path fill="#FFFFFF" d="M258.6,345.4c0-0.1-0.1-0.1-0.1-0.2C258.5,345.3,258.6,345.3,258.6,345.4L258.6,345.4z"/>
	<path fill="#FFFFFF" d="M268.1,258.6c0.1-0.1,0.1-0.1,0.2-0.2C268.2,258.5,268.2,258.5,268.1,258.6L268.1,258.6z"/>
	<path fill="#FFFFFF" d="M262.3,166.2c0,0.1,0.1,0.1,0.1,0.2C262.4,166.4,262.4,166.3,262.3,166.2L262.3,166.2z"/>
	<path fill="#FFFFFF" d="M275,254.3L275,254.3L275,254.3z"/>
	<path fill="#FFFFFF" d="M242.3,249.3L242.3,249.3L242.3,249.3z"/>
	<path fill="#FFFFFF" d="M288.7,241.9L288.7,241.9L288.7,241.9z"/>
	<path fill="#FFFFFF" d="M285.5,233.8L285.5,233.8L285.5,233.8z"/>
	<path fill="#FFFFFF" d="M261.2,182.4c-0.2-0.2-0.4-0.4-0.5-0.6l0,0C260.9,181.9,261.1,182.2,261.2,182.4L261.2,182.4z"/>
	<path fill="#FFFFFF" d="M189.5,171.8L189.5,171.8L189.5,171.8z"/>
	<path fill="#FFFFFF" d="M275.5,204.1L275.5,204.1L275.5,204.1z"/>
	<path fill="#FFFFFF" d="M256,196L256,196L256,196z"/>
	<path fill="#FFFFFF" d="M256,196.6c0-0.2,0-0.4,0-0.6l0,0C256,196.2,256,196.4,256,196.6L256,196.6z"/>
	<path fill="#FFFFFF" d="M301.9,316.3c0.2,0,0.4,0,0.5,0l0,0C302.2,316.2,302.1,316.2,301.9,316.3L301.9,316.3z"/>
	<path fill="#FFFFFF" d="M315.1,349.7c0.2,0.2,0.4,0.4,0.5,0.6l0,0C315.4,350.1,315.2,349.9,315.1,349.7L315.1,349.7z"/>
	<path fill="#FFFFFF" d="M256.5,340.4L256.5,340.4L256.5,340.4z"/>
	<path fill="#FFFFFF" d="M256.5,340.4L256.5,340.4L256.5,340.4z"/>
	<path fill="#FFFFFF" d="M190,331.7L190,331.7L190,331.7z"/>
	<path fill="#FFFFFF" d="M300.3,280.3L300.3,280.3L300.3,280.3z"/>
	<path fill="#FFFFFF" d="M268.1,258.6C268.1,258.6,268.1,258.6,268.1,258.6L268.1,258.6z"/>
	<path fill="#FFFFFF" d="M238.5,297.7L238.5,297.7L238.5,297.7z"/>
	<path fill="#FFFFFF" d="M310.3,303.2c0-0.2,0-0.4,0-0.6l0,0C310.3,302.8,310.3,303,310.3,303.2L310.3,303.2z"/>
	<path d="M227.9,145.6c-1.2,0.1-2.4,0.1-3.6,0.2c-1.3,0.1-2.4-0.4-2.5-2.1c-0.2-3.8-0.3-7.6-0.3-11.4c0-2.1,1.2-3.2,2.8-3.5
		c3.8-0.8,7.7-1,11.5,0.3c3.8,1.3,5,5.5,6.5,9.2c0.3,0.8,0.5,1.8,0.6,2.7c0.2,1.5,0.3,3.1,0.4,4.6c-1.1,0.1-2.2,0.3-3.3,0.3
		c-2,0.1-4,0.3-6,0.3C231.9,146.1,229.9,145.8,227.9,145.6z M236.5,143.9c0,0.2,0,0.3,0,0.5c1.1-0.1,2.3-0.3,3.4-0.4
		c1.4-0.2,1.8-1.1,1.2-2.6c-1-2.7-2.1-5.4-3.2-8.1c-0.6-1.6-1.6-2.2-3.2-2.1c-3,0.1-6.1,0.1-9.1,0c-1.5-0.1-2.2,0.6-2.2,2.2
		c0,2.5,0.2,4.9,0,7.4c-0.2,2.2,0.5,3.1,2.3,3.1C229.4,143.9,232.9,143.9,236.5,143.9z"/>
	<path d="M215.1,136.6c-0.3,2.5-0.5,5.1-0.8,7.6c-0.2,1.7-1.2,2.3-2.6,2.4c-4,0.2-8,0.5-12.1,0.7c-3,0.1-4-1.2-3.5-4.6
		c0.6-4.5,1-9.1,4-12.5c0.8-0.9,2-1.7,3.1-1.8c2.9-0.3,5.8-0.1,8.7-0.1c2.1,0,3.1,1.1,3,3.6c-0.1,1.5,0,3.1,0,4.6
		C214.9,136.6,215,136.6,215.1,136.6z M203.8,145.1c2.4-0.2,4.9-0.4,7.3-0.7c0.5-0.1,1.3-0.8,1.3-1.3c0.3-3.6,0.4-7.2,0.5-10.7
		c0-0.7-0.7-2-1.1-1.9c-3.2,0.2-6.5,0.3-9.6,1c-0.9,0.2-1.7,1.9-2.3,3.1c-0.4,0.8-0.5,2-0.7,3C197.3,144.9,197.3,145,203.8,145.1z"
		/>
	<path d="M238.4,160.2c-1.3-0.2-2.7-0.2-3.9-0.5c-5.7-1.5-11.5-1-17.3-0.4c-2.9,0.3-5.8,0-8.7,0c-4.4,0-8.7,0-13.1,0
		c-1.4,0-2.8-0.1-4.2-0.3c-0.5-0.1-0.8-0.7-1.3-1.2c0.4-0.2,0.9-0.6,1.3-0.6c6.6,0,13.3,0.2,19.9,0.1c5.4,0,10.9-0.2,16.3-0.4
		c0.7,0,1.4-0.2,2.1,0c5.4,1.4,10.8,0.2,16.2,0.7c0.4,0,0.8,0.5,1.2,0.7c-0.3,0.3-0.6,0.8-1,0.8
		C243.5,159.6,240.9,159.9,238.4,160.2z"/>
	<path d="M247.9,147.9c-0.4,1.2-0.7,2.3-1,3.3c-0.3-1.1-0.7-2.1-1-3.2c-0.8-3-1.5-6.1-2.5-9.1c-0.7-2.2-1.7-4.3-2.5-6.5
		c-2.6-7-3-6.3-9-6.8c-2.2-0.2-4.5,0.8-6.7,0.8c-0.8,0-1.7-1.1-2.5-1.6c0.6-0.4,1.2-1.2,1.8-1.2c4.2,0.1,8.4,0,12.5,0.7
		c2.7,0.5,4.4,3.3,5.4,6.4c1.3,3.8,2.7,7.5,4,11.4C247,144.1,247.4,146,247.9,147.9z"/>
	<path d="M201.5,151.5c2.1-0.1,4.2-0.3,6.3-0.4c0.4,0,0.9,0.3,1.3,0.5c-0.4,1-0.8,2-1.3,3c-0.4-0.2-0.7-0.4-1.1-0.6
		c-0.6-0.3-1.1-0.9-1.7-0.9c-3.9,0-7.9,0.2-11.8,0.2c-0.7,0-1.5-0.6-2.2-0.9c0.5-0.9,0.8-2.3,1.5-2.6c1.8-0.8,3.7-1.4,5.6-1.5
		c4-0.2,8.1-0.1,12.1,0c0.7,0,1.3,0.6,2,0.9c-0.8,0.3-1.5,0.8-2.3,0.8c-3.9,0-7.8-0.1-11.8-0.1c-0.4,0-0.9,0.1-1.3,0.3
		c-0.6,0.2-1.1,0.5-1.6,0.7c0.6,0.2,1.2,0.5,1.9,0.6c1.5,0.1,3,0,4.5,0C201.5,151.3,201.5,151.4,201.5,151.5z"/>
	<path d="M232.6,149c-1.9,0-3.9,0-5.8,0c-1.5,0-2.8,0.2-3.1,2.4c-0.1,0.5-0.6,0.9-0.9,1.3c-0.4-0.5-0.9-0.9-1.1-1.5
		c-0.5-2.1,0.9-3.9,3.2-4.1c1.9-0.2,3.8-0.1,5.8,0c2.9,0.1,5.8,0.2,8.6,0.3c0.7,0,1.4,0.2,2,0.6c0.4,0.3,0.6,1.1,0.9,1.7
		c-0.5,0-1,0-1.5,0c-2.8-0.3-5.5-0.6-8.3-0.9C232.6,148.8,232.6,148.9,232.6,149z"/>
	<path d="M261.6,158.6c-0.4,0.2-1.1,0.6-1.2,0.5c-3.2-4.3-6.7-4.8-10.7-1.5c-0.1,0.1-0.8-0.8-0.8-0.9c0.3-0.7,0.7-1.5,1.2-2
		c3.1-3.1,9.4-1.5,11.1,2.8C261.4,157.7,261.4,158,261.6,158.6z"/>
	<path d="M246.5,165.6c0.6,0.1,1.2,0,1.8,0.2c0.5,0.2,0.9,0.6,1.3,0.9c-0.5,0.1-1.2,0.5-1.6,0.3C247.4,166.8,247,166.1,246.5,165.6
		L246.5,165.6z"/>
	<path d="M315.4,280.6c-0.1-0.2-0.2-0.4-0.1-0.5c0-0.1,0.2-0.2,0.3-0.3c0.1,0.2,0.2,0.4,0.1,0.5
		C315.7,280.4,315.5,280.4,315.4,280.6z"/>
	<path d="M188.8,385.4c0.1-0.1,0.1-0.2,0.2-0.2c0.1,0.1,0.2,0.2,0.3,0.3c0,0-0.1,0.1-0.1,0.2C189,385.6,188.9,385.5,188.8,385.4z"/>
	<polygon points="355.7,379 355.6,378.8 355.8,378.8 	"/>
	<path d="M248.8,381c0,0.1-0.1,0.2-0.1,0.2c-0.1,0-0.1-0.1-0.2-0.1c0.1-0.1,0.1-0.2,0.2-0.3C248.7,380.9,248.7,381,248.8,381z"/>
	<polygon points="358.2,359.9 358,360 358,359.8 	"/>
	<polygon points="348.2,351.4 348.3,351.4 348.2,351.6 	"/>
	<polygon points="325.4,336.9 325.4,337.1 325.3,337.1 	"/>
	<polygon points="126.3,391.7 126.3,391.9 126.1,391.8 	"/>
	<polygon points="371.2,374.6 371.1,374.7 371,374.6 	"/>
	<polygon points="360.1,373.7 360.2,373.5 360.3,373.6 	"/>
	<polygon points="302.6,260.9 302.6,260.7 302.7,260.7 	"/>
	<path d="M310.3,303.2c0-0.2,0-0.4,0-0.6c0.2,0.1,0.4,0.1,0.5,0.2C310.7,303,310.5,303.1,310.3,303.2z"/>
	<path d="M316.9,291c-0.1,0-0.2,0.1-0.2,0.1c0-0.1,0-0.1-0.1-0.2C316.7,290.9,316.8,291,316.9,291z"/>
	<polygon points="178.2,218.8 178.3,218.7 178.4,218.9 	"/>
	<path d="M282.9,367.7c-0.1,0-0.1,0-0.2-0.1C282.7,367.7,282.8,367.7,282.9,367.7L282.9,367.7z"/>
	<path d="M282.9,367.7L282.9,367.7L282.9,367.7z"/>
	<path d="M224.4,169.7c0.1-0.5,0.2-1.1,0.4-1.6c0.1-0.2,0.4-0.6,0.5-0.6c0.3,0.1,0.7,0.5,0.7,0.7c0.1,4.2,3.1,6.3,4.6,9.4
		c2,3.8,3.3,8.1,4.8,12.3c0.2,0.4-0.2,1.1-0.3,1.7c-0.4-0.4-1-0.7-1.3-1.2c-1.3-3-2.5-6.1-3.9-9.1c-0.6-1.3-1.4-2.7-2.4-3.6
		C225.2,175.7,224.7,172.9,224.4,169.7z"/>
	<path d="M233.3,258c0-0.1,0-0.2,0.1-0.3C233.3,257.8,233.3,257.9,233.3,258L233.3,258z"/>
	<path d="M225.9,225.1L225.9,225.1L225.9,225.1z"/>
	<path d="M225.9,225.1L225.9,225.1L225.9,225.1z"/>
	<path d="M233.3,258L233.3,258L233.3,258z"/>
	<path d="M257.5,286.5c-0.2-0.3-0.3-0.6-0.5-1c0,0,0.1-0.1,0.2-0.1c0.1,0.3,0.3,0.7,0.4,1L257.5,286.5z"/>
	<path d="M301.9,316.9c0,0.1,0,0.2-0.1,0.2C301.8,317,301.9,317,301.9,316.9L301.9,316.9z"/>
	<path d="M301.9,316.2c0.2,0,0.4,0,0.5,0c-0.2,0.2-0.4,0.4-0.5,0.6l0,0C301.9,316.7,301.9,316.5,301.9,316.2z"/>
	<path d="M262.6,256.7c0-0.1-0.1-0.2-0.1-0.2c0.1,0,0.2-0.1,0.4-0.1c0,0.1,0,0.2,0,0.3C262.8,256.6,262.7,256.6,262.6,256.7z"/>
	<path d="M254.9,308.8c0,0.1,0.1,0.1,0.1,0.2C255,308.9,255,308.9,254.9,308.8L254.9,308.8z"/>
	<path d="M287.6,257.4c0.1-0.1,0.1-0.1,0.2-0.2C287.7,257.2,287.7,257.3,287.6,257.4L287.6,257.4z"/>
	<path d="M292.4,271L292.4,271L292.4,271z"/>
	<path d="M289.7,256.7L289.7,256.7L289.7,256.7z"/>
	<polygon points="316.7,331.2 316.5,331.4 316.5,331.2 	"/>
	<path d="M244.4,343.5c0-0.1,0-0.2,0.1-0.2C244.4,343.4,244.4,343.4,244.4,343.5L244.4,343.5z"/>
	<path d="M242,363.2c-1.4,1.3-2.2,2.4-3.2,3c-0.3,0.1-1.7-1.3-1.7-2c0-1.8,1.2-2.6,2.6-2.6C240.3,361.6,240.9,362.3,242,363.2z"/>
	<path d="M236.5,369.6L236.5,369.6L236.5,369.6z"/>
	<path d="M258.1,318.1L258.1,318.1L258.1,318.1z"/>
	<path d="M233.8,338.6c0.1-0.4,0.2-0.7,0.3-1.1c0.1,0.1,0.2,0.1,0.3,0.2C234.2,338,234,338.3,233.8,338.6L233.8,338.6z"/>
	<path d="M259.7,271.6c-0.1-0.1-0.1-0.1-0.2-0.2C259.6,271.5,259.6,271.6,259.7,271.6L259.7,271.6z"/>
	<path d="M186.3,166.9L186.3,166.9L186.3,166.9z"/>
	<path fill="#FFFFFF" d="M236.5,143.9c-3.6,0-7.1,0-10.7,0c-1.8,0-2.4-0.9-2.3-3.1c0.2-2.4,0-4.9,0-7.4c0-1.7,0.7-2.3,2.2-2.2
		c3,0.1,6.1,0.2,9.1,0c1.5-0.1,2.5,0.5,3.2,2.1c1.1,2.7,2.1,5.4,3.2,8.1c0.6,1.5,0.2,2.4-1.2,2.6c-1.1,0.1-2.3,0.3-3.4,0.4
		C236.5,144.2,236.5,144.1,236.5,143.9z"/>
	<path fill="#FFFFFF" d="M203.8,145.1c-6.5-0.2-6.5-0.2-4.7-7.6c0.2-1,0.3-2.1,0.7-3c0.6-1.2,1.4-2.9,2.3-3.1c3.2-0.7,6.4-0.9,9.6-1
		c0.4,0,1.1,1.3,1.1,1.9c0,3.6-0.2,7.2-0.5,10.7c0,0.5-0.8,1.2-1.3,1.3C208.7,144.8,206.2,144.9,203.8,145.1z"/>
</g>
</svg>
