<?xml version="1.0" encoding="utf-8"?>
<!-- Generator: Adobe Illustrator 17.1.0, SVG Export Plug-In . SVG Version: 6.00 Build 0)  -->
<!DOCTYPE svg PUBLIC "-//W3C//DTD SVG 1.1//EN" "http://www.w3.org/Graphics/SVG/1.1/DTD/svg11.dtd">
<svg version="1.1" id="Ebene_1" xmlns="http://www.w3.org/2000/svg" xmlns:xlink="http://www.w3.org/1999/xlink" x="0px" y="0px"
	 viewBox="0 0 500 500" enable-background="new 0 0 500 500" xml:space="preserve">
<path fill="#FFFFFF" d="M448.7,129.9v-4.1c-0.6,0-1.2,0.1-1.8,0C447.5,127.2,448.1,128.5,448.7,129.9z"/>
<polygon fill="#FFFFFF" points="400.5,354.3 400.5,354.3 400.5,354.2 "/>
<polygon points="400.5,354.3 400.5,354.2 400.5,354.3 "/>
<g>
	<path fill="#FFFFFF" d="M258.1,78.9c-26-0.1-52,0-78,0.2c-0.3,0.8-0.6,1.6-1,2.3c2.8,0,5.6,0.1,8.4,0.1c19.5,0.2,39.1,0.2,58.6,0.4
		c4.2,0,8.4,0.1,12.5,0.2C258.5,81.1,258.3,80,258.1,78.9z"/>
	<path d="M258.7,82.1c-4.2-0.1-8.4-0.2-12.5-0.2c-19.5-0.2-39.1-0.2-58.6-0.4c-2.8,0-5.6-0.1-8.4-0.1c-0.3,0.7-0.7,1.3-1,1.9
		c4.9,0.1,9.7,0.2,14.6,0.2c5.8,0.1,5.7,0,5.7,6c0,2.2-0.6,4.6,1.5,6.2c0.4,0.3,1,0.5,1.6,0.7c0-0.5-0.1-1.1-0.1-1.6
		c0-0.3,0.3-0.8,0.4-0.8c1.4-0.1,2.9-0.2,4.2,0.1c0.8,0.2,1.3,1.2,2,1.8c0.1,0.1,0,0.2,0,0.3c0.6,5.1-0.1,5.9-5.4,5.7
		c-2.1-0.1-4.2-0.2-6.4-0.2c-5.2,0-7.6,1.4-9.4,6.4c-1.3,3.9-2.2,8-3,12.1c-0.4,2.1-1.1,3.2-3.3,3.6c-1.1,0.2-2.5,1.3-2.8,2.3
		c-1.4,4.1-4.7,6.4-7.6,9.2c-0.6,0.6-1.5,1.2-1.7,2c-0.2,0.6,0.3,1.5,0.5,2.3c0.3-0.5,0.6-1,1-1.5c0.2-0.3,0.5-0.7,0.8-0.9
		c3.9-2.9,6.9-6.5,9.7-10.4c0.4-0.6,1-1.3,1.5-1.4c3-0.3,3.2-2.1,3.6-4.7c0.7-4.7,2.2-9.3,3.6-13.8c0.7-2.2,2.7-2.9,4.9-3
		c3.9-0.2,7.9-0.2,11.8-0.3c2.8-0.1,4.1-1.2,4.3-4c0.1-2.3,0-4.6,0-6.9c2.6,0.2,5.3,0.4,7.9,0.6c-1.3,1.2-1.8,6.7-0.7,7.7
		c0.2,0.2,0.8,0,1.2-0.2c0.2-0.1,0.3-0.6,0.3-0.8c-0.7-4.6,2.4-5,5.7-5.4c4.2-0.6,6.4-3.6,6.1-8c-0.2-2.7,0.1-3,2.8-2.9
		c8.6,0.1,17.2,0.2,25.8,0.3C259,83.5,258.8,82.8,258.7,82.1z M200.7,83.7c0.4,0.6,0.7,0.8,0.7,0.9c0,0.6-0.2,1.1-0.3,1.6
		c-0.2-0.2-0.5-0.3-0.5-0.5C200.5,85.2,200.6,84.7,200.7,83.7z M201.4,92c-0.3-0.2-0.6-0.5-0.9-0.7c0.2-0.2,0.4-0.5,0.5-0.4
		c0.4,0.3,0.8,0.6,1.4,1C201.9,92,201.6,92.1,201.4,92z M209.2,92.7c-0.4-0.1-0.8-0.3-1.2-0.5c0.4,0,0.9,0,1.3,0.1
		c0.3,0.1,0.5,0.3,0.7,0.5C209.7,92.8,209.4,92.8,209.2,92.7z M212,90.9c-1.9-0.6-4-0.7-6-0.7c-1.7,0-2.8-0.3-2.7-2.3
		c0.2-1.8,0-3.9,2.6-4c2.9-0.1,5.8,0,8.8,0c0,0,0,0,0,0.1c2.2,0,4.4,0,6.7,0c1.3,0,3-0.4,3,1.6c0,1.8,0.3,4.3-2,4.9
		C219.1,91.1,215.6,92,212,90.9z M223.6,93c-0.3,0-0.6-0.1-1-0.2c0.2-0.2,0.5-0.4,0.7-0.4c3.2-0.2,3.4-2.6,3.7-5
		c0.1-0.7,0.4-1.3,0.5-1.9c0.3,0.7,0.6,1.3,0.6,1.5C228.3,91.1,227.1,92.5,223.6,93z"/>
	<path d="M349.4,359.7c-1.3-3.5-2.8-6.9-4.1-10.4c-0.8-2-1.3-4-2-6c-0.9-2.6-1.7-5.2-3-7.6c-2.2-4-0.8-7.7,0.8-11.3
		c0.9-2,0.5-3.3-0.8-4.6c-0.9-0.9-1.9-1.9-3-2.6c-2.7-1.5-4-3.9-5.1-6.6c-4-10.1-8-20.1-12-30.2c-0.3-0.7-0.4-1.4-0.5-2.1l0-0.6
		c-2.3-5.2-4.8-10.3-6.8-15.6c-2.9-7.7-5.3-15.5-8-23.2c-2.3-6.8-4.6-13.6-7.2-20.3c-2.5-6.4-5.3-12.7-7.8-19.1
		c-3.5-8.8-6.7-17.8-10.2-26.6c-3.6-9.2-7.5-18.4-11.3-27.5c-0.9-2.1-1.6-4.1-0.5-6.4c0.4-0.8,0.6-1.4,1.3-0.2
		c1,1.6,1.6,0.7,1.8-0.5c0.5-2.5-1.5-6.5-3.9-7.6c-1.9-0.9-3.8-1.8-5.7-2.7c-3.1-1.5-6.3-2.2-9.7-1.6c-0.7,0.1-1.3,1-2,1.5
		c0.7,0.2,1.4,0.7,2.1,0.7c4.7,0,9,1.3,12.7,4.3c2.4,2,2.7,3,1.5,6c-0.7,1.6-1.1,3.4-1.6,5.1c-2.3,0.1-4.1,1-5.5,2.9
		c-0.7,1-1.4,1.9-2.3,2.6c-2,1.6-2,1.8,0.1,3c2.7,1.5,5.6,3,5.8,6.6c0.1,0.1,0.1,0.1,0.2,0.2c-0.1-0.1-0.1-0.1-0.2-0.2
		c-2.9-1-5.9-2-8.8-3.1c-1.5-0.5-4-1.2-4-1.9c-0.1-1.8,0.9-3.8,1.4-5.6c0.1-0.2,0.3-0.3,0.4-0.4c0.6-0.7,1.2-1.4,1.8-2.2
		c-1.1,0.2-2.4,0.1-3.2,0.7c-2.8,1.6-3.1,4.7-3.3,7.4c-0.2,2.5,0.3,5.1,0.4,7.7c0.6,11,1.2,22,1.8,33c0.2,3.7,0.3,7.5,0.4,11.2
		c0,0.4,0.1,0.8-0.1,1.2c-0.2,0.5-0.6,1-0.9,1.5c-0.3-0.5-0.8-0.9-0.8-1.4c-0.3-4.2-0.6-8.5-0.8-12.7c-0.2-4.5-0.3-9.1-0.6-13.6
		c-0.1-1.5-0.8-2.9-1.2-4.3c-0.2-0.8-0.6-1.5-0.7-2.3c-0.1-6-1-12,0.5-18.1c0.8-3.3,0.3-6.8,0.5-10.2c0.1-0.9,0.6-1.8,0.9-2.6l0,0
		c-2.2-0.9-4.8,0.7-4.7,2.8c0.2,6.6,0.1,13.1,0.5,19.7c0.3,6,1.2,12.1,1.6,18.1c0.4,6.3,0.7,12.5,0.8,18.8c0.1,3.8-0.3,7.6-0.5,11.4
		c0,0.1-0.1,0.2,0,0.3c1.9,3-0.2,5.9-0.1,8.9c0,0.7-0.2,1.3-0.3,2c-0.3-0.6-0.8-1.1-1-1.8c-1.2-5-2.5-10-3.4-15.1
		c-2.2-11.4-2-23-1.6-34.5c0.2-7.1,0.5-14.2,0.5-21.3c0-1.8-0.5-3.6-0.8-5.4c-0.2-1.2-0.6-2.5,1.2-2.9c0.3-0.1,0.4-0.5,0.7-0.8
		c-0.3-0.1-0.6-0.3-0.8-0.3c-5.5-0.3-11-0.6-16.6-0.8c-4.7-0.2-9.5-0.4-14.3-0.6c-4.8-0.2-9.7-0.7-14.5-0.8c-2.1,0-4.2,0.4-6.1,1.1
		c-0.8,0.3-1.7,1.8-1.8,2.8c-0.8,6.4-1.6,12.8-2.2,19.2c-1,10.8-1.8,21.7-2.7,32.5c-0.3,4-0.8,8.1-1.2,12.1
		c0.4-10.2,0.7-20.5,1.4-30.7c0.5-7.3,1.6-14.5,2.2-21.7c0.4-4.2,0.5-8.4,0.8-12.6c0.1-1.9-0.7-2.6-2.6-2.4c-1.4,0.1-2.9,0-4.2,0.2
		c-1.1,0.1-3.1,0.6-3.1,0.9c0,1.8,0.1,3.8,0.9,5.4c0.7,1.3,3.1,2,3.4,3.3c0.2,0.9-2,2.2-2.7,3.6c-0.8,1.7-1.6,3.6-1.6,5.4
		c0,5.3,0.5,10.7,0.6,16c0.1,3.3-0.1,6.7,0,10c0.1,4.6,0.4,9.1,0.6,13.6c0.2,7.7,0.5,15.3,0.6,23c0.1,7.3-0.1,14.6,0,21.9
		c0.1,6.2,0.8,12.3,1,18.5c0.1,5-0.1,10.1-0.1,15.1c0,1.6,0.2,3.2,0.4,4.8c0.1,1,0.5,2,0.5,3c0.1,9.5,0.3,18.9,0.2,28.4
		c-0.1,5.2-0.8,10.4-1.1,15.6c-0.1,2.3,0,4.6-0.1,7c-0.1,0.6-0.9,1.2-1.3,1.9c-0.5-0.6-1.3-1.2-1.5-1.9c-0.3-1.2-0.1-2.4-0.2-3.7
		c0-0.4-0.2-0.9,0-1.2c1.8-3.2,0.1-6.7,0.5-10c0.5-3.6,0.8-7.3,0.9-10.9c0.1-3.5-0.1-7.1-0.2-10.6c-0.4-10.3-1-20.6-1.1-30.9
		c-0.4-19-0.4-38.1-0.8-57.1c-0.1-7.7-0.7-15.4-0.8-23.1c-0.1-9.8,0.2-19.6,0.2-29.4c0-1,0-2-0.1-3c-0.1-1.6-0.7-2.6-2.6-2.7
		c-2,0-3.2-1.1-3.3-3.2c-0.1-2.1,1.1-2.8,3.1-2.9c0.5,0,1.2-0.5,1.3-0.9c0.1-0.5-0.3-1.5-0.6-1.5c-1.9,0-1.6-0.9-0.8-1.9
		c1.6-2.2-0.8-3.7-0.8-5.7c0-0.1-0.2-0.2-0.4-0.3c-0.1,0.3-0.3,0.5-0.3,0.8c0,0.9,0.1,1.8,0.1,2.7c-0.1,2.4-0.4,4.5-2.9,5.9
		c-1,0.6-2.1,2.9-1.7,3.7c0.9,1.9,2.4,3.9,4.2,4.8c3,1.5,2.9,1.1,2.6,4.4c-0.4,4.5-0.2,9.1-0.2,13.7c0,4.4-0.1,8.9,0,13.3
		c0.2,6.3,0.5,12.5,0.7,18.8c0.2,7.5,0.3,14.9,0.5,22.4c0.1,6.1,0.4,12.1,0.5,18.2c0.1,7.4,0,14.8,0,22.2c0,3,0.3,6,0.1,9
		c-0.2,3-1,3.5-4.1,3.5c-3.1,0-6.3,0-9.4,0c-1.8,0-2.9,0.8-3.8,2.5c-1.5,2.9-2.7,5.7-1.4,8.9c0.5,1.2,1.5,2.6,2.5,2.9
		c2.4,0.7,5,0.8,7.5,0.9c2.5,0.2,5-0.1,7.5,0.2c0.8,0.1,2,1.1,2.1,1.9c0.3,2,0.3,4,0.2,6.1c-0.1,2-0.9,3.4-2.8,4.6
		c-4.1,2.6-6.6,6.3-7.4,11.3c-0.7,4.1-2,8-3.1,12c-0.2,0.7-0.4,1.4-0.4,2.1c0,0.1,0.6,0.3,0.9,0.4c0.2,0,0.5-0.1,0.7-0.2
		c0.4,4.3,4,4.2,7,5c1.3,0.3,2.5,1.1,3.8,1.3c1.2,0.2,2.7,0.3,3.7-0.2c2.5-1.2,4.5-0.4,7.1,0.3c5.9,1.7,7.6,5.4,8.4,11.1
		c0.9,6.5,3.4,12.7,5.1,19c0.7,2.7,1.3,5.5,1.9,8.3c0.1,0.4,0.5,0.8,0.7,1.2c0.2-0.4,0.6-0.8,0.6-1.2c0.1-0.9,0-1.8,0-2.7
		c2.6,3.7,3.7,7.8,3.6,12.3c0,0.8,0.1,1.7,0.4,2.4c2.8,5.3,1.1,11.1,1.6,16.6c0,0.3-1.1,0.8-1.7,1.1c-0.8,0.3-1.6,0.5-2.4,0.8
		c0.9,0.3,1.7,0.9,2.6,0.9c9.8,0.3,19.6,0.4,29.5,0.6c1.1,0,2.2,0,3.2,0c0.1-0.5,0.3-1,0.6-1.5c0.4-0.6,0.9-1.2,1.4-1.8
		c-0.1-0.2-0.1-0.4-0.1-0.7c0-4.3,0.1-8.7,0.2-13c0-0.8,0.5-1.6,0.8-2.4c0.5,0.3,1.4,0.5,1.4,0.9c0.1,0.9-0.1,1.8-0.3,2.7
		c-0.1,0.5-0.6,1.3-0.5,1.4c2.2,1.7,1.2,4.1,1.5,6.2c0.1,0.7,0.3,1.4,0.6,2.1c0.1,0,0.1,0,0.2-0.1c0.3-0.6,0.6-1.2,1.1-1.8
		c0,0,0-0.1,0-0.1c0.1-7.2,0-14.3,0-21.5c0-3.3,0.1-6.7,0-10c-0.1-2.2,0.8-3.5,2.7-4.6c0.9-0.5,1.4-1.8,2.1-2.7
		c-1.5-1.1-2.2,0.4-3.4,0.9c-4.1,1.7-4,5.1-3.9,8.6c0,0.2,0,0.4,0,0.6c-0.2,1.2,0.4,2.9-1.5,3.1c-0.2,0-0.8-1.9-0.9-3
		c-0.3-3.8-0.4-7.6-0.8-11.4c-0.1-0.8,0.6-3.6-2.2-2.1c-0.1,0-0.5-0.4-0.5-0.6c-0.2-2.7-0.5-5.4-0.6-8.2c0-1.6,3.5-4.5,5.2-4.4
		c0.3,0,0.9,0.7,0.9,1.1c0.1,1-0.1,2,0.1,3c0.4,1.5,1.3,2.1,3,1.6c3.5-1.1,6.2-2.8,6.3-7c0-1.2,0.2-2.7,2-3c0.4-0.1,0.8-1.3,0.8-2.1
		c-0.4-8.7-0.8-17.4-1.2-26c-0.1-2.7,0.4-5.4,0.4-8.2c-0.1-5.2-0.4-10.5-0.5-15.7c0-0.9-0.2-1.9,0-2.7c0.2-0.9,0.7-1.7,1.1-2.5
		c0.8,0.8,2.2,1.5,2.3,2.3c0.4,5.1,0.5,10.3,0.6,15.4c0.1,4.6,0.1,9.3,0,13.9c-0.2,8.2-0.8,16.4-0.9,24.6c-0.1,4.2,0.6,8.4,0.7,12.6
		c0,3.4,0.3,7-3.7,8.9c-0.5,0.2-1,0.5-1.2,0.9c-0.3,0.4-0.4,1-0.5,1.6c0.6,0.1,1.2,0.4,1.6,0.2c2.3-1.1,4.2-2.6,4.9-5.1
		c0.5-2,1.9-3.1,3.8-2.6c1.1,0.3,2.3,1.3,3,2.3c1.9,2.6,1,7.5-1.7,9.3c-2.3,1.5-2.9,3.4-2.8,5.9c0.1,1.7,0.4,4.3-2,4.4
		c-2.4,0-1.7-2.4-1.9-4.1c-0.2-2.5,0-5.2-2.7-6.7c-0.6-0.3-1.4-0.3-2.1-0.5c0.1,0.6,0,1.6,0.4,1.9c2.7,2.1,2.9,4.9,2.5,8
		c-0.2,1.8,0.8,3,2.4,3.8c1.6,0.8,2.6-0.1,3.8-1c1.9-1.6,2.8-3.5,2.5-6.1c-0.2-1.2,0.6-2.6,1.2-3.7c1-1.9,2.4-3.5,3.1-5.5
		c0.5-1.4,0.5-3.3-0.1-4.6c-1-2.3-0.7-4.2,0.5-6c2.5-3.6,2.9-7.7,3.4-11.8c0.1-1-0.8-2.4-1.6-3.2c-1.6-1.4-2.4-3.9-1.5-5.7
		c0.1-0.3,0.7-0.5,1.1-0.4c1.7,0.3,3.4,0.7,5,1c2.4,0.4,4.3-0.3,6.1-2c1.3-1.3,2.8-2.3,4.4-3.2c7-4,14-8,21-12
		c0.4-0.2,0.9-0.2,1.4-0.4c0.1,0.6,0.3,1.2,0.2,1.6c-0.4,1.1-1.1,2.1-1.6,3.3c-0.6,1.5-0.3,2.9,1.3,3.6c1.8,0.8,2.2-0.7,2.7-1.9
		c0.3-0.7,0.5-1.3,0.8-2c0.6-1.3,1.3-1.8,2.9-1.1c6.1,2.7,12.3,5.2,18.4,7.8c1.7,0.7,2.9,1.6,3.7,3.6c2.9,7.6,6.2,15,9.3,22.5
		c1.2,2.8,2.9,4.8,6.1,5.3C349.2,362.1,350.1,361.4,349.4,359.7z M162.3,329c1.5-5.2,0.6-11.3,5-15.6c0.4-0.4,0.8-1,1.3-1.2
		c0.4-0.2,0.9-0.1,1.4-0.1c0,0.5,0.2,1,0,1.4c-0.3,0.6-0.9,1.1-1.4,1.6c-4.1,4.5-4.4,7.7-1.2,12.7c0.3,0.5,0.4,1.1,0.6,1.7
		c-1.5,0.1-3,0.3-4.4,0.4C163.1,329.9,162.3,329.2,162.3,329z M164.9,332.4c0-0.1,0.3-0.2,0.4-0.4c0.1,0.2,0.5,0.4,0.4,0.6
		c-0.1,0.2-0.4,0.4-0.7,0.7C165,332.9,164.9,332.6,164.9,332.4z M167,337.9c-0.5,0-1-0.3-1.6-0.5c0.5-0.2,1-0.3,1.3-0.4
		c0.9,0.2,1.5,0.3,2.2,0.4C168.2,337.6,167.6,337.9,167,337.9z M169.8,333.8c-0.2,0.2-0.8,0.5-1,0.4c-0.3-0.2-0.6-0.7-0.6-1.1
		c-0.1-1.2-0.1-2.3-0.1-3.5C170.1,330,171.1,332.3,169.8,333.8z M170.4,323.9c-0.2,0.7-0.5,1.3-0.7,1.9c-0.5-0.6-1.3-1.1-1.3-1.8
		c-0.1-1.4,0-2.8,0.4-4.1c0.2-0.7,1-1.3,1.6-1.9c0.3,0.8,0.5,1.6,0.7,2.2C170.8,321.6,170.7,322.7,170.4,323.9z M170.2,293.2
		c-0.2,0.7-1.4,1.2-1.7,1.5c-4.3,0-7.8,0.1-11.3-0.1c-1-0.1-2.8-0.9-2.8-1.4c-0.1-1.6,1.1-2.4,2.8-2.5c3.5-0.1,7-0.3,10.5-0.2
		C169.1,290.6,170.6,291.4,170.2,293.2z M170.7,289.4c-4.3-0.1-8.5-0.3-12.8-0.3c-1.7,0-3-0.2-3.3-2.1c-0.3-1.8,0.9-3.4,2.8-3.5
		c2.7-0.1,5.4,0,8.1,0c0-0.1,0-0.2,0-0.3c0.6,0,1.2,0.1,1.8,0.1c1.3,0.1,3.4-0.3,3.6,0.3c0.7,1.5,0.6,3.3,0.7,5
		C171.7,288.8,171,289.4,170.7,289.4z M237.9,380.7c0.4,0.5,1.1,1,1.1,1.5c0,0.5-0.6,1-1.4,2.1c-0.4-1.2-0.7-1.8-0.7-2.4
		C237,381.5,237.6,381.1,237.9,380.7z M237.7,385.6c0.5,0.6,1.4,1.3,1.3,1.9c-0.1,0.8-0.9,1.5-1.4,2.2c-0.4-0.4-0.8-0.9-1.3-1.5
		C236.9,387.3,237.3,386.5,237.7,385.6z M314.1,272.3c0.8,1.4,0.6,1.6,0.5,1.8c-0.2-0.3-0.5-0.6-0.6-0.9
		C313.9,272.9,314,272.6,314.1,272.3z M311.1,263.8c0.4,1.2,0.7,2.4,1.1,3.6c-0.5-1.1-1-2.2-1.6-3.4
		C310.8,263.9,310.9,263.8,311.1,263.8z M306.6,251.9c0.2,0.2,0.4,0.3,0.6,0.5c-0.2,0.3-0.3,0.5-0.4,0.7c-0.2-0.2-0.5-0.3-0.5-0.5
		C306.3,252.4,306.5,252.2,306.6,251.9z M287.3,200c0.4,0.8,0.8,1.6,1.1,2.4c0.1,0.3-0.1,0.8-0.1,1.2c-0.3-0.3-0.8-0.6-0.9-1
		C287.3,201.7,287.3,200.8,287.3,200z M283.7,191.2c0.2,0.2,0.5,0.4,0.6,0.6c1,2.6,1.9,5.3,2.9,7.9c-1.2-2.6-2.4-5.2-3.6-7.8
		C283.5,191.7,283.7,191.4,283.7,191.2z M285.8,205.6c1.4,4.8,3.4,9.2,5.9,13.6c2,3.5,3,7.7,4.4,11.6c0.2,0.6-0.2,1.3-0.3,2l0,0
		c3.1,5,5,10.4,6.6,16c1.3,4.5,2.8,9.1,4.9,13.3c3.6,7.5,5.7,15.5,9,23.1c1.3,3,2.4,6,2.2,9.3c0,0.8-0.6,1.5-1,2.3
		c-0.5-0.5-1.3-1-1.6-1.6c-1.6-4.2-3.2-8.5-4.7-12.8c-3-8.4-5.9-16.7-8.9-25.1c-1.2-3.5-2.3-7-3.5-10.5l0,0
		c-1.8-4.5-3.7-8.9-5.5-13.4l0,0c-1.6-4.4-3.2-8.9-4.8-13.3c-2.5-7.1-4.9-14.2-7.4-21.4C284,200.2,285,202.9,285.8,205.6z
		 M262,279.6c7.1-0.2,14.3-0.5,21.4-0.8c1.9-0.1,3.8-0.2,5.7-0.6c2.6-0.4,3.5-1.7,3.2-4.2c-0.5-4.7-2.1-9.1-6.1-12
		c-0.9-0.7-2.5-0.9-3.6-0.7c-3.4,0.7-6.6,0.9-10.2,0.4c-4.5-0.7-9.2-1.5-13.7,0.1l-0.1,0.1c-0.7-0.2-1.9-0.3-2.1-0.7
		c-1.9-5.3-0.8-7.7,4-11c4.3-3,8.3-6.5,12.3-9.8c2.4-2,4.8-4,7.2-6c2.6-2.3,7.8-1.1,9.1,2.1c1.3,3.1,2.5,6.2,3.7,9.3
		c1.7,4.5,3.2,9.1,4.9,13.6c2.6,6.8,5.3,13.5,7.9,20.3c1.4,3.7,2.7,7.5,4.1,11.3c0.2,0,0.4,0,0.6,0c0.8,1.7,2,3.4,2.4,5.2
		c0.4,1.6,0.1,3.3-0.2,5c-0.3,2.2-1.2,4.3-1.4,6.4c-0.2,2-1.2,3.2-3.2,2.6c-3.9-1.2-7.9-2.3-11.7-4c-9.1-4-18-8.2-27-12.5
		c-2-1-3.6-3-5.7-3.9c-3.9-1.6-2.8-5.1-3.7-8C259.7,280.5,260.2,279.7,262,279.6z M260.1,276.4c0.5-0.3,1.1-0.9,1.6-0.9
		c5.9-0.7,11.8-1.9,17.8-0.8c2.2,0.4,4.4,0.2,6.6,0.3c0.6,0,1.3,0.4,1.9,0.7c-0.7,0.3-1.3,0.8-2,0.9c-2.3,0.3-4.6,0.4-6,0.6
		c-6.7,0-12.4,0-18.2,0C261.3,277.1,260.7,276.7,260.1,276.4z M266.1,266.7c-0.8,0.2-1.6,0.5-2.3,0.7c-0.2,0.1-0.4,0-1.3,0
		c-0.2,0-1-0.2-1.9-0.4c0.9-0.2,1.8-0.5,2.7-0.7c0.2,0,0.4,0,0.6,0C264.6,266.4,265.3,266.6,266.1,266.7z M257.7,264.4
		c-0.3,0.4-0.5,0.8-0.8,1.2c0.1-0.4,0.2-0.9,0.3-1.3C257.4,264.3,257.5,264.4,257.7,264.4z M257.3,247.2c0.3-0.8,1-1.5,1.7-2
		c4.4-3,8.9-5.9,13.4-8.8c0.4-0.3,0.9-0.3,1.4-0.5c-0.2,0.5-0.2,1.2-0.6,1.5c-4,3.4-8.1,6.7-12.1,10.1c-0.7,0.5-1.3,1-2,1.4
		c-0.6,0.3-1.2,0.5-1.9,0.7C257.3,248.7,257,247.8,257.3,247.2z M275.6,231.9c0.4-0.1,0.9-0.2,1.3-0.3c-0.4,0.2-0.8,0.5-1.2,0.7
		C275.7,232.2,275.6,232,275.6,231.9z M285.7,224.8c-0.5-0.8-0.9-1.6-1.3-2.5c0-0.1,0.3-0.4,0.5-0.6c0.5,0.7,0.9,1.5,1.4,2.2
		C286,224.4,285.9,224.6,285.7,224.8z M286.8,227.7c0,0.3-0.3,0.6-0.4,0.8c-0.2-0.2-0.5-0.4-0.6-0.6c-0.1-0.2,0.2-0.5,0.3-0.8
		C286.5,227.4,286.9,227.6,286.8,227.7z M284.3,217c-5.1-9.4-8.2-19.5-11.6-29.6c-2.7-8.1-6-16.1-8.9-24.2c-0.4-1.1-0.6-2.3-0.9-3.4
		c1.5,3.3,3.2,6.5,4.5,9.8c4,10.5,7.8,21,11.7,31.5c1.9,5.2,3.9,10.4,5.8,15.6c0.2,0.4,0.1,0.9,0.2,1.4
		C284.9,217.8,284.5,217.4,284.3,217z M286.4,230.9c0.3,0.1,0.5,0.3,1,0.6c-0.4,0.1-0.7,0.3-0.9,0.3c-1.6-0.3-3.1-0.6-4.7-1
		c-0.2-0.1-0.4-0.4-0.6-0.6c0.3-0.1,0.6-0.3,0.8-0.3C283.5,230.2,284.9,230.5,286.4,230.9z M293.9,242.8c-0.1-0.2,0.1-0.5,0.2-0.8
		c0.4,0.5,0.8,1,1.1,1.4c-0.2,0.5-0.3,0.8-0.3,1C294.5,243.9,294.2,243.4,293.9,242.8z M272.5,162.7c0.3,0.4,0.7,0.7,0.9,1.1
		c1.8,5.1,3.6,10.3,5.4,15.4c0.1,0.2,0.1,0.4,0.2,0.6c-0.1-0.2-0.1-0.4-0.2-0.6c-2.2-5-4.4-9.9-6.5-14.9
		C272.1,163.9,272.4,163.3,272.5,162.7z M266.6,148.4c0.2,0.2,0.4,0.5,0.5,0.7c1.4,2.8,2.7,5.5,4,8.3c0.1,0.3-0.1,0.8-0.2,1.3
		c-0.2-0.3-0.6-0.5-0.7-0.9c-1.3-2.8-2.6-5.6-3.9-8.5c-0.1-0.3-0.2-0.6-0.2-0.9C266.1,148.5,266.4,148.5,266.6,148.4z M260.2,152.1
		c-0.5-0.4-1.2-1.4-1.1-1.5c0.9-1.1,1.8-2.1,2.9-3c0.1-0.1,1.3,0.8,1.6,1.4c2.1,4.4,4.1,8.8,5.9,13.2c3.5,8.4,6.8,16.8,10.2,25.3
		c0.6,1.4,1,2.8,1.5,4.3c-0.2,0.3-0.3,0.5-0.4,0.7c-0.2-0.2-0.5-0.3-0.7-0.5c-1.8-2.9-4.1-5.6-5.4-8.8c-2.6-6.3-4.5-12.9-7.1-19.2
		C265.8,159.7,264.2,155.1,260.2,152.1z M258.1,180.8c0.2,0,0.3,0,0.5,0c0.2-5.1,0.5-10.1,0.7-15.2c0-0.9,0.2-1.8,0.3-2.7
		c0.1-0.4,0.5-1,0.6-0.9c0.4,0.1,1,0.3,1.2,0.7c0.9,1.8,1.8,3.7,2.4,5.6c2.4,7,4.8,14,7.2,20.9c1.2,3.6,2.5,7.2,3.8,10.8
		c2.2,6.1,4.5,12.1,6.7,18.2c1.6,4.4,1.5,5.6-2.3,8.4c-4.6,3.3-9.5,6.1-14.2,9.1c-1.5,1-2.9,2.1-4.4,3.1c-2.2,1.5-3.2,1.2-3.2-1.5
		c0-8.1,0.2-16.2,0.4-24.3c0-0.9,0.2-1.8,0.2-2.7C258.1,200.4,258.1,190.6,258.1,180.8z M256.8,160.5c0.1-0.4,0.7-0.8,1-1.2
		c0.1,0.4,0.3,0.9,0.3,1c-0.3,1.4-0.4,2.4-0.6,3.4c-0.1,0.6-0.2,1.2-0.4,1.9c-0.1-0.7-0.4-1.4-0.4-2
		C256.6,162.5,256.6,161.5,256.8,160.5z M256.9,174.3c-0.2,5.3-0.4,10.5-0.6,15.8c0,0.4-0.2,0.7-0.3,1.1c-0.1-0.3-0.2-0.6-0.2-0.9
		C256.1,185,256.5,179.7,256.9,174.3z M255.8,194.3c0.2,0.7,0.3,1.4,0.5,2c-0.1,0.8-0.2,1.4-0.3,2.1c-0.2-1.1-0.4-2.1-0.5-3.2
		C255.4,195,255.6,194.6,255.8,194.3z M255.2,206.6c0.2-1.3,0.5-2.6,0.8-4v4.2c-0.1,3.1-0.3,6.4-0.5,9.7c0,0.6-0.4,1.1-0.6,1.6
		c-0.2-0.5-0.6-1-0.6-1.4c0-1.9,0-3.8,0.2-5.7C254.7,209.6,255,208.1,255.2,206.6z M249.7,160c0.1-1.4,0.7-2.6,2.5-2.2
		c1.6,0.3,2.4,1,2.3,2.8c-0.3,8.1-0.5,16.1-0.8,24.2c-0.2,6.5-0.4,13-0.7,19.4c-0.1,2.2-0.6,4.4-0.9,6.6c0,0.2-0.3,0.4-0.5,0.6
		c-0.1-0.3-0.2-0.6-0.2-0.8c-0.2-2.7-0.5-5.4-0.7-8.2c0.1,0,0.2,0,0.4,0c-0.6-12.2-1.2-24.4-1.8-36.6
		C249.3,163.8,249.5,161.9,249.7,160z M248.8,215.3c0.2,0.4,0.5,0.7,0.5,1.1c0,6.3,1.9,12.6,0.9,19c0,0.3-0.2,0.6-0.2,0.9
		c-0.1-0.3-0.3-0.5-0.3-0.8c-0.1-1.2-0.2-2.4-0.3-3.6c0.1,0,0.1,0,0.2,0c-0.3-5-0.7-10.1-1-15.1
		C248.5,216.2,248.7,215.7,248.8,215.3z M247.6,262c0.1,1.2,0,2.4,0,3.6c0.1,0,0.2,0,0.2,0c-0.1,1.2-0.3,2.3-0.4,3.5
		c-0.3-1.1-0.6-2.3-0.8-3.4c-0.2-1.2-0.4-2.4-0.4-3.6c0-0.3,0.5-0.7,0.8-1.1C247.2,261.4,247.6,261.7,247.6,262z M243.7,238.9
		c2.3-0.8,1.5-2.3,1-3.7c-1.7-4.2,0.3-8.4,0-12.6c0-0.1,0.2-0.3,0.2-0.5c0.1,0.4,0.3,0.7,0.4,1.1c0.5,3.9,1.1,7.8,1.6,11.7
		c-0.2,0-0.4,0-0.5,0.1c0.2,6.8,0.5,13.5,0.7,20.3c0,0.7-0.4,1.4-0.6,2.2c-0.4-0.6-1-1.2-1.1-1.9c-0.8-5-1.5-10-2.2-15
		C243.2,240,243.4,239.1,243.7,238.9z M177.2,147.4c-1.6-0.7-1.5-1.6-0.7-2.8l0,0c0.4-0.4,0.9-1.1,1.1-1c0.9,0.4,2.2,0.8,2.5,1.5
		c0.4,1.3,0.1,2.9,0.1,4.4l0,0C179.2,148.7,178.3,147.9,177.2,147.4z M176.6,188.3c0,0.5-0.2,1.1-0.4,1.6c0-0.6-0.1-1.2-0.1-1.8
		c0-7.4,0-14.7,0-22.1c-0.2,0-0.3,0-0.5,0c0.1-2.7,0.3-5.4,0.4-8.2c0-0.6,0.1-1.3,0.5-1.7c1-1,2.1-1.9,3.2-2.9c0,1.2,0,2.5-0.1,3.7
		c-0.4,3.9-0.8,7.8-1.2,11.7c-0.4,3.9-0.8,7.8-1.2,11.7C176.9,183.1,176.8,185.7,176.6,188.3z M176.8,224c0.5-4.9,1.1-9.8,1.6-14.8
		c-0.2,4.9-0.4,9.9-0.6,14.8c0,0.4-0.4,0.7-0.7,1.1C177,224.7,176.7,224.3,176.8,224z M178.3,239.8c1.5-12.7,2.3-25.4,3.4-38.1
		c1.1-13,2.2-26,3.4-39c0.5-5.4,1.3-10.8,1.8-16.3c0.2-2,0.9-2.7,3-2.5c3.6,0.4,7.3,0.3,10.9,0.6c1.3,0.1,3.4,0.5,3.6,1.3
		c0.6,1.7,0.9,3.8-0.8,5.4c-1.2,1.2-2.7,2.3-3.5,3.7c-1.6,2.8-2.9,5.7-4,8.7c-2.6,7.3-3.2,15-3,22.7c0.2,8.4,0.6,16.8,0.4,25.2
		c-0.1,4.2-1.2,8.4-1.9,12.5c-0.5,2.8-1.1,5.6-1.8,8.3c-0.2,0.7-0.6,1.4-0.8,2.1c0-0.7-0.1-1.4,0-2.1c0.2-8.9,0.7-17.8,0.7-26.7
		c0.1-10.2-0.2-20.4-0.4-30.7c0-1.9-0.7-3.7-1.1-5.6c-0.3,1.8-0.8,3.7-0.8,5.5c-0.1,3.3,0,6.7,0,10c0.2,0,0.5,0,0.7,0
		c0,12.3,0.3,24.7-0.1,37c-0.2,6.8-1.1,13.7-2.4,20.5c-1.6,8.6-3.8,17.2-5.8,25.7c-0.1,0.5-0.4,0.9-0.6,1.3c-0.2-0.5-0.5-1-0.6-1.5
		C177.7,258.5,177.2,249.2,178.3,239.8z M186.3,282.4c0.3-0.2,0.7-0.4,0.8-0.8c0.4-0.7,0.7-1.5,0.9-2.3c3.1-12.6,6.3-25.1,9.4-37.7
		c0.1-0.6,0.3-1.2,0.5-1.7c0.1-0.3,0.4-0.5,0.5-0.7c0.2,0.3,0.5,0.6,0.5,0.9c0.1,1.2,0,2.4,0,3.6c0,0,0.1,0,0.1,0
		c0,5.2-1,10.8,0.3,15.7c1.1,4.2-0.4,7.5-0.5,11.2c-0.2,3.9-1,7.8-1.8,11.6c-0.5,2.5-1.8,3-5.5,2.4c-1.4-0.2-3.3-0.9-4-0.3
		c-0.8,0.6-0.5,2.6-0.5,4c0,1.1-0.2,1.9-1.5,1.4c-2.5-0.9-2.8,1-2.6,2.4c0.7,3.8-1.4,6.6-2.6,9.8c-0.2,0.6-0.9,0.9-1.4,1.4
		c-0.1-0.6-0.4-1.1-0.3-1.7c0.2-7.1,0-14.2,0.7-21.3c0.4-4.6,2.1-9,3.1-13.5c1.8-7.7,3.5-15.4,5.1-23.1c0.6-2.8,3.5-4.4,6-2.9
		c0.7,0.4,1.1,1.9,0.9,2.8c-2.4,10.1-4.9,20.2-7.4,30.4c-0.5,2.3-0.8,4.6-1.2,6.9C185.8,281.6,186.1,282,186.3,282.4z M178.3,332.6
		c-0.1-0.2-0.3-0.5-0.3-0.7c0-0.6,0.1-1.2,0.2-1.7c-0.1-2.7-0.3-5.3-0.3-7.9c0-0.8,0.9-2.3,1.1-2.2c1.4,0.3,3.6,0.6,3.2,2.5
		c-0.8,3.3-2.2,6.5-3.4,9.7C178.7,332.3,178.5,332.4,178.3,332.6z M200.5,376.4c-0.7-1-1.8-2-2.1-3.2c-1.9-6.9-3.6-13.9-5.4-20.8
		c-0.8-3-1.7-6-2.7-8.9c-0.2-0.6-1.2-1-1.9-1.3c-2.5-1.1-5-2.2-7.5-3.2c-1.5-0.6-2-1.6-1.5-3.1c1-2.9,2.1-5.7,3.2-8.5
		c0.3-0.9,0.7-0.9,1.7-0.6c2.1,0.6,4.3,0.6,6.5,0.7c0.3,0,1-0.9,0.9-1.2c-1.5-4.9,0.9-9.4,1.1-14.1c0-0.3,0.2-0.6,0.2-0.9
		c-0.1-0.8-0.2-1.6-0.3-2.4c-0.6,0.5-1.3,1-1.6,1.6c-1.5,2.5-3,5-4.4,7.6c-1,1.9-1.8,2.6-4.1,1.2c-4.5-2.7-5-3.6-3-8.7
		c0.5-1.4,0.8-2.8,1.3-4.2l0,0c0.5-1.4,1.1-2.8,1.6-4.3c1-2.8,1.9-5.5,2.8-8.3c0.1-0.4,0.2-1.1,0.3-1.1c2.7-0.3,2.8-2.8,4-4.4
		c0.9-1.1,3.6-1.4,5.3-1c1.9,0.4,0.8,2.4,0.6,3.6c-0.4,3.2-0.9,6.4-1.3,9.6c-0.1,0.7,0.2,1.5,0.4,2.2c0.4-0.7,0.9-1.3,1-2
		c1.2-5.5,2.3-11.1,3.5-16.6c0.1-0.4,0.3-0.8,0.4-1.2c0.1,0.4,0.1,0.8,0.1,1.2c0.1,2.9,0.4,5.9,0.4,8.8c0,1-0.6,2.1-1.1,3.1
		c-1.5,3-2.4,6-2.5,9.5c0,3.8-0.9,7.6-1.4,11.4c-0.4,2.7-0.8,5.4-1.2,8.1c-0.3,2,0.5,2.6,2.4,2.2c0.6-0.1,1.2-0.2,1.8-0.4
		c2.7-1,3.3-0.8,3.3,2.1c0.1,4.7,0.1,9.3,0.1,14c0,1.2-0.1,2.1-1.7,1.2c-1.2-0.6-2.5-1.1-3.7-1.5c-0.6-0.2-1.4-0.3-1.8,0
		c-0.6,0.5-1.3,1.5-1.2,2.1c0.4,2.4,1.3,4.8,1.5,7.2c0.6,6.5,3,12.3,5.9,18.1c0.3,0.5,0.8,1.1,0.8,1.6
		C201.1,373.3,200.8,374.9,200.5,376.4z M186.7,322.8c0.7-1.4,1.4-2.8,2.2-4.1c0.1-0.1,0.4,0,0.7,0c-0.2,1.4-0.3,2.8-0.7,4.1
		c-0.1,0.4-0.8,0.7-1.4,1.2C187.2,323.5,186.7,323,186.7,322.8z M200.8,320c-0.1,1-1.1,2.4-2.1,2.9c-1.8,0.9-2.7,0-2.3-2
		c1-5.2,1.9-10.5,2.8-15.7c0.1-0.7,0.3-1.4,0.4-2.1c0.1-0.3,0.3-0.5,0.4-0.8c0.1,0.3,0.2,0.5,0.2,0.8c0.3,3,0.7,6,1,9l-0.4,0
		C200.9,314.8,201.1,317.4,200.8,320z M201.7,366.3c0,0.3-0.1,0.6-0.2,0.9c-0.2-0.2-0.4-0.5-0.5-0.7c-2.4-5.9-3.7-12-4.2-18.2
		c-0.1-1.8,1-2.2,2.5-2.2c1.9,0,2.9,0.7,2.4,3.5C201.7,354.7,201.7,360.5,201.7,366.3z M192.3,237.6c-0.5,0.1-1.2,0.2-1.6,0.1
		c-0.2-0.1-0.3-0.9-0.2-1.4c0.5-2,1.1-3.9,1.6-5.8c0.9-3.6,2-7.2,2.7-10.9c0.4-2.2,1.4-3,3.5-3.3c4.4-0.6,8.7-1.7,13.1-2.4
		c6.7-1.1,13.3-0.8,19.8,1.1c0.6,0.2,1.2-0.1,1.9-0.1c-0.4-0.4-0.7-1-1.2-1.2c-2.4-0.7-4.8-1.8-7.2-1.9c-8.6-0.5-17.2-1.4-25.5,2.1
		c-2.5,1.1-3.6,0.2-3.7-2.5c-0.2-5.8-0.2-11.5-0.4-17.3c0-1.9-0.4-3.9-0.2-5.8c0.5-7,0.6-14.2,2-21.1c0.8-4.2,3.1-8.4,6.6-11.3
		c2.4-2.1,3.5-4.6,3.4-7.7c0-3.4,0.8-4.1,4.1-4.1c5.4,0,10.7-0.1,16.1-0.1c0.8,0,1.6,0,2.4,0c4.8,0.2,5,0.6,5.2,5.3
		c0.2,4.4,0.7,8.9,0.9,13.3c0.1,3.1-0.2,6.3-0.3,9.4c0,0.2-0.5,0.6-0.8,0.6c-0.4,0-0.8-0.3-1.2-0.5c-0.2,0.8-0.7,1.7-0.4,2.2
		c1.8,4.1,1.1,8.5,1.4,12.8c0.4,5.8,0.5,11.7,1.5,17.5c1.3,7,3.4,13.9,5.1,20.9l0,0c0.3,2.2,0.2,4.6,0.9,6.7
		c0.7,2.3,0.1,3.3-2.1,3.5c-4.8,0.3-9.7,0.7-14.5,0.7c-7.3,0-14.6-0.7-21.8-0.6C199.8,235.8,196,237,192.3,237.6z M238.1,287
		c0.1-0.7,0.2-1.4,0.4-2.1c0.2,0.8,0.5,1.6,0.4,2.4c0,1.6-0.2,3.2-0.4,4.8c0,0.2-0.2,0.5-0.3,0.7c-0.1-0.3-0.2-0.6-0.2-0.9
		c0-1,0-2,0-3h0C238.1,288.2,238.1,287.6,238.1,287z M237.2,280.2c-0.7-0.1-1.3-1.2-2-2c0.6-0.9,0.9-1.4,1.3-1.9
		c1.1,0.9,2.1,1.7,3.2,2.6C238.8,279.3,237.9,280.3,237.2,280.2z M237.3,322.6c-0.2,1-0.4,1.7-0.6,2.5c-0.4-0.7-1-1.4-1-2
		c0-1,0.5-2,0.8-3C236.8,320.9,237,321.8,237.3,322.6z M235.4,296.5c0.1,1.9,0.1,3.8,0.2,5.7c0.2,3.7,0.4,7.5,0.6,11.2
		c-0.6-5.7-1.2-11.4-1.8-17.1c0-0.2,0.2-0.5,0.4-0.7C235,295.9,235.4,296.2,235.4,296.5z M234.3,292.6c-0.2-0.4-0.4-0.9-0.5-1.3
		c-0.4-4-0.7-8-1-11.5v-3.8c0.3,1.1,0.8,2.1,0.9,3.2c0.4,4,0.7,8,1,12C234.8,291.7,234.5,292.2,234.3,292.6z M231.8,264.4
		c0.2,1.3,0.5,2.6,0.7,3.9c0.2,1.4,0.5,2.8,0.6,4.1c0,0.3-0.2,0.7-0.3,1c-0.2-0.3-0.7-0.5-0.7-0.8c-0.1-1.5-0.2-3-0.2-4.5
		c0,0-0.1,0-0.1,0V264.4z M231.3,260.3c0-0.4-0.2-0.8-0.1-1.1c0.1-0.6,0.3-1.2,0.5-1.8c0.1,0.5,0.1,1,0.2,1.7
		C231.8,259.3,231.5,259.8,231.3,260.3z M231,253.8c-0.5,0.4-1,0.7-1.5,1c-0.2-0.6-0.5-1.2-0.5-1.9c-0.2-4.1-0.4-8.2-0.5-12.3
		c0-0.6,0.5-1.1,0.7-1.7c0.3,0.5,0.7,0.9,0.9,1.4c1.3,3.6,2.6,7.3,3.9,11C232.8,252.3,231.9,253,231,253.8z M230.1,405.1
		c0,4.3-0.2,4.4-4.4,4.3c-5.6-0.1-11.1-0.1-16.7-0.2c-3.4-0.1-3.5-0.8-3.2-4.1c0.4-4.7,0-9.5-0.1-14.2c-0.1-4.1-0.1-8.2-0.3-12.4
		c-0.2-3.5-0.7-7.1-0.8-10.6c-0.3-8.5-0.5-17-0.8-25.4c-0.2-8.8-0.5-17.6-0.6-26.4c0-2.7,0.3-5.4,0.2-8.1
		c-0.1-10.8-0.2-21.6-0.4-32.5c-0.1-7.6-0.5-15.1-0.6-22.7c-0.1-3.9,0.3-7.9,0.5-11.8c0.1-1.6,1.1-2,2.4-2.1
		c3.6-0.2,7.3-0.5,10.9-0.8c0,0,0,0.1,0,0.1c2.5,0,5.1-0.2,7.6,0c3.5,0.3,3.8,1.3,3.7,4.8c-0.2,6-1.3,12.1,0.5,18.2
		c0.3,1-0.1,2.2-0.1,3.3c0.1,9.2,0.2,18.4,0.2,27.6c0,2.2-0.2,4.4-0.1,6.7c0,1.9,0.2,3.8,0.3,5.7c0.1,4.7,0.2,9.5,0.3,14.2
		c0,0.6-0.1,1.3,0.1,1.8c1.1,3.7,0.2,7.5,0.7,11c1,7.9-0.3,15.7,0.6,23.5c0.5,4-0.1,8-0.1,12c0,1.3,0.5,2.6,0.4,3.9
		C230.2,382.4,230.1,393.7,230.1,405.1z M231.3,316.8c-0.2-0.8-0.1-1.7-0.1-2.5c0-0.4,0.1-0.8,0.2-1.2l0,0c-0.4-0.7-1.2-1.3-1.2-2
		c-0.1-5.4,0-10.9-0.1-16.4c-0.1-5.8-0.3-11.5-0.4-17.3c0-0.3,0.1-0.5,0.2-0.8c0.2,0.2,0.4,0.4,0.5,0.7c0.1,0.4,0.2,0.8,0.2,1.2
		c0.8,10.5,1.7,20.9,2.5,31.4c0.1,1.5,0.5,3,0.5,4.5c0,0.8-0.4,1.7-0.8,2.5C232.7,317.1,231.3,317,231.3,316.8z M233.3,371.7
		c0.3,0.6,0.9,1.1,0.9,1.7c0.4,4.9,0.7,9.9,1,14.5c-0.2,7-0.4,13.7-0.6,20.4c0,0.4-0.4,0.9-0.7,1c-0.4,0.1-1.1-0.2-1.3-0.5
		c-0.3-0.8-0.5-1.7-0.6-2.6c-0.2-6.2-0.6-12.3-0.5-18.5c0.1-4.8,0.7-9.6,1.1-14.4C232.7,372.7,233.1,372.2,233.3,371.7z M240,343.2
		c-0.1-1.6-1.6-2.3-3.2-1.5c-0.9,0.4-1.6,1.2-2.4,1.8c0.4,0.6,0.6,1.5,1.1,1.7c3.7,1.6,0,1.7-0.5,2.2c-0.9,0.7-1.4,0.4-1.4-0.8
		c-0.3-7.8-0.7-15.5-0.9-23.3c0-0.6,0.4-1.2,0.6-1.8c0.1,0.5,0.3,1.1,0.4,1.6c0.2,0.8,0.1,1.7,0.5,2.4c1,1.7,1.3,3.2,0.4,5.2
		c-0.4,0.8,0.3,2.5,1,3.2c0.6,0.6,2.4,0.7,3,0.2c0.8-0.6,1.2-2,1.2-3.1c0-3.3-0.3-6.6-0.4-10c0-0.6,0.2-1.6,0.7-1.8
		c0.4-0.2,1.4,0.1,1.8,0.5c2.1,1.8,4.1,3.5,3.6,7c-0.5,3.9-0.1,8,0,12c0.1,2.3-0.9,4.1-2.8,5.4C241.6,344.9,240.1,346.6,240,343.2z
		 M244.4,350.1c-0.5,0.3-1.2,0.6-1.6,0.4c-0.4-0.2-0.4-1-0.6-1.8c0.4-0.7,0.8-1.5,1.3-2.2c0.9-1.1,1.9-2,2.9-3
		c0.1-0.1,0.6-0.1,0.6-0.1C247.5,344.6,245.7,349.4,244.4,350.1z M243.5,318L243.5,318c-0.7-0.6-1.9-1.2-2.1-1.9
		c-1.2-4.6-2.7-9.1-1.7-14c0.1-0.4,0-0.8,0-1.2c0-1,0-2,0-3c0.5,1,1.1,1.9,1.3,2.9c0.8,3.2,1.3,6.5,2.1,9.7c0.2,0.8,0.6,1.5,1.1,2.1
		c0.3,0.4,1.1,0.4,1.6,0.5c0.1-0.5,0.4-1.1,0.3-1.6c-1-4.8-2.2-9.6-3-14.4c-0.8-4.9-1.3-10-1.8-14.9c-0.2-1.6,0.8-1.7,1.9-0.9
		c1,0.7,2,1.4,3,2c1.2,0.8,1.4,1.7,1.3,3.3c-0.3,4.2,0.2,8.5,0.2,12.7c0.1,6.2,0,12.5,0,18.7c0,1,0.4,1.9,0.6,2.9
		C246.7,320,245.1,319,243.5,318z M255.7,283.9L255.7,283.9c0-4.2,0-8.4,0-12.7c0-0.4,0-0.8-0.2-1.2c-0.3-0.5-0.7-0.9-1-1.4
		c-0.4,0.5-1.1,1-1.1,1.5c-0.1,3,0,6.1-0.1,9.1c-0.1,1.7-0.5,3.5-0.8,5.2c-1.5-0.6-3.2-0.8-4.3-1.7c-3.9-3.1-7.6-6.5-11.4-9.8l0,0
		c0.2-2.4,0.8-4.9,0.5-7.3c-0.4-4.3-1.4-8.6-2-12.9c-0.6-3.8-1-7.6-1.4-11.4c-0.2-1.4-0.6-2.8,1.6-3.2c2.5-0.4,4.4,0.2,4.8,2.2
		c1,4.6,1.8,9.3,2.6,14c0.7,4.2,1,8.4,1.9,12.6c0.8,3.9,2.1,7.7,3.2,11.6c0.1,0.3,0.5,0.6,0.7,0.9c0.3-0.5,0.8-0.9,0.9-1.4
		c0.2-3.2,0.4-6.4,0.4-9.6c0-3.3-0.2-6.7-0.2-10c0-0.3,0.3-0.6,0.4-0.9c0.1,0.3,0.1,0.6,0.2,0.9c0.2,1.1,0.3,2.2,0.6,3.3
		c0.1,0.3,0.5,0.5,0.7,0.8c0.1-0.3,0.4-0.7,0.4-1c-0.1-1.1-0.4-2.2-0.4-3.3c0.2-7.7,0.5-15.3,2.1-22.8c0.7-3.2,0.2-6.6,0.3-9.9
		c0.1-1.3,0.4-2.5,0.6-3.8c0.2,1.2,0.5,2.4,0.5,3.6c-0.2,5.4-0.8,10.9-0.8,16.3c0,6.9-1.4,13.9,0.1,20.8c0.3,1.6,0.3,3.3,2.5,3.5
		c-0.7,3.2-0.1,4,2.9,3.9c8.3-0.2,16.6-0.4,24.8-0.7c0.7,0,1.4-0.5,2.1-0.8c-0.3-0.6-0.4-1.4-0.9-1.7c-1.1-0.7-2.4-1.2-3.7-1.7
		c-0.4-0.2-0.8-0.2-1.2-0.3c0.4-0.2,0.9-0.7,1.3-0.7c1,0,2.3-0.1,2.9,0.5c1.6,1.7,3.2,3.6,4.2,5.7c0.9,2,0.1,3.1-2.2,3.1
		c-3,0.1-6.1-0.3-9.1-0.3c-5,0-10.1,0.1-15.1,0.4c-1.9,0.1-3.8,0.9-4.8-1.6c-0.1-0.3-0.9-0.6-0.9-0.5c-0.3,0.5-0.9,1-0.8,1.5
		c0.2,2.5,0.6,5,1,7.4c0.3,1.4,1,2.7,1.1,4.1c0.1,0.9-0.4,1.9-0.6,2.9C256.5,286.3,255,285.9,255.7,283.9z M280.8,266.6
		c0.1-0.1,0.2-0.3,0.3-0.3c0.4,0,0.8,0,1.5,0c-0.3,0.2-0.5,0.4-0.6,0.4C281.6,266.7,281.2,266.7,280.8,266.6z M255.7,291.7
		c0-0.8,0.7-1.7,1.1-2.5c0.6,0.7,1.3,1.3,1.9,2.1c0.3,0.5,0.4,1.1,0.6,1.7l0,0c0.6,2.2,1.3,4.3,1.7,6.5c0.6,3.8,1,7.7,1.4,11.5
		c0.1,1.1-0.1,2.1-0.1,3.2c-0.6-1.8-1.1-3.6-1.8-5.4c-0.1-0.4-0.7-0.6-1-0.9c-0.2,0.5-0.5,1-0.5,1.4c0,1,0.1,1.9,0.2,2.9
		c-0.7-0.8-1.7-1.6-2-2.5c-0.7-2.4-1.3-4.9-1.5-7.4C255.5,298.8,255.6,295.2,255.7,291.7z M255.8,325.7c0.1-2.1,0.3-4.2,0.5-6.3
		c0-0.3,0.3-0.6,0.5-0.9c0.1,0.1,0.3,0.3,0.4,0.4c0.9,2.3,1.8,4.6,2.7,6.8c-0.8,1.7,0.2,4.3-2.4,4.1
		C255,329.6,255.8,327.3,255.8,325.7z M260.2,336.1c-0.2,2.3-0.6,4.5-1.1,6.8c-0.1,0.4-0.6,0.6-0.9,0.9c-0.2-0.3-0.6-0.6-0.6-0.9
		c-0.3-1.8-0.6-3.5-0.8-5.1c0-0.9-0.2-1.7,0.1-2c0.5-0.6,1.3-1.2,2-1.2C259.3,334.7,260.3,335.6,260.2,336.1z M256.5,356.7
		c-0.2-0.4-0.7-0.8-0.6-1.1c0.1-0.5,0.5-0.9,0.8-1.4c0.2,0.4,0.5,0.7,0.8,1.2C257.2,355.9,256.9,356.3,256.5,356.7z M261.7,355.1
		c-0.1,0.6-0.8,1.2-1.2,1.8c-0.3-0.7-0.8-1.5-1-2.2c-0.1-0.4,0.1-1,0.3-1.5c0.5-1.1,0.1-1.8-1.1-1.9c-1.9,0-2.4-1-2.4-2.7
		c0.1-1.7,1-1.9,2.4-2c2.2-0.1,2.3-1.8,2.7-3.4c0.1-0.3,0.4-0.6,0.6-0.8c0.1,0.3,0.2,0.6,0.2,0.9c0,1.6,0,3.2,0,4.9
		C262.1,350.5,262,352.8,261.7,355.1z M261.9,335.7c-0.1-0.3-0.4-0.7-0.4-1c0.2-0.9,0.4-1.9,0.7-2.8c0.2,0.5,0.5,1,0.8,1.6
		C262.6,334.3,262.3,335,261.9,335.7z M264.9,345.2c0.2,0.3,0.5,0.7,0.4,1c-0.3,2.1-0.7,4.3-1.1,6.4c0-2.2,0.1-4.3,0.1-6.5
		C264.3,345.7,264.7,345.5,264.9,345.2z M271.5,334c-2.6,0.8-4.7,0-5.7-2.5c-0.9-2.2-1.6-4.6-2.1-6.9c-0.6-3.4-0.9-6.8-1.3-10.2
		c1.1-0.2,1.4,0.2,1.6,1.4c0.7,4.4,1.5,8.9,2.5,13.3c0.9,4,2,4.5,6,3.5c0.9-0.2,1.7-0.4,2.6-0.6C273.9,332.7,272.8,333.6,271.5,334z
		 M280.7,329.4c-0.2,0.1-0.6,0.1-0.8,0.2c0.2-0.3,0.3-0.7,0.5-0.8c2.2-1.2,4.5-2.3,6.7-3.4C285,326.7,282.8,328.1,280.7,329.4z
		 M287.4,325.2c0.8-0.6,1.6-1.2,2.4-1.9l0.3,0.4C289.2,324.2,288.3,324.7,287.4,325.2z M297.5,319.4c-1.4,0.9-2.8,1.8-4.2,2.7
		c0,0-0.2-0.2-0.3-0.3c1.3-0.8,2.6-1.5,3.8-2.3c0.2-0.1,0.5-0.2,0.8-0.3C297.6,319.3,297.5,319.4,297.5,319.4z M297.9,319.1
		c1-0.4,1.9-0.9,2.9-1.3c0,0.1,0.1,0.2,0.1,0.2C299.8,318.4,298.9,318.7,297.9,319.1z M302.7,313.8c-5.7,3.2-11.5,6.3-17.2,9.4
		c-4.3,2.3-8.5,4.7-12.8,6.9c-2.7,1.3-3.6,0.8-4.2-2.1c-1.7-8.8-3.3-17.7-5-26.5c-0.1-0.8-0.2-1.6-0.3-2.4c0.1-0.1,0.3-0.1,0.4-0.2
		c-0.4-1.1-0.9-2.1-1.2-3.2c-0.2-0.6-0.1-1.3-0.1-2c0.7,0,1.4-0.2,2,0c6.5,3.1,12.9,6.3,19.4,9.3c1.9,0.9,3.9,1.4,5.8,2.2
		c4.4,1.9,8.8,3.8,13.2,5.7c0.7,0.3,1.2,0.9,1.8,1.4C304,312.8,303.4,313.4,302.7,313.8z M304.4,325.3c-0.1-0.1-0.4-0.4-0.4-0.4
		c0.3-0.5,0.6-1,0.9-1.5c0.1,0.1,0.2,0.2,0.4,0.4C305,324.2,304.7,324.8,304.4,325.3z M314.5,312.5c-1.3,1.8-2.7,3.4-1.9,6
		c0.2,0.5-1.1,1.4-1.9,2.4c-1.8-1.2-3-2-4.3-2.9c-0.2-0.1-0.2-0.3-0.4-0.5c-1.4-1.2-1.5-1.5,0.4-2.7c2.2-1.4,4.6-2.7,7-3.9
		c0.4-0.2,1.1,0.1,1.6,0.2C314.8,311.6,314.7,312.1,314.5,312.5z M315.9,317.9c0.8-0.5,1.6-1,2.3-1.5c0.1,0.2,0.4,0.6,0.3,0.6
		c-0.6,0.6-1.3,1.1-2,1.8C316.3,318.4,316.1,318.2,315.9,317.9z M317.3,313c0-0.3,0.4-0.5,0.6-0.8c0.2,0.3,0.4,0.6,0.6,1
		c-0.2,0.3-0.4,0.5-0.5,0.6C317.7,313.6,317.3,313.3,317.3,313z M318.3,321.7c-0.1-0.1,0.2-1.4,0.6-1.8c0.9-0.7,1.9-2.3,3.2-0.4
		c1,1.5,1.9,3,2.9,4.6C322.1,325.3,320.4,322.9,318.3,321.7z M329.6,325.9c-1.4-0.1-2.7-0.8-4-1.3l0,0c0.2-0.8,0.7-1.8,0.4-2.2
		c-1.6-2.2-1.1-5.3-3.4-7.3c-1.1-1-1.5-3.2-1.6-4.9c-0.4-3.1-0.6-3.4-3.8-3.1c-1.2,0.1-2.5,0.4-2.7-1.5c-0.1-1.3-0.5-2.3,1.6-2.4
		c0.9,0,1.6-1.9,2.6-2.6c3.5-2.7,3.6-5.9,1.9-9.7c-1.7-3.9-3.1-7.9-4.7-11.8c-0.2-0.5-0.5-0.9-0.5-1.4c0-0.6,0.3-1.2,0.5-1.8
		c0.4,0.4,1,0.6,1.2,1.1c1.7,4.1,3.4,8.2,5,12.4c3.2,8.3,6.4,16.6,9.7,24.8c0.4,1,1.1,1.9,1.9,2.7c0.8,0.9,3,1.6-0.1,2.4
		c-0.3,0.1-0.4,1.7-0.3,2.5C333.8,325.1,333,326.2,329.6,325.9z M331.9,328.2c1.1-0.7,2.1-1.4,3.2-1.9c0.1-0.1,0.6,0.3,0.8,0.5
		c-0.9,0.8-1.8,1.7-2.8,2.6C332.6,328.8,332.2,328.5,331.9,328.2z M345.5,358.6c-0.5-0.3-1.2-0.4-1.5-0.8c-0.7-1.1-1.2-2.3-1.7-3.6
		c-2.7-6.9-5.3-13.7-8-20.6c-0.2-0.5,0.1-1.2,0.2-1.8c0.7,0.1,1.5,0.1,2.2,0.4c0.3,0.2,0.5,0.9,0.7,1.3c2.7,7.3,5.5,14.5,8.2,21.8
		c0.2,0.6,0.3,1.2,0.6,2C346,357.6,345.8,358.1,345.5,358.6z"/>
	<path d="M248.4,321.6c0-0.2,0-0.3-0.1-0.5c0.1,0.2,0.2,0.5,0.2,0.7C248.5,321.7,248.5,321.6,248.4,321.6z"/>
	<path d="M280.5,197.9c0.1-0.1,0.2-0.1,0.3-0.2c0.1,0.3,0.2,0.7,0.3,1C281,198.4,280.8,198.1,280.5,197.9z"/>
	<path d="M263.9,353.1c0.1-0.1,0.2-0.3,0.2-0.4c-0.1,0.2-0.1,0.4-0.2,0.6C263.9,353.3,263.9,353.2,263.9,353.1z"/>
	<path d="M296.1,221.4c-0.1,0-0.2,0.1-0.3,0.1c-0.2-0.5-0.4-1-0.6-1.5C295.5,220.5,295.8,221,296.1,221.4z"/>
	<path d="M257.5,314.9L257.5,314.9L257.5,314.9z"/>
	<path d="M270.9,234.6c0.1-0.1,0.1-0.1,0.2-0.2C271,234.5,271,234.6,270.9,234.6L270.9,234.6z"/>
	<path d="M292.2,237.6c0,0.1,0.1,0.1,0.1,0.2C292.3,237.8,292.2,237.7,292.2,237.6c0-0.1-0.1-0.1-0.1-0.2
		C292.1,237.5,292.1,237.6,292.2,237.6z"/>
	<path d="M326.2,327.7c0.1,0,0.2,0,0.2,0.1C326.4,327.7,326.3,327.7,326.2,327.7c-0.1,0-0.2,0-0.2-0.1
		C326.1,327.6,326.2,327.7,326.2,327.7z"/>
	<path d="M291,210.3L291,210.3c0.1,0.2,0.2,0.5,0.2,0.7C291.1,210.7,291,210.5,291,210.3z"/>
	<path d="M301.9,237.6c0,0.2,0,0.4,0.1,0.5c0,0.1,0.1,0.1,0.1,0.2C302.1,238.1,302,237.9,301.9,237.6c-0.2-0.3-0.4-0.6-0.6-1
		C301.5,237,301.7,237.3,301.9,237.6z"/>
	<path d="M259.9,319.8c0-0.1-0.1-0.1-0.1-0.2C259.8,319.7,259.9,319.7,259.9,319.8c0.1,0.3,0.2,0.7,0.4,1
		C260.2,320.5,260,320.1,259.9,319.8z"/>
	<path d="M308,255.9L308,255.9c0.1,0.3,0.2,0.7,0.3,1c0.1-0.1,0.2-0.1,0.4-0.2C308.4,256.5,308.2,256.2,308,255.9z"/>
	<path d="M314.4,318.6c-0.1-0.1-0.2-0.3-0.4-0.4c-0.1,0.2-0.3,0.4-0.3,0.7c0,0,0.3,0.2,0.4,0.3C314.2,319,314.3,318.8,314.4,318.6z"
		/>
	<path d="M309.6,261.1c0.2-0.1,0.4-0.2,0.4-0.3c-0.1-0.3-0.2-0.5-0.3-0.8c-0.1,0.1-0.3,0.2-0.3,0.3
		C309.4,260.6,309.5,260.8,309.6,261.1z"/>
	<path d="M195.8,239.3c-0.1,0.1-0.3,0.1-0.4,0.2c0.1,0.2,0.1,0.3,0.3,0.4c0.1,0,0.3-0.1,0.4-0.2C196,239.6,195.9,239.5,195.8,239.3z
		"/>
	<path d="M303.5,242c-0.1-0.2-0.2-0.3-0.3-0.5c-0.1,0.1-0.2,0.2-0.2,0.4c0,0.1,0.1,0.2,0.1,0.2C303.2,242.1,303.3,242,303.5,242z"/>
	<path d="M296.9,224.7c0.1-0.1,0.4-0.2,0.3-0.3c0-0.2-0.1-0.3-0.2-0.5c-0.1,0.1-0.3,0.2-0.3,0.3
		C296.7,224.4,296.8,224.5,296.9,224.7z"/>
	<path d="M305.3,248.9c-0.1,0.2-0.1,0.3-0.2,0.5c0,0.1,0.1,0.2,0.1,0.2c0.1-0.1,0.4-0.2,0.3-0.3C305.6,249.1,305.4,249,305.3,248.9z
		"/>
	<path d="M176.3,197.1c0-0.2,0.1-0.3,0.1-0.4c-0.1,0-0.2,0.1-0.2,0.1C176.2,196.9,176.2,197,176.3,197.1z"/>
	<path d="M229.9,272.7c-0.1,0.2-0.2,0.3-0.2,0.4c0.1,0,0.1,0,0.2,0C229.9,273,229.9,272.9,229.9,272.7z"/>
	<path d="M257.2,170.8c0-0.1-0.1-0.2-0.1-0.2c0,0.1-0.1,0.1-0.1,0.2c0,0.1,0.1,0.2,0.1,0.2C257.2,170.9,257.2,170.8,257.2,170.8z"/>
	<polygon points="237.5,328.4 237.4,328.2 237.3,328.4 	"/>
	<polygon points="338.2,323.3 338.3,323.4 338.4,323.3 	"/>
	<polygon points="296.2,247.1 296.1,247 296,247.1 	"/>
	<polygon points="235.9,269.5 235.8,269.7 236,269.7 	"/>
	<polygon points="248.1,211.9 248.1,211.7 248,211.8 	"/>
	<path fill="#FFFFFF" d="M240.3,405.5c-0.2-0.7-0.5-1.4-0.6-2.1c-0.3-2.1,0.6-4.5-1.5-6.2c-0.1-0.1,0.4-0.9,0.5-1.4
		c0.2-0.9,0.4-1.8,0.3-2.7c0-0.3-0.9-0.6-1.4-0.9c-0.3,0.8-0.8,1.6-0.8,2.4c-0.1,4.3-0.2,8.7-0.2,13c0,0.3,0.1,0.5,0.1,0.7
		C237.7,407.2,239,406.2,240.3,405.5z"/>
	<path fill="#FFFFFF" d="M233.3,83.8c-2.6,0-2.9,0.3-2.8,2.9c0.3,4.3-1.9,7.4-6.1,8c-3.3,0.5-6.5,0.8-5.7,5.4c0,0.3-0.1,0.7-0.3,0.8
		c-0.4,0.2-1,0.3-1.2,0.2c-1.1-1-0.6-6.5,0.7-7.7c-2.6-0.2-5.3-0.4-7.9-0.6c0,2.3,0.1,4.6,0,6.9c-0.2,2.8-1.5,3.9-4.3,4
		c-3.9,0.1-7.9,0.1-11.8,0.3c-2.1,0.1-4.2,0.8-4.9,3c-1.4,4.5-2.9,9.1-3.6,13.8c-0.4,2.6-0.6,4.4-3.6,4.7c-0.6,0-1.1,0.8-1.5,1.4
		c-2.9,3.8-5.8,7.5-9.7,10.4c-0.3,0.2-0.6,0.6-0.8,0.9c-0.3,0.5-0.6,1-1,1.5c-0.2-0.8-0.7-1.6-0.5-2.3c0.3-0.8,1.1-1.3,1.7-2
		c2.9-2.8,6.2-5.1,7.6-9.2c0.3-1,1.8-2.1,2.8-2.3c2.2-0.4,2.9-1.5,3.3-3.6c0.8-4.1,1.7-8.2,3-12.1c1.7-5,4.1-6.4,9.4-6.4
		c2.1,0,4.2,0.1,6.4,0.2c5.4,0.2,6.1-0.6,5.4-5.7c0-0.1,0-0.2,0-0.3c-0.6-0.6-1.2-1.6-2-1.8c-1.4-0.3-2.8-0.1-4.2-0.1
		c-0.2,0-0.4,0.5-0.4,0.8c0,0.5,0.1,1,0.1,1.6c-0.5-0.2-1.1-0.4-1.6-0.7c-2.1-1.7-1.5-4-1.5-6.2c0-6,0.1-5.9-5.7-6
		c-4.9-0.1-9.7-0.2-14.6-0.2c-10.4,20.5-40.6,68.3-36.4,76.9c13.3,27.5,2.8,103.6-0.8,111.1c-8.3,24.8,43,134.2,47.2,132.4
		c1.1-0.5,3-3.2,1.2-2.7c-4.1,1.2-0.6-16.1,6.4-16.2c0.4,0,0.8,0.1,1.2,0.2c0.1-0.3,0.2-0.6,0.3-0.8c0,0.3,0.1,0.7,0.2,1
		c1.7,0.7,3.2,2.4,3,4.3c-0.5,5.4,0.9,10.6-0.2,16c-0.4,2.1-2.1,3.1-3.9,3.3c0,0.3,0.1,0.5,0.1,0.8c0.6,0.3,4.8,5.1,5.9,7.5
		c0.1,0.3,2.8,3.9,3,4.1c1.1,0.6,29.1-8.3,29.3-9.4c-1.1,0-2.2,0-3.2,0c-9.8-0.2-19.6-0.4-29.5-0.6c-0.9,0-1.7-0.6-2.6-0.9
		c0.8-0.3,1.6-0.4,2.4-0.8c0.6-0.3,1.7-0.8,1.7-1.1c-0.5-5.5,1.2-11.3-1.6-16.6c-0.4-0.7-0.4-1.6-0.4-2.4c0.1-4.5-1-8.6-3.6-12.3
		c0,0.9,0.1,1.8,0,2.7c0,0.4-0.4,0.8-0.6,1.2c-0.2-0.4-0.6-0.8-0.7-1.2c-0.7-2.8-1.2-5.5-1.9-8.3c-1.7-6.4-4.1-12.6-5.1-19
		c-0.8-5.7-2.5-9.3-8.4-11.1c-2.6-0.8-4.5-1.5-7.1-0.3c-1,0.5-2.5,0.4-3.7,0.2c-1.3-0.2-2.5-1-3.8-1.3c-3-0.8-6.5-0.7-7-5
		c-0.2,0.1-0.5,0.2-0.7,0.2c-0.3-0.1-0.9-0.3-0.9-0.4c0.1-0.7,0.3-1.4,0.4-2.1c1-4,2.4-7.9,3.1-12c0.8-5,3.3-8.7,7.4-11.3
		c1.9-1.2,2.8-2.6,2.8-4.6c0.1-2,0.1-4.1-0.2-6.1c-0.1-0.8-1.3-1.8-2.1-1.9c-2.5-0.3-5,0-7.5-0.2c-2.5-0.2-5.1-0.3-7.5-0.9
		c-1.1-0.3-2.1-1.8-2.5-2.9c-1.3-3.2-0.1-6.1,1.4-8.9c0.9-1.7,2-2.5,3.8-2.5c3.1,0,6.3,0,9.4,0c3.1,0,3.9-0.5,4.1-3.5
		c0.2-3,0-6-0.1-9c0-7.4,0.1-14.8,0-22.2c-0.1-6.1-0.3-12.1-0.5-18.2c-0.2-7.5-0.3-14.9-0.5-22.4c-0.2-6.3-0.6-12.5-0.7-18.8
		c-0.1-4.4,0-8.9,0-13.3c0-4.6-0.2-9.1,0.2-13.7c0.3-3.3,0.5-2.9-2.6-4.4c-1.8-0.9-3.3-2.9-4.2-4.8c-0.4-0.8,0.7-3.1,1.7-3.7
		c2.5-1.4,2.8-3.5,2.9-5.9c0.1-0.9-0.1-1.8-0.1-2.7c0-0.3,0.2-0.5,0.3-0.8c0.1,0.1,0.4,0.2,0.4,0.3c0,1.9,2.4,3.5,0.8,5.7
		c-0.8,1-1,1.9,0.8,1.9c0.2,0,0.7,1.1,0.6,1.5c-0.1,0.4-0.8,0.9-1.3,0.9c-1.9,0-3.1,0.8-3.1,2.9c0.1,2.1,1.3,3.2,3.3,3.2
		c1.9,0,2.5,1.1,2.6,2.7c0.1,1,0.1,2,0.1,3c-0.1,9.8-0.3,19.6-0.2,29.4c0.1,7.7,0.7,15.4,0.8,23.1c0.3,19,0.4,38.1,0.8,57.1
		c0.2,10.3,0.8,20.6,1.1,30.9c0.1,3.5,0.3,7.1,0.2,10.6c-0.1,3.6-0.4,7.3-0.9,10.9c-0.5,3.3,1.3,6.7-0.5,10c-0.2,0.3,0,0.8,0,1.2
		c0,1.2-0.1,2.5,0.2,3.7c0.2,0.7,1,1.3,1.5,1.9c0.5-0.6,1.3-1.2,1.3-1.9c0.2-2.3,0-4.6,0.1-7c0.3-5.2,1-10.4,1.1-15.6
		c0.1-9.5-0.1-18.9-0.2-28.4c0-1-0.4-2-0.5-3c-0.2-1.6-0.4-3.2-0.4-4.8c0-5,0.3-10.1,0.1-15.1c-0.2-6.2-0.8-12.3-1-18.5
		c-0.2-7.3,0.1-14.6,0-21.9c-0.1-7.7-0.3-15.3-0.6-23c-0.1-4.6-0.5-9.1-0.6-13.6c-0.1-3.3,0.1-6.7,0-10c-0.2-5.3-0.6-10.7-0.6-16
		c0-1.8,0.8-3.7,1.6-5.4c0.7-1.4,3-2.7,2.7-3.6c-0.4-1.3-2.7-1.9-3.4-3.3c-0.8-1.5-0.9-3.6-0.9-5.4c0-0.3,2-0.8,3.1-0.9
		c1.4-0.2,2.8,0,4.2-0.2c1.8-0.2,2.7,0.6,2.6,2.4c-0.3,4.2-0.4,8.4-0.8,12.6c-0.7,7.2-1.8,14.5-2.2,21.7
		c-0.7,10.2-0.9,20.5-1.4,30.7c0.4-4,0.9-8.1,1.2-12.1c0.9-10.8,1.7-21.7,2.7-32.5c0.6-6.4,1.3-12.8,2.2-19.2c0.1-1,0.9-2.5,1.8-2.8
		c1.9-0.7,4.1-1.2,6.1-1.1c4.9,0.1,9.7,0.5,14.5,0.8c4.7,0.2,9.5,0.4,14.3,0.6c5.5,0.3,11,0.5,16.6,0.8c0.3,0,0.6,0.2,0.8,0.3
		c-0.2,0.3-0.4,0.7-0.7,0.8c-1.7,0.5-1.4,1.7-1.2,2.9c0.3,1.8,0.8,3.6,0.8,5.4c-0.1,7.1-0.3,14.2-0.5,21.3
		c-0.4,11.5-0.5,23.1,1.6,34.5c1,5.1,2.2,10.1,3.4,15.1c0.1,0.6,0.6,1.2,1,1.8c0.1-0.7,0.3-1.3,0.3-2c0-3,2-5.9,0.1-8.9
		c0-0.1,0-0.2,0-0.3c0.2-3.8,0.5-7.6,0.5-11.4c-0.1-6.3-0.4-12.5-0.8-18.8c-0.4-6-1.3-12.1-1.6-18.1c-0.4-6.5-0.3-13.1-0.5-19.7
		c-0.1-2.1,2.5-3.7,4.7-2.8c0,0,0,0,0,0c-0.3,0.9-0.8,1.7-0.9,2.6c-0.2,3.4,0.3,7-0.5,10.2c-1.4,6.1-0.5,12-0.5,18.1
		c0,0.8,0.4,1.5,0.7,2.3c0.4,1.4,1.1,2.8,1.2,4.3c0.3,4.5,0.4,9.1,0.6,13.6c0.2,4.2,0.5,8.5,0.8,12.7c0,0.5,0.5,1,0.8,1.4
		c0.3-0.5,0.7-0.9,0.9-1.5c0.1-0.4,0.1-0.8,0.1-1.2c-0.1-3.7-0.2-7.5-0.4-11.2c-0.6-11-1.2-22-1.8-33c-0.1-2.6-0.6-5.2-0.4-7.7
		c0.2-2.8,0.6-5.8,3.3-7.4c0.9-0.5,2.2-0.5,3.2-0.7c-0.6,0.7-1.2,1.5-1.8,2.2c-0.1,0.2-0.4,0.3-0.4,0.4c-0.6,1.9-1.6,3.8-1.4,5.6
		c0,0.7,2.6,1.3,4,1.9c2.9,1.1,5.9,2.1,8.8,3.1l0,0c-0.3-3.7-3.1-5.1-5.8-6.6c-2.2-1.2-2.1-1.4-0.1-3c0.9-0.7,1.7-1.7,2.3-2.6
		c1.4-1.9,3.2-2.8,5.5-2.9c0.5-1.7,0.9-3.4,1.6-5.1c1.2-3,0.9-4-1.5-6c-3.7-3-7.9-4.3-12.7-4.3c-0.7,0-1.4-0.5-2.1-0.7
		c0.7-0.5,1.3-1.4,2-1.5c3.4-0.5,6.6,0.1,9.7,1.6c1.9,0.9,3.8,1.9,5.7,2.7c2.3,1.1,4.4,5,3.9,7.6c-0.3,1.2-0.8,2.1-1.8,0.5
		c-0.7-1.1-1-0.6-1.3,0.2c-1,2.3-0.4,4.2,0.5,6.4c3.9,9.1,7.7,18.3,11.3,27.5c3.5,8.8,6.7,17.8,10.2,26.6c2.5,6.4,5.4,12.7,7.8,19.1
		c2.6,6.7,4.8,13.5,7.2,20.3c2.7,7.7,5.1,15.6,8,23.2c2,5.3,4.5,10.4,6.8,15.6c0.2,0.1,0.4,0.1,0.6,0.2c-0.2,0.1-0.4,0.3-0.6,0.4
		c0.2,0.7,0.3,1.4,0.5,2.1c4,10.1,8,20.1,12,30.2c1.1,2.7,2.5,5.1,5.1,6.6c1.1,0.6,2.1,1.6,3,2.6c1.3,1.3,1.7,2.6,0.8,4.6
		c-1.5,3.6-3,7.3-0.8,11.3c1.3,2.4,2.1,5,3,7.6c0.7,2,1.3,4.1,2,6c1.3,3.5,2.8,6.9,4.1,10.4c0.6,1.7-0.2,2.4-2,2.1
		c-3.1-0.5-4.9-2.5-6.1-5.3c-3.1-7.5-6.4-14.9-9.3-22.5c-0.8-2-2-2.9-3.7-3.6c-6.1-2.6-12.3-5.1-18.4-7.8c-1.5-0.7-2.3-0.2-2.9,1.1
		c-0.3,0.6-0.5,1.3-0.8,2c-0.5,1.2-0.9,2.7-2.7,1.9c-1.6-0.7-1.9-2.1-1.3-3.6c0.5-1.1,1.2-2.1,1.6-3.3c0.2-0.5-0.1-1.1-0.2-1.6
		c-0.5,0.1-1,0.1-1.4,0.4c-7,4-14,7.9-21,12c-1.6,0.9-3.1,1.9-4.4,3.2c-1.7,1.7-3.7,2.4-6.1,2c-1.7-0.3-3.4-0.7-5-1
		c-0.3-0.1-0.9,0.1-1.1,0.4c-0.9,1.8-0.1,4.2,1.5,5.7c0.8,0.8,1.7,2.2,1.6,3.2c-0.5,4.1-0.9,8.2-3.4,11.8c-1.2,1.8-1.5,3.8-0.5,6
		c0.6,1.3,0.6,3.2,0.1,4.6c-0.7,2-2.2,3.6-3.1,5.5c-0.6,1.2-1.3,2.6-1.2,3.7c0.3,2.6-0.6,4.5-2.5,6.1c-1.1,1-2.1,1.8-3.8,1
		c-1.6-0.8-2.7-2-2.4-3.8c0.4-3.1,0.2-5.8-2.5-8c-0.4-0.3-0.3-1.2-0.4-1.9c0.7,0.1,1.5,0.1,2.1,0.5c2.7,1.5,2.5,4.2,2.7,6.7
		c0.1,1.7-0.5,4.1,1.9,4.1c2.5,0,2.1-2.7,2-4.4c-0.1-2.6,0.5-4.4,2.8-5.9c2.7-1.8,3.6-6.7,1.7-9.3c-0.7-1-1.9-2-3-2.3
		c-1.9-0.5-3.2,0.6-3.8,2.6c-0.7,2.6-2.6,4-4.9,5.1c-0.4,0.2-1.1-0.1-1.6-0.2c0.2-0.5,0.2-1.1,0.5-1.6c0.3-0.4,0.8-0.6,1.2-0.9
		c3.9-1.8,3.7-5.5,3.7-8.9c-0.1-4.2-0.8-8.4-0.7-12.6c0.1-8.2,0.6-16.4,0.9-24.6c0.1-4.6,0.1-9.3,0-13.9c-0.1-5.1-0.3-10.3-0.6-15.4
		c-0.1-0.8-1.5-1.5-2.3-2.3c-0.4,0.8-0.9,1.6-1.1,2.5c-0.2,0.9,0,1.8,0,2.7c0.2,5.2,0.5,10.5,0.5,15.7c0,2.7-0.5,5.5-0.4,8.2
		c0.3,8.7,0.8,17.4,1.2,26c0,0.7-0.4,2-0.8,2.1c-1.8,0.3-2,1.8-2,3c-0.1,4.2-2.7,5.9-6.3,7c-1.7,0.5-2.6-0.1-3-1.6c-0.2-1,0-2-0.1-3
		c-0.1-0.4-0.6-1.1-0.9-1.1c-1.8-0.1-5.3,2.8-5.2,4.4c0,2.7,0.3,5.5,0.6,8.2c0,0.2,0.5,0.7,0.5,0.6c2.8-1.4,2.1,1.3,2.2,2.1
		c0.4,3.8,0.5,7.6,0.8,11.4c0.1,1.1,0.7,3,0.9,3c1.9-0.2,1.3-1.9,1.5-3.1c0-0.2,0-0.4,0-0.6c-0.1-3.5-0.2-6.9,3.9-8.6
		c1.1-0.5,1.8-2,3.4-0.9c-0.7,0.9-1.1,2.2-2.1,2.7c-2,1-2.8,2.4-2.7,4.6c0.1,3.3,0,6.6,0,10c0,7.2,0.1,14.3,0,21.5c0,0,0,0.1,0,0.1
		c0.8-0.9,60.9,0.9,65.8,1.4c1.5-1.6,60.5-14.5,71-22.2c4.3-3.2-105.8-287.5-122.5-261.4c-8.5,12.8-8.9-16.7-12.4-22.8
		C238.1,89.3,234.5,83.8,233.3,83.8z M220.7,102.3c4.8,0.1,9.7,0,14.4,0.7c3.1,0.5,5.1,3.3,6.2,6.3c1.4,3.7,3.1,7.4,4.6,11.1
		c0.7,1.8,1.1,3.6,1.6,5.5c-0.4,1.2-0.8,2.2-1.2,3.3c-0.4-1-0.8-2.1-1.2-3.1c-1-3-1.8-6-2.8-8.9c-0.8-2.2-2-4.2-2.9-6.3
		c-3-6.9-3.4-6.2-10.3-6.7c-2.5-0.2-5.2,0.8-7.7,0.8c-0.9,0-1.9-1-2.9-1.6C219.2,103,220,102.3,220.7,102.3z M220.3,107.2
		c4.4-0.8,8.9-1,13.2,0.3c4.4,1.3,5.7,5.4,7.5,9c0.4,0.8,0.6,1.7,0.7,2.6c0.2,1.5,0.3,3,0.5,4.5c-1.3,0.1-2.5,0.3-3.8,0.3
		c-2.3,0.1-4.6,0.3-7,0.3c-2.3,0-4.6-0.4-7-0.6c-1.3,0.1-2.8,0.1-4.2,0.2c-1.5,0.1-2.7-0.4-2.8-2.1c-0.2-3.7-0.3-7.4-0.4-11.2
		C217.1,108.5,218.4,107.5,220.3,107.2z M241.2,127.6c-0.6,0-1.2,0-1.7,0c-3.2-0.3-6.4-0.6-9.6-0.9c0,0.1,0,0.2,0,0.3
		c-2.2,0-4.4,0-6.7,0c-1.7,0-3.2,0.2-3.5,2.4c-0.1,0.5-0.6,0.9-1,1.3c-0.4-0.5-1.1-0.9-1.2-1.5c-0.6-2.1,1-3.8,3.7-4
		c2.2-0.2,4.4-0.1,6.6,0c3.3,0.1,6.6,0.2,10,0.3c0.8,0,1.7,0.2,2.3,0.6C240.7,126.3,240.9,127.1,241.2,127.6z M187.9,120.8
		c0.7-4.4,1.1-8.9,4.6-12.2c0.9-0.9,2.4-1.6,3.6-1.7c3.3-0.2,6.7-0.1,10-0.1c2.4,0,3.5,1.1,3.4,3.5c-0.1,1.5,0,3,0,4.5
		c0.1,0,0.2,0,0.3,0c-0.3,2.5-0.5,5-0.9,7.5c-0.2,1.7-1.4,2.3-3,2.4c-4.6,0.2-9.3,0.5-13.9,0.7C188.5,125.5,187.3,124.2,187.9,120.8
		z M183.8,127.7c2-0.8,4.3-1.4,6.4-1.5c4.6-0.2,9.3-0.1,13.9,0c0.8,0,1.5,0.6,2.3,0.9c-0.9,0.3-1.8,0.8-2.6,0.8
		c-4.5,0-9-0.1-13.6-0.1c-0.5,0-1,0.1-1.5,0.3c-0.6,0.2-1.3,0.5-1.9,0.7c0.7,0.2,1.4,0.5,2.1,0.6c1.7,0.1,3.4,0,5.2,0
		c0,0.1,0,0.1,0,0.2c2.4-0.1,4.8-0.3,7.3-0.4c0.5,0,1,0.3,1.5,0.5l-1.5,3c-0.4-0.2-0.8-0.4-1.2-0.6c-0.6-0.3-1.3-0.9-2-0.9
		c-4.5,0-9.1,0.2-13.6,0.2c-0.9,0-1.7-0.6-2.6-0.9C182.6,129.4,183,128,183.8,127.7z M245.4,137.1c-2.9,0.4-5.8,0.7-8.7,1
		c-1.5-0.2-3.1-0.2-4.6-0.5c-6.6-1.4-13.3-1-19.9-0.4c-3.3,0.3-6.7,0-10,0c-5,0-10.1,0-15.1,0c-1.6,0-3.2-0.1-4.8-0.3
		c-0.5-0.1-1-0.7-1.4-1.1c0.5-0.2,1-0.6,1.5-0.6c7.7,0,15.3,0.2,23,0.1c6.3,0,12.5-0.2,18.8-0.4c0.8,0,1.7-0.2,2.4,0
		c6.2,1.3,12.4,0.2,18.6,0.7c0.5,0,0.9,0.5,1.4,0.7C246.1,136.6,245.8,137,245.4,137.1z M247.6,144.7c-0.6-0.2-1.1-0.9-1.7-1.4
		c0.7,0.1,1.4,0,2,0.2c0.6,0.2,1,0.6,1.5,0.9C248.9,144.6,248.1,144.9,247.6,144.7z M250.1,132.6c3.5-3,10.8-1.4,12.8,2.7
		c0.1,0.3,0.2,0.6,0.4,1.1c-0.5,0.2-1.2,0.6-1.4,0.4c-3.7-4.2-7.7-4.7-12.3-1.5c-0.1,0.1-1-0.8-0.9-0.9
		C249.1,133.8,249.5,133.1,250.1,132.6z M310,370.3c-0.3,1.4-2.2,2.5-3.6,1.2c-4.4-4.4-8.6-9.1-13.1-13.5c-2-2,0.9-4.7,3-3
		c2,1.6,3.8,3.3,5.7,5c0.7-0.6,1.8-0.7,2.5,0.3c2,2.4,4.4,4.5,6.1,7.2C311.5,368.4,310.9,369.7,310,370.3z"/>
	<path fill="#FFFFFF" d="M389.9,383.2c0.5-1.2,1.1-2.4,1.7-3.6c0.4-0.6,0.8-1.3,1.3-1.9C383,387.5,385.5,392.9,389.9,383.2z"/>
	<path fill="#FFFFFF" d="M287.9,341.7L287.9,341.7c-0.1,0-0.2,0-0.2-0.1C287.8,341.6,287.8,341.7,287.9,341.7z"/>
	<path fill="#FFFFFF" d="M239.8,90.8c-0.2,0-0.3,0.1-0.5,0.1c0.2,0.2,0.3,0.4,0.5,0.5c0,0,0.3-0.2,0.4-0.3
		C240.1,91.1,239.9,90.9,239.8,90.8z"/>
	<path fill="#FFFFFF" d="M325.4,256.2c0.1-0.1,0.4-0.2,0.4-0.3c0-0.1-0.1-0.3-0.2-0.5c-0.1,0.1-0.4,0.2-0.4,0.3
		C325.2,255.8,325.3,256,325.4,256.2z"/>
	<path fill="#FFFFFF" d="M179.4,359.1c0.1,0.1,0.2,0.2,0.3,0.3c0.1-0.1,0.2-0.2,0.2-0.2c-0.1-0.1-0.2-0.2-0.3-0.3
		C179.6,358.9,179.5,359,179.4,359.1z"/>
	<path fill="#FFFFFF" d="M244.6,92.9c0.1,0,0.2-0.1,0.2-0.1c0-0.1-0.1-0.2-0.1-0.2c-0.1,0.1-0.2,0.2-0.3,0.2
		C244.4,92.8,244.5,92.8,244.6,92.9z"/>
	<polygon fill="#FFFFFF" points="371.9,352.8 372,352.6 371.8,352.6 	"/>
	<path fill="#FFFFFF" d="M248.6,354.8c-0.1-0.1-0.1-0.1-0.2-0.2c-0.1,0.1-0.1,0.2-0.2,0.3c0.1,0,0.2,0.1,0.2,0.1
		C248.5,355,248.5,354.8,248.6,354.8z"/>
	<polygon fill="#FFFFFF" points="374.7,334.1 374.6,334 374.6,334.2 	"/>
	<polygon fill="#FFFFFF" points="363.2,325.7 363.3,325.9 363.4,325.7 	"/>
	<polygon fill="#FFFFFF" points="336.9,311.5 336.8,311.6 337,311.7 	"/>
	<polygon fill="#FFFFFF" points="107.4,365.2 107.2,365.3 107.4,365.4 	"/>
	<polygon fill="#FFFFFF" points="389.7,348.5 389.6,348.4 389.6,348.6 	"/>
	<polygon fill="#FFFFFF" points="377,347.5 377.1,347.5 377,347.4 	"/>
	<polygon fill="#FFFFFF" points="310.7,236.9 310.8,236.7 310.6,236.6 	"/>
	<path fill="#FFFFFF" d="M327.2,266.4c-0.1-0.1-0.2-0.1-0.3-0.1c0,0.1,0,0.1,0.1,0.2C327,266.5,327.1,266.5,327.2,266.4z"/>
	<polygon fill="#FFFFFF" points="167.2,195.6 167.4,195.6 167.4,195.5 	"/>
	<path fill="#FFFFFF" d="M216.2,238.2c2.5,0,5.1-0.2,7.6,0c3.5,0.3,3.8,1.3,3.7,4.8c-0.2,6-1.3,12.1,0.5,18.2c0.3,1-0.1,2.2-0.1,3.3
		c0.1,9.2,0.2,18.4,0.2,27.6c0,2.2-0.2,4.4-0.1,6.7c0,1.9,0.2,3.8,0.3,5.7c0.1,4.7,0.2,9.5,0.3,14.2c0,0.6-0.1,1.3,0.1,1.8
		c1.1,3.7,0.2,7.5,0.7,11c1,7.9-0.3,15.7,0.6,23.5c0.5,4-0.1,8-0.1,12c0,1.3,0.5,2.6,0.4,3.9c0,11.4-0.1,22.8-0.2,34.2
		c0,4.3-0.2,4.4-4.4,4.3c-5.6-0.1-11.1-0.1-16.7-0.2c-3.4-0.1-3.5-0.8-3.2-4.1c0.4-4.7,0-9.5-0.1-14.2c-0.1-4.1-0.1-8.2-0.3-12.4
		c-0.2-3.5-0.7-7.1-0.8-10.6c-0.3-8.5-0.5-17-0.8-25.4c-0.2-8.8-0.5-17.6-0.6-26.4c0-2.7,0.3-5.4,0.2-8.1
		c-0.1-10.8-0.2-21.6-0.4-32.5c-0.1-7.6-0.5-15.1-0.6-22.7c-0.1-3.9,0.3-7.9,0.5-11.8c0.1-1.6,1.1-2,2.4-2.1
		C208.9,238.7,212.5,238.4,216.2,238.2C216.2,238.2,216.2,238.2,216.2,238.2z"/>
	<path fill="#FFFFFF" d="M241.1,225.5c0.3,2.2,0.2,4.6,0.9,6.7c0.7,2.3,0.1,3.3-2.1,3.5c-4.8,0.3-9.7,0.7-14.5,0.7
		c-7.3,0-14.6-0.7-21.8-0.6c-3.7,0.1-7.5,1.2-11.2,1.8c-0.5,0.1-1.2,0.2-1.6,0.1c-0.2-0.1-0.3-0.9-0.2-1.4c0.5-2,1.1-3.9,1.6-5.8
		c0.9-3.6,2-7.2,2.7-10.9c0.4-2.2,1.4-3,3.5-3.3c4.4-0.6,8.7-1.7,13.1-2.4c6.7-1.1,13.3-0.8,19.8,1.1c0.6,0.2,1.2-0.1,1.9-0.1
		c-0.4-0.4-0.7-1-1.2-1.2c-2.4-0.7-4.8-1.8-7.2-1.9c-8.6-0.5-17.2-1.4-25.5,2.1c-2.5,1.1-3.6,0.2-3.7-2.5
		c-0.2-5.8-0.2-11.5-0.4-17.3c0-1.9-0.4-3.9-0.2-5.8c0.5-7,0.6-14.2,2-21.1c0.8-4.2,3.1-8.4,6.6-11.3c2.4-2.1,3.5-4.6,3.4-7.7
		c0-3.4,0.8-4.1,4.1-4.1c5.4,0,10.7-0.1,16.1-0.1c0.8,0,1.6,0,2.4,0c4.8,0.2,5,0.6,5.2,5.3c0.2,4.4,0.7,8.9,0.9,13.3
		c0.1,3.1-0.2,6.3-0.3,9.4c0,0.2-0.5,0.6-0.8,0.6c-0.4,0-0.8-0.3-1.2-0.5c-0.2,0.8-0.7,1.7-0.4,2.2c1.8,4.1,1.1,8.5,1.4,12.8
		c0.4,5.8,0.5,11.7,1.5,17.5C237.2,211.7,239.3,218.5,241.1,225.5L241.1,225.5z M222.2,201.7L222.2,201.7L222.2,201.7z M230.7,234
		c0-0.1,0.1-0.2,0.1-0.2C230.8,233.8,230.7,233.9,230.7,234L230.7,234z M220.5,147.4c0.4,3.1,1,5.9,3.7,7.8c1.2,0.8,2,2.2,2.7,3.5
		c1.6,2.9,2.9,6,4.5,8.9c0.3,0.5,1,0.8,1.4,1.2c0.1-0.6,0.5-1.2,0.3-1.6c-1.7-4.1-3.2-8.3-5.5-12c-1.8-3-5.3-5.1-5.4-9.2
		c0-0.2-0.5-0.6-0.8-0.7c-0.1,0-0.5,0.3-0.6,0.5C220.7,146.3,220.6,146.9,220.5,147.4z"/>
	<path fill="#FFFFFF" d="M258.7,262c-0.7-0.2-1.9-0.3-2.1-0.7c-1.9-5.3-0.8-7.7,4-11c4.3-3,8.3-6.5,12.3-9.8c2.4-2,4.8-4,7.2-6
		c2.6-2.3,7.8-1.1,9.1,2.1c1.3,3.1,2.5,6.2,3.7,9.3c1.7,4.5,3.2,9.1,4.9,13.6c2.6,6.8,5.3,13.5,7.9,20.3c1.4,3.7,2.7,7.5,4.1,11.3
		l0,0c0,0.2,0,0.4,0,0.6c0,0.1-0.1,0.2-0.1,0.2c0-0.1,0-0.2,0.1-0.2c0.2-0.2,0.4-0.4,0.6-0.6l0,0c0.8,1.7,2,3.4,2.4,5.2
		c0.4,1.6,0.1,3.3-0.2,5c-0.3,2.2-1.2,4.3-1.4,6.4c-0.2,2-1.2,3.2-3.2,2.6c-3.9-1.2-7.9-2.3-11.7-4c-9.1-4-18-8.2-27-12.5
		c-2-1-3.6-3-5.7-3.9c-3.9-1.6-2.8-5.1-3.7-8c-0.5-1.7,0.1-2.4,1.9-2.5c7.1-0.2,14.3-0.5,21.4-0.8c1.9-0.1,3.8-0.2,5.7-0.6
		c2.6-0.4,3.5-1.7,3.2-4.2c-0.5-4.7-2.1-9.1-6.1-12c-0.9-0.7-2.5-0.9-3.6-0.7c-3.4,0.7-6.6,0.9-10.2,0.4c-4.5-0.7-9.2-1.5-13.7,0.1
		c-0.2-0.3-0.3-0.7-0.5-1c-0.1,0-0.2,0.1-0.2,0.1C258.3,261.4,258.5,261.7,258.7,262z"/>
	<path fill="#FFFFFF" d="M188,184.9c0,12.3,0.3,24.7-0.1,37c-0.2,6.8-1.1,13.7-2.4,20.5c-1.6,8.6-3.8,17.2-5.8,25.7
		c-0.1,0.5-0.4,0.9-0.6,1.3c-0.2-0.5-0.5-1-0.6-1.5c-0.8-9.4-1.3-18.7-0.2-28.1c1.5-12.7,2.3-25.4,3.4-38.1c1.1-13,2.2-26,3.4-39
		c0.5-5.4,1.3-10.8,1.8-16.3c0.2-2,0.9-2.7,3-2.5c3.6,0.4,7.3,0.3,10.9,0.6c1.3,0.1,3.4,0.5,3.6,1.3c0.6,1.7,0.9,3.8-0.8,5.4
		c-1.2,1.2-2.7,2.3-3.5,3.7c-1.6,2.8-2.9,5.7-4,8.7c-2.6,7.3-3.2,15-3,22.7c0.2,8.4,0.6,16.8,0.4,25.2c-0.1,4.2-1.2,8.4-1.9,12.5
		c-0.5,2.8-1.1,5.6-1.8,8.3c-0.2,0.7-0.6,1.4-0.8,2.1c0-0.7-0.1-1.4,0-2.1c0.2-8.9,0.7-17.8,0.7-26.7c0.1-10.2-0.2-20.4-0.4-30.7
		c0-1.9-0.7-3.7-1.1-5.6c-0.3,1.8-0.8,3.7-0.8,5.5c-0.1,3.3,0,6.7,0,10C187.6,184.9,187.8,184.9,188,184.9z"/>
	<path fill="#FFFFFF" d="M258.6,180.8c0.2-5.1,0.5-10.1,0.7-15.2c0-0.9,0.2-1.8,0.3-2.7c0.1-0.4,0.5-1,0.6-0.9
		c0.4,0.1,1,0.3,1.2,0.7c0.9,1.8,1.8,3.7,2.4,5.6c2.4,7,4.8,14,7.2,20.9c1.2,3.6,2.5,7.2,3.8,10.8c2.2,6.1,4.5,12.1,6.7,18.2
		c1.6,4.4,1.5,5.6-2.3,8.4c-4.6,3.3-9.5,6.1-14.2,9.1c-1.5,1-2.9,2.1-4.4,3.1c-2.2,1.5-3.2,1.2-3.2-1.5c0-8.1,0.2-16.2,0.4-24.3
		c0-0.9,0.2-1.8,0.2-2.7c0-9.8,0-19.6,0-29.4C258.3,180.8,258.5,180.8,258.6,180.8z"/>
	<path fill="#FFFFFF" d="M264.6,232.7c0.1,0,0.2,0,0.3-0.1c0-0.1,0-0.2,0-0.3c-0.1,0-0.3,0.1-0.4,0.1
		C264.5,232.5,264.5,232.6,264.6,232.7z"/>
	<path fill="#FFFFFF" d="M180.8,306.4c0.5-1.4,1.1-2.8,1.6-4.3c1-2.8,1.9-5.5,2.8-8.3c0.1-0.4,0.2-1.1,0.3-1.1
		c2.7-0.3,2.8-2.8,4-4.4c0.9-1.1,3.6-1.4,5.3-1c1.9,0.4,0.8,2.4,0.6,3.6c-0.4,3.2-0.9,6.4-1.3,9.6c-0.1,0.7,0.2,1.5,0.4,2.2
		c0.4-0.7,0.9-1.3,1-2c1.2-5.5,2.3-11.1,3.5-16.6c0.1-0.4,0.3-0.8,0.4-1.2c0.1,0.4,0.1,0.8,0.1,1.2c0.1,2.9,0.4,5.9,0.4,8.8
		c0,1-0.6,2.1-1.1,3.1c-1.5,3-2.4,6-2.5,9.5c0,3.8-0.9,7.6-1.4,11.4c-0.4,2.7-0.8,5.4-1.2,8.1c-0.3,2,0.5,2.6,2.4,2.2
		c0.6-0.1,1.2-0.2,1.8-0.4c2.7-1,3.3-0.8,3.3,2.1c0.1,4.7,0.1,9.3,0.1,14c0,1.2-0.1,2.1-1.7,1.2c-1.2-0.6-2.5-1.1-3.7-1.5
		c-0.6-0.2-1.4-0.3-1.8,0c-0.6,0.5-1.3,1.5-1.2,2.1c0.4,2.4,1.3,4.8,1.5,7.2c0.6,6.5,3,12.3,5.9,18.1c0.3,0.5,0.8,1.1,0.8,1.6
		c-0.1,1.6-0.4,3.1-0.7,4.7c-0.7-1-1.8-2-2.1-3.2c-1.9-6.9-3.6-13.9-5.4-20.8c-0.8-3-1.7-6-2.7-8.9c-0.2-0.6-1.2-1-1.9-1.3
		c-2.5-1.1-5-2.2-7.5-3.2c-1.5-0.6-2-1.6-1.5-3.1c1-2.9,2.1-5.7,3.2-8.5c0.3-0.9,0.7-0.9,1.7-0.6c2.1,0.6,4.3,0.6,6.5,0.7
		c0.3,0,1-0.9,0.9-1.2c-1.5-4.9,0.9-9.4,1.1-14.1c0-0.3,0.2-0.6,0.2-0.9c-0.1-0.8-0.2-1.6-0.3-2.4c-0.6,0.5-1.3,1-1.6,1.6
		c-1.5,2.5-3,5-4.4,7.6c-1,1.9-1.8,2.6-4.1,1.2c-4.5-2.7-5-3.6-3-8.7C180.1,309.3,180.4,307.8,180.8,306.4L180.8,306.4z"/>
	<path fill="#FFFFFF" d="M263.7,298.9c-0.4-1.1-0.9-2.1-1.2-3.2c-0.2-0.6-0.1-1.3-0.1-2c0.7,0,1.4-0.2,2,0
		c6.5,3.1,12.9,6.3,19.4,9.3c1.9,0.9,3.9,1.4,5.8,2.2c4.4,1.9,8.8,3.8,13.2,5.7c0.7,0.3,1.2,0.9,1.8,1.4c-0.6,0.5-1.2,1.1-1.9,1.4
		c-5.7,3.2-11.5,6.3-17.2,9.4c-4.3,2.3-8.5,4.7-12.8,6.9c-2.7,1.3-3.6,0.8-4.2-2.1c-1.7-8.8-3.3-17.7-5-26.5
		c-0.1-0.8-0.2-1.6-0.3-2.4C263.4,299,263.6,298.9,263.7,298.9z"/>
	<path fill="#FFFFFF" d="M199.1,243.9c0,5.2-1,10.8,0.3,15.7c1.1,4.2-0.4,7.5-0.5,11.2c-0.2,3.9-1,7.8-1.8,11.6
		c-0.5,2.5-1.8,3-5.5,2.4c-1.4-0.2-3.3-0.9-4-0.3c-0.8,0.6-0.5,2.6-0.5,4c0,1.1-0.2,1.9-1.5,1.4c-2.5-0.9-2.8,1-2.6,2.4
		c0.7,3.8-1.4,6.6-2.6,9.8c-0.2,0.6-0.9,0.9-1.4,1.4c-0.1-0.6-0.4-1.1-0.3-1.7c0.2-7.1,0-14.2,0.7-21.3c0.4-4.6,2.1-9,3.1-13.5
		c1.8-7.7,3.5-15.4,5.1-23.1c0.6-2.8,3.5-4.4,6-2.9c0.7,0.4,1.1,1.9,0.9,2.8c-2.4,10.1-4.9,20.2-7.4,30.4c-0.5,2.3-0.8,4.6-1.2,6.9
		c-0.1,0.4,0.2,0.8,0.4,1.3c0.3-0.2,0.7-0.4,0.8-0.8c0.4-0.7,0.7-1.5,0.9-2.3c3.1-12.6,6.3-25.1,9.4-37.7c0.1-0.6,0.3-1.2,0.5-1.7
		c0.1-0.3,0.4-0.5,0.5-0.7c0.2,0.3,0.5,0.6,0.5,0.9c0.1,1.2,0,2.4,0,3.6C199,243.9,199,243.9,199.1,243.9z"/>
	<path fill="#FFFFFF" d="M256.9,265.6c-0.7,3.2-0.1,4,2.9,3.9c8.3-0.2,16.6-0.4,24.8-0.7c0.7,0,1.4-0.5,2.1-0.8
		c-0.3-0.6-0.4-1.4-0.9-1.7c-1.1-0.7-2.4-1.2-3.7-1.7c-0.4-0.2-0.8-0.2-1.2-0.3c0.4-0.2,0.9-0.7,1.3-0.7c1,0,2.3-0.1,2.9,0.5
		c1.6,1.7,3.2,3.6,4.2,5.7c0.9,2,0.1,3.1-2.2,3.1c-3,0.1-6.1-0.3-9.1-0.3c-5,0-10.1,0.1-15.1,0.4c-1.9,0.1-3.8,0.9-4.8-1.6
		c-0.1-0.3-0.9-0.6-0.9-0.5c-0.3,0.5-0.9,1-0.8,1.5c0.2,2.5,0.6,5,1,7.4c0.3,1.4,1,2.7,1.1,4.1c0.1,0.9-0.4,1.9-0.6,2.9
		c-1.3-0.5-2.8-0.9-2.1-2.9c0,0.1,0.1,0.1,0.1,0.2c-0.1-0.1-0.1-0.1-0.2-0.2c0-4.2,0-8.4,0-12.7c0-0.4,0-0.8-0.2-1.2
		c-0.3-0.5-0.7-0.9-1-1.4c-0.4,0.5-1.1,1-1.1,1.5c-0.1,3,0,6.1-0.1,9.1c-0.1,1.7-0.5,3.5-0.8,5.2c-1.5-0.6-3.2-0.8-4.3-1.7
		c-3.9-3.1-7.6-6.5-11.4-9.8l0,0c0.2-2.4,0.8-4.9,0.5-7.3c-0.4-4.3-1.4-8.6-2-12.9c-0.6-3.8-1-7.6-1.4-11.4
		c-0.2-1.4-0.6-2.8,1.6-3.2c2.5-0.4,4.4,0.2,4.8,2.2c1,4.6,1.8,9.3,2.6,14c0.7,4.2,1,8.4,1.9,12.6c0.8,3.9,2.1,7.7,3.2,11.6
		c0.1,0.3,0.5,0.6,0.7,0.9c0.3-0.5,0.8-0.9,0.9-1.4c0.2-3.2,0.4-6.4,0.4-9.6c0-3.3-0.2-6.7-0.2-10c0-0.3,0.3-0.6,0.4-0.9
		c0.1,0.3,0.1,0.6,0.2,0.9c0.2,1.1,0.3,2.2,0.6,3.3c0.1,0.3,0.5,0.5,0.7,0.8c0.1-0.3,0.4-0.7,0.4-1c-0.1-1.1-0.4-2.2-0.4-3.3
		c0.2-7.7,0.5-15.3,2.1-22.8c0.7-3.2,0.2-6.6,0.3-9.9c0.1-1.3,0.4-2.5,0.6-3.8c0.2,1.2,0.5,2.4,0.5,3.6c-0.2,5.4-0.8,10.9-0.8,16.3
		c0,6.9-1.4,13.9,0.1,20.8C254.7,263.7,254.7,265.5,256.9,265.6L256.9,265.6z"/>
	<path fill="#FFFFFF" d="M281.2,198.7c2.8,1.5,3.8,4.2,4.6,6.9c1.4,4.8,3.4,9.2,5.9,13.6c2,3.5,3,7.7,4.4,11.6
		c0.2,0.6-0.2,1.3-0.3,2l0,0c3.1,5,5,10.4,6.6,16c1.3,4.5,2.8,9.1,4.9,13.3c3.6,7.5,5.7,15.5,9,23.1c1.3,3,2.4,6,2.2,9.3
		c0,0.8-0.6,1.5-1,2.3c-0.5-0.5-1.3-1-1.6-1.6c-1.6-4.2-3.2-8.5-4.7-12.8c-3-8.4-5.9-16.7-8.9-25.1c-1.2-3.5-2.3-7-3.5-10.5l0,0
		c-1.8-4.5-3.7-8.9-5.5-13.4c0.1-0.1,0.1-0.1,0.2-0.2c-0.1,0.1-0.1,0.1-0.2,0.2c-1.6-4.4-3.2-8.9-4.8-13.3
		C286.1,213,283.7,205.8,281.2,198.7L281.2,198.7z"/>
	<path fill="#FFFFFF" d="M325.6,324.7c0.2-0.8,0.7-1.8,0.4-2.2c-1.6-2.2-1.1-5.3-3.4-7.3c-1.1-1-1.5-3.2-1.6-4.9
		c-0.4-3.1-0.6-3.4-3.8-3.1c-1.2,0.1-2.5,0.4-2.7-1.5c-0.1-1.3-0.5-2.3,1.6-2.4c0.9,0,1.6-1.9,2.6-2.6c3.5-2.7,3.6-5.9,1.9-9.7
		c-1.7-3.9-3.1-7.9-4.7-11.8c-0.2-0.5-0.5-0.9-0.5-1.4c0-0.6,0.3-1.2,0.5-1.8c0.4,0.4,1,0.6,1.2,1.1c1.7,4.1,3.4,8.2,5,12.4
		c3.2,8.3,6.4,16.6,9.7,24.8c0.4,1,1.1,1.9,1.9,2.7c0.8,0.9,3,1.6-0.1,2.4c-0.3,0.1-0.4,1.7-0.3,2.5c0.6,3.3-0.2,4.4-3.6,4.1
		C328.3,325.8,327,325.1,325.6,324.7L325.6,324.7z"/>
	<polygon fill="#FFFFFF" points="326.9,305.9 326.6,305.8 326.7,306 	"/>
	<path fill="#FFFFFF" d="M248.4,321c-1.6-1-3.3-2-4.9-3c0-0.1,0.1-0.2,0.1-0.2c0,0.1,0,0.2-0.1,0.2c-0.7-0.6-1.9-1.2-2.1-2
		c-1.2-4.6-2.7-9.1-1.7-14c0.1-0.4,0-0.8,0-1.2c0-1,0-2,0-3c0.5,1,1.1,1.9,1.3,2.9c0.8,3.2,1.3,6.5,2.1,9.7c0.2,0.8,0.6,1.5,1.1,2.1
		c0.3,0.4,1.1,0.4,1.6,0.5c0.1-0.5,0.4-1.1,0.3-1.6c-1-4.8-2.2-9.6-3-14.4c-0.8-4.9-1.3-10-1.8-14.9c-0.2-1.6,0.8-1.7,1.9-0.9
		c1,0.7,2,1.4,3,2c1.2,0.8,1.4,1.7,1.3,3.3c-0.3,4.2,0.2,8.5,0.2,12.7c0.1,6.2,0,12.5,0,18.7C247.8,319.1,248.2,320,248.4,321
		L248.4,321z"/>
	<path fill="#FFFFFF" d="M234.4,343.5c0.4,0.6,0.6,1.5,1.1,1.7c3.7,1.6,0,1.7-0.5,2.2c-0.9,0.7-1.4,0.4-1.4-0.8
		c-0.3-7.8-0.7-15.5-0.9-23.3c0-0.6,0.4-1.2,0.6-1.8c0.1,0.5,0.3,1.1,0.4,1.6c0.2,0.8,0.1,1.7,0.5,2.4c1,1.7,1.3,3.2,0.4,5.2
		c-0.4,0.8,0.3,2.5,1,3.2c0.6,0.6,2.4,0.7,3,0.2c0.8-0.6,1.2-2,1.2-3.1c0-3.3-0.3-6.6-0.4-10c0-0.6,0.2-1.6,0.7-1.8
		c0.4-0.2,1.4,0.1,1.8,0.5c2.1,1.8,4.1,3.5,3.6,7c-0.5,3.9-0.1,8,0,12c0.1,2.3-0.9,4.1-2.8,5.4c-1.1,0.7-2.6,2.4-2.7-0.9
		c-0.1-1.6-1.6-2.3-3.2-1.5C235.9,342.2,235.2,342.9,234.4,343.5L234.4,343.5z M240.8,337.3c-1.3-0.9-1.9-1.6-2.6-1.6
		c-1.6,0-3.1,0.8-3,2.6c0,0.7,1.6,2.1,1.9,1.9C238.3,339.6,239.2,338.6,240.8,337.3z"/>
	<path fill="#FFFFFF" d="M251.1,202.3c-0.6-12.2-1.2-24.4-1.8-36.6c-0.1-1.9,0.1-3.8,0.3-5.7c0.1-1.4,0.7-2.6,2.5-2.2
		c1.6,0.3,2.4,1,2.3,2.8c-0.3,8.1-0.5,16.1-0.8,24.2c-0.2,6.5-0.4,13-0.7,19.4c-0.1,2.2-0.6,4.4-0.9,6.6c0,0.2-0.3,0.4-0.5,0.6
		c-0.1-0.3-0.2-0.6-0.2-0.8c-0.2-2.7-0.5-5.4-0.7-8.2C250.9,202.4,251,202.4,251.1,202.3z"/>
	<path fill="#FFFFFF" d="M214.8,83.9c2.2,0,4.4,0,6.7,0c1.3,0,3-0.4,3,1.6c0,1.8,0.3,4.3-2,4.9c-3.4,0.8-6.8,1.7-10.4,0.5
		c-1.9-0.6-4-0.7-6-0.7c-1.7,0-2.8-0.3-2.7-2.3c0.2-1.8,0-3.9,2.6-4C208.9,83.7,211.8,83.8,214.8,83.9
		C214.8,83.8,214.8,83.9,214.8,83.9z"/>
	<path fill="#FFFFFF" d="M281.2,191.9c-0.2,0.3-0.3,0.5-0.4,0.7c-0.2-0.2-0.5-0.3-0.7-0.5c-1.8-2.9-4.1-5.6-5.4-8.8
		c-2.6-6.3-4.5-12.9-7.1-19.2c-1.8-4.3-3.4-8.9-7.4-11.9c-0.5-0.4-1.2-1.4-1.1-1.5c0.9-1.1,1.8-2.1,2.9-3c0.1-0.1,1.4,0.8,1.6,1.4
		c2.1,4.4,4.1,8.8,5.9,13.2c3.5,8.4,6.8,16.8,10.2,25.3C280.3,189,280.7,190.4,281.2,191.9z"/>
	<path fill="#FFFFFF" d="M235.2,387.8c-0.2,7-0.4,13.7-0.6,20.4c0,0.4-0.4,0.9-0.7,1c-0.4,0.1-1.1-0.2-1.3-0.5
		c-0.3-0.8-0.5-1.7-0.6-2.6c-0.2-6.2-0.6-12.3-0.5-18.5c0.1-4.8,0.7-9.6,1.1-14.4c0-0.5,0.5-1,0.7-1.5c0.3,0.6,0.9,1.1,0.9,1.7
		C234.6,378.3,234.9,383.2,235.2,387.8z"/>
	<path fill="#FFFFFF" d="M262.4,314.3c-0.6-1.8-1.1-3.7-1.8-5.5c-0.1-0.4-0.7-0.6-1-0.9c-0.2,0.5-0.5,1-0.5,1.4c0,1,0.1,1.9,0.2,2.9
		c-0.7-0.8-1.7-1.6-2-2.5c-0.7-2.4-1.3-4.9-1.5-7.4c-0.3-3.5-0.2-7.1-0.1-10.6c0-0.8,0.7-1.7,1.1-2.5c0.6,0.7,1.3,1.3,1.9,2.1
		c0.3,0.5,0.4,1.1,0.6,1.7l0,0c0.6,2.2,1.3,4.3,1.7,6.5c0.6,3.8,1,7.7,1.4,11.5C262.6,312.1,262.4,313.2,262.4,314.3L262.4,314.3z"
		/>
	<path fill="#FFFFFF" d="M165.5,283.1c0.6,0,1.2,0.1,1.8,0.1c1.3,0.1,3.4-0.3,3.6,0.3c0.7,1.5,0.6,3.3,0.7,5c0,0.3-0.7,0.9-1,0.9
		c-4.3-0.1-8.5-0.3-12.8-0.3c-1.7,0-3-0.2-3.3-2.1c-0.3-1.8,0.9-3.4,2.8-3.5c2.7-0.1,5.4,0,8.1,0
		C165.5,283.3,165.5,283.2,165.5,283.1z"/>
	<path fill="#FFFFFF" d="M175.6,166c0.1-2.7,0.3-5.4,0.4-8.2c0-0.6,0.1-1.3,0.5-1.7c1-1,2.1-1.9,3.2-2.9c0,1.2,0,2.5-0.1,3.7
		c-0.4,3.9-0.8,7.8-1.2,11.7c-0.4,3.9-0.8,7.8-1.2,11.7c-0.2,2.6-0.4,5.2-0.6,7.8c0,0.5-0.2,1.1-0.4,1.6c0-0.6-0.1-1.2-0.1-1.8
		c0-7.4,0-14.7,0-22.1C175.9,166,175.7,166,175.6,166z"/>
	<path fill="#FFFFFF" d="M231.3,313.1c-0.4-0.7-1.2-1.3-1.2-2c-0.1-5.4,0-10.9-0.1-16.4c-0.1-5.8-0.3-11.5-0.4-17.3
		c0-0.3,0.1-0.5,0.2-0.8c0.2,0.2,0.4,0.4,0.5,0.7c0.1,0.4,0.2,0.8,0.2,1.2c0.8,10.5,1.7,20.9,2.5,31.4c0.1,1.5,0.5,3,0.5,4.5
		c0,0.8-0.4,1.7-0.8,2.5c-0.1,0.2-1.5,0.1-1.6-0.1c-0.2-0.8-0.1-1.7-0.1-2.5C231.1,313.9,231.3,313.5,231.3,313.1
		c0.2-0.3,0.4-0.6,0.7-0.9c-0.1-0.1-0.2-0.1-0.4-0.2C231.6,312.4,231.4,312.7,231.3,313.1z"/>
	<path fill="#FFFFFF" d="M246.4,235c0.2,6.8,0.5,13.5,0.7,20.3c0,0.7-0.4,1.4-0.6,2.2c-0.4-0.6-1-1.2-1.1-1.9c-0.8-5-1.5-10-2.2-15
		c-0.1-0.5,0.2-1.5,0.5-1.6c2.3-0.8,1.5-2.3,1-3.7c-1.7-4.2,0.3-8.4,0-12.6c0-0.1,0.2-0.3,0.2-0.5c0.1,0.4,0.3,0.7,0.4,1.1
		c0.6,3.9,1.1,7.8,1.6,11.7C246.7,235,246.5,235,246.4,235z"/>
	<path fill="#FFFFFF" d="M346.2,357.2c-0.2,0.4-0.5,0.9-0.7,1.3c-0.5-0.3-1.2-0.4-1.5-0.8c-0.7-1.1-1.2-2.3-1.7-3.6
		c-2.7-6.9-5.3-13.7-8-20.6c-0.2-0.5,0.1-1.2,0.2-1.8c0.7,0.1,1.5,0.1,2.2,0.4c0.3,0.2,0.5,0.9,0.7,1.3c2.7,7.3,5.5,14.5,8.2,21.8
		C345.9,355.8,346,356.4,346.2,357.2z"/>
	<path fill="#FFFFFF" d="M263,159.8c1.5,3.3,3.2,6.5,4.5,9.9c4,10.5,7.8,21,11.7,31.5c1.9,5.2,3.9,10.4,5.8,15.6
		c0.2,0.4,0.1,0.9,0.2,1.4c-0.3-0.4-0.6-0.7-0.8-1.1c-5.1-9.4-8.2-19.5-11.6-29.6c-2.7-8.1-6-16.1-8.9-24.2
		C263.4,162.1,263.3,160.9,263,159.8L263,159.8z"/>
	<path fill="#FFFFFF" d="M201.7,349.6c0,5.1,0,10.9,0,16.7c0,0.3-0.1,0.6-0.2,0.9c-0.2-0.2-0.4-0.5-0.5-0.7
		c-2.4-5.9-3.7-12-4.2-18.2c-0.1-1.8,1-2.2,2.5-2.2C201.3,346.1,202.3,346.9,201.7,349.6z"/>
	<path fill="#FFFFFF" d="M168.5,294.7c-4.3,0-7.8,0.1-11.3-0.1c-1-0.1-2.8-0.9-2.8-1.4c-0.1-1.6,1.1-2.4,2.8-2.5
		c3.5-0.1,7-0.3,10.5-0.2c1.4,0,3,0.9,2.6,2.7C170.1,294,168.8,294.4,168.5,294.7z"/>
	<path fill="#FFFFFF" d="M280.1,277.1c-6.7,0-12.4,0-18.2,0c-0.6,0-1.2-0.4-1.8-0.7c0.5-0.3,1.1-0.9,1.6-0.9
		c5.9-0.7,11.8-1.9,17.8-0.8c2.2,0.4,4.4,0.2,6.6,0.3c0.6,0,1.3,0.4,1.9,0.7c-0.7,0.3-1.3,0.8-2,0.9
		C283.7,276.9,281.4,277,280.1,277.1z"/>
	<path fill="#FFFFFF" d="M200.9,312.2c0,2.6,0.2,5.3-0.1,7.8c-0.1,1-1.1,2.4-2.1,2.9c-1.8,0.9-2.7,0-2.3-2c1-5.2,1.9-10.5,2.8-15.7
		c0.1-0.7,0.3-1.4,0.4-2.1c0.1-0.3,0.3-0.5,0.4-0.8c0.1,0.3,0.2,0.5,0.2,0.8c0.3,3,0.7,6,1,9C201.1,312.2,201,312.2,200.9,312.2z"/>
	<path fill="#FFFFFF" d="M310.6,320.9c-1.8-1.2-3-2-4.3-2.9c-0.2-0.1-0.2-0.3-0.4-0.5c-1.4-1.2-1.5-1.5,0.4-2.7
		c2.2-1.4,4.6-2.7,7-3.9c0.4-0.2,1.1,0.1,1.6,0.2c-0.2,0.4-0.2,1-0.5,1.3c-1.3,1.8-2.7,3.4-1.9,6
		C312.7,318.9,311.5,319.8,310.6,320.9z"/>
	<path fill="#FFFFFF" d="M261.1,247.4c-0.7,0.5-1.3,1-2,1.4c-0.6,0.3-1.2,0.5-1.9,0.7c0-0.8-0.3-1.6,0-2.3c0.3-0.8,1-1.5,1.7-2
		c4.4-3,8.9-5.9,13.4-8.8c0.4-0.3,0.9-0.3,1.4-0.5c-0.2,0.5-0.2,1.2-0.6,1.5C269.2,240.7,265.2,244,261.1,247.4
		c-0.1-0.1-0.1-0.1-0.2-0.2C261,247.2,261.1,247.3,261.1,247.4z"/>
	<path fill="#FFFFFF" d="M234,251.3c-1.2,1-2.1,1.8-3,2.5c-0.5,0.4-1,0.7-1.5,1c-0.2-0.6-0.5-1.2-0.5-1.9c-0.2-4.1-0.4-8.2-0.5-12.3
		c0-0.6,0.5-1.1,0.7-1.7c0.3,0.5,0.7,0.9,0.9,1.4C231.4,243.9,232.7,247.5,234,251.3z"/>
	<path fill="#FFFFFF" d="M168.1,329.5c-1.5,0.1-3,0.3-4.5,0.4c-0.5,0-1.3-0.7-1.3-0.8c1.5-5.2,0.6-11.3,5-15.6
		c0.4-0.4,0.8-1,1.3-1.2c0.4-0.2,0.9-0.1,1.4-0.1c0,0.5,0.2,1,0,1.4c-0.3,0.6-0.9,1.1-1.4,1.6c-4.1,4.5-4.4,7.7-1.2,12.7
		C167.7,328.3,167.8,329,168.1,329.5L168.1,329.5z"/>
	<path fill="#FFFFFF" d="M262.3,348.2c-0.2,2.3-0.3,4.6-0.6,6.9c-0.1,0.6-0.8,1.2-1.2,1.8c-0.3-0.7-0.8-1.5-1-2.2
		c-0.1-0.4,0.1-1,0.3-1.5c0.5-1.1,0.1-1.8-1.1-1.9c-1.9,0-2.4-1-2.4-2.7c0.1-1.7,1-1.9,2.4-2c2.2-0.1,2.3-1.8,2.7-3.4
		c0.1-0.3,0.4-0.6,0.6-0.8c0.1,0.3,0.2,0.6,0.2,0.9C262.3,344.9,262.3,346.6,262.3,348.2z"/>
	<path fill="#FFFFFF" d="M262.3,314.3c1.1-0.2,1.4,0.2,1.6,1.4c0.7,4.4,1.5,8.9,2.5,13.3c0.9,4,2,4.5,6,3.5c0.9-0.2,1.8-0.4,2.6-0.6
		l0,0c-1.2,0.7-2.3,1.6-3.6,2c-2.6,0.8-4.7,0-5.7-2.5c-0.9-2.2-1.6-4.6-2.1-6.9C263.1,321.2,262.8,317.7,262.3,314.3L262.3,314.3z"
		/>
	<path fill="#FFFFFF" d="M178.2,330.2c-0.1-2.7-0.3-5.3-0.3-7.9c0-0.8,0.9-2.3,1.1-2.2c1.4,0.3,3.6,0.6,3.2,2.5
		c-0.8,3.3-2.2,6.5-3.4,9.7c-0.1,0.2-0.3,0.3-0.4,0.4c-0.1-0.2-0.3-0.5-0.3-0.7C178,331.3,178.1,330.7,178.2,330.2z"/>
	<path fill="#FFFFFF" d="M259.9,325.6c-0.8,1.7,0.2,4.3-2.4,4.1c-2.5-0.2-1.7-2.5-1.7-4.1c0.1-2.1,0.3-4.2,0.5-6.3
		c0-0.3,0.3-0.6,0.5-0.9c0.1,0.1,0.3,0.3,0.4,0.4C258.2,321.2,259.1,323.5,259.9,325.6z"/>
	<path fill="#FFFFFF" d="M256.7,337.9c0-0.9-0.2-1.7,0.1-2c0.5-0.6,1.3-1.2,2-1.2c0.5,0,1.4,1,1.4,1.4c-0.2,2.3-0.6,4.5-1.1,6.8
		c-0.1,0.4-0.6,0.6-0.9,0.9c-0.2-0.3-0.6-0.6-0.6-0.9C257.3,341.2,257,339.4,256.7,337.9z"/>
	<path fill="#FFFFFF" d="M278.8,179.2c-2.2-5-4.4-9.9-6.5-14.9c-0.2-0.4,0.1-1.1,0.2-1.6c0.3,0.4,0.7,0.7,0.9,1.1
		C275.2,169,277,174.1,278.8,179.2L278.8,179.2z"/>
	<path fill="#FFFFFF" d="M325,324c-2.9,1.3-4.6-1.1-6.7-2.4c-0.1-0.1,0.2-1.4,0.6-1.8c0.9-0.7,1.9-2.3,3.2-0.4
		C323.1,321,324.1,322.5,325,324L325,324z"/>
	<path fill="#FFFFFF" d="M242.2,348.7c0.4-0.7,0.8-1.5,1.3-2.2c0.9-1.1,1.9-2,2.9-3c0.1-0.1,0.6-0.1,0.6-0.1c0.5,1.2-1.3,6-2.6,6.7
		c-0.5,0.3-1.2,0.6-1.6,0.4C242.5,350.2,242.5,349.4,242.2,348.7z"/>
	<path fill="#FFFFFF" d="M176.6,144.6c0.4-0.4,0.9-1.1,1.1-1c0.9,0.4,2.2,0.8,2.5,1.5c0.4,1.3,0.1,2.9,0.1,4.4l0,0
		c-1-0.7-1.9-1.6-3-2C175.6,146.7,175.7,145.7,176.6,144.6L176.6,144.6z"/>
	<path fill="#FFFFFF" d="M249.5,231.8c-0.3-5-0.7-10.1-1-15.1c0-0.5,0.1-0.9,0.2-1.4c0.2,0.4,0.5,0.7,0.5,1.1c0,6.3,1.9,12.6,0.9,19
		c0,0.3-0.2,0.6-0.2,0.9c-0.1-0.3-0.3-0.5-0.3-0.8c-0.1-1.2-0.2-2.4-0.3-3.6C249.4,231.8,249.4,231.8,249.5,231.8z"/>
	<path fill="#FFFFFF" d="M256,206.8c-0.1,3.1-0.3,6.4-0.5,9.7c0,0.6-0.4,1.1-0.6,1.6c-0.2-0.5-0.6-1-0.6-1.4c0-1.9,0-3.8,0.2-5.7
		c0.1-1.5,0.4-3,0.7-4.5c0.2-1.3,0.5-2.6,0.8-4C256,203.9,256,205.2,256,206.8z"/>
	<path fill="#FFFFFF" d="M171.1,320.2c-0.2,1.4-0.4,2.6-0.7,3.7c-0.2,0.7-0.5,1.3-0.7,1.9c-0.5-0.6-1.3-1.1-1.3-1.8
		c-0.1-1.4,0-2.8,0.4-4.1c0.2-0.7,1-1.3,1.6-1.9C170.6,318.8,170.9,319.6,171.1,320.2z"/>
	<path fill="#FFFFFF" d="M178.4,209c-0.2,5-0.4,10-0.7,15c0,0.4-0.4,0.7-0.7,1.1c-0.1-0.4-0.3-0.7-0.3-1.1
		C177.3,219,177.8,214,178.4,209L178.4,209z"/>
	<path fill="#FFFFFF" d="M236.2,313.7c-0.6-5.8-1.3-11.6-1.9-17.4c0-0.2,0.2-0.5,0.4-0.7c0.2,0.3,0.6,0.6,0.7,0.9
		c0.1,1.9,0.1,3.8,0.2,5.7C235.8,306.1,236,309.9,236.2,313.7L236.2,313.7z"/>
	<path fill="#FFFFFF" d="M232.8,279.8c0-1.6,0-2.7,0-3.8c0.3,1.1,0.8,2.1,0.9,3.2c0.4,4,0.7,8,1,12c0,0.4-0.3,0.9-0.4,1.3
		c-0.2-0.4-0.4-0.9-0.5-1.3C233.5,287.3,233.1,283.3,232.8,279.8z"/>
	<path fill="#FFFFFF" d="M266.6,148.4c0.2,0.2,0.4,0.5,0.5,0.7c1.4,2.8,2.7,5.5,4,8.3c0.1,0.3-0.1,0.8-0.2,1.3
		c-0.2-0.3-0.6-0.5-0.7-0.9c-1.3-2.8-2.6-5.6-3.9-8.5c-0.1-0.3-0.2-0.6-0.2-0.9C266.1,148.5,266.4,148.5,266.6,148.4z"/>
	<path fill="#FFFFFF" d="M256.9,173.8c-0.2,5.5-0.4,10.9-0.6,16.4c0,0.4-0.2,0.7-0.3,1.1c-0.1-0.3-0.2-0.6-0.2-0.9
		C256.1,184.8,256.5,179.3,256.9,173.8L256.9,173.8z"/>
	<path fill="#FFFFFF" d="M235.2,278.2c0.6-0.9,0.9-1.4,1.3-1.9c1.1,0.9,2.1,1.7,3.2,2.6c-0.8,0.5-1.7,1.4-2.4,1.3
		C236.5,280.1,235.9,279,235.2,278.2z"/>
	<path fill="#FFFFFF" d="M228.2,86.9c0,4.2-1.2,5.6-4.6,6.1c-0.3,0-0.6-0.1-1-0.2c0.2-0.2,0.5-0.4,0.7-0.4c3.2-0.2,3.4-2.6,3.7-5
		c0.1-0.7,0.4-1.3,0.5-1.9C227.9,86.1,228.2,86.8,228.2,86.9z"/>
	<path fill="#FFFFFF" d="M187.6,324c-0.4-0.5-0.9-1-0.8-1.2c0.7-1.4,1.4-2.8,2.2-4.1c0.1-0.1,0.4,0,0.7,0c-0.2,1.4-0.3,2.8-0.7,4.1
		C188.9,323.2,188.2,323.5,187.6,324z"/>
	<path fill="#FFFFFF" d="M247.8,265.6c-0.1,1.2-0.3,2.3-0.4,3.5c-0.3-1.1-0.6-2.3-0.8-3.4c-0.2-1.2-0.4-2.4-0.4-3.6
		c0-0.3,0.5-0.7,0.8-1.1c0.2,0.3,0.5,0.6,0.6,0.9c0.1,1.2,0,2.4,0,3.6C247.7,265.6,247.7,265.6,247.8,265.6z"/>
	<path fill="#FFFFFF" d="M236.3,388.3c0.5-1.1,1-1.9,1.4-2.7c0.5,0.6,1.4,1.3,1.3,1.9c-0.1,0.8-0.9,1.5-1.4,2.2
		C237.2,389.3,236.9,388.9,236.3,388.3z"/>
	<path fill="#FFFFFF" d="M287.3,199.9c-1.2-2.7-2.5-5.3-3.7-8c-0.1-0.2,0.1-0.5,0.1-0.7c0.2,0.2,0.5,0.4,0.6,0.6
		C285.3,194.5,286.3,197.2,287.3,199.9L287.3,199.9z"/>
	<path fill="#FFFFFF" d="M168,329.5c2.1,0.4,3.1,2.8,1.7,4.3c-0.2,0.2-0.8,0.5-1,0.4c-0.3-0.2-0.6-0.7-0.6-1.1
		C168.1,331.9,168.1,330.7,168,329.5L168,329.5z"/>
	<path fill="#FFFFFF" d="M231.8,268.3c0-1.3,0-2.5,0-3.8c0.2,1.3,0.5,2.6,0.7,3.9c0.2,1.4,0.5,2.8,0.6,4.1c0,0.3-0.2,0.7-0.3,1
		c-0.2-0.3-0.7-0.5-0.7-0.8C232,271.3,232,269.8,231.8,268.3C231.9,268.3,231.9,268.3,231.8,268.3z"/>
	<path fill="#FFFFFF" d="M264.2,352.6c0-2.2,0.1-4.4,0.1-6.6c0-0.3,0.4-0.6,0.5-0.9c0.2,0.3,0.5,0.7,0.4,1
		C265,348.3,264.6,350.5,264.2,352.6L264.2,352.6z"/>
	<path fill="#FFFFFF" d="M333.2,329.4c-0.6-0.6-1-0.9-1.3-1.2c1.1-0.7,2.1-1.4,3.2-1.9c0.1-0.1,0.6,0.3,0.8,0.5
		C335.1,327.6,334.2,328.5,333.2,329.4z"/>
	<path fill="#FFFFFF" d="M237.3,322.6c-0.2,1-0.4,1.7-0.6,2.5c-0.4-0.7-1-1.4-1-2c0-1,0.5-2,0.8-3
		C236.8,320.9,237,321.8,237.3,322.6z"/>
	<path fill="#FFFFFF" d="M258,160.3c-0.3,1.4-0.4,2.4-0.6,3.4c-0.1,0.6-0.2,1.2-0.4,1.9c-0.1-0.7-0.4-1.4-0.4-2c0-1-0.1-2,0.1-3
		c0.1-0.4,0.7-0.8,1-1.2C257.9,159.8,258,160.3,258,160.3z"/>
	<path fill="#FFFFFF" d="M262.5,267.4c-0.2,0-1-0.2-1.9-0.4c0.9-0.2,1.8-0.5,2.7-0.7c0.2,0,0.4,0,0.6,0c0.7,0.1,1.5,0.3,2.2,0.4
		c-0.8,0.2-1.6,0.5-2.3,0.7C263.5,267.4,263.3,267.4,262.5,267.4z"/>
	<path fill="#FFFFFF" d="M237.6,384.3c-0.4-1.2-0.7-1.8-0.7-2.4c0-0.4,0.6-0.8,1-1.2c0.4,0.5,1.1,1,1.1,1.5
		C239,382.7,238.4,383.2,237.6,384.3z"/>
	<path fill="#FFFFFF" d="M287.3,325.3c-2.2,1.4-4.4,2.8-6.6,4.2c-0.2,0.1-0.6,0.1-0.8,0.2c0.2-0.3,0.3-0.7,0.5-0.8
		C282.7,327.6,285,326.4,287.3,325.3L287.3,325.3z"/>
	<path fill="#FFFFFF" d="M287.4,231.4c-0.4,0.1-0.7,0.3-0.9,0.3c-1.6-0.3-3.1-0.6-4.7-1c-0.2-0.1-0.4-0.4-0.6-0.6
		c0.3-0.1,0.6-0.3,0.8-0.3c1.5,0.3,2.9,0.6,4.4,1C286.7,230.9,286.9,231.2,287.4,231.4z"/>
	<path fill="#FFFFFF" d="M238.1,288.8c0-0.6,0-1.2,0-1.8c0.1-0.7,0.2-1.4,0.4-2.1c0.2,0.8,0.5,1.6,0.4,2.4c0,1.6-0.2,3.2-0.4,4.8
		c0,0.2-0.2,0.5-0.3,0.7c-0.1-0.3-0.2-0.6-0.2-0.9C238.1,290.8,238.1,289.8,238.1,288.8C238.1,288.8,238.1,288.8,238.1,288.8z"/>
	<path fill="#FFFFFF" d="M263,333.6c-0.4,0.7-0.8,1.4-1.2,2.1c-0.1-0.3-0.4-0.7-0.4-1c0.2-0.9,0.4-1.9,0.7-2.8
		C262.4,332.4,262.7,332.9,263,333.6z"/>
	<path fill="#FFFFFF" d="M286.2,224c-0.2,0.4-0.4,0.6-0.5,0.8c-0.5-0.8-0.9-1.6-1.3-2.5c0-0.1,0.3-0.4,0.5-0.6
		C285.3,222.5,285.8,223.3,286.2,224z"/>
	<path fill="#FFFFFF" d="M316.6,318.8c-0.3-0.5-0.5-0.7-0.7-0.9c0.8-0.5,1.6-1,2.3-1.5c0.1,0.2,0.4,0.6,0.3,0.6
		C318,317.6,317.4,318.2,316.6,318.8z"/>
	<path fill="#FFFFFF" d="M257.6,355.4c-0.4,0.5-0.7,0.9-1,1.4c-0.2-0.4-0.7-0.8-0.6-1.1c0.1-0.5,0.5-0.9,0.8-1.4
		C257,354.5,257.2,354.9,257.6,355.4z"/>
	<path fill="#FFFFFF" d="M256.3,196.4c-0.1,0.8-0.2,1.4-0.3,2.1c-0.2-1.1-0.4-2.1-0.5-3.2c0-0.3,0.3-0.6,0.4-0.9
		C256,195,256.1,195.8,256.3,196.4z"/>
	<path fill="#FFFFFF" d="M297.6,319.2c-0.1,0.1-0.1,0.2-0.2,0.2c-1.4,0.9-2.8,1.8-4.2,2.7c0,0-0.2-0.2-0.3-0.3
		c1.3-0.8,2.6-1.5,3.8-2.3C297.1,319.4,297.4,319.3,297.6,319.2L297.6,319.2z"/>
	<path fill="#FFFFFF" d="M166.7,337c0.9,0.2,1.5,0.3,2.2,0.4c-0.6,0.2-1.2,0.5-1.9,0.5c-0.5,0-1-0.3-1.6-0.5
		C165.9,337.2,166.4,337.1,166.7,337z"/>
	<path fill="#FFFFFF" d="M287.3,199.9c0.4,0.8,0.8,1.6,1.1,2.4c0.1,0.3-0.1,0.8-0.1,1.2c-0.3-0.3-0.8-0.6-0.9-1
		C287.3,201.7,287.3,200.8,287.3,199.9L287.3,199.9z"/>
	<path fill="#FFFFFF" d="M295.2,243.4c-0.2,0.5-0.3,0.8-0.3,1c-0.3-0.5-0.7-1-0.9-1.6c-0.1-0.2,0.1-0.5,0.2-0.8
		C294.5,242.5,294.9,243,295.2,243.4z"/>
	<path fill="#FFFFFF" d="M200.7,83.7c0.4,0.6,0.7,0.8,0.7,0.9c0,0.6-0.2,1.1-0.3,1.6c-0.2-0.2-0.5-0.3-0.5-0.5
		C200.5,85.2,200.6,84.7,200.7,83.7z"/>
	<path fill="#FFFFFF" d="M312.3,267.4c-0.5-1.2-1.1-2.3-1.6-3.5c0.1-0.1,0.3-0.1,0.4-0.2C311.5,265,311.9,266.2,312.3,267.4
		L312.3,267.4z"/>
	<path fill="#FFFFFF" d="M231.9,259c-0.1,0.3-0.4,0.8-0.6,1.2c0-0.4-0.2-0.8-0.1-1.1c0.1-0.6,0.3-1.2,0.5-1.8
		C231.8,257.8,231.8,258.3,231.9,259z"/>
	<path fill="#FFFFFF" d="M318.4,313.2c-0.2,0.3-0.4,0.5-0.5,0.6c-0.2-0.3-0.6-0.6-0.6-0.8c0-0.3,0.4-0.5,0.6-0.8
		C318.1,312.5,318.2,312.8,318.4,313.2z"/>
	<path fill="#FFFFFF" d="M286.1,227.2c0.3,0.2,0.7,0.4,0.7,0.6c0,0.3-0.3,0.6-0.4,0.8c-0.2-0.2-0.5-0.4-0.6-0.6
		C285.8,227.8,286,227.5,286.1,227.2z"/>
	<path fill="#FFFFFF" d="M297.6,319.2c1-0.5,2.1-1,3.1-1.4c0,0.1,0.1,0.2,0.1,0.2C299.8,318.4,298.7,318.8,297.6,319.2L297.6,319.2z
		"/>
	<path fill="#FFFFFF" d="M287.3,325.3c0.8-0.7,1.7-1.3,2.5-2c0.1,0.1,0.2,0.3,0.3,0.4C289.2,324.2,288.2,324.7,287.3,325.3
		L287.3,325.3z"/>
	<path fill="#FFFFFF" d="M202.4,91.9c-0.5,0.1-0.8,0.2-1,0.1c-0.3-0.2-0.6-0.5-0.9-0.7c0.2-0.2,0.4-0.5,0.5-0.4
		C201.5,91.1,201.8,91.5,202.4,91.9z"/>
	<path fill="#FFFFFF" d="M305.3,323.8c-0.3,0.5-0.6,1-0.9,1.5c-0.1-0.1-0.4-0.4-0.4-0.4c0.3-0.5,0.6-1,0.9-1.5
		C305,323.4,305.1,323.6,305.3,323.8z"/>
	<path fill="#FFFFFF" d="M307.3,252.5c-0.2,0.3-0.3,0.5-0.4,0.7c-0.2-0.2-0.5-0.3-0.5-0.5c0-0.2,0.2-0.5,0.3-0.7
		C306.8,252.1,307,252.3,307.3,252.5z"/>
	<path fill="#FFFFFF" d="M315.1,273.5c-0.2,0.3-0.4,0.5-0.6,0.6c-0.2-0.3-0.5-0.6-0.6-0.9c-0.1-0.3,0.1-0.6,0.1-0.9
		C314.4,272.7,314.7,273,315.1,273.5z"/>
	<path fill="#FFFFFF" d="M210,92.8c-0.3,0-0.6,0-0.9-0.1c-0.4-0.1-0.8-0.3-1.2-0.5c0.4,0,0.9,0,1.3,0.1
		C209.6,92.4,209.8,92.7,210,92.8L210,92.8z"/>
	<path fill="#FFFFFF" d="M282.5,266.3c-0.3,0.2-0.5,0.4-0.6,0.4c-0.4,0-0.8-0.1-1.2-0.1c0.1-0.1,0.2-0.3,0.3-0.3
		C281.5,266.3,281.9,266.3,282.5,266.3z"/>
	<path fill="#FFFFFF" d="M314.4,318.6c-0.1,0.2-0.2,0.3-0.2,0.5c-0.2-0.1-0.5-0.2-0.4-0.3c0.1-0.2,0.2-0.4,0.3-0.7
		C314.2,318.3,314.3,318.5,314.4,318.6z"/>
	<path fill="#FFFFFF" d="M312.9,269.3c0.4,1,0.8,2,1.2,3C313.7,271.3,313.3,270.3,312.9,269.3L312.9,269.3z"/>
	<path fill="#FFFFFF" d="M165,333.3c-0.1-0.4-0.1-0.7-0.1-0.9c0-0.1,0.3-0.2,0.4-0.4c0.1,0.2,0.5,0.4,0.4,0.6
		C165.7,332.8,165.4,333,165,333.3z"/>
	<path fill="#FFFFFF" d="M256.9,265.6c0.1-0.5,0.2-0.9,0.3-1.4c0.2,0.1,0.3,0.1,0.5,0.2C257.4,264.8,257.2,265.2,256.9,265.6
		L256.9,265.6z"/>
	<path fill="#FFFFFF" d="M309.6,261.1c-0.1-0.3-0.2-0.5-0.2-0.8c0-0.1,0.2-0.2,0.3-0.3c0.1,0.3,0.2,0.5,0.3,0.8
		C310,260.9,309.8,261,309.6,261.1z"/>
	<path fill="#FFFFFF" d="M295.2,220c0.3,0.5,0.6,0.9,0.9,1.4c-0.1,0-0.2,0.1-0.3,0.1C295.6,221,295.4,220.5,295.2,220L295.2,220z"/>
	<path fill="#FFFFFF" d="M277,231.6c-0.4,0.2-0.8,0.5-1.2,0.7c0-0.1-0.1-0.2-0.1-0.4C276,231.8,276.5,231.7,277,231.6L277,231.6z"/>
	<path fill="#FFFFFF" d="M195.8,239.3c0.1,0.2,0.2,0.3,0.2,0.5c-0.1,0.1-0.3,0.2-0.4,0.2c-0.1-0.1-0.2-0.3-0.3-0.4
		C195.6,239.4,195.7,239.4,195.8,239.3z"/>
	<path fill="#FFFFFF" d="M303.5,242c-0.1,0-0.3,0.1-0.4,0.1c0,0-0.2-0.2-0.1-0.2c0.1-0.1,0.2-0.2,0.2-0.4
		C303.3,241.6,303.4,241.8,303.5,242z"/>
	<path fill="#FFFFFF" d="M296.9,224.7c-0.1-0.2-0.2-0.3-0.2-0.5c0-0.1,0.2-0.2,0.3-0.3c0.1,0.2,0.2,0.3,0.2,0.5
		C297.3,224.5,297,224.6,296.9,224.7z"/>
	<path fill="#FFFFFF" d="M281.2,198.7c-0.2-0.3-0.5-0.6-0.7-0.8c0.1-0.1,0.2-0.1,0.3-0.2C281,198,281.1,198.4,281.2,198.7
		L281.2,198.7z"/>
	<path fill="#FFFFFF" d="M305.3,248.9c0.1,0.1,0.3,0.3,0.3,0.4c0,0.1-0.2,0.2-0.3,0.3c0-0.1-0.2-0.2-0.1-0.2
		C305.2,249.2,305.3,249,305.3,248.9z"/>
	<path fill="#FFFFFF" d="M308,255.9c0.2,0.3,0.5,0.6,0.7,0.8c-0.1,0.1-0.2,0.1-0.4,0.2C308.2,256.6,308.1,256.2,308,255.9L308,255.9
		z"/>
	<path fill="#FFFFFF" d="M176.3,197.1c0-0.1-0.1-0.2-0.1-0.3c0-0.1,0.1-0.1,0.2-0.1C176.3,196.8,176.3,196.9,176.3,197.1z"/>
	<path fill="#FFFFFF" d="M278.8,230.3c-0.6,0.4-1.2,0.8-1.8,1.2l0,0C277.6,231.2,278.2,230.8,278.8,230.3L278.8,230.3z"/>
	<path fill="#FFFFFF" d="M229.9,272.7c0,0.2,0,0.3,0,0.4c-0.1,0-0.1,0-0.2,0C229.7,273,229.8,272.9,229.9,272.7z"/>
	<path fill="#FFFFFF" d="M257.2,170.8c0,0.1-0.1,0.1-0.1,0.2c0-0.1-0.1-0.2-0.1-0.2c0-0.1,0.1-0.1,0.1-0.2
		C257.2,170.6,257.2,170.7,257.2,170.8z"/>
	<path fill="#FFFFFF" d="M276.4,331.4c0.3-0.2,0.6-0.5,0.9-0.7C276.9,330.9,276.6,331.1,276.4,331.4L276.4,331.4z"/>
	<polygon fill="#FFFFFF" points="237.5,328.4 237.3,328.4 237.4,328.2 	"/>
	<path fill="#FFFFFF" d="M259.9,319.8c0.1,0.3,0.2,0.7,0.4,1C260.2,320.5,260,320.1,259.9,319.8L259.9,319.8z"/>
	<path fill="#FFFFFF" d="M301.9,237.6c-0.2-0.3-0.4-0.6-0.6-1C301.5,237,301.7,237.3,301.9,237.6L301.9,237.6z"/>
	<polygon fill="#FFFFFF" points="338.2,323.3 338.4,323.3 338.3,323.4 	"/>
	<path fill="#FFFFFF" d="M248.4,321c0.1,0.2,0.2,0.5,0.2,0.7c-0.1-0.1-0.1-0.1-0.2-0.2C248.4,321.4,248.4,321.2,248.4,321L248.4,321
		z"/>
	<path fill="#FFFFFF" d="M264.2,352.6c-0.1,0.2-0.2,0.5-0.2,0.7c0-0.1-0.1-0.2,0-0.2C264,352.9,264.1,352.8,264.2,352.6L264.2,352.6
		z"/>
	<polygon fill="#FFFFFF" points="296.2,247.1 296,247.1 296.1,247 	"/>
	<path fill="#FFFFFF" d="M294.6,218.2c0.2,0.6,0.4,1.2,0.6,1.8l0,0C295,219.4,294.8,218.8,294.6,218.2L294.6,218.2z"/>
	<polygon fill="#FFFFFF" points="235.9,269.5 236,269.7 235.8,269.7 	"/>
	<polygon fill="#FFFFFF" points="248.1,211.9 248,211.8 248.1,211.7 	"/>
	<path fill="#FFFFFF" d="M279.4,181.1c-0.2-0.6-0.4-1.2-0.6-1.8l0,0C279,179.8,279.2,180.5,279.4,181.1L279.4,181.1z"/>
	<path fill="#FFFFFF" d="M301.9,237.6c0.1,0.2,0.2,0.5,0.2,0.7c0-0.1-0.1-0.1-0.1-0.2C301.9,238,301.9,237.8,301.9,237.6
		L301.9,237.6z"/>
	<path fill="#FFFFFF" d="M291,210.3c0.1,0.2,0.2,0.5,0.2,0.7C291.1,210.7,291,210.5,291,210.3L291,210.3z"/>
	<path fill="#FFFFFF" d="M312.2,267.5c0.2,0.6,0.4,1.2,0.6,1.8l0,0C312.7,268.7,312.5,268.1,312.2,267.5L312.2,267.5z"/>
	<path fill="#FFFFFF" d="M197.9,377c-0.1-0.1-0.1-0.1-0.2-0.2C197.8,376.9,197.8,376.9,197.9,377L197.9,377z"/>
	<path fill="#FFFFFF" d="M217.9,93.5c0.1,0,0.1-0.1,0.2-0.1C218.1,93.3,218,93.4,217.9,93.5L217.9,93.5z"/>
	<path fill="#FFFFFF" d="M275.1,332c0.4-0.2,0.8-0.4,1.2-0.6l0,0C275.9,331.5,275.5,331.7,275.1,332L275.1,332z"/>
	<path fill="#FFFFFF" d="M326.2,327.7c-0.1,0-0.2,0-0.2-0.1C326.1,327.6,326.2,327.7,326.2,327.7L326.2,327.7z"/>
	<path fill="#FFFFFF" d="M326.2,327.7c0.1,0,0.2,0,0.2,0.1C326.4,327.7,326.3,327.7,326.2,327.7L326.2,327.7z"/>
	<path fill="#FFFFFF" d="M292.2,237.6c0-0.1-0.1-0.1-0.1-0.2C292.1,237.5,292.1,237.6,292.2,237.6L292.2,237.6z"/>
	<path fill="#FFFFFF" d="M292.2,237.6c0,0.1,0.1,0.1,0.1,0.2C292.3,237.8,292.2,237.7,292.2,237.6L292.2,237.6z"/>
	<path fill="#FFFFFF" d="M236.2,313.7c0,0.4,0,0.8,0,1.2l0,0C236.2,314.5,236.2,314.1,236.2,313.7
		C236.2,313.7,236.2,313.7,236.2,313.7z"/>
	<path fill="#FFFFFF" d="M236.2,314.9c0,0.1-0.1,0.2-0.1,0.2C236.1,315.1,236.2,315,236.2,314.9L236.2,314.9z"/>
	<path fill="#FFFFFF" d="M259.9,319.8c-0.1-0.1-0.1-0.1-0.2-0.2C259.8,319.7,259.9,319.7,259.9,319.8L259.9,319.8z"/>
	<path fill="#FFFFFF" d="M270.9,234.6c0.1-0.1,0.1-0.1,0.2-0.2C271,234.5,270.9,234.5,270.9,234.6L270.9,234.6z"/>
	<path fill="#FFFFFF" d="M264.2,143.9c0.1,0.1,0.1,0.1,0.2,0.2C264.3,144.1,264.2,144,264.2,143.9L264.2,143.9z"/>
	<path fill="#FFFFFF" d="M278.8,230.3L278.8,230.3L278.8,230.3z"/>
	<path fill="#FFFFFF" d="M241.1,225.5L241.1,225.5L241.1,225.5z"/>
	<path fill="#FFFFFF" d="M294.6,218.2L294.6,218.2L294.6,218.2z"/>
	<path fill="#FFFFFF" d="M290.9,210.3L290.9,210.3L290.9,210.3z"/>
	<path fill="#FFFFFF" d="M263,159.8c-0.2-0.2-0.4-0.4-0.6-0.6l0,0C262.6,159.4,262.8,159.6,263,159.8L263,159.8z"/>
	<path fill="#FFFFFF" d="M180.2,149.4L180.2,149.4L180.2,149.4z"/>
	<path fill="#FFFFFF" d="M279.4,181.1L279.4,181.1L279.4,181.1z"/>
	<path fill="#FFFFFF" d="M256.9,173.1L256.9,173.1L256.9,173.1z"/>
	<path fill="#FFFFFF" d="M256.9,173.8c0-0.2,0-0.4,0-0.6l0,0C256.9,173.4,256.9,173.6,256.9,173.8L256.9,173.8z"/>
	<path fill="#FFFFFF" d="M309.8,291.2c0.2,0,0.4,0,0.6,0l0,0C310.2,291.2,310,291.2,309.8,291.2L309.8,291.2z"/>
	<path fill="#FFFFFF" d="M325,324c0.2,0.2,0.4,0.4,0.6,0.6l0,0C325.4,324.4,325.2,324.2,325,324L325,324z"/>
	<path fill="#FFFFFF" d="M257.5,314.9L257.5,314.9L257.5,314.9z"/>
	<path fill="#FFFFFF" d="M257.5,314.9L257.5,314.9L257.5,314.9z"/>
	<path fill="#FFFFFF" d="M180.8,306.4L180.8,306.4L180.8,306.4z"/>
	<path fill="#FFFFFF" d="M308,255.9L308,255.9L308,255.9z"/>
	<path fill="#FFFFFF" d="M270.9,234.6C270.9,234.6,270.9,234.6,270.9,234.6L270.9,234.6z"/>
	<path fill="#FFFFFF" d="M236.8,272.9L236.8,272.9L236.8,272.9z"/>
	<path fill="#FFFFFF" d="M319.6,278.4c0-0.2,0-0.4,0-0.6l0,0C319.5,278,319.5,278.2,319.6,278.4L319.6,278.4z"/>
	<path d="M224.5,123.6c-1.3,0.1-2.8,0.1-4.2,0.2c-1.5,0.1-2.7-0.4-2.8-2.1c-0.2-3.7-0.3-7.4-0.4-11.2c0-2.1,1.3-3.1,3.2-3.4
		c4.4-0.8,8.9-1,13.2,0.3c4.4,1.3,5.7,5.4,7.5,9c0.4,0.8,0.6,1.7,0.7,2.6c0.2,1.5,0.3,3,0.5,4.5c-1.3,0.1-2.5,0.3-3.8,0.3
		c-2.3,0.1-4.6,0.3-7,0.3C229.2,124.2,226.9,123.8,224.5,123.6z M234.4,122c0,0.2,0,0.3,0,0.5c1.3-0.1,2.6-0.3,3.9-0.4
		c1.7-0.2,2.1-1.1,1.4-2.5c-1.2-2.7-2.4-5.3-3.7-8c-0.7-1.5-1.9-2.1-3.7-2.1c-3.5,0.1-7,0.1-10.5,0c-1.7-0.1-2.5,0.6-2.5,2.2
		c0,2.4,0.2,4.8,0,7.2c-0.2,2.1,0.6,3.1,2.6,3.1C226.2,122.1,230.3,122,234.4,122z"/>
	<path d="M209.7,114.8c-0.3,2.5-0.5,5-0.9,7.5c-0.2,1.7-1.4,2.3-3,2.4c-4.6,0.2-9.3,0.5-13.9,0.7c-3.5,0.1-4.6-1.1-4-4.5
		c0.7-4.4,1.1-8.9,4.6-12.2c0.9-0.9,2.4-1.6,3.6-1.7c3.3-0.2,6.7-0.1,10-0.1c2.4,0,3.5,1.1,3.4,3.5c-0.1,1.5,0,3,0,4.5
		C209.5,114.8,209.6,114.8,209.7,114.8z M196.7,123.2c2.8-0.2,5.6-0.3,8.4-0.7c0.6-0.1,1.4-0.8,1.5-1.2c0.3-3.5,0.5-7,0.6-10.5
		c0-0.7-0.9-1.9-1.3-1.9c-3.7,0.2-7.4,0.3-11.1,1c-1.1,0.2-2,1.9-2.7,3c-0.5,0.8-0.5,1.9-0.8,2.9C189.2,123,189.3,123.1,196.7,123.2
		z"/>
	<path d="M236.7,138.1c-1.5-0.2-3.1-0.2-4.6-0.5c-6.6-1.4-13.3-1-19.9-0.4c-3.3,0.3-6.7,0-10,0c-5,0-10.1,0-15.1,0
		c-1.6,0-3.2-0.1-4.8-0.3c-0.5-0.1-1-0.7-1.4-1.1c0.5-0.2,1-0.6,1.5-0.6c7.7,0,15.3,0.2,23,0.1c6.3,0,12.5-0.2,18.8-0.4
		c0.8,0,1.7-0.2,2.4,0c6.2,1.3,12.4,0.2,18.6,0.7c0.5,0,0.9,0.5,1.4,0.7c-0.4,0.3-0.7,0.8-1.1,0.8
		C242.5,137.5,239.6,137.8,236.7,138.1z"/>
	<path d="M247.5,126c-0.4,1.2-0.8,2.2-1.2,3.3c-0.4-1-0.8-2.1-1.2-3.1c-1-3-1.8-6-2.8-8.9c-0.8-2.2-2-4.2-2.9-6.3
		c-3-6.9-3.4-6.2-10.3-6.7c-2.5-0.2-5.2,0.8-7.7,0.8c-0.9,0-1.9-1-2.9-1.6c0.7-0.4,1.4-1.2,2.1-1.2c4.8,0.1,9.7,0,14.4,0.7
		c3.1,0.5,5.1,3.3,6.2,6.3c1.4,3.7,3.1,7.4,4.6,11.1C246.6,122.2,247,124.1,247.5,126z"/>
	<path d="M194.1,129.4c2.4-0.1,4.8-0.3,7.3-0.4c0.5,0,1,0.3,1.5,0.5c-0.5,1-1,2-1.5,3c-0.4-0.2-0.8-0.4-1.2-0.6
		c-0.6-0.3-1.3-0.9-2-0.9c-4.5,0-9.1,0.2-13.6,0.2c-0.9,0-1.7-0.6-2.6-0.9c0.6-0.9,0.9-2.3,1.7-2.6c2-0.8,4.3-1.4,6.4-1.5
		c4.6-0.2,9.3-0.1,13.9,0c0.8,0,1.5,0.6,2.3,0.9c-0.9,0.3-1.8,0.8-2.6,0.8c-4.5,0-9-0.1-13.6-0.1c-0.5,0-1,0.1-1.5,0.3
		c-0.6,0.2-1.3,0.5-1.9,0.7c0.7,0.2,1.4,0.5,2.1,0.6c1.7,0.1,3.4,0,5.2,0C194.1,129.3,194.1,129.4,194.1,129.4z"/>
	<path d="M229.9,127c-2.2,0-4.4,0-6.7,0c-1.7,0-3.2,0.2-3.5,2.4c-0.1,0.5-0.6,0.9-1,1.3c-0.4-0.5-1.1-0.9-1.2-1.5
		c-0.6-2.1,1-3.8,3.7-4c2.2-0.2,4.4-0.1,6.6,0c3.3,0.1,6.6,0.2,10,0.3c0.8,0,1.7,0.2,2.3,0.6c0.5,0.3,0.7,1.1,1.1,1.6
		c-0.6,0-1.2,0-1.7,0c-3.2-0.3-6.4-0.6-9.6-0.9C229.9,126.8,229.9,126.9,229.9,127z"/>
	<path d="M263.4,136.4c-0.5,0.2-1.2,0.6-1.4,0.4c-3.7-4.2-7.7-4.7-12.3-1.5c-0.1,0.1-1-0.8-0.9-0.9c0.3-0.7,0.8-1.5,1.4-2
		c3.5-3,10.8-1.4,12.8,2.7C263.1,135.5,263.2,135.8,263.4,136.4z"/>
	<path d="M245.9,143.3c0.7,0.1,1.4,0,2,0.2c0.6,0.2,1,0.6,1.5,0.9c-0.6,0.1-1.4,0.5-1.9,0.3C247,144.5,246.5,143.8,245.9,143.3
		L245.9,143.3z"/>
	<path d="M325.4,256.2c-0.1-0.2-0.2-0.4-0.2-0.5c0-0.1,0.3-0.2,0.4-0.3c0.1,0.2,0.2,0.4,0.2,0.5C325.7,256,325.5,256,325.4,256.2z"
		/>
	<path d="M179.4,359.1c0.1-0.1,0.1-0.2,0.2-0.2c0.1,0.1,0.2,0.2,0.3,0.3c0,0-0.1,0.1-0.2,0.2C179.6,359.3,179.5,359.2,179.4,359.1z"
		/>
	<polygon points="371.9,352.8 371.8,352.6 372,352.6 	"/>
	<path d="M248.6,354.8c0,0.1-0.1,0.2-0.1,0.2c-0.1,0-0.2-0.1-0.2-0.1c0.1-0.1,0.1-0.2,0.2-0.3C248.5,354.6,248.5,354.7,248.6,354.8z
		"/>
	<polygon points="374.7,334.1 374.6,334.2 374.6,334 	"/>
	<polygon points="363.2,325.7 363.4,325.7 363.3,325.9 	"/>
	<polygon points="336.9,311.5 337,311.7 336.8,311.6 	"/>
	<polygon points="107.4,365.2 107.4,365.4 107.2,365.3 	"/>
	<polygon points="389.7,348.5 389.6,348.6 389.6,348.4 	"/>
	<polygon points="377,347.5 377,347.4 377.1,347.5 	"/>
	<polygon points="310.7,236.9 310.6,236.6 310.8,236.7 	"/>
	<path d="M319.5,278.4c0-0.2,0-0.4,0-0.6c0.2,0.1,0.4,0.1,0.6,0.2C320,278.1,319.8,278.3,319.5,278.4z"/>
	<path d="M327.2,266.4c-0.1,0-0.2,0.1-0.3,0.1c0-0.1,0-0.1-0.1-0.2C326.9,266.3,327,266.4,327.2,266.4z"/>
	<polygon points="167.2,195.6 167.4,195.5 167.4,195.6 	"/>
	<path d="M287.9,341.7c-0.1,0-0.2,0-0.2-0.1C287.8,341.6,287.8,341.7,287.9,341.7L287.9,341.7z"/>
	<path d="M287.9,341.7L287.9,341.7L287.9,341.7z"/>
	<path d="M220.5,147.4c0.1-0.4,0.2-1,0.5-1.6c0.1-0.2,0.5-0.6,0.6-0.5c0.3,0.1,0.8,0.4,0.8,0.7c0.1,4.1,3.5,6.2,5.4,9.2
		c2.3,3.8,3.8,8,5.5,12c0.2,0.4-0.2,1.1-0.3,1.6c-0.5-0.4-1.2-0.7-1.4-1.2c-1.5-3-2.9-6-4.5-8.9c-0.7-1.3-1.6-2.7-2.7-3.5
		C221.4,153.2,220.9,150.5,220.5,147.4z"/>
	<path d="M230.7,234c0-0.1,0-0.2,0.1-0.3C230.8,233.8,230.7,233.9,230.7,234L230.7,234z"/>
	<path d="M222.2,201.8L222.2,201.8L222.2,201.8z"/>
	<path d="M222.2,201.7L222.2,201.7L222.2,201.7z"/>
	<path d="M230.7,234L230.7,234L230.7,234z"/>
	<path d="M258.7,262c-0.2-0.3-0.4-0.6-0.6-1c0,0,0.1-0.1,0.2-0.1c0.2,0.3,0.3,0.7,0.5,1L258.7,262z"/>
	<path d="M309.8,291.8c0,0.1,0,0.2-0.1,0.2C309.8,292,309.8,291.9,309.8,291.8L309.8,291.8z"/>
	<path d="M309.8,291.2c0.2,0,0.4,0,0.6,0c-0.2,0.2-0.4,0.4-0.6,0.6l0,0C309.8,291.6,309.8,291.4,309.8,291.2z"/>
	<path d="M264.6,232.7c-0.1-0.1-0.1-0.2-0.2-0.2c0.1,0,0.3-0.1,0.4-0.1c0,0.1,0,0.2,0,0.3C264.8,232.7,264.7,232.7,264.6,232.7z"/>
	<path d="M255.7,283.9c0.1,0.1,0.1,0.1,0.2,0.2C255.8,284,255.7,283.9,255.7,283.9L255.7,283.9z"/>
	<path d="M293.4,233.4c0.1-0.1,0.1-0.1,0.2-0.2C293.5,233.3,293.5,233.3,293.4,233.4L293.4,233.4z"/>
	<path d="M298.9,246.8L298.9,246.8L298.9,246.8z"/>
	<path d="M295.8,232.8L295.8,232.8L295.8,232.8z"/>
	<polygon points="326.9,305.9 326.7,306 326.6,305.8 	"/>
	<path d="M243.5,318c0-0.1,0-0.2,0.1-0.2C243.5,317.8,243.5,317.9,243.5,318L243.5,318z"/>
	<path d="M240.8,337.3c-1.6,1.3-2.5,2.4-3.7,2.9c-0.3,0.1-1.9-1.2-1.9-1.9c0-1.7,1.4-2.6,3-2.6C238.9,335.7,239.5,336.4,240.8,337.3
		z"/>
	<path d="M234.4,343.5L234.4,343.5L234.4,343.5z"/>
	<path d="M259.3,293L259.3,293L259.3,293z"/>
	<path d="M231.3,313.1c0.1-0.4,0.2-0.7,0.3-1.1c0.1,0.1,0.2,0.1,0.4,0.2C231.8,312.5,231.6,312.8,231.3,313.1L231.3,313.1z"/>
	<path d="M261.1,247.4c-0.1-0.1-0.1-0.1-0.2-0.2C261,247.2,261.1,247.3,261.1,247.4L261.1,247.4z"/>
	<path d="M176.6,144.6L176.6,144.6L176.6,144.6z"/>
	<path fill="#FFFFFF" d="M234.4,122c-4.1,0-8.2,0-12.3,0c-2,0-2.8-0.9-2.6-3.1c0.2-2.4,0-4.8,0-7.2c0-1.6,0.8-2.3,2.5-2.2
		c3.5,0.1,7,0.2,10.5,0c1.8-0.1,2.9,0.5,3.7,2.1c1.2,2.6,2.5,5.3,3.7,8c0.6,1.4,0.2,2.3-1.4,2.5c-1.3,0.1-2.6,0.3-3.9,0.4
		C234.4,122.4,234.4,122.2,234.4,122z"/>
	<path fill="#FFFFFF" d="M196.7,123.2c-7.5-0.2-7.5-0.2-5.4-7.4c0.3-1,0.3-2.1,0.8-2.9c0.7-1.2,1.6-2.8,2.7-3
		c3.6-0.7,7.4-0.8,11.1-1c0.4,0,1.3,1.2,1.3,1.9c0,3.5-0.3,7-0.6,10.5c0,0.5-0.9,1.2-1.5,1.2C202.4,122.9,199.5,123,196.7,123.2z"/>
</g>
</svg>
