<?xml version="1.0" encoding="utf-8"?>
<!-- Generator: Adobe Illustrator 17.1.0, SVG Export Plug-In . SVG Version: 6.00 Build 0)  -->
<!DOCTYPE svg PUBLIC "-//W3C//DTD SVG 1.1//EN" "http://www.w3.org/Graphics/SVG/1.1/DTD/svg11.dtd">
<svg version="1.1" id="Ebene_1" xmlns="http://www.w3.org/2000/svg" xmlns:xlink="http://www.w3.org/1999/xlink" x="0px" y="0px"
	 viewBox="0 0 500 500" enable-background="new 0 0 500 500" xml:space="preserve">
<g>
	<path fill="#FFFFFF" d="M243.1,138.6c-7,1.8-14.6-0.1-20.9-4.7c1.1,0.9,0.9,0.8-0.7-0.4c-2-1.5-3.9-3-5.8-4.5
		c-6.2-5.1-8-15.2-5.9-22.6c0.5-2,1.3-3.7,2.2-5.2c-5.2-0.1-10.4-0.2-15.6-0.3c0,0-0.1,0-0.1,0c-0.1,0.6-0.5,1.1-1.2,1.1
		c-0.7,0-1.3-0.1-1.8-0.3c-0.4,0.1-0.7,0-1-0.2c0.1,0.2,0.3,0.4,0.5,0.5c1.1,0.3,2.2,0.6,3.3,0.8c1.6,0.4,3.2,0.7,4.9,1.1
		c2.6,0.6,2.8,2.4,2.4,4.6c-0.3,1.7-0.6,3.5-0.6,5.3c0,6.5-1.3,8.6-7.4,10.9c-1.5,0.6-2.5,1.1-2.5,3.1c0,2.3,0.6,3.1,3.1,2.9
		c4.2-0.2,8.4-0.2,12.5,0.2c4.1,0.4,6.6,3.1,7.9,7.1c1,3,2.3,5.9,3.5,8.8c0.1,0.3,0.3,0.6,0.6,0.7c5,1.8,9.8,4.3,15.4,3.5
		c0.4-0.1,0.8-0.2,1.2-0.4c4.7-2.2,9-0.5,11.1,4.4c0.4,1,0.9,1.9,1.5,2.8c1.2,1.7,1.7,3.5,1.2,5.7c-0.6,2.4,1.8,5.7,4.1,6.2
		c0.1,0,0.3,0.1,0.3,0.1c2.5-3,3.1,0.1,4.4,1.3c1.5,1.4,3.5,2.1,4.2,4.4c0.7,2.2,2.4,4.2,3.7,6.2c0.1,0.1,0.6,0.1,0.8,0
		c0.6-0.7,0.7-0.8,1-0.2c2.2,4.2,6,4.2,9.9,3.6c0.3,0,0.5,0,0.8-0.1C262.3,174.9,249,158.2,243.1,138.6z"/>
	<path fill="#FFFFFF" d="M204.5,434.4c1.9-2.4,4.4-4.4,7.2-5.8c-1-0.4-1.9-1-2.1-1.7c-0.7-2.2-1.3-4.5-1.4-6.8
		c-0.3-6.9-0.5-13.9-0.6-20.8c0-2.9,0.6-5.9,0.7-8.8c0.3-7,0.7-14.1,0.8-21.1c0-3.2-2.1-5.2-5-5.4c-1.4-0.1-1.9,0.1-1.8,1.7
		c0.2,2.4,0.2,4.9,0.1,7.3c-0.5,13.5-1,27-1.5,40.5c-0.2,7-0.3,13.9-0.3,20.9c0,0.3,0,0.5,0,0.8C202,434.7,203.2,434.6,204.5,434.4z
		"/>
	<path fill="#FFFFFF" d="M216.6,407c0,1.2,0,2.7,0.6,3.6c2.9,4,1.1,8.1,0.8,12.2c-0.4,0-0.7-0.1-1.1-0.1l0,0
		c-0.1,0.5-0.4,1.3-0.1,1.5c0.9,1,1.1,1.8,0.8,2.4c2.5-0.4,5.2-0.1,7.7,0.8c2.6,1,5.1,1.9,7.5,3c0.7-0.2,1.4-0.4,2.1-0.6
		c0.2-3.2,0.7-6.3,1.8-9.4c2.3-6.7,5.8-14.1,11.5-18.6c0.8-0.7,1.7-1.3,2.5-2c-0.4-8.5,0.2-17.2,1.4-25.7
		c1.5-10.1,12.9-17.1,22.2-17.1c10.4,0,19.3,7.1,22.2,17.1c0,0.1,0,0.1,0,0.2c0.2,0.3,0.3,0.6,0.5,0.9c1,2.1,2.1,4.1,3,6.2
		c1.4,3.2,3,6.5,3.7,10c0.9,4.7,0.8,8.3,0.3,12.4c16,0.1,31.7-1.7,47.6-3.2c8.6-6,16.9-12.5,26.2-17.5c5-2.6,10.1-4.9,14.9-8
		c0-0.5,0.1-1,0.1-1.4c0.1-5.7-0.2-11.4-0.7-17c-0.6-7.4-1.4-14.8-2.3-22.2c-0.1-1-0.3-2.4-0.4-2.8c-0.3-1.9-0.5-3.8-0.8-5.6
		c-0.6-3.8-1.2-7.5-1.8-11.3c-2.7-15.6-6-31.2-9.9-46.5c-1-3.9-1.9-8-3.2-11.8c-1.3-0.9-2.6-1.7-3.9-2.7
		c-12.6-9.5-21.9-22-26.4-37.3c-1-3.2-1.8-6.4-2.7-9.7c-0.4-1.4-0.8-2.7-1.4-4.1c-1.2-2.6-2.4-5.2-3.8-7.8
		c-5.7,0.2-11.5,0.4-17.2,0.4c-10,0.1-19.6-1.9-28.5-5.5c0.4,0.6,0.8,1.2,1.2,1.9c2.3,4,4,8.4,6.6,12.2c3.8,5.5,8.5,10.1,14.7,13.4
		c6.7,3.6,13,8,18,13.9c6.8,8,11.6,17.5,16.9,26.5c1.4,2.4,2.6,4.6,5.2,6.1c3.2,1.8,4.9,5.1,5.9,8.6c2,7,5.8,13.1,9,19.5
		c4.7,9.4,7.5,19.4,9.1,29.8c0.7,4.4,2,8.6,2.8,13c1,6.1,1.8,12.3,2.7,18.4c0.7,4.7,1.3,9.4,2,14.1c0.3,1.9,1.5,4.1-2.1,3.9
		c-1,0-2,1.1-3,1.6c-9.9,5.4-19.8,11-29.8,16.2c-4.2,2.2-8.7,3.7-13.1,5.2c-1.6,0.5-3.6,0.4-5.2-0.2c-2.1-0.8-3.4-0.3-4.5,1.4
		c-0.3,0.5-0.8,1.1-1.3,1.4c-0.4,0.2-0.9,0.1-1.4,0.1c0.1-0.4,0-0.8,0.2-1.1c0.7-1.1,1.5-2,2.2-3.1c1.2-1.8,2.8-2.4,4.6-1.4
		c3.2,2,5.9,1.2,8.9-0.5c5.8-3.4,11.7-6.4,17.7-9.5c2.1-1.1,4.5-1.5,6.6-2.6c2-1,3.7-2.4,5.5-3.7c0.3-0.2,0.7-0.8,1-0.7
		c4.2,1,5.4-3.8,8.8-4.6c2.1-0.5,2.9-2.4,2.6-4.8c-0.9-7.9-1.6-15.7-2.4-23.6c-0.1-0.7-0.2-1.5-0.4-2.2c-2.1-9.9-3.9-19.9-6.5-29.6
		c-1.7-6.3-4.8-12.3-7.4-18.3c-2.5-5.9-5.3-11.7-7.9-17.5c-1.4-3.1-2.8-5.7-5.8-7.9c-2.7-2-4.2-5.7-6.1-8.6c-1-1.5-1.6-3.2-2.6-4.7
		c-4.6-6.8-8.8-13.9-14-20.2c-3.5-4.2-8.2-7.5-12.8-10.5c-4.6-3-9.7-5.2-13.3-9.4c-3.1-3.6-6-7.3-8.4-11.3
		c-2.6-4.3-4.4-9.1-8.4-12.5c-1.7-1.4-8.6-2-10.1-0.7c-0.2,0.2-0.1,0.9,0.1,1.2c1.8,3.4,3.9,6.7,5.4,10.2c3.4,7.7,7.8,14.4,15,19
		c1.7,1.1,3.2,2.5,4.8,3.8c0.6-3.1,2.3-4.9,4.5-4.6c0.6,0.1,1.2,0.6,1.8,1c-0.5,0.4-0.8,1.1-1.4,1.3c-3.3,1.4-3.8,3.2-1.1,5.8
		c3.4,3.3,7.2,6.1,10.3,9.6c2.8,3.2,5,7,7.3,10.6c3.7,5.9,7.3,11.8,10.7,17.8c1.6,2.9,2.8,6.1,4,9.2c0.3,0.8-0.1,2-0.2,2.9
		c-0.7-0.7-1.6-1.3-2-2.1c-2.1-4.5-3.7-9.2-6.2-13.5c-3.3-5.7-7.2-11-10.8-16.5c0,0.2-0.1,0.4-0.1,0.6c0,0.1-0.1,0.1-0.2,0.1
		c0.1-0.3,0.2-0.5,0.3-0.8c-4.1-7.5-10.5-12.9-16.8-18.3c-0.5-0.5-1.4-1.2-1.8-1.1c-2.8,0.9-4.1-1.1-5.5-2.7
		c-4.2-5.1-8.4-10.2-12.2-15.5c-1.7-2.3-2.6-5.3-3.9-7.9c-0.6-1.3-1.1-2.8-2.8-0.8c-0.4,0.5-1.5,0.3-2.3,0.4c0.1-0.8,0-1.6,0.3-2.2
		c1.8-3.5,1.7-3.3-1.2-6.3c-3.3-3.4-6.3-7.1-9.2-10.8c-2.3-2.9-5.2-4.6-8.4-6.3c-4-2.2-7.9-3.3-12.3-3.6c-0.2,0-0.4-0.1-0.6-0.1
		c-0.9-0.3-1.9-0.6-2.8-0.9c0.6,0.9,1.1,2,1.8,2.8c4.1,4.9,10.1,7.1,15.1,10.6c1.8,1.2,3.3,2.8,5,4.2c0.9,0.8,1.9,1.5,2.9,2.3
		c0.3,0.2,0.9,0.3,1.1,0.6c1.9,4.6,6.9,7,7.7,12.6c0.5,3.2,3.6,6,5.4,9.1c2,3.4,3.4,7.2,7,9.5c1.5,1,2,3.4,3.2,5
		c5,6.6,10.3,13,15.2,19.7c3.2,4.3,6.1,8.8,8.7,13.5c3.8,6.9,7.1,14.1,10.6,21.1c0.4,0.8,0.8,1.8,0.9,2.7c0.5,3.7,3.4,5.3,6.1,7.1
		c0.5,0.3,1.5-0.2,2.2-0.4c1.4-0.4,2.7-1.1,4.1-1.4c0.6-0.1,1.4,0.6,2.1,0.9c-0.5,0.5-1,1.2-1.6,1.5c-1.5,0.7-3,1.5-4.6,1.9
		c-1.9,0.6-2.3,1.8-2.7,3.6c-0.8,3.9-2.1,7.7-3.6,11.4c-0.7,1.9-2.3,3.5-4.7,2.4c-2.4-1-2.1-3-1.8-5.1c0.6-3.5,1.1-7.1,1.7-10.6
		c0.3-1.6,0.9-3.2,1.4-4.8c0.2-0.7,0.5-1.5,0.3-2.1c-1.1-3.3-2.4-6.5-3.7-9.7c-1-2.5-2-5.1-3.2-7.5c-5.5-10.2-10.1-20.8-18.4-29.2
		c-3.4-3.5-6.2-7.6-9.3-11.3c-1.6-1.9-3.6-3.5-4.9-5.6c-4.5-7.2-9.2-14.3-12.7-22.1c-1.3-2.9-3.7-5.3-6-7.6
		c-1.7-1.7-7.7-0.3-8.6,1.8c-0.3,0.6,0,1.7,0.4,2.3c5.1,10.1,10.3,20,15.3,30.1c3.9,7.8,8.8,15,13.4,22.3c3.4,5.3,6.8,10.5,9.2,16.3
		c0.6,1.5,1.5,2.2,3.1,1.8c2-0.4,4.1-0.8,6.1-1.1c0.5-0.1,1.1,0.1,1.7,0.1c-0.4,0.5-0.7,1.2-1.1,1.4c-2,0.5-4,1.2-6,1.2
		c-1.7,0.1-2.3,0.1-1.7,2.1c2.8,8.6,5.4,17.3,8.4,25.8c2,5.9,4.7,11.5,6.7,17.4c3.4,9.6,6.4,19.4,9.7,29.1
		c4.1,11.9,8.4,23.8,12.5,35.7c1.2,3.5,2,7.1,2.9,10.7c0.1,0.6-0.3,1.3-0.5,1.9c-0.5-0.5-1.4-0.9-1.6-1.4c-0.7-2.4-1-4.9-1.8-7.3
		c-1.7-5.1-3.6-10.1-5.4-15.1c-0.9-2.6-1.4-5.3-2.3-7.9c-1.6-4.8-3.2-9.6-4.9-14.3c-3.1-9-6.2-18.1-9.5-27
		c-1.4-3.7-3.3-7.2-4.9-10.9c-0.9-2.1-1.8-4.3-2.5-6.4c-2-6.1-3.9-12.2-5.8-18.3c-1.1-3.5-2.2-7-3.4-10.5c-0.7-2-1.4-4-2.4-5.8
		c-2.4-4.6-3.6-9.9-7.8-13.4c-0.3-0.3-0.6-0.6-0.8-1c-1.8-4.2-4.2-8-7.1-11.6c-3.4-4.3-5.2-9.8-7.9-14.7c-1.4-2.6-3.2-4.9-4.6-7.5
		c-1.8-3.3-3.9-6.6-4.8-10.2c-0.9-3.9-2.7-7.3-4.8-10.5c-0.4-0.7-1.7-0.8-2.5-1.2c-0.1,0.9-0.4,1.9-0.1,2.6
		c1.6,4.6,3.4,9.1,5.1,13.6c0.4,1.2,0.8,2.4,0.9,3.6c0.1,0.6-0.2,1.3-0.4,2c-0.5-0.5-1.2-0.8-1.4-1.4c-1.3-3.1-2.6-6.2-3.8-9.4
		c-2.5-6.8-4.9-13.7-7.3-20.5c-2.4-6.7-4.8-13.4-7.4-20.1c-1.4-3.7-3.1-7.3-4.9-10.8c-0.4-0.7-1.3-1.2-2-1.7c-0.4,0.9-1.2,1.9-1,2.7
		c0.7,2.4,1.6,4.7,2.6,7c2.1,4.9,4.1,9.7,5.1,15.1c1.3,7.1,3,14.2,7,20.5c0.2,0.4,0.5,0.7,0.6,1.1c2.5,8.9,8.2,16.2,12.3,24.3
		c0.3,0.6,3.1,2,0,2.9c0.3,0.9,0.4,1.8,0.8,2.7c2.8,5.3,5.7,10.6,8.3,16c1.9,3.9,3.1,8,4.9,12c1.6,3.5,3.6,6.8,5.2,10.4
		c1.4,3,2.7,6.2,3.6,9.3c2.5,8,4.6,16,7.2,24c2.2,6.9,4.8,13.7,7.3,20.5c3.7,10.4,7.3,20.9,11.1,31.3c3.4,9.5,7,19,10.5,28.4
		c1,2.7,2.4,5.1,3.5,7.8c0.3,0.6,0,1.4,0,2.1c-0.5-0.4-1.2-0.7-1.5-1.3c-0.7-1.3-1.3-2.6-1.9-4c-0.6-1.3-1-2.5-2.5-3.5
		c-1.4-0.9-2.1-3.6-2.3-5.7c-1-7.4-4.4-14-6.8-20.9c-1.4-4-2.6-8-4.1-11.9c-1.5-4-3.3-7.9-5-11.9c-0.2-0.5-0.6-0.9-0.8-1.4
		c-2-6.1-3.9-12.2-5.9-18.3c-0.6-1.7-1.3-3.3-1.9-5c-0.8-2.1-2.3-4.2-2.2-6.2c0.2-5.3-3-9.3-4.5-14c-1.2-3.7-2-7.5-3.4-11.1
		c-1.2-3.1-3-6-4.5-9c-0.3-0.7-0.9-1.3-1-2c-0.5-6.9-5.4-11.5-8.6-16.9c-0.6-1.1-0.6-3.5-3-2.9c0.5,1.3,0.8,2.7,1.5,3.9
		c4.3,6.9,7.8,14.2,10.8,21.8c3,7.8,6,15.6,8.4,23.5c2.9,9.4,5.1,18.9,7.6,28.4c0.2,0.6,0,1.4-0.1,2.1c-0.6-0.5-1.1-0.9-1.7-1.4
		c-0.6-0.5-1.1-1.1-1.6-1.7c-0.5,0.9-1.3,1.8-1.3,2.6c0.2,2.9,1.5,5.5,4.2,6.6c4.7,1.9,6.4,6.1,8,10.4c2.4,6.5,4.5,13.2,7,19.6
		c3.3,8.3,7,16.5,10.6,24.7c1.3,3.1,2.6,6.2,4.2,9.2c0.6,1.2,1.8,2.2,2.7,3.3c0.3,0.3,0.5,0.7,0.8,1.1c-0.4,0.2-0.8,0.6-1.1,0.5
		c-1.3-0.4-3-0.7-3.8-1.6c-1.6-1.9-2.9-4.1-4-6.4c-2.7-5.8-5-11.7-7.8-17.4c-2.3-4.7-5.3-9.1-7.4-13.9c-2.9-6.3-5.2-12.8-8-19.2
		c-0.7-1.6-1.8-3.1-2.9-4.5c-1.6-2-4.9-2-7.5-0.5c-1.4,0.8-3,1.2-4.6,1.5c-1.4,0.2-2.1-0.5-1.9-2.1c0.3-2.5,0.1-2.6-2.1-1.5
		c-4.9,2.6-9.8,5.2-14.6,8c-3.9,2.2-7.7,4.7-11.5,7c-0.4,0.3-0.9,0.5-1.4,0.6c-0.4,0-0.9-0.3-1.4-0.4c0.3-0.4,0.4-0.9,0.8-1.1
		c4.6-2.7,9.3-5.3,13.9-7.9c5.8-3.2,11.6-6.4,17.3-9.7c2.6-1.5,4.1-1.5,6.5,0.4c0.6,0.5,1.2,1,1.8,1.1c0.8,0.1,1.8-0.2,2.6-0.3
		c-0.4-0.6-0.7-1.1-1.1-1.7c-0.4-0.6-0.8-1.2-1.2-1.9c-0.8-1.5-1.9-2-3.3-1c-1.4,1-2.6,0.6-4.1,0.1c-11.2-4-22.5-7.9-33.8-11.9
		c-0.7-0.2-1.2-0.9-1.9-1.3c0.8-0.1,1.7-0.4,2.3-0.2c10,3.5,19.9,7.1,29.9,10.6c2.1,0.8,4.2,2.7,6.4,0.9c2.4-1.9,0.9-4.4,0.2-6.5
		c-1.6-4.9-3.6-9.6-5.1-14.5c-1.7-5.5-3.2-11.2-4.4-16.8c-1.3-6.2-2.2-12.5-3.3-18.7c-0.4-2.2-0.8-4.4-1.4-6.5
		c-0.5-1.6-0.7-1.6-2-0.4c-0.3,0.2-0.8,0.4-1.1,0.3c-2.8-0.3-4.8,1.4-6.7,2.9c-6.3,5.1-12.5,10.3-18.7,15.4
		c-1.3,1.1-1.7,2.1-1.5,3.8c1.2,8.9,2.2,17.8,3.2,26.7c0,0.4,0.2,0.9,0.1,1.3c-0.1,0.5-0.4,0.9-0.6,1.3c-0.4-0.4-1-0.8-1.1-1.2
		c-0.5-2.8-1-5.6-1.3-8.4c-1.1-9.2-2.2-18.4-3.2-27.7c0-0.4-0.2-0.8-0.2-1.2c-0.2,0.4-0.6,0.9-0.5,1.3c0.2,4.9,0.3,9.9,0.9,14.8
		c0.9,7.9,2.1,15.8,3.3,23.7c0.8,5.7,1.7,11.5,2.8,17.1c1.5,7.5,2.8,15.1,3,22.7c0,0.4,0.8,1.1,1.2,1.1c0.7,0,1.3-0.6,2-0.7
		c0.6-0.2,1.3-0.2,2-0.3c0,0.7,0.1,1.4,0,2.1c-0.5,2.7-1.4,5.3-1.5,8c-0.1,2.2,0.9,4.5,1,6.7c0.3,4.2-1,7.7-4.1,10.8
		c-1.4,1.3-1.9,3.6-2.7,5.5c-0.7,1.8-0.9,3.7-1.7,5.4c-0.3,0.7-1.3,1.6-2,1.7c-0.6,0-1.4-0.9-1.9-1.6c-2.1-3-1.4-6.5-1.8-9.8
		c-0.1-1.1-0.1-2.3-0.4-3.4c-0.5-1.9-1.3-3.7-3.7-3.7c-2.3,0-4.4,0.6-5.3,3.1c-2.2,6-2.6,12.1-2.1,18.4
		C216.8,401.5,216.5,404.3,216.6,407z M316.1,287.1c-0.3,0.1-0.9,0.1-1.1-0.1c-0.4-0.3-0.7-0.8-0.9-1.3c-1.9-5.1-3.7-10.2-5.8-15.3
		c-1.5-3.6-3.6-7-5.3-10.6c-1.9-4.1-5.2-7-7.9-10.4c-0.5-0.6-0.6-1.5-0.9-2.2c0.8,0.3,1.8,0.3,2.4,0.8c4.7,4,8.2,9.1,10.7,14.6
		c3.4,7.4,6,15.2,9,22.9c0.1,0.2,0.1,0.4,0.2,0.7C316.4,286.6,316.3,287,316.1,287.1z M346.9,282c-0.7,0.3-1.6,0.4-2.4,0.2
		c-0.8-0.2-1.6-0.8-2.4-1.2c0.8-0.3,1.5-0.6,2.3-0.9c0,0.1,0.1,0.3,0.1,0.4c0.6-0.1,1.2-0.1,1.9-0.2c0.6,0,1.1,0,1.7,0
		C347.7,281,347.4,281.8,346.9,282z M354,288.2c-0.9-1.2-2.1-2.2-2.8-3.4c-0.4-0.7-0.1-1.8-0.1-2.7c0.7,0.3,1.7,0.4,2.1,1
		c0.9,1.2,1.9,2.6,2.3,4.1c2.9,8.9,7.5,17.1,10.8,25.8c0.7,1.8,1,3.7,1.4,5.5c0.1,0.3-0.2,0.7-0.2,1.1c-0.4-0.3-1-0.5-1.1-0.8
		c-1.8-8-7.6-14.2-9.6-22.1c-0.1-0.4-0.8-0.6-1.2-0.9c-0.8,1.2-1.6,2.3-2.3,3.5c-0.2,0.3,0.3,1,0.6,1.4c4.4,7.5,8.9,15.1,13.3,22.5
		c0.4,0.6,1.2,1,1.9,1.5c-0.1-1-0.3-2-0.4-3c0.6,0.8,1.3,1.6,1.7,2.6c1.5,3.6,2.8,7.2,4.1,10.8c0.2,0.6-0.2,1.3-0.3,2
		c-0.5-0.4-1.1-0.8-1.5-1.4c-1-1.4-1.8-3-2.7-4.4c-3.7-5.9-7.5-11.8-11.2-17.7c-2.6-4.2-5.3-8.3-7.8-12.5c-0.9-1.5-1.4-3.2-2.1-4.8
		c0.6-0.1,1.2-0.1,1.8-0.2C355.6,295,356.8,292.1,354,288.2z M340.4,273.8c1.1-1.3,2.1-3.1,3.5-3.8c1.7-0.8,6,1.3,6.5,2.7
		c0.1,0.3,0.2,0.6,0.4,1.5c-0.7,0-1.4,0.2-1.7,0c-2.5-2.4-4.9-2.5-7.1,0.4c-0.2,0.2-0.8,0.3-1.1,0.2
		C340.6,274.7,340.3,273.9,340.4,273.8z M333.8,313.4c-3.3,0.4-6.2-0.1-8.8-2.1c-0.5-0.4-0.7-1.3-1-2c0.7,0.1,1.4,0,2,0.3
		c2.9,1.5,5.7,2.2,8.9,0.9c3.2-1.3,6-4.4,5.7-7.9c-0.3-3.5-1.2-6.8-4.3-9.1c-0.9-0.7-1.4-2-2.1-3.1c1.3,0.4,3,0.4,3.7,1.2
		c3.2,3.4,5.7,7.3,4.9,12.5C342.8,309.5,339.3,312.8,333.8,313.4z M282.6,273c-1.6,0.1-3.3-1.7-4.9-2.7c-0.1,0,0.1-0.6,0.2-0.8
		c0.2-0.2,0.7-0.2,0.8-0.1c2.4,3.2,4.4,1.3,6.4-0.5c0.2-0.2,0.7,0,1.1,0c0.1,0.2,0.2,0.4,0.3,0.6C285.2,270.8,283.9,273,282.6,273z
		 M237.7,344.1c-0.2-1.9-0.2-3.8-0.5-5.7c-0.9-6-1.8-12.1-2.8-18.7c0.1-0.1,0.4-0.7,0.7-1.3c0.4,0.6,0.9,1.1,1,1.7
		c1.2,7.3,2.3,14.6,3.4,21.9c0.4,2.9,0.3,2.8,3.1,1.3c9-4.8,18-9.4,27-14.1c0.5-0.3,1.3-0.2,1.9-0.2c-0.4,0.4-0.8,0.9-1.3,1.2
		c-8.4,4.7-16.9,9.3-25.3,14c-1,0.6-1.9,1.3-2.8,2C239,348.2,238,347.7,237.7,344.1z"/>
	<path fill="#FFFFFF" d="M335.6,336.1c0-0.1-0.1-0.2-0.1-0.3c-0.1,0.1-0.2,0.2-0.3,0.4c0.1,0,0.2,0.1,0.3,0.1
		C335.5,336.3,335.5,336.2,335.6,336.1z"/>
	<polygon fill="#FFFFFF" points="248.4,208 248.6,208.1 248.5,207.9 	"/>
	<polygon fill="#FFFFFF" points="351.8,288.6 351.7,288.8 351.9,288.8 	"/>
	<polygon fill="#FFFFFF" points="331.3,247.2 331.3,247 331.2,247.1 	"/>
	<path d="M383.7,367.1c-0.7-4.7-1.3-9.4-2-14.1c-0.9-6.1-1.6-12.3-2.7-18.4c-0.7-4.4-2.1-8.6-2.8-13c-1.6-10.4-4.4-20.4-9.1-29.8
		c-3.2-6.4-7-12.5-9-19.5c-1-3.5-2.7-6.8-5.9-8.6c-2.6-1.5-3.8-3.7-5.2-6.1c-5.4-9-10.1-18.4-16.9-26.5c-5-5.9-11.3-10.4-18-13.9
		c-6.1-3.3-10.8-7.8-14.7-13.4c-2.6-3.8-4.3-8.2-6.6-12.2c-0.4-0.7-0.8-1.3-1.2-1.9c-3.5-1.4-6.8-3-10-4.9c-0.3,0-0.5,0-0.8,0.1
		c-3.9,0.6-7.7,0.6-9.9-3.6c-0.3-0.5-0.4-0.4-1,0.2c-0.1,0.1-0.7,0.1-0.8,0c-1.3-2-3-4-3.7-6.2c-0.8-2.4-2.7-3-4.2-4.4
		c-1.2-1.2-1.9-4.3-4.4-1.3c0,0-0.2-0.1-0.3-0.1c-2.3-0.5-4.7-3.9-4.1-6.2c0.5-2.2,0-3.9-1.2-5.7c-0.6-0.9-1.1-1.8-1.5-2.8
		c-2-4.9-6.4-6.7-11.1-4.4c-0.4,0.2-0.8,0.3-1.2,0.4c-5.6,0.9-10.4-1.6-15.4-3.5c-0.2-0.1-0.5-0.4-0.6-0.7c-1.2-2.9-2.5-5.8-3.5-8.8
		c-1.3-4-3.7-6.7-7.9-7.1c-4.1-0.4-8.3-0.5-12.5-0.2c-2.5,0.1-3.1-0.6-3.1-2.9c0-1.9,0.9-2.5,2.5-3.1c6-2.3,7.3-4.3,7.4-10.9
		c0-1.8,0.3-3.5,0.6-5.3c0.4-2.2,0.2-4-2.4-4.6c-1.6-0.4-3.2-0.7-4.9-1.1c-1.1-0.3-2.2-0.5-3.3-0.8c-0.2-0.1-0.3-0.3-0.5-0.5
		c-0.2-0.2-0.4-0.4-0.5-0.7c-0.4,0.1-0.9,0.2-1.5,0.1c-0.3,0-0.5-0.1-0.8-0.1c-0.1,0-0.1,0-0.2,0c-0.2,0.1-0.5,0.2-0.7,0.2
		c0.1,0,0.2,0,0.3,0c-0.9,0.1-1.7,0.2-2.6,0.3c-3.3,0.4-6.6,0.8-9.9,1.3c-2.6,0.4-4.2,2.1-4.5,4.6c-0.6,4.7-1,9.4-1.4,14.1
		c-0.1,1.9,1.6,3.3,3.5,3.3c2.1,0,4.2,0.2,6.2,0.1c1.6-0.1,2.1,0.6,2,2c-0.1,1.3,0.1,2.8-0.5,3.7c-0.5,0.7-2.1,0.8-3.2,0.9
		c-2.1,0.2-4.2,0.3-6.2,0.1c-4.9-0.4-13.5,4.4-15,9.2c-1,3.2-1.3,6.6-1.8,9.9c-0.1,0.4,0.4,0.9,0.6,1.3c0.4-0.3,0.9-0.5,1-0.9
		c0.4-1.3,0.7-2.6,1-4c0.4-1.8,0.7-3.7,1.3-5.5c0.8-2.6,2.6-4.6,5.2-5.1c6.1-1.3,12-3.7,18.4-2.2c0.3,0.1,1.1-0.6,1.1-0.9
		c0.1-3.6,2.2-7.2,0.1-10.8c-0.1-0.1,0.5-0.8,0.8-0.8c4.2-0.2,8.5-0.4,12.7-0.6c-1.6,0.7-3.1,1.9-4.7,2.1c-2.9,0.4-3,2.3-2.8,6
		c0.1,2.5,1.4,3.4,3.8,3.5c4.5,0,8.9,0.2,13.4,0.5c3.1,0.2,5.3,2,6.6,4.7c1.4,2.8,2.5,5.8,3.5,8.8c0.3,0.9-0.2,2-0.3,3
		c0.3,0.2,0.6,0.5,0.9,0.7c-0.3-0.2-0.6-0.5-0.9-0.7c-1.5-2.4-3.3-4.7-4.4-7.2c-1.5-3.6-4.3-4.6-7.7-5c-2.5-0.3-5-1-7.4-1
		c-1.7,0-3.3,1-5,1.4c-2.9,0.6-1.6,2.7-1.6,4.3c0,1.6-0.1,3.2-0.1,4.7c0,3,0.5,4,3.5,4.1c4,0.2,7.9-0.2,11.9-0.3
		c1.7,0,3.3,0.2,5,0.4c0.6,0.1,1.1,0.6,1.6,0.9c-0.5,0.5-1,1.2-1.5,1.3c-2.2,0.5-4.5,1-6.8,1.1c-3.4,0.2-6.9,0.1-10.4-0.1
		c-3.1-0.2-3.6,0.2-3.1,3.2c0.3,1.5,1,2.9-1.5,3.2c-4.4,0.5-5.5,0.1-5.8-2.6c-0.4-4.1-0.4-4.2-4.5-4.1c-4.6,0.1-9.2,0.3-13.8,0.6
		c-1.9,0.1-3.4,0.8-4.1,3.2c-1,3.3-4.5,3.7-7.3,4.6c-0.5,0.2-1-0.1-1.6,0c-0.4,0.1-0.7,0.4-1,0.6c0.3,0.4,0.5,1,0.8,1.1
		c2.2,0.5,4.5,1,6.7,1.2c2.2,0.1,4.4-0.1,6.6-0.5c1.2-0.2,2.3-1,3.5-1.5c1-0.4,2.1-0.9,3.1-0.9c5.3-0.1,10.7,0,16-0.1
		c8.3-0.1,16.7-0.4,25-0.5c1.9,0,3.7,0.3,5.6,0.5c-1.1,1.7-1,2.4,1.3,2.3c1.5-0.1,3.6,0,4.5,0.9c2.1,2,0.8,5.4-2.1,6.1
		c-1,0.2-2.1,0.2-3.1,0.1c-7.2-0.1-14.4-0.1-21.6-0.2c-5-0.1-10-0.4-15-0.5c-4.6,0-9.2,0.1-13.7,0.4c-3.7,0.2-7.5,0.9-11.2,1
		c-2.5,0-5-0.6-7.4-1.1c-2.4-0.5-2.6-0.3-2.5,2.3c0.1,1.8,0.2,3.3,2,4.2c1.7,0.9,1.7,2.2,0,3c-2,0.9-2.4,2.4-2.2,4.4
		c0.9,10.7,1.8,21.4,2.6,32.1c0.2,2.5,0.3,5,0.3,7.6c0.1,1.7,0,3.4,0.1,5c0.5,6.9,1,13.8,1.5,20.7c0.1,0.7,0.1,1.7,0.5,2.1
		c2.3,1.8,1.4,4.1,1.3,6.4c0,3.6,0.5,7.3,0.8,10.9c0.1,1.8,0.1,3.6,0.2,5.4c0.5,7.6,0.9,15.2,1.4,22.7c0.5,6.3,1.2,12.6,1.7,18.9
		c0.1,1.3-0.3,2.7-0.2,4.1c0.2,4.3,0.6,8.6,0.7,12.8c0,1.1-0.4,2.9-1,3.1c-1.8,0.5-1.9-1.3-2-2.5c-0.2-4.1-0.2-8.2-0.5-12.3
		c-0.1-1-1-2-1.4-3c-0.2-0.4-0.4-1-0.4-1.4c-0.2-5.9-0.4-11.8-0.6-17.7c-0.2-5.9-0.4-11.8-0.8-17.7c-0.5-6.6-1.3-13.2-1.7-19.8
		c-1-15.1-1.7-30.3-2.7-45.4c-0.5-8-1.5-15.9-2.3-23.9c-0.1-1-0.2-2.1-0.2-3.2c0.4-4.4-0.8-8.5-1.8-12.7c-0.5-2.1-0.1-4.5,0.1-6.8
		c0.2-1.4,0.9-2.8,1.2-4.2c0.6-2.6,2.1-4.2,4.3-5.5c2.2-1.3,4.2-3.1,6.1-4.7c0.3-0.3,0.2-1.1,0.3-1.7c-0.5,0.2-1.1,0.3-1.5,0.6
		c-3.5,2.9-8.2,4.5-10.5,8.8c-1.2,2.2-2.6,4.7-2.4,7c0.2,4.7,1.4,9.3,2.3,13.9l0,0c-0.3,4.4-0.3,8.7,1.2,13.1c0.8,2.3,0.4,5,0.5,7.5
		c0.4,10.4,0.9,20.9,1.3,31.3c0.1,1.4,0.4,2.7,0.4,4.1c-0.1,2.9-0.4,5.8-0.6,8.7c-0.1,1.7-0.4,3.5,0.1,5c2.2,7.5,2.8,15.3,3.3,23
		c0.5,7.8,1,15.6,1.3,23.4c0.3,6.9,0.4,13.9,0.6,20.9c0,1.2,0.1,2.3,0.3,3.5c0.3,1.6,0.7,2.5-1.9,2.7c-1.6,0.1-3.2,2.4-4.4,4.1
		c-1.3,1.9-2.1,4.1-3.1,6.2c-1.5,2.9-3.9,4.2-7.1,4.4c-2.4,0.2-4.8,0.4-7.2,0.6c-3,0.3-5.1,1.9-6,4.8c-0.9,3-1.5,6.1-2.2,9.2
		c-0.1,0.3,0,0.6-0.1,0.9c-0.3,0.8-1,1.4-1.3,2.2c1.5,1.8,2.8,3.6,4.1,5.5c0.8,0.6,1.8,1,3,1c2.3,0,4.5-0.2,6.8-0.2
		c0.6,0,1.3-0.1,1.8,0.1c4.7,2,9.7,1,14.5,1.2c1.6,0.1,2.8-0.5,3.4-2.5c1-2.9,2.6-5.7,4.1-8.4c0.2-0.3,1.2-0.6,1.3-0.5
		c2,3.3,5.3,2,7.9,2.1c4.8,0.2,6.2,1.5,5.9,6.2c-0.4,5.4,0.2,10.7,2,15.9c0.2,0.5,0.5,1.4,0.9,1.5c2.7,0.3,2.3,2.3,2.3,4
		c0.3,7.4,0.7,14.7,0.9,22.1c0.1,5.9-0.1,11.8-0.2,17.7c0,1.6,0,3.2,0,4.8c0,1.1,0.4,2.8,0.2,3.6c0.5,1,0.9,2.1,1.3,3.1
		c1.1-0.2,2.3-0.4,3.4-0.5c-1-0.4-1.5-1.3-1.8-2.8c-1.9-9.5,0.1-18.9-0.5-28.4c-0.8-11.8-1.2-23.6-1.8-35.4c-0.1-1.5-0.1-3-0.1-4.4
		c-0.2-14.2-0.3-28.5-0.4-42.7c-0.1-10.1-0.1-20.2-0.1-30.3c0-8.2,0-16.4,0.1-24.6c0-3.7,0.9-4.4,4.5-4.2c6.6,0.2,13.1,0.4,19.7,0.7
		c1,0.1,2.5,1,2.7,1.8c1.5,5.3,3.3,10.5,3.8,15.9c0.5,5.2-0.3,10.5-0.4,15.7c0,1.2-0.1,2.3,0,3.5c0.4,4.1-0.5,5.7-4.2,7.5
		c-0.2,0.1-1.1-0.5-1.1-0.7c0-3.1,0.2-6.1,0.3-9.2c0.3-9.3,0.7-18.5,1-27.8c0-0.8,0.1-1.8-0.1-2.5c-0.3-0.8-1.1-1.5-1.6-2.2
		c-0.4,0.9-1.3,1.9-1.1,2.6c1.1,3.9-0.2,7.7-0.3,11.6c-0.1,4.4,0.3,8.8,0.2,13.2c0,5.2-0.3,10.3-0.5,15.5c-0.1,3.2-0.2,6.3-0.4,9.5
		c-0.4,7.3-0.8,14.6-1,21.9c-0.1,2.9,0.5,5.9,0.5,8.8c0.1,4.3-0.3,8.6-0.1,12.9c0.1,3.7,1.1,7.5,1,11.2c-0.3,19.7-0.8,39.4-1.2,59.2
		c0,1-0.1,1.8-0.2,2.4c0.5-0.1,1.1-0.2,1.6-0.3c0-0.2,0-0.5,0-0.8c0.1-7,0.1-13.9,0.3-20.9c0.4-13.5,1-27,1.5-40.5
		c0.1-2.4,0.1-4.9-0.1-7.3c-0.1-1.5,0.4-1.8,1.8-1.7c2.9,0.3,5.1,2.2,5,5.4c-0.1,7-0.4,14.1-0.8,21.1c-0.1,2.9-0.8,5.9-0.7,8.8
		c0,6.9,0.2,13.9,0.6,20.8c0.1,2.3,0.7,4.6,1.4,6.8c0.2,0.7,1.1,1.4,2.1,1.7c1.9-1,3.9-1.6,5.9-1.9c0.3-0.6,0.2-1.3-0.8-2.4
		c-0.2-0.2,0.1-1,0.1-1.5l0,0c0.4,0,0.7,0.1,1.1,0.1c0.3-4.1,2-8.3-0.8-12.2c-0.6-0.9-0.6-2.4-0.6-3.6c-0.1-2.7,0.2-5.5,0-8.2
		c-0.5-6.3-0.1-12.4,2.1-18.4c0.9-2.5,2.9-3.1,5.3-3.1c2.4,0,3.2,1.7,3.7,3.7c0.3,1.1,0.2,2.3,0.4,3.4c0.3,3.3-0.4,6.8,1.8,9.8
		c0.5,0.7,1.3,1.7,1.9,1.6c0.7,0,1.7-0.9,2-1.7c0.7-1.7,1-3.7,1.7-5.4c0.7-1.9,1.3-4.2,2.7-5.5c3.2-3,4.4-6.6,4.1-10.8
		c-0.1-2.3-1.1-4.5-1-6.7c0.1-2.7,1-5.3,1.5-8c0.1-0.7,0-1.4,0-2.1c-0.7,0.1-1.4,0.1-2,0.3c-0.7,0.2-1.4,0.7-2,0.7
		c-0.4,0-1.2-0.7-1.2-1.1c-0.2-7.7-1.5-15.2-3-22.7c-1.1-5.7-2-11.4-2.8-17.1c-1.2-7.9-2.4-15.8-3.3-23.7c-0.6-4.9-0.6-9.9-0.9-14.8
		c0-0.4,0.3-0.9,0.5-1.3c0.1,0.4,0.2,0.8,0.2,1.2c1.1,9.2,2.1,18.4,3.2,27.7c0.3,2.8,0.8,5.6,1.3,8.4c0.1,0.5,0.7,0.8,1.1,1.2
		c0.2-0.4,0.5-0.8,0.6-1.3c0.1-0.4,0-0.8-0.1-1.3c-1.1-8.9-2.1-17.8-3.2-26.7c-0.2-1.7,0.2-2.7,1.5-3.8c6.3-5.1,12.5-10.3,18.7-15.4
		c1.9-1.6,3.9-3.3,6.7-2.9c0.4,0,0.9-0.1,1.1-0.3c1.3-1.2,1.6-1.3,2,0.4c0.6,2.1,1.1,4.3,1.4,6.5c1.1,6.2,2,12.5,3.3,18.7
		c1.2,5.7,2.7,11.3,4.4,16.8c1.5,4.9,3.6,9.6,5.1,14.5c0.7,2.1,2.1,4.6-0.2,6.5c-2.3,1.8-4.3-0.1-6.4-0.9
		c-10-3.6-19.9-7.1-29.9-10.6c-0.7-0.2-1.6,0.1-2.3,0.2c0.6,0.4,1.2,1.1,1.9,1.3c11.3,4,22.5,7.9,33.8,11.9c1.5,0.5,2.7,0.9,4.1-0.1
		c1.4-1,2.6-0.5,3.3,1c0.3,0.7,0.8,1.3,1.2,1.9c0.4,0.6,0.7,1.2,1.1,1.7c-0.9,0.1-1.8,0.4-2.6,0.3c-0.6-0.1-1.3-0.7-1.8-1.1
		c-2.4-1.9-4-1.9-6.5-0.4c-5.7,3.3-11.5,6.5-17.3,9.7c-4.7,2.6-9.3,5.2-13.9,7.9c-0.4,0.2-0.5,0.7-0.8,1.1c0.5,0.2,0.9,0.5,1.4,0.4
		c0.5,0,1-0.3,1.4-0.6c3.8-2.3,7.6-4.8,11.5-7c4.8-2.8,9.7-5.4,14.6-8c2.2-1.1,2.4-1,2.1,1.5c-0.2,1.6,0.5,2.3,1.9,2.1
		c1.6-0.3,3.2-0.7,4.6-1.5c2.6-1.5,5.8-1.5,7.5,0.5c1.1,1.4,2.2,2.9,2.9,4.5c2.7,6.4,5.1,12.9,8,19.2c2.2,4.8,5.2,9.1,7.4,13.9
		c2.8,5.7,5.1,11.7,7.8,17.4c1.1,2.3,2.4,4.5,4,6.4c0.8,0.9,2.5,1.2,3.8,1.6c0.3,0.1,0.7-0.3,1.1-0.5c-0.3-0.4-0.5-0.7-0.8-1.1
		c-0.9-1.1-2.1-2.1-2.7-3.3c-1.5-3-2.8-6.1-4.2-9.2c-3.6-8.2-7.3-16.4-10.6-24.7c-2.6-6.4-4.7-13.1-7-19.6c-1.6-4.3-3.2-8.4-8-10.4
		c-2.7-1.1-4-3.7-4.2-6.6c0-0.8,0.8-1.7,1.3-2.6c0.5,0.6,1.1,1.1,1.6,1.7c0.5,0.5,1.1,0.9,1.7,1.4c0-0.7,0.2-1.4,0.1-2.1
		c-2.5-9.5-4.7-19-7.6-28.4c-2.4-8-5.4-15.7-8.4-23.5c-2.9-7.6-6.5-14.9-10.8-21.8c-0.7-1.2-1-2.6-1.5-3.9c2.4-0.6,2.4,1.8,3,2.9
		c3.2,5.5,8.1,10.1,8.6,16.9c0,0.7,0.6,1.3,1,2c1.5,3,3.3,5.9,4.5,9c1.4,3.6,2.2,7.4,3.4,11.1c1.5,4.6,4.7,8.7,4.5,14
		c-0.1,2,1.4,4.1,2.2,6.2c0.6,1.7,1.3,3.3,1.9,5c2,6.1,3.9,12.2,5.9,18.3c0.2,0.5,0.5,0.9,0.8,1.4c1.7,4,3.5,7.9,5,11.9
		c1.5,3.9,2.7,8,4.1,11.9c2.4,6.9,5.9,13.5,6.8,20.9c0.3,2,0.9,4.7,2.3,5.7c1.5,1,1.9,2.2,2.5,3.5c0.6,1.3,1.2,2.7,1.9,4
		c0.3,0.5,1,0.9,1.5,1.3c0-0.7,0.2-1.5,0-2.1c-1.1-2.6-2.5-5.1-3.5-7.8c-3.6-9.4-7.1-18.9-10.5-28.4c-3.8-10.4-7.4-20.8-11.1-31.3
		c-2.4-6.8-5-13.6-7.3-20.5c-2.6-7.9-4.7-16-7.2-24c-1-3.2-2.3-6.3-3.6-9.3c-1.6-3.5-3.6-6.8-5.2-10.4c-1.8-3.9-3-8.1-4.9-12
		c-2.6-5.4-5.6-10.6-8.3-16c-0.4-0.8-0.6-1.8-0.8-2.7c3.1-0.9,0.3-2.3,0-2.9c-4.2-8.1-9.8-15.4-12.3-24.3c-0.1-0.4-0.3-0.8-0.6-1.1
		c-4-6.3-5.7-13.4-7-20.5c-1-5.4-3-10.2-5.1-15.1c-1-2.3-1.9-4.6-2.6-7c-0.2-0.8,0.6-1.8,1-2.7c0.7,0.6,1.6,1,2,1.7
		c1.7,3.6,3.4,7.1,4.9,10.8c2.6,6.6,5,13.4,7.4,20.1c2.5,6.8,4.9,13.7,7.3,20.5c1.2,3.2,2.4,6.3,3.8,9.4c0.2,0.6,0.9,1,1.4,1.4
		c0.1-0.7,0.5-1.4,0.4-2c-0.2-1.2-0.5-2.5-0.9-3.6c-1.7-4.6-3.4-9.1-5.1-13.6c-0.3-0.8,0.1-1.7,0.1-2.6c0.9,0.4,2.1,0.5,2.5,1.2
		c2.1,3.3,3.9,6.6,4.8,10.5c0.8,3.6,3,6.9,4.8,10.2c1.4,2.6,3.2,4.9,4.6,7.5c2.7,4.9,4.5,10.3,7.9,14.7c2.9,3.7,5.3,7.4,7.1,11.6
		c0.2,0.4,0.4,0.7,0.8,1c4.2,3.5,5.4,8.9,7.8,13.4c1,1.8,1.7,3.8,2.4,5.8c1.2,3.5,2.3,7,3.4,10.5c1.9,6.1,3.8,12.2,5.8,18.3
		c0.7,2.2,1.6,4.3,2.5,6.4c1.6,3.6,3.5,7.2,4.9,10.9c3.3,9,6.4,18,9.5,27c1.7,4.8,3.3,9.5,4.9,14.3c0.8,2.6,1.4,5.3,2.3,7.9
		c1.7,5.1,3.7,10,5.4,15.1c0.8,2.4,1.1,4.9,1.8,7.3c0.2,0.6,1,1,1.6,1.4c0.2-0.6,0.7-1.4,0.5-1.9c-0.9-3.6-1.7-7.2-2.9-10.7
		c-4.1-11.9-8.4-23.8-12.5-35.7c-3.3-9.7-6.4-19.4-9.7-29.1c-2.1-5.9-4.7-11.5-6.7-17.4c-3-8.6-5.6-17.2-8.4-25.8
		c-0.6-1.9,0-2,1.7-2.1c2-0.1,4-0.7,6-1.2c0.5-0.1,0.8-0.9,1.1-1.4c-0.6,0-1.1-0.2-1.7-0.1c-2.1,0.3-4.1,0.6-6.1,1.1
		c-1.6,0.3-2.5-0.3-3.1-1.8c-2.4-5.8-5.8-11-9.2-16.3c-4.7-7.3-9.6-14.5-13.4-22.3c-5-10.1-10.2-20.1-15.3-30.1
		c-0.3-0.7-0.6-1.7-0.4-2.3c0.9-2.1,6.9-3.5,8.6-1.8c2.3,2.3,4.7,4.7,6,7.6c3.5,7.8,8.2,14.9,12.7,22.1c1.3,2.1,3.3,3.7,4.9,5.6
		c3.1,3.8,5.9,7.9,9.3,11.3c8.3,8.4,12.9,19.1,18.4,29.2c1.3,2.4,2.2,5,3.2,7.5c1.3,3.2,2.5,6.4,3.7,9.7c0.2,0.6-0.1,1.4-0.3,2.1
		c-0.4,1.6-1.1,3.1-1.4,4.8c-0.6,3.5-1.1,7.1-1.7,10.6c-0.4,2.1-0.6,4.1,1.8,5.1c2.4,1,4-0.5,4.7-2.4c1.4-3.7,2.7-7.5,3.6-11.4
		c0.4-1.9,0.8-3.1,2.7-3.6c1.6-0.5,3.1-1.2,4.6-1.9c0.6-0.3,1.1-1,1.6-1.5c-0.7-0.3-1.5-1-2.1-0.9c-1.4,0.2-2.7,0.9-4.1,1.4
		c-0.7,0.2-1.8,0.7-2.2,0.4c-2.7-1.8-5.6-3.4-6.1-7.1c-0.1-0.9-0.5-1.8-0.9-2.7c-3.5-7.1-6.8-14.2-10.6-21.1
		c-2.5-4.7-5.5-9.2-8.7-13.5c-4.9-6.7-10.2-13.1-15.2-19.7c-1.2-1.6-1.7-4-3.2-5c-3.6-2.3-5-6.1-7-9.5c-1.8-3.1-4.9-5.9-5.4-9.1
		c-0.8-5.6-5.8-8-7.7-12.6c-0.1-0.3-0.7-0.3-1.1-0.6c-1-0.7-1.9-1.5-2.9-2.3c-1.7-1.4-3.2-2.9-5-4.2c-5-3.5-11-5.7-15.1-10.6
		c-0.7-0.8-1.2-1.9-1.8-2.8c0.9,0.3,1.9,0.6,2.8,0.9c0.2,0.1,0.4,0.1,0.6,0.1c4.4,0.2,8.3,1.4,12.3,3.6c3.2,1.7,6.1,3.4,8.4,6.3
		c2.9,3.7,5.9,7.4,9.2,10.8c2.9,3,3.1,2.7,1.2,6.3c-0.3,0.6-0.2,1.5-0.3,2.2c0.8-0.1,1.9,0,2.3-0.4c1.7-1.9,2.1-0.5,2.8,0.8
		c1.3,2.7,2.2,5.6,3.9,7.9c3.9,5.3,8.1,10.4,12.2,15.5c1.3,1.6,2.7,3.7,5.5,2.7c0.4-0.1,1.2,0.6,1.8,1.1
		c6.3,5.5,12.7,10.8,16.8,18.3l0,0c3.6,5.5,7.6,10.8,10.8,16.5c2.5,4.3,4.1,9,6.2,13.5c0.4,0.8,1.3,1.4,2,2.1c0.1-1,0.5-2.1,0.2-2.9
		c-1.2-3.1-2.4-6.3-4-9.2c-3.4-6-7.1-11.9-10.7-17.8c-2.3-3.6-4.5-7.4-7.3-10.6c-3.1-3.5-6.9-6.4-10.3-9.6c-2.7-2.6-2.2-4.5,1.1-5.8
		c0.5-0.2,0.9-0.9,1.4-1.3c-0.6-0.3-1.2-0.9-1.8-1c-2.2-0.3-3.9,1.5-4.5,4.6c-1.6-1.3-3.1-2.7-4.8-3.8c-7.2-4.6-11.6-11.3-15-19
		c-1.6-3.5-3.6-6.8-5.4-10.2c-0.2-0.3-0.3-1.1-0.1-1.2c1.5-1.3,8.4-0.7,10.1,0.7c4,3.3,5.8,8.2,8.4,12.5c2.4,4,5.3,7.8,8.4,11.3
		c3.6,4.2,8.7,6.4,13.3,9.4c4.6,3,9.3,6.3,12.8,10.5c5.2,6.3,9.4,13.4,14,20.2c1,1.5,1.6,3.2,2.6,4.7c1.9,3,3.4,6.7,6.1,8.6
		c3,2.2,4.4,4.8,5.8,7.9c2.6,5.9,5.4,11.7,7.9,17.5c2.6,6.1,5.7,12,7.4,18.3c2.7,9.7,4.4,19.7,6.5,29.6c0.2,0.7,0.3,1.4,0.4,2.2
		c0.8,7.9,1.5,15.8,2.4,23.6c0.3,2.4-0.5,4.3-2.6,4.8c-3.4,0.8-4.6,5.6-8.8,4.6c-0.3-0.1-0.6,0.5-1,0.7c-1.8,1.3-3.6,2.7-5.5,3.7
		c-2.1,1.1-4.5,1.5-6.6,2.6c-6,3-11.9,6.1-17.7,9.5c-3,1.8-5.7,2.5-8.9,0.5c-1.7-1.1-3.4-0.5-4.6,1.4c-0.7,1.1-1.5,2-2.2,3.1
		c-0.2,0.3-0.1,0.8-0.2,1.1c0.5,0,1.1,0.1,1.4-0.1c0.5-0.3,0.9-0.8,1.3-1.4c1.1-1.7,2.4-2.2,4.5-1.4c1.6,0.6,3.6,0.7,5.2,0.2
		c4.5-1.5,9-3,13.1-5.2c10-5.2,19.9-10.8,29.8-16.2c1-0.6,2-1.7,3-1.6C385.3,371.2,384,369,383.7,367.1z M173.5,114.9
		c0,0.3-0.2,0.5-0.3,0.8c-0.1-0.3-0.2-0.6-0.2-0.9c0.4-2.1,0.8-4.2,1.1-6.4C174,110.6,173.8,112.8,173.5,114.9z M178.9,122.5
		c0-0.1,0-0.1-0.1-0.2c-0.3,0-0.6,0.1-0.9,0c-0.8-0.2-1.6-0.4-2.4-0.6c0.8-0.1,1.6-0.3,2.4-0.4c0.3,0,0.6,0,0.9,0.1
		c0.8,0.1,1.6,0.2,2.4,0.4C180.5,122,179.7,122.3,178.9,122.5z M194.4,118.5c-0.1,0.2-0.5,0.5-0.7,0.5c-2.1,0.2-4.3,1-6.1,0.5
		c-2.5-0.7-4.8-0.6-7.3-0.2c-3.1,0.5-3.6-0.2-3.3-3.4c0.1-1.2,0.2-2.5,0.3-3.8c0.5-4.2,0.7-4,4.7-5.4c4-1.3,7.6,0.3,11.3,0.6
		c0.6,0,1.3,1,1.5,1.7c0.4,1.3,0.5,2.7,0.7,3.9C195.2,114.9,194.8,116.7,194.4,118.5z M196.9,107c-0.1-0.5-0.1-1.1-0.1-1.6
		c0.6,0.1,1.3,0,1.8,0.2c0.5,0.3,1.1,0.9,1.2,1.4c0.4,4.2,1.6,8.5-0.8,12.5c-0.2,0.3-0.6,0.6-0.9,0.9c-0.1,0.1-0.2,0.2-0.2,0.2
		c0.1-0.1,0.2-0.2,0.2-0.3c-0.1-2.6-0.1-5.2-0.3-7.8C197.7,110.7,197.2,108.9,196.9,107z M178.7,160.8c-0.7-0.1-1.5,0-2.2,0
		c0,0.1,0,0.3,0,0.4c-4.3,0-8.5-0.1-12.8,0c-1.4,0-1.6-0.5-0.9-1.4c1.1-1.2,2.4-2.7,3.7-2.9c3.9-0.6,7.8-0.7,11.8-0.9
		c1.8-0.1,2.7,0.7,2.6,2.6C180.9,160.2,180.3,161,178.7,160.8z M202,148.9c-2.6-0.1-5.2-0.3-7.8-0.5c-0.2,0-0.7-0.4-0.6-0.5
		c0.1-2.1,0.2-4.2,0.3-6.3c0.2-2.8,2.4-2.8,4.4-2.7c2.6,0.1,5.2,0.1,7.7,0.5c3.4,0.4,4.6,3.3,6.1,5.9c0.7,1.2,1.1,2.5,1.7,3.7
		l0.1,0.2l-0.1-0.2C209.9,149,205.9,149,202,148.9z M214.3,159.4c-0.2,0.5-1.3,0.9-2.1,0.9c-2.5,0.1-5,0-7.5,0c0,0,0,0,0-0.1
		c-2.6,0-5.2,0-7.8,0c-1.5,0-2.9-0.6-2.7-2.3c0-0.5,1.7-1.1,2.6-1.2c4.7-0.3,9.4-0.5,14-0.6c0.9,0,2,0.4,2.7,1
		C214.2,157.6,214.6,158.7,214.3,159.4z M219.9,157.9c-0.9,0-1.7,0.1-2.6,0.2c-0.1-1.2-0.5-2.6-0.1-3.6c0.3-0.8,1.8-1.5,2.7-1.4
		c2.8,0.2,4.1,2.1,4.6,4.7C223,157.8,221.4,157.9,219.9,157.9z M224.2,162.3c-0.7-0.3-1.3-0.7-1.9-1c0.4-0.1,0.9-0.4,1.2-0.3
		c0.7,0.2,1.3,0.6,2,0.9C225.1,161.9,224.7,162.1,224.2,162.3z M273.9,337.5c-0.8-0.9-1.4-1.4-1.3-1.5c0.5-1.1,1.1-2.1,1.7-3.1
		c0.4,0.5,1.2,1.1,1.1,1.5C275.2,335.3,274.6,336.2,273.9,337.5z M285.3,334.1c2.8,1.7,4.7,4.1,5.8,7.2c1.8,4.9,3.4,9.9,5.3,14.8
		c2,5,4.2,9.8,6.3,14.7c0.6,1.4,1.1,3,1.6,4.4l0,0c-2.6-5.2-5.4-10.4-7.9-15.7c-1.3-2.6-2.3-5.4-3.4-8.1c-0.2-0.4-0.5-0.7-0.6-1.1
		c-1.3-5.9-4-11-8.1-15.4c-0.2-0.3-0.3-0.7-0.4-1.1C284.4,333.9,285,333.8,285.3,334.1z M264,262.4c0.2,0.2,0.4,0.4,0.5,0.7
		c1.5,4.2,3,8.4,4.5,12.7c1.2,3.4,2.6,6.8,3.8,10.3c2.2,6.6,4.2,13.2,6.3,19.9c1.2,3.9,2.3,7.8,3.4,11.7c0.4,1.6-1.7,4.3-3.2,4.1
		c-0.4-0.1-1-0.8-1.1-1.3c-3.2-9.2-6.8-18.4-9.3-27.8c-2-7.3-2.8-14.9-4-22.4c-0.4-2.3-0.7-4.6-1-7.3
		C263.7,263,263.9,262.7,264,262.4z M196.7,174.2c0-0.4,1.1-0.9,1.7-1c1.1-0.2,2.3-0.1,3.4-0.2c0,0.1,0,0.1,0,0.2
		c3.4,0,6.9-0.2,10.3,0.1c3.3,0.2,6.3,3.7,6.6,7c0.5,5.1,1.2,10.3,1.3,15.4c0.1,4.8-0.5,9.6-0.6,14.5c-0.1,8.9-0.7,17.7,0,26.5
		c0.5,6.7,0.4,13.2-0.1,19.9c0,0.5-0.3,0.9-0.4,1.4c-0.3-0.4-0.7-0.8-0.8-1.2c-1.7-5-3.7-9.9-4.9-15c-1-4.3-0.8-8.8-1.3-13.2
		c-0.3-2.4-1.2-4.6-1.7-7c-0.8-4-1.1-8.1-2.1-12.1c-1.5-6-3.2-12-5.3-17.8c-1.5-4.1-4.1-7.8-5.8-11.9
		C196.4,178.1,196.6,176.1,196.7,174.2z M219.9,264.9c-0.1,0.8-0.2,1.2-0.2,1.6c-0.2,0.7-0.3,1.4-0.5,2.1c-0.3-0.6-0.6-1.2-0.9-1.9
		c-0.2-0.4-0.3-0.8-0.4-1.2c0-1,0-1.9,0.1-2.9c0-0.1,0.8-0.3,0.8-0.2C219.2,263.4,219.6,264.3,219.9,264.9z M153.9,223.8
		c-0.2,0.4-0.5,0.8-0.7,1.2c-0.1-0.4-0.3-0.8-0.3-1.2c-0.6-5.8-1.1-11.5-1.6-17.3c-0.4-4.9-0.8-9.9-1.1-14.8c0.1,0,0.3,0,0.4,0
		c0-2.2-0.2-4.4,0.1-6.6c0.1-1,0.9-2,1.7-2.8c2-1.9,2.1-2.9,0.6-5.2c-0.5-0.7-0.7-1.6-1.1-2.3c0.6-0.1,1.3-0.5,1.8-0.3
		c0.9,0.4,1.8,1,2.3,1.8c0.3,0.5,0.1,1.4,0.1,2.2c-0.2,6.8-0.8,13.7-0.5,20.5c0.3,7.9-0.6,15.7-1.3,23.6
		C154,222.9,154.1,223.4,153.9,223.8z M154.7,248.3c-0.1-0.3-0.4-0.7-0.4-1c0-0.2,0.3-0.4,0.5-0.6c0.1,0.3,0.2,0.5,0.3,0.9
		C155,247.8,154.8,248.1,154.7,248.3z M154.9,244.7c-0.2-1-0.5-2-0.7-2.8c0.8-8.1,1.4-15.9,2.2-23.8c1.4-12.5,1.6-25,1.5-37.5
		c0-1.3,0.2-2.5,0.4-3.7c0.1-0.5,0.7-0.9,1-1.4c0.2,0.5,0.6,1.1,0.6,1.6c-0.1,2-0.4,4-0.5,6c-0.2,4.6-0.2,9.2-0.3,13.9
		c-0.1,4.2-0.2,8.4-0.4,12.5c-0.1,1.8-0.3,3.6-0.4,5.4c-0.8,9-1.6,18-2.4,27C155.9,242.8,155.3,243.8,154.9,244.7z M158.4,282.9
		c-0.1,0.3-0.2,0.6-0.2,0.9c-0.2-0.4-0.5-0.7-0.5-1.1c-0.2-2.5-0.4-5-0.6-7.6c0.1,0,0.1,0,0.2,0c-0.3-6-0.7-12-0.8-18
		c-0.1-3,0.3-6.1,0.6-9.1c0.9-9.3,2-18.6,2.9-27.9c0.7-6.6,1.4-13.2,1.8-19.8c0.2-3.5-0.2-7.1-0.3-10.6c0-1.5,0-2.9,0.1-4.4
		c0.2-2.6,0.6-5.2,0.8-7.8c0.3-3.1,1.4-4.2,4.5-4.4c3.3-0.2,6.7-0.6,10-0.7c2.8-0.1,3.2,0.6,2,3.1c-0.1,0.3-0.3,0.6-0.5,0.8
		c-4,2.9-5.7,7.5-7.4,11.8c-1.1,3-2.1,6.3-2.3,9.5c-0.5,7.6-0.5,15.3-0.7,23c0,0.2,0.1,0.4,0.1,0.6c-1.4,4.3-0.3,8.7-0.6,13
		c-0.6,7.6-2.9,14.6-5.8,21.4c-1,2.4-1.8,4.9-0.2,7.6c0.4,0.6,0.1,1.6-0.1,2.5C160.5,271.5,159.5,277.2,158.4,282.9z M158.8,295.4
		c0.2-4.2,0.5-8.4,1.2-12.5c1-5.9,2.4-11.8,3.7-17.6c0.2-0.9,0.6-1.8,1-2.6c0.1-0.1,0.5-0.2,0.7-0.1c1.2,0.3,2.3,1,3.5,1
		c1.5,0,2.1-0.3,1.6,1.7c-1.5,6.2-2.8,12.5-4.1,18.8c-1.4,6.8-2.7,13.6-4,20.4c-0.7,4-1.2,8.1-1.8,12.2c-0.1,0.5-0.4,0.9-0.6,1.3
		c-0.1-0.5-0.2-1-0.3-1.4c-0.3-4.4-0.5-8.8-0.8-13.2c0.1,0,0.2,0,0.3,0C159.2,300.6,158.7,298,158.8,295.4z M142.7,341.2
		c1.1-2.7,2.5-5.4,4-7.9c0.9-1.5,2.4-2.6,3.7-3.8c0.2-0.2,0.9,0.1,1.4,0.1c-0.2,0.4-0.2,0.9-0.5,1.3c-1.1,1.6-2.5,3.2-3.4,4.9
		c-1.3,2.6-2.6,5-0.7,8.2c1,1.6,0.5,4.3,0.1,6.4c-0.2,1-1.6,1.8-2.5,2.7c-0.1-0.2-0.3-0.3-0.4-0.5c-1-0.1-2.2-0.1-3.1-0.5
		c-0.7-0.3-1.6-1.4-1.5-1.8C140.7,347.3,141.6,344.2,142.7,341.2z M135,344.5c0.6-0.1,1.2-0.1,1.8-0.1c0.5,0,1.1,0,1.6,0
		c-0.1,0.3,0,0.7-0.2,0.9c-0.4,0.4-0.9,0.6-1.2,0.8c-0.9-0.3-1.4-0.4-2-0.6c-0.4-0.1-0.7-0.3-1-0.5
		C134.3,344.9,134.6,344.6,135,344.5z M176.4,378.8c-0.2-0.3-0.6-0.6-0.7-0.9c-0.6-3-1.2-5.9-1.6-8.9c-0.3-2.4-0.2-4.8-0.5-7.2
		c-0.4-3.4-3.6-5.7-7.5-5.4c-0.9,0.1-1.9,0.2-2.8,0.3c-1.8,0.2-3.1-0.3-4.2-2.1c-1.4-2.2-3.8-1.9-4,0.6c-0.4,4.5-4.4,6.4-6.1,9.9
		c-0.3,0.5-1.7,0.7-2.5,0.6c-3.2-0.4-6.4-1.1-9.6-1.3c-2.1-0.2-4.2,0.3-6.2,0.3c-1.9,0-3.9,0.2-5.5-0.5c-1.4-0.6-3.1-2.6-3-3.8
		c0.3-3.9,1.1-7.9,2.2-11.7c0.7-2.4,2.7-3.7,5.3-3.7c1.2,0,1.8,0,0.6,1.3c-1,1.2-0.1,1.7,1,1.8c1.4,0.1,2.7,0,4.1,0.2
		c2.6,0.4,3,1.1,2.3,3.6c-0.6,2.4-0.2,2.8,2.1,2.8c1,0,2.1-0.1,3.1,0c4.5,0.5,5.8-0.4,7.3-4.5c0.5-1.3,1.6-2.5,2.6-3.5
		c1-0.9,1-1.5-0.1-2.2c-0.4-0.3-1-0.4-1.4-0.8c-2.9-2.4-2.7-6.6,0.3-8.9c1.3-1,1.9-0.3,2.2,1c0.5,1.9,0.9,3.8,3.6,3.4
		c0.2,0,0.6,0.2,0.8,0.4c0.5,0.4,1,0.8,1.5,1.3c0.2-0.8,0.6-1.6,0.5-2.3c-0.6-6.2,0.5-11.9,4-17.1c-0.4-1-1.1-2.1-1-3
		c0.9-8.6,1.8-17.2,3-25.7c0.8-5.5,2.2-10.9,3.4-16.4c0.1-0.5,0.5-0.9,0.7-1.3c0.2,0.5,0.6,1,0.6,1.6c0.5,6.7,0.8,13.4,1.4,20.2
		c0.5,6-2.7,10.7-4.7,15.9c-0.6,1.6-1.8,2.9-2.4,4.4c-0.4,1.2-0.3,2.5-0.4,3.8c4.4-5.2,7.2-11.2,8.9-17.6c1-3.6,0.5-7.7,0.3-11.6
		c-0.4-6.9-1.1-13.9-1.5-20.8c-0.1-1.9,0.3-3.8,0.6-5.6c0.1-0.6,0.8-1,1.2-1.5c0.4,0.5,1.2,1,1.2,1.6c0.2,2.1,0.3,4.2,0.3,6.3
		c0,4.9,0,9.9,0,14.8c-0.1,6.2,0.1,12.5-0.7,18.6c-0.4,3.1-2.9,6-4.3,9c-2.2,4.9-4.4,9.8-6.5,14.7c-0.3,0.6,0.1,1.5,0.1,2.3
		c0.6-0.3,1.3-0.6,1.8-1c1.9-1.8,3.6-3.8,5.5-5.6c0.3-0.3,0.9-0.4,1.3-0.6c0.1,0.5,0.4,1,0.3,1.4c-0.8,3.5-1.6,6.9-4.6,9.4
		c-5.1,4.3-5.7,10.5-6.4,16.6c-0.1,0.5,0.1,1.1,0.3,1.5c0.5,0.7,1.1,1.3,1.7,1.9c0-0.7,0.1-1.5,0.1-2.2c0.2-2.4,0.4-4.8,0.8-7.1
		c0.1-0.6,1.1-1.1,1.8-1.5c0.3-0.2,0.8-0.1,1.2-0.2c1.7-0.4,3.9-0.4,5-1.5c0.9-0.9,0.3-3.2,0.5-4.8c0.3-1.8,0.8-3.7,1.3-5.5
		c0.1,1.7,0.3,3.5,0.2,5.2c-0.1,4.8-0.6,9.7-0.4,14.5c0.2,6.4,1,12.8,1.4,19.2c0.2,2.3,0.2,4.6,0.3,7
		C176.7,378.1,176.5,378.5,176.4,378.8z M175.5,313.8c-0.4,4.4-2.8,7.3-5.8,9.7c-0.2,0.2-0.7,0.2-1,0.2c0-0.3,0-0.6,0.1-0.9
		c1.5-3.1,3-6.2,4.6-9.3c0.4-0.7,1.1-1.2,1.6-1.8C175.2,312.5,175.4,313.3,175.5,313.8z M171.6,338.7c-0.2,0.7-0.9,1.5-1.5,1.9
		c-0.5,0.3-1.3-0.1-2-0.1c0.2-0.8,0.2-1.9,0.7-2.4c0.8-0.9,1.9-1.4,2.9-2.1C171.7,336.9,171.9,337.9,171.6,338.7z M187.8,262.8
		c-0.3-0.2-0.5-0.4-0.7-0.5c0.2-0.1,0.4-0.3,0.7-0.4c0.1,0,0.3,0.1,0.5,0.2C188.1,262.3,187.9,262.5,187.8,262.8z M199.6,263.2
		c0-0.1,0-0.2,0-0.2c-0.3,0-0.6,0-0.9,0c-1-0.2-2.1-0.4-3.1-0.6c1.1-0.2,2.2-0.3,3.3-0.5c4.3-0.7,8.6-1.4,12.9-2.2
		c0.4-0.1,0.8-0.6,1.2-0.8c-0.5-0.1-1.1-0.4-1.6-0.2c-7.7,2.1-15.5,2-23.4,1.8c-5.9-0.2-11.7,0.4-17.6,0c-9.1-0.6-7.8-1.8-4.9-8
		c2.1-4.6,3.7-9.2,3.5-14.5c-0.3-6.5,0.6-13,0.9-19.5c0.1-3.5-0.2-7,0-10.4c0.6-7.8,1.2-15.7,5.1-22.6c2.3-4.2,5.5-7.9,8.5-11.6
		c1.2-1.5,8.9-1.6,9.9-0.1c0.8,1.1,0.6,2.9,0.8,4.4c0.2,1.4-0.1,3,0.5,4.1c1.8,3.3,4,6.4,5.9,9.7c1.1,2,2.3,4.1,2.7,6.3
		c1.7,8.2,3.3,16.5,4.7,24.8c0.8,5.1,1.6,10.2,1.7,15.3c0.1,5.3,3,9.6,4.5,14.4c0.6,2.1,1.4,4.2,1.9,6.3c0.4,1.7-0.6,2.3-2.1,2.5
		C209.2,262.1,204.4,262.6,199.6,263.2z M206.3,266.9c-0.6-2.1,0.4-3,2.3-3.1c1.1-0.1,2.3,0,3.4,0c1.9-0.1,3,0.7,3.6,2.7
		c1.7,5.6,4.6,10.9,3.7,16.6c0,5.5,0,10.5,0,15.6c0,0.4-0.4,0.8-0.6,1.2c-0.2-0.4-0.4-0.7-0.5-1.1c-1.2-3.6-2.4-7.2-3.5-10.8
		c-0.3-1-0.6-2.1-0.6-3.1c0.1-2.5,0-4.7-3.1-5.2c-0.5-0.1-1.1-1-1.3-1.6C208.5,274.4,207.4,270.7,206.3,266.9z M204.5,312
		c0.2-0.8,1.3-1.4,2-2.1c0.5,0.8,1.4,1.5,1.5,2.4c0.3,2.8,0.3,5.6,0.5,8.5c0,0,0.1,0,0.1,0c0,2.2,0.2,4.4-0.1,6.5
		c-0.1,1-1.3,1.9-1.9,2.8c-0.8-0.8-1.9-1.5-2.2-2.5C202.3,322.3,203.2,317.1,204.5,312z M202.7,331.5c0.2-0.3,1.8,0.1,2.5,0.5
		c1.2,0.7,1.4,4.2,0.4,5.2c-0.9,1-1.9,1.9-2.9,2.7c-0.1,0.1-0.8-0.2-0.8-0.4c-0.2-1.5-0.3-2.9-0.6-5
		C201.7,333.9,202,332.5,202.7,331.5z M214,426.2c-0.5-0.4-1.2-0.6-1.4-1.1c-0.5-1.4-1-2.8-1.1-4.2c-0.2-2.3,0-4.6-0.1-6.9
		c-0.2-6.1-0.6-12.2-0.8-18.3c-0.1-4.8,0.1-9.7,0.2-14.5c0.2-5.8,0.7-11.6,0.7-17.4c0-2.3-1-4.5-1.4-6.8c-0.2-1-0.2-2.1-0.3-3.1
		c-0.3,1.2-0.9,2.4-0.9,3.5c-0.1,5.6-0.1,5.6-5,3.8c-0.9-0.3-1.7-1.6-2.1-2.6c-0.4-0.9-0.2-2.1-0.2-3.1c0-1.1,0.1-2.1,0.2-3.5
		c0-0.6,0.2-1.6,0-2.5c-0.9-4.4,2.2-6.9,4.6-9.7c0.3-0.4,1.1-0.4,1.6-0.7c0.2,0.6,0.5,1.1,0.5,1.7c0.1,3.1,0,6.1,0.1,9.2
		c0,0.6,0.6,1.2,0.9,1.8c0.3-0.6,1-1.2,1-1.8c0-6.1-0.1-12.2-0.2-18.3c0-1.8-0.3-3.6-0.4-5.4c-0.1-12.3-0.2-24.6-0.2-36.9
		c0-1.5,0.6-3,0.9-4.4c0.3,1.5,0.9,2.9,1,4.4c0.4,6.3,0.8,12.6,1,18.9c0.1,3.8-0.4,7.7-0.2,11.6c0.2,5,0.8,9.9,1.2,14.9
		c0.2,2.1,0.4,4.2,0.4,6.3c0,5.3-0.3,10.5-0.3,15.8c0,8.2,0.2,16.4,0.3,24.6c0,0.4,0.1,0.9,0.1,1.3c-0.9,5.3-1.2,10.6-0.5,16
		c0.5,3.7,0.6,7.5,0.8,11.3c0.2,4.8,0.2,9.7,0.2,14.5C214.8,425.2,214.3,425.7,214,426.2z M215.8,334.1c0.1-4,0-8,0-12
		c0,0-0.1,0-0.1,0c-0.3-6.8-0.7-13.7-1-20.5c-0.1-1.4,0.4-2.9,0.7-4.3c0.5,1.2,1.1,2.4,1.4,3.7c2,7.8,3.3,15.6,3.3,23.7
		c0,3.1,0.5,6.2,0.5,9.4c0,1.3,0.3,2.9-2,2.8C216.8,336.8,215.7,336.2,215.8,334.1z M237.3,360.3c0.2-0.7,0.8-1.2,1.2-1.8
		c0.7,0.6,1.8,1.1,2.1,1.9c0.6,1.3-1.4,4.5-2.8,4.7c-0.4,0-0.8-1.1-1-1.4C237,362.1,237,361.1,237.3,360.3z M236.2,377.6
		C236.2,377.6,236.3,377.6,236.2,377.6c0.1-2.7,0-5.5,0.1-8.2c0-0.6,0.5-1.7,0.9-1.8c0.7-0.1,1.7,0.3,2.2,0.8c2,2.1,1.2,10-1.2,11.8
		c-0.5,0.4-1.1,0.5-1.7,0.7c-0.1-0.6-0.3-1.1-0.3-1.7C236.2,378.7,236.2,378.2,236.2,377.6z M233.3,341.7c0.3,2,0.7,4.1,1.1,6.1
		c0.4,2.3,1,4.5,1.2,6.8c0.1,1.4-0.3,2.8-0.4,4.3c-0.4,4.4-0.8,8.7-1,13.1c-0.3,5.7-0.3,11.3-0.6,17c-0.1,1.2-0.4,2.5-0.9,3.7
		c-0.5,1.3-1.6,1.3-1.9,0c-0.4-1.5-0.4-3.1-0.3-4.7c0.2-2.5,0.6-5,0.9-7.5c0.1-0.6-0.3-1.2-0.4-1.7c-0.3,0.3-0.6,1-0.9,1
		c-0.5,0-1.1-0.4-1.5-0.7c-1.4-1-2.6-2.2-4.1-3c-2.2-1.2-4.2-0.8-5.9,1.2c-0.3,0.4-1.1,0.4-1.6,0.7c-0.1-0.5-0.4-1-0.4-1.5
		c0-2.2-0.2-4.4,0-6.6c0.1-1.9,0.7-3.2,3.2-2.2c2.6,1,3.9-0.6,3.2-3.3c-0.5-1.9-1.3-3.8-1.4-5.8c-0.1-2.9-1.2-2.7-3-1.4
		c-1.2,0.8-1.5,0.1-1.5-0.9c0-5.2,0-10.3,0.1-15.5c0-0.4,0.5-0.8,0.7-1.2c0.4,0.3,1,0.4,1.3,0.8c0.7,1,1.2,2.2,1.9,3.2
		c0.2,0.3,1,0.6,1.3,0.5c0.3-0.1,0.7-0.8,0.7-1.2c0.3-5.2,0.7-10.3,0.6-15.5c-0.1-6.2-0.8-12.4-1.2-18.6
		c-0.8-12.2-1.6-24.4-0.5-36.7c0.1-1.6,0.1-3.2,0.1-4.7c0.2-9.1,0.6-18.1,0.6-27.2c0-10.3-0.4-20.7-0.5-31c-0.1-6.3,0.1-12.6,0-19
		c0-3-0.5-6.1-0.6-9.1c0-0.9,0.6-1.8,1-2.7c0.4,0.9,1.2,1.7,1.2,2.6c0.4,10.1,0.8,20.2,0.9,30.3c0.1,7.3-0.4,14.5-0.4,21.8
		c0,2.1,0.7,4.2,0.7,6.3c0.1,9.5,0.1,19.1,0.2,28.7c0.2,14.3,0.3,28.7,0.6,43c0.2,10.3,0.7,20.6,0.5,30.9
		c-0.1,6.2-1.5,12.3-2.2,18.5c-0.1,0.9,0.3,1.9,0.4,2.9c0.7-0.4,1.5-0.8,2.2-1c0.8-0.3,1.9-1,2.5-0.7c0.6,0.3,1.1,1.5,1.1,2.3
		c0,3.2-0.4,6.5-0.4,9.7c0,0.8,0.6,1.6,0.9,2.4c0.5-0.7,1.3-1.4,1.3-2.1c0.3-5.9,0.6-11.9,0.8-17.8
		C233,351.1,233.2,346.4,233.3,341.7z M217.2,362.7c0.4-1.2,1.2-2.2,1.9-3.3c0.5,0.9,1.1,1.8,1.9,3.1c-0.9,0.8-1.7,1.4-2.4,2.1
		C218.1,364,217.1,363.1,217.2,362.7z M228.5,311.4c0.3,0.7,0.8,1.4,0.9,2.2c0.9,5.7,1.7,11.4,2.5,17.1c0,0.2,0,0.4,0.1,0.6
		c0.1,1.3,0.2,2.7,0.3,4c-0.5-1.3-1.3-2.5-1.6-3.8c-0.9-4.1-1.6-8.2-2.3-12.2c0.2,0,0.3-0.1,0.5-0.1c-0.2-1.9-0.4-3.7-0.5-5.6
		C228.3,312.9,228.5,312.1,228.5,311.4z M228.9,339.4c0-0.3,0.2-0.6,0.3-0.9c0.2,0.3,0.6,0.6,0.7,0.9c0.2,1.8,0.1,3.6,0.4,5.3
		c0.3,2.6,0.8,5.2,1.3,8c-0.3,1.4-0.3,3.1-1,4.4c-0.4,0.9-1.9,1.2-2.9,1.8c-0.4-0.9-0.8-1.7-1.2-2.6c0-0.1,0-0.2,0-0.3
		C228.9,350.8,228.5,345.1,228.9,339.4z M230.7,268c0-0.3,0.2-1.1,0.1-1.8c-0.2-2.3,0.9-3.3,3.2-3.1c1.7,0.2,3.4,0.3,5.1,0.4
		c-1.3,1.2-2.5,2.4-3.8,3.5c-1,0.9-2.2,1.6-3.3,2.3C230.8,270.1,230.3,269.9,230.7,268z M249.4,265c-5.3,4.3-10.5,8.6-15.8,12.9
		c-0.3,0.3-0.7,0.5-1.1,0.6c-0.4,0.2-0.9,0.3-1.3,0.5c0-0.6-0.2-1.3,0-1.8c1.1-1.8,2.1-3.8,3.6-5.1c3.3-2.8,7-5.4,10.5-7.9
		c0.9-0.6,2-0.9,3.1-1.4c0.7,0.3,1.2,0.6,1.7,0.8C249.9,264.2,249.8,264.7,249.4,265z M257.4,255.3c0.5,0.7,1.3,1.4,1.4,2.2
		c0.2,3.1-2.5,1.7-4,2.6c-0.4-0.2-0.9-0.4-1.5-0.6C254.7,258.1,256.1,256.7,257.4,255.3z M256.1,249.8c0.5,1.8-0.3,2.6-1.8,3.5
		c-2.9,1.6-5.6,3.6-8.4,5.3c0.1-2,0.3-4,0.5-5.9c0.4-3.7-0.6-5.1-4.4-5.8c-0.8-0.2-1.7-0.2-2.5-0.4c-0.2,0-0.5-0.3-0.7-0.5
		c0.3-0.1,0.6-0.3,0.8-0.3c4.4,0.1,8.7,0.2,13.1,0.3C255.3,246,255.6,247.9,256.1,249.8z M243.7,254.4c0.1,1.9-1.6,2.1-3.2,2.2
		c-1.5,0.1-2.9,0.2-4.4,0.4c-3.3,0.5-3.6,0.2-4-3.5c0.7-1.4,1.2-3.6,2.3-3.9c2.5-0.8,5.3-1.1,7.8-0.6
		C243.1,249.3,243.6,252.6,243.7,254.4z M251.2,228.4c0.4,1.5,0.8,2.8,1.2,4.2c-0.2,0-0.5,0.1-0.5,0.1c-0.4-1.3-0.9-2.5-1.3-3.8
		C250.6,228.9,250.9,228.7,251.2,228.4z M228.9,174c0.3-0.5,1.3-0.5,1.9-0.7c-0.1,0.6-0.3,1.1-0.3,1.7c-0.1,3.6,0.7,6.8,2.6,9.9
		c1.5,2.5,2.6,5.2,3.8,7.9c1.8,4.3,3.5,8.6,5.2,12.8c1,2.4,2,4.7,0.7,7.5c-0.7,1.5-0.2,3,0.8,4.7c1.5,2.2,2.4,4.9,3.3,7.5
		c1.7,4.4,3.2,8.9,4.7,13.4c0.3,0.9,0.6,1.8,0.8,2.7c0.3,1.5-0.3,2.4-2,2.5c-6.4,0.1-12.7,0.3-19,0.4c-0.6,0-1.1,0.2-1.7,0.4
		c0.5,0.4,1,0.9,1.5,1.2c0.5,0.3,1,0.4,1.6,0.7c-0.5,0.3-1.1,0.6-1.5,1c-0.7,0.9-1.5,1.9-1.8,3c-0.4,1.4-0.4,2.9-0.6,4.4
		c-0.3,2.6,0.5,3.9,3.1,4c4.6,0.1,9.1-0.2,13.7-0.4c-4,0.8-8,2-12.1,2.4c-5.2,0.5-5.4,0.4-5.5,5.7c0,1.1-0.4,2.3-0.6,3.4v0
		c0-11.7,0.1-23.4,0-35.1c-0.1-9.5-0.5-18.9-0.5-28.4c0-7.7,0.5-15.4,0.8-23.1c0.1-2.1-0.3-4.2-0.2-6.3
		C227.8,176.1,228.3,174.9,228.9,174z M233.1,154.5c-0.1-0.2,0.5-0.9,0.5-0.9c0.5,0.2,1.3,0.4,1.4,0.7c0.2,1.3,0.1,2.7,0.1,4
		C234.5,157.1,233.8,155.8,233.1,154.5z M235.9,161.5c-0.2-1-0.5-1.9-0.7-2.9c0.4,0.9,0.7,1.8,1.1,2.7
		C236.3,161.3,236.1,161.4,235.9,161.5z M324.3,288.3c0.4,0.4,0.6,0.6,0.9,0.9c-0.3,0.2-0.6,0.4-0.9,0.5c-0.4,0-0.7-0.2-1.1-0.3
		C323.6,289,323.9,288.7,324.3,288.3z M325.1,294.8c0.2,0.1,0.3,0.8,0.6,1.7c-1.2,2.6-2.5,5.4-3.8,8.2c-0.2,0.3-0.6,0.5-0.8,0.8
		c-0.1-0.4-0.4-0.9-0.4-1.3c0.1-2.1,0.2-4.3,0.3-6.4C320.9,295.9,323.2,294.2,325.1,294.8z M243.2,177c0.8,0.3,1.7,0.5,2.4,1
		c3,2,6,4.1,8.9,6.2c1.4,1,2.6,2,3.9,3.1c0.3,0.2,0.4,0.7,0.7,1.2c-0.3,0.3-0.6,0.6-0.9,0.8c-2.6,1.3-5.2,2.6-7.9,3.7
		c-0.5,0.2-1.9-0.2-2.1-0.7c-1.8-4.2-3.5-8.5-5.1-12.9C242.9,178.7,243.2,177.8,243.2,177z M238.4,156.2c0.4-1.5-0.1-3.8,2.5-4.2
		c1.5-0.2,4.4,2.8,4.6,4.6c0,0.4-0.7,1-1.2,1.2c-0.9,0.3-2.1,0.3-2.9,0.7C238.8,159.7,238.3,159.3,238.4,156.2z M245.1,166.2
		c-1.9-0.2-3.6-0.4-3.7-2.7c0-2.4,1-3.5,3-3.5c1.8,0.1,3.6,1.8,3.5,3.3C247.8,165.1,246.9,166.3,245.1,166.2z"/>
	<path d="M233.2,341.1c0,0.2,0,0.3,0,0.5c-0.1-0.2-0.1-0.4-0.2-0.7C233.1,340.9,233.2,341,233.2,341.1z"/>
	<path d="M144,183.8c-0.2,0.2-0.4,0.4-0.6,0.6c0.1-0.3,0.1-0.6,0.2-0.8C143.7,183.7,143.9,183.8,144,183.8z"/>
	<path d="M296.2,221.2L296.2,221.2c0.2,0.2,0.4,0.4,0.6,0.6c0.1,0,0.2,0.1,0.3,0.1c-0.1,0-0.2,0-0.3-0.1
		C296.6,221.6,296.4,221.4,296.2,221.2z"/>
	<path d="M294.3,219.9L294.3,219.9L294.3,219.9z"/>
	<path d="M174.8,106.5c0.2-0.2,0.4-0.4,0.6-0.6c0.1-0.1,0.1-0.1,0.2-0.2c-0.1,0.1-0.1,0.1-0.2,0.2
		C175.3,106.1,175.1,106.3,174.8,106.5L174.8,106.5z"/>
	<path d="M252.8,256.7c-0.2,0.2-0.4,0.4-0.6,0.6c-0.1,0.1-0.1,0.1-0.2,0.2c0.1-0.1,0.1-0.1,0.2-0.2
		C252.4,257.1,252.6,256.9,252.8,256.7L252.8,256.7z"/>
	<path d="M262.8,259.9L262.8,259.9c-0.2-0.2-0.4-0.4-0.6-0.6c-0.2-0.4-0.4-0.8-0.6-1.3l0,0c0.2,0.4,0.4,0.8,0.6,1.3
		C262.4,259.4,262.6,259.7,262.8,259.9z"/>
	<path d="M246.5,218c0.2,0.4,0.4,0.8,0.6,1.3c0.1,0.2,0.3,0.4,0.4,0.6c0-0.1,0-0.2,0-0.2c-0.1-0.1-0.3-0.2-0.4-0.4
		C246.9,218.9,246.7,218.5,246.5,218c-0.1-0.1-0.1-0.1-0.2-0.2C246.4,217.9,246.5,218,246.5,218z"/>
	<path d="M160.4,320.7L160.4,320.7c0.1,0.1,0.1,0.1,0.2,0.2C160.5,320.9,160.4,320.8,160.4,320.7z"/>
	<path d="M223.7,174.3c-0.1-0.1-0.3-0.3-0.4-0.3c-0.2,0-0.3,0.2-0.4,0.3c0.1,0.1,0.3,0.3,0.4,0.3
		C223.4,174.6,223.5,174.4,223.7,174.3z"/>
	<path d="M175.2,325.3c0.1-0.2,0.1-0.4,0.1-0.6c0-0.1-0.2-0.1-0.3-0.2c0,0.1-0.1,0.2,0,0.3C175,325,175.1,325.1,175.2,325.3z"/>
	<path d="M209.9,404.3c0-0.1-0.1-0.1-0.1-0.2c0,0.1-0.2,0.2-0.1,0.2c0.1,0.1,0.2,0.2,0.2,0.3C209.8,404.5,209.8,404.4,209.9,404.3z"
		/>
	<path d="M209.9,412.6c0-0.1-0.1-0.1-0.1-0.2c-0.1,0.1-0.2,0.1-0.2,0.2c0.1,0.1,0.1,0.2,0.2,0.3
		C209.9,412.7,209.9,412.7,209.9,412.6z"/>
	<path d="M235.8,246.4c0.1,0,0.2-0.1,0.3-0.1c-0.1-0.1-0.1-0.1-0.2-0.2c-0.1,0-0.2,0.1-0.3,0.1C235.6,246.3,235.7,246.3,235.8,246.4
		z"/>
	<polygon points="233.1,338.1 232.9,338 232.9,338.3 	"/>
	<polygon points="226,177.7 226,177.9 226.1,177.8 	"/>
	<polygon points="228.1,168.3 227.9,168.2 227.9,168.4 	"/>
	<polygon points="324.1,292.4 324,292.6 324.2,292.6 	"/>
	<polygon points="220.3,150.6 220.5,150.6 220.4,150.4 	"/>
	<path d="M369.1,324.5c-0.1-1-0.3-2-0.4-3c0.6,0.8,1.3,1.6,1.7,2.6c1.5,3.6,2.8,7.2,4.1,10.8c0.2,0.6-0.2,1.3-0.3,2
		c-0.5-0.4-1.1-0.8-1.5-1.4c-1-1.4-1.8-3-2.7-4.4c-3.7-5.9-7.5-11.8-11.2-17.7c-2.6-4.2-5.3-8.3-7.8-12.5c-0.9-1.5-1.4-3.2-2.1-4.9
		l0,0c0.6-0.1,1.2-0.1,1.9-0.2c4.8-0.8,6-3.7,3.2-7.6c-0.9-1.2-2.1-2.2-2.8-3.4c-0.4-0.7-0.1-1.8-0.1-2.7c0.7,0.3,1.7,0.4,2.1,1
		c0.9,1.2,1.9,2.6,2.3,4.1c2.9,8.9,7.5,17.1,10.8,25.8c0.7,1.8,1,3.7,1.4,5.5c0.1,0.3-0.2,0.7-0.2,1.1c-0.4-0.3-1-0.5-1.1-0.8
		c-1.8-8-7.6-14.2-9.6-22.1c-0.1-0.4-0.8-0.6-1.2-0.9c-0.8,1.2-1.6,2.3-2.3,3.5c-0.2,0.3,0.3,1,0.6,1.4c4.4,7.5,8.9,15.1,13.3,22.5
		C367.6,323.7,368.4,324,369.1,324.5c0.1,0.1,0.1,0.1,0.2,0.2C369.2,324.7,369.1,324.6,369.1,324.5z"/>
	<path d="M234.4,319.8c0.1-0.1,0.4-0.7,0.7-1.3c0.4,0.6,0.9,1.1,1,1.7c1.2,7.3,2.3,14.6,3.4,21.9c0.4,2.9,0.3,2.8,3.1,1.3
		c9-4.8,18-9.4,27-14.1c0.5-0.3,1.3-0.2,1.9-0.2c-0.4,0.4-0.8,0.9-1.3,1.2c-8.4,4.7-16.9,9.3-25.3,14c-1,0.6-1.9,1.3-2.8,2
		c-3,1.9-4,1.4-4.4-2.1c-0.2-1.9-0.2-3.8-0.5-5.7C236.3,332.4,235.4,326.4,234.4,319.8z"/>
	<path d="M316.5,286.4c-0.1,0.2-0.2,0.6-0.4,0.7c-0.3,0.1-0.9,0.1-1.1-0.1c-0.4-0.3-0.7-0.8-0.9-1.3c-1.9-5.1-3.7-10.2-5.8-15.3
		c-1.5-3.6-3.6-7-5.3-10.6c-1.9-4.1-5.2-7-7.9-10.4c-0.5-0.6-0.6-1.5-0.9-2.2c0.8,0.3,1.8,0.3,2.4,0.8c4.7,4,8.2,9.1,10.7,14.6
		c3.4,7.4,6,15.2,9,22.9C316.4,285.9,316.4,286.1,316.5,286.4z"/>
	<path d="M342.9,304.2c-0.1,5.3-3.6,8.6-9,9.2c-3.3,0.4-6.2-0.1-8.8-2.1c-0.5-0.4-0.7-1.3-1-2c0.7,0.1,1.4,0,2,0.3
		c2.9,1.5,5.7,2.2,8.9,0.9c3.2-1.3,6-4.4,5.7-7.9c-0.3-3.5-1.2-6.8-4.3-9.1c-0.9-0.7-1.4-2-2.1-3.1c1.3,0.4,3,0.4,3.7,1.2
		C341.1,295.1,343.6,299,342.9,304.2z"/>
	<path d="M350.7,274.2c-0.7,0-1.4,0.2-1.7,0c-2.5-2.4-4.9-2.5-7.1,0.4c-0.2,0.2-0.8,0.3-1.1,0.2c-0.3-0.1-0.5-0.8-0.4-1
		c1.1-1.3,2.1-3.1,3.5-3.8c1.7-0.8,6,1.3,6.5,2.7C350.5,273,350.5,273.3,350.7,274.2z"/>
	<path d="M286.5,269.5c-1.3,1.3-2.6,3.4-4,3.5c-1.6,0.1-3.3-1.7-4.9-2.7c-0.1,0,0.1-0.6,0.2-0.8c0.2-0.2,0.7-0.2,0.8-0.1
		c2.4,3.2,4.4,1.3,6.4-0.5c0.2-0.2,0.7,0,1.1,0C286.3,269.1,286.4,269.3,286.5,269.5z"/>
	<path d="M344.5,280.6c0.6-0.1,1.2-0.1,1.9-0.2c0.6,0,1.1,0,1.7,0c-0.4,0.6-0.6,1.4-1.2,1.6c-0.7,0.3-1.6,0.4-2.4,0.2
		c-0.8-0.2-1.6-0.8-2.4-1.2c0.8-0.3,1.5-0.6,2.3-0.9C344.4,280.4,344.5,280.5,344.5,280.6z"/>
	<path d="M335.6,336.1c-0.1,0.1-0.1,0.2-0.2,0.2c-0.1,0-0.2-0.1-0.3-0.1c0.1-0.1,0.2-0.2,0.3-0.4C335.5,335.9,335.5,336,335.6,336.1
		z"/>
	<polygon points="248.4,208 248.5,207.9 248.6,208.1 	"/>
	<polygon points="351.8,288.6 351.9,288.8 351.7,288.8 	"/>
	<polygon points="331.3,247.2 331.2,247.1 331.3,247 	"/>
	<path d="M317.6,243.4c0,0.2-0.1,0.4-0.1,0.6c0,0.1-0.1,0.1-0.2,0.1C317.3,243.9,317.4,243.6,317.6,243.4L317.6,243.4z"/>
	<path d="M349,296L349,296L349,296z"/>
	<path fill="#FFFFFF" d="M130.6,379.7c4-1,8.2-0.9,12.2,0.2c11.8,1.7,20.3,9.1,27,19.1c5.4,8,4,17.7-1.1,24.8
		c1.1,0.7,2.1,1.6,3.1,2.5c2.3,2.1,4.2,4.8,5.6,7.7c0.2-0.9-0.2-2.5-0.2-3.6c0-1.6-0.1-3.2,0-4.8c0.1-5.9,0.3-11.8,0.2-17.7
		c-0.1-7.4-0.6-14.7-0.9-22.1c-0.1-1.7,0.4-3.8-2.3-4c-0.3,0-0.7-0.9-0.9-1.5c-1.8-5.1-2.4-10.5-2-15.9c0.4-4.7-1.1-6-5.9-6.2
		c-2.7-0.1-6,1.2-7.9-2.1c0-0.1-1.1,0.2-1.3,0.5c-1.5,2.8-3.1,5.5-4.1,8.4c-0.7,1.9-1.8,2.6-3.4,2.5c-4.9-0.2-9.8,0.8-14.5-1.2
		c-0.5-0.2-1.2-0.2-1.8-0.1c-2.3,0.1-4.5,0.3-6.8,0.2c-1.2,0-2.2-0.4-3-1c1.2,1.7,2.3,3.5,3.3,5.3
		C127.6,373.8,129.1,376.7,130.6,379.7z"/>
	<path fill="#FFFFFF" d="M224.7,165.4c-0.9-0.9-3-0.9-4.5-0.9c-2.3,0.1-2.5-0.6-1.3-2.3c-1.9-0.2-3.7-0.6-5.6-0.5
		c-8.3,0.1-16.7,0.4-25,0.5c-5.3,0.1-10.7,0-16,0.1c-1,0-2.1,0.5-3.1,0.9c-1.2,0.5-2.3,1.3-3.5,1.5c-2.2,0.4-4.4,0.6-6.6,0.5
		c-2.3-0.1-4.5-0.7-6.7-1.2c-0.3-0.1-0.6-0.7-0.8-1.1c0.3-0.2,0.7-0.5,1-0.6c0.5-0.1,1.1,0.2,1.6,0c2.8-1,6.3-1.3,7.3-4.6
		c0.7-2.4,2.2-3,4.1-3.2c4.6-0.3,9.2-0.6,13.8-0.6c4.1-0.1,4.1,0,4.5,4.1c0.3,2.7,1.4,3.1,5.8,2.6c2.4-0.3,1.7-1.7,1.5-3.2
		c-0.5-3,0.1-3.4,3.1-3.2c3.4,0.2,6.9,0.2,10.4,0.1c2.3-0.1,4.5-0.6,6.8-1.1c0.6-0.1,1-0.9,1.5-1.3c-0.5-0.3-1-0.8-1.6-0.9
		c-1.6-0.2-3.3-0.4-5-0.4c-4,0-7.9,0.4-11.9,0.3c-2.9-0.1-3.5-1.1-3.5-4.1c0-1.6,0.1-3.2,0.1-4.7c0-1.6-1.3-3.7,1.6-4.3
		c1.7-0.4,3.3-1.4,5-1.4c2.5,0,4.9,0.7,7.4,1c3.4,0.4,6.2,1.4,7.7,5c1.1,2.6,2.9,4.8,4.4,7.2l0,0c0.1-1,0.6-2.1,0.3-3
		c-1-3-2.1-6-3.5-8.8c-1.3-2.6-3.6-4.5-6.6-4.7c-4.5-0.3-8.9-0.5-13.4-0.5c-2.5,0-3.7-1-3.8-3.5c-0.2-3.7-0.1-5.6,2.8-6
		c1.6-0.2,3.2-1.4,4.7-2.1c-4.2,0.2-8.5,0.4-12.7,0.6c-0.3,0-0.8,0.7-0.8,0.8c2.1,3.6,0,7.2-0.1,10.8c0,0.3-0.8,1-1.1,0.9
		c-6.4-1.6-12.4,0.9-18.4,2.2c-2.6,0.5-4.3,2.6-5.2,5.1c-0.6,1.8-0.8,3.7-1.3,5.5c-0.3,1.3-0.6,2.7-1,4c-0.1,0.4-0.7,0.6-1,0.9
		c-0.2-0.4-0.6-0.9-0.6-1.3c0.5-3.3,0.8-6.8,1.8-9.9c1.6-4.8,10.1-9.7,15-9.2c2.1,0.2,4.2,0,6.2-0.1c1.1-0.1,2.7-0.2,3.2-0.9
		c0.6-0.9,0.5-2.4,0.5-3.7c0.1-1.4-0.4-2.1-2-2c-2.1,0.1-4.1-0.1-6.2-0.1c-1.9,0-3.6-1.4-3.5-3.3c0.3-4.7,0.7-9.5,1.4-14.1
		c0.3-2.2,1.5-3.7,3.5-4.4c-0.2,0-0.5,0.1-0.7,0.1c-0.1,0.1-0.1,0.1-0.2,0.2c-1.5,0.9-3.3,0.7-5,0.4c-1.7-0.3-2.6-1.4-2.9-2.6
		c-0.3,0-0.7,0-1,0c0.1,0.4,0.3,0.7,0.4,1.1c0.7,2.7,0.6,5.6-0.3,8.3c9.3,8.9,0.3,25.7-12.1,24.2c-0.1,0.1-0.3,0.3-0.4,0.4
		c-0.6,0.5-1.2,1-1.7,1.5c-4.2,7.9-8.3,16.7-15.5,22.1c-0.5,0.7-1,1.5-1.5,2.2c0.4,2,0.7,3.9,1,5.9c1.1,9.8,0.9,19.7,0.4,29.6
		c0.2,0.3,0.3,0.6,0.5,0.9c2.7,6,5.9,12.1,7.1,18.6c1,5.5,0.9,10.5-2,15.5c-2.6,4.5-6.9,7.9-11.9,9.2c-1.4,0.4-2.9,0.6-4.3,0.7
		c-0.1,0.3-0.3,0.5-0.4,0.8c2,3.5,3.3,7.6,3.6,11.9c0.7,10.4,1.3,20.9,0.9,31.3c-0.4,11.5-0.9,24.9-5.3,35.7
		c-3.3,7.9-6.7,13.7-12.3,20.2c-0.5,0.6-1.9,2.4-2.8,3.5c-0.8,1.7-1.3,3.3-0.6,0.8c0,0,0,0,0,0c-0.3,0.8-0.6,1.7-0.9,2.5
		c0,0.3,0,0.7,0,1.1c4.2,3.3,8,7,11.3,11c0.3-0.8,1.1-1.4,1.3-2.2c0.1-0.3,0-0.6,0.1-0.9c0.7-3.1,1.4-6.2,2.2-9.2
		c0.8-2.9,2.9-4.5,6-4.8c2.4-0.2,4.8-0.5,7.2-0.6c3.2-0.2,5.6-1.5,7.1-4.4c1-2.1,1.8-4.3,3.1-6.2c1.2-1.6,2.8-4,4.4-4.1
		c2.5-0.2,2.1-1.1,1.9-2.7c-0.2-1.1-0.2-2.3-0.3-3.5c-0.2-7-0.3-13.9-0.6-20.9c-0.3-7.8-0.9-15.6-1.3-23.4c-0.5-7.8-1.1-15.5-3.3-23
		c-0.5-1.5-0.1-3.3-0.1-5c0.2-2.9,0.5-5.8,0.6-8.7c0-1.4-0.3-2.7-0.4-4.1c-0.5-10.4-0.9-20.9-1.3-31.3c-0.1-2.5,0.3-5.2-0.5-7.5
		c-1.5-4.3-1.5-8.7-1.2-13.1l0,0c-0.8-4.6-2-9.3-2.3-13.9c-0.1-2.3,1.3-4.8,2.4-7c2.3-4.3,7-5.9,10.5-8.8c0.4-0.3,1-0.4,1.5-0.6
		c-0.1,0.6,0,1.4-0.3,1.7c-2,1.7-3.9,3.4-6.1,4.7c-2.2,1.3-3.8,2.9-4.3,5.5c-0.3,1.4-1,2.8-1.2,4.2c-0.2,2.3-0.6,4.6-0.1,6.8
		c1,4.2,2.2,8.3,1.8,12.7c-0.1,1,0.1,2.1,0.2,3.2c0.8,8,1.7,15.9,2.3,23.9c1,15.1,1.7,30.3,2.7,45.4c0.4,6.6,1.3,13.2,1.7,19.8
		c0.4,5.9,0.6,11.8,0.8,17.7c0.2,5.9,0.4,11.8,0.6,17.7c0,0.5,0.2,1,0.4,1.4c0.5,1,1.4,2,1.4,3c0.3,4.1,0.3,8.2,0.5,12.3
		c0.1,1.2,0.2,2.9,2,2.5c0.6-0.1,1-2,1-3.1c-0.1-4.3-0.5-8.6-0.7-12.8c-0.1-1.4,0.3-2.7,0.2-4.1c-0.5-6.3-1.2-12.6-1.7-18.9
		c-0.6-7.6-1-15.1-1.4-22.7c-0.1-1.8-0.1-3.6-0.2-5.4c-0.3-3.6-0.8-7.3-0.8-10.9c0-2.3,1-4.6-1.3-6.4c-0.4-0.3-0.5-1.4-0.5-2.1
		c-0.5-6.9-1.1-13.8-1.5-20.7c-0.1-1.7-0.1-3.3-0.1-5c-0.1-2.5-0.2-5-0.3-7.6c-0.8-10.7-1.7-21.4-2.6-32.1c-0.2-1.9,0.2-3.4,2.2-4.4
		c1.7-0.8,1.7-2.1,0-3c-1.9-0.9-2-2.4-2-4.2c-0.1-2.6,0.1-2.7,2.5-2.3c2.5,0.5,4.9,1.1,7.4,1.1c3.7-0.1,7.5-0.8,11.2-1
		c4.6-0.3,9.2-0.4,13.7-0.4c5,0,10,0.4,15,0.5c7.2,0.1,14.4,0.2,21.6,0.2c1,0,2.1,0.1,3.1-0.1C225.5,170.8,226.8,167.5,224.7,165.4z
		 M161.1,145c0.8-0.1,1.9-0.8,2.2-1.5c1.3-4.1,4-6.2,8.3-6.3c2.8-0.1,5.6-0.2,8.4-0.3c1.6-0.1,2.7,0.6,3,2.2c0.5,3.3,1,6.7,1.2,10
		c0,0.6-1.3,1.7-2.3,2c-1,0.3-2.3,0.1-3.4,0.1c0,0,0,0,0-0.1c-4.8,0.2-9.6,0.3-14.4,0.7c-1.5,0.1-2-0.1-2.1-1.7
		c-0.1-1.2-0.9-2.4-1.5-3.5C159.9,145.6,159.7,145.1,161.1,145z"/>
	<path fill="#FFFFFF" d="M186.4,101.4c0.9-0.1,1.7-0.2,2.6-0.3c-0.1,0-0.2,0-0.3,0c-0.5,0.1-1,0.1-1.5,0c-0.6,0.1-1.3,0.2-2,0.2
		c-0.5,0-1-0.2-1.4-0.3c-0.4,0-0.7,0-1.1,0c-0.6,0.1-1.2,0.3-1.8,0.3c-2.2,0.1-2.8,0.7-4.6,1.4c-0.2,0.1-0.3,0.1-0.5,0.2
		c0.2-0.1,0.4-0.1,0.7-0.1C179.7,102.2,183,101.8,186.4,101.4z"/>
	<path fill="#FFFFFF" d="M174.4,391.6c0.1-0.1,0.1-0.2,0.2-0.2c-0.1,0-0.3-0.1-0.4-0.1c0,0.1,0,0.2,0,0.3
		C174.2,391.6,174.3,391.6,174.4,391.6z"/>
	<path fill="#FFFFFF" d="M178,365.7c0,1.5,0,3,0.1,4.4c0.6,11.8,1.1,23.6,1.8,35.4c0.6,9.5-1.4,18.9,0.5,28.4
		c0.3,1.6,0.8,2.5,1.8,2.8c2.6-0.4,5.3-0.7,7.9-0.8c1.4,0,2.7,0.1,3.8,0.4c0.6-0.1,1.2-0.3,1.9-0.4c1.1-0.2,2.2-0.4,3.2-0.7
		c0.2-0.5,0.2-1.3,0.2-2.4c0.4-19.7,0.9-39.4,1.2-59.2c0.1-3.7-0.9-7.5-1-11.2c-0.2-4.3,0.2-8.6,0.1-12.9c0-2.9-0.6-5.9-0.5-8.8
		c0.2-7.3,0.7-14.6,1-21.9c0.2-3.2,0.3-6.3,0.4-9.5c0.2-5.2,0.4-10.3,0.5-15.5c0-4.4-0.3-8.8-0.2-13.2c0.1-3.9,1.3-7.7,0.3-11.6
		c-0.2-0.7,0.7-1.7,1.1-2.6c0.6,0.7,1.3,1.4,1.6,2.2c0.3,0.7,0.2,1.7,0.1,2.5c-0.3,9.3-0.6,18.5-1,27.8c-0.1,3.1-0.3,6.1-0.3,9.2
		c0,0.3,0.9,0.8,1.1,0.7c3.7-1.7,4.6-3.3,4.2-7.5c-0.1-1.1,0-2.3,0-3.5c0.2-5.2,1-10.6,0.4-15.7c-0.6-5.4-2.3-10.7-3.8-15.9
		c-0.2-0.8-1.8-1.8-2.7-1.8c-6.5-0.4-13.1-0.5-19.7-0.7c-3.7-0.1-4.5,0.5-4.5,4.2c-0.1,8.2-0.1,16.4-0.1,24.6
		c0,10.1,0,20.2,0.1,30.3C177.7,337.2,177.9,351.4,178,365.7z"/>
	<path fill="#FFFFFF" d="M199.6,263c-0.3,0-0.6,0-0.9,0c-1-0.2-2.1-0.4-3.1-0.6c1.1-0.2,2.2-0.3,3.3-0.5c4.3-0.7,8.6-1.4,12.9-2.2
		c0.4-0.1,0.8-0.6,1.2-0.8c-0.5-0.1-1.1-0.4-1.6-0.2c-7.7,2.1-15.5,2-23.4,1.8c-5.9-0.2-11.7,0.4-17.6,0c-9.1-0.6-7.8-1.8-4.9-8
		c2.1-4.6,3.7-9.2,3.5-14.5c-0.3-6.5,0.6-13,0.9-19.5c0.1-3.5-0.2-7,0-10.4c0.6-7.8,1.2-15.7,5.1-22.6c2.3-4.2,5.5-7.9,8.5-11.6
		c1.2-1.5,8.9-1.6,9.9-0.1c0.8,1.1,0.6,2.9,0.8,4.4c0.2,1.4-0.1,3,0.5,4.1c1.8,3.3,4,6.4,5.9,9.7c1.1,2,2.3,4.1,2.7,6.3
		c1.7,8.2,3.3,16.5,4.7,24.8c0.8,5.1,1.6,10.2,1.7,15.3c0.1,5.3,3,9.6,4.5,14.4c0.6,2.1,1.4,4.2,1.9,6.3c0.4,1.7-0.7,2.3-2.1,2.5
		c-4.8,0.6-9.6,1.1-14.3,1.7C199.6,263.1,199.6,263,199.6,263z"/>
	<path fill="#FFFFFF" d="M245.9,258.6c-4,0.8-8.1,2-12.1,2.4c-5.2,0.5-5.4,0.4-5.5,5.7c0,1.1-0.4,2.3-0.6,3.4v0
		c0-11.7,0.1-23.4,0-35.1c-0.1-9.5-0.5-18.9-0.5-28.4c0-7.7,0.5-15.4,0.8-23.1c0.1-2.1-0.3-4.2-0.2-6.3c0.1-1.1,0.6-2.2,1.1-3.1
		c0.3-0.5,1.3-0.5,1.9-0.7c-0.1,0.6-0.3,1.1-0.3,1.7c-0.1,3.6,0.7,6.8,2.6,9.9c1.5,2.5,2.6,5.2,3.8,7.9c1.8,4.3,3.5,8.6,5.2,12.8
		c1,2.4,2,4.7,0.7,7.5c-0.7,1.5-0.2,3,0.8,4.7c1.5,2.2,2.4,4.9,3.3,7.5c1.7,4.4,3.2,8.9,4.7,13.4c0.3,0.9,0.6,1.8,0.8,2.7
		c0.3,1.5-0.3,2.4-2,2.5c-6.4,0.1-12.7,0.3-19,0.4c-0.6,0-1.1,0.2-1.7,0.4c0.5,0.4,1,0.9,1.5,1.2c0.5,0.3,1,0.4,1.6,0.7
		c-0.5,0.3-1.1,0.6-1.5,1c-0.7,0.9-1.5,1.9-1.8,3c-0.4,1.4-0.4,2.9-0.6,4.4c-0.3,2.6,0.5,3.9,3.1,4
		C236.7,259.1,241.3,258.8,245.9,258.6L245.9,258.6z"/>
	<path fill="#FFFFFF" d="M164.8,320.7c4.4-5.2,7.2-11.2,8.9-17.6c1-3.6,0.5-7.7,0.3-11.6c-0.4-6.9-1.1-13.9-1.5-20.8
		c-0.1-1.9,0.3-3.8,0.6-5.6c0.1-0.6,0.8-1,1.2-1.5c0.4,0.5,1.2,1,1.2,1.6c0.2,2.1,0.3,4.2,0.3,6.3c0,4.9,0,9.9,0,14.8
		c-0.1,6.2,0.1,12.5-0.7,18.6c-0.4,3.1-2.9,6-4.3,9c-2.2,4.9-4.4,9.8-6.5,14.7c-0.3,0.6,0.1,1.5,0.1,2.3c0.6-0.3,1.3-0.6,1.8-1
		c1.9-1.8,3.6-3.8,5.5-5.6c0.3-0.3,0.9-0.4,1.3-0.6c0.1,0.5,0.4,1,0.3,1.4c-0.8,3.5-1.6,6.9-4.6,9.4c-5.1,4.3-5.7,10.5-6.4,16.6
		c-0.1,0.5,0.1,1.1,0.3,1.5c0.5,0.7,1.1,1.3,1.7,1.9c0-0.7,0.1-1.5,0.1-2.2c0.2-2.4,0.4-4.8,0.8-7.1c0.1-0.6,1.1-1.1,1.8-1.5
		c0.3-0.2,0.8-0.1,1.2-0.2c1.7-0.4,3.9-0.4,5-1.5c0.9-0.9,0.3-3.2,0.5-4.8c0.3-1.8,0.8-3.7,1.3-5.5c0.1,1.7,0.3,3.5,0.2,5.2
		c-0.1,4.8-0.6,9.7-0.4,14.5c0.2,6.4,1,12.8,1.4,19.2c0.2,2.3,0.2,4.6,0.3,7c0,0.4-0.2,0.8-0.3,1.2c-0.2-0.3-0.6-0.6-0.7-0.9
		c-0.6-3-1.2-5.9-1.6-8.9c-0.3-2.4-0.2-4.8-0.5-7.2c-0.4-3.4-3.6-5.7-7.5-5.4c-0.9,0.1-1.9,0.2-2.8,0.3c-1.8,0.2-3.1-0.3-4.2-2.1
		c-1.4-2.2-3.8-1.9-4,0.6c-0.4,4.5-4.4,6.4-6.1,9.9c-0.3,0.5-1.7,0.7-2.5,0.6c-3.2-0.4-6.4-1.1-9.6-1.3c-2.1-0.2-4.2,0.3-6.2,0.3
		c-1.9,0-3.9,0.2-5.5-0.5c-1.4-0.6-3.1-2.6-3-3.8c0.3-3.9,1.1-7.9,2.2-11.7c0.7-2.4,2.7-3.7,5.3-3.7c1.2,0,1.8,0,0.6,1.3
		c-1,1.2-0.1,1.7,1,1.8c1.4,0.1,2.7,0,4.1,0.2c2.6,0.4,3,1.1,2.3,3.6c-0.6,2.4-0.2,2.8,2.1,2.8c1,0,2.1-0.1,3.1,0
		c4.5,0.5,5.8-0.4,7.3-4.5c0.5-1.3,1.6-2.5,2.6-3.5c1-0.9,1-1.5-0.1-2.2c-0.4-0.3-1-0.4-1.4-0.8c-2.9-2.4-2.7-6.6,0.3-8.9
		c1.3-1,1.9-0.3,2.2,1c0.5,1.9,0.9,3.8,3.6,3.4c0.2,0,0.6,0.2,0.8,0.4c0.5,0.4,1,0.8,1.5,1.3c0.2-0.8,0.6-1.6,0.5-2.3
		c-0.6-6.2,0.5-11.9,4-17.1l0,0C164.4,321.1,164.6,320.9,164.8,320.7L164.8,320.7z M142.6,360.3c0-0.1,0-0.2,0-0.3
		c1.8,0,3.6,0.1,5.3,0c0.8,0,2.1-0.2,2.3-0.6c1.4-2.7,2.5-5.5,3.7-8.3c0.1-0.3-0.1-0.9-0.4-1.1c-0.2-0.1-0.9,0.1-1,0.4
		c-0.9,1.5-1.6,3.1-2.6,4.6c-0.6,0.9-1.5,2.3-2.4,2.4c-2.8,0.4-5.6,0.4-8.4,0.3c-3.7-0.1-7.3-0.6-10.9-0.7c-2,0-2.5-0.8-2-2.5
		c0.5-1.8,1.2-3.6,1.7-5.4c0.2-0.7,0-1.5-0.1-2.3c-0.7,0.4-1.8,0.7-2.1,1.3c-0.6,1.2-0.9,2.6-1.2,3.9c-0.3,1.2-0.4,2.5-0.8,3.7
		c-0.8,2.7-0.3,3.6,2.6,3.7c2,0.1,4,0,5.9,0.1C135.7,359.7,139.2,360,142.6,360.3z"/>
	<path fill="#FFFFFF" d="M201.8,173.2c3.4,0,6.9-0.2,10.3,0.1c3.3,0.2,6.3,3.7,6.6,7c0.5,5.1,1.2,10.3,1.3,15.4
		c0.1,4.8-0.5,9.6-0.6,14.5c-0.1,8.9-0.7,17.7,0,26.5c0.5,6.7,0.4,13.2-0.1,19.9c0,0.5-0.3,0.9-0.4,1.4c-0.3-0.4-0.7-0.8-0.8-1.2
		c-1.7-5-3.7-9.9-4.9-15c-1-4.3-0.8-8.8-1.3-13.2c-0.3-2.4-1.2-4.6-1.7-7c-0.8-4-1.1-8.1-2.1-12.1c-1.5-6-3.2-12-5.3-17.8
		c-1.5-4.1-4.1-7.8-5.8-11.9c-0.7-1.6-0.5-3.7-0.4-5.6c0-0.4,1.1-0.9,1.7-1c1.1-0.2,2.3-0.1,3.4-0.2
		C201.8,173.1,201.8,173.1,201.8,173.2z"/>
	<path fill="#FFFFFF" d="M233.3,341.6c0.4,2.1,0.7,4.1,1.1,6.2c0.4,2.3,1,4.5,1.2,6.8c0.1,1.4-0.3,2.8-0.4,4.3
		c-0.4,4.4-0.8,8.7-1,13.1c-0.3,5.7-0.3,11.3-0.6,17c-0.1,1.2-0.4,2.5-0.9,3.7c-0.5,1.3-1.6,1.3-1.9,0c-0.4-1.5-0.4-3.1-0.3-4.7
		c0.2-2.5,0.6-5,0.9-7.5c0.1-0.6-0.3-1.2-0.4-1.7c-0.3,0.3-0.6,1-0.9,1c-0.5,0-1.1-0.4-1.5-0.7c-1.4-1-2.6-2.2-4.1-3
		c-2.2-1.2-4.2-0.8-5.9,1.2c-0.3,0.4-1.1,0.4-1.6,0.7c-0.1-0.5-0.4-1-0.4-1.5c0-2.2-0.2-4.4,0-6.6c0.1-1.9,0.7-3.2,3.2-2.2
		c2.6,1,3.9-0.6,3.2-3.3c-0.5-1.9-1.3-3.8-1.4-5.8c-0.1-2.9-1.2-2.7-3-1.4c-1.2,0.8-1.5,0.1-1.5-0.9c0-5.2,0-10.3,0.1-15.5
		c0-0.4,0.5-0.8,0.7-1.2c0.4,0.3,1,0.4,1.3,0.8c0.7,1,1.2,2.2,1.9,3.2c0.2,0.3,1,0.6,1.3,0.5c0.3-0.1,0.7-0.8,0.7-1.2
		c0.3-5.2,0.7-10.3,0.6-15.5c-0.1-6.2-0.8-12.4-1.2-18.6c-0.8-12.2-1.6-24.4-0.5-36.7c0.1-1.6,0.1-3.2,0.1-4.7
		c0.2-9.1,0.6-18.1,0.6-27.2c0-10.3-0.4-20.7-0.5-31c-0.1-6.3,0.1-12.6,0-19c0-3-0.5-6.1-0.6-9.1c0-0.9,0.6-1.8,1-2.7
		c0.4,0.9,1.2,1.7,1.2,2.6c0.4,10.1,0.8,20.2,0.9,30.3c0.1,7.3-0.4,14.5-0.4,21.8c0,2.1,0.7,4.2,0.7,6.3c0.1,9.5,0.1,19.1,0.2,28.7
		c0.2,14.3,0.3,28.7,0.6,43c0.2,10.3,0.7,20.6,0.5,30.9c-0.1,6.2-1.5,12.3-2.2,18.5c-0.1,0.9,0.3,1.9,0.4,2.9c0.7-0.4,1.5-0.8,2.2-1
		c0.8-0.3,1.9-1,2.5-0.7c0.6,0.3,1.1,1.5,1.1,2.3c0,3.2-0.4,6.5-0.4,9.7c0,0.8,0.6,1.6,0.9,2.4c0.5-0.7,1.3-1.4,1.3-2.1
		c0.3-5.9,0.6-11.9,0.8-17.8C233,351.1,233.2,346.4,233.3,341.6L233.3,341.6z"/>
	<path fill="#FFFFFF" d="M157.3,275.1c-0.3-6-0.7-12-0.8-18c-0.1-3,0.3-6.1,0.6-9.1c0.9-9.3,2-18.6,2.9-27.9
		c0.7-6.6,1.4-13.2,1.8-19.8c0.2-3.5-0.2-7.1-0.3-10.6c0-1.5,0-2.9,0.1-4.4c0.2-2.6,0.6-5.2,0.8-7.8c0.3-3.1,1.4-4.2,4.5-4.4
		c3.3-0.2,6.7-0.6,10-0.7c2.8-0.1,3.2,0.6,2,3.1c-0.1,0.3-0.3,0.6-0.5,0.8c-4,2.9-5.7,7.5-7.4,11.8c-1.1,3-2.1,6.3-2.3,9.5
		c-0.5,7.6-0.5,15.3-0.7,23c0,0.2,0.1,0.4,0.1,0.6c-1.4,4.3-0.3,8.7-0.6,13c-0.6,7.6-2.9,14.6-5.8,21.4c-1,2.4-1.8,4.9-0.2,7.6
		c0.4,0.6,0.1,1.6-0.1,2.5c-1,5.7-2,11.4-3.1,17.1c-0.1,0.3-0.2,0.6-0.2,0.9c-0.2-0.4-0.5-0.7-0.5-1.1c-0.2-2.5-0.4-5-0.6-7.6
		C157.2,275.1,157.2,275.1,157.3,275.1z"/>
	<path fill="#FFFFFF" d="M201.9,352c0-0.6,0.2-1.6,0-2.5c-0.9-4.4,2.2-6.9,4.6-9.7c0.3-0.4,1.1-0.4,1.6-0.7c0.2,0.6,0.5,1.1,0.5,1.7
		c0.1,3.1,0,6.1,0.1,9.2c0,0.6,0.6,1.2,0.9,1.8c0.3-0.6,1-1.2,1-1.8c0-6.1-0.1-12.2-0.2-18.3c0-1.8-0.3-3.6-0.4-5.4
		c-0.1-12.3-0.2-24.6-0.2-36.9c0-1.5,0.6-3,0.9-4.4c0.3,1.5,0.9,2.9,1,4.4c0.4,6.3,0.8,12.6,1,18.9c0.1,3.8-0.4,7.7-0.2,11.6
		c0.2,5,0.8,9.9,1.2,14.9c0.2,2.1,0.4,4.2,0.4,6.3c0,5.3-0.3,10.5-0.3,15.8c0,8.2,0.2,16.4,0.3,24.6c0,0.4,0.1,0.9,0.1,1.3
		c-0.9,5.3-1.2,10.6-0.5,16c0.5,3.7,0.6,7.5,0.8,11.3c0.2,4.8,0.2,9.7,0.2,14.5c0,0.5-0.5,1-0.7,1.5c-0.5-0.4-1.2-0.6-1.4-1.1
		c-0.5-1.4-1-2.8-1.1-4.2c-0.2-2.3,0-4.6-0.1-6.9c-0.2-6.1-0.6-12.2-0.8-18.3c-0.1-4.8,0.1-9.7,0.2-14.5c0.2-5.8,0.7-11.6,0.7-17.4
		c0-2.3-1-4.5-1.4-6.8c-0.2-1-0.2-2.1-0.3-3.1c-0.3,1.2-0.9,2.4-0.9,3.5c-0.1,5.6-0.1,5.6-5,3.8c-0.9-0.3-1.7-1.6-2.1-2.6
		c-0.4-0.9-0.2-2.1-0.2-3.1C201.7,354.5,201.8,353.5,201.9,352z"/>
	<path fill="#FFFFFF" d="M263.7,263c0,0,0.2-0.3,0.3-0.6c0.2,0.2,0.4,0.4,0.5,0.7c1.5,4.2,3,8.4,4.5,12.7c1.2,3.4,2.6,6.8,3.8,10.3
		c2.2,6.6,4.2,13.2,6.3,19.9c1.2,3.9,2.3,7.8,3.4,11.7c0.4,1.6-1.7,4.3-3.2,4.1c-0.4-0.1-1-0.8-1.1-1.3c-3.2-9.2-6.8-18.4-9.3-27.8
		c-2-7.3-2.7-14.9-4-22.4C264.3,268,264.1,265.7,263.7,263z"/>
	<path fill="#FFFFFF" d="M159.4,303.3c-0.2-2.6-0.7-5.3-0.6-7.9c0.2-4.2,0.5-8.4,1.2-12.5c1-5.9,2.4-11.8,3.7-17.6
		c0.2-0.9,0.6-1.8,1-2.6c0.1-0.1,0.5-0.2,0.7-0.1c1.2,0.3,2.3,1,3.5,1c1.5,0,2.1-0.3,1.6,1.7c-1.5,6.2-2.8,12.5-4.1,18.8
		c-1.4,6.8-2.7,13.6-4,20.4c-0.7,4-1.2,8.1-1.8,12.2c-0.1,0.5-0.4,0.9-0.6,1.3c-0.1-0.5-0.2-1-0.3-1.4c-0.3-4.4-0.5-8.8-0.8-13.2
		C159.2,303.3,159.3,303.3,159.4,303.3z"/>
	<path fill="#FFFFFF" d="M219.4,283.1c0,5.5,0,10.5,0,15.6c0,0.4-0.4,0.8-0.6,1.2c-0.2-0.4-0.4-0.7-0.5-1.1
		c-1.2-3.6-2.4-7.2-3.5-10.8c-0.3-1-0.6-2.1-0.6-3.1c0.1-2.5,0-4.7-3.1-5.2c-0.5-0.1-1.1-1-1.3-1.6c-1.2-3.7-2.3-7.4-3.4-11.1
		c-0.6-2.1,0.4-3,2.3-3.1c1.1-0.1,2.3,0,3.4,0c1.9-0.1,3,0.7,3.6,2.7C217.4,272.1,220.3,277.4,219.4,283.1z"/>
	<path fill="#FFFFFF" d="M195.5,113c-0.4,1.9-0.7,3.7-1.1,5.5c-0.1,0.2-0.5,0.5-0.7,0.5c-2.1,0.2-4.3,1-6.1,0.5
		c-2.5-0.7-4.8-0.6-7.3-0.2c-3.1,0.5-3.6-0.2-3.3-3.4c0.1-1.2,0.2-2.5,0.3-3.8c0.5-4.2,0.7-4,4.7-5.4c4-1.3,7.6,0.3,11.3,0.6
		c0.6,0,1.3,1,1.5,1.7C195.2,110.4,195.3,111.8,195.5,113z"/>
	<path fill="#FFFFFF" d="M164.2,321.3c-0.4-1-1.1-2.1-1-3c0.9-8.6,1.8-17.2,3-25.7c0.8-5.5,2.2-10.9,3.4-16.4
		c0.1-0.5,0.5-0.9,0.7-1.3c0.2,0.5,0.6,1,0.6,1.6c0.5,6.7,0.8,13.4,1.4,20.2c0.5,6-2.7,10.7-4.7,15.9c-0.6,1.6-1.8,2.9-2.4,4.4
		c-0.4,1.2-0.3,2.5-0.4,3.8l0,0C164.6,320.9,164.4,321.1,164.2,321.3L164.2,321.3z"/>
	<path fill="#FFFFFF" d="M150.5,191.7c0-2.2-0.2-4.4,0.1-6.6c0.1-1,0.9-2,1.7-2.8c2-1.9,2.1-2.9,0.6-5.2c-0.5-0.7-0.7-1.6-1.1-2.3
		c0.6-0.1,1.3-0.5,1.8-0.3c0.9,0.4,1.8,1,2.3,1.8c0.3,0.5,0.1,1.4,0.1,2.2c-0.2,6.8-0.8,13.7-0.5,20.5c0.3,7.9-0.6,15.7-1.3,23.6
		c0,0.4,0,0.9-0.2,1.3c-0.2,0.4-0.5,0.8-0.7,1.2c-0.1-0.4-0.3-0.8-0.3-1.2c-0.6-5.8-1.1-11.5-1.6-17.3c-0.4-4.9-0.8-9.9-1.1-14.8
		C150.2,191.7,150.4,191.7,150.5,191.7z"/>
	<path fill="#FFFFFF" d="M213.8,149c-3.9,0-7.9,0.1-11.8,0c-2.6-0.1-5.2-0.3-7.8-0.5c-0.2,0-0.7-0.4-0.6-0.5
		c0.1-2.1,0.2-4.2,0.3-6.3c0.2-2.8,2.4-2.8,4.4-2.7c2.6,0.1,5.2,0.1,7.7,0.5c3.4,0.4,4.6,3.3,6.1,5.9
		C212.8,146.4,213.3,147.7,213.8,149L213.8,149z"/>
	<path fill="#FFFFFF" d="M215.7,322.1c-0.3-6.8-0.7-13.7-1-20.5c-0.1-1.4,0.4-2.9,0.7-4.3c0.5,1.2,1.1,2.4,1.4,3.7
		c2,7.8,3.3,15.6,3.3,23.7c0,3.1,0.5,6.2,0.5,9.4c0,1.3,0.3,2.9-2,2.8c-1.9-0.1-2.9-0.6-2.9-2.7c0.1-4,0-8,0-12
		C215.8,322.1,215.7,322.1,215.7,322.1z"/>
	<path fill="#FFFFFF" d="M154.2,242c0.8-8.1,1.4-15.9,2.2-23.8c1.4-12.5,1.6-25,1.5-37.5c0-1.3,0.2-2.5,0.4-3.7
		c0.1-0.5,0.7-0.9,1-1.4c0.2,0.5,0.6,1.1,0.6,1.6c-0.1,2-0.4,4-0.5,6c-0.2,4.6-0.2,9.2-0.3,13.9c-0.1,4.2-0.2,8.4-0.4,12.5
		c-0.1,1.8-0.3,3.6-0.4,5.4c-0.8,9-1.6,18-2.4,27c-0.1,1-0.7,1.9-1.1,2.9C154.7,243.7,154.4,242.8,154.2,242z"/>
	<path fill="#FFFFFF" d="M259.1,188.5c-0.3,0.3-0.6,0.6-0.9,0.8c-2.6,1.3-5.2,2.6-7.9,3.7c-0.5,0.2-1.9-0.2-2.1-0.7
		c-1.8-4.2-3.5-8.5-5.1-12.8c-0.3-0.7,0.1-1.6,0.1-2.4c0.8,0.3,1.7,0.5,2.4,1c3,2,6,4.1,8.9,6.2c1.4,1,2.6,2,3.9,3.1
		C258.7,187.5,258.8,188,259.1,188.5z"/>
	<path fill="#FFFFFF" d="M144.5,352.7c-1-0.1-2.2-0.1-3.1-0.5c-0.7-0.3-1.6-1.4-1.5-1.8c0.8-3.1,1.6-6.2,2.8-9.2
		c1.1-2.7,2.5-5.4,4-7.9c0.9-1.5,2.4-2.6,3.7-3.8c0.2-0.2,0.9,0.1,1.4,0.1c-0.2,0.4-0.2,0.9-0.5,1.3c-1.1,1.6-2.5,3.2-3.4,4.9
		c-1.3,2.6-2.6,5-0.7,8.2c1,1.6,0.5,4.3,0.1,6.4c-0.2,1-1.6,1.8-2.5,2.7C144.8,353,144.7,352.8,144.5,352.7z"/>
	<path fill="#FFFFFF" d="M245.9,258.6c0.2-2,0.3-4,0.5-6c0.4-3.7-0.6-5.1-4.4-5.8c-0.8-0.2-1.7-0.2-2.5-0.4c-0.2,0-0.5-0.3-0.7-0.5
		c0.3-0.1,0.6-0.3,0.8-0.3c4.4,0.1,8.7,0.2,13.1,0.3c2.6,0,2.8,1.9,3.4,3.8c0.5,1.8-0.3,2.6-1.8,3.5
		C251.4,254.9,248.7,256.8,245.9,258.6L245.9,258.6z"/>
	<path fill="#FFFFFF" d="M208.5,320.7c0,2.2,0.2,4.4-0.1,6.5c-0.1,1-1.3,1.9-1.9,2.8c-0.8-0.8-1.9-1.5-2.2-2.5
		c-1.9-5.2-1-10.4,0.2-15.5c0.2-0.8,1.3-1.4,2-2.1c0.5,0.8,1.4,1.5,1.5,2.4c0.3,2.8,0.3,5.6,0.5,8.5
		C208.5,320.7,208.5,320.7,208.5,320.7z"/>
	<path fill="#FFFFFF" d="M232.2,253.5c0.7-1.4,1.2-3.6,2.3-3.9c2.5-0.8,5.3-1.1,7.8-0.6c0.8,0.2,1.3,3.4,1.4,5.3
		c0.1,1.9-1.6,2.1-3.2,2.2c-1.5,0.1-2.9,0.2-4.4,0.4C232.8,257.5,232.6,257.3,232.2,253.5z"/>
	<path fill="#FFFFFF" d="M204.8,160.3c-2.6,0-5.2,0-7.8,0c-1.5,0-2.9-0.6-2.7-2.3c0-0.5,1.7-1.1,2.6-1.2c4.7-0.3,9.4-0.5,14-0.6
		c0.9,0,2,0.4,2.7,1c0.5,0.5,0.9,1.6,0.7,2.3c-0.2,0.5-1.3,0.9-2.1,0.9C209.8,160.4,207.3,160.3,204.8,160.3
		C204.8,160.3,204.8,160.3,204.8,160.3z"/>
	<path fill="#FFFFFF" d="M176.5,161.2c-4.3,0-8.5-0.1-12.8,0c-1.4,0-1.6-0.5-0.9-1.4c1.1-1.2,2.4-2.7,3.7-2.9
		c3.9-0.6,7.8-0.7,11.8-0.9c1.8-0.1,2.7,0.7,2.6,2.6c-0.1,1.6-0.7,2.3-2.3,2.2c-0.7-0.1-1.5,0-2.2,0
		C176.5,161,176.5,161.1,176.5,161.2z"/>
	<path fill="#FFFFFF" d="M248.5,262.9c0.7,0.3,1.2,0.6,1.7,0.8c-0.3,0.4-0.4,0.9-0.8,1.2c-5.3,4.3-10.5,8.6-15.8,12.9
		c-0.3,0.3-0.7,0.5-1.1,0.6c-0.4,0.2-0.9,0.3-1.3,0.5c0-0.6-0.2-1.3,0-1.8c1.1-1.8,2.1-3.8,3.6-5.1c3.3-2.8,7-5.4,10.5-7.9
		C246.3,263.7,247.4,263.4,248.5,262.9z"/>
	<path fill="#FFFFFF" d="M304.3,375.2c-2.6-5.2-5.4-10.4-7.9-15.7c-1.3-2.6-2.3-5.4-3.4-8.1c-0.2-0.4-0.5-0.7-0.6-1.1
		c-1.3-5.9-4-11-8.1-15.4c-0.2-0.3-0.3-0.7-0.4-1.1c0.5,0,1-0.1,1.4,0.2c2.8,1.7,4.7,4.1,5.8,7.2c1.8,4.9,3.4,9.9,5.3,14.8
		c2,5,4.2,9.8,6.3,14.7C303.4,372.2,303.8,373.7,304.3,375.2L304.3,375.2z"/>
	<path fill="#FFFFFF" d="M231.5,352.8c-0.3,1.4-0.3,3.1-1,4.4c-0.4,0.9-1.9,1.2-2.9,1.8c-0.4-0.9-0.8-1.7-1.2-2.6c0-0.1,0-0.2,0-0.3
		c2.4-5.3,2-11.1,2.4-16.7c0-0.3,0.2-0.6,0.3-0.9c0.2,0.3,0.6,0.6,0.7,0.9c0.2,1.8,0.1,3.6,0.4,5.3
		C230.6,347.5,231.1,350,231.5,352.8z"/>
	<path fill="#FFFFFF" d="M236.3,377.6c0-2.7-0.1-5.5,0-8.2c0-0.6,0.5-1.7,0.9-1.8c0.7-0.1,1.7,0.3,2.2,0.8c2,2.1,1.2,10-1.2,11.8
		c-0.5,0.4-1.1,0.5-1.7,0.7c-0.1-0.6-0.3-1.1-0.3-1.7C236.2,378.7,236.2,378.2,236.3,377.6C236.2,377.6,236.3,377.6,236.3,377.6z"/>
	<path fill="#FFFFFF" d="M238.4,156.2c0.4-1.5-0.1-3.8,2.5-4.2c1.5-0.2,4.4,2.8,4.6,4.6c0,0.4-0.7,1-1.2,1.2
		c-0.9,0.3-2.1,0.3-2.9,0.7C238.8,159.7,238.3,159.3,238.4,156.2z"/>
	<path fill="#FFFFFF" d="M228.9,319.2c-0.2-1.9-0.4-3.7-0.5-5.6c0-0.7,0.1-1.4,0.2-2.2c0.3,0.7,0.8,1.4,0.9,2.2
		c0.9,5.7,1.7,11.4,2.5,17.1c0,0.2,0,0.4,0.1,0.6c0.1,1.3,0.2,2.7,0.3,4c-0.5-1.3-1.3-2.5-1.6-3.8c-0.9-4.1-1.6-8.2-2.3-12.2
		C228.6,319.2,228.7,319.2,228.9,319.2z"/>
	<path fill="#FFFFFF" d="M230.7,268c0-0.3,0.2-1.1,0.1-1.8c-0.2-2.3,0.9-3.3,3.2-3.1c1.7,0.2,3.4,0.3,5.1,0.4
		c-1.3,1.2-2.5,2.4-3.8,3.5c-1,0.9-2.2,1.6-3.3,2.3C230.8,270.1,230.3,269.9,230.7,268z"/>
	<path fill="#FFFFFF" d="M198.1,120.4c-0.1-2.6-0.1-5.2-0.3-7.8c-0.1-1.9-0.6-3.7-0.9-5.6c-0.1-0.5-0.1-1.1-0.1-1.6
		c0.6,0.1,1.3,0,1.8,0.2c0.5,0.3,1.1,0.9,1.2,1.4c0.4,4.2,1.6,8.5-0.8,12.5C198.8,119.9,198.4,120.1,198.1,120.4L198.1,120.4z"/>
	<path fill="#FFFFFF" d="M245.1,166.2c-1.9-0.2-3.6-0.4-3.7-2.7c0-2.4,1-3.5,3-3.5c1.8,0.1,3.6,1.8,3.5,3.3
		C247.8,165.1,246.9,166.3,245.1,166.2z"/>
	<path fill="#FFFFFF" d="M175.5,313.8c-0.4,4.4-2.8,7.3-5.8,9.7c-0.2,0.2-0.7,0.2-1,0.2c0-0.3,0-0.6,0.1-0.9c1.5-3.1,3-6.2,4.6-9.3
		c0.4-0.7,1.1-1.2,1.6-1.8C175.2,312.5,175.4,313.3,175.5,313.8z"/>
	<path fill="#FFFFFF" d="M201.4,334.6c0.3-0.7,0.6-2.1,1.3-3.1c0.2-0.3,1.8,0.1,2.5,0.5c1.2,0.7,1.4,4.2,0.4,5.2
		c-0.9,1-1.9,1.9-2.9,2.7c-0.1,0.1-0.8-0.2-0.8-0.4C201.7,338.1,201.6,336.7,201.4,334.6z"/>
	<path fill="#FFFFFF" d="M224.5,157.8c-1.5,0-3.1,0.1-4.6,0.1c-0.9,0-1.7,0.1-2.6,0.2c-0.1-1.2-0.5-2.6-0.1-3.6
		c0.3-0.8,1.8-1.5,2.7-1.4C222.7,153.3,224.1,155.2,224.5,157.8L224.5,157.8z"/>
	<path fill="#FFFFFF" d="M325.6,296.5c-1.2,2.6-2.5,5.4-3.8,8.2c-0.2,0.3-0.6,0.5-0.8,0.8c-0.1-0.4-0.4-0.9-0.4-1.3
		c0.1-2.1,0.2-4.3,0.3-6.4c0.1-1.9,2.3-3.6,4.2-3C325.3,294.8,325.3,295.5,325.6,296.5z"/>
	<path fill="#FFFFFF" d="M236.8,363.6c0.2-1.5,0.2-2.5,0.5-3.3c0.2-0.7,0.8-1.2,1.2-1.8c0.7,0.6,1.8,1.1,2.1,1.9
		c0.6,1.3-1.4,4.5-2.8,4.7C237.5,365,237,363.8,236.8,363.6z"/>
	<path fill="#FFFFFF" d="M254.8,260.1c-0.4-0.2-0.9-0.4-1.5-0.6c1.3-1.4,2.7-2.8,4-4.2c0.5,0.7,1.3,1.4,1.4,2.2
		C259,260.6,256.3,259.2,254.8,260.1z"/>
	<path fill="#FFFFFF" d="M220.9,362.5c-0.9,0.8-1.7,1.4-2.4,2.1c-0.5-0.6-1.5-1.5-1.3-1.9c0.4-1.2,1.2-2.2,1.9-3.3
		C219.6,360.3,220.1,361.2,220.9,362.5z"/>
	<path fill="#FFFFFF" d="M171.7,335.9c0,0.9,0.2,1.9-0.1,2.8c-0.2,0.7-0.9,1.5-1.5,1.9c-0.5,0.3-1.3-0.1-2-0.1
		c0.2-0.8,0.2-1.9,0.7-2.4C169.6,337.2,170.7,336.6,171.7,335.9L171.7,335.9z"/>
	<path fill="#FFFFFF" d="M219.9,264.9c-0.1,0.8-0.2,1.2-0.2,1.6c-0.2,0.7-0.3,1.4-0.5,2.1c-0.3-0.6-0.6-1.2-0.9-1.9
		c-0.2-0.4-0.3-0.8-0.4-1.2c0-1,0-1.9,0.1-2.9c0-0.1,0.8-0.3,0.8-0.2C219.2,263.4,219.6,264.3,219.9,264.9z"/>
	<path fill="#FFFFFF" d="M273.9,337.5c-0.8-0.9-1.4-1.4-1.3-1.5c0.5-1.1,1.1-2.1,1.7-3.1c0.4,0.5,1.2,1.1,1.1,1.5
		C275.2,335.3,274.6,336.2,273.9,337.5z"/>
	<path fill="#FFFFFF" d="M235.2,158.4c-0.7-1.3-1.4-2.6-2.1-3.9c-0.1-0.2,0.5-0.9,0.5-0.9c0.5,0.2,1.3,0.4,1.4,0.7
		C235.2,155.7,235.2,157.1,235.2,158.4L235.2,158.4z"/>
	<path fill="#FFFFFF" d="M137,346.1c-0.9-0.3-1.4-0.4-2-0.6c-0.4-0.1-0.7-0.3-1-0.5c0.3-0.2,0.7-0.4,1-0.5c0.6-0.1,1.2-0.1,1.8-0.1
		c0.5,0,1.1,0,1.6,0c-0.1,0.3,0,0.7-0.2,0.9C137.9,345.7,137.4,345.9,137,346.1z"/>
	<path fill="#FFFFFF" d="M178.8,122.3c-0.3,0-0.6,0.1-0.9,0c-0.8-0.2-1.6-0.4-2.4-0.6c0.8-0.1,1.6-0.3,2.4-0.4c0.3,0,0.6,0,0.9,0.1
		c0.8,0.1,1.6,0.2,2.4,0.4c-0.8,0.2-1.6,0.5-2.4,0.7C178.8,122.4,178.8,122.4,178.8,122.3z"/>
	<path fill="#FFFFFF" d="M174.2,108.4c-0.2,2.2-0.4,4.4-0.7,6.6c0,0.3-0.2,0.5-0.3,0.8c-0.1-0.3-0.2-0.6-0.2-0.9
		C173.4,112.7,173.8,110.5,174.2,108.4L174.2,108.4z"/>
	<path fill="#FFFFFF" d="M251.2,228.4c0.4,1.5,0.8,2.8,1.2,4.2c-0.2,0-0.5,0.1-0.5,0.1c-0.4-1.3-0.9-2.5-1.3-3.8
		C250.6,228.9,250.9,228.7,251.2,228.4z"/>
	<path fill="#FFFFFF" d="M224.2,162.3c-0.7-0.3-1.3-0.7-1.9-1c0.4-0.1,0.9-0.4,1.2-0.3c0.7,0.2,1.3,0.6,2,0.9
		C225.1,161.9,224.7,162.1,224.2,162.3z"/>
	<path fill="#FFFFFF" d="M324.3,288.3c0.4,0.4,0.6,0.6,0.9,0.9c-0.3,0.2-0.6,0.4-0.9,0.5c-0.4,0-0.7-0.2-1.1-0.3
		C323.6,289,323.9,288.7,324.3,288.3z"/>
	<path fill="#FFFFFF" d="M155.1,247.6c-0.2,0.3-0.3,0.5-0.4,0.8c-0.1-0.3-0.4-0.7-0.4-1c0-0.2,0.3-0.4,0.5-0.6
		C154.9,247,155,247.2,155.1,247.6z"/>
	<path fill="#FFFFFF" d="M235.2,158.5c0.4,0.9,0.8,1.9,1.1,2.8c0,0-0.3,0.1-0.4,0.2C235.7,160.5,235.4,159.5,235.2,158.5
		L235.2,158.5z"/>
	<path fill="#FFFFFF" d="M187.8,262.8c-0.3-0.2-0.5-0.4-0.7-0.5c0.2-0.1,0.4-0.3,0.7-0.4c0.1,0,0.3,0.1,0.5,0.2
		C188.1,262.3,187.9,262.5,187.8,262.8z"/>
	<path fill="#FFFFFF" d="M223.7,174.3c-0.1,0.1-0.3,0.3-0.4,0.3c-0.1,0-0.3-0.2-0.4-0.3c0.1-0.1,0.3-0.3,0.4-0.3
		C223.4,174,223.5,174.2,223.7,174.3z"/>
	<path fill="#FFFFFF" d="M175.2,325.3c-0.1-0.2-0.2-0.3-0.2-0.5c0-0.1,0-0.2,0-0.3c0.1,0.1,0.3,0.1,0.3,0.2
		C175.3,324.9,175.2,325.1,175.2,325.3z"/>
	<path fill="#FFFFFF" d="M209.9,404.3c0,0.1,0,0.2,0,0.3c-0.1-0.1-0.2-0.2-0.2-0.3c0,0,0.1-0.1,0.1-0.2
		C209.8,404.2,209.8,404.3,209.9,404.3z"/>
	<path fill="#FFFFFF" d="M143.4,184.4c0.1-0.3,0.1-0.6,0.2-0.8c0.1,0.1,0.2,0.2,0.4,0.2C143.8,184,143.6,184.2,143.4,184.4
		L143.4,184.4z"/>
	<path fill="#FFFFFF" d="M209.9,412.6c0,0.1,0,0.2-0.1,0.2c-0.1-0.1-0.2-0.2-0.2-0.3c0,0,0.1-0.1,0.2-0.2
		C209.8,412.4,209.9,412.5,209.9,412.6z"/>
	<path fill="#FFFFFF" d="M217,149.6c0.3,0.2,0.6,0.5,0.9,0.7C217.6,150.1,217.3,149.8,217,149.6L217,149.6z"/>
	<path fill="#FFFFFF" d="M235.8,246.4c-0.1-0.1-0.1-0.1-0.2-0.2c0.1,0,0.2-0.1,0.3-0.1c0.1,0,0.2,0.1,0.2,0.2
		C235.9,246.3,235.8,246.3,235.8,246.4z"/>
	<polygon fill="#FFFFFF" points="233.1,338.1 232.9,338.3 232.9,338 	"/>
	<polygon fill="#FFFFFF" points="226,177.7 226.1,177.8 226,177.9 	"/>
	<path fill="#FFFFFF" d="M233.3,341.6c-0.1-0.2-0.2-0.5-0.2-0.7c0.1,0.1,0.1,0.1,0.2,0.2C233.3,341.3,233.3,341.5,233.3,341.6
		L233.3,341.6z"/>
	<polygon fill="#FFFFFF" points="228.1,168.3 227.9,168.4 227.9,168.2 	"/>
	<polygon fill="#FFFFFF" points="324.1,292.4 324.2,292.6 324,292.6 	"/>
	<path fill="#FFFFFF" d="M247.1,219.3c0.1,0.1,0.3,0.2,0.4,0.4c0,0,0,0.2,0,0.2C247.4,219.7,247.3,219.5,247.1,219.3L247.1,219.3z"
		/>
	<polygon fill="#FFFFFF" points="220.3,150.6 220.4,150.4 220.5,150.6 	"/>
	<path fill="#FFFFFF" d="M171.7,335.9c0-0.1,0-0.2,0.1-0.3C171.7,335.8,171.7,335.8,171.7,335.9L171.7,335.9z"/>
	<path fill="#FFFFFF" d="M175.5,105.8c0.1-0.1,0.1-0.1,0.2-0.2C175.6,105.7,175.5,105.8,175.5,105.8L175.5,105.8z"/>
	<path fill="#FFFFFF" d="M224.5,157.8c0.1,0.1,0.1,0.1,0.2,0.2C224.6,158,224.6,157.9,224.5,157.8L224.5,157.8z"/>
	<path fill="#FFFFFF" d="M213.8,148.9c0,0.1,0.1,0.1,0.1,0.2C213.9,149.1,213.9,149,213.8,148.9L213.8,148.9z"/>
	<path fill="#FFFFFF" d="M218.8,162.3c0.1-0.1,0.1-0.1,0.2-0.2C219,162.1,218.9,162.2,218.8,162.3L218.8,162.3z"/>
	<path fill="#FFFFFF" d="M160.4,320.7c0.1,0.1,0.1,0.1,0.2,0.2C160.5,320.9,160.4,320.8,160.4,320.7L160.4,320.7z"/>
	<path fill="#FFFFFF" d="M252.2,257.3c-0.1,0.1-0.1,0.1-0.2,0.2C252,257.5,252.1,257.4,252.2,257.3L252.2,257.3z"/>
	<path fill="#FFFFFF" d="M261.6,258c0.2,0.4,0.4,0.8,0.6,1.3C262,258.8,261.8,258.4,261.6,258L261.6,258z"/>
	<path fill="#FFFFFF" d="M246.5,218c-0.1-0.1-0.1-0.1-0.2-0.2C246.4,217.9,246.4,218,246.5,218L246.5,218z"/>
	<path fill="#FFFFFF" d="M246.5,218c0.2,0.4,0.4,0.8,0.6,1.3l0,0C246.9,218.9,246.7,218.5,246.5,218L246.5,218z"/>
	<path fill="#FFFFFF" d="M296.8,221.8c0.1,0,0.2,0,0.3,0.1C297,221.9,296.9,221.9,296.8,221.8L296.8,221.8z"/>
	<path fill="#FFFFFF" d="M300.6,221.8c0.1,0,0.2,0.1,0.3,0.1C300.7,221.9,300.6,221.9,300.6,221.8L300.6,221.8z"/>
	<path fill="#FFFFFF" d="M262.2,259.2c0.2,0.2,0.4,0.4,0.6,0.6l0,0C262.6,259.7,262.4,259.4,262.2,259.2z"/>
	<path fill="#FFFFFF" d="M227.6,270L227.6,270L227.6,270z"/>
	<path fill="#FFFFFF" d="M252.8,256.7c-0.2,0.2-0.4,0.4-0.6,0.6l0,0C252.4,257.1,252.6,256.9,252.8,256.7L252.8,256.7z"/>
	<path fill="#FFFFFF" d="M252.8,256.7L252.8,256.7L252.8,256.7z"/>
	<path fill="#FFFFFF" d="M261.6,258L261.6,258L261.6,258z"/>
	<path fill="#FFFFFF" d="M262.8,259.9L262.8,259.9L262.8,259.9z"/>
	<path fill="#FFFFFF" d="M304.3,375.2L304.3,375.2L304.3,375.2z"/>
	<path fill="#FFFFFF" d="M217,422.8L217,422.8L217,422.8z"/>
	<path fill="#FFFFFF" d="M160.4,320.7L160.4,320.7L160.4,320.7z"/>
	<path fill="#FFFFFF" d="M174.8,106.5c0.2-0.2,0.4-0.4,0.6-0.6l0,0C175.3,106,175,106.3,174.8,106.5L174.8,106.5z"/>
	<path fill="#FFFFFF" d="M174.2,108.4L174.2,108.4L174.2,108.4z"/>
	<path fill="#FFFFFF" d="M174.8,106.5L174.8,106.5L174.8,106.5z"/>
	<path fill="#FFFFFF" d="M294.3,219.9L294.3,219.9L294.3,219.9z"/>
	<path fill="#FFFFFF" d="M294.3,219.9L294.3,219.9L294.3,219.9z"/>
	<path fill="#FFFFFF" d="M296.8,221.8c-0.2-0.2-0.4-0.4-0.6-0.6l0,0C296.4,221.4,296.6,221.6,296.8,221.8L296.8,221.8z"/>
	<path fill="#FFFFFF" d="M296.2,221.2L296.2,221.2L296.2,221.2z"/>
	<path fill="#FFFFFF" d="M197.5,121.1c0.2-0.2,0.4-0.4,0.6-0.6l0,0C197.9,120.6,197.7,120.8,197.5,121.1L197.5,121.1z"/>
	<path fill="#FFFFFF" d="M369.1,324.5c0.1,0.1,0.1,0.1,0.2,0.2C369.2,324.7,369.1,324.6,369.1,324.5
		C369.1,324.5,369.1,324.5,369.1,324.5z"/>
	<path d="M178.5,151.1c-4.8,0.2-9.6,0.3-14.4,0.7c-1.5,0.1-2-0.1-2.1-1.7c-0.1-1.2-0.9-2.4-1.5-3.5c-0.5-0.9-0.7-1.4,0.7-1.6
		c0.8-0.1,1.9-0.8,2.2-1.5c1.3-4.1,4-6.2,8.3-6.3c2.8-0.1,5.6-0.2,8.4-0.3c1.6-0.1,2.7,0.6,3,2.2c0.5,3.3,1,6.7,1.2,10
		c0,0.6-1.4,1.7-2.3,2C180.9,151.4,179.6,151.1,178.5,151.1C178.5,151.1,178.5,151.1,178.5,151.1z M173.5,149.3c0,0.1,0,0.1,0,0.2
		c2.7-0.3,5.5-0.6,8.2-1c-0.3-2.5-0.5-5-0.8-7.5c0-0.2,0-0.5-0.1-0.6c-0.5-0.5-0.9-1.2-1.5-1.4c-6.3-2.2-13,1.8-14.5,8.4
		c-0.3,1.4,0,1.9,1.5,1.9C168.7,149.3,171.1,149.3,173.5,149.3z"/>
	<path d="M174.4,391.6c-0.1,0-0.2,0-0.2-0.1c0-0.1,0-0.2,0-0.3c0.1,0,0.3,0.1,0.4,0.1C174.5,391.5,174.5,391.5,174.4,391.6z"/>
	<path d="M142.6,360.3c-3.4-0.3-6.9-0.6-10.3-0.9c-2-0.1-3.9,0-5.9-0.1c-2.9-0.1-3.4-1-2.6-3.7c0.4-1.2,0.5-2.5,0.8-3.7
		c0.3-1.3,0.6-2.7,1.2-3.9c0.3-0.6,1.4-0.9,2.1-1.3c0,0.8,0.3,1.6,0.1,2.3c-0.5,1.8-1.2,3.6-1.7,5.4c-0.5,1.7,0.1,2.5,2,2.5
		c3.6,0.1,7.3,0.6,10.9,0.7c2.8,0.1,5.7,0.1,8.4-0.3c0.9-0.1,1.7-1.5,2.4-2.4c1-1.5,1.7-3.1,2.6-4.6c0.2-0.3,0.8-0.5,1-0.4
		c0.3,0.2,0.5,0.8,0.4,1.1c-1.2,2.8-2.3,5.6-3.7,8.3c-0.3,0.5-1.5,0.6-2.3,0.6c-1.8,0.1-3.6,0-5.3,0
		C142.6,360.1,142.6,360.2,142.6,360.3z"/>
	<path d="M164.1,321.4c0.2-0.2,0.4-0.4,0.7-0.7C164.6,320.9,164.4,321.1,164.1,321.4z"/>
	<path fill="#FFFFFF" d="M173.5,149.3c-2.4,0-4.8-0.1-7.2,0c-1.5,0.1-1.8-0.4-1.5-1.9c1.5-6.6,8.2-10.6,14.5-8.4
		c0.6,0.2,1,0.9,1.5,1.4c0.1,0.1,0.1,0.4,0.1,0.6c0.3,2.5,0.5,5,0.8,7.5c-2.7,0.3-5.5,0.6-8.2,1
		C173.5,149.4,173.5,149.4,173.5,149.3z"/>
</g>
</svg>
