<?xml version="1.0" encoding="utf-8"?>
<!-- Generator: Adobe Illustrator 17.1.0, SVG Export Plug-In . SVG Version: 6.00 Build 0)  -->
<!DOCTYPE svg PUBLIC "-//W3C//DTD SVG 1.1//EN" "http://www.w3.org/Graphics/SVG/1.1/DTD/svg11.dtd">
<svg version="1.1" id="Ebene_1" xmlns="http://www.w3.org/2000/svg" xmlns:xlink="http://www.w3.org/1999/xlink" x="0px" y="0px"
	 viewBox="0 0 500 500" enable-background="new 0 0 500 500" xml:space="preserve">
<g>
	<path fill="#FFFFFF" d="M243.3,119.2c-6.9,1.8-14.3-0.1-20.4-4.5c1.1,0.8,0.9,0.7-0.7-0.3c-1.9-1.4-3.8-2.9-5.6-4.4
		c-6-5-7.8-14.7-5.8-21.9c0.5-1.9,1.3-3.5,2.2-5.1c-5.1-0.1-10.2-0.2-15.3-0.3c0,0-0.1,0-0.1,0c-0.1,0.5-0.5,1-1.2,1.1
		c-0.7,0-1.2-0.1-1.8-0.3c-0.4,0.1-0.7,0-0.9-0.2c0.1,0.2,0.3,0.4,0.4,0.5c1.1,0.3,2.2,0.5,3.2,0.8c1.6,0.4,3.2,0.7,4.7,1.1
		c2.5,0.6,2.7,2.3,2.3,4.4c-0.3,1.7-0.6,3.4-0.6,5.1c0,6.3-1.3,8.3-7.2,10.5c-1.5,0.6-2.4,1.1-2.4,3c0,2.2,0.6,3,3,2.8
		c4.1-0.2,8.2-0.2,12.2,0.2c4,0.4,6.4,3,7.7,6.9c0.9,2.9,2.3,5.7,3.4,8.5c0.1,0.3,0.3,0.6,0.6,0.7c4.9,1.8,9.6,4.2,15,3.3
		c0.4-0.1,0.8-0.2,1.1-0.4c4.6-2.2,8.8-0.5,10.8,4.3c0.4,0.9,0.9,1.8,1.5,2.7c1.2,1.7,1.6,3.4,1.1,5.5c-0.6,2.3,1.8,5.5,4,6
		c0.1,0,0.3,0.1,0.3,0.1c2.4-2.9,3.1,0.1,4.3,1.2c1.4,1.3,3.4,2,4.1,4.3c0.7,2.2,2.3,4,3.6,6c0.1,0.1,0.6,0.1,0.7,0
		c0.5-0.6,0.7-0.7,0.9-0.2c2.2,4.1,5.8,4.1,9.7,3.5c0.3,0,0.5,0,0.8-0.1C262,154.3,249,138.2,243.3,119.2z"/>
	<path fill="#FFFFFF" d="M182.5,416.2c2.9-0.3,5.8-0.6,8.8-1c3.5-0.4,6.9,0.4,10,2.1c0-1.7,0.2-3.4,0.7-5.2c0.3-1.2,0.8-2.4,1.5-3.6
		c-0.1,0-0.2-0.1-0.4-0.1c0.2,0,0.3-0.1,0.5-0.1c2-3.7,5.3-6.8,9.1-8.7c-1-0.4-1.8-1-2-1.7c-0.6-2.1-1.2-4.4-1.3-6.6
		c-0.3-6.7-0.5-13.4-0.5-20.1c0-2.8,0.6-5.7,0.7-8.5c0.3-6.8,0.7-13.6,0.8-20.4c0-3.1-2.1-5-4.9-5.2c-1.3-0.1-1.8,0.1-1.7,1.6
		c0.2,2.3,0.2,4.7,0.1,7c-0.5,13-1,26.1-1.4,39.1c-0.2,6.7-0.3,13.5-0.3,20.2c-0.1,4.3-0.2,4.1-4.3,4c-5.3-0.2-10.6,0.3-15.8,0.3
		c-0.2,0-0.5,0-0.7,0c0.2,0.5,0.3,1,0.4,1.5C181.9,412.7,182.3,414.4,182.5,416.2z"/>
	<path fill="#FFFFFF" d="M217.4,378.8c0,1.2,0,2.6,0.6,3.5c2.8,3.8,1.1,7.9,0.8,11.8c-0.4,0-0.7-0.1-1.1-0.1l0,0
		c-0.1,0.5-0.4,1.2-0.1,1.5c0.9,1,1,1.7,0.8,2.3c2.5-0.3,5-0.1,7.5,0.8c2.6,1,5,1.9,7.3,2.9c0.7-0.2,1.3-0.4,2-0.6
		c0.2-3.1,0.7-6.1,1.7-9.1c2.3-6.5,5.6-13.6,11.2-18c0.8-0.6,1.6-1.3,2.5-1.9c-0.4-8.3,0.2-16.7,1.4-24.9
		c1.5-9.7,12.6-16.5,21.7-16.5c10.1,0,18.8,6.9,21.7,16.5c0,0.1,0,0.1,0,0.1c0.1,0.3,0.3,0.6,0.4,0.9c1,2,2,4,2.9,6
		c1.4,3.1,3,6.3,3.6,9.7c0.9,4.6,0.8,8,0.3,12c15.6,0.1,30.9-1.7,46.4-3.1c8.4-5.8,16.5-12.1,25.6-16.9c4.8-2.6,9.9-4.8,14.5-7.7
		c0-0.5,0.1-1,0.1-1.3c0.1-5.5-0.2-11-0.7-16.5c-0.6-7.2-1.3-14.4-2.3-21.5c-0.1-1-0.3-2.3-0.4-2.7c-0.3-1.8-0.5-3.6-0.8-5.4
		c-0.6-3.6-1.2-7.3-1.8-10.9c-2.7-15.1-5.8-30.1-9.6-45c-1-3.8-1.8-7.7-3.1-11.4c-1.3-0.8-2.6-1.7-3.8-2.6
		c-12.3-9.2-21.3-21.3-25.8-36.1c-0.9-3.1-1.8-6.2-2.6-9.4c-0.4-1.4-0.8-2.6-1.3-3.9c-1.2-2.5-2.4-5-3.7-7.5
		c-5.6,0.2-11.2,0.4-16.8,0.4c-9.8,0.1-19.1-1.9-27.8-5.3c0.4,0.6,0.8,1.2,1.2,1.8c2.2,3.9,3.9,8.1,6.5,11.8
		c3.7,5.4,8.3,9.8,14.3,13c6.6,3.4,12.7,7.7,17.6,13.5c6.6,7.8,11.3,16.9,16.5,25.6c1.4,2.3,2.6,4.5,5.1,5.9c3.1,1.8,4.8,5,5.8,8.3
		c2,6.7,5.6,12.6,8.8,18.8c4.6,9.1,7.4,18.7,8.9,28.8c0.6,4.2,2,8.3,2.7,12.5c1,5.9,1.8,11.9,2.6,17.8c0.6,4.5,1.2,9.1,1.9,13.6
		c0.3,1.8,1.5,3.9-2,3.8c-1,0-1.9,1-2.9,1.6c-9.7,5.2-19.3,10.6-29.1,15.7c-4.1,2.1-8.5,3.6-12.8,5c-1.5,0.5-3.5,0.4-5.1-0.2
		c-2.1-0.8-3.3-0.3-4.4,1.4c-0.3,0.5-0.7,1-1.2,1.3c-0.3,0.2-0.9,0.1-1.4,0.1c0.1-0.4,0-0.8,0.2-1.1c0.7-1,1.5-2,2.1-3
		c1.1-1.8,2.8-2.3,4.5-1.3c3.1,1.9,5.7,1.2,8.7-0.5c5.6-3.3,11.5-6.2,17.3-9.2c2-1,4.4-1.5,6.4-2.5c1.9-1,3.6-2.4,5.4-3.6
		c0.3-0.2,0.7-0.8,0.9-0.7c4.1,0.9,5.3-3.7,8.6-4.4c2-0.5,2.8-2.3,2.5-4.6c-0.9-7.6-1.6-15.2-2.3-22.8c-0.1-0.7-0.2-1.4-0.4-2.1
		c-2.1-9.5-3.8-19.2-6.4-28.6c-1.7-6.1-4.7-11.9-7.2-17.7c-2.5-5.7-5.2-11.3-7.7-17c-1.3-3-2.8-5.5-5.7-7.7
		c-2.6-1.9-4.1-5.5-5.9-8.4c-0.9-1.4-1.6-3.1-2.5-4.5c-4.5-6.6-8.6-13.5-13.7-19.5c-3.4-4-8-7.2-12.5-10.1c-4.5-2.9-9.4-5-12.9-9.1
		c-3-3.4-5.8-7.1-8.2-11c-2.5-4.2-4.3-8.8-8.2-12.1c-1.6-1.3-8.3-1.9-9.8-0.7c-0.2,0.1-0.1,0.8,0.1,1.2c1.8,3.3,3.8,6.5,5.3,9.9
		c3.3,7.4,7.6,13.9,14.6,18.3c1.7,1.1,3.1,2.4,4.7,3.7c0.6-3,2.2-4.7,4.4-4.4c0.6,0.1,1.2,0.6,1.8,0.9c-0.4,0.4-0.8,1.1-1.4,1.3
		c-3.2,1.3-3.7,3.1-1.1,5.6c3.3,3.2,7.1,5.9,10.1,9.3c2.7,3.1,4.9,6.7,7.1,10.2c3.6,5.7,7.1,11.4,10.5,17.2c1.6,2.8,2.8,5.9,3.9,8.9
		c0.3,0.8-0.1,1.9-0.2,2.8c-0.7-0.7-1.6-1.2-2-2c-2.1-4.3-3.6-8.9-6-13c-3.2-5.5-7-10.7-10.6-16c0,0.2-0.1,0.4-0.1,0.6
		c0,0.1-0.1,0.1-0.2,0.1c0.1-0.2,0.2-0.5,0.3-0.7c-4-7.3-10.3-12.4-16.4-17.7c-0.5-0.4-1.3-1.2-1.7-1.1c-2.7,0.9-4-1-5.3-2.6
		c-4.1-4.9-8.2-9.9-11.9-15c-1.7-2.3-2.6-5.1-3.8-7.7c-0.6-1.3-1-2.7-2.7-0.8c-0.4,0.4-1.4,0.3-2.2,0.4c0.1-0.7,0-1.6,0.3-2.2
		c1.8-3.4,1.6-3.2-1.2-6.1c-3.2-3.3-6.1-6.9-8.9-10.4c-2.2-2.8-5-4.4-8.2-6.1c-3.9-2.1-7.7-3.2-12-3.4c-0.2,0-0.4-0.1-0.6-0.1
		c-0.9-0.3-1.8-0.6-2.7-0.9c0.6,0.9,1.1,1.9,1.7,2.7c4,4.8,9.8,6.8,14.8,10.3c1.7,1.2,3.3,2.7,4.9,4.1c0.9,0.8,1.9,1.5,2.8,2.2
		c0.3,0.2,0.9,0.3,1,0.6c1.8,4.4,6.7,6.7,7.5,12.2c0.4,3.1,3.5,5.8,5.3,8.8c1.9,3.3,3.3,6.9,6.8,9.2c1.5,0.9,2,3.3,3.1,4.8
		c4.9,6.4,10.1,12.6,14.8,19.1c3.1,4.2,6,8.5,8.4,13c3.7,6.7,6.9,13.6,10.3,20.4c0.4,0.8,0.7,1.7,0.9,2.6c0.5,3.6,3.4,5.1,6,6.8
		c0.4,0.3,1.5-0.2,2.2-0.4c1.3-0.4,2.6-1.1,4-1.3c0.6-0.1,1.4,0.6,2.1,0.9c-0.5,0.5-1,1.2-1.6,1.5c-1.5,0.7-3,1.4-4.5,1.9
		c-1.9,0.5-2.3,1.7-2.7,3.5c-0.8,3.7-2.1,7.4-3.5,11c-0.7,1.8-2.3,3.3-4.6,2.4c-2.3-1-2.1-2.9-1.7-5c0.6-3.4,1-6.9,1.7-10.3
		c0.3-1.6,0.9-3.1,1.3-4.6c0.2-0.7,0.5-1.5,0.3-2c-1.1-3.2-2.3-6.3-3.6-9.4c-1-2.4-1.9-4.9-3.2-7.3c-5.3-9.8-9.9-20.1-17.9-28.3
		c-3.3-3.4-6-7.3-9.1-11c-1.6-1.9-3.5-3.4-4.8-5.4c-4.4-7-9-13.8-12.4-21.3c-1.3-2.8-3.6-5.1-5.8-7.3c-1.6-1.6-7.5-0.3-8.4,1.8
		c-0.3,0.6,0,1.6,0.4,2.3c4.9,9.7,10,19.4,14.9,29.1c3.8,7.5,8.6,14.5,13.1,21.5c3.3,5.1,6.7,10.2,9,15.8c0.6,1.5,1.4,2.1,3,1.8
		c2-0.4,4-0.7,6-1c0.5-0.1,1.1,0.1,1.6,0.1c-0.4,0.5-0.7,1.2-1.1,1.3c-1.9,0.5-3.9,1.1-5.9,1.2c-1.7,0.1-2.3,0.1-1.6,2
		c2.8,8.3,5.3,16.7,8.2,25c2,5.7,4.6,11.1,6.6,16.8c3.3,9.3,6.2,18.8,9.5,28.1c4,11.5,8.2,23,12.2,34.5c1.2,3.4,2,6.9,2.8,10.3
		c0.1,0.5-0.3,1.2-0.5,1.9c-0.5-0.5-1.4-0.8-1.5-1.4c-0.7-2.3-1-4.8-1.8-7.1c-1.6-4.9-3.5-9.7-5.2-14.6c-0.9-2.5-1.4-5.1-2.2-7.6
		c-1.5-4.6-3.1-9.2-4.7-13.9c-3.1-8.7-6.1-17.5-9.3-26.2c-1.3-3.6-3.2-7-4.8-10.5c-0.9-2-1.7-4.1-2.4-6.2
		c-1.9-5.9-3.8-11.8-5.7-17.7c-1.1-3.4-2.2-6.8-3.3-10.1c-0.7-1.9-1.4-3.9-2.3-5.6c-2.4-4.4-3.5-9.6-7.6-13c-0.3-0.3-0.6-0.6-0.7-1
		c-1.8-4.1-4.1-7.7-6.9-11.3c-3.3-4.2-5.1-9.4-7.7-14.2c-1.4-2.5-3.1-4.7-4.5-7.2c-1.7-3.2-3.8-6.4-4.7-9.8c-0.9-3.8-2.6-7-4.7-10.2
		c-0.4-0.6-1.6-0.8-2.5-1.1c-0.1,0.8-0.4,1.8-0.1,2.5c1.6,4.4,3.3,8.8,4.9,13.2c0.4,1.1,0.7,2.3,0.9,3.5c0.1,0.6-0.2,1.3-0.4,1.9
		c-0.5-0.5-1.2-0.8-1.4-1.4c-1.3-3-2.5-6-3.7-9.1c-2.4-6.6-4.7-13.2-7.2-19.8c-2.4-6.5-4.7-13-7.2-19.4c-1.4-3.6-3.1-7-4.7-10.5
		c-0.3-0.7-1.3-1.1-1.9-1.7c-0.4,0.9-1.2,1.9-1,2.6c0.6,2.3,1.6,4.6,2.5,6.8c2,4.7,4,9.4,5,14.6c1.3,6.8,2.9,13.8,6.8,19.8
		c0.2,0.3,0.4,0.7,0.6,1.1c2.4,8.6,8,15.7,12,23.5c0.3,0.6,3,2,0,2.8c0.3,0.9,0.4,1.8,0.8,2.6c2.7,5.2,5.6,10.2,8.1,15.4
		c1.8,3.7,3,7.8,4.7,11.6c1.5,3.4,3.5,6.6,5.1,10c1.4,2.9,2.6,6,3.6,9c2.4,7.7,4.5,15.5,7,23.2c2.2,6.7,4.7,13.2,7.1,19.8
		c3.6,10.1,7.1,20.2,10.8,30.2c3.3,9.2,6.8,18.3,10.3,27.5c1,2.6,2.4,5,3.5,7.5c0.2,0.6,0,1.3,0,2c-0.5-0.4-1.2-0.7-1.5-1.2
		c-0.7-1.2-1.3-2.6-1.9-3.9c-0.6-1.3-0.9-2.4-2.4-3.4c-1.4-0.9-2-3.5-2.3-5.5c-0.9-7.2-4.3-13.5-6.6-20.2c-1.4-3.8-2.5-7.7-4-11.5
		c-1.5-3.9-3.2-7.7-4.9-11.5c-0.2-0.5-0.6-0.9-0.7-1.3c-1.9-5.9-3.8-11.8-5.8-17.7c-0.5-1.6-1.2-3.2-1.8-4.8c-0.8-2-2.2-4-2.1-6
		c0.2-5.2-2.9-9-4.4-13.5c-1.2-3.6-2-7.3-3.3-10.7c-1.2-3-2.9-5.8-4.4-8.7c-0.3-0.6-0.9-1.2-0.9-1.9c-0.5-6.7-5.3-11.1-8.4-16.4
		c-0.6-1.1-0.6-3.4-2.9-2.8c0.5,1.3,0.7,2.7,1.4,3.8c4.2,6.7,7.6,13.7,10.5,21.1c2.9,7.5,5.9,15,8.2,22.7c2.8,9,5,18.3,7.4,27.4
		c0.2,0.6,0,1.3-0.1,2c-0.5-0.4-1.1-0.9-1.6-1.3c-0.6-0.5-1.1-1.1-1.6-1.6c-0.4,0.8-1.3,1.7-1.3,2.5c0.2,2.8,1.4,5.3,4.1,6.4
		c4.6,1.9,6.2,5.9,7.8,10c2.3,6.3,4.3,12.7,6.9,19c3.3,8,6.9,15.9,10.3,23.9c1.3,3,2.6,6,4.1,8.9c0.6,1.2,1.8,2.1,2.7,3.2
		c0.3,0.3,0.5,0.7,0.8,1.1c-0.4,0.2-0.8,0.5-1.1,0.4c-1.3-0.4-2.9-0.6-3.7-1.5c-1.6-1.8-2.8-4-3.9-6.2c-2.6-5.6-4.9-11.3-7.6-16.8
		c-2.2-4.6-5.1-8.8-7.3-13.4c-2.8-6.1-5.1-12.4-7.8-18.6c-0.7-1.6-1.7-3-2.8-4.3c-1.6-1.9-4.8-1.9-7.3-0.5c-1.3,0.8-3,1.2-4.5,1.4
		c-1.3,0.2-2-0.5-1.8-2.1c0.3-2.4,0-2.6-2.1-1.4c-4.8,2.5-9.6,5-14.3,7.7c-3.8,2.2-7.5,4.5-11.3,6.8c-0.4,0.3-0.9,0.5-1.4,0.6
		c-0.4,0-0.9-0.3-1.3-0.4c0.3-0.4,0.4-0.9,0.8-1.1c4.5-2.6,9.1-5.1,13.6-7.6c5.6-3.1,11.3-6.2,16.8-9.4c2.5-1.4,4-1.5,6.4,0.4
		c0.5,0.4,1.1,1,1.8,1.1c0.8,0.1,1.7-0.2,2.6-0.3c-0.4-0.6-0.7-1.1-1.1-1.7c-0.4-0.6-0.8-1.2-1.1-1.8c-0.7-1.5-1.9-1.9-3.2-1
		c-1.4,0.9-2.6,0.6-4,0.1c-11-3.9-22-7.7-32.9-11.5c-0.7-0.2-1.2-0.8-1.8-1.3c0.8-0.1,1.6-0.4,2.3-0.2c9.7,3.4,19.4,6.8,29.2,10.3
		c2,0.7,4.1,2.6,6.3,0.9c2.3-1.8,0.9-4.2,0.2-6.2c-1.5-4.7-3.5-9.3-5-14.1c-1.6-5.4-3.1-10.8-4.3-16.3c-1.3-6-2.1-12.1-3.2-18.1
		c-0.4-2.1-0.8-4.2-1.4-6.3c-0.5-1.6-0.7-1.6-2-0.3c-0.3,0.2-0.8,0.4-1.1,0.3c-2.7-0.3-4.7,1.3-6.5,2.8c-6.1,4.9-12.1,10-18.3,14.9
		c-1.3,1-1.7,2-1.5,3.6c1.1,8.6,2.1,17.2,3.2,25.8c0,0.4,0.1,0.8,0.1,1.2c-0.1,0.4-0.4,0.8-0.6,1.3c-0.4-0.4-1-0.7-1.1-1.2
		c-0.5-2.7-1-5.4-1.3-8.2c-1.1-8.9-2.1-17.8-3.2-26.8c0-0.4-0.2-0.8-0.2-1.1c-0.2,0.4-0.5,0.9-0.5,1.3c0.2,4.8,0.3,9.6,0.9,14.3
		c0.9,7.7,2,15.3,3.2,23c0.8,5.5,1.6,11.1,2.7,16.6c1.5,7.3,2.7,14.6,2.9,22c0,0.4,0.8,1,1.2,1c0.7,0,1.3-0.5,2-0.7
		c0.6-0.2,1.3-0.2,2-0.3c0,0.7,0.1,1.4,0,2c-0.5,2.6-1.3,5.1-1.5,7.7c-0.1,2.2,0.9,4.3,1,6.5c0.3,4-0.9,7.5-4,10.4
		c-1.3,1.3-1.9,3.5-2.6,5.3c-0.7,1.7-0.9,3.6-1.6,5.2c-0.3,0.7-1.3,1.6-2,1.6c-0.6,0-1.4-0.9-1.9-1.6c-2.1-2.9-1.4-6.3-1.7-9.5
		c-0.1-1.1-0.1-2.3-0.3-3.3c-0.5-1.8-1.3-3.5-3.6-3.5c-2.3,0-4.3,0.6-5.1,3c-2.1,5.8-2.5,11.7-2,17.8
		C217.6,373.5,217.3,376.2,217.4,378.8z M314.5,262.8c-0.3,0.1-0.8,0.1-1.1-0.1c-0.4-0.3-0.7-0.8-0.9-1.2c-1.9-4.9-3.6-9.9-5.7-14.8
		c-1.5-3.5-3.6-6.7-5.1-10.2c-1.8-4-5.1-6.7-7.7-10.1c-0.5-0.6-0.6-1.4-0.9-2.1c0.8,0.3,1.8,0.3,2.4,0.8c4.6,3.9,8,8.8,10.4,14.2
		c3.3,7.2,5.9,14.7,8.8,22.1c0.1,0.2,0.1,0.4,0.2,0.7C314.7,262.3,314.7,262.8,314.5,262.8z M344.5,257.9c-0.7,0.3-1.6,0.4-2.4,0.2
		c-0.8-0.2-1.5-0.7-2.3-1.1c0.7-0.3,1.5-0.6,2.2-0.9c0,0.1,0.1,0.3,0.1,0.4c0.6-0.1,1.2-0.1,1.8-0.2c0.5,0,1.1,0,1.6,0
		C345.2,256.9,345,257.7,344.5,257.9z M351.4,263.9c-0.8-1.1-2-2.1-2.7-3.3c-0.4-0.7-0.1-1.7-0.1-2.6c0.7,0.3,1.7,0.4,2.1,1
		c0.9,1.2,1.8,2.5,2.3,4c2.9,8.6,7.3,16.5,10.5,24.9c0.6,1.7,1,3.5,1.4,5.3c0.1,0.3-0.2,0.7-0.2,1.1c-0.4-0.3-1-0.5-1.1-0.8
		c-1.7-7.8-7.4-13.8-9.4-21.4c-0.1-0.4-0.8-0.6-1.2-0.9c-0.8,1.1-1.6,2.2-2.3,3.4c-0.1,0.3,0.3,0.9,0.6,1.4
		c4.3,7.3,8.6,14.6,13,21.8c0.4,0.6,1.2,1,1.8,1.4c-0.1-1-0.3-1.9-0.4-2.9c0.6,0.8,1.3,1.6,1.6,2.5c1.4,3.5,2.8,7,4,10.5
		c0.2,0.5-0.2,1.3-0.2,1.9c-0.5-0.4-1.1-0.8-1.5-1.3c-0.9-1.4-1.8-2.9-2.7-4.3c-3.6-5.7-7.3-11.4-10.9-17.2c-2.5-4-5.1-8-7.6-12.1
		c-0.9-1.4-1.3-3.1-2-4.7c0.6-0.1,1.2-0.1,1.8-0.2C353,270.5,354.2,267.6,351.4,263.9z M338.2,250c1.1-1.3,2-3,3.4-3.6
		c1.6-0.8,5.8,1.3,6.3,2.6c0.1,0.3,0.2,0.6,0.4,1.4c-0.7,0-1.4,0.2-1.6,0c-2.5-2.3-4.8-2.5-6.9,0.4c-0.2,0.2-0.8,0.3-1.1,0.2
		C338.3,250.8,338.1,250.1,338.2,250z M331.8,288.3c-3.2,0.4-6.1-0.1-8.6-2.1c-0.5-0.4-0.7-1.3-1-1.9c0.6,0.1,1.4,0,1.9,0.3
		c2.8,1.5,5.5,2.1,8.7,0.8c3.2-1.3,5.9-4.2,5.6-7.6c-0.3-3.4-1.2-6.6-4.2-8.8c-0.9-0.7-1.4-2-2-3c1.2,0.4,2.9,0.4,3.6,1.2
		c3.1,3.3,5.5,7.1,4.8,12.1C340.5,284.5,337.1,287.7,331.8,288.3z M281.8,249.2c-1.5,0.1-3.2-1.6-4.7-2.6c-0.1,0,0.1-0.6,0.2-0.8
		c0.2-0.1,0.7-0.2,0.8-0.1c2.4,3.1,4.3,1.3,6.2-0.5c0.2-0.2,0.7,0,1.1,0c0.1,0.2,0.2,0.4,0.3,0.6C284.3,247,283.1,249.1,281.8,249.2
		z M238,318c-0.2-1.8-0.2-3.7-0.5-5.5c-0.8-5.8-1.7-11.7-2.7-18.1c0.1-0.1,0.4-0.7,0.7-1.3c0.3,0.5,0.9,1.1,1,1.6
		c1.2,7.1,2.3,14.1,3.3,21.2c0.4,2.8,0.3,2.7,3,1.3c8.8-4.6,17.6-9.1,26.4-13.6c0.5-0.3,1.2-0.2,1.8-0.2c-0.4,0.4-0.8,0.9-1.3,1.1
		c-8.2,4.5-16.5,9-24.7,13.5c-1,0.5-1.8,1.3-2.8,1.9C239.3,321.9,238.3,321.4,238,318z"/>
	<path fill="#FFFFFF" d="M333.4,310.2c0-0.1-0.1-0.2-0.1-0.3c-0.1,0.1-0.2,0.2-0.3,0.4c0.1,0,0.2,0.1,0.2,0.1
		C333.3,310.4,333.4,310.3,333.4,310.2z"/>
	<polygon fill="#FFFFFF" points="248.4,186.3 248.6,186.4 248.6,186.2 	"/>
	<polygon fill="#FFFFFF" points="349.3,264.3 349.2,264.4 349.4,264.5 	"/>
	<polygon fill="#FFFFFF" points="329.3,224.2 329.3,224 329.2,224.1 	"/>
	<path d="M380.4,340.2c-0.7-4.5-1.3-9.1-1.9-13.6c-0.8-5.9-1.6-11.9-2.6-17.8c-0.7-4.2-2.1-8.3-2.7-12.5
		c-1.5-10.1-4.3-19.7-8.9-28.8c-3.1-6.2-6.8-12.1-8.8-18.8c-1-3.4-2.6-6.6-5.8-8.3c-2.5-1.4-3.7-3.6-5.1-5.9
		c-5.2-8.7-9.9-17.8-16.5-25.6c-4.9-5.7-11-10-17.6-13.5c-6-3.1-10.6-7.6-14.3-13c-2.5-3.7-4.2-7.9-6.5-11.8
		c-0.4-0.6-0.8-1.2-1.2-1.8c-3.4-1.4-6.6-2.9-9.8-4.7c-0.3,0-0.5,0-0.8,0.1c-3.8,0.6-7.5,0.6-9.7-3.5c-0.3-0.5-0.4-0.4-0.9,0.2
		c-0.1,0.1-0.7,0.1-0.7,0c-1.3-2-2.9-3.9-3.6-6c-0.7-2.3-2.7-2.9-4.1-4.3c-1.2-1.1-1.9-4.2-4.3-1.2c0,0-0.2-0.1-0.3-0.1
		c-2.2-0.5-4.6-3.7-4-6c0.5-2.1,0-3.8-1.1-5.5c-0.6-0.8-1.1-1.7-1.5-2.7c-2-4.7-6.2-6.4-10.8-4.3c-0.4,0.2-0.8,0.3-1.1,0.4
		c-5.4,0.9-10.2-1.6-15-3.3c-0.2-0.1-0.5-0.4-0.6-0.7c-1.2-2.8-2.5-5.6-3.4-8.5c-1.3-3.9-3.6-6.5-7.7-6.9c-4-0.4-8.1-0.4-12.2-0.2
		c-2.4,0.1-3-0.6-3-2.8c0-1.9,0.9-2.4,2.4-3c5.9-2.2,7.1-4.2,7.2-10.5c0-1.7,0.3-3.4,0.6-5.1c0.4-2.1,0.2-3.9-2.3-4.4
		c-1.6-0.4-3.2-0.7-4.7-1.1c-1.1-0.2-2.2-0.5-3.2-0.8c-0.2,0-0.3-0.3-0.4-0.5c-0.2-0.2-0.4-0.4-0.5-0.7c-0.4,0.1-0.9,0.2-1.5,0.1
		c-0.2,0-0.5-0.1-0.7-0.1c-0.1,0-0.1,0-0.2,0c-0.2,0.1-0.5,0.2-0.7,0.2c0.1,0,0.2,0,0.3,0c-0.8,0.1-1.7,0.2-2.5,0.3
		c-3.2,0.4-6.5,0.7-9.7,1.2c-2.5,0.4-4.1,2-4.4,4.5c-0.6,4.5-1,9.1-1.3,13.7c-0.1,1.8,1.5,3.2,3.4,3.2c2,0,4.1,0.2,6.1,0.1
		c1.6-0.1,2.1,0.5,2,1.9c-0.1,1.2,0.1,2.7-0.5,3.6c-0.5,0.7-2,0.8-3.1,0.9c-2,0.2-4.1,0.3-6.1,0.1c-4.8-0.4-13.1,4.3-14.7,8.9
		c-1,3.1-1.3,6.4-1.8,9.6c-0.1,0.4,0.4,0.9,0.5,1.3c0.3-0.3,0.9-0.5,1-0.9c0.4-1.3,0.7-2.6,0.9-3.8c0.4-1.8,0.7-3.6,1.2-5.4
		c0.8-2.5,2.5-4.4,5-5c5.9-1.2,11.7-3.6,18-2.1c0.3,0.1,1-0.6,1.1-0.9c0.1-3.5,2.1-6.9,0.1-10.4c-0.1-0.1,0.5-0.8,0.7-0.8
		c4.1-0.2,8.3-0.4,12.4-0.6c-1.5,0.7-3,1.8-4.6,2c-2.8,0.4-2.9,2.2-2.7,5.8c0.1,2.4,1.3,3.3,3.8,3.3c4.4,0,8.7,0.2,13.1,0.5
		c3,0.2,5.2,2,6.5,4.5c1.4,2.7,2.4,5.6,3.4,8.5c0.3,0.8-0.2,1.9-0.3,2.9c0.3,0.2,0.6,0.5,0.9,0.7c-0.3-0.2-0.6-0.5-0.9-0.7
		c-1.4-2.3-3.2-4.5-4.2-7c-1.5-3.5-4.2-4.5-7.5-4.8c-2.4-0.3-4.8-0.9-7.2-0.9c-1.6,0-3.2,1-4.8,1.4c-2.8,0.6-1.5,2.6-1.5,4.2
		c0,1.5-0.1,3.1-0.1,4.6c0,2.9,0.5,3.9,3.4,4c3.9,0.2,7.7-0.2,11.6-0.3c1.6,0,3.2,0.1,4.8,0.4c0.5,0.1,1,0.6,1.5,0.9
		c-0.5,0.4-0.9,1.2-1.5,1.3c-2.2,0.5-4.4,1-6.6,1.1c-3.4,0.2-6.7,0.1-10.1-0.1c-3-0.2-3.6,0.2-3.1,3.1c0.2,1.4,0.9,2.8-1.4,3.1
		c-4.3,0.5-5.4,0.1-5.6-2.5c-0.4-3.9-0.4-4-4.4-3.9c-4.5,0.1-9,0.3-13.5,0.6c-1.8,0.1-3.3,0.8-4,3.1c-1,3.2-4.4,3.6-7.1,4.5
		c-0.4,0.2-1-0.1-1.5,0c-0.3,0.1-0.7,0.4-1,0.6c0.3,0.4,0.5,1,0.8,1.1c2.2,0.5,4.4,1,6.6,1.1c2.1,0.1,4.3-0.1,6.4-0.5
		c1.2-0.2,2.2-1,3.4-1.4c1-0.4,2-0.9,3-0.9c5.2-0.1,10.4,0,15.6-0.1c8.1-0.1,16.3-0.4,24.4-0.5c1.8,0,3.6,0.3,5.4,0.5
		c-1.1,1.6-0.9,2.3,1.3,2.2c1.5-0.1,3.5,0,4.4,0.8c2.1,2,0.8,5.3-2.1,5.9c-1,0.2-2,0.1-3,0.1c-7-0.1-14.1-0.1-21.1-0.2
		c-4.9-0.1-9.8-0.4-14.6-0.4c-4.5,0-8.9,0.1-13.4,0.4c-3.7,0.2-7.3,0.9-10.9,0.9c-2.4,0-4.8-0.6-7.2-1c-2.3-0.5-2.5-0.3-2.4,2.2
		c0.1,1.7,0.2,3.2,2,4.1c1.7,0.8,1.7,2.2,0,2.9c-2,0.9-2.3,2.4-2.2,4.2c0.9,10.4,1.7,20.7,2.5,31.1c0.2,2.4,0.2,4.9,0.3,7.3
		c0.1,1.6,0,3.2,0.1,4.9c0.5,6.7,1,13.4,1.5,20c0.1,0.7,0.1,1.7,0.5,2c2.3,1.7,1.3,3.9,1.3,6.1c0,3.5,0.5,7,0.7,10.6
		c0.1,1.7,0.1,3.5,0.2,5.2c0.4,7.3,0.8,14.7,1.4,22c0.5,6.1,1.1,12.2,1.6,18.2c0.1,1.3-0.3,2.6-0.2,4c0.2,4.1,0.5,8.3,0.7,12.4
		c0,1-0.4,2.8-0.9,3c-1.7,0.4-1.9-1.2-1.9-2.4c-0.2-4-0.2-7.9-0.5-11.9c-0.1-1-0.9-1.9-1.4-2.9c-0.2-0.4-0.4-0.9-0.4-1.4
		c-0.2-5.7-0.4-11.4-0.6-17.1c-0.2-5.7-0.4-11.4-0.8-17.1c-0.4-6.4-1.3-12.8-1.7-19.2c-0.9-14.6-1.6-29.3-2.6-43.9
		c-0.5-7.7-1.5-15.4-2.2-23.1c-0.1-1-0.2-2-0.1-3.1c0.4-4.3-0.8-8.2-1.8-12.3c-0.5-2.1-0.1-4.4,0.1-6.6c0.2-1.4,0.8-2.7,1.1-4.1
		c0.5-2.5,2.1-4,4.2-5.3c2.1-1.3,4-3,6-4.6c0.3-0.3,0.2-1.1,0.3-1.7c-0.5,0.2-1.1,0.3-1.5,0.6c-3.5,2.8-8,4.3-10.3,8.5
		c-1.1,2.1-2.5,4.5-2.4,6.7c0.2,4.5,1.4,9,2.2,13.5l0,0c-0.3,4.3-0.3,8.5,1.2,12.7c0.8,2.2,0.4,4.8,0.5,7.3
		c0.4,10.1,0.8,20.2,1.3,30.3c0.1,1.3,0.4,2.6,0.4,4c-0.1,2.8-0.4,5.6-0.6,8.4c-0.1,1.6-0.4,3.3,0.1,4.8c2.2,7.3,2.8,14.8,3.2,22.3
		c0.5,7.5,1,15.1,1.3,22.6c0.3,6.7,0.4,13.5,0.6,20.2c0,1.1,0.1,2.2,0.3,3.4c0.2,1.5,0.7,2.4-1.8,2.6c-1.5,0.1-3.1,2.3-4.3,3.9
		c-1.3,1.8-2.1,4-3.1,6c-1.4,2.8-3.8,4.1-6.9,4.3c-2.3,0.2-4.7,0.4-7,0.6c-3,0.3-5,1.8-5.8,4.7c-0.9,2.9-1.5,5.9-2.2,8.9
		c-0.1,0.3,0,0.6-0.1,0.9c-0.3,0.7-1,1.4-1.3,2.1c1.4,1.7,2.7,3.5,4,5.3c0.8,0.6,1.8,1,3,1c2.2,0,4.4-0.2,6.6-0.2
		c0.6,0,1.3-0.1,1.8,0.1c4.6,1.9,9.5,1,14.2,1.2c1.6,0.1,2.7-0.5,3.3-2.4c1-2.8,2.6-5.5,4-8.2c0.2-0.3,1.2-0.6,1.2-0.5
		c1.9,3.2,5.1,1.9,7.8,2c4.7,0.2,6.1,1.4,5.7,6c-0.4,5.3,0.1,10.4,1.9,15.4c0.2,0.5,0.5,1.4,0.9,1.4c2.7,0.3,2.2,2.2,2.3,3.9
		c0.3,7.1,0.7,14.2,0.8,21.4c0.1,5.7-0.1,11.4-0.2,17.1c0,1.5,0,3.1,0,4.6c0,1.1,0.4,2.7,0.2,3.5c0.7,1.4,1.3,2.9,1.8,4.4
		c0.2,0,0.5,0,0.7,0c5.3,0,10.6-0.5,15.8-0.3c4.1,0.1,4.3,0.3,4.3-4c0.1-6.7,0.1-13.5,0.3-20.2c0.4-13,1-26.1,1.4-39.1
		c0.1-2.3,0.1-4.7-0.1-7c-0.1-1.5,0.4-1.7,1.7-1.6c2.8,0.3,4.9,2.1,4.9,5.2c-0.1,6.8-0.4,13.6-0.8,20.4c-0.1,2.8-0.7,5.7-0.7,8.5
		c0,6.7,0.2,13.4,0.5,20.1c0.1,2.2,0.7,4.4,1.3,6.6c0.2,0.7,1,1.3,2,1.7c1.8-0.9,3.8-1.6,5.8-1.8c0.3-0.6,0.1-1.3-0.8-2.3
		c-0.2-0.2,0.1-1,0.1-1.5l0,0c0.4,0,0.7,0.1,1.1,0.1c0.3-4,2-8-0.8-11.8c-0.6-0.9-0.6-2.3-0.6-3.5c-0.1-2.6,0.2-5.3,0-7.9
		c-0.5-6.1-0.1-12,2-17.8c0.9-2.5,2.9-3,5.1-3c2.3,0,3.1,1.7,3.6,3.5c0.3,1.1,0.2,2.2,0.3,3.3c0.3,3.2-0.4,6.6,1.7,9.5
		c0.5,0.7,1.3,1.6,1.9,1.6c0.7,0,1.7-0.9,2-1.6c0.7-1.7,1-3.5,1.6-5.2c0.7-1.9,1.3-4.1,2.6-5.3c3.1-2.9,4.3-6.4,4-10.4
		c-0.1-2.2-1.1-4.4-1-6.5c0.1-2.6,1-5.1,1.5-7.7c0.1-0.6,0-1.3,0-2c-0.7,0.1-1.3,0.1-2,0.3c-0.7,0.2-1.3,0.7-2,0.7
		c-0.4,0-1.2-0.6-1.2-1c-0.2-7.4-1.5-14.7-2.9-22c-1.1-5.5-1.9-11-2.7-16.6c-1.1-7.6-2.3-15.3-3.2-23c-0.5-4.7-0.6-9.5-0.9-14.3
		c0-0.4,0.3-0.8,0.5-1.3c0.1,0.4,0.2,0.8,0.2,1.1c1.1,8.9,2.1,17.8,3.2,26.8c0.3,2.7,0.8,5.5,1.3,8.2c0.1,0.4,0.7,0.8,1.1,1.2
		c0.2-0.4,0.5-0.8,0.6-1.3c0.1-0.4,0-0.8-0.1-1.2c-1-8.6-2-17.2-3.2-25.8c-0.2-1.6,0.2-2.6,1.5-3.6c6.1-4.9,12.2-9.9,18.3-14.9
		c1.9-1.5,3.8-3.2,6.5-2.8c0.4,0,0.9-0.1,1.1-0.3c1.3-1.2,1.5-1.2,2,0.3c0.6,2.1,1,4.2,1.4,6.3c1.1,6,1.9,12.1,3.2,18.1
		c1.2,5.5,2.6,10.9,4.3,16.3c1.5,4.8,3.5,9.3,5,14.1c0.6,2,2.1,4.4-0.2,6.2c-2.2,1.8-4.2-0.1-6.3-0.9c-9.7-3.5-19.4-6.9-29.2-10.3
		c-0.7-0.2-1.5,0.1-2.3,0.2c0.6,0.4,1.1,1,1.8,1.3c11,3.8,22,7.6,32.9,11.5c1.4,0.5,2.6,0.8,4-0.1c1.4-0.9,2.5-0.5,3.2,1
		c0.3,0.6,0.7,1.2,1.1,1.8c0.4,0.6,0.7,1.1,1.1,1.7c-0.9,0.1-1.7,0.4-2.6,0.3c-0.6-0.1-1.2-0.6-1.8-1.1c-2.3-1.8-3.9-1.8-6.4-0.4
		c-5.6,3.2-11.2,6.2-16.8,9.4c-4.5,2.5-9.1,5.1-13.6,7.6c-0.3,0.2-0.5,0.7-0.8,1.1c0.4,0.2,0.9,0.5,1.3,0.4c0.5,0,1-0.3,1.4-0.6
		c3.8-2.3,7.4-4.6,11.3-6.8c4.7-2.7,9.5-5.2,14.3-7.7c2.1-1.1,2.4-0.9,2.1,1.4c-0.2,1.5,0.5,2.3,1.8,2.1c1.5-0.2,3.1-0.7,4.5-1.4
		c2.5-1.4,5.7-1.4,7.3,0.5c1.1,1.3,2.2,2.8,2.8,4.3c2.7,6.2,4.9,12.5,7.8,18.6c2.1,4.6,5,8.8,7.3,13.4c2.7,5.5,5,11.3,7.6,16.8
		c1,2.2,2.3,4.4,3.9,6.2c0.8,0.9,2.4,1.1,3.7,1.5c0.3,0.1,0.7-0.3,1.1-0.4c-0.3-0.4-0.5-0.7-0.8-1.1c-0.9-1.1-2.1-2-2.7-3.2
		c-1.5-2.9-2.8-5.9-4.1-8.9c-3.5-7.9-7.1-15.8-10.3-23.9c-2.5-6.2-4.6-12.7-6.9-19c-1.5-4.2-3.1-8.2-7.8-10
		c-2.7-1.1-3.9-3.6-4.1-6.4c0-0.8,0.8-1.7,1.3-2.5c0.5,0.5,1,1.1,1.6,1.6c0.5,0.5,1.1,0.9,1.6,1.3c0-0.7,0.2-1.4,0.1-2
		c-2.4-9.2-4.6-18.4-7.4-27.4c-2.4-7.7-5.3-15.2-8.2-22.7c-2.9-7.3-6.3-14.4-10.5-21.1c-0.7-1.1-1-2.5-1.4-3.8
		c2.4-0.5,2.3,1.7,2.9,2.8c3.1,5.3,7.9,9.7,8.4,16.4c0,0.7,0.6,1.3,0.9,1.9c1.5,2.9,3.2,5.7,4.4,8.7c1.4,3.5,2.2,7.2,3.3,10.7
		c1.5,4.5,4.6,8.4,4.4,13.5c-0.1,2,1.4,4,2.1,6c0.6,1.6,1.3,3.2,1.8,4.8c2,5.9,3.8,11.8,5.8,17.7c0.2,0.5,0.5,0.9,0.7,1.3
		c1.6,3.8,3.4,7.6,4.9,11.5c1.5,3.8,2.6,7.7,4,11.5c2.4,6.7,5.7,13,6.6,20.2c0.3,2,0.9,4.6,2.3,5.5c1.5,1,1.8,2.1,2.4,3.4
		c0.6,1.3,1.1,2.6,1.9,3.9c0.3,0.5,1,0.8,1.5,1.2c0-0.7,0.2-1.4,0-2c-1.1-2.5-2.5-4.9-3.5-7.5c-3.5-9.1-6.9-18.3-10.3-27.5
		c-3.7-10.1-7.2-20.2-10.8-30.2c-2.4-6.6-4.9-13.2-7.1-19.8c-2.5-7.7-4.6-15.5-7-23.2c-1-3.1-2.2-6.1-3.6-9c-1.6-3.4-3.5-6.6-5.1-10
		c-1.7-3.8-2.9-7.8-4.7-11.6c-2.5-5.2-5.4-10.3-8.1-15.4c-0.4-0.8-0.6-1.7-0.8-2.6c3-0.9,0.3-2.2,0-2.8c-4.1-7.8-9.6-14.8-12-23.5
		c-0.1-0.4-0.3-0.7-0.6-1.1c-3.9-6-5.5-13-6.8-19.8c-1-5.2-3-9.9-5-14.6c-1-2.2-1.9-4.5-2.5-6.8c-0.2-0.7,0.6-1.7,1-2.6
		c0.7,0.6,1.6,1,1.9,1.7c1.7,3.4,3.3,6.9,4.7,10.5c2.5,6.4,4.9,12.9,7.2,19.4c2.4,6.6,4.7,13.2,7.2,19.8c1.1,3.1,2.4,6.1,3.7,9.1
		c0.2,0.6,0.9,0.9,1.4,1.4c0.1-0.6,0.5-1.3,0.4-1.9c-0.2-1.2-0.5-2.4-0.9-3.5c-1.6-4.4-3.4-8.8-4.9-13.2c-0.3-0.7,0.1-1.7,0.1-2.5
		c0.8,0.4,2,0.5,2.5,1.1c2,3.2,3.8,6.4,4.7,10.2c0.8,3.5,2.9,6.6,4.7,9.8c1.4,2.5,3.1,4.7,4.5,7.2c2.6,4.7,4.4,10,7.7,14.2
		c2.8,3.6,5.1,7.2,6.9,11.3c0.2,0.4,0.4,0.7,0.7,1c4.1,3.4,5.2,8.6,7.6,13c1,1.8,1.7,3.7,2.3,5.6c1.2,3.4,2.3,6.7,3.3,10.1
		c1.9,5.9,3.7,11.8,5.7,17.7c0.7,2.1,1.5,4.2,2.4,6.2c1.6,3.5,3.4,6.9,4.8,10.5c3.2,8.7,6.2,17.4,9.3,26.2c1.6,4.6,3.2,9.2,4.7,13.9
		c0.8,2.5,1.4,5.1,2.2,7.6c1.7,4.9,3.6,9.7,5.2,14.6c0.8,2.3,1.1,4.8,1.8,7.1c0.2,0.6,1,0.9,1.5,1.4c0.2-0.6,0.6-1.3,0.5-1.9
		c-0.9-3.5-1.7-7-2.8-10.3c-4-11.5-8.2-23-12.2-34.5c-3.2-9.4-6.2-18.8-9.5-28.1c-2-5.7-4.6-11.1-6.6-16.8c-2.9-8.3-5.4-16.7-8.2-25
		c-0.6-1.9,0-1.9,1.6-2c2-0.1,3.9-0.7,5.9-1.2c0.5-0.1,0.7-0.9,1.1-1.3c-0.5,0-1.1-0.2-1.6-0.1c-2,0.3-4,0.6-6,1
		c-1.6,0.3-2.4-0.3-3-1.8c-2.3-5.6-5.7-10.7-9-15.8c-4.5-7-9.3-14-13.1-21.5c-4.9-9.8-10-19.4-14.9-29.1c-0.3-0.7-0.6-1.7-0.4-2.3
		c0.9-2,6.8-3.4,8.4-1.8c2.2,2.2,4.6,4.6,5.8,7.3c3.4,7.5,8,14.4,12.4,21.3c1.3,2,3.3,3.6,4.8,5.4c3,3.6,5.7,7.6,9.1,11
		c8.1,8.1,12.6,18.5,17.9,28.3c1.3,2.3,2.2,4.8,3.2,7.3c1.3,3.1,2.5,6.2,3.6,9.4c0.2,0.6-0.1,1.4-0.3,2c-0.4,1.5-1,3-1.3,4.6
		c-0.6,3.4-1.1,6.8-1.7,10.3c-0.4,2-0.6,4,1.7,5c2.4,1,3.9-0.5,4.6-2.4c1.4-3.6,2.6-7.2,3.5-11c0.4-1.8,0.8-3,2.7-3.5
		c1.6-0.4,3.1-1.1,4.5-1.9c0.6-0.3,1.1-1,1.6-1.5c-0.7-0.3-1.5-1-2.1-0.9c-1.4,0.2-2.6,0.9-4,1.3c-0.7,0.2-1.7,0.7-2.2,0.4
		c-2.6-1.7-5.4-3.3-6-6.8c-0.1-0.9-0.5-1.8-0.9-2.6c-3.4-6.8-6.6-13.7-10.3-20.4c-2.5-4.5-5.4-8.9-8.4-13
		c-4.8-6.5-9.9-12.7-14.8-19.1c-1.2-1.5-1.7-3.9-3.1-4.8c-3.5-2.3-4.9-5.9-6.8-9.2c-1.7-3-4.8-5.7-5.3-8.8
		c-0.8-5.4-5.6-7.8-7.5-12.2c-0.1-0.3-0.7-0.3-1-0.6c-1-0.7-1.9-1.4-2.8-2.2c-1.6-1.3-3.2-2.8-4.9-4.1c-4.9-3.4-10.8-5.5-14.8-10.3
		c-0.7-0.8-1.2-1.8-1.7-2.7c0.9,0.3,1.8,0.6,2.7,0.9c0.2,0.1,0.4,0.1,0.6,0.1c4.3,0.2,8.1,1.3,12,3.4c3.1,1.7,5.9,3.3,8.2,6.1
		c2.8,3.6,5.7,7.2,8.9,10.4c2.8,2.9,3,2.7,1.2,6.1c-0.3,0.6-0.2,1.4-0.3,2.2c0.8-0.1,1.8,0,2.2-0.4c1.7-1.9,2.1-0.5,2.7,0.8
		c1.2,2.6,2.1,5.4,3.8,7.7c3.8,5.2,7.9,10.1,11.9,15c1.3,1.6,2.6,3.5,5.3,2.6c0.4-0.1,1.2,0.6,1.7,1.1c6.1,5.3,12.4,10.4,16.4,17.7
		l0,0c3.6,5.3,7.4,10.5,10.6,16c2.4,4.1,4,8.7,6,13c0.4,0.8,1.3,1.3,2,2c0.1-1,0.5-2,0.2-2.8c-1.2-3-2.3-6.1-3.9-8.9
		c-3.3-5.8-6.9-11.5-10.5-17.2c-2.2-3.5-4.3-7.2-7.1-10.2c-3-3.4-6.8-6.1-10.1-9.3c-2.6-2.5-2.2-4.3,1.1-5.6
		c0.5-0.2,0.9-0.8,1.4-1.3c-0.6-0.3-1.2-0.9-1.8-0.9c-2.2-0.3-3.8,1.4-4.4,4.4c-1.6-1.2-3-2.6-4.7-3.7c-7-4.4-11.3-10.9-14.6-18.3
		c-1.5-3.4-3.5-6.6-5.3-9.9c-0.2-0.3-0.3-1-0.1-1.2c1.5-1.2,8.2-0.7,9.8,0.7c3.9,3.2,5.6,7.9,8.2,12.1c2.4,3.9,5.2,7.5,8.2,11
		c3.5,4.1,8.5,6.2,12.9,9.1c4.5,2.9,9.1,6.1,12.5,10.1c5.1,6.1,9.2,12.9,13.7,19.5c1,1.4,1.6,3.1,2.5,4.5c1.9,2.9,3.3,6.4,5.9,8.4
		c2.9,2.1,4.3,4.7,5.7,7.7c2.5,5.7,5.2,11.3,7.7,17c2.5,5.9,5.5,11.6,7.2,17.7c2.6,9.4,4.3,19.1,6.4,28.6c0.2,0.7,0.3,1.4,0.4,2.1
		c0.8,7.6,1.5,15.2,2.3,22.8c0.3,2.3-0.5,4.1-2.5,4.6c-3.3,0.8-4.5,5.4-8.6,4.4c-0.2-0.1-0.6,0.5-0.9,0.7c-1.8,1.2-3.5,2.6-5.4,3.6
		c-2,1-4.4,1.5-6.4,2.5c-5.8,2.9-11.6,5.9-17.3,9.2c-3,1.7-5.6,2.4-8.7,0.5c-1.7-1-3.3-0.5-4.5,1.3c-0.7,1-1.4,2-2.1,3
		c-0.2,0.3-0.1,0.7-0.2,1.1c0.5,0,1,0.1,1.4-0.1c0.5-0.3,0.9-0.8,1.2-1.3c1.1-1.7,2.4-2.1,4.4-1.4c1.5,0.6,3.5,0.7,5.1,0.2
		c4.4-1.4,8.8-2.9,12.8-5c9.8-5,19.4-10.4,29.1-15.7c1-0.5,2-1.6,2.9-1.6C381.9,344.1,380.7,342,380.4,340.2z M175.4,96.3
		c0,0.3-0.2,0.5-0.3,0.8c-0.1-0.3-0.2-0.6-0.2-0.9c0.3-2.1,0.7-4.1,1.1-6.1C175.9,92.1,175.6,94.2,175.4,96.3z M180.6,103.6
		c0-0.1,0-0.1-0.1-0.2c-0.3,0-0.6,0.1-0.9,0c-0.8-0.2-1.5-0.4-2.3-0.6c0.8-0.1,1.6-0.3,2.4-0.3c0.3,0,0.6,0,0.9,0.1
		c0.8,0.1,1.6,0.2,2.3,0.3C182.2,103.2,181.4,103.4,180.6,103.6z M195.8,99.7c-0.1,0.2-0.4,0.5-0.7,0.5c-2,0.2-4.2,0.9-6,0.5
		c-2.5-0.7-4.7-0.5-7.1-0.2c-3,0.5-3.5-0.2-3.2-3.3c0.1-1.2,0.2-2.4,0.3-3.6c0.4-4.1,0.6-3.9,4.6-5.2c3.9-1.3,7.4,0.3,11.1,0.6
		c0.5,0,1.2,1,1.4,1.7c0.4,1.2,0.5,2.6,0.7,3.8C196.5,96.3,196.2,98,195.8,99.7z M198.3,88.7c-0.1-0.5-0.1-1-0.1-1.6
		c0.6,0.1,1.3,0,1.7,0.2c0.5,0.3,1.1,0.9,1.1,1.3c0.3,4.1,1.6,8.2-0.8,12.1c-0.2,0.3-0.6,0.6-0.9,0.8c-0.1,0.1-0.2,0.2-0.2,0.2
		c0.1-0.1,0.2-0.2,0.2-0.2c-0.1-2.5-0.1-5.1-0.3-7.6C199,92.2,198.5,90.5,198.3,88.7z M180.5,140.7c-0.7-0.1-1.4,0-2.1,0
		c0,0.1,0,0.3,0,0.4c-4.2,0-8.3-0.1-12.5,0c-1.3,0-1.6-0.5-0.8-1.3c1.1-1.1,2.3-2.6,3.6-2.8c3.8-0.6,7.6-0.7,11.5-0.9
		c1.8-0.1,2.7,0.6,2.6,2.5C182.7,140.1,182,140.8,180.5,140.7z M203.2,129.2c-2.5-0.1-5.1-0.3-7.6-0.5c-0.2,0-0.6-0.3-0.6-0.5
		c0.1-2,0.2-4,0.3-6.1c0.2-2.8,2.3-2.7,4.3-2.6c2.5,0.1,5.1,0.1,7.6,0.4c3.3,0.4,4.5,3.2,5.9,5.7c0.6,1.2,1.1,2.4,1.7,3.6l0.1,0.2
		l-0.1-0.2C210.9,129.2,207,129.3,203.2,129.2z M215.2,139.3c-0.2,0.5-1.3,0.8-2,0.9c-2.4,0.1-4.9,0-7.3,0c0,0,0,0,0-0.1
		c-2.5,0-5.1,0-7.6,0c-1.5,0-2.8-0.6-2.7-2.2c0-0.5,1.6-1.1,2.6-1.2c4.6-0.3,9.1-0.5,13.7-0.6c0.9,0,2,0.4,2.7,1
		C215.1,137.5,215.4,138.7,215.2,139.3z M220.7,137.9c-0.8,0-1.7,0.1-2.5,0.2c-0.1-1.2-0.5-2.5-0.1-3.5c0.3-0.7,1.7-1.4,2.6-1.4
		c2.7,0.2,4,2,4.4,4.5C223.6,137.8,222.1,137.8,220.7,137.9z M224.8,142.1c-0.6-0.3-1.2-0.7-1.8-1c0.4-0.1,0.8-0.4,1.2-0.3
		c0.7,0.2,1.3,0.6,1.9,0.9C225.7,141.8,225.3,141.9,224.8,142.1z M273.3,311.5c-0.7-0.8-1.3-1.3-1.2-1.5c0.5-1.1,1.1-2,1.7-3
		c0.4,0.5,1.1,1.1,1,1.5C274.6,309.4,274,310.3,273.3,311.5z M284.4,308.2c2.7,1.6,4.6,4,5.7,7c1.8,4.8,3.3,9.6,5.2,14.3
		c1.9,4.8,4.1,9.5,6.1,14.3c0.6,1.4,1,2.9,1.6,4.3l0,0c-2.6-5-5.2-10.1-7.7-15.2c-1.2-2.5-2.2-5.2-3.3-7.8c-0.2-0.4-0.5-0.7-0.6-1.1
		c-1.3-5.7-3.9-10.6-7.9-14.9c-0.2-0.2-0.3-0.7-0.4-1.1C283.5,308.1,284.1,308,284.4,308.2z M263.7,238.9c0.2,0.2,0.4,0.4,0.5,0.7
		c1.5,4.1,2.9,8.2,4.4,12.2c1.2,3.3,2.6,6.6,3.7,10c2.1,6.4,4.1,12.8,6.1,19.2c1.2,3.8,2.2,7.6,3.3,11.4c0.4,1.5-1.6,4.2-3.2,3.9
		c-0.4-0.1-0.9-0.7-1.1-1.2c-3.1-8.9-6.6-17.8-9.1-26.9c-1.9-7-2.7-14.4-3.9-21.6c-0.4-2.2-0.6-4.4-1-7
		C263.4,239.5,263.5,239.2,263.7,238.9z M198,153.6c0-0.4,1-0.9,1.6-1c1.1-0.2,2.2-0.1,3.4-0.2c0,0.1,0,0.1,0,0.2
		c3.4,0,6.7-0.2,10.1,0.1c3.2,0.2,6.2,3.6,6.5,6.8c0.4,5,1.2,9.9,1.3,14.9c0.1,4.7-0.5,9.3-0.6,14c-0.1,8.6-0.6,17.2,0,25.7
		c0.5,6.5,0.4,12.8-0.1,19.2c0,0.5-0.3,0.9-0.4,1.3c-0.3-0.4-0.6-0.8-0.8-1.2c-1.6-4.8-3.6-9.6-4.7-14.5c-0.9-4.1-0.8-8.5-1.3-12.7
		c-0.3-2.3-1.2-4.5-1.6-6.8c-0.8-3.9-1.1-7.9-2.1-11.7c-1.5-5.8-3.1-11.6-5.2-17.2c-1.5-4-4-7.6-5.6-11.5
		C197.7,157.4,197.9,155.4,198,153.6z M220.1,274c0,0.4-0.4,0.8-0.6,1.2c-0.2-0.3-0.4-0.7-0.5-1c-1.2-3.5-2.3-6.9-3.4-10.4
		c-0.3-1-0.6-2-0.6-3c0.1-2.4,0-4.5-3.1-5.1c-0.5-0.1-1.1-1-1.3-1.6c-1.2-3.6-2.2-7.2-3.3-10.8c-0.6-2,0.4-2.9,2.3-3
		c1.1-0.1,2.2,0,3.4,0c1.9-0.1,2.9,0.7,3.5,2.6c1.7,5.4,4.5,10.6,3.7,16.1C220.2,264.3,220.2,269.1,220.1,274z M219.9,245
		c-0.3-0.6-0.6-1.2-0.9-1.8c-0.2-0.4-0.3-0.8-0.4-1.2c0-0.9,0-1.9,0.1-2.8c0-0.1,0.7-0.2,0.8-0.2c0.5,0.9,0.8,1.7,1.1,2.3
		c-0.1,0.8-0.2,1.2-0.2,1.6C220.2,243.6,220.1,244.3,219.9,245z M185.2,153.1c1.1-1.4,8.7-1.5,9.7-0.1c0.7,1.1,0.6,2.8,0.8,4.3
		c0.2,1.3-0.1,2.9,0.4,4c1.7,3.2,3.9,6.2,5.7,9.4c1.1,1.9,2.2,4,2.7,6.1c1.7,8,3.2,16,4.6,24c0.8,4.9,1.5,9.9,1.6,14.8
		c0.1,5.2,2.9,9.3,4.4,13.9c0.6,2,1.3,4.1,1.9,6.1c0.4,1.6-0.6,2.3-2,2.4c-4.7,0.6-9.3,1.1-14,1.6c0-0.1,0-0.2,0-0.2
		c-0.3,0-0.6,0-0.9,0c-1-0.2-2-0.4-3-0.6c1.1-0.2,2.2-0.3,3.2-0.5c4.2-0.7,8.4-1.4,12.6-2.1c0.4-0.1,0.8-0.5,1.2-0.8
		c-0.5-0.1-1.1-0.4-1.6-0.2c-7.5,2-15.1,2-22.8,1.7c-5.7-0.2-11.5,0.4-17.1,0c-8.8-0.6-7.6-1.8-4.8-7.7c2.1-4.4,3.6-8.9,3.4-14.1
		c-0.3-6.3,0.6-12.6,0.9-18.9c0.1-3.4-0.2-6.7,0-10.1c0.5-7.5,1.2-15.2,5-21.9C179.2,160.3,182.3,156.7,185.2,153.1z M189.8,238.6
		c-0.1,0.2-0.3,0.4-0.5,0.7c-0.3-0.2-0.5-0.3-0.7-0.5c0.2-0.1,0.4-0.3,0.7-0.4C189.4,238.4,189.6,238.6,189.8,238.6z M161,270.8
		c0.2-4.1,0.5-8.1,1.2-12.1c1-5.7,2.4-11.4,3.6-17.1c0.2-0.9,0.6-1.7,1-2.6c0.1-0.1,0.5-0.2,0.7-0.1c1.1,0.3,2.3,1,3.4,1
		c1.4,0,2-0.2,1.5,1.7c-1.5,6-2.7,12.1-4,18.2c-1.3,6.6-2.7,13.2-3.9,19.8c-0.7,3.9-1.1,7.9-1.7,11.8c-0.1,0.5-0.4,0.9-0.6,1.3
		c-0.1-0.5-0.2-0.9-0.2-1.4c-0.3-4.3-0.5-8.5-0.8-12.8c0.1,0,0.2,0,0.2,0C161.4,275.9,160.9,273.4,161,270.8z M156.3,201.6
		c-0.2,0.4-0.5,0.8-0.7,1.2c-0.1-0.4-0.3-0.7-0.3-1.1c-0.5-5.6-1.1-11.2-1.6-16.8c-0.4-4.8-0.7-9.5-1.1-14.3c0.1,0,0.2,0,0.4,0
		c0-2.1-0.2-4.3,0.1-6.4c0.1-0.9,0.9-2,1.6-2.7c1.9-1.8,2.1-2.8,0.6-5c-0.5-0.7-0.7-1.5-1-2.3c0.6-0.1,1.3-0.5,1.7-0.3
		c0.9,0.4,1.7,1,2.3,1.8c0.3,0.5,0.1,1.4,0.1,2.1c-0.2,6.6-0.8,13.2-0.5,19.8c0.3,7.7-0.6,15.2-1.3,22.8
		C156.4,200.8,156.4,201.2,156.3,201.6z M157,225.3c-0.1-0.3-0.4-0.7-0.4-1c0-0.2,0.3-0.4,0.5-0.6c0.1,0.3,0.2,0.5,0.3,0.8
		C157.3,224.8,157.2,225.1,157,225.3z M157.3,221.8c-0.2-0.9-0.5-1.9-0.7-2.7c0.7-7.8,1.3-15.4,2.2-23c1.3-12.1,1.6-24.2,1.5-36.3
		c0-1.2,0.2-2.4,0.4-3.6c0.1-0.5,0.7-0.9,1-1.3c0.2,0.5,0.6,1,0.6,1.5c-0.1,1.9-0.4,3.8-0.5,5.8c-0.2,4.5-0.2,8.9-0.3,13.4
		c-0.1,4-0.2,8.1-0.3,12.1c-0.1,1.7-0.3,3.5-0.4,5.2c-0.8,8.7-1.5,17.4-2.4,26.1C158.3,220,157.6,220.9,157.3,221.8z M160.7,258.7
		c-0.1,0.3-0.2,0.6-0.2,0.9c-0.2-0.3-0.5-0.7-0.5-1c-0.2-2.4-0.4-4.9-0.6-7.3c0.1,0,0.1,0,0.2,0c-0.3-5.8-0.7-11.6-0.8-17.4
		c-0.1-2.9,0.3-5.9,0.6-8.8c0.9-9,1.9-18,2.8-27c0.7-6.4,1.4-12.7,1.8-19.1c0.2-3.4-0.2-6.8-0.3-10.2c0-1.4,0-2.8,0.1-4.3
		c0.2-2.5,0.6-5,0.8-7.6c0.3-3,1.3-4.1,4.4-4.2c3.3-0.2,6.5-0.5,9.8-0.7c2.7-0.1,3.1,0.6,1.9,3c-0.1,0.3-0.2,0.6-0.5,0.8
		c-3.9,2.9-5.6,7.2-7.2,11.5c-1.1,2.9-2,6.1-2.2,9.2c-0.5,7.4-0.5,14.8-0.7,22.2c0,0.2,0.1,0.4,0.1,0.6c-1.4,4.1-0.3,8.4-0.6,12.6
		c-0.6,7.3-2.8,14.1-5.7,20.7c-1,2.3-1.8,4.8-0.2,7.3c0.4,0.6,0.1,1.6-0.1,2.4C162.7,247.7,161.7,253.2,160.7,258.7z M145.4,315.1
		c1.1-2.6,2.4-5.2,3.9-7.6c0.9-1.4,2.3-2.5,3.6-3.7c0.2-0.2,0.9,0.1,1.4,0.1c-0.1,0.4-0.2,0.9-0.5,1.2c-1.1,1.6-2.4,3.1-3.3,4.8
		c-1.3,2.5-2.5,4.8-0.6,7.9c0.9,1.5,0.5,4.2,0.1,6.2c-0.2,1-1.6,1.7-2.4,2.6c-0.1-0.2-0.3-0.3-0.4-0.5c-1-0.1-2.1-0.1-3-0.4
		c-0.7-0.3-1.6-1.3-1.5-1.8C143.4,321,144.2,318,145.4,315.1z M137.9,318.4c0.6-0.1,1.2-0.1,1.8-0.1c0.5,0,1.1,0,1.6,0
		c-0.1,0.3,0,0.7-0.2,0.8c-0.4,0.4-0.9,0.6-1.2,0.8c-0.8-0.3-1.4-0.4-2-0.6c-0.3-0.1-0.7-0.3-1-0.4
		C137.2,318.7,137.5,318.4,137.9,318.4z M178.2,351.6c-0.2-0.3-0.6-0.6-0.7-0.9c-0.6-2.9-1.2-5.8-1.6-8.7c-0.3-2.3-0.2-4.7-0.5-7
		c-0.4-3.3-3.5-5.5-7.4-5.2c-0.9,0.1-1.8,0.2-2.7,0.3c-1.7,0.2-3-0.3-4.1-2c-1.4-2.1-3.7-1.8-3.9,0.6c-0.4,4.4-4.3,6.2-5.9,9.6
		c-0.2,0.5-1.7,0.7-2.5,0.6c-3.1-0.4-6.2-1-9.4-1.3c-2-0.2-4,0.3-6.1,0.3c-1.8,0-3.8,0.2-5.4-0.5c-1.3-0.6-3-2.5-2.9-3.7
		c0.3-3.8,1.1-7.6,2.2-11.3c0.7-2.3,2.6-3.6,5.2-3.6c1.1,0,1.7,0,0.6,1.2c-1,1.1-0.1,1.6,1,1.7c1.3,0.1,2.7,0,4,0.2
		c2.5,0.4,2.9,1,2.3,3.5c-0.6,2.3-0.2,2.7,2.1,2.7c1,0,2-0.1,3,0c4.4,0.5,5.6-0.4,7.1-4.4c0.5-1.3,1.5-2.4,2.6-3.4
		c0.9-0.9,1-1.5-0.1-2.1c-0.4-0.3-0.9-0.4-1.3-0.8c-2.8-2.3-2.6-6.3,0.3-8.6c1.3-1,1.8-0.3,2.1,0.9c0.5,1.8,0.9,3.7,3.5,3.3
		c0.2,0,0.5,0.2,0.8,0.4c0.5,0.4,1,0.8,1.5,1.2c0.2-0.7,0.6-1.5,0.5-2.2c-0.6-6,0.5-11.5,3.9-16.6c-0.3-1-1.1-2-1-2.9
		c0.9-8.3,1.7-16.6,3-24.9c0.8-5.3,2.2-10.6,3.3-15.8c0.1-0.5,0.5-0.9,0.7-1.3c0.2,0.5,0.5,1,0.6,1.5c0.5,6.5,0.7,13,1.3,19.5
		c0.5,5.8-2.6,10.4-4.5,15.3c-0.6,1.5-1.8,2.8-2.4,4.3c-0.4,1.1-0.3,2.5-0.4,3.7c4.3-5,7-10.9,8.7-17.1c0.9-3.5,0.5-7.5,0.3-11.2
		c-0.4-6.7-1.1-13.4-1.5-20.1c-0.1-1.8,0.3-3.7,0.6-5.4c0.1-0.5,0.8-1,1.2-1.5c0.4,0.5,1.2,1,1.2,1.5c0.2,2,0.3,4.1,0.3,6.1
		c0,4.8,0,9.6,0,14.4c-0.1,6,0.1,12.1-0.7,18c-0.4,3-2.8,5.8-4.2,8.7c-2.2,4.7-4.3,9.5-6.3,14.2c-0.3,0.6,0.1,1.5,0.1,2.2
		c0.6-0.3,1.3-0.5,1.7-1c1.8-1.8,3.5-3.7,5.4-5.5c0.3-0.3,0.9-0.4,1.3-0.6c0.1,0.5,0.4,1,0.3,1.4c-0.8,3.4-1.5,6.7-4.5,9.1
		c-5,4.2-5.6,10.2-6.2,16c-0.1,0.5,0.1,1.1,0.3,1.5c0.4,0.7,1.1,1.3,1.6,1.9c0-0.7,0.1-1.4,0.1-2.2c0.2-2.3,0.4-4.6,0.8-6.9
		c0.1-0.6,1.1-1,1.8-1.4c0.3-0.2,0.8-0.1,1.2-0.2c1.7-0.4,3.8-0.4,4.9-1.4c0.9-0.9,0.3-3.1,0.5-4.7c0.3-1.8,0.8-3.5,1.2-5.3
		c0.1,1.7,0.3,3.4,0.2,5c-0.1,4.7-0.6,9.4-0.4,14c0.2,6.2,0.9,12.4,1.4,18.6c0.2,2.2,0.2,4.5,0.3,6.7
		C178.5,350.8,178.3,351.2,178.2,351.6z M177.3,288.6c-0.4,4.3-2.7,7-5.6,9.4c-0.2,0.2-0.7,0.2-1,0.2c0-0.3,0-0.6,0.1-0.9
		c1.5-3,2.9-6,4.5-9c0.3-0.7,1-1.1,1.6-1.7C177.1,287.4,177.2,288.2,177.3,288.6z M173.6,312.7c-0.2,0.7-0.8,1.5-1.5,1.8
		c-0.5,0.3-1.3-0.1-2-0.1c0.2-0.8,0.2-1.8,0.7-2.4c0.8-0.8,1.9-1.4,2.8-2C173.6,311,173.8,311.9,173.6,312.7z M202.2,269.4
		c0,5-0.3,10-0.5,15c-0.1,3.1-0.2,6.1-0.4,9.2c-0.3,7.1-0.8,14.1-1,21.2c-0.1,2.8,0.5,5.7,0.5,8.5c0.1,4.2-0.2,8.3-0.1,12.5
		c0.1,3.6,1,7.2,1,10.8c-0.3,19.1-0.7,38.1-1.1,57.2c-0.1,3.3-0.4,3.6-3.8,3.7c-0.9,0-1.8,0-2.8,0c-0.9,0-1.8,0-2.8,0v0.1
		c-1.9,0-3.9-0.1-5.8,0c-2.1,0.1-2.9-0.8-3.3-2.9c-1.9-9.1,0.1-18.3-0.5-27.5c-0.7-11.4-1.2-22.8-1.8-34.2c-0.1-1.4-0.1-2.9-0.1-4.3
		c-0.1-13.8-0.3-27.5-0.4-41.3c-0.1-9.8-0.1-19.5-0.1-29.3c0-7.9,0-15.9,0.1-23.8c0-3.6,0.8-4.2,4.4-4.1c6.4,0.2,12.8,0.3,19.2,0.7
		c1,0.1,2.4,1,2.7,1.8c1.5,5.1,3.2,10.2,3.7,15.4c0.5,5-0.2,10.1-0.4,15.2c0,1.1-0.1,2.2,0,3.3c0.4,4-0.4,5.5-4.1,7.2
		c-0.2,0.1-1.1-0.5-1.1-0.7c0-3,0.2-5.9,0.3-8.9c0.3-9,0.6-17.9,0.9-26.9c0-0.8,0.1-1.7-0.1-2.4c-0.3-0.8-1-1.4-1.6-2.1
		c-0.4,0.8-1.3,1.8-1.1,2.5c1,3.8-0.2,7.5-0.3,11.2C201.8,260.9,202.2,265.2,202.2,269.4z M209.5,301.6c-0.1,1-1.2,1.8-1.9,2.7
		c-0.7-0.8-1.8-1.5-2.2-2.5c-1.9-5-1-10,0.2-15c0.2-0.8,1.2-1.4,1.9-2c0.5,0.8,1.4,1.5,1.5,2.3c0.3,2.7,0.3,5.5,0.4,8.2
		c0,0,0.1,0,0.1,0C209.6,297.4,209.8,299.5,209.5,301.6z M203.9,305.7c0.2-0.3,1.7,0.1,2.4,0.5c1.2,0.7,1.4,4,0.4,5
		c-0.9,0.9-1.9,1.8-2.8,2.7c-0.1,0.1-0.7-0.2-0.8-0.4c-0.2-1.4-0.3-2.8-0.5-4.8C202.9,308.1,203.2,306.7,203.9,305.7z M214.9,397.3
		c-0.5-0.3-1.2-0.6-1.3-1c-0.5-1.3-1-2.7-1.1-4.1c-0.2-2.2,0-4.5-0.1-6.7c-0.2-5.9-0.6-11.8-0.8-17.7c-0.1-4.7,0.1-9.4,0.2-14
		c0.2-5.6,0.7-11.2,0.7-16.8c0-2.2-0.9-4.4-1.4-6.6c-0.2-1-0.2-2-0.3-3c-0.3,1.1-0.8,2.3-0.9,3.4c-0.1,5.4-0.1,5.5-4.9,3.7
		c-0.9-0.3-1.6-1.5-2-2.5c-0.4-0.9-0.2-2-0.2-3c0-1,0.1-2,0.2-3.4c0-0.6,0.1-1.5,0-2.4c-0.8-4.3,2.1-6.7,4.5-9.4
		c0.3-0.4,1-0.4,1.6-0.6c0.2,0.5,0.5,1.1,0.5,1.6c0.1,3,0,5.9,0.1,8.9c0,0.6,0.6,1.2,0.9,1.7c0.3-0.6,0.9-1.1,0.9-1.7
		c0-5.9-0.1-11.8-0.2-17.7c0-1.7-0.3-3.5-0.3-5.2c-0.1-11.9-0.2-23.8-0.2-35.7c0-1.4,0.6-2.9,0.9-4.3c0.3,1.4,0.8,2.8,0.9,4.2
		c0.4,6.1,0.8,12.2,1,18.3c0.1,3.7-0.4,7.5-0.2,11.2c0.2,4.8,0.8,9.6,1.2,14.4c0.2,2,0.4,4.1,0.4,6.1c0,5.1-0.3,10.2-0.3,15.2
		c0,7.9,0.2,15.8,0.3,23.8c0,0.4,0.1,0.8,0.1,1.2c-0.9,5.1-1.2,10.3-0.5,15.5c0.5,3.6,0.6,7.3,0.8,10.9c0.2,4.7,0.2,9.4,0.2,14
		C215.6,396.3,215.2,396.8,214.9,397.3z M216.6,308.3c0.1-3.9,0-7.7,0-11.6c0,0-0.1,0-0.1,0c-0.3-6.6-0.7-13.2-1-19.8
		c-0.1-1.4,0.4-2.8,0.7-4.2c0.5,1.2,1.1,2.3,1.4,3.6c1.9,7.5,3.2,15.1,3.2,22.9c0,3,0.4,6,0.5,9.1c0,1.2,0.3,2.8-1.9,2.7
		C217.6,310.8,216.6,310.3,216.6,308.3z M237.6,333.6c0.2-0.6,0.8-1.2,1.2-1.7c0.7,0.6,1.7,1,2.1,1.8c0.6,1.3-1.3,4.4-2.7,4.5
		c-0.4,0-0.8-1.1-1-1.3C237.3,335.4,237.3,334.4,237.6,333.6z M236.7,342.5c0-0.6,0.5-1.7,0.9-1.7c0.7-0.1,1.6,0.3,2.1,0.8
		c2,2,1.1,9.6-1.2,11.4c-0.4,0.3-1.1,0.4-1.6,0.7c-0.1-0.6-0.3-1.1-0.3-1.7c-0.1-0.5,0-1,0-1.5c0,0,0,0,0.1,0
		C236.6,347.7,236.6,345.1,236.7,342.5z M233.7,315.7c0.3,2,0.7,3.9,1,5.9c0.4,2.2,1,4.3,1.2,6.5c0.1,1.3-0.3,2.7-0.4,4.1
		c-0.4,4.2-0.8,8.4-1,12.7c-0.3,5.5-0.3,10.9-0.6,16.4c-0.1,1.2-0.4,2.4-0.9,3.5c-0.5,1.2-1.6,1.2-1.9,0c-0.4-1.4-0.4-3-0.3-4.5
		c0.2-2.4,0.6-4.9,0.8-7.3c0.1-0.5-0.3-1.1-0.4-1.7c-0.3,0.3-0.6,1-0.9,0.9c-0.5,0-1-0.4-1.5-0.7c-1.3-1-2.6-2.1-4-2.9
		c-2.1-1.2-4.1-0.8-5.7,1.1c-0.3,0.4-1,0.4-1.6,0.6c-0.1-0.5-0.3-0.9-0.4-1.4c0-2.1-0.2-4.3,0-6.4c0.1-1.8,0.7-3.1,3.2-2.2
		c2.5,0.9,3.8-0.5,3.1-3.2c-0.5-1.9-1.3-3.7-1.4-5.6c-0.1-2.8-1.2-2.6-2.9-1.3c-1.1,0.8-1.5,0.1-1.5-0.9c0-5,0-10,0.1-15
		c0-0.4,0.5-0.8,0.7-1.2c0.4,0.3,1,0.4,1.2,0.8c0.7,1,1.2,2.1,1.8,3.1c0.2,0.3,0.9,0.6,1.3,0.4c0.3-0.1,0.7-0.7,0.7-1.2
		c0.2-5,0.7-10,0.6-15c-0.1-6-0.8-12-1.2-18c-0.7-11.8-1.6-23.6-0.5-35.5c0.1-1.5,0.1-3.1,0.1-4.6c0.2-8.8,0.6-17.5,0.6-26.3
		c0-10-0.4-20-0.5-30c-0.1-6.1,0.1-12.2,0-18.3c0-2.9-0.5-5.9-0.6-8.8c0-0.9,0.6-1.7,0.9-2.6c0.4,0.8,1.2,1.6,1.2,2.5
		c0.4,9.8,0.8,19.5,0.9,29.3c0.1,7-0.4,14.1-0.4,21.1c0,2,0.7,4,0.7,6.1c0.1,9.2,0.1,18.5,0.2,27.7c0.2,13.9,0.3,27.7,0.6,41.6
		c0.2,10,0.7,19.9,0.5,29.9c-0.1,6-1.5,11.9-2.2,17.9c-0.1,0.9,0.3,1.8,0.4,2.8c0.7-0.3,1.4-0.7,2.2-1c0.8-0.3,1.9-0.9,2.5-0.7
		c0.6,0.3,1.1,1.5,1.1,2.3c0,3.1-0.4,6.3-0.4,9.4c0,0.8,0.6,1.6,0.9,2.3c0.5-0.7,1.3-1.3,1.3-2c0.3-5.7,0.5-11.5,0.8-17.3
		C233.4,324.7,233.6,320.2,233.7,315.7z M218,335.9c0.3-1.1,1.2-2.1,1.8-3.2c0.5,0.9,1,1.7,1.8,3c-0.9,0.8-1.6,1.4-2.3,2
		C218.8,337.2,217.9,336.4,218,335.9z M229.1,286.3c0.3,0.7,0.7,1.4,0.8,2.1c0.9,5.5,1.6,11,2.4,16.5c0,0.2,0,0.4,0.1,0.6
		c0.1,1.3,0.2,2.6,0.3,3.9c-0.5-1.2-1.3-2.4-1.5-3.7c-0.9-3.9-1.5-7.9-2.3-11.8c0.2,0,0.3,0,0.5-0.1c-0.2-1.8-0.4-3.6-0.5-5.4
		C228.9,287.7,229,287,229.1,286.3z M229.4,313.4c0-0.3,0.2-0.6,0.3-0.8c0.2,0.3,0.6,0.6,0.6,0.9c0.2,1.7,0.1,3.5,0.3,5.2
		c0.3,2.5,0.8,5,1.3,7.7c-0.3,1.3-0.3,3-1,4.3c-0.4,0.8-1.8,1.2-2.8,1.7c-0.4-0.8-0.8-1.7-1.1-2.5c0-0.1,0-0.2,0-0.3
		C229.5,324.4,229.1,318.9,229.4,313.4z M231.2,244.3c0-0.3,0.2-1,0.1-1.7c-0.1-2.2,0.9-3.2,3.1-3c1.7,0.2,3.3,0.3,5,0.4
		c-1.2,1.1-2.4,2.3-3.7,3.4c-1,0.8-2.1,1.5-3.2,2.2C231.3,246.4,230.8,246.2,231.2,244.3z M249.4,241.5c-5.1,4.2-10.3,8.3-15.4,12.5
		c-0.3,0.3-0.7,0.4-1.1,0.6c-0.4,0.2-0.9,0.3-1.3,0.5c0-0.6-0.2-1.3,0-1.7c1.1-1.7,2-3.6,3.5-4.9c3.3-2.7,6.8-5.2,10.3-7.6
		c0.9-0.6,2-0.9,3-1.3c0.7,0.3,1.2,0.6,1.7,0.8C249.9,240.7,249.8,241.2,249.4,241.5z M257.2,232.1c0.5,0.7,1.3,1.4,1.4,2.1
		c0.2,3-2.4,1.6-3.9,2.5c-0.4-0.2-0.9-0.4-1.4-0.6C254.6,234.8,255.9,233.4,257.2,232.1z M255.9,226.7c0.5,1.8-0.3,2.5-1.7,3.3
		c-2.8,1.6-5.5,3.4-8.2,5.2c0.1-1.9,0.3-3.8,0.4-5.7c0.3-3.6-0.6-4.9-4.3-5.6c-0.8-0.2-1.6-0.2-2.4-0.3c-0.2,0-0.4-0.3-0.7-0.5
		c0.3-0.1,0.5-0.3,0.8-0.3c4.3,0.1,8.5,0.2,12.8,0.3C255.2,223.1,255.4,224.9,255.9,226.7z M243.8,231.2c0.1,1.8-1.6,2.1-3.1,2.1
		c-1.4,0.1-2.8,0.2-4.2,0.4c-3.2,0.4-3.5,0.2-3.9-3.4c0.7-1.3,1.2-3.4,2.2-3.8c2.4-0.7,5.2-1,7.6-0.5
		C243.3,226.2,243.8,229.4,243.8,231.2z M251.2,206.1c0.4,1.4,0.8,2.8,1.2,4.1c-0.2,0-0.5,0.1-0.5,0.1c-0.4-1.2-0.9-2.5-1.3-3.7
		C250.6,206.5,250.8,206.4,251.2,206.1z M229.4,153.5c0.3-0.4,1.2-0.5,1.9-0.7c-0.1,0.6-0.3,1.1-0.3,1.7c-0.1,3.4,0.7,6.6,2.5,9.6
		c1.5,2.4,2.6,5,3.7,7.6c1.8,4.1,3.4,8.3,5.1,12.4c1,2.4,2,4.6,0.7,7.3c-0.7,1.4-0.2,2.9,0.8,4.5c1.5,2.2,2.3,4.7,3.3,7.2
		c1.6,4.3,3.1,8.6,4.6,12.9c0.3,0.9,0.6,1.8,0.7,2.6c0.3,1.5-0.3,2.4-1.9,2.4c-6.2,0.1-12.4,0.3-18.6,0.4c-0.6,0-1.1,0.2-1.7,0.4
		c0.5,0.4,1,0.8,1.5,1.1c0.5,0.3,1,0.4,1.5,0.6c-0.5,0.3-1.1,0.6-1.4,1c-0.7,0.9-1.4,1.9-1.7,2.9c-0.4,1.3-0.4,2.8-0.6,4.2
		c-0.3,2.5,0.5,3.8,3,3.8c4.4,0.1,8.9-0.2,13.3-0.4c-3.9,0.8-7.8,1.9-11.8,2.3c-5.1,0.5-5.3,0.4-5.4,5.5c0,1.1-0.4,2.2-0.5,3.3v0
		c0-11.3,0.1-22.6,0-33.9c-0.1-9.2-0.5-18.3-0.5-27.5c0-7.4,0.5-14.9,0.8-22.3c0.1-2-0.3-4.1-0.2-6.1
		C228.3,155.4,228.8,154.3,229.4,153.5z M233.6,134.6c-0.1-0.2,0.4-0.9,0.5-0.8c0.5,0.2,1.3,0.4,1.3,0.7c0.2,1.3,0.1,2.6,0.1,3.9
		C234.9,137.1,234.2,135.8,233.6,134.6z M236.3,141.3c-0.2-0.9-0.4-1.9-0.7-2.8c0.4,0.9,0.7,1.7,1.1,2.6
		C236.7,141.1,236.4,141.2,236.3,141.3z M322.5,264c0.4,0.3,0.6,0.6,0.9,0.8c-0.3,0.2-0.6,0.4-0.9,0.5c-0.3,0-0.7-0.2-1.1-0.3
		C321.7,264.7,322.1,264.4,322.5,264z M323.2,270.2c0.2,0.1,0.3,0.7,0.6,1.6c-1.1,2.5-2.4,5.2-3.7,7.9c-0.2,0.3-0.5,0.5-0.8,0.8
		c-0.1-0.4-0.4-0.8-0.4-1.3c0.1-2.1,0.2-4.1,0.3-6.2C319.2,271.3,321.4,269.6,323.2,270.2z M243.4,156.3c0.8,0.3,1.6,0.5,2.3,1
		c2.9,1.9,5.8,3.9,8.7,6c1.3,0.9,2.6,2,3.8,3c0.3,0.2,0.4,0.7,0.6,1.2c-0.3,0.3-0.6,0.6-0.9,0.7c-2.5,1.2-5.1,2.5-7.7,3.6
		c-0.5,0.2-1.8-0.2-2-0.7c-1.8-4.1-3.4-8.3-5-12.4C243,158,243.3,157.1,243.4,156.3z M238.6,136.2c0.4-1.4-0.1-3.7,2.4-4.1
		c1.4-0.2,4.3,2.7,4.4,4.4c0,0.4-0.7,1-1.1,1.1c-0.9,0.3-2,0.3-2.9,0.7C239.1,139.6,238.6,139.3,238.6,136.2z M245.3,145.9
		c-1.9-0.2-3.5-0.4-3.6-2.6c0-2.3,1-3.4,2.9-3.3c1.7,0.1,3.6,1.7,3.4,3.2C247.8,144.8,247,146,245.3,145.9z"/>
	<path d="M233.6,315c0,0.2,0,0.3,0,0.5c-0.1-0.2-0.1-0.4-0.2-0.6C233.5,314.9,233.6,314.9,233.6,315z"/>
	<path d="M146.6,162.9c-0.2,0.2-0.4,0.4-0.6,0.6c0.1-0.3,0.1-0.5,0.2-0.8C146.4,162.8,146.5,162.9,146.6,162.9z"/>
	<path d="M295,199.1L295,199.1c0.2,0.2,0.4,0.4,0.6,0.6c0.1,0,0.2,0,0.2,0.1c-0.1,0-0.2,0-0.3-0.1
		C295.4,199.5,295.2,199.3,295,199.1z"/>
	<path d="M293.2,197.9L293.2,197.9L293.2,197.9z"/>
	<path d="M176.7,88.1c0.2-0.2,0.4-0.4,0.6-0.6c0.1-0.1,0.1-0.1,0.2-0.2c-0.1,0.1-0.1,0.1-0.2,0.2C177.1,87.7,176.9,87.9,176.7,88.1
		L176.7,88.1z"/>
	<path d="M252.7,233.4c-0.2,0.2-0.4,0.4-0.6,0.6c-0.1,0.1-0.1,0.1-0.2,0.2c0.1-0.1,0.1-0.1,0.2-0.2
		C252.3,233.8,252.5,233.6,252.7,233.4L252.7,233.4z"/>
	<path d="M262.5,236.5L262.5,236.5c-0.2-0.2-0.4-0.4-0.6-0.6c-0.2-0.4-0.4-0.8-0.6-1.2l0,0c0.2,0.4,0.4,0.8,0.6,1.2
		C262.1,236.1,262.3,236.3,262.5,236.5z"/>
	<path d="M246.6,196c0.2,0.4,0.4,0.8,0.6,1.2c0.1,0.2,0.3,0.4,0.4,0.6c0-0.1,0-0.2,0-0.2c-0.1-0.1-0.3-0.2-0.4-0.4
		C247,196.8,246.8,196.4,246.6,196c-0.1-0.1-0.1-0.1-0.2-0.2C246.5,195.9,246.5,195.9,246.6,196z"/>
	<path d="M162.6,295.3L162.6,295.3c0.1,0.1,0.1,0.1,0.2,0.2C162.7,295.5,162.6,295.4,162.6,295.3z"/>
	<path d="M224.3,153.7c-0.1-0.1-0.3-0.3-0.4-0.3c-0.2,0-0.3,0.2-0.4,0.3c0.1,0.1,0.3,0.3,0.4,0.3C224,154,224.2,153.8,224.3,153.7z"
		/>
	<path d="M177,299.7c0-0.2,0.1-0.4,0.1-0.5c0-0.1-0.2-0.1-0.3-0.2c0,0.1-0.1,0.2,0,0.3C176.9,299.4,176.9,299.6,177,299.7z"/>
	<path d="M210.9,376.2c0-0.1-0.1-0.1-0.1-0.2c0,0.1-0.1,0.2-0.1,0.2c0.1,0.1,0.2,0.2,0.2,0.2C210.8,376.4,210.8,376.3,210.9,376.2z"
		/>
	<path d="M210.9,384.2c0-0.1-0.1-0.1-0.1-0.2c-0.1,0.1-0.2,0.1-0.2,0.2c0.1,0.1,0.1,0.2,0.2,0.3
		C210.9,384.3,210.9,384.3,210.9,384.2z"/>
	<path d="M236.1,223.4c0.1,0,0.2-0.1,0.3-0.1c-0.1-0.1-0.1-0.1-0.2-0.1c-0.1,0-0.2,0.1-0.3,0.1C236,223.3,236,223.4,236.1,223.4z"/>
	<polygon points="233.5,312.2 233.4,312.1 233.3,312.3 	"/>
	<polygon points="226.6,157 226.6,157.2 226.7,157.1 	"/>
	<polygon points="228.6,147.9 228.5,147.8 228.5,148 	"/>
	<polygon points="322.3,268 322.2,268.1 322.4,268.2 	"/>
	<polygon points="221.1,130.8 221.3,130.8 221.1,130.6 	"/>
	<path d="M366.1,299c-0.1-1-0.3-1.9-0.4-2.9c0.6,0.8,1.3,1.6,1.6,2.5c1.4,3.5,2.8,7,4,10.5c0.2,0.5-0.2,1.3-0.2,1.9
		c-0.5-0.4-1.1-0.8-1.5-1.3c-0.9-1.4-1.8-2.9-2.7-4.3c-3.6-5.7-7.3-11.4-10.9-17.2c-2.5-4-5.1-8-7.6-12.1c-0.9-1.4-1.3-3.1-2-4.7
		l0,0c0.6-0.1,1.2-0.1,1.8-0.2c4.6-0.7,5.8-3.6,3.1-7.4c-0.8-1.1-2-2.1-2.7-3.3c-0.4-0.7-0.1-1.7-0.1-2.6c0.7,0.3,1.7,0.4,2.1,1
		c0.9,1.2,1.8,2.5,2.3,4c2.9,8.6,7.3,16.5,10.5,24.9c0.6,1.7,1,3.5,1.4,5.3c0.1,0.3-0.1,0.7-0.2,1.1c-0.4-0.3-1-0.5-1.1-0.8
		c-1.7-7.8-7.4-13.8-9.4-21.4c-0.1-0.4-0.8-0.6-1.2-0.9c-0.8,1.1-1.6,2.2-2.3,3.4c-0.1,0.3,0.3,0.9,0.6,1.4
		c4.3,7.3,8.6,14.6,13,21.8C364.7,298.2,365.5,298.5,366.1,299c0.1,0.1,0.1,0.1,0.2,0.2C366.2,299.1,366.2,299.1,366.1,299z"/>
	<path d="M234.8,294.4c0.1-0.1,0.4-0.7,0.7-1.3c0.3,0.5,0.9,1.1,1,1.6c1.2,7.1,2.3,14.1,3.3,21.2c0.4,2.8,0.3,2.7,3,1.3
		c8.8-4.6,17.6-9.1,26.4-13.6c0.5-0.3,1.2-0.2,1.8-0.2c-0.4,0.4-0.8,0.9-1.3,1.1c-8.2,4.5-16.5,9-24.7,13.5c-1,0.5-1.8,1.3-2.8,1.9
		c-2.9,1.9-3.9,1.4-4.2-2.1c-0.2-1.8-0.2-3.7-0.5-5.5C236.7,306.6,235.8,300.8,234.8,294.4z"/>
	<path d="M314.8,262.1c-0.1,0.2-0.2,0.6-0.4,0.7c-0.3,0.1-0.8,0.1-1.1-0.1c-0.4-0.3-0.7-0.8-0.9-1.2c-1.9-4.9-3.6-9.9-5.7-14.8
		c-1.5-3.5-3.6-6.7-5.1-10.2c-1.8-4-5.1-6.7-7.7-10.1c-0.5-0.6-0.6-1.4-0.9-2.1c0.8,0.3,1.8,0.3,2.4,0.8c4.6,3.9,8,8.8,10.4,14.2
		c3.3,7.2,5.9,14.7,8.8,22.1C314.7,261.6,314.8,261.8,314.8,262.1z"/>
	<path d="M340.6,279.4c-0.1,5.1-3.5,8.3-8.8,8.9c-3.2,0.4-6.1-0.1-8.6-2.1c-0.5-0.4-0.7-1.3-1-1.9c0.6,0.1,1.4,0,1.9,0.3
		c2.8,1.5,5.5,2.1,8.7,0.8c3.2-1.3,5.9-4.2,5.6-7.6c-0.3-3.4-1.2-6.6-4.2-8.8c-0.9-0.7-1.4-2-2-3c1.2,0.4,2.9,0.4,3.6,1.2
		C338.9,270.6,341.3,274.3,340.6,279.4z"/>
	<path d="M348.2,250.3c-0.7,0-1.4,0.2-1.6,0c-2.5-2.3-4.8-2.5-6.9,0.4c-0.2,0.2-0.8,0.3-1.1,0.2c-0.2-0.1-0.5-0.8-0.4-0.9
		c1.1-1.3,2-3,3.4-3.6c1.6-0.8,5.8,1.3,6.3,2.6C348,249.2,348,249.5,348.2,250.3z"/>
	<path d="M285.6,245.8c-1.3,1.2-2.5,3.3-3.9,3.4c-1.5,0.1-3.2-1.6-4.7-2.6c-0.1,0,0.1-0.6,0.2-0.8c0.2-0.1,0.7-0.2,0.8-0.1
		c2.4,3.1,4.3,1.3,6.2-0.5c0.2-0.2,0.7,0,1.1,0C285.4,245.4,285.5,245.6,285.6,245.8z"/>
	<path d="M342.2,256.6c0.6-0.1,1.2-0.1,1.8-0.2c0.5,0,1.1,0,1.6,0c-0.4,0.5-0.6,1.3-1.1,1.6c-0.7,0.3-1.6,0.4-2.4,0.2
		c-0.8-0.2-1.5-0.7-2.3-1.1c0.7-0.3,1.5-0.6,2.2-0.9C342.1,256.3,342.1,256.4,342.2,256.6z"/>
	<path d="M333.4,310.2c-0.1,0.1-0.1,0.2-0.2,0.2c-0.1,0-0.2-0.1-0.2-0.1c0.1-0.1,0.2-0.2,0.3-0.4
		C333.3,310.1,333.4,310.1,333.4,310.2z"/>
	<polygon points="248.4,186.3 248.6,186.2 248.6,186.4 	"/>
	<polygon points="349.3,264.3 349.4,264.5 349.2,264.4 	"/>
	<polygon points="329.3,224.2 329.2,224.1 329.3,224 	"/>
	<path d="M315.9,220.6c0,0.2-0.1,0.4-0.1,0.6c0,0.1-0.1,0.1-0.2,0.1C315.7,221,315.8,220.8,315.9,220.6L315.9,220.6z"/>
	<path d="M346.5,271.4L346.5,271.4L346.5,271.4z"/>
	<path fill="#FFFFFF" d="M133.6,352.4c3.9-0.9,8-0.9,11.9,0.2c11.6,1.7,19.8,8.8,26.4,18.5c5.3,7.8,3.9,17.1-1.1,24
		c1.1,0.7,2.1,1.5,3.1,2.4c2.2,2.1,4.1,4.7,5.5,7.5c0.2-0.8-0.2-2.4-0.2-3.5c0-1.5-0.1-3.1,0-4.6c0.1-5.7,0.3-11.4,0.2-17.1
		c-0.1-7.1-0.5-14.2-0.8-21.4c-0.1-1.7,0.4-3.6-2.3-3.9c-0.3,0-0.7-0.9-0.9-1.4c-1.8-5-2.3-10.1-1.9-15.4c0.4-4.6-1.1-5.8-5.7-6
		c-2.6-0.1-5.8,1.2-7.8-2c0-0.1-1.1,0.2-1.2,0.5c-1.4,2.7-3,5.3-4,8.2c-0.7,1.9-1.7,2.5-3.3,2.4c-4.7-0.2-9.6,0.7-14.2-1.2
		c-0.5-0.2-1.2-0.2-1.8-0.1c-2.2,0.1-4.4,0.3-6.6,0.2c-1.2,0-2.1-0.4-3-1c1.1,1.7,2.2,3.4,3.2,5.2
		C130.6,346.6,132.1,349.5,133.6,352.4z"/>
	<path fill="#FFFFFF" d="M225.3,145.1c-0.9-0.9-2.9-0.9-4.4-0.8c-2.2,0.1-2.4-0.6-1.3-2.2c-1.8-0.2-3.6-0.5-5.4-0.5
		c-8.1,0.1-16.3,0.4-24.4,0.5c-5.2,0.1-10.4,0-15.6,0.1c-1,0-2,0.5-3,0.9c-1.2,0.4-2.2,1.2-3.4,1.4c-2.1,0.4-4.3,0.6-6.4,0.5
		c-2.2-0.1-4.4-0.7-6.6-1.1c-0.3-0.1-0.5-0.7-0.8-1.1c0.3-0.2,0.6-0.5,1-0.6c0.5-0.1,1.1,0.2,1.5,0c2.7-0.9,6.1-1.3,7.1-4.5
		c0.7-2.3,2.1-2.9,4-3.1c4.5-0.3,9-0.5,13.5-0.6c4-0.1,4,0,4.4,3.9c0.3,2.6,1.3,3,5.6,2.5c2.4-0.3,1.7-1.7,1.4-3.1
		c-0.5-2.9,0.1-3.3,3.1-3.1c3.4,0.2,6.7,0.2,10.1,0.1c2.2-0.1,4.4-0.6,6.6-1.1c0.6-0.1,1-0.8,1.5-1.3c-0.5-0.3-1-0.8-1.5-0.9
		c-1.6-0.2-3.2-0.4-4.8-0.4c-3.9,0-7.7,0.4-11.6,0.3c-2.9-0.1-3.4-1.1-3.4-4c0-1.5,0.1-3.1,0.1-4.6c0-1.6-1.3-3.5,1.5-4.2
		c1.6-0.4,3.2-1.3,4.8-1.4c2.4,0,4.8,0.6,7.2,0.9c3.3,0.4,6,1.4,7.5,4.8c1.1,2.5,2.8,4.7,4.2,7l0,0c0.1-1,0.5-2.1,0.3-2.9
		c-1-2.9-2-5.8-3.4-8.5c-1.3-2.6-3.5-4.3-6.5-4.5c-4.4-0.3-8.7-0.5-13.1-0.5c-2.4,0-3.6-1-3.8-3.3c-0.2-3.6-0.1-5.4,2.7-5.8
		c1.6-0.2,3.1-1.3,4.6-2c-4.1,0.2-8.3,0.4-12.4,0.6c-0.3,0-0.8,0.7-0.7,0.8c2.1,3.5,0,7-0.1,10.4c0,0.3-0.8,0.9-1.1,0.9
		c-6.3-1.5-12.1,0.9-18,2.1c-2.5,0.5-4.2,2.5-5,5c-0.6,1.7-0.8,3.6-1.2,5.4c-0.3,1.3-0.5,2.6-0.9,3.8c-0.1,0.4-0.7,0.6-1,0.9
		c-0.2-0.4-0.6-0.9-0.5-1.3c0.5-3.2,0.8-6.5,1.8-9.6c1.5-4.6,9.8-9.3,14.7-8.9c2,0.2,4.1,0,6.1-0.1c1.1-0.1,2.6-0.2,3.1-0.9
		c0.6-0.9,0.5-2.3,0.5-3.6c0.1-1.4-0.4-2-2-1.9c-2,0.1-4-0.1-6.1-0.1c-1.9,0-3.5-1.4-3.4-3.2c0.3-4.6,0.7-9.1,1.3-13.7
		c0.3-2.1,1.5-3.6,3.4-4.2c-0.2,0-0.4,0.1-0.7,0.1c-0.1,0.1-0.1,0.1-0.2,0.2c-1.5,0.9-3.3,0.7-4.9,0.4c-1.7-0.3-2.5-1.3-2.8-2.5
		c-0.3,0-0.7,0-1,0c0.1,0.3,0.3,0.7,0.4,1c0.7,2.6,0.6,5.4-0.3,8c9.1,8.6,0.3,24.8-11.8,23.4c-0.1,0.1-0.2,0.3-0.4,0.4
		c-0.6,0.5-1.1,1-1.7,1.4c-4.1,7.7-8.1,16.2-15.1,21.4c-0.5,0.7-1,1.4-1.4,2.1c0.3,1.9,0.7,3.8,0.9,5.7c1.1,9.5,0.9,19,0.4,28.6
		c0.2,0.3,0.3,0.6,0.5,0.9c2.7,5.8,5.8,11.7,6.9,18c0.9,5.3,0.9,10.2-2,15c-2.5,4.3-6.8,7.6-11.6,8.9c-1.4,0.4-2.8,0.6-4.2,0.7
		c-0.1,0.3-0.3,0.5-0.4,0.8c2,3.4,3.2,7.3,3.5,11.5c0.7,10.1,1.2,20.2,0.9,30.3c-0.4,11.2-0.9,24.1-5.2,34.6
		c-3.2,7.7-6.5,13.3-12,19.6c-0.5,0.6-1.9,2.4-2.7,3.4c-0.8,1.6-1.3,3.2-0.6,0.7c0,0,0,0,0,0c-0.3,0.8-0.6,1.6-0.9,2.4
		c0,0.3,0,0.7,0,1.1c4,3.2,7.8,6.8,11,10.7c0.3-0.7,1-1.4,1.3-2.1c0.1-0.3,0-0.6,0.1-0.9c0.7-3,1.3-6,2.2-8.9
		c0.8-2.8,2.8-4.4,5.8-4.7c2.3-0.2,4.7-0.5,7-0.6c3.1-0.2,5.5-1.5,6.9-4.3c1-2,1.8-4.2,3.1-6c1.1-1.6,2.8-3.8,4.3-3.9
		c2.5-0.2,2.1-1.1,1.8-2.6c-0.2-1.1-0.2-2.2-0.3-3.4c-0.2-6.7-0.3-13.5-0.6-20.2c-0.3-7.5-0.8-15.1-1.3-22.6
		c-0.5-7.5-1.1-15-3.2-22.3c-0.4-1.5-0.1-3.2-0.1-4.8c0.1-2.8,0.5-5.6,0.6-8.4c0-1.3-0.3-2.6-0.4-4c-0.4-10.1-0.9-20.2-1.3-30.3
		c-0.1-2.4,0.3-5.1-0.5-7.3c-1.5-4.2-1.4-8.4-1.2-12.7l0,0c-0.8-4.5-2-9-2.2-13.5c-0.1-2.2,1.3-4.6,2.4-6.7
		c2.2-4.2,6.8-5.7,10.3-8.5c0.4-0.3,1-0.4,1.5-0.6c-0.1,0.6,0,1.4-0.3,1.7c-1.9,1.6-3.8,3.3-6,4.6c-2.1,1.3-3.7,2.8-4.2,5.3
		c-0.3,1.4-1,2.7-1.1,4.1c-0.2,2.2-0.6,4.5-0.1,6.6c1,4.1,2.1,8.1,1.8,12.3c-0.1,1,0.1,2,0.1,3.1c0.7,7.7,1.7,15.4,2.2,23.1
		c1,14.6,1.7,29.3,2.6,43.9c0.4,6.4,1.2,12.8,1.7,19.2c0.4,5.7,0.5,11.4,0.8,17.1c0.2,5.7,0.4,11.4,0.6,17.1c0,0.5,0.2,1,0.4,1.4
		c0.5,1,1.3,1.9,1.4,2.9c0.3,3.9,0.3,7.9,0.5,11.9c0.1,1.2,0.2,2.8,1.9,2.4c0.5-0.1,1-1.9,0.9-3c-0.1-4.1-0.5-8.3-0.7-12.4
		c-0.1-1.3,0.3-2.7,0.2-4c-0.5-6.1-1.2-12.2-1.6-18.2c-0.5-7.3-0.9-14.6-1.4-22c-0.1-1.7-0.1-3.5-0.2-5.2c-0.2-3.5-0.8-7-0.7-10.6
		c0-2.2,0.9-4.4-1.3-6.1c-0.4-0.3-0.5-1.3-0.5-2c-0.5-6.7-1-13.4-1.5-20c-0.1-1.6-0.1-3.2-0.1-4.9c-0.1-2.4-0.1-4.9-0.3-7.3
		c-0.8-10.4-1.7-20.7-2.5-31.1c-0.2-1.9,0.2-3.3,2.2-4.2c1.7-0.7,1.7-2.1,0-2.9c-1.8-0.9-1.9-2.4-2-4.1c-0.1-2.5,0.1-2.6,2.4-2.2
		c2.4,0.5,4.8,1.1,7.2,1c3.7-0.1,7.3-0.7,10.9-0.9c4.5-0.2,8.9-0.4,13.4-0.4c4.9,0,9.8,0.4,14.6,0.4c7,0.1,14.1,0.2,21.1,0.2
		c1,0,2.1,0.1,3-0.1C226.1,150.4,227.4,147.1,225.3,145.1z M163.3,125.3c0.8-0.1,1.9-0.8,2.1-1.4c1.3-4,3.9-6,8.1-6
		c2.7-0.1,5.5-0.2,8.2-0.3c1.5-0.1,2.7,0.6,2.9,2.1c0.5,3.2,1,6.4,1.1,9.7c0,0.6-1.3,1.6-2.2,1.9c-1,0.3-2.2,0.1-3.3,0.1
		c0,0,0,0,0-0.1c-4.7,0.2-9.3,0.3-14,0.7c-1.4,0.1-1.9-0.1-2.1-1.6c-0.1-1.2-0.9-2.3-1.5-3.4C162.2,126,161.9,125.5,163.3,125.3z"/>
	<path fill="#FFFFFF" d="M187.9,83.2c0.8-0.1,1.7-0.2,2.5-0.3c-0.1,0-0.2,0-0.3,0c-0.5,0.1-1,0.1-1.5,0c-0.6,0.1-1.2,0.2-1.9,0.2
		c-0.5,0-1-0.1-1.4-0.3c-0.4,0-0.7,0-1.1,0c-0.6,0.1-1.2,0.3-1.7,0.3c-2.1,0.1-2.7,0.6-4.5,1.4c-0.2,0.1-0.3,0.1-0.5,0.2
		c0.2-0.1,0.4-0.1,0.6-0.1C181.5,83.9,184.7,83.6,187.9,83.2z"/>
	<path fill="#FFFFFF" d="M176.3,363.9c0-0.1,0.1-0.1,0.1-0.2c-0.1,0-0.3-0.1-0.4-0.1c0,0.1,0,0.2,0,0.3
		C176.1,363.9,176.2,363.9,176.3,363.9z"/>
	<path fill="#FFFFFF" d="M191.3,407.7c-1.9,0-3.9-0.1-5.8,0c-2.1,0.1-2.9-0.8-3.3-2.9c-1.9-9.1,0.1-18.3-0.5-27.5
		c-0.7-11.4-1.2-22.8-1.8-34.2c-0.1-1.4-0.1-2.9-0.1-4.3c-0.1-13.8-0.3-27.5-0.4-41.3c-0.1-9.8-0.1-19.5-0.1-29.3
		c0-7.9,0-15.9,0.1-23.8c0-3.6,0.8-4.2,4.4-4.1c6.4,0.2,12.8,0.3,19.2,0.7c1,0.1,2.4,1,2.7,1.8c1.5,5.1,3.2,10.2,3.7,15.4
		c0.5,5-0.2,10.1-0.4,15.2c0,1.1-0.1,2.2,0,3.3c0.4,4-0.4,5.5-4.1,7.2c-0.2,0.1-1.1-0.5-1.1-0.7c0-3,0.2-5.9,0.3-8.9
		c0.3-9,0.6-17.9,0.9-26.9c0-0.8,0.1-1.7-0.1-2.4c-0.3-0.8-1-1.4-1.6-2.1c-0.4,0.8-1.3,1.8-1.1,2.5c1,3.8-0.2,7.5-0.3,11.2
		c-0.1,4.3,0.3,8.5,0.2,12.8c0,5-0.3,10-0.5,15c-0.1,3.1-0.2,6.1-0.4,9.2c-0.3,7.1-0.8,14.1-1,21.2c-0.1,2.8,0.5,5.7,0.5,8.5
		c0.1,4.2-0.2,8.3-0.1,12.5c0.1,3.6,1,7.2,1,10.8c-0.3,19.1-0.7,38.1-1.1,57.2c-0.1,3.3-0.4,3.6-3.8,3.7c-0.9,0-1.8,0-2.8,0
		c-0.9,0-1.8,0-2.8,0C191.3,407.6,191.3,407.6,191.3,407.7z"/>
	<path fill="#FFFFFF" d="M200.8,239.5c-0.3,0-0.6,0-0.9,0c-1-0.2-2-0.4-3-0.6c1.1-0.2,2.2-0.3,3.2-0.5c4.2-0.7,8.4-1.4,12.6-2.1
		c0.4-0.1,0.8-0.5,1.2-0.8c-0.5-0.1-1.1-0.4-1.6-0.2c-7.5,2-15.1,2-22.8,1.7c-5.7-0.2-11.5,0.4-17.1,0c-8.8-0.6-7.6-1.8-4.8-7.7
		c2.1-4.4,3.6-8.9,3.4-14.1c-0.3-6.3,0.6-12.6,0.9-18.9c0.1-3.4-0.2-6.7,0-10.1c0.5-7.5,1.2-15.2,5-21.9c2.3-4,5.4-7.6,8.3-11.2
		c1.1-1.4,8.7-1.5,9.7-0.1c0.7,1.1,0.6,2.8,0.8,4.3c0.2,1.3-0.1,2.9,0.4,4c1.7,3.2,3.9,6.2,5.7,9.4c1.1,1.9,2.2,4,2.7,6.1
		c1.7,8,3.2,16,4.6,24c0.8,4.9,1.5,9.9,1.6,14.8c0.1,5.2,2.9,9.3,4.4,13.9c0.6,2,1.3,4.1,1.9,6.1c0.4,1.6-0.6,2.3-2,2.4
		c-4.7,0.6-9.3,1.1-14,1.6C200.9,239.6,200.8,239.5,200.8,239.5z"/>
	<path fill="#FFFFFF" d="M246,235.2c-3.9,0.8-7.9,1.9-11.8,2.3c-5.1,0.5-5.3,0.4-5.4,5.5c0,1.1-0.4,2.2-0.5,3.3v0
		c0-11.3,0.1-22.6,0-33.9c-0.1-9.2-0.5-18.3-0.5-27.5c0-7.4,0.5-14.9,0.8-22.3c0.1-2-0.3-4.1-0.2-6.1c0.1-1,0.5-2.1,1.1-3
		c0.3-0.4,1.2-0.5,1.9-0.7c-0.1,0.6-0.3,1.1-0.3,1.7c-0.1,3.4,0.7,6.6,2.5,9.6c1.5,2.4,2.6,5,3.7,7.6c1.8,4.1,3.4,8.3,5.1,12.4
		c1,2.4,2,4.6,0.7,7.3c-0.7,1.4-0.2,2.9,0.8,4.5c1.5,2.2,2.3,4.7,3.3,7.2c1.6,4.3,3.1,8.6,4.6,12.9c0.3,0.9,0.6,1.8,0.7,2.6
		c0.3,1.5-0.3,2.4-1.9,2.4c-6.2,0.1-12.4,0.3-18.6,0.4c-0.6,0-1.1,0.2-1.7,0.4c0.5,0.4,1,0.8,1.5,1.1c0.5,0.3,1,0.4,1.5,0.6
		c-0.5,0.3-1.1,0.6-1.4,1c-0.7,0.9-1.4,1.9-1.7,2.9c-0.4,1.3-0.4,2.8-0.6,4.2c-0.3,2.5,0.5,3.8,3,3.8
		C237,235.7,241.5,235.4,246,235.2L246,235.2z"/>
	<path fill="#FFFFFF" d="M166.9,295.3c4.3-5,7-10.9,8.7-17.1c0.9-3.5,0.5-7.5,0.3-11.2c-0.4-6.7-1.1-13.4-1.5-20.1
		c-0.1-1.8,0.3-3.7,0.6-5.5c0.1-0.5,0.8-1,1.2-1.5c0.4,0.5,1.2,1,1.2,1.5c0.2,2,0.3,4.1,0.3,6.1c0,4.8,0,9.6,0,14.4
		c-0.1,6,0.1,12.1-0.7,18c-0.4,3-2.8,5.8-4.2,8.7c-2.2,4.7-4.3,9.5-6.3,14.2c-0.3,0.6,0.1,1.5,0.1,2.2c0.6-0.3,1.3-0.5,1.7-1
		c1.8-1.8,3.5-3.7,5.4-5.5c0.3-0.3,0.9-0.4,1.3-0.6c0.1,0.5,0.4,1,0.3,1.4c-0.8,3.4-1.5,6.7-4.5,9.1c-5,4.2-5.6,10.2-6.2,16
		c-0.1,0.5,0.1,1.1,0.3,1.5c0.4,0.7,1.1,1.3,1.6,1.9c0-0.7,0.1-1.4,0.1-2.2c0.2-2.3,0.4-4.6,0.8-6.9c0.1-0.6,1.1-1,1.8-1.4
		c0.3-0.2,0.8-0.1,1.2-0.2c1.7-0.4,3.8-0.4,4.9-1.4c0.9-0.9,0.3-3.1,0.5-4.7c0.3-1.8,0.8-3.5,1.2-5.3c0.1,1.7,0.3,3.4,0.2,5
		c-0.1,4.7-0.6,9.4-0.4,14c0.2,6.2,0.9,12.4,1.4,18.6c0.2,2.2,0.2,4.5,0.3,6.7c0,0.4-0.2,0.8-0.2,1.1c-0.2-0.3-0.6-0.6-0.7-0.9
		c-0.6-2.9-1.2-5.8-1.6-8.7c-0.3-2.3-0.2-4.7-0.5-7c-0.4-3.3-3.5-5.5-7.4-5.2c-0.9,0.1-1.8,0.2-2.7,0.3c-1.7,0.2-3-0.3-4.1-2
		c-1.4-2.1-3.7-1.8-3.9,0.6c-0.4,4.4-4.3,6.2-5.9,9.6c-0.2,0.5-1.7,0.7-2.5,0.6c-3.1-0.4-6.2-1-9.4-1.3c-2-0.2-4,0.3-6.1,0.3
		c-1.8,0-3.8,0.2-5.4-0.5c-1.3-0.6-3-2.5-2.9-3.7c0.3-3.8,1.1-7.6,2.2-11.3c0.7-2.3,2.6-3.6,5.2-3.6c1.1,0,1.7,0,0.6,1.2
		c-1,1.1-0.1,1.6,1,1.7c1.3,0.1,2.7,0,4,0.2c2.5,0.4,2.9,1,2.3,3.5c-0.6,2.3-0.2,2.7,2.1,2.7c1,0,2-0.1,3,0c4.4,0.5,5.6-0.4,7.1-4.4
		c0.5-1.3,1.5-2.4,2.6-3.4c0.9-0.9,1-1.5-0.1-2.1c-0.4-0.3-0.9-0.4-1.3-0.8c-2.8-2.3-2.6-6.3,0.3-8.6c1.3-1,1.8-0.3,2.1,0.9
		c0.5,1.8,0.9,3.7,3.5,3.3c0.2,0,0.5,0.2,0.8,0.4c0.5,0.4,1,0.8,1.5,1.2c0.2-0.7,0.6-1.5,0.5-2.2c-0.6-6,0.5-11.5,3.9-16.6l0,0
		C166.5,295.7,166.7,295.5,166.9,295.3L166.9,295.3z M145.3,333.6c0-0.1,0-0.2,0-0.3c1.7,0,3.5,0.1,5.2,0c0.8,0,2-0.1,2.3-0.6
		c1.4-2.6,2.5-5.3,3.6-8c0.1-0.3-0.1-0.9-0.4-1c-0.2-0.1-0.8,0.1-1,0.4c-0.9,1.5-1.6,3-2.6,4.4c-0.6,0.9-1.4,2.2-2.3,2.3
		c-2.7,0.4-5.5,0.4-8.2,0.3c-3.6-0.1-7.1-0.6-10.7-0.7c-1.9,0-2.4-0.8-2-2.4c0.5-1.8,1.2-3.5,1.7-5.2c0.2-0.7,0-1.5-0.1-2.2
		c-0.7,0.4-1.8,0.7-2.1,1.3c-0.6,1.1-0.8,2.5-1.2,3.8c-0.3,1.2-0.4,2.4-0.7,3.6c-0.8,2.6-0.3,3.5,2.6,3.6c1.9,0.1,3.9,0,5.8,0.1
		C138.6,333,141.9,333.3,145.3,333.6z"/>
	<path fill="#FFFFFF" d="M203,152.6c3.4,0,6.7-0.2,10.1,0.1c3.2,0.2,6.2,3.6,6.5,6.8c0.4,5,1.2,9.9,1.3,14.9c0.1,4.7-0.5,9.3-0.6,14
		c-0.1,8.6-0.6,17.2,0,25.7c0.5,6.5,0.4,12.8-0.1,19.2c0,0.5-0.3,0.9-0.4,1.3c-0.3-0.4-0.6-0.8-0.8-1.2c-1.6-4.8-3.6-9.6-4.7-14.5
		c-0.9-4.1-0.8-8.5-1.3-12.7c-0.3-2.3-1.2-4.5-1.6-6.8c-0.8-3.9-1.1-7.9-2.1-11.7c-1.5-5.8-3.1-11.6-5.2-17.2c-1.5-4-4-7.6-5.6-11.5
		c-0.7-1.6-0.4-3.6-0.4-5.4c0-0.4,1-0.9,1.6-1c1.1-0.2,2.2-0.1,3.4-0.2C203,152.5,203,152.6,203,152.6z"/>
	<path fill="#FFFFFF" d="M233.7,315.6c0.3,2,0.7,4,1,6c0.4,2.2,1,4.3,1.2,6.5c0.1,1.3-0.3,2.7-0.4,4.1c-0.4,4.2-0.8,8.4-1,12.7
		c-0.3,5.5-0.3,10.9-0.6,16.4c-0.1,1.2-0.4,2.4-0.9,3.5c-0.5,1.2-1.6,1.2-1.9,0c-0.4-1.4-0.4-3-0.3-4.5c0.2-2.4,0.6-4.9,0.8-7.3
		c0.1-0.5-0.3-1.1-0.4-1.7c-0.3,0.3-0.6,1-0.9,0.9c-0.5,0-1-0.4-1.5-0.7c-1.3-1-2.6-2.1-4-2.9c-2.1-1.2-4.1-0.8-5.7,1.1
		c-0.3,0.4-1,0.4-1.6,0.6c-0.1-0.5-0.3-0.9-0.4-1.4c0-2.1-0.2-4.3,0-6.4c0.1-1.8,0.7-3.1,3.2-2.2c2.5,0.9,3.8-0.5,3.1-3.2
		c-0.5-1.9-1.3-3.7-1.4-5.6c-0.1-2.8-1.2-2.6-2.9-1.3c-1.1,0.8-1.5,0.1-1.5-0.9c0-5,0-10,0.1-15c0-0.4,0.5-0.8,0.7-1.2
		c0.4,0.3,1,0.4,1.2,0.8c0.7,1,1.2,2.1,1.8,3.1c0.2,0.3,0.9,0.6,1.3,0.4c0.3-0.1,0.7-0.7,0.7-1.2c0.2-5,0.7-10,0.6-15
		c-0.1-6-0.8-12-1.2-18c-0.7-11.8-1.6-23.6-0.5-35.5c0.1-1.5,0.1-3.1,0.1-4.6c0.2-8.8,0.6-17.5,0.6-26.3c0-10-0.4-20-0.5-30
		c-0.1-6.1,0.1-12.2,0-18.3c0-2.9-0.5-5.9-0.6-8.8c0-0.9,0.6-1.7,0.9-2.6c0.4,0.8,1.2,1.6,1.2,2.5c0.4,9.8,0.8,19.5,0.9,29.3
		c0.1,7-0.4,14.1-0.4,21.1c0,2,0.7,4,0.7,6.1c0.1,9.2,0.1,18.5,0.2,27.7c0.2,13.9,0.3,27.7,0.6,41.6c0.2,10,0.7,19.9,0.5,29.9
		c-0.1,6-1.5,11.9-2.2,17.9c-0.1,0.9,0.3,1.8,0.4,2.8c0.7-0.3,1.4-0.7,2.2-1c0.8-0.3,1.9-0.9,2.5-0.7c0.6,0.3,1.1,1.5,1.1,2.3
		c0,3.1-0.4,6.3-0.4,9.4c0,0.8,0.6,1.6,0.9,2.3c0.5-0.7,1.3-1.3,1.3-2c0.3-5.7,0.5-11.5,0.8-17.3
		C233.4,324.7,233.6,320.1,233.7,315.6L233.7,315.6z"/>
	<path fill="#FFFFFF" d="M159.6,251.2c-0.3-5.8-0.7-11.6-0.8-17.4c-0.1-2.9,0.3-5.9,0.6-8.8c0.9-9,1.9-18,2.8-27
		c0.7-6.4,1.4-12.7,1.8-19.1c0.2-3.4-0.2-6.8-0.3-10.2c0-1.4,0-2.8,0.1-4.3c0.2-2.5,0.6-5,0.8-7.6c0.3-3,1.3-4.1,4.4-4.2
		c3.3-0.2,6.5-0.5,9.8-0.7c2.7-0.1,3.1,0.6,1.9,3c-0.1,0.3-0.2,0.6-0.5,0.8c-3.9,2.9-5.6,7.2-7.2,11.5c-1.1,2.9-2,6.1-2.2,9.2
		c-0.5,7.4-0.5,14.8-0.7,22.2c0,0.2,0.1,0.4,0.1,0.6c-1.4,4.1-0.3,8.4-0.6,12.6c-0.6,7.3-2.8,14.1-5.7,20.7c-1,2.3-1.8,4.8-0.2,7.3
		c0.4,0.6,0.1,1.6-0.1,2.4c-1,5.5-2,11-3,16.6c-0.1,0.3-0.2,0.6-0.2,0.9c-0.2-0.3-0.5-0.7-0.5-1c-0.2-2.4-0.4-4.9-0.6-7.3
		C159.5,251.2,159.5,251.2,159.6,251.2z"/>
	<path fill="#FFFFFF" d="M203.1,325.6c0-0.6,0.1-1.5,0-2.4c-0.8-4.3,2.1-6.7,4.5-9.4c0.3-0.4,1-0.4,1.6-0.6c0.2,0.5,0.5,1.1,0.5,1.6
		c0.1,3,0,5.9,0.1,8.9c0,0.6,0.6,1.2,0.9,1.7c0.3-0.6,0.9-1.1,0.9-1.7c0-5.9-0.1-11.8-0.2-17.7c0-1.7-0.3-3.5-0.3-5.2
		c-0.1-11.9-0.2-23.8-0.2-35.7c0-1.4,0.6-2.9,0.9-4.3c0.3,1.4,0.8,2.8,0.9,4.2c0.4,6.1,0.8,12.2,1,18.3c0.1,3.7-0.4,7.5-0.2,11.2
		c0.2,4.8,0.8,9.6,1.2,14.4c0.2,2,0.4,4.1,0.4,6.1c0,5.1-0.3,10.2-0.3,15.2c0,7.9,0.2,15.8,0.3,23.8c0,0.4,0.1,0.8,0.1,1.2
		c-0.9,5.1-1.2,10.3-0.5,15.5c0.5,3.6,0.6,7.3,0.8,10.9c0.2,4.7,0.2,9.4,0.2,14c0,0.5-0.5,1-0.7,1.5c-0.5-0.3-1.2-0.6-1.3-1
		c-0.5-1.3-1-2.7-1.1-4.1c-0.2-2.2,0-4.5-0.1-6.7c-0.2-5.9-0.6-11.8-0.8-17.7c-0.1-4.7,0.1-9.4,0.2-14c0.2-5.6,0.7-11.2,0.7-16.8
		c0-2.2-0.9-4.4-1.4-6.6c-0.2-1-0.2-2-0.3-3c-0.3,1.1-0.8,2.3-0.9,3.4c-0.1,5.4-0.1,5.5-4.9,3.7c-0.9-0.3-1.6-1.5-2-2.5
		c-0.4-0.9-0.2-2-0.2-3C202.9,328,203,327,203.1,325.6z"/>
	<path fill="#FFFFFF" d="M263.4,239.5c0,0,0.2-0.3,0.3-0.6c0.2,0.2,0.4,0.4,0.5,0.7c1.5,4.1,2.9,8.2,4.4,12.2
		c1.2,3.3,2.6,6.6,3.7,10c2.1,6.4,4.1,12.8,6.1,19.2c1.2,3.8,2.2,7.6,3.3,11.4c0.4,1.5-1.6,4.2-3.2,3.9c-0.4-0.1-0.9-0.7-1.1-1.2
		c-3.1-8.9-6.6-17.8-9.1-26.9c-1.9-7-2.7-14.4-3.9-21.6C264,244.3,263.7,242.1,263.4,239.5z"/>
	<path fill="#FFFFFF" d="M161.6,278.4c-0.2-2.5-0.7-5.1-0.6-7.6c0.2-4.1,0.5-8.1,1.2-12.1c1-5.7,2.4-11.4,3.6-17.1
		c0.2-0.9,0.6-1.7,1-2.6c0.1-0.1,0.5-0.2,0.7-0.1c1.1,0.3,2.3,1,3.4,1c1.4,0,2-0.2,1.5,1.7c-1.5,6-2.7,12.1-4,18.2
		c-1.3,6.6-2.7,13.2-3.9,19.8c-0.7,3.9-1.1,7.9-1.7,11.8c-0.1,0.5-0.4,0.9-0.6,1.3c-0.1-0.5-0.2-0.9-0.2-1.4
		c-0.3-4.3-0.5-8.5-0.8-12.8C161.5,278.5,161.5,278.5,161.6,278.4z"/>
	<path fill="#FFFFFF" d="M220.2,259c0,5.3,0,10.2,0,15.1c0,0.4-0.4,0.8-0.6,1.2c-0.2-0.3-0.4-0.7-0.5-1c-1.2-3.5-2.3-6.9-3.4-10.4
		c-0.3-1-0.6-2-0.6-3c0.1-2.4,0-4.5-3.1-5.1c-0.5-0.1-1.1-1-1.3-1.6c-1.2-3.6-2.2-7.2-3.3-10.8c-0.6-2,0.4-2.9,2.3-3
		c1.1-0.1,2.2,0,3.4,0c1.9-0.1,2.9,0.7,3.5,2.6C218.2,248.3,221,253.4,220.2,259z"/>
	<path fill="#FFFFFF" d="M196.9,94.4c-0.4,1.8-0.7,3.6-1.1,5.3c-0.1,0.2-0.4,0.5-0.7,0.5c-2,0.2-4.2,0.9-6,0.5
		c-2.5-0.7-4.7-0.5-7.1-0.2c-3,0.5-3.5-0.2-3.2-3.3c0.1-1.2,0.2-2.4,0.3-3.6c0.4-4.1,0.6-3.9,4.6-5.2c3.9-1.3,7.4,0.3,11.1,0.6
		c0.5,0,1.2,1,1.4,1.7C196.6,91.9,196.7,93.2,196.9,94.4z"/>
	<path fill="#FFFFFF" d="M166.3,295.9c-0.3-1-1.1-2-1-2.9c0.9-8.3,1.7-16.6,3-24.9c0.8-5.3,2.2-10.6,3.3-15.8
		c0.1-0.5,0.5-0.9,0.7-1.3c0.2,0.5,0.5,1,0.6,1.5c0.5,6.5,0.7,13,1.3,19.5c0.5,5.8-2.6,10.4-4.5,15.3c-0.6,1.5-1.8,2.8-2.4,4.3
		c-0.4,1.1-0.3,2.5-0.4,3.7l0,0C166.7,295.5,166.5,295.7,166.3,295.9L166.3,295.9z"/>
	<path fill="#FFFFFF" d="M153,170.5c0-2.1-0.2-4.3,0.1-6.4c0.1-0.9,0.9-2,1.6-2.7c1.9-1.8,2.1-2.8,0.6-5c-0.5-0.7-0.7-1.5-1-2.3
		c0.6-0.1,1.3-0.5,1.7-0.3c0.9,0.4,1.7,1,2.3,1.8c0.3,0.5,0.1,1.4,0.1,2.1c-0.2,6.6-0.8,13.2-0.5,19.8c0.3,7.7-0.6,15.2-1.3,22.8
		c0,0.4,0,0.8-0.2,1.2c-0.2,0.4-0.5,0.8-0.7,1.2c-0.1-0.4-0.3-0.7-0.3-1.1c-0.5-5.6-1.1-11.2-1.6-16.8c-0.4-4.8-0.7-9.5-1.1-14.3
		C152.7,170.5,152.8,170.5,153,170.5z"/>
	<path fill="#FFFFFF" d="M214.7,129.2c-3.8,0-7.7,0.1-11.5,0c-2.5-0.1-5.1-0.3-7.6-0.5c-0.2,0-0.6-0.3-0.6-0.5c0.1-2,0.2-4,0.3-6.1
		c0.2-2.8,2.3-2.7,4.3-2.6c2.5,0.1,5.1,0.1,7.6,0.4c3.3,0.4,4.5,3.2,5.9,5.7C213.7,126.7,214.2,128,214.7,129.2L214.7,129.2z"/>
	<path fill="#FFFFFF" d="M216.5,296.6c-0.3-6.6-0.7-13.2-1-19.8c-0.1-1.4,0.4-2.8,0.7-4.2c0.5,1.2,1.1,2.3,1.4,3.6
		c1.9,7.5,3.2,15.1,3.2,22.9c0,3,0.4,6,0.5,9.1c0,1.2,0.3,2.8-1.9,2.7c-1.8-0.1-2.9-0.6-2.8-2.7c0.1-3.9,0-7.7,0-11.6
		C216.6,296.7,216.6,296.7,216.5,296.6z"/>
	<path fill="#FFFFFF" d="M156.6,219.1c0.7-7.8,1.3-15.4,2.2-23c1.3-12.1,1.6-24.2,1.5-36.3c0-1.2,0.2-2.4,0.4-3.6
		c0.1-0.5,0.7-0.9,1-1.3c0.2,0.5,0.6,1,0.6,1.5c-0.1,1.9-0.4,3.8-0.5,5.8c-0.2,4.5-0.2,8.9-0.3,13.4c-0.1,4-0.2,8.1-0.3,12.1
		c-0.1,1.7-0.3,3.5-0.4,5.2c-0.8,8.7-1.5,17.4-2.4,26.1c-0.1,1-0.7,1.9-1.1,2.8C157,220.9,156.8,219.9,156.6,219.1z"/>
	<path fill="#FFFFFF" d="M258.9,167.4c-0.3,0.3-0.6,0.6-0.9,0.7c-2.5,1.2-5.1,2.5-7.7,3.6c-0.5,0.2-1.8-0.2-2-0.7
		c-1.8-4.1-3.4-8.3-5-12.4c-0.2-0.7,0.1-1.5,0.1-2.3c0.8,0.3,1.6,0.5,2.3,1c2.9,1.9,5.8,3.9,8.7,6c1.3,0.9,2.6,2,3.8,3
		C258.5,166.5,258.6,166.9,258.9,167.4z"/>
	<path fill="#FFFFFF" d="M147.1,326.2c-1-0.1-2.1-0.1-3-0.4c-0.7-0.3-1.6-1.3-1.5-1.8c0.7-3,1.6-6,2.7-8.9c1.1-2.6,2.4-5.2,3.9-7.6
		c0.9-1.4,2.3-2.5,3.6-3.7c0.2-0.2,0.9,0.1,1.4,0.1c-0.1,0.4-0.2,0.9-0.5,1.2c-1.1,1.6-2.4,3.1-3.3,4.8c-1.3,2.5-2.5,4.8-0.6,7.9
		c0.9,1.5,0.5,4.2,0.1,6.2c-0.2,1-1.6,1.7-2.4,2.6C147.4,326.5,147.3,326.4,147.1,326.2z"/>
	<path fill="#FFFFFF" d="M246,235.3c0.1-1.9,0.3-3.8,0.4-5.8c0.3-3.6-0.6-4.9-4.3-5.6c-0.8-0.2-1.6-0.2-2.4-0.3
		c-0.2,0-0.4-0.3-0.7-0.5c0.3-0.1,0.5-0.3,0.8-0.3c4.3,0.1,8.5,0.2,12.8,0.3c2.5,0,2.8,1.9,3.3,3.7c0.5,1.8-0.3,2.5-1.7,3.3
		C251.4,231.7,248.7,233.5,246,235.3L246,235.3z"/>
	<path fill="#FFFFFF" d="M209.6,295.3c0,2.1,0.2,4.2-0.1,6.3c-0.1,1-1.2,1.8-1.9,2.7c-0.7-0.8-1.8-1.5-2.2-2.5c-1.9-5-1-10,0.2-15
		c0.2-0.8,1.2-1.4,1.9-2c0.5,0.8,1.4,1.5,1.5,2.3c0.3,2.7,0.3,5.5,0.4,8.2C209.5,295.3,209.5,295.3,209.6,295.3z"/>
	<path fill="#FFFFFF" d="M232.6,230.4c0.7-1.3,1.2-3.4,2.2-3.8c2.4-0.7,5.2-1,7.6-0.5c0.8,0.2,1.3,3.3,1.4,5.2
		c0.1,1.8-1.6,2.1-3.1,2.1c-1.4,0.1-2.8,0.2-4.2,0.4C233.3,234.2,233,234,232.6,230.4z"/>
	<path fill="#FFFFFF" d="M205.9,140.1c-2.5,0-5.1,0-7.6,0c-1.5,0-2.8-0.6-2.7-2.2c0-0.5,1.6-1.1,2.6-1.2c4.6-0.3,9.1-0.5,13.7-0.6
		c0.9,0,2,0.4,2.7,1c0.5,0.4,0.9,1.6,0.7,2.2c-0.2,0.5-1.3,0.8-2,0.9C210.8,140.3,208.4,140.2,205.9,140.1
		C205.9,140.2,205.9,140.2,205.9,140.1z"/>
	<path fill="#FFFFFF" d="M178.3,141.1c-4.2,0-8.3-0.1-12.5,0c-1.3,0-1.6-0.5-0.8-1.3c1.1-1.1,2.3-2.6,3.6-2.8
		c3.8-0.6,7.6-0.7,11.5-0.9c1.8-0.1,2.7,0.6,2.6,2.5c-0.1,1.5-0.7,2.3-2.3,2.1c-0.7-0.1-1.4,0-2.1,0
		C178.3,140.8,178.3,141,178.3,141.1z"/>
	<path fill="#FFFFFF" d="M248.5,239.5c0.7,0.3,1.2,0.6,1.7,0.8c-0.3,0.4-0.4,0.9-0.8,1.2c-5.1,4.2-10.3,8.3-15.4,12.5
		c-0.3,0.3-0.7,0.4-1.1,0.6c-0.4,0.2-0.9,0.3-1.3,0.5c0-0.6-0.2-1.3,0-1.7c1.1-1.7,2-3.6,3.5-4.9c3.3-2.7,6.8-5.2,10.3-7.6
		C246.4,240.2,247.5,239.9,248.5,239.5z"/>
	<path fill="#FFFFFF" d="M303,348.1c-2.6-5-5.2-10.1-7.7-15.2c-1.2-2.5-2.2-5.2-3.3-7.8c-0.2-0.4-0.5-0.7-0.6-1.1
		c-1.3-5.7-3.9-10.6-7.9-14.9c-0.2-0.2-0.3-0.7-0.4-1.1c0.5,0,1-0.1,1.4,0.2c2.7,1.6,4.6,4,5.7,7c1.8,4.8,3.3,9.6,5.2,14.3
		c1.9,4.8,4.1,9.5,6.1,14.3C302,345.2,302.5,346.6,303,348.1L303,348.1z"/>
	<path fill="#FFFFFF" d="M232,326.4c-0.3,1.3-0.3,3-1,4.3c-0.4,0.8-1.8,1.2-2.8,1.7c-0.4-0.8-0.8-1.7-1.1-2.5c0-0.1,0-0.2,0-0.3
		c2.3-5.2,2-10.7,2.3-16.1c0-0.3,0.2-0.6,0.3-0.8c0.2,0.3,0.6,0.6,0.6,0.9c0.2,1.7,0.1,3.5,0.3,5.2C231,321.2,231.5,323.7,232,326.4
		z"/>
	<path fill="#FFFFFF" d="M236.6,350.4c0-2.6-0.1-5.3,0-7.9c0-0.6,0.5-1.7,0.9-1.7c0.7-0.1,1.6,0.3,2.1,0.8c2,2,1.1,9.6-1.2,11.4
		c-0.4,0.3-1.1,0.4-1.6,0.7c-0.1-0.6-0.3-1.1-0.3-1.7C236.5,351.4,236.6,350.9,236.6,350.4C236.6,350.4,236.6,350.4,236.6,350.4z"/>
	<path fill="#FFFFFF" d="M238.6,136.2c0.4-1.4-0.1-3.7,2.4-4.1c1.4-0.2,4.3,2.7,4.4,4.4c0,0.4-0.7,1-1.1,1.1c-0.9,0.3-2,0.3-2.9,0.7
		C239.1,139.6,238.6,139.3,238.6,136.2z"/>
	<path fill="#FFFFFF" d="M229.4,293.9c-0.2-1.8-0.4-3.6-0.5-5.4c0-0.7,0.1-1.4,0.2-2.1c0.3,0.7,0.7,1.4,0.8,2.1
		c0.9,5.5,1.6,11,2.4,16.5c0,0.2,0,0.4,0.1,0.6c0.1,1.3,0.2,2.6,0.3,3.9c-0.5-1.2-1.3-2.4-1.5-3.7c-0.9-3.9-1.5-7.9-2.3-11.8
		C229.1,293.9,229.2,293.9,229.4,293.9z"/>
	<path fill="#FFFFFF" d="M231.2,244.3c0-0.3,0.2-1,0.1-1.7c-0.1-2.2,0.9-3.2,3.1-3c1.7,0.2,3.3,0.3,5,0.4c-1.2,1.1-2.4,2.3-3.7,3.4
		c-1,0.8-2.1,1.5-3.2,2.2C231.3,246.4,230.8,246.2,231.2,244.3z"/>
	<path fill="#FFFFFF" d="M199.4,101.6c-0.1-2.5-0.1-5.1-0.3-7.6c-0.1-1.8-0.6-3.6-0.9-5.4c-0.1-0.5,0-1-0.1-1.6
		c0.6,0.1,1.3,0,1.7,0.2c0.5,0.3,1.1,0.9,1.1,1.3c0.3,4.1,1.6,8.2-0.8,12.1C200.1,101.1,199.7,101.3,199.4,101.6L199.4,101.6z"/>
	<path fill="#FFFFFF" d="M245.3,145.9c-1.9-0.2-3.5-0.4-3.6-2.6c0-2.3,1-3.4,2.9-3.3c1.7,0.1,3.6,1.7,3.4,3.2
		C247.8,144.8,247,146,245.3,145.9z"/>
	<path fill="#FFFFFF" d="M177.3,288.6c-0.4,4.3-2.7,7-5.6,9.4c-0.2,0.2-0.7,0.2-1,0.2c0-0.3,0-0.6,0.1-0.9c1.5-3,2.9-6,4.5-9
		c0.3-0.7,1-1.1,1.6-1.7C177.1,287.4,177.2,288.2,177.3,288.6z"/>
	<path fill="#FFFFFF" d="M202.6,308.7c0.3-0.7,0.6-2,1.3-3c0.2-0.3,1.7,0.1,2.4,0.5c1.2,0.7,1.4,4,0.4,5c-0.9,0.9-1.9,1.8-2.8,2.7
		c-0.1,0.1-0.7-0.2-0.8-0.4C202.9,312.2,202.8,310.7,202.6,308.7z"/>
	<path fill="#FFFFFF" d="M225.1,137.8c-1.5,0-3,0.1-4.5,0.1c-0.8,0-1.7,0.1-2.5,0.2c-0.1-1.2-0.5-2.5-0.1-3.5
		c0.3-0.7,1.7-1.4,2.6-1.4C223.4,133.4,224.7,135.2,225.1,137.8L225.1,137.8z"/>
	<path fill="#FFFFFF" d="M323.8,271.9c-1.1,2.5-2.4,5.2-3.7,7.9c-0.2,0.3-0.5,0.5-0.8,0.8c-0.1-0.4-0.4-0.8-0.4-1.3
		c0.1-2.1,0.2-4.1,0.3-6.2c0-1.8,2.3-3.4,4.1-2.9C323.4,270.3,323.5,270.9,323.8,271.9z"/>
	<path fill="#FFFFFF" d="M237.2,336.8c0.2-1.5,0.2-2.4,0.4-3.2c0.2-0.6,0.8-1.2,1.2-1.7c0.7,0.6,1.7,1,2.1,1.8
		c0.6,1.3-1.3,4.4-2.7,4.5C237.8,338.2,237.3,337,237.2,336.8z"/>
	<path fill="#FFFFFF" d="M254.7,236.7c-0.4-0.2-0.9-0.4-1.4-0.6c1.3-1.4,2.6-2.7,3.9-4.1c0.5,0.7,1.3,1.4,1.4,2.1
		C258.8,237.2,256.1,235.8,254.7,236.7z"/>
	<path fill="#FFFFFF" d="M221.7,335.8c-0.9,0.8-1.6,1.4-2.3,2c-0.5-0.6-1.4-1.4-1.3-1.9c0.3-1.1,1.2-2.1,1.8-3.2
		C220.4,333.6,220.9,334.5,221.7,335.8z"/>
	<path fill="#FFFFFF" d="M173.6,310c0,0.9,0.2,1.9-0.1,2.7c-0.2,0.7-0.8,1.5-1.5,1.8c-0.5,0.3-1.3-0.1-2-0.1
		c0.2-0.8,0.2-1.8,0.7-2.4C171.6,311.2,172.7,310.7,173.6,310L173.6,310z"/>
	<path fill="#FFFFFF" d="M220.6,241.4c-0.1,0.8-0.2,1.2-0.2,1.6c-0.2,0.7-0.3,1.4-0.5,2c-0.3-0.6-0.6-1.2-0.9-1.8
		c-0.2-0.4-0.3-0.8-0.4-1.2c0-0.9,0-1.9,0.1-2.8c0-0.1,0.7-0.2,0.8-0.2C220,239.9,220.4,240.8,220.6,241.4z"/>
	<path fill="#FFFFFF" d="M273.3,311.5c-0.7-0.8-1.3-1.3-1.2-1.5c0.5-1.1,1.1-2,1.7-3c0.4,0.5,1.1,1.1,1,1.5
		C274.6,309.4,274,310.3,273.3,311.5z"/>
	<path fill="#FFFFFF" d="M235.6,138.4c-0.7-1.3-1.4-2.5-2-3.8c-0.1-0.2,0.4-0.9,0.5-0.8c0.5,0.2,1.3,0.4,1.3,0.7
		C235.6,135.8,235.5,137.1,235.6,138.4L235.6,138.4z"/>
	<path fill="#FFFFFF" d="M139.8,319.9c-0.8-0.3-1.4-0.4-2-0.6c-0.3-0.1-0.7-0.3-1-0.4c0.3-0.2,0.7-0.4,1-0.5
		c0.6-0.1,1.2-0.1,1.8-0.1c0.5,0,1.1,0,1.6,0c-0.1,0.3,0,0.7-0.2,0.8C140.6,319.5,140.1,319.7,139.8,319.9z"/>
	<path fill="#FFFFFF" d="M180.6,103.4c-0.3,0-0.6,0.1-0.9,0c-0.8-0.2-1.5-0.4-2.3-0.6c0.8-0.1,1.6-0.3,2.4-0.3c0.3,0,0.6,0,0.9,0.1
		c0.8,0.1,1.6,0.2,2.3,0.3c-0.8,0.2-1.6,0.5-2.4,0.7C180.6,103.5,180.6,103.5,180.6,103.4z"/>
	<path fill="#FFFFFF" d="M176.1,90c-0.2,2.1-0.4,4.2-0.7,6.3c0,0.3-0.2,0.5-0.3,0.8c-0.1-0.3-0.2-0.6-0.2-0.9
		C175.3,94.1,175.7,92,176.1,90L176.1,90z"/>
	<path fill="#FFFFFF" d="M251.2,206.1c0.4,1.4,0.8,2.8,1.2,4.1c-0.2,0-0.5,0.1-0.5,0.1c-0.4-1.2-0.9-2.5-1.3-3.7
		C250.6,206.5,250.8,206.4,251.2,206.1z"/>
	<path fill="#FFFFFF" d="M224.8,142.1c-0.6-0.3-1.2-0.7-1.8-1c0.4-0.1,0.8-0.4,1.2-0.3c0.7,0.2,1.3,0.6,1.9,0.9
		C225.7,141.8,225.3,141.9,224.8,142.1z"/>
	<path fill="#FFFFFF" d="M322.5,264c0.4,0.3,0.6,0.6,0.9,0.8c-0.3,0.2-0.6,0.4-0.9,0.5c-0.3,0-0.7-0.2-1.1-0.3
		C321.7,264.7,322.1,264.4,322.5,264z"/>
	<path fill="#FFFFFF" d="M157.5,224.6c-0.2,0.3-0.3,0.5-0.4,0.7c-0.1-0.3-0.4-0.7-0.4-1c0-0.2,0.3-0.4,0.5-0.6
		C157.2,224,157.3,224.3,157.5,224.6z"/>
	<path fill="#FFFFFF" d="M235.5,138.4c0.4,0.9,0.7,1.8,1.1,2.7c0,0-0.3,0.1-0.4,0.2C236,140.3,235.8,139.4,235.5,138.4L235.5,138.4z
		"/>
	<path fill="#FFFFFF" d="M189.3,239.3c-0.3-0.2-0.5-0.3-0.7-0.5c0.2-0.1,0.4-0.3,0.7-0.4c0.1,0,0.3,0.1,0.5,0.2
		C189.6,238.8,189.5,239,189.3,239.3z"/>
	<path fill="#FFFFFF" d="M224.3,153.7c-0.1,0.1-0.3,0.3-0.4,0.3c-0.1,0-0.3-0.2-0.4-0.3c0.1-0.1,0.3-0.3,0.4-0.3
		C224,153.4,224.2,153.6,224.3,153.7z"/>
	<path fill="#FFFFFF" d="M177,299.7c-0.1-0.2-0.2-0.3-0.2-0.4c0-0.1,0-0.2,0-0.3c0.1,0.1,0.3,0.1,0.3,0.2
		C177.2,299.4,177.1,299.5,177,299.7z"/>
	<path fill="#FFFFFF" d="M210.9,376.2c0,0.1,0,0.2,0,0.2c-0.1-0.1-0.2-0.2-0.2-0.2c0,0,0.1-0.1,0.1-0.2
		C210.8,376.1,210.8,376.1,210.9,376.2z"/>
	<path fill="#FFFFFF" d="M146,163.5c0.1-0.3,0.1-0.5,0.2-0.8c0.1,0.1,0.2,0.2,0.4,0.2C146.4,163.1,146.2,163.3,146,163.5L146,163.5z
		"/>
	<path fill="#FFFFFF" d="M210.9,384.2c0,0.1,0,0.2-0.1,0.2c-0.1-0.1-0.2-0.2-0.2-0.3c0,0,0.1-0.1,0.2-0.2
		C210.8,384.1,210.9,384.1,210.9,384.2z"/>
	<path fill="#FFFFFF" d="M217.8,129.8c0.3,0.2,0.6,0.5,0.9,0.7C218.4,130.3,218.1,130,217.8,129.8L217.8,129.8z"/>
	<path fill="#FFFFFF" d="M236.1,223.4c-0.1-0.1-0.1-0.1-0.2-0.2c0.1,0,0.2-0.1,0.3-0.1c0.1,0,0.1,0.1,0.2,0.1
		C236.3,223.4,236.2,223.4,236.1,223.4z"/>
	<polygon fill="#FFFFFF" points="233.5,312.2 233.3,312.3 233.4,312.1 	"/>
	<polygon fill="#FFFFFF" points="226.6,157 226.7,157.1 226.6,157.2 	"/>
	<path fill="#FFFFFF" d="M233.7,315.6c-0.1-0.2-0.2-0.5-0.2-0.7c0.1,0.1,0.1,0.1,0.2,0.2C233.7,315.2,233.7,315.4,233.7,315.6
		L233.7,315.6z"/>
	<polygon fill="#FFFFFF" points="228.6,147.9 228.5,148 228.5,147.8 	"/>
	<polygon fill="#FFFFFF" points="322.3,268 322.4,268.2 322.2,268.1 	"/>
	<path fill="#FFFFFF" d="M247.2,197.2c0.1,0.1,0.3,0.2,0.4,0.4c0,0,0,0.1,0,0.2C247.5,197.6,247.3,197.4,247.2,197.2L247.2,197.2z"
		/>
	<polygon fill="#FFFFFF" points="221.1,130.8 221.1,130.6 221.3,130.8 	"/>
	<path fill="#FFFFFF" d="M173.6,310.1c0-0.1,0-0.2,0.1-0.2C173.7,309.9,173.7,310,173.6,310.1L173.6,310.1z"/>
	<path fill="#FFFFFF" d="M177.3,87.5c0.1-0.1,0.1-0.1,0.2-0.2C177.4,87.4,177.4,87.4,177.3,87.5L177.3,87.5z"/>
	<path fill="#FFFFFF" d="M225.1,137.8c0.1,0.1,0.1,0.1,0.2,0.2C225.2,137.9,225.2,137.8,225.1,137.8L225.1,137.8z"/>
	<path fill="#FFFFFF" d="M214.7,129.2c0,0.1,0.1,0.1,0.1,0.2C214.8,129.3,214.8,129.3,214.7,129.2L214.7,129.2z"/>
	<path fill="#FFFFFF" d="M219.6,142.1c0.1-0.1,0.1-0.1,0.2-0.2C219.7,142,219.7,142,219.6,142.1L219.6,142.1z"/>
	<path fill="#FFFFFF" d="M162.6,295.3c0.1,0.1,0.1,0.1,0.2,0.2C162.7,295.5,162.7,295.4,162.6,295.3L162.6,295.3z"/>
	<path fill="#FFFFFF" d="M252.1,234c-0.1,0.1-0.1,0.1-0.2,0.2C252,234.1,252,234.1,252.1,234L252.1,234z"/>
	<path fill="#FFFFFF" d="M261.3,234.6c0.2,0.4,0.4,0.8,0.6,1.2C261.7,235.5,261.5,235,261.3,234.6L261.3,234.6z"/>
	<path fill="#FFFFFF" d="M246.6,196c-0.1-0.1-0.1-0.1-0.2-0.2C246.5,195.9,246.5,196,246.6,196L246.6,196z"/>
	<path fill="#FFFFFF" d="M246.6,196c0.2,0.4,0.4,0.8,0.6,1.2l0,0C247,196.8,246.8,196.4,246.6,196L246.6,196z"/>
	<path fill="#FFFFFF" d="M295.6,199.7c0.1,0,0.2,0,0.3,0.1C295.8,199.7,295.7,199.7,295.6,199.7L295.6,199.7z"/>
	<path fill="#FFFFFF" d="M299.3,199.7c0.1,0,0.2,0.1,0.3,0.1C299.5,199.7,299.4,199.7,299.3,199.7L299.3,199.7z"/>
	<path fill="#FFFFFF" d="M261.9,235.9c0.2,0.2,0.4,0.4,0.6,0.6l0,0C262.3,236.3,262.1,236.1,261.9,235.9z"/>
	<path fill="#FFFFFF" d="M228.2,246.3L228.2,246.3L228.2,246.3z"/>
	<path fill="#FFFFFF" d="M252.7,233.4c-0.2,0.2-0.4,0.4-0.6,0.6l0,0C252.3,233.8,252.5,233.6,252.7,233.4L252.7,233.4z"/>
	<path fill="#FFFFFF" d="M252.7,233.4L252.7,233.4L252.7,233.4z"/>
	<path fill="#FFFFFF" d="M261.3,234.6L261.3,234.6L261.3,234.6z"/>
	<path fill="#FFFFFF" d="M262.5,236.5L262.5,236.5L262.5,236.5z"/>
	<path fill="#FFFFFF" d="M303,348.1L303,348.1L303,348.1z"/>
	<path fill="#FFFFFF" d="M217.8,394L217.8,394L217.8,394z"/>
	<path fill="#FFFFFF" d="M162.6,295.3L162.6,295.3L162.6,295.3z"/>
	<path fill="#FFFFFF" d="M176.7,88.1c0.2-0.2,0.4-0.4,0.6-0.6l0,0C177.1,87.7,176.9,87.9,176.7,88.1L176.7,88.1z"/>
	<path fill="#FFFFFF" d="M176.1,90L176.1,90L176.1,90z"/>
	<path fill="#FFFFFF" d="M176.7,88.1L176.7,88.1L176.7,88.1z"/>
	<path fill="#FFFFFF" d="M293.2,197.9L293.2,197.9L293.2,197.9z"/>
	<path fill="#FFFFFF" d="M293.2,197.9L293.2,197.9L293.2,197.9z"/>
	<path fill="#FFFFFF" d="M295.6,199.7c-0.2-0.2-0.4-0.4-0.6-0.6l0,0C295.2,199.3,295.4,199.5,295.6,199.7L295.6,199.7z"/>
	<path fill="#FFFFFF" d="M295,199.1L295,199.1L295,199.1z"/>
	<path fill="#FFFFFF" d="M198.8,102.2c0.2-0.2,0.4-0.4,0.6-0.6l0,0C199.2,101.8,199,102,198.8,102.2L198.8,102.2z"/>
	<path fill="#FFFFFF" d="M366.1,299c0.1,0.1,0.1,0.1,0.2,0.2C366.2,299.1,366.2,299.1,366.1,299C366.1,299,366.1,299,366.1,299z"/>
	<path d="M180.3,131.2c-4.7,0.2-9.3,0.3-14,0.7c-1.4,0.1-1.9-0.1-2.1-1.6c-0.1-1.2-0.9-2.3-1.5-3.4c-0.5-0.9-0.7-1.4,0.7-1.5
		c0.8-0.1,1.9-0.8,2.1-1.4c1.3-4,3.9-6,8.1-6c2.7-0.1,5.5-0.2,8.2-0.3c1.5-0.1,2.7,0.6,2.9,2.1c0.5,3.2,1,6.4,1.1,9.7
		c0,0.6-1.3,1.6-2.2,1.9C182.6,131.6,181.4,131.3,180.3,131.2C180.3,131.3,180.3,131.3,180.3,131.2z M175.4,129.6c0,0.1,0,0.1,0,0.2
		c2.7-0.3,5.3-0.6,8-0.9c-0.3-2.4-0.5-4.8-0.8-7.2c0-0.2,0-0.5-0.1-0.6c-0.4-0.5-0.9-1.2-1.4-1.4c-6.2-2.1-12.7,1.7-14.2,8.2
		c-0.3,1.4,0,1.9,1.4,1.8C170.8,129.5,173.1,129.6,175.4,129.6z"/>
	<path d="M176.3,363.9c-0.1,0-0.2,0-0.2-0.1c0-0.1,0-0.2,0-0.3c0.1,0,0.3,0.1,0.4,0.1C176.4,363.8,176.3,363.8,176.3,363.9z"/>
	<path d="M145.3,333.6c-3.4-0.3-6.7-0.6-10.1-0.8c-1.9-0.1-3.9,0-5.8-0.1c-2.8-0.1-3.4-0.9-2.6-3.6c0.3-1.2,0.5-2.4,0.7-3.6
		c0.3-1.3,0.5-2.6,1.2-3.8c0.3-0.6,1.4-0.9,2.1-1.3c0,0.7,0.3,1.5,0.1,2.2c-0.5,1.8-1.2,3.5-1.7,5.2c-0.5,1.6,0.1,2.4,2,2.4
		c3.6,0.1,7.1,0.6,10.7,0.7c2.7,0.1,5.5,0.1,8.2-0.3c0.9-0.1,1.7-1.4,2.3-2.3c0.9-1.4,1.7-3,2.6-4.4c0.2-0.2,0.8-0.5,1-0.4
		c0.3,0.2,0.5,0.8,0.4,1c-1.1,2.7-2.3,5.4-3.6,8c-0.2,0.5-1.5,0.6-2.3,0.6c-1.7,0.1-3.5,0-5.2,0
		C145.3,333.4,145.3,333.5,145.3,333.6z"/>
	<path d="M166.3,296c0.2-0.2,0.4-0.4,0.6-0.6C166.7,295.5,166.5,295.7,166.3,296z"/>
	<path fill="#FFFFFF" d="M175.4,129.6c-2.3,0-4.7-0.1-7,0c-1.4,0.1-1.7-0.4-1.4-1.8c1.5-6.4,8-10.2,14.2-8.2c0.6,0.2,1,0.9,1.4,1.4
		c0.1,0.1,0.1,0.4,0.1,0.6c0.3,2.4,0.5,4.8,0.8,7.2c-2.7,0.3-5.3,0.6-8,0.9C175.4,129.7,175.4,129.6,175.4,129.6z"/>
</g>
</svg>
