<svg xmlns="http://www.w3.org/2000/svg" viewBox="0 0 500 500" enable-background="new 0 0 500 500"><path fill="#fff" d="M243.1 138.6c-7 1.8-14.6-.1-20.9-4.7 1.1.9.9.8-.7-.4-2-1.5-3.9-3-5.8-4.5-6.2-5.1-8-15.2-5.9-22.6.5-2 1.3-3.7 2.2-5.2l-15.6-.3h-.1c-.1.6-.5 1.1-1.2 1.1s-1.3-.1-1.8-.3c-.4.1-.7 0-1-.2.1.2.3.4.5.5 1.1.3 2.2.6 3.3.8 1.6.4 3.2.7 4.9 1.1 2.6.6 2.8 2.4 2.4 4.6-.3 1.7-.6 3.5-.6 5.3 0 6.5-1.3 8.6-7.4 10.9-1.5.6-2.5 1.1-2.5 3.1 0 2.3.6 3.1 3.1 2.9 4.2-.2 8.4-.2 12.5.2s6.6 3.1 7.9 7.1c1 3 2.3 5.9 3.5 8.8.1.3.3.6.6.7 5 1.8 9.8 4.3 15.4 3.5.4-.1.8-.2 1.2-.4 4.7-2.2 9-.5 11.1 4.4.4 1 .9 1.9 1.5 2.8 1.2 1.7 1.7 3.5 1.2 5.7-.6 2.4 1.8 5.7 4.1 6.2.1 0 .3.1.3.1 2.5-3 3.1.1 4.4 1.3 1.5 1.4 3.5 2.1 4.2 4.4.7 2.2 2.4 4.2 3.7 6.2.1.1.6.1.8 0 .6-.7.7-.8 1-.2 2.2 4.2 6 4.2 9.9 3.6.3 0 .5 0 .8-.1-17.8-10.1-31.1-26.8-37-46.4zM204.5 434.4c1.9-2.4 4.4-4.4 7.2-5.8-1-.4-1.9-1-2.1-1.7-.7-2.2-1.3-4.5-1.4-6.8-.3-6.9-.5-13.9-.6-20.8 0-2.9.6-5.9.7-8.8.3-7 .7-14.1.8-21.1 0-3.2-2.1-5.2-5-5.4-1.4-.1-1.9.1-1.8 1.7.2 2.4.2 4.9.1 7.3l-1.5 40.5c-.2 7-.3 13.9-.3 20.9v.8c1.4-.5 2.6-.6 3.9-.8zM216.6 407c0 1.2 0 2.7.6 3.6 2.9 4 1.1 8.1.8 12.2l-1.1-.1c-.1.5-.4 1.3-.1 1.5.9 1 1.1 1.8.8 2.4 2.5-.4 5.2-.1 7.7.8 2.6 1 5.1 1.9 7.5 3l2.1-.6c.2-3.2.7-6.3 1.8-9.4 2.3-6.7 5.8-14.1 11.5-18.6l2.5-2c-.4-8.5.2-17.2 1.4-25.7 1.5-10.1 12.9-17.1 22.2-17.1 10.4 0 19.3 7.1 22.2 17.1v.2l.5.9c1 2.1 2.1 4.1 3 6.2 1.4 3.2 3 6.5 3.7 10 .9 4.7.8 8.3.3 12.4 16 .1 31.7-1.7 47.6-3.2 8.6-6 16.9-12.5 26.2-17.5 5-2.6 10.1-4.9 14.9-8 0-.5.1-1 .1-1.4.1-5.7-.2-11.4-.7-17-.6-7.4-1.4-14.8-2.3-22.2-.1-1-.3-2.4-.4-2.8-.3-1.9-.5-3.8-.8-5.6l-1.8-11.3c-2.7-15.6-6-31.2-9.9-46.5-1-3.9-1.9-8-3.2-11.8-1.3-.9-2.6-1.7-3.9-2.7-12.6-9.5-21.9-22-26.4-37.3-1-3.2-1.8-6.4-2.7-9.7-.4-1.4-.8-2.7-1.4-4.1-1.2-2.6-2.4-5.2-3.8-7.8-5.7.2-11.5.4-17.2.4-10 .1-19.6-1.9-28.5-5.5.4.6.8 1.2 1.2 1.9 2.3 4 4 8.4 6.6 12.2 3.8 5.5 8.5 10.1 14.7 13.4 6.7 3.6 13 8 18 13.9 6.8 8 11.6 17.5 16.9 26.5 1.4 2.4 2.6 4.6 5.2 6.1 3.2 1.8 4.9 5.1 5.9 8.6 2 7 5.8 13.1 9 19.5 4.7 9.4 7.5 19.4 9.1 29.8.7 4.4 2 8.6 2.8 13 1 6.1 1.8 12.3 2.7 18.4l2 14.1c.3 1.9 1.5 4.1-2.1 3.9-1 0-2 1.1-3 1.6-9.9 5.4-19.8 11-29.8 16.2-4.2 2.2-8.7 3.7-13.1 5.2-1.6.5-3.6.4-5.2-.2-2.1-.8-3.4-.3-4.5 1.4-.3.5-.8 1.1-1.3 1.4-.4.2-.9.1-1.4.1.1-.4 0-.8.2-1.1l2.2-3.1c1.2-1.8 2.8-2.4 4.6-1.4 3.2 2 5.9 1.2 8.9-.5 5.8-3.4 11.7-6.4 17.7-9.5l6.6-2.6c2-1 3.7-2.4 5.5-3.7.3-.2.7-.8 1-.7 4.2 1 5.4-3.8 8.8-4.6 2.1-.5 2.9-2.4 2.6-4.8-.9-7.9-1.6-15.7-2.4-23.6-.1-.7-.2-1.5-.4-2.2-2.1-9.9-3.9-19.9-6.5-29.6-1.7-6.3-4.8-12.3-7.4-18.3-2.5-5.9-5.3-11.7-7.9-17.5-1.4-3.1-2.8-5.7-5.8-7.9-2.7-2-4.2-5.7-6.1-8.6l-2.6-4.7c-4.6-6.8-8.8-13.9-14-20.2-3.5-4.2-8.2-7.5-12.8-10.5-4.6-3-9.7-5.2-13.3-9.4-3.1-3.6-6-7.3-8.4-11.3-2.6-4.3-4.4-9.1-8.4-12.5-1.7-1.4-8.6-2-10.1-.7-.2.2-.1.9.1 1.2 1.8 3.4 3.9 6.7 5.4 10.2 3.4 7.7 7.8 14.4 15 19 1.7 1.1 3.2 2.5 4.8 3.8.6-3.1 2.3-4.9 4.5-4.6.6.1 1.2.6 1.8 1-.5.4-.8 1.1-1.4 1.3-3.3 1.4-3.8 3.2-1.1 5.8 3.4 3.3 7.2 6.1 10.3 9.6 2.8 3.2 5 7 7.3 10.6 3.7 5.9 7.3 11.8 10.7 17.8 1.6 2.9 2.8 6.1 4 9.2.3.8-.1 2-.2 2.9-.7-.7-1.6-1.3-2-2.1-2.1-4.5-3.7-9.2-6.2-13.5-3.3-5.7-7.2-11-10.8-16.5l-.1.6c0 .1-.1.1-.2.1l.3-.8c-4.1-7.5-10.5-12.9-16.8-18.3-.5-.5-1.4-1.2-1.8-1.1-2.8.9-4.1-1.1-5.5-2.7-4.2-5.1-8.4-10.2-12.2-15.5-1.7-2.3-2.6-5.3-3.9-7.9-.6-1.3-1.1-2.8-2.8-.8-.4.5-1.5.3-2.3.4.1-.8 0-1.6.3-2.2 1.8-3.5 1.7-3.3-1.2-6.3-3.3-3.4-6.3-7.1-9.2-10.8-2.3-2.9-5.2-4.6-8.4-6.3-4-2.2-7.9-3.3-12.3-3.6l-.6-.1-2.8-.9c.6.9 1.1 2 1.8 2.8 4.1 4.9 10.1 7.1 15.1 10.6 1.8 1.2 3.3 2.8 5 4.2.9.8 1.9 1.5 2.9 2.3.3.2.9.3 1.1.6 1.9 4.6 6.9 7 7.7 12.6.5 3.2 3.6 6 5.4 9.1 2 3.4 3.4 7.2 7 9.5 1.5 1 2 3.4 3.2 5 5 6.6 10.3 13 15.2 19.7 3.2 4.3 6.1 8.8 8.7 13.5 3.8 6.9 7.1 14.1 10.6 21.1.4.8.8 1.8.9 2.7.5 3.7 3.4 5.3 6.1 7.1.5.3 1.5-.2 2.2-.4 1.4-.4 2.7-1.1 4.1-1.4.6-.1 1.4.6 2.1.9-.5.5-1 1.2-1.6 1.5-1.5.7-3 1.5-4.6 1.9-1.9.6-2.3 1.8-2.7 3.6-.8 3.9-2.1 7.7-3.6 11.4-.7 1.9-2.3 3.5-4.7 2.4-2.4-1-2.1-3-1.8-5.1l1.7-10.6c.3-1.6.9-3.2 1.4-4.8.2-.7.5-1.5.3-2.1-1.1-3.3-2.4-6.5-3.7-9.7-1-2.5-2-5.1-3.2-7.5-5.5-10.2-10.1-20.8-18.4-29.2-3.4-3.5-6.2-7.6-9.3-11.3-1.6-1.9-3.6-3.5-4.9-5.6-4.5-7.2-9.2-14.3-12.7-22.1-1.3-2.9-3.7-5.3-6-7.6-1.7-1.7-7.7-.3-8.6 1.8-.3.6 0 1.7.4 2.3 5.1 10.1 10.3 20 15.3 30.1 3.9 7.8 8.8 15 13.4 22.3 3.4 5.3 6.8 10.5 9.2 16.3.6 1.5 1.5 2.2 3.1 1.8 2-.4 4.1-.8 6.1-1.1.5-.1 1.1.1 1.7.1-.4.5-.7 1.2-1.1 1.4-2 .5-4 1.2-6 1.2-1.7.1-2.3.1-1.7 2.1 2.8 8.6 5.4 17.3 8.4 25.8l6.7 17.4c3.4 9.6 6.4 19.4 9.7 29.1l12.5 35.7c1.2 3.5 2 7.1 2.9 10.7.1.6-.3 1.3-.5 1.9-.5-.5-1.4-.9-1.6-1.4-.7-2.4-1-4.9-1.8-7.3-1.7-5.1-3.6-10.1-5.4-15.1l-2.3-7.9c-1.6-4.8-3.2-9.6-4.9-14.3-3.1-9-6.2-18.1-9.5-27-1.4-3.7-3.3-7.2-4.9-10.9-.9-2.1-1.8-4.3-2.5-6.4-2-6.1-3.9-12.2-5.8-18.3-1.1-3.5-2.2-7-3.4-10.5-.7-2-1.4-4-2.4-5.8-2.4-4.6-3.6-9.9-7.8-13.4-.3-.3-.6-.6-.8-1-1.8-4.2-4.2-8-7.1-11.6-3.4-4.3-5.2-9.8-7.9-14.7l-4.6-7.5c-1.8-3.3-3.9-6.6-4.8-10.2-.9-3.9-2.7-7.3-4.8-10.5-.4-.7-1.7-.8-2.5-1.2-.1.9-.4 1.9-.1 2.6 1.6 4.6 3.4 9.1 5.1 13.6.4 1.2.8 2.4.9 3.6.1.6-.2 1.3-.4 2-.5-.5-1.2-.8-1.4-1.4-1.3-3.1-2.6-6.2-3.8-9.4-2.5-6.8-4.9-13.7-7.3-20.5-2.4-6.7-4.8-13.4-7.4-20.1-1.4-3.7-3.1-7.3-4.9-10.8-.4-.7-1.3-1.2-2-1.7-.4.9-1.2 1.9-1 2.7.7 2.4 1.6 4.7 2.6 7 2.1 4.9 4.1 9.7 5.1 15.1 1.3 7.1 3 14.2 7 20.5.2.4.5.7.6 1.1 2.5 8.9 8.2 16.2 12.3 24.3.3.6 3.1 2 0 2.9.3.9.4 1.8.8 2.7 2.8 5.3 5.7 10.6 8.3 16 1.9 3.9 3.1 8 4.9 12 1.6 3.5 3.6 6.8 5.2 10.4 1.4 3 2.7 6.2 3.6 9.3 2.5 8 4.6 16 7.2 24 2.2 6.9 4.8 13.7 7.3 20.5 3.7 10.4 7.3 20.9 11.1 31.3 3.4 9.5 7 19 10.5 28.4 1 2.7 2.4 5.1 3.5 7.8.3.6 0 1.4 0 2.1-.5-.4-1.2-.7-1.5-1.3-.7-1.3-1.3-2.6-1.9-4-.6-1.3-1-2.5-2.5-3.5-1.4-.9-2.1-3.6-2.3-5.7-1-7.4-4.4-14-6.8-20.9-1.4-4-2.6-8-4.1-11.9-1.5-4-3.3-7.9-5-11.9l-.8-1.4-5.9-18.3-1.9-5c-.8-2.1-2.3-4.2-2.2-6.2.2-5.3-3-9.3-4.5-14-1.2-3.7-2-7.5-3.4-11.1-1.2-3.1-3-6-4.5-9-.3-.7-.9-1.3-1-2-.5-6.9-5.4-11.5-8.6-16.9-.6-1.1-.6-3.5-3-2.9.5 1.3.8 2.7 1.5 3.9 4.3 6.9 7.8 14.2 10.8 21.8 3 7.8 6 15.6 8.4 23.5 2.9 9.4 5.1 18.9 7.6 28.4.2.6 0 1.4-.1 2.1l-1.7-1.4c-.6-.5-1.1-1.1-1.6-1.7-.5.9-1.3 1.8-1.3 2.6.2 2.9 1.5 5.5 4.2 6.6 4.7 1.9 6.4 6.1 8 10.4 2.4 6.5 4.5 13.2 7 19.6 3.3 8.3 7 16.5 10.6 24.7 1.3 3.1 2.6 6.2 4.2 9.2.6 1.2 1.8 2.2 2.7 3.3.3.3.5.7.8 1.1-.4.2-.8.6-1.1.5-1.3-.4-3-.7-3.8-1.6-1.6-1.9-2.9-4.1-4-6.4-2.7-5.8-5-11.7-7.8-17.4-2.3-4.7-5.3-9.1-7.4-13.9-2.9-6.3-5.2-12.8-8-19.2-.7-1.6-1.8-3.1-2.9-4.5-1.6-2-4.9-2-7.5-.5-1.4.8-3 1.2-4.6 1.5-1.4.2-2.1-.5-1.9-2.1.3-2.5.1-2.6-2.1-1.5-4.9 2.6-9.8 5.2-14.6 8-3.9 2.2-7.7 4.7-11.5 7-.4.3-.9.5-1.4.6-.4 0-.9-.3-1.4-.4.3-.4.4-.9.8-1.1 4.6-2.7 9.3-5.3 13.9-7.9 5.8-3.2 11.6-6.4 17.3-9.7 2.6-1.5 4.1-1.5 6.5.4.6.5 1.2 1 1.8 1.1.8.1 1.8-.2 2.6-.3l-1.1-1.7c-.4-.6-.8-1.2-1.2-1.9-.8-1.5-1.9-2-3.3-1s-2.6.6-4.1.1c-11.2-4-22.5-7.9-33.8-11.9-.7-.2-1.2-.9-1.9-1.3.8-.1 1.7-.4 2.3-.2l29.9 10.6c2.1.8 4.2 2.7 6.4.9 2.4-1.9.9-4.4.2-6.5-1.6-4.9-3.6-9.6-5.1-14.5-1.7-5.5-3.2-11.2-4.4-16.8-1.3-6.2-2.2-12.5-3.3-18.7-.4-2.2-.8-4.4-1.4-6.5-.5-1.6-.7-1.6-2-.4-.3.2-.8.4-1.1.3-2.8-.3-4.8 1.4-6.7 2.9-6.3 5.1-12.5 10.3-18.7 15.4-1.3 1.1-1.7 2.1-1.5 3.8 1.2 8.9 2.2 17.8 3.2 26.7 0 .4.2.9.1 1.3-.1.5-.4.9-.6 1.3-.4-.4-1-.8-1.1-1.2-.5-2.8-1-5.6-1.3-8.4-1.1-9.2-2.2-18.4-3.2-27.7l-.2-1.2c-.2.4-.6.9-.5 1.3.2 4.9.3 9.9.9 14.8.9 7.9 2.1 15.8 3.3 23.7.8 5.7 1.7 11.5 2.8 17.1 1.5 7.5 2.8 15.1 3 22.7 0 .4.8 1.1 1.2 1.1.7 0 1.3-.6 2-.7.6-.2 1.3-.2 2-.3 0 .7.1 1.4 0 2.1-.5 2.7-1.4 5.3-1.5 8-.1 2.2.9 4.5 1 6.7.3 4.2-1 7.7-4.1 10.8-1.4 1.3-1.9 3.6-2.7 5.5-.7 1.8-.9 3.7-1.7 5.4-.3.7-1.3 1.6-2 1.7-.6 0-1.4-.9-1.9-1.6-2.1-3-1.4-6.5-1.8-9.8-.1-1.1-.1-2.3-.4-3.4-.5-1.9-1.3-3.7-3.7-3.7-2.3 0-4.4.6-5.3 3.1-2.2 6-2.6 12.1-2.1 18.4.2 2.2-.1 5 0 7.7zm99.5-119.9c-.3.1-.9.1-1.1-.1-.4-.3-.7-.8-.9-1.3-1.9-5.1-3.7-10.2-5.8-15.3-1.5-3.6-3.6-7-5.3-10.6-1.9-4.1-5.2-7-7.9-10.4-.5-.6-.6-1.5-.9-2.2.8.3 1.8.3 2.4.8 4.7 4 8.2 9.1 10.7 14.6 3.4 7.4 6 15.2 9 22.9.1.2.1.4.2.7-.1.4-.2.8-.4.9zm30.8-5.1c-.7.3-1.6.4-2.4.2-.8-.2-1.6-.8-2.4-1.2l2.3-.9.1.4c.6-.1 1.2-.1 1.9-.2h1.7c-.4.7-.7 1.5-1.2 1.7zm7.1 6.2c-.9-1.2-2.1-2.2-2.8-3.4-.4-.7-.1-1.8-.1-2.7.7.3 1.7.4 2.1 1 .9 1.2 1.9 2.6 2.3 4.1 2.9 8.9 7.5 17.1 10.8 25.8.7 1.8 1 3.7 1.4 5.5.1.3-.2.7-.2 1.1-.4-.3-1-.5-1.1-.8-1.8-8-7.6-14.2-9.6-22.1-.1-.4-.8-.6-1.2-.9-.8 1.2-1.6 2.3-2.3 3.5-.2.3.3 1 .6 1.4 4.4 7.5 8.9 15.1 13.3 22.5.4.6 1.2 1 1.9 1.5l-.4-3c.6.8 1.3 1.6 1.7 2.6 1.5 3.6 2.8 7.2 4.1 10.8.2.6-.2 1.3-.3 2-.5-.4-1.1-.8-1.5-1.4-1-1.4-1.8-3-2.7-4.4l-11.2-17.7c-2.6-4.2-5.3-8.3-7.8-12.5-.9-1.5-1.4-3.2-2.1-4.8l1.8-.2c4.9-1.1 6.1-4 3.3-7.9zm-13.6-14.4c1.1-1.3 2.1-3.1 3.5-3.8 1.7-.8 6 1.3 6.5 2.7.1.3.2.6.4 1.5-.7 0-1.4.2-1.7 0-2.5-2.4-4.9-2.5-7.1.4-.2.2-.8.3-1.1.2-.3-.1-.6-.9-.5-1zm-6.6 39.6c-3.3.4-6.2-.1-8.8-2.1-.5-.4-.7-1.3-1-2 .7.1 1.4 0 2 .3 2.9 1.5 5.7 2.2 8.9.9 3.2-1.3 6-4.4 5.7-7.9-.3-3.5-1.2-6.8-4.3-9.1-.9-.7-1.4-2-2.1-3.1 1.3.4 3 .4 3.7 1.2 3.2 3.4 5.7 7.3 4.9 12.5 0 5.4-3.5 8.7-9 9.3zm-51.2-40.4c-1.6.1-3.3-1.7-4.9-2.7-.1 0 .1-.6.2-.8.2-.2.7-.2.8-.1 2.4 3.2 4.4 1.3 6.4-.5.2-.2.7 0 1.1 0l.3.6c-1.3 1.3-2.6 3.5-3.9 3.5zm-44.9 71.1c-.2-1.9-.2-3.8-.5-5.7-.9-6-1.8-12.1-2.8-18.7.1-.1.4-.7.7-1.3.4.6.9 1.1 1 1.7 1.2 7.3 2.3 14.6 3.4 21.9.4 2.9.3 2.8 3.1 1.3 9-4.8 18-9.4 27-14.1.5-.3 1.3-.2 1.9-.2-.4.4-.8.9-1.3 1.2l-25.3 14c-1 .6-1.9 1.3-2.8 2-3.1 2-4.1 1.5-4.4-2.1zM335.6 336.1l-.1-.3c-.1.1-.2.2-.3.4l.3.1s0-.1.1-.2zM248.4 208l.2.1-.1-.2zM351.8 288.6l-.1.2h.2zM331.3 247.2v-.2l-.1.1z"/><path d="M383.7 367.1l-2-14.1c-.9-6.1-1.6-12.3-2.7-18.4l-2.8-13c-1.6-10.4-4.4-20.4-9.1-29.8-3.2-6.4-7-12.5-9-19.5-1-3.5-2.7-6.8-5.9-8.6-2.6-1.5-3.8-3.7-5.2-6.1-5.4-9-10.1-18.4-16.9-26.5-5-5.9-11.3-10.4-18-13.9-6.1-3.3-10.8-7.8-14.7-13.4-2.6-3.8-4.3-8.2-6.6-12.2-.4-.7-.8-1.3-1.2-1.9-3.5-1.4-6.8-3-10-4.9-.3 0-.5 0-.8.1-3.9.6-7.7.6-9.9-3.6-.3-.5-.4-.4-1 .2-.1.1-.7.1-.8 0-1.3-2-3-4-3.7-6.2-.8-2.4-2.7-3-4.2-4.4-1.2-1.2-1.9-4.3-4.4-1.3 0 0-.2-.1-.3-.1-2.3-.5-4.7-3.9-4.1-6.2.5-2.2 0-3.9-1.2-5.7-.6-.9-1.1-1.8-1.5-2.8-2-4.9-6.4-6.7-11.1-4.4-.4.2-.8.3-1.2.4-5.6.9-10.4-1.6-15.4-3.5-.2-.1-.5-.4-.6-.7-1.2-2.9-2.5-5.8-3.5-8.8-1.3-4-3.7-6.7-7.9-7.1-4.1-.4-8.3-.5-12.5-.2-2.5.1-3.1-.6-3.1-2.9 0-1.9.9-2.5 2.5-3.1 6-2.3 7.3-4.3 7.4-10.9 0-1.8.3-3.5.6-5.3.4-2.2.2-4-2.4-4.6-1.6-.4-3.2-.7-4.9-1.1l-3.3-.8c-.2-.1-.3-.3-.5-.5s-.4-.4-.5-.7c-.4.1-.9.2-1.5.1l-.8-.1h-.2c-.2.1-.5.2-.7.2h.3l-2.6.3c-3.3.4-6.6.8-9.9 1.3-2.6.4-4.2 2.1-4.5 4.6-.6 4.7-1 9.4-1.4 14.1-.1 1.9 1.6 3.3 3.5 3.3 2.1 0 4.2.2 6.2.1 1.6-.1 2.1.6 2 2-.1 1.3.1 2.8-.5 3.7-.5.7-2.1.8-3.2.9-2.1.2-4.2.3-6.2.1-4.9-.4-13.5 4.4-15 9.2-1 3.2-1.3 6.6-1.8 9.9-.1.4.4.9.6 1.3.4-.3.9-.5 1-.9.4-1.3.7-2.6 1-4 .4-1.8.7-3.7 1.3-5.5.8-2.6 2.6-4.6 5.2-5.1 6.1-1.3 12-3.7 18.4-2.2.3.1 1.1-.6 1.1-.9.1-3.6 2.2-7.2.1-10.8-.1-.1.5-.8.8-.8l12.7-.6c-1.6.7-3.1 1.9-4.7 2.1-2.9.4-3 2.3-2.8 6 .1 2.5 1.4 3.4 3.8 3.5 4.5 0 8.9.2 13.4.5 3.1.2 5.3 2 6.6 4.7 1.4 2.8 2.5 5.8 3.5 8.8.3.9-.2 2-.3 3l.9.7-.9-.7c-1.5-2.4-3.3-4.7-4.4-7.2-1.5-3.6-4.3-4.6-7.7-5-2.5-.3-5-1-7.4-1-1.7 0-3.3 1-5 1.4-2.9.6-1.6 2.7-1.6 4.3 0 1.6-.1 3.2-.1 4.7 0 3 .5 4 3.5 4.1 4 .2 7.9-.2 11.9-.3 1.7 0 3.3.2 5 .4.6.1 1.1.6 1.6.9-.5.5-1 1.2-1.5 1.3-2.2.5-4.5 1-6.8 1.1-3.4.2-6.9.1-10.4-.1-3.1-.2-3.6.2-3.1 3.2.3 1.5 1 2.9-1.5 3.2-4.4.5-5.5.1-5.8-2.6-.4-4.1-.4-4.2-4.5-4.1-4.6.1-9.2.3-13.8.6-1.9.1-3.4.8-4.1 3.2-1 3.3-4.5 3.7-7.3 4.6-.5.2-1-.1-1.6 0-.4.1-.7.4-1 .6.3.4.5 1 .8 1.1 2.2.5 4.5 1 6.7 1.2 2.2.1 4.4-.1 6.6-.5 1.2-.2 2.3-1 3.5-1.5 1-.4 2.1-.9 3.1-.9l16-.1 25-.5c1.9 0 3.7.3 5.6.5-1.1 1.7-1 2.4 1.3 2.3 1.5-.1 3.6 0 4.5.9 2.1 2 .8 5.4-2.1 6.1-1 .2-2.1.2-3.1.1l-21.6-.2-15-.5c-4.6 0-9.2.1-13.7.4-3.7.2-7.5.9-11.2 1-2.5 0-5-.6-7.4-1.1-2.4-.5-2.6-.3-2.5 2.3.1 1.8.2 3.3 2 4.2 1.7.9 1.7 2.2 0 3-2 .9-2.4 2.4-2.2 4.4.9 10.7 1.8 21.4 2.6 32.1.2 2.5.3 5 .3 7.6l.1 5 1.5 20.7c.1.7.1 1.7.5 2.1 2.3 1.8 1.4 4.1 1.3 6.4 0 3.6.5 7.3.8 10.9l.2 5.4c.5 7.6.9 15.2 1.4 22.7l1.7 18.9c.1 1.3-.3 2.7-.2 4.1.2 4.3.6 8.6.7 12.8 0 1.1-.4 2.9-1 3.1-1.8.5-1.9-1.3-2-2.5-.2-4.1-.2-8.2-.5-12.3-.1-1-1-2-1.4-3-.2-.4-.4-1-.4-1.4l-.6-17.7c-.2-5.9-.4-11.8-.8-17.7-.5-6.6-1.3-13.2-1.7-19.8l-2.7-45.4c-.5-8-1.5-15.9-2.3-23.9-.1-1-.2-2.1-.2-3.2.4-4.4-.8-8.5-1.8-12.7-.5-2.1-.1-4.5.1-6.8.2-1.4.9-2.8 1.2-4.2.6-2.6 2.1-4.2 4.3-5.5 2.2-1.3 4.2-3.1 6.1-4.7.3-.3.2-1.1.3-1.7-.5.2-1.1.3-1.5.6-3.5 2.9-8.2 4.5-10.5 8.8-1.2 2.2-2.6 4.7-2.4 7 .2 4.7 1.4 9.3 2.3 13.9-.3 4.4-.3 8.7 1.2 13.1.8 2.3.4 5 .5 7.5l1.3 31.3c.1 1.4.4 2.7.4 4.1-.1 2.9-.4 5.8-.6 8.7-.1 1.7-.4 3.5.1 5 2.2 7.5 2.8 15.3 3.3 23 .5 7.8 1 15.6 1.3 23.4.3 6.9.4 13.9.6 20.9 0 1.2.1 2.3.3 3.5.3 1.6.7 2.5-1.9 2.7-1.6.1-3.2 2.4-4.4 4.1-1.3 1.9-2.1 4.1-3.1 6.2-1.5 2.9-3.9 4.2-7.1 4.4l-7.2.6c-3 .3-5.1 1.9-6 4.8-.9 3-1.5 6.1-2.2 9.2l-.1.9-1.3 2.2c1.5 1.8 2.8 3.6 4.1 5.5.8.6 1.8 1 3 1l6.8-.2c.6 0 1.3-.1 1.8.1 4.7 2 9.7 1 14.5 1.2 1.6.1 2.8-.5 3.4-2.5 1-2.9 2.6-5.7 4.1-8.4.2-.3 1.2-.6 1.3-.5 2 3.3 5.3 2 7.9 2.1 4.8.2 6.2 1.5 5.9 6.2-.4 5.4.2 10.7 2 15.9.2.5.5 1.4.9 1.5 2.7.3 2.3 2.3 2.3 4 .3 7.4.7 14.7.9 22.1.1 5.9-.1 11.8-.2 17.7v4.8c0 1.1.4 2.8.2 3.6.5 1 .9 2.1 1.3 3.1 1.1-.2 2.3-.4 3.4-.5-1-.4-1.5-1.3-1.8-2.8-1.9-9.5.1-18.9-.5-28.4-.8-11.8-1.2-23.6-1.8-35.4-.1-1.5-.1-3-.1-4.4-.2-14.2-.3-28.5-.4-42.7-.1-10.1-.1-20.2-.1-30.3 0-8.2 0-16.4.1-24.6 0-3.7.9-4.4 4.5-4.2 6.6.2 13.1.4 19.7.7 1 .1 2.5 1 2.7 1.8 1.5 5.3 3.3 10.5 3.8 15.9.5 5.2-.3 10.5-.4 15.7 0 1.2-.1 2.3 0 3.5.4 4.1-.5 5.7-4.2 7.5-.2.1-1.1-.5-1.1-.7 0-3.1.2-6.1.3-9.2l1-27.8c0-.8.1-1.8-.1-2.5-.3-.8-1.1-1.5-1.6-2.2-.4.9-1.3 1.9-1.1 2.6 1.1 3.9-.2 7.7-.3 11.6l.2 13.2c0 5.2-.3 10.3-.5 15.5-.1 3.2-.2 6.3-.4 9.5-.4 7.3-.8 14.6-1 21.9-.1 2.9.5 5.9.5 8.8.1 4.3-.3 8.6-.1 12.9.1 3.7 1.1 7.5 1 11.2-.3 19.7-.8 39.4-1.2 59.2 0 1-.1 1.8-.2 2.4l1.6-.3v-.8c.1-7 .1-13.9.3-20.9.4-13.5 1-27 1.5-40.5.1-2.4.1-4.9-.1-7.3-.1-1.5.4-1.8 1.8-1.7 2.9.3 5.1 2.2 5 5.4-.1 7-.4 14.1-.8 21.1-.1 2.9-.8 5.9-.7 8.8 0 6.9.2 13.9.6 20.8.1 2.3.7 4.6 1.4 6.8.2.7 1.1 1.4 2.1 1.7 1.9-1 3.9-1.6 5.9-1.9.3-.6.2-1.3-.8-2.4-.2-.2.1-1 .1-1.5l1.1.1c.3-4.1 2-8.3-.8-12.2-.6-.9-.6-2.4-.6-3.6-.1-2.7.2-5.5 0-8.2-.5-6.3-.1-12.4 2.1-18.4.9-2.5 2.9-3.1 5.3-3.1s3.2 1.7 3.7 3.7c.3 1.1.2 2.3.4 3.4.3 3.3-.4 6.8 1.8 9.8.5.7 1.3 1.7 1.9 1.6.7 0 1.7-.9 2-1.7l1.7-5.4c.7-1.9 1.3-4.2 2.7-5.5 3.2-3 4.4-6.6 4.1-10.8-.1-2.3-1.1-4.5-1-6.7.1-2.7 1-5.3 1.5-8 .1-.7 0-1.4 0-2.1-.7.1-1.4.1-2 .3-.7.2-1.4.7-2 .7-.4 0-1.2-.7-1.2-1.1-.2-7.7-1.5-15.2-3-22.7-1.1-5.7-2-11.4-2.8-17.1-1.2-7.9-2.4-15.8-3.3-23.7-.6-4.9-.6-9.9-.9-14.8 0-.4.3-.9.5-1.3.1.4.2.8.2 1.2 1.1 9.2 2.1 18.4 3.2 27.7.3 2.8.8 5.6 1.3 8.4.1.5.7.8 1.1 1.2.2-.4.5-.8.6-1.3.1-.4 0-.8-.1-1.3l-3.2-26.7c-.2-1.7.2-2.7 1.5-3.8 6.3-5.1 12.5-10.3 18.7-15.4 1.9-1.6 3.9-3.3 6.7-2.9.4 0 .9-.1 1.1-.3 1.3-1.2 1.6-1.3 2 .4.6 2.1 1.1 4.3 1.4 6.5 1.1 6.2 2 12.5 3.3 18.7 1.2 5.7 2.7 11.3 4.4 16.8l5.1 14.5c.7 2.1 2.1 4.6-.2 6.5-2.3 1.8-4.3-.1-6.4-.9-10-3.6-19.9-7.1-29.9-10.6-.7-.2-1.6.1-2.3.2.6.4 1.2 1.1 1.9 1.3l33.8 11.9c1.5.5 2.7.9 4.1-.1 1.4-1 2.6-.5 3.3 1 .3.7.8 1.3 1.2 1.9.4.6.7 1.2 1.1 1.7-.9.1-1.8.4-2.6.3-.6-.1-1.3-.7-1.8-1.1-2.4-1.9-4-1.9-6.5-.4-5.7 3.3-11.5 6.5-17.3 9.7-4.7 2.6-9.3 5.2-13.9 7.9-.4.2-.5.7-.8 1.1.5.2.9.5 1.4.4.5 0 1-.3 1.4-.6 3.8-2.3 7.6-4.8 11.5-7 4.8-2.8 9.7-5.4 14.6-8 2.2-1.1 2.4-1 2.1 1.5-.2 1.6.5 2.3 1.9 2.1 1.6-.3 3.2-.7 4.6-1.5 2.6-1.5 5.8-1.5 7.5.5 1.1 1.4 2.2 2.9 2.9 4.5 2.7 6.4 5.1 12.9 8 19.2l7.4 13.9c2.8 5.7 5.1 11.7 7.8 17.4 1.1 2.3 2.4 4.5 4 6.4.8.9 2.5 1.2 3.8 1.6.3.1.7-.3 1.1-.5l-.8-1.1c-.9-1.1-2.1-2.1-2.7-3.3-1.5-3-2.8-6.1-4.2-9.2-3.6-8.2-7.3-16.4-10.6-24.7-2.6-6.4-4.7-13.1-7-19.6-1.6-4.3-3.2-8.4-8-10.4-2.7-1.1-4-3.7-4.2-6.6 0-.8.8-1.7 1.3-2.6l1.6 1.7c.5.5 1.1.9 1.7 1.4 0-.7.2-1.4.1-2.1-2.5-9.5-4.7-19-7.6-28.4-2.4-8-5.4-15.7-8.4-23.5-2.9-7.6-6.5-14.9-10.8-21.8-.7-1.2-1-2.6-1.5-3.9 2.4-.6 2.4 1.8 3 2.9 3.2 5.5 8.1 10.1 8.6 16.9 0 .7.6 1.3 1 2 1.5 3 3.3 5.9 4.5 9 1.4 3.6 2.2 7.4 3.4 11.1 1.5 4.6 4.7 8.7 4.5 14-.1 2 1.4 4.1 2.2 6.2l1.9 5 5.9 18.3c.2.5.5.9.8 1.4 1.7 4 3.5 7.9 5 11.9 1.5 3.9 2.7 8 4.1 11.9 2.4 6.9 5.9 13.5 6.8 20.9.3 2 .9 4.7 2.3 5.7 1.5 1 1.9 2.2 2.5 3.5.6 1.3 1.2 2.7 1.9 4 .3.5 1 .9 1.5 1.3 0-.7.2-1.5 0-2.1-1.1-2.6-2.5-5.1-3.5-7.8-3.6-9.4-7.1-18.9-10.5-28.4-3.8-10.4-7.4-20.8-11.1-31.3-2.4-6.8-5-13.6-7.3-20.5-2.6-7.9-4.7-16-7.2-24-1-3.2-2.3-6.3-3.6-9.3-1.6-3.5-3.6-6.8-5.2-10.4-1.8-3.9-3-8.1-4.9-12-2.6-5.4-5.6-10.6-8.3-16-.4-.8-.6-1.8-.8-2.7 3.1-.9.3-2.3 0-2.9-4.2-8.1-9.8-15.4-12.3-24.3-.1-.4-.3-.8-.6-1.1-4-6.3-5.7-13.4-7-20.5-1-5.4-3-10.2-5.1-15.1-1-2.3-1.9-4.6-2.6-7-.2-.8.6-1.8 1-2.7.7.6 1.6 1 2 1.7 1.7 3.6 3.4 7.1 4.9 10.8 2.6 6.6 5 13.4 7.4 20.1 2.5 6.8 4.9 13.7 7.3 20.5 1.2 3.2 2.4 6.3 3.8 9.4.2.6.9 1 1.4 1.4.1-.7.5-1.4.4-2-.2-1.2-.5-2.5-.9-3.6-1.7-4.6-3.4-9.1-5.1-13.6-.3-.8.1-1.7.1-2.6.9.4 2.1.5 2.5 1.2 2.1 3.3 3.9 6.6 4.8 10.5.8 3.6 3 6.9 4.8 10.2l4.6 7.5c2.7 4.9 4.5 10.3 7.9 14.7 2.9 3.7 5.3 7.4 7.1 11.6.2.4.4.7.8 1 4.2 3.5 5.4 8.9 7.8 13.4 1 1.8 1.7 3.8 2.4 5.8 1.2 3.5 2.3 7 3.4 10.5 1.9 6.1 3.8 12.2 5.8 18.3.7 2.2 1.6 4.3 2.5 6.4 1.6 3.6 3.5 7.2 4.9 10.9 3.3 9 6.4 18 9.5 27 1.7 4.8 3.3 9.5 4.9 14.3.8 2.6 1.4 5.3 2.3 7.9l5.4 15.1c.8 2.4 1.1 4.9 1.8 7.3.2.6 1 1 1.6 1.4.2-.6.7-1.4.5-1.9-.9-3.6-1.7-7.2-2.9-10.7l-12.5-35.7-9.7-29.1c-2.1-5.9-4.7-11.5-6.7-17.4-3-8.6-5.6-17.2-8.4-25.8-.6-1.9 0-2 1.7-2.1 2-.1 4-.7 6-1.2.5-.1.8-.9 1.1-1.4-.6 0-1.1-.2-1.7-.1-2.1.3-4.1.6-6.1 1.1-1.6.3-2.5-.3-3.1-1.8-2.4-5.8-5.8-11-9.2-16.3-4.7-7.3-9.6-14.5-13.4-22.3-5-10.1-10.2-20.1-15.3-30.1-.3-.7-.6-1.7-.4-2.3.9-2.1 6.9-3.5 8.6-1.8 2.3 2.3 4.7 4.7 6 7.6 3.5 7.8 8.2 14.9 12.7 22.1 1.3 2.1 3.3 3.7 4.9 5.6 3.1 3.8 5.9 7.9 9.3 11.3 8.3 8.4 12.9 19.1 18.4 29.2 1.3 2.4 2.2 5 3.2 7.5 1.3 3.2 2.5 6.4 3.7 9.7.2.6-.1 1.4-.3 2.1-.4 1.6-1.1 3.1-1.4 4.8l-1.7 10.6c-.4 2.1-.6 4.1 1.8 5.1s4-.5 4.7-2.4c1.4-3.7 2.7-7.5 3.6-11.4.4-1.9.8-3.1 2.7-3.6 1.6-.5 3.1-1.2 4.6-1.9.6-.3 1.1-1 1.6-1.5-.7-.3-1.5-1-2.1-.9-1.4.2-2.7.9-4.1 1.4-.7.2-1.8.7-2.2.4-2.7-1.8-5.6-3.4-6.1-7.1-.1-.9-.5-1.8-.9-2.7-3.5-7.1-6.8-14.2-10.6-21.1-2.5-4.7-5.5-9.2-8.7-13.5-4.9-6.7-10.2-13.1-15.2-19.7-1.2-1.6-1.7-4-3.2-5-3.6-2.3-5-6.1-7-9.5-1.8-3.1-4.9-5.9-5.4-9.1-.8-5.6-5.8-8-7.7-12.6-.1-.3-.7-.3-1.1-.6-1-.7-1.9-1.5-2.9-2.3-1.7-1.4-3.2-2.9-5-4.2-5-3.5-11-5.7-15.1-10.6-.7-.8-1.2-1.9-1.8-2.8l2.8.9c.2.1.4.1.6.1 4.4.2 8.3 1.4 12.3 3.6 3.2 1.7 6.1 3.4 8.4 6.3 2.9 3.7 5.9 7.4 9.2 10.8 2.9 3 3.1 2.7 1.2 6.3-.3.6-.2 1.5-.3 2.2.8-.1 1.9 0 2.3-.4 1.7-1.9 2.1-.5 2.8.8 1.3 2.7 2.2 5.6 3.9 7.9 3.9 5.3 8.1 10.4 12.2 15.5 1.3 1.6 2.7 3.7 5.5 2.7.4-.1 1.2.6 1.8 1.1 6.3 5.5 12.7 10.8 16.8 18.3 3.6 5.5 7.6 10.8 10.8 16.5 2.5 4.3 4.1 9 6.2 13.5.4.8 1.3 1.4 2 2.1.1-1 .5-2.1.2-2.9-1.2-3.1-2.4-6.3-4-9.2-3.4-6-7.1-11.9-10.7-17.8-2.3-3.6-4.5-7.4-7.3-10.6-3.1-3.5-6.9-6.4-10.3-9.6-2.7-2.6-2.2-4.5 1.1-5.8.5-.2.9-.9 1.4-1.3-.6-.3-1.2-.9-1.8-1-2.2-.3-3.9 1.5-4.5 4.6-1.6-1.3-3.1-2.7-4.8-3.8-7.2-4.6-11.6-11.3-15-19-1.6-3.5-3.6-6.8-5.4-10.2-.2-.3-.3-1.1-.1-1.2 1.5-1.3 8.4-.7 10.1.7 4 3.3 5.8 8.2 8.4 12.5 2.4 4 5.3 7.8 8.4 11.3 3.6 4.2 8.7 6.4 13.3 9.4 4.6 3 9.3 6.3 12.8 10.5 5.2 6.3 9.4 13.4 14 20.2l2.6 4.7c1.9 3 3.4 6.7 6.1 8.6 3 2.2 4.4 4.8 5.8 7.9 2.6 5.9 5.4 11.7 7.9 17.5 2.6 6.1 5.7 12 7.4 18.3 2.7 9.7 4.4 19.7 6.5 29.6.2.7.3 1.4.4 2.2.8 7.9 1.5 15.8 2.4 23.6.3 2.4-.5 4.3-2.6 4.8-3.4.8-4.6 5.6-8.8 4.6-.3-.1-.6.5-1 .7-1.8 1.3-3.6 2.7-5.5 3.7l-6.6 2.6c-6 3-11.9 6.1-17.7 9.5-3 1.8-5.7 2.5-8.9.5-1.7-1.1-3.4-.5-4.6 1.4l-2.2 3.1c-.2.3-.1.8-.2 1.1.5 0 1.1.1 1.4-.1.5-.3.9-.8 1.3-1.4 1.1-1.7 2.4-2.2 4.5-1.4 1.6.6 3.6.7 5.2.2 4.5-1.5 9-3 13.1-5.2 10-5.2 19.9-10.8 29.8-16.2 1-.6 2-1.7 3-1.6 4.1.6 2.8-1.6 2.5-3.5zm-210.2-252.2c0 .3-.2.5-.3.8-.1-.3-.2-.6-.2-.9.4-2.1.8-4.2 1.1-6.4-.1 2.2-.3 4.4-.6 6.5zm5.4 7.6c0-.1 0-.1-.1-.2-.3 0-.6.1-.9 0l-2.4-.6 2.4-.4c.3 0 .6 0 .9.1.8.1 1.6.2 2.4.4-.7.2-1.5.5-2.3.7zm15.5-4c-.1.2-.5.5-.7.5-2.1.2-4.3 1-6.1.5-2.5-.7-4.8-.6-7.3-.2-3.1.5-3.6-.2-3.3-3.4.1-1.2.2-2.5.3-3.8.5-4.2.7-4 4.7-5.4 4-1.3 7.6.3 11.3.6.6 0 1.3 1 1.5 1.7.4 1.3.5 2.7.7 3.9-.3 2-.7 3.8-1.1 5.6zm2.5-11.5c-.1-.5-.1-1.1-.1-1.6.6.1 1.3 0 1.8.2.5.3 1.1.9 1.2 1.4.4 4.2 1.6 8.5-.8 12.5-.2.3-.6.6-.9.9l-.2.2c.1-.1.2-.2.2-.3-.1-2.6-.1-5.2-.3-7.8-.1-1.8-.6-3.6-.9-5.5zm-18.2 53.8c-.7-.1-1.5 0-2.2 0v.4c-4.3 0-8.5-.1-12.8 0-1.4 0-1.6-.5-.9-1.4 1.1-1.2 2.4-2.7 3.7-2.9 3.9-.6 7.8-.7 11.8-.9 1.8-.1 2.7.7 2.6 2.6 0 1.6-.6 2.4-2.2 2.2zm23.3-11.9c-2.6-.1-5.2-.3-7.8-.5-.2 0-.7-.4-.6-.5l.3-6.3c.2-2.8 2.4-2.8 4.4-2.7 2.6.1 5.2.1 7.7.5 3.4.4 4.6 3.3 6.1 5.9.7 1.2 1.1 2.5 1.7 3.7l.1.2-.1-.2c-3.9 0-7.9 0-11.8-.1zm12.3 10.5c-.2.5-1.3.9-2.1.9-2.5.1-5 0-7.5 0v-.1h-7.8c-1.5 0-2.9-.6-2.7-2.3 0-.5 1.7-1.1 2.6-1.2 4.7-.3 9.4-.5 14-.6.9 0 2 .4 2.7 1 .7.5 1.1 1.6.8 2.3zm5.6-1.5c-.9 0-1.7.1-2.6.2-.1-1.2-.5-2.6-.1-3.6.3-.8 1.8-1.5 2.7-1.4 2.8.2 4.1 2.1 4.6 4.7l-4.6.1zm4.3 4.4c-.7-.3-1.3-.7-1.9-1 .4-.1.9-.4 1.2-.3.7.2 1.3.6 2 .9-.4 0-.8.2-1.3.4zm49.7 175.2c-.8-.9-1.4-1.4-1.3-1.5.5-1.1 1.1-2.1 1.7-3.1.4.5 1.2 1.1 1.1 1.5-.2.9-.8 1.8-1.5 3.1zm11.4-3.4c2.8 1.7 4.7 4.1 5.8 7.2 1.8 4.9 3.4 9.9 5.3 14.8 2 5 4.2 9.8 6.3 14.7.6 1.4 1.1 3 1.6 4.4-2.6-5.2-5.4-10.4-7.9-15.7-1.3-2.6-2.3-5.4-3.4-8.1-.2-.4-.5-.7-.6-1.1-1.3-5.9-4-11-8.1-15.4-.2-.3-.3-.7-.4-1.1.5.1 1.1 0 1.4.3zm-21.3-71.7c.2.2.4.4.5.7 1.5 4.2 3 8.4 4.5 12.7 1.2 3.4 2.6 6.8 3.8 10.3 2.2 6.6 4.2 13.2 6.3 19.9 1.2 3.9 2.3 7.8 3.4 11.7.4 1.6-1.7 4.3-3.2 4.1-.4-.1-1-.8-1.1-1.3-3.2-9.2-6.8-18.4-9.3-27.8-2-7.3-2.8-14.9-4-22.4-.4-2.3-.7-4.6-1-7.3-.2 0 0-.3.1-.6zm-67.3-88.2c0-.4 1.1-.9 1.7-1 1.1-.2 2.3-.1 3.4-.2v.2c3.4 0 6.9-.2 10.3.1 3.3.2 6.3 3.7 6.6 7 .5 5.1 1.2 10.3 1.3 15.4.1 4.8-.5 9.6-.6 14.5-.1 8.9-.7 17.7 0 26.5.5 6.7.4 13.2-.1 19.9 0 .5-.3.9-.4 1.4-.3-.4-.7-.8-.8-1.2-1.7-5-3.7-9.9-4.9-15-1-4.3-.8-8.8-1.3-13.2-.3-2.4-1.2-4.6-1.7-7-.8-4-1.1-8.1-2.1-12.1-1.5-6-3.2-12-5.3-17.8-1.5-4.1-4.1-7.8-5.8-11.9-.6-1.7-.4-3.7-.3-5.6zm23.2 90.7c-.1.8-.2 1.2-.2 1.6l-.5 2.1c-.3-.6-.6-1.2-.9-1.9-.2-.4-.3-.8-.4-1.2 0-1 0-1.9.1-2.9 0-.1.8-.3.8-.2.4 1 .8 1.9 1.1 2.5zm-66-41.1l-.7 1.2c-.1-.4-.3-.8-.3-1.2-.6-5.8-1.1-11.5-1.6-17.3-.4-4.9-.8-9.9-1.1-14.8h.4c0-2.2-.2-4.4.1-6.6.1-1 .9-2 1.7-2.8 2-1.9 2.1-2.9.6-5.2-.5-.7-.7-1.6-1.1-2.3.6-.1 1.3-.5 1.8-.3.9.4 1.8 1 2.3 1.8.3.5.1 1.4.1 2.2-.2 6.8-.8 13.7-.5 20.5.3 7.9-.6 15.7-1.3 23.6-.3.3-.2.8-.4 1.2zm.8 24.5c-.1-.3-.4-.7-.4-1 0-.2.3-.4.5-.6.1.3.2.5.3.9l-.4.7zm.2-3.6c-.2-1-.5-2-.7-2.8.8-8.1 1.4-15.9 2.2-23.8 1.4-12.5 1.6-25 1.5-37.5 0-1.3.2-2.5.4-3.7.1-.5.7-.9 1-1.4.2.5.6 1.1.6 1.6l-.5 6c-.2 4.6-.2 9.2-.3 13.9-.1 4.2-.2 8.4-.4 12.5l-.4 5.4-2.4 27c0 .9-.6 1.9-1 2.8zm3.5 38.2c-.1.3-.2.6-.2.9-.2-.4-.5-.7-.5-1.1-.2-2.5-.4-5-.6-7.6h.2c-.3-6-.7-12-.8-18-.1-3 .3-6.1.6-9.1l2.9-27.9c.7-6.6 1.4-13.2 1.8-19.8.2-3.5-.2-7.1-.3-10.6 0-1.5 0-2.9.1-4.4l.8-7.8c.3-3.1 1.4-4.2 4.5-4.4 3.3-.2 6.7-.6 10-.7 2.8-.1 3.2.6 2 3.1-.1.3-.3.6-.5.8-4 2.9-5.7 7.5-7.4 11.8-1.1 3-2.1 6.3-2.3 9.5-.5 7.6-.5 15.3-.7 23l.1.6c-1.4 4.3-.3 8.7-.6 13-.6 7.6-2.9 14.6-5.8 21.4-1 2.4-1.8 4.9-.2 7.6.4.6.1 1.6-.1 2.5-.9 5.8-1.9 11.5-3 17.2zm.4 12.5c.2-4.2.5-8.4 1.2-12.5 1-5.9 2.4-11.8 3.7-17.6.2-.9.6-1.8 1-2.6.1-.1.5-.2.7-.1 1.2.3 2.3 1 3.5 1 1.5 0 2.1-.3 1.6 1.7-1.5 6.2-2.8 12.5-4.1 18.8-1.4 6.8-2.7 13.6-4 20.4-.7 4-1.2 8.1-1.8 12.2-.1.5-.4.9-.6 1.3-.1-.5-.2-1-.3-1.4l-.8-13.2h.3c0-2.8-.5-5.4-.4-8zm-16.1 45.8c1.1-2.7 2.5-5.4 4-7.9.9-1.5 2.4-2.6 3.7-3.8.2-.2.9.1 1.4.1-.2.4-.2.9-.5 1.3-1.1 1.6-2.5 3.2-3.4 4.9-1.3 2.6-2.6 5-.7 8.2 1 1.6.5 4.3.1 6.4-.2 1-1.6 1.8-2.5 2.7l-.4-.5c-1-.1-2.2-.1-3.1-.5-.7-.3-1.6-1.4-1.5-1.8.9-3 1.8-6.1 2.9-9.1zm-7.7 3.3c.6-.1 1.2-.1 1.8-.1h1.6c-.1.3 0 .7-.2.9-.4.4-.9.6-1.2.8-.9-.3-1.4-.4-2-.6-.4-.1-.7-.3-1-.5.3-.1.6-.4 1-.5zm41.4 34.3c-.2-.3-.6-.6-.7-.9-.6-3-1.2-5.9-1.6-8.9l-.5-7.2c-.4-3.4-3.6-5.7-7.5-5.4l-2.8.3c-1.8.2-3.1-.3-4.2-2.1-1.4-2.2-3.8-1.9-4 .6-.4 4.5-4.4 6.4-6.1 9.9-.3.5-1.7.7-2.5.6-3.2-.4-6.4-1.1-9.6-1.3-2.1-.2-4.2.3-6.2.3-1.9 0-3.9.2-5.5-.5-1.4-.6-3.1-2.6-3-3.8.3-3.9 1.1-7.9 2.2-11.7.7-2.4 2.7-3.7 5.3-3.7 1.2 0 1.8 0 .6 1.3-1 1.2-.1 1.7 1 1.8 1.4.1 2.7 0 4.1.2 2.6.4 3 1.1 2.3 3.6-.6 2.4-.2 2.8 2.1 2.8 1 0 2.1-.1 3.1 0 4.5.5 5.8-.4 7.3-4.5.5-1.3 1.6-2.5 2.6-3.5 1-.9 1-1.5-.1-2.2-.4-.3-1-.4-1.4-.8-2.9-2.4-2.7-6.6.3-8.9 1.3-1 1.9-.3 2.2 1 .5 1.9.9 3.8 3.6 3.4.2 0 .6.2.8.4.5.4 1 .8 1.5 1.3.2-.8.6-1.6.5-2.3-.6-6.2.5-11.9 4-17.1-.4-1-1.1-2.1-1-3 .9-8.6 1.8-17.2 3-25.7.8-5.5 2.2-10.9 3.4-16.4.1-.5.5-.9.7-1.3.2.5.6 1 .6 1.6.5 6.7.8 13.4 1.4 20.2.5 6-2.7 10.7-4.7 15.9-.6 1.6-1.8 2.9-2.4 4.4-.4 1.2-.3 2.5-.4 3.8 4.4-5.2 7.2-11.2 8.9-17.6 1-3.6.5-7.7.3-11.6l-1.5-20.8c-.1-1.9.3-3.8.6-5.6.1-.6.8-1 1.2-1.5.4.5 1.2 1 1.2 1.6.2 2.1.3 4.2.3 6.3v14.8c-.1 6.2.1 12.5-.7 18.6-.4 3.1-2.9 6-4.3 9-2.2 4.9-4.4 9.8-6.5 14.7-.3.6.1 1.5.1 2.3.6-.3 1.3-.6 1.8-1l5.5-5.6c.3-.3.9-.4 1.3-.6.1.5.4 1 .3 1.4-.8 3.5-1.6 6.9-4.6 9.4-5.1 4.3-5.7 10.5-6.4 16.6-.1.5.1 1.1.3 1.5.5.7 1.1 1.3 1.7 1.9l.1-2.2c.2-2.4.4-4.8.8-7.1.1-.6 1.1-1.1 1.8-1.5.3-.2.8-.1 1.2-.2 1.7-.4 3.9-.4 5-1.5.9-.9.3-3.2.5-4.8.3-1.8.8-3.7 1.3-5.5.1 1.7.3 3.5.2 5.2-.1 4.8-.6 9.7-.4 14.5.2 6.4 1 12.8 1.4 19.2.2 2.3.2 4.6.3 7 .2.2 0 .6-.1.9zm-.9-65c-.4 4.4-2.8 7.3-5.8 9.7-.2.2-.7.2-1 .2 0-.3 0-.6.1-.9 1.5-3.1 3-6.2 4.6-9.3.4-.7 1.1-1.2 1.6-1.8.2.8.4 1.6.5 2.1zm-3.9 24.9c-.2.7-.9 1.5-1.5 1.9-.5.3-1.3-.1-2-.1.2-.8.2-1.9.7-2.4.8-.9 1.9-1.4 2.9-2.1 0 .9.2 1.9-.1 2.7zm16.2-75.9c-.3-.2-.5-.4-.7-.5.2-.1.4-.3.7-.4.1 0 .3.1.5.2-.2.2-.4.4-.5.7zm11.8.4v-.2h-.9l-3.1-.6 3.3-.5c4.3-.7 8.6-1.4 12.9-2.2.4-.1.8-.6 1.2-.8-.5-.1-1.1-.4-1.6-.2-7.7 2.1-15.5 2-23.4 1.8-5.9-.2-11.7.4-17.6 0-9.1-.6-7.8-1.8-4.9-8 2.1-4.6 3.7-9.2 3.5-14.5-.3-6.5.6-13 .9-19.5.1-3.5-.2-7 0-10.4.6-7.8 1.2-15.7 5.1-22.6 2.3-4.2 5.5-7.9 8.5-11.6 1.2-1.5 8.9-1.6 9.9-.1.8 1.1.6 2.9.8 4.4.2 1.4-.1 3 .5 4.1 1.8 3.3 4 6.4 5.9 9.7 1.1 2 2.3 4.1 2.7 6.3 1.7 8.2 3.3 16.5 4.7 24.8.8 5.1 1.6 10.2 1.7 15.3.1 5.3 3 9.6 4.5 14.4.6 2.1 1.4 4.2 1.9 6.3.4 1.7-.6 2.3-2.1 2.5-4.8.5-9.6 1-14.4 1.6zm6.7 3.7c-.6-2.1.4-3 2.3-3.1 1.1-.1 2.3 0 3.4 0 1.9-.1 3 .7 3.6 2.7 1.7 5.6 4.6 10.9 3.7 16.6v15.6c0 .4-.4.8-.6 1.2-.2-.4-.4-.7-.5-1.1-1.2-3.6-2.4-7.2-3.5-10.8-.3-1-.6-2.1-.6-3.1.1-2.5 0-4.7-3.1-5.2-.5-.1-1.1-1-1.3-1.6-1.2-3.7-2.3-7.4-3.4-11.2zm-1.8 45.1c.2-.8 1.3-1.4 2-2.1.5.8 1.4 1.5 1.5 2.4.3 2.8.3 5.6.5 8.5h.1c0 2.2.2 4.4-.1 6.5-.1 1-1.3 1.9-1.9 2.8-.8-.8-1.9-1.5-2.2-2.5-2.1-5.3-1.2-10.5.1-15.6zm-1.8 19.5c.2-.3 1.8.1 2.5.5 1.2.7 1.4 4.2.4 5.2-.9 1-1.9 1.9-2.9 2.7-.1.1-.8-.2-.8-.4-.2-1.5-.3-2.9-.6-5 .4-.6.7-2 1.4-3zm11.3 94.7c-.5-.4-1.2-.6-1.4-1.1-.5-1.4-1-2.8-1.1-4.2-.2-2.3 0-4.6-.1-6.9l-.8-18.3c-.1-4.8.1-9.7.2-14.5.2-5.8.7-11.6.7-17.4 0-2.3-1-4.5-1.4-6.8-.2-1-.2-2.1-.3-3.1-.3 1.2-.9 2.4-.9 3.5-.1 5.6-.1 5.6-5 3.8-.9-.3-1.7-1.6-2.1-2.6-.4-.9-.2-2.1-.2-3.1 0-1.1.1-2.1.2-3.5 0-.6.2-1.6 0-2.5-.9-4.4 2.2-6.9 4.6-9.7.3-.4 1.1-.4 1.6-.7.2.6.5 1.1.5 1.7l.1 9.2c0 .6.6 1.2.9 1.8.3-.6 1-1.2 1-1.8 0-6.1-.1-12.2-.2-18.3 0-1.8-.3-3.6-.4-5.4-.1-12.3-.2-24.6-.2-36.9 0-1.5.6-3 .9-4.4.3 1.5.9 2.9 1 4.4.4 6.3.8 12.6 1 18.9.1 3.8-.4 7.7-.2 11.6.2 5 .8 9.9 1.2 14.9.2 2.1.4 4.2.4 6.3l-.3 15.8c0 8.2.2 16.4.3 24.6l.1 1.3c-.9 5.3-1.2 10.6-.5 16 .5 3.7.6 7.5.8 11.3.2 4.8.2 9.7.2 14.5.2.6-.3 1.1-.6 1.6zm1.8-92.1c.1-4 0-8 0-12h-.1l-1-20.5c-.1-1.4.4-2.9.7-4.3.5 1.2 1.1 2.4 1.4 3.7 2 7.8 3.3 15.6 3.3 23.7 0 3.1.5 6.2.5 9.4 0 1.3.3 2.9-2 2.8-1.8-.1-2.9-.7-2.8-2.8zm21.5 26.2c.2-.7.8-1.2 1.2-1.8.7.6 1.8 1.1 2.1 1.9.6 1.3-1.4 4.5-2.8 4.7-.4 0-.8-1.1-1-1.4.2-1.6.2-2.6.5-3.4zm-1.1 17.3l.1-8.2c0-.6.5-1.7.9-1.8.7-.1 1.7.3 2.2.8 2 2.1 1.2 10-1.2 11.8-.5.4-1.1.5-1.7.7-.1-.6-.3-1.1-.3-1.7v-1.6zm-2.9-35.9c.3 2 .7 4.1 1.1 6.1.4 2.3 1 4.5 1.2 6.8.1 1.4-.3 2.8-.4 4.3-.4 4.4-.8 8.7-1 13.1l-.6 17c-.1 1.2-.4 2.5-.9 3.7-.5 1.3-1.6 1.3-1.9 0-.4-1.5-.4-3.1-.3-4.7.2-2.5.6-5 .9-7.5.1-.6-.3-1.2-.4-1.7-.3.3-.6 1-.9 1-.5 0-1.1-.4-1.5-.7-1.4-1-2.6-2.2-4.1-3-2.2-1.2-4.2-.8-5.9 1.2-.3.4-1.1.4-1.6.7-.1-.5-.4-1-.4-1.5 0-2.2-.2-4.4 0-6.6.1-1.9.7-3.2 3.2-2.2 2.6 1 3.9-.6 3.2-3.3-.5-1.9-1.3-3.8-1.4-5.8-.1-2.9-1.2-2.7-3-1.4-1.2.8-1.5.1-1.5-.9 0-5.2 0-10.3.1-15.5 0-.4.5-.8.7-1.2.4.3 1 .4 1.3.8l1.9 3.2c.2.3 1 .6 1.3.5.3-.1.7-.8.7-1.2.3-5.2.7-10.3.6-15.5-.1-6.2-.8-12.4-1.2-18.6-.8-12.2-1.6-24.4-.5-36.7.1-1.6.1-3.2.1-4.7.2-9.1.6-18.1.6-27.2 0-10.3-.4-20.7-.5-31-.1-6.3.1-12.6 0-19 0-3-.5-6.1-.6-9.1 0-.9.6-1.8 1-2.7.4.9 1.2 1.7 1.2 2.6.4 10.1.8 20.2.9 30.3.1 7.3-.4 14.5-.4 21.8l.7 6.3c.1 9.5.1 19.1.2 28.7.2 14.3.3 28.7.6 43 .2 10.3.7 20.6.5 30.9-.1 6.2-1.5 12.3-2.2 18.5-.1.9.3 1.9.4 2.9.7-.4 1.5-.8 2.2-1 .8-.3 1.9-1 2.5-.7.6.3 1.1 1.5 1.1 2.3l-.4 9.7c0 .8.6 1.6.9 2.4.5-.7 1.3-1.4 1.3-2.1.3-5.9.6-11.9.8-17.8.1-5.1.3-9.8.4-14.5zm-16.1 21c.4-1.2 1.2-2.2 1.9-3.3.5.9 1.1 1.8 1.9 3.1-.9.8-1.7 1.4-2.4 2.1-.5-.6-1.5-1.5-1.4-1.9zm11.3-51.3c.3.7.8 1.4.9 2.2.9 5.7 1.7 11.4 2.5 17.1 0 .2 0 .4.1.6l.3 4c-.5-1.3-1.3-2.5-1.6-3.8-.9-4.1-1.6-8.2-2.3-12.2l.5-.1c-.2-1.9-.4-3.7-.5-5.6-.1-.7.1-1.5.1-2.2zm.4 28c0-.3.2-.6.3-.9.2.3.6.6.7.9.2 1.8.1 3.6.4 5.3.3 2.6.8 5.2 1.3 8-.3 1.4-.3 3.1-1 4.4-.4.9-1.9 1.2-2.9 1.8l-1.2-2.6v-.3c2.4-5.2 2-10.9 2.4-16.6zm1.8-71.4c0-.3.2-1.1.1-1.8-.2-2.3.9-3.3 3.2-3.1 1.7.2 3.4.3 5.1.4-1.3 1.2-2.5 2.4-3.8 3.5-1 .9-2.2 1.6-3.3 2.3-1.2.8-1.7.6-1.3-1.3zm18.7-3l-15.8 12.9c-.3.3-.7.5-1.1.6l-1.3.5c0-.6-.2-1.3 0-1.8 1.1-1.8 2.1-3.8 3.6-5.1 3.3-2.8 7-5.4 10.5-7.9.9-.6 2-.9 3.1-1.4l1.7.8c-.2.6-.3 1.1-.7 1.4zm8-9.7c.5.7 1.3 1.4 1.4 2.2.2 3.1-2.5 1.7-4 2.6-.4-.2-.9-.4-1.5-.6 1.4-1.4 2.8-2.8 4.1-4.2zm-1.3-5.5c.5 1.8-.3 2.6-1.8 3.5-2.9 1.6-5.6 3.6-8.4 5.3.1-2 .3-4 .5-5.9.4-3.7-.6-5.1-4.4-5.8l-2.5-.4c-.2 0-.5-.3-.7-.5.3-.1.6-.3.8-.3l13.1.3c2.6 0 2.9 1.9 3.4 3.8zm-12.4 4.6c.1 1.9-1.6 2.1-3.2 2.2-1.5.1-2.9.2-4.4.4-3.3.5-3.6.2-4-3.5.7-1.4 1.2-3.6 2.3-3.9 2.5-.8 5.3-1.1 7.8-.6.9.3 1.4 3.6 1.5 5.4zm7.5-26c.4 1.5.8 2.8 1.2 4.2-.2 0-.5.1-.5.1l-1.3-3.8s.3-.2.6-.5zm-22.3-54.4c.3-.5 1.3-.5 1.9-.7-.1.6-.3 1.1-.3 1.7-.1 3.6.7 6.8 2.6 9.9 1.5 2.5 2.6 5.2 3.8 7.9 1.8 4.3 3.5 8.6 5.2 12.8 1 2.4 2 4.7.7 7.5-.7 1.5-.2 3 .8 4.7 1.5 2.2 2.4 4.9 3.3 7.5 1.7 4.4 3.2 8.9 4.7 13.4.3.9.6 1.8.8 2.7.3 1.5-.3 2.4-2 2.5-6.4.1-12.7.3-19 .4-.6 0-1.1.2-1.7.4.5.4 1 .9 1.5 1.2.5.3 1 .4 1.6.7-.5.3-1.1.6-1.5 1-.7.9-1.5 1.9-1.8 3-.4 1.4-.4 2.9-.6 4.4-.3 2.6.5 3.9 3.1 4 4.6.1 9.1-.2 13.7-.4-4 .8-8 2-12.1 2.4-5.2.5-5.4.4-5.5 5.7 0 1.1-.4 2.3-.6 3.4 0-11.7.1-23.4 0-35.1-.1-9.5-.5-18.9-.5-28.4 0-7.7.5-15.4.8-23.1l-.2-6.3c.2-1.1.7-2.3 1.3-3.2zm4.2-19.5c-.1-.2.5-.9.5-.9.5.2 1.3.4 1.4.7.2 1.3.1 2.7.1 4-.6-1.2-1.3-2.5-2-3.8zm2.8 7l-.7-2.9 1.1 2.7-.4.2zm88.4 126.8l.9.9c-.3.2-.6.4-.9.5-.4 0-.7-.2-1.1-.3l1.1-1.1zm.8 6.5c.2.1.3.8.6 1.7-1.2 2.6-2.5 5.4-3.8 8.2l-.8.8c-.1-.4-.4-.9-.4-1.3l.3-6.4c-.1-1.9 2.2-3.6 4.1-3zm-81.9-117.8c.8.3 1.7.5 2.4 1 3 2 6 4.1 8.9 6.2 1.4 1 2.6 2 3.9 3.1.3.2.4.7.7 1.2-.3.3-.6.6-.9.8-2.6 1.3-5.2 2.6-7.9 3.7-.5.2-1.9-.2-2.1-.7-1.8-4.2-3.5-8.5-5.1-12.9-.2-.7.1-1.6.1-2.4zm-4.8-20.8c.4-1.5-.1-3.8 2.5-4.2 1.5-.2 4.4 2.8 4.6 4.6 0 .4-.7 1-1.2 1.2-.9.3-2.1.3-2.9.7-2.6 1.2-3.1.8-3-2.3zm6.7 10c-1.9-.2-3.6-.4-3.7-2.7 0-2.4 1-3.5 3-3.5 1.8.1 3.6 1.8 3.5 3.3-.1 1.8-1 3-2.8 2.9zM233.2 341.1v.5c-.1-.2-.1-.4-.2-.7.1 0 .2.1.2.2zM144 183.8l-.6.6c.1-.3.1-.6.2-.8.1.1.3.2.4.2zM296.2 221.2l.6.6.3.1c-.1 0-.2 0-.3-.1l-.6-.6zM294.3 219.9zM174.8 106.5l.6-.6.2-.2-.2.2c-.1.2-.3.4-.6.6zM252.8 256.7l-.6.6-.2.2.2-.2.6-.6zM262.8 259.9l-.6-.6c-.2-.4-.4-.8-.6-1.3.2.4.4.8.6 1.3.2.1.4.4.6.6zM246.5 218c.2.4.4.8.6 1.3l.4.6v-.2c-.1-.1-.3-.2-.4-.4-.2-.4-.4-.8-.6-1.3l-.2-.2.2.2zM160.4 320.7l.2.2c-.1 0-.2-.1-.2-.2zM223.7 174.3c-.1-.1-.3-.3-.4-.3-.2 0-.3.2-.4.3.1.1.3.3.4.3l.4-.3zM175.2 325.3c.1-.2.1-.4.1-.6 0-.1-.2-.1-.3-.2 0 .1-.1.2 0 .3 0 .2.1.3.2.5zM209.9 404.3l-.1-.2-.1.2c.1.1.2.2.2.3-.1-.1-.1-.2 0-.3zM209.9 412.6l-.1-.2c-.1.1-.2.1-.2.2l.2.3c.1-.2.1-.2.1-.3zM235.8 246.4l.3-.1-.2-.2-.3.1c0 .1.1.1.2.2zM233.1 338.1l-.2-.1v.3zM226 177.7v.2l.1-.1zM228.1 168.3l-.2-.1v.2zM324.1 292.4l-.1.2h.2zM220.3 150.6h.2l-.1-.2zM369.1 324.5l-.4-3c.6.8 1.3 1.6 1.7 2.6 1.5 3.6 2.8 7.2 4.1 10.8.2.6-.2 1.3-.3 2-.5-.4-1.1-.8-1.5-1.4-1-1.4-1.8-3-2.7-4.4l-11.2-17.7c-2.6-4.2-5.3-8.3-7.8-12.5-.9-1.5-1.4-3.2-2.1-4.9.6-.1 1.2-.1 1.9-.2 4.8-.8 6-3.7 3.2-7.6-.9-1.2-2.1-2.2-2.8-3.4-.4-.7-.1-1.8-.1-2.7.7.3 1.7.4 2.1 1 .9 1.2 1.9 2.6 2.3 4.1 2.9 8.9 7.5 17.1 10.8 25.8.7 1.8 1 3.7 1.4 5.5.1.3-.2.7-.2 1.1-.4-.3-1-.5-1.1-.8-1.8-8-7.6-14.2-9.6-22.1-.1-.4-.8-.6-1.2-.9-.8 1.2-1.6 2.3-2.3 3.5-.2.3.3 1 .6 1.4 4.4 7.5 8.9 15.1 13.3 22.5.4.5 1.2.8 1.9 1.3l.2.2c-.1 0-.2-.1-.2-.2zM234.4 319.8c.1-.1.4-.7.7-1.3.4.6.9 1.1 1 1.7 1.2 7.3 2.3 14.6 3.4 21.9.4 2.9.3 2.8 3.1 1.3 9-4.8 18-9.4 27-14.1.5-.3 1.3-.2 1.9-.2-.4.4-.8.9-1.3 1.2l-25.3 14c-1 .6-1.9 1.3-2.8 2-3 1.9-4 1.4-4.4-2.1-.2-1.9-.2-3.8-.5-5.7-.9-6.1-1.8-12.1-2.8-18.7zM316.5 286.4c-.1.2-.2.6-.4.7-.3.1-.9.1-1.1-.1-.4-.3-.7-.8-.9-1.3-1.9-5.1-3.7-10.2-5.8-15.3-1.5-3.6-3.6-7-5.3-10.6-1.9-4.1-5.2-7-7.9-10.4-.5-.6-.6-1.5-.9-2.2.8.3 1.8.3 2.4.8 4.7 4 8.2 9.1 10.7 14.6 3.4 7.4 6 15.2 9 22.9.1.4.1.6.2.9zM342.9 304.2c-.1 5.3-3.6 8.6-9 9.2-3.3.4-6.2-.1-8.8-2.1-.5-.4-.7-1.3-1-2 .7.1 1.4 0 2 .3 2.9 1.5 5.7 2.2 8.9.9 3.2-1.3 6-4.4 5.7-7.9-.3-3.5-1.2-6.8-4.3-9.1-.9-.7-1.4-2-2.1-3.1 1.3.4 3 .4 3.7 1.2 3.1 3.5 5.6 7.4 4.9 12.6zM350.7 274.2c-.7 0-1.4.2-1.7 0-2.5-2.4-4.9-2.5-7.1.4-.2.2-.8.3-1.1.2-.3-.1-.5-.8-.4-1 1.1-1.3 2.1-3.1 3.5-3.8 1.7-.8 6 1.3 6.5 2.7l.3 1.5zM286.5 269.5c-1.3 1.3-2.6 3.4-4 3.5-1.6.1-3.3-1.7-4.9-2.7-.1 0 .1-.6.2-.8.2-.2.7-.2.8-.1 2.4 3.2 4.4 1.3 6.4-.5.2-.2.7 0 1.1 0 .2.2.3.4.4.6zM344.5 280.6c.6-.1 1.2-.1 1.9-.2h1.7c-.4.6-.6 1.4-1.2 1.6-.7.3-1.6.4-2.4.2-.8-.2-1.6-.8-2.4-1.2l2.3-.9c0 .3.1.4.1.5zM335.6 336.1c-.1.1-.1.2-.2.2l-.3-.1c.1-.1.2-.2.3-.4l.2.3zM248.4 208l.1-.1.1.2zM351.8 288.6l.1.2h-.2zM331.3 247.2l-.1-.1.1-.1zM317.6 243.4l-.1.6c0 .1-.1.1-.2.1 0-.2.1-.5.3-.7zM349 296z"/><path fill="#fff" d="M130.6 379.7c4-1 8.2-.9 12.2.2 11.8 1.7 20.3 9.1 27 19.1 5.4 8 4 17.7-1.1 24.8 1.1.7 2.1 1.6 3.1 2.5 2.3 2.1 4.2 4.8 5.6 7.7.2-.9-.2-2.5-.2-3.6 0-1.6-.1-3.2 0-4.8.1-5.9.3-11.8.2-17.7-.1-7.4-.6-14.7-.9-22.1-.1-1.7.4-3.8-2.3-4-.3 0-.7-.9-.9-1.5-1.8-5.1-2.4-10.5-2-15.9.4-4.7-1.1-6-5.9-6.2-2.7-.1-6 1.2-7.9-2.1 0-.1-1.1.2-1.3.5-1.5 2.8-3.1 5.5-4.1 8.4-.7 1.9-1.8 2.6-3.4 2.5-4.9-.2-9.8.8-14.5-1.2-.5-.2-1.2-.2-1.8-.1-2.3.1-4.5.3-6.8.2-1.2 0-2.2-.4-3-1 1.2 1.7 2.3 3.5 3.3 5.3 1.7 3.1 3.2 6 4.7 9zM224.7 165.4c-.9-.9-3-.9-4.5-.9-2.3.1-2.5-.6-1.3-2.3-1.9-.2-3.7-.6-5.6-.5l-25 .5-16 .1c-1 0-2.1.5-3.1.9-1.2.5-2.3 1.3-3.5 1.5-2.2.4-4.4.6-6.6.5-2.3-.1-4.5-.7-6.7-1.2-.3-.1-.6-.7-.8-1.1.3-.2.7-.5 1-.6.5-.1 1.1.2 1.6 0 2.8-1 6.3-1.3 7.3-4.6.7-2.4 2.2-3 4.1-3.2 4.6-.3 9.2-.6 13.8-.6 4.1-.1 4.1 0 4.5 4.1.3 2.7 1.4 3.1 5.8 2.6 2.4-.3 1.7-1.7 1.5-3.2-.5-3 .1-3.4 3.1-3.2 3.4.2 6.9.2 10.4.1 2.3-.1 4.5-.6 6.8-1.1.6-.1 1-.9 1.5-1.3-.5-.3-1-.8-1.6-.9-1.6-.2-3.3-.4-5-.4-4 0-7.9.4-11.9.3-2.9-.1-3.5-1.1-3.5-4.1 0-1.6.1-3.2.1-4.7 0-1.6-1.3-3.7 1.6-4.3 1.7-.4 3.3-1.4 5-1.4 2.5 0 4.9.7 7.4 1 3.4.4 6.2 1.4 7.7 5 1.1 2.6 2.9 4.8 4.4 7.2.1-1 .6-2.1.3-3-1-3-2.1-6-3.5-8.8-1.3-2.6-3.6-4.5-6.6-4.7-4.5-.3-8.9-.5-13.4-.5-2.5 0-3.7-1-3.8-3.5-.2-3.7-.1-5.6 2.8-6 1.6-.2 3.2-1.4 4.7-2.1l-12.7.6c-.3 0-.8.7-.8.8 2.1 3.6 0 7.2-.1 10.8 0 .3-.8 1-1.1.9-6.4-1.6-12.4.9-18.4 2.2-2.6.5-4.3 2.6-5.2 5.1-.6 1.8-.8 3.7-1.3 5.5-.3 1.3-.6 2.7-1 4-.1.4-.7.6-1 .9-.2-.4-.6-.9-.6-1.3.5-3.3.8-6.8 1.8-9.9 1.6-4.8 10.1-9.7 15-9.2 2.1.2 4.2 0 6.2-.1 1.1-.1 2.7-.2 3.2-.9.6-.9.5-2.4.5-3.7.1-1.4-.4-2.1-2-2-2.1.1-4.1-.1-6.2-.1-1.9 0-3.6-1.4-3.5-3.3.3-4.7.7-9.5 1.4-14.1.3-2.2 1.5-3.7 3.5-4.4l-.7.1-.2.2c-1.5.9-3.3.7-5 .4-1.7-.3-2.6-1.4-2.9-2.6h-1l.4 1.1c.7 2.7.6 5.6-.3 8.3 9.3 8.9.3 25.7-12.1 24.2l-.4.4c-.6.5-1.2 1-1.7 1.5-4.2 7.9-8.3 16.7-15.5 22.1l-1.5 2.2c.4 2 .7 3.9 1 5.9 1.1 9.8.9 19.7.4 29.6l.5.9c2.7 6 5.9 12.1 7.1 18.6 1 5.5.9 10.5-2 15.5-2.6 4.5-6.9 7.9-11.9 9.2-1.4.4-2.9.6-4.3.7l-.4.8c2 3.5 3.3 7.6 3.6 11.9.7 10.4 1.3 20.9.9 31.3-.4 11.5-.9 24.9-5.3 35.7-3.3 7.9-6.7 13.7-12.3 20.2-.5.6-1.9 2.4-2.8 3.5-.8 1.7-1.3 3.3-.6.8l-.9 2.5v1.1c4.2 3.3 8 7 11.3 11 .3-.8 1.1-1.4 1.3-2.2l.1-.9c.7-3.1 1.4-6.2 2.2-9.2.8-2.9 2.9-4.5 6-4.8 2.4-.2 4.8-.5 7.2-.6 3.2-.2 5.6-1.5 7.1-4.4 1-2.1 1.8-4.3 3.1-6.2 1.2-1.6 2.8-4 4.4-4.1 2.5-.2 2.1-1.1 1.9-2.7-.2-1.1-.2-2.3-.3-3.5-.2-7-.3-13.9-.6-20.9-.3-7.8-.9-15.6-1.3-23.4-.5-7.8-1.1-15.5-3.3-23-.5-1.5-.1-3.3-.1-5 .2-2.9.5-5.8.6-8.7 0-1.4-.3-2.7-.4-4.1-.5-10.4-.9-20.9-1.3-31.3-.1-2.5.3-5.2-.5-7.5-1.5-4.3-1.5-8.7-1.2-13.1-.8-4.6-2-9.3-2.3-13.9-.1-2.3 1.3-4.8 2.4-7 2.3-4.3 7-5.9 10.5-8.8.4-.3 1-.4 1.5-.6-.1.6 0 1.4-.3 1.7-2 1.7-3.9 3.4-6.1 4.7-2.2 1.3-3.8 2.9-4.3 5.5-.3 1.4-1 2.8-1.2 4.2-.2 2.3-.6 4.6-.1 6.8 1 4.2 2.2 8.3 1.8 12.7-.1 1 .1 2.1.2 3.2.8 8 1.7 15.9 2.3 23.9l2.7 45.4 1.7 19.8c.4 5.9.6 11.8.8 17.7l.6 17.7c0 .5.2 1 .4 1.4.5 1 1.4 2 1.4 3 .3 4.1.3 8.2.5 12.3.1 1.2.2 2.9 2 2.5.6-.1 1-2 1-3.1-.1-4.3-.5-8.6-.7-12.8l.2-4.1-1.7-18.9c-.6-7.6-1-15.1-1.4-22.7l-.2-5.4c-.3-3.6-.8-7.3-.8-10.9 0-2.3 1-4.6-1.3-6.4-.4-.3-.5-1.4-.5-2.1-.5-6.9-1.1-13.8-1.5-20.7-.1-1.7-.1-3.3-.1-5-.1-2.5-.2-5-.3-7.6-.8-10.7-1.7-21.4-2.6-32.1-.2-1.9.2-3.4 2.2-4.4 1.7-.8 1.7-2.1 0-3-1.9-.9-2-2.4-2-4.2-.1-2.6.1-2.7 2.5-2.3 2.5.5 4.9 1.1 7.4 1.1 3.7-.1 7.5-.8 11.2-1 4.6-.3 9.2-.4 13.7-.4 5 0 10 .4 15 .5 7.2.1 14.4.2 21.6.2 1 0 2.1.1 3.1-.1 2.5-.3 3.8-3.6 1.7-5.7zm-63.6-20.4c.8-.1 1.9-.8 2.2-1.5 1.3-4.1 4-6.2 8.3-6.3l8.4-.3c1.6-.1 2.7.6 3 2.2.5 3.3 1 6.7 1.2 10 0 .6-1.3 1.7-2.3 2-1 .3-2.3.1-3.4.1v-.1c-4.8.2-9.6.3-14.4.7-1.5.1-2-.1-2.1-1.7-.1-1.2-.9-2.4-1.5-3.5-.6-1-.8-1.5.6-1.6zM186.4 101.4l2.6-.3h-.3c-.5.1-1 .1-1.5 0-.6.1-1.3.2-2 .2-.5 0-1-.2-1.4-.3h-1.1c-.6.1-1.2.3-1.8.3-2.2.1-2.8.7-4.6 1.4l-.5.2c.2-.1.4-.1.7-.1 3.2-.6 6.5-1 9.9-1.4zM174.4 391.6c.1-.1.1-.2.2-.2l-.4-.1v.3h.2zM178 365.7c0 1.5 0 3 .1 4.4.6 11.8 1.1 23.6 1.8 35.4.6 9.5-1.4 18.9.5 28.4.3 1.6.8 2.5 1.8 2.8 2.6-.4 5.3-.7 7.9-.8 1.4 0 2.7.1 3.8.4.6-.1 1.2-.3 1.9-.4 1.1-.2 2.2-.4 3.2-.7.2-.5.2-1.3.2-2.4.4-19.7.9-39.4 1.2-59.2.1-3.7-.9-7.5-1-11.2-.2-4.3.2-8.6.1-12.9 0-2.9-.6-5.9-.5-8.8.2-7.3.7-14.6 1-21.9.2-3.2.3-6.3.4-9.5.2-5.2.4-10.3.5-15.5 0-4.4-.3-8.8-.2-13.2.1-3.9 1.3-7.7.3-11.6-.2-.7.7-1.7 1.1-2.6.6.7 1.3 1.4 1.6 2.2.3.7.2 1.7.1 2.5-.3 9.3-.6 18.5-1 27.8-.1 3.1-.3 6.1-.3 9.2 0 .3.9.8 1.1.7 3.7-1.7 4.6-3.3 4.2-7.5-.1-1.1 0-2.3 0-3.5.2-5.2 1-10.6.4-15.7-.6-5.4-2.3-10.7-3.8-15.9-.2-.8-1.8-1.8-2.7-1.8-6.5-.4-13.1-.5-19.7-.7-3.7-.1-4.5.5-4.5 4.2-.1 8.2-.1 16.4-.1 24.6 0 10.1 0 20.2.1 30.3.2 14.4.4 28.6.5 42.9zM199.6 263h-.9l-3.1-.6 3.3-.5c4.3-.7 8.6-1.4 12.9-2.2.4-.1.8-.6 1.2-.8-.5-.1-1.1-.4-1.6-.2-7.7 2.1-15.5 2-23.4 1.8-5.9-.2-11.7.4-17.6 0-9.1-.6-7.8-1.8-4.9-8 2.1-4.6 3.7-9.2 3.5-14.5-.3-6.5.6-13 .9-19.5.1-3.5-.2-7 0-10.4.6-7.8 1.2-15.7 5.1-22.6 2.3-4.2 5.5-7.9 8.5-11.6 1.2-1.5 8.9-1.6 9.9-.1.8 1.1.6 2.9.8 4.4.2 1.4-.1 3 .5 4.1 1.8 3.3 4 6.4 5.9 9.7 1.1 2 2.3 4.1 2.7 6.3 1.7 8.2 3.3 16.5 4.7 24.8.8 5.1 1.6 10.2 1.7 15.3.1 5.3 3 9.6 4.5 14.4.6 2.1 1.4 4.2 1.9 6.3.4 1.7-.7 2.3-2.1 2.5-4.8.6-9.6 1.1-14.3 1.7-.1-.2-.1-.3-.1-.3zM245.9 258.6c-4 .8-8.1 2-12.1 2.4-5.2.5-5.4.4-5.5 5.7 0 1.1-.4 2.3-.6 3.4 0-11.7.1-23.4 0-35.1-.1-9.5-.5-18.9-.5-28.4 0-7.7.5-15.4.8-23.1l-.2-6.3c.1-1.1.6-2.2 1.1-3.1.3-.5 1.3-.5 1.9-.7-.1.6-.3 1.1-.3 1.7-.1 3.6.7 6.8 2.6 9.9 1.5 2.5 2.6 5.2 3.8 7.9 1.8 4.3 3.5 8.6 5.2 12.8 1 2.4 2 4.7.7 7.5-.7 1.5-.2 3 .8 4.7 1.5 2.2 2.4 4.9 3.3 7.5 1.7 4.4 3.2 8.9 4.7 13.4.3.9.6 1.8.8 2.7.3 1.5-.3 2.4-2 2.5-6.4.1-12.7.3-19 .4-.6 0-1.1.2-1.7.4.5.4 1 .9 1.5 1.2.5.3 1 .4 1.6.7-.5.3-1.1.6-1.5 1-.7.9-1.5 1.9-1.8 3-.4 1.4-.4 2.9-.6 4.4-.3 2.6.5 3.9 3.1 4 4.7 0 9.3-.3 13.9-.5zM164.8 320.7c4.4-5.2 7.2-11.2 8.9-17.6 1-3.6.5-7.7.3-11.6l-1.5-20.8c-.1-1.9.3-3.8.6-5.6.1-.6.8-1 1.2-1.5.4.5 1.2 1 1.2 1.6.2 2.1.3 4.2.3 6.3v14.8c-.1 6.2.1 12.5-.7 18.6-.4 3.1-2.9 6-4.3 9-2.2 4.9-4.4 9.8-6.5 14.7-.3.6.1 1.5.1 2.3.6-.3 1.3-.6 1.8-1l5.5-5.6c.3-.3.9-.4 1.3-.6.1.5.4 1 .3 1.4-.8 3.5-1.6 6.9-4.6 9.4-5.1 4.3-5.7 10.5-6.4 16.6-.1.5.1 1.1.3 1.5.5.7 1.1 1.3 1.7 1.9l.1-2.2c.2-2.4.4-4.8.8-7.1.1-.6 1.1-1.1 1.8-1.5.3-.2.8-.1 1.2-.2 1.7-.4 3.9-.4 5-1.5.9-.9.3-3.2.5-4.8.3-1.8.8-3.7 1.3-5.5.1 1.7.3 3.5.2 5.2-.1 4.8-.6 9.7-.4 14.5.2 6.4 1 12.8 1.4 19.2.2 2.3.2 4.6.3 7 0 .4-.2.8-.3 1.2-.2-.3-.6-.6-.7-.9-.6-3-1.2-5.9-1.6-8.9l-.5-7.2c-.4-3.4-3.6-5.7-7.5-5.4l-2.8.3c-1.8.2-3.1-.3-4.2-2.1-1.4-2.2-3.8-1.9-4 .6-.4 4.5-4.4 6.4-6.1 9.9-.3.5-1.7.7-2.5.6-3.2-.4-6.4-1.1-9.6-1.3-2.1-.2-4.2.3-6.2.3-1.9 0-3.9.2-5.5-.5-1.4-.6-3.1-2.6-3-3.8.3-3.9 1.1-7.9 2.2-11.7.7-2.4 2.7-3.7 5.3-3.7 1.2 0 1.8 0 .6 1.3-1 1.2-.1 1.7 1 1.8 1.4.1 2.7 0 4.1.2 2.6.4 3 1.1 2.3 3.6-.6 2.4-.2 2.8 2.1 2.8 1 0 2.1-.1 3.1 0 4.5.5 5.8-.4 7.3-4.5.5-1.3 1.6-2.5 2.6-3.5 1-.9 1-1.5-.1-2.2-.4-.3-1-.4-1.4-.8-2.9-2.4-2.7-6.6.3-8.9 1.3-1 1.9-.3 2.2 1 .5 1.9.9 3.8 3.6 3.4.2 0 .6.2.8.4.5.4 1 .8 1.5 1.3.2-.8.6-1.6.5-2.3-.6-6.2.5-11.9 4-17.1l.8-.8zm-22.2 39.6v-.3c1.8 0 3.6.1 5.3 0 .8 0 2.1-.2 2.3-.6 1.4-2.7 2.5-5.5 3.7-8.3.1-.3-.1-.9-.4-1.1-.2-.1-.9.1-1 .4-.9 1.5-1.6 3.1-2.6 4.6-.6.9-1.5 2.3-2.4 2.4-2.8.4-5.6.4-8.4.3-3.7-.1-7.3-.6-10.9-.7-2 0-2.5-.8-2-2.5l1.7-5.4c.2-.7 0-1.5-.1-2.3-.7.4-1.8.7-2.1 1.3-.6 1.2-.9 2.6-1.2 3.9-.3 1.2-.4 2.5-.8 3.7-.8 2.7-.3 3.6 2.6 3.7l5.9.1c3.5.2 7 .5 10.4.8zM201.8 173.2c3.4 0 6.9-.2 10.3.1 3.3.2 6.3 3.7 6.6 7 .5 5.1 1.2 10.3 1.3 15.4.1 4.8-.5 9.6-.6 14.5-.1 8.9-.7 17.7 0 26.5.5 6.7.4 13.2-.1 19.9 0 .5-.3.9-.4 1.4-.3-.4-.7-.8-.8-1.2-1.7-5-3.7-9.9-4.9-15-1-4.3-.8-8.8-1.3-13.2-.3-2.4-1.2-4.6-1.7-7-.8-4-1.1-8.1-2.1-12.1-1.5-6-3.2-12-5.3-17.8-1.5-4.1-4.1-7.8-5.8-11.9-.7-1.6-.5-3.7-.4-5.6 0-.4 1.1-.9 1.7-1 1.1-.2 2.3-.1 3.4-.2.1.1.1.1.1.2zM233.3 341.6l1.1 6.2c.4 2.3 1 4.5 1.2 6.8.1 1.4-.3 2.8-.4 4.3-.4 4.4-.8 8.7-1 13.1l-.6 17c-.1 1.2-.4 2.5-.9 3.7-.5 1.3-1.6 1.3-1.9 0-.4-1.5-.4-3.1-.3-4.7.2-2.5.6-5 .9-7.5.1-.6-.3-1.2-.4-1.7-.3.3-.6 1-.9 1-.5 0-1.1-.4-1.5-.7-1.4-1-2.6-2.2-4.1-3-2.2-1.2-4.2-.8-5.9 1.2-.3.4-1.1.4-1.6.7-.1-.5-.4-1-.4-1.5 0-2.2-.2-4.4 0-6.6.1-1.9.7-3.2 3.2-2.2 2.6 1 3.9-.6 3.2-3.3-.5-1.9-1.3-3.8-1.4-5.8-.1-2.9-1.2-2.7-3-1.4-1.2.8-1.5.1-1.5-.9 0-5.2 0-10.3.1-15.5 0-.4.5-.8.7-1.2.4.3 1 .4 1.3.8l1.9 3.2c.2.3 1 .6 1.3.5.3-.1.7-.8.7-1.2.3-5.2.7-10.3.6-15.5-.1-6.2-.8-12.4-1.2-18.6-.8-12.2-1.6-24.4-.5-36.7.1-1.6.1-3.2.1-4.7.2-9.1.6-18.1.6-27.2 0-10.3-.4-20.7-.5-31-.1-6.3.1-12.6 0-19 0-3-.5-6.1-.6-9.1 0-.9.6-1.8 1-2.7.4.9 1.2 1.7 1.2 2.6.4 10.1.8 20.2.9 30.3.1 7.3-.4 14.5-.4 21.8l.7 6.3c.1 9.5.1 19.1.2 28.7.2 14.3.3 28.7.6 43 .2 10.3.7 20.6.5 30.9-.1 6.2-1.5 12.3-2.2 18.5-.1.9.3 1.9.4 2.9.7-.4 1.5-.8 2.2-1 .8-.3 1.9-1 2.5-.7.6.3 1.1 1.5 1.1 2.3l-.4 9.7c0 .8.6 1.6.9 2.4.5-.7 1.3-1.4 1.3-2.1.3-5.9.6-11.9.8-17.8.1-5.1.3-9.8.4-14.6zM157.3 275.1c-.3-6-.7-12-.8-18-.1-3 .3-6.1.6-9.1l2.9-27.9c.7-6.6 1.4-13.2 1.8-19.8.2-3.5-.2-7.1-.3-10.6 0-1.5 0-2.9.1-4.4l.8-7.8c.3-3.1 1.4-4.2 4.5-4.4 3.3-.2 6.7-.6 10-.7 2.8-.1 3.2.6 2 3.1-.1.3-.3.6-.5.8-4 2.9-5.7 7.5-7.4 11.8-1.1 3-2.1 6.3-2.3 9.5-.5 7.6-.5 15.3-.7 23l.1.6c-1.4 4.3-.3 8.7-.6 13-.6 7.6-2.9 14.6-5.8 21.4-1 2.4-1.8 4.9-.2 7.6.4.6.1 1.6-.1 2.5-1 5.7-2 11.4-3.1 17.1-.1.3-.2.6-.2.9-.2-.4-.5-.7-.5-1.1-.2-2.5-.4-5-.6-7.6.2.1.2.1.3.1zM201.9 352c0-.6.2-1.6 0-2.5-.9-4.4 2.2-6.9 4.6-9.7.3-.4 1.1-.4 1.6-.7.2.6.5 1.1.5 1.7l.1 9.2c0 .6.6 1.2.9 1.8.3-.6 1-1.2 1-1.8 0-6.1-.1-12.2-.2-18.3 0-1.8-.3-3.6-.4-5.4-.1-12.3-.2-24.6-.2-36.9 0-1.5.6-3 .9-4.4.3 1.5.9 2.9 1 4.4.4 6.3.8 12.6 1 18.9.1 3.8-.4 7.7-.2 11.6.2 5 .8 9.9 1.2 14.9.2 2.1.4 4.2.4 6.3l-.3 15.8c0 8.2.2 16.4.3 24.6l.1 1.3c-.9 5.3-1.2 10.6-.5 16 .5 3.7.6 7.5.8 11.3.2 4.8.2 9.7.2 14.5 0 .5-.5 1-.7 1.5-.5-.4-1.2-.6-1.4-1.1-.5-1.4-1-2.8-1.1-4.2-.2-2.3 0-4.6-.1-6.9l-.8-18.3c-.1-4.8.1-9.7.2-14.5.2-5.8.7-11.6.7-17.4 0-2.3-1-4.5-1.4-6.8-.2-1-.2-2.1-.3-3.1-.3 1.2-.9 2.4-.9 3.5-.1 5.6-.1 5.6-5 3.8-.9-.3-1.7-1.6-2.1-2.6-.4-.9-.2-2.1-.2-3.1.1-.9.2-1.9.3-3.4zM263.7 263s.2-.3.3-.6c.2.2.4.4.5.7 1.5 4.2 3 8.4 4.5 12.7 1.2 3.4 2.6 6.8 3.8 10.3 2.2 6.6 4.2 13.2 6.3 19.9 1.2 3.9 2.3 7.8 3.4 11.7.4 1.6-1.7 4.3-3.2 4.1-.4-.1-1-.8-1.1-1.3-3.2-9.2-6.8-18.4-9.3-27.8-2-7.3-2.7-14.9-4-22.4-.6-2.3-.8-4.6-1.2-7.3zM159.4 303.3c-.2-2.6-.7-5.3-.6-7.9.2-4.2.5-8.4 1.2-12.5 1-5.9 2.4-11.8 3.7-17.6.2-.9.6-1.8 1-2.6.1-.1.5-.2.7-.1 1.2.3 2.3 1 3.5 1 1.5 0 2.1-.3 1.6 1.7-1.5 6.2-2.8 12.5-4.1 18.8-1.4 6.8-2.7 13.6-4 20.4-.7 4-1.2 8.1-1.8 12.2-.1.5-.4.9-.6 1.3-.1-.5-.2-1-.3-1.4l-.8-13.2c.3-.1.4-.1.5-.1zM219.4 283.1v15.6c0 .4-.4.8-.6 1.2-.2-.4-.4-.7-.5-1.1-1.2-3.6-2.4-7.2-3.5-10.8-.3-1-.6-2.1-.6-3.1.1-2.5 0-4.7-3.1-5.2-.5-.1-1.1-1-1.3-1.6-1.2-3.7-2.3-7.4-3.4-11.1-.6-2.1.4-3 2.3-3.1 1.1-.1 2.3 0 3.4 0 1.9-.1 3 .7 3.6 2.7 1.7 5.5 4.6 10.8 3.7 16.5zM195.5 113c-.4 1.9-.7 3.7-1.1 5.5-.1.2-.5.5-.7.5-2.1.2-4.3 1-6.1.5-2.5-.7-4.8-.6-7.3-.2-3.1.5-3.6-.2-3.3-3.4.1-1.2.2-2.5.3-3.8.5-4.2.7-4 4.7-5.4 4-1.3 7.6.3 11.3.6.6 0 1.3 1 1.5 1.7.4 1.4.5 2.8.7 4zM164.2 321.3c-.4-1-1.1-2.1-1-3 .9-8.6 1.8-17.2 3-25.7.8-5.5 2.2-10.9 3.4-16.4.1-.5.5-.9.7-1.3.2.5.6 1 .6 1.6.5 6.7.8 13.4 1.4 20.2.5 6-2.7 10.7-4.7 15.9-.6 1.6-1.8 2.9-2.4 4.4-.4 1.2-.3 2.5-.4 3.8-.2.1-.4.3-.6.5zM150.5 191.7c0-2.2-.2-4.4.1-6.6.1-1 .9-2 1.7-2.8 2-1.9 2.1-2.9.6-5.2-.5-.7-.7-1.6-1.1-2.3.6-.1 1.3-.5 1.8-.3.9.4 1.8 1 2.3 1.8.3.5.1 1.4.1 2.2-.2 6.8-.8 13.7-.5 20.5.3 7.9-.6 15.7-1.3 23.6 0 .4 0 .9-.2 1.3l-.7 1.2c-.1-.4-.3-.8-.3-1.2-.6-5.8-1.1-11.5-1.6-17.3-.4-4.9-.8-9.9-1.1-14.8-.1-.1.1-.1.2-.1zM213.8 149c-3.9 0-7.9.1-11.8 0-2.6-.1-5.2-.3-7.8-.5-.2 0-.7-.4-.6-.5l.3-6.3c.2-2.8 2.4-2.8 4.4-2.7 2.6.1 5.2.1 7.7.5 3.4.4 4.6 3.3 6.1 5.9.7 1 1.2 2.3 1.7 3.6zM215.7 322.1l-1-20.5c-.1-1.4.4-2.9.7-4.3.5 1.2 1.1 2.4 1.4 3.7 2 7.8 3.3 15.6 3.3 23.7 0 3.1.5 6.2.5 9.4 0 1.3.3 2.9-2 2.8-1.9-.1-2.9-.6-2.9-2.7.1-4 0-8 0-12 .1-.1 0-.1 0-.1zM154.2 242c.8-8.1 1.4-15.9 2.2-23.8 1.4-12.5 1.6-25 1.5-37.5 0-1.3.2-2.5.4-3.7.1-.5.7-.9 1-1.4.2.5.6 1.1.6 1.6l-.5 6c-.2 4.6-.2 9.2-.3 13.9-.1 4.2-.2 8.4-.4 12.5l-.4 5.4-2.4 27c-.1 1-.7 1.9-1.1 2.9-.1-1.2-.4-2.1-.6-2.9zM259.1 188.5c-.3.3-.6.6-.9.8-2.6 1.3-5.2 2.6-7.9 3.7-.5.2-1.9-.2-2.1-.7-1.8-4.2-3.5-8.5-5.1-12.8-.3-.7.1-1.6.1-2.4.8.3 1.7.5 2.4 1 3 2 6 4.1 8.9 6.2 1.4 1 2.6 2 3.9 3.1.3.1.4.6.7 1.1zM144.5 352.7c-1-.1-2.2-.1-3.1-.5-.7-.3-1.6-1.4-1.5-1.8.8-3.1 1.6-6.2 2.8-9.2 1.1-2.7 2.5-5.4 4-7.9.9-1.5 2.4-2.6 3.7-3.8.2-.2.9.1 1.4.1-.2.4-.2.9-.5 1.3-1.1 1.6-2.5 3.2-3.4 4.9-1.3 2.6-2.6 5-.7 8.2 1 1.6.5 4.3.1 6.4-.2 1-1.6 1.8-2.5 2.7 0-.1-.1-.3-.3-.4zM245.9 258.6l.5-6c.4-3.7-.6-5.1-4.4-5.8l-2.5-.4c-.2 0-.5-.3-.7-.5.3-.1.6-.3.8-.3l13.1.3c2.6 0 2.8 1.9 3.4 3.8.5 1.8-.3 2.6-1.8 3.5-2.9 1.7-5.6 3.6-8.4 5.4zM208.5 320.7c0 2.2.2 4.4-.1 6.5-.1 1-1.3 1.9-1.9 2.8-.8-.8-1.9-1.5-2.2-2.5-1.9-5.2-1-10.4.2-15.5.2-.8 1.3-1.4 2-2.1.5.8 1.4 1.5 1.5 2.4.3 2.8.3 5.6.5 8.5v-.1zM232.2 253.5c.7-1.4 1.2-3.6 2.3-3.9 2.5-.8 5.3-1.1 7.8-.6.8.2 1.3 3.4 1.4 5.3.1 1.9-1.6 2.1-3.2 2.2-1.5.1-2.9.2-4.4.4-3.3.6-3.5.4-3.9-3.4zM204.8 160.3h-7.8c-1.5 0-2.9-.6-2.7-2.3 0-.5 1.7-1.1 2.6-1.2 4.7-.3 9.4-.5 14-.6.9 0 2 .4 2.7 1 .5.5.9 1.6.7 2.3-.2.5-1.3.9-2.1.9-2.4 0-4.9-.1-7.4-.1zM176.5 161.2c-4.3 0-8.5-.1-12.8 0-1.4 0-1.6-.5-.9-1.4 1.1-1.2 2.4-2.7 3.7-2.9 3.9-.6 7.8-.7 11.8-.9 1.8-.1 2.7.7 2.6 2.6-.1 1.6-.7 2.3-2.3 2.2-.7-.1-1.5 0-2.2 0 .1.2.1.3.1.4zM248.5 262.9l1.7.8c-.3.4-.4.9-.8 1.2l-15.8 12.9c-.3.3-.7.5-1.1.6l-1.3.5c0-.6-.2-1.3 0-1.8 1.1-1.8 2.1-3.8 3.6-5.1 3.3-2.8 7-5.4 10.5-7.9 1-.4 2.1-.7 3.2-1.2zM304.3 375.2c-2.6-5.2-5.4-10.4-7.9-15.7-1.3-2.6-2.3-5.4-3.4-8.1-.2-.4-.5-.7-.6-1.1-1.3-5.9-4-11-8.1-15.4-.2-.3-.3-.7-.4-1.1.5 0 1-.1 1.4.2 2.8 1.7 4.7 4.1 5.8 7.2 1.8 4.9 3.4 9.9 5.3 14.8 2 5 4.2 9.8 6.3 14.7.7 1.5 1.1 3 1.6 4.5zM231.5 352.8c-.3 1.4-.3 3.1-1 4.4-.4.9-1.9 1.2-2.9 1.8l-1.2-2.6v-.3c2.4-5.3 2-11.1 2.4-16.7 0-.3.2-.6.3-.9.2.3.6.6.7.9.2 1.8.1 3.6.4 5.3l1.3 8.1zM236.3 377.6c0-2.7-.1-5.5 0-8.2 0-.6.5-1.7.9-1.8.7-.1 1.7.3 2.2.8 2 2.1 1.2 10-1.2 11.8-.5.4-1.1.5-1.7.7-.1-.6-.3-1.1-.3-1.7 0-.5 0-1 .1-1.6zM238.4 156.2c.4-1.5-.1-3.8 2.5-4.2 1.5-.2 4.4 2.8 4.6 4.6 0 .4-.7 1-1.2 1.2-.9.3-2.1.3-2.9.7-2.6 1.2-3.1.8-3-2.3zM228.9 319.2c-.2-1.9-.4-3.7-.5-5.6 0-.7.1-1.4.2-2.2.3.7.8 1.4.9 2.2.9 5.7 1.7 11.4 2.5 17.1 0 .2 0 .4.1.6l.3 4c-.5-1.3-1.3-2.5-1.6-3.8-.9-4.1-1.6-8.2-2.3-12.2.1-.1.2-.1.4-.1zM230.7 268c0-.3.2-1.1.1-1.8-.2-2.3.9-3.3 3.2-3.1 1.7.2 3.4.3 5.1.4-1.3 1.2-2.5 2.4-3.8 3.5-1 .9-2.2 1.6-3.3 2.3-1.2.8-1.7.6-1.3-1.3zM198.1 120.4c-.1-2.6-.1-5.2-.3-7.8-.1-1.9-.6-3.7-.9-5.6-.1-.5-.1-1.1-.1-1.6.6.1 1.3 0 1.8.2.5.3 1.1.9 1.2 1.4.4 4.2 1.6 8.5-.8 12.5-.2.4-.6.6-.9.9zM245.1 166.2c-1.9-.2-3.6-.4-3.7-2.7 0-2.4 1-3.5 3-3.5 1.8.1 3.6 1.8 3.5 3.3-.1 1.8-1 3-2.8 2.9zM175.5 313.8c-.4 4.4-2.8 7.3-5.8 9.7-.2.2-.7.2-1 .2 0-.3 0-.6.1-.9 1.5-3.1 3-6.2 4.6-9.3.4-.7 1.1-1.2 1.6-1.8.2.8.4 1.6.5 2.1zM201.4 334.6c.3-.7.6-2.1 1.3-3.1.2-.3 1.8.1 2.5.5 1.2.7 1.4 4.2.4 5.2-.9 1-1.9 1.9-2.9 2.7-.1.1-.8-.2-.8-.4-.2-1.4-.3-2.8-.5-4.9zM224.5 157.8l-4.6.1c-.9 0-1.7.1-2.6.2-.1-1.2-.5-2.6-.1-3.6.3-.8 1.8-1.5 2.7-1.4 2.8.2 4.2 2.1 4.6 4.7zM325.6 296.5c-1.2 2.6-2.5 5.4-3.8 8.2l-.8.8c-.1-.4-.4-.9-.4-1.3l.3-6.4c.1-1.9 2.3-3.6 4.2-3 .2 0 .2.7.5 1.7zM236.8 363.6c.2-1.5.2-2.5.5-3.3.2-.7.8-1.2 1.2-1.8.7.6 1.8 1.1 2.1 1.9.6 1.3-1.4 4.5-2.8 4.7-.3-.1-.8-1.3-1-1.5zM254.8 260.1c-.4-.2-.9-.4-1.5-.6l4-4.2c.5.7 1.3 1.4 1.4 2.2.3 3.1-2.4 1.7-3.9 2.6zM220.9 362.5c-.9.8-1.7 1.4-2.4 2.1-.5-.6-1.5-1.5-1.3-1.9.4-1.2 1.2-2.2 1.9-3.3.5.9 1 1.8 1.8 3.1zM171.7 335.9c0 .9.2 1.9-.1 2.8-.2.7-.9 1.5-1.5 1.9-.5.3-1.3-.1-2-.1.2-.8.2-1.9.7-2.4.8-.9 1.9-1.5 2.9-2.2zM219.9 264.9c-.1.8-.2 1.2-.2 1.6l-.5 2.1c-.3-.6-.6-1.2-.9-1.9-.2-.4-.3-.8-.4-1.2 0-1 0-1.9.1-2.9 0-.1.8-.3.8-.2.4 1 .8 1.9 1.1 2.5zM273.9 337.5c-.8-.9-1.4-1.4-1.3-1.5.5-1.1 1.1-2.1 1.7-3.1.4.5 1.2 1.1 1.1 1.5-.2.9-.8 1.8-1.5 3.1zM235.2 158.4l-2.1-3.9c-.1-.2.5-.9.5-.9.5.2 1.3.4 1.4.7.2 1.4.2 2.8.2 4.1zM137 346.1c-.9-.3-1.4-.4-2-.6-.4-.1-.7-.3-1-.5.3-.2.7-.4 1-.5.6-.1 1.2-.1 1.8-.1h1.6c-.1.3 0 .7-.2.9-.3.4-.8.6-1.2.8zM178.8 122.3c-.3 0-.6.1-.9 0l-2.4-.6 2.4-.4c.3 0 .6 0 .9.1.8.1 1.6.2 2.4.4l-2.4.7v-.2zM174.2 108.4c-.2 2.2-.4 4.4-.7 6.6 0 .3-.2.5-.3.8-.1-.3-.2-.6-.2-.9.4-2.2.8-4.4 1.2-6.5zM251.2 228.4c.4 1.5.8 2.8 1.2 4.2-.2 0-.5.1-.5.1l-1.3-3.8s.3-.2.6-.5zM224.2 162.3c-.7-.3-1.3-.7-1.9-1 .4-.1.9-.4 1.2-.3.7.2 1.3.6 2 .9-.4 0-.8.2-1.3.4zM324.3 288.3l.9.9c-.3.2-.6.4-.9.5-.4 0-.7-.2-1.1-.3l1.1-1.1zM155.1 247.6c-.2.3-.3.5-.4.8-.1-.3-.4-.7-.4-1 0-.2.3-.4.5-.6.1.2.2.4.3.8zM235.2 158.5c.4.9.8 1.9 1.1 2.8 0 0-.3.1-.4.2l-.7-3zM187.8 262.8c-.3-.2-.5-.4-.7-.5.2-.1.4-.3.7-.4.1 0 .3.1.5.2-.2.2-.4.4-.5.7zM223.7 174.3c-.1.1-.3.3-.4.3-.1 0-.3-.2-.4-.3.1-.1.3-.3.4-.3l.4.3zM175.2 325.3c-.1-.2-.2-.3-.2-.5v-.3c.1.1.3.1.3.2l-.1.6zM209.9 404.3v.3c-.1-.1-.2-.2-.2-.3 0 0 .1-.1.1-.2 0 .1 0 .2.1.2zM143.4 184.4c.1-.3.1-.6.2-.8.1.1.2.2.4.2l-.6.6zM209.9 412.6c0 .1 0 .2-.1.2-.1-.1-.2-.2-.2-.3l.2-.2.1.3zM217 149.6l.9.7-.9-.7zM235.8 246.4l-.2-.2.3-.1c.1 0 .2.1.2.2-.2 0-.3 0-.3.1zM233.1 338.1l-.2.2v-.3zM226 177.7l.1.1-.1.1zM233.3 341.6c-.1-.2-.2-.5-.2-.7l.2.2v.5zM228.1 168.3l-.2.1v-.2zM324.1 292.4l.1.2h-.2zM247.1 219.3c.1.1.3.2.4.4v.2c-.1-.2-.2-.4-.4-.6zM220.3 150.6l.1-.2.1.2zM171.7 335.9c0-.1 0-.2.1-.3-.1.2-.1.2-.1.3zM175.5 105.8l.2-.2-.2.2zM224.5 157.8l.2.2c-.1 0-.1-.1-.2-.2zM213.8 148.9l.1.2s0-.1-.1-.2zM218.8 162.3l.2-.2-.2.2zM160.4 320.7l.2.2c-.1 0-.2-.1-.2-.2zM252.2 257.3l-.2.2.2-.2zM261.6 258c.2.4.4.8.6 1.3-.2-.5-.4-.9-.6-1.3zM246.5 218l-.2-.2c.1.1.1.2.2.2zM246.5 218c.2.4.4.8.6 1.3-.2-.4-.4-.8-.6-1.3zM296.8 221.8c.1 0 .2 0 .3.1-.1 0-.2 0-.3-.1zM300.6 221.8l.3.1c-.2 0-.3 0-.3-.1zM262.2 259.2l.6.6c-.2-.1-.4-.4-.6-.6zM227.6 270zM252.8 256.7l-.6.6.6-.6zM252.8 256.7zM261.6 258zM262.8 259.9zM304.3 375.2zM217 422.8zM160.4 320.7zM174.8 106.5l.6-.6-.6.6zM174.2 108.4zM174.8 106.5zM294.3 219.9zM294.3 219.9zM296.8 221.8l-.6-.6.6.6zM296.2 221.2zM197.5 121.1l.6-.6c-.2.1-.4.3-.6.6zM369.1 324.5l.2.2c-.1 0-.2-.1-.2-.2z"/><path d="M178.5 151.1c-4.8.2-9.6.3-14.4.7-1.5.1-2-.1-2.1-1.7-.1-1.2-.9-2.4-1.5-3.5-.5-.9-.7-1.4.7-1.6.8-.1 1.9-.8 2.2-1.5 1.3-4.1 4-6.2 8.3-6.3l8.4-.3c1.6-.1 2.7.6 3 2.2.5 3.3 1 6.7 1.2 10 0 .6-1.4 1.7-2.3 2-1.1.3-2.4 0-3.5 0zm-5-1.8v.2c2.7-.3 5.5-.6 8.2-1l-.8-7.5c0-.2 0-.5-.1-.6-.5-.5-.9-1.2-1.5-1.4-6.3-2.2-13 1.8-14.5 8.4-.3 1.4 0 1.9 1.5 1.9h7.2zM174.4 391.6c-.1 0-.2 0-.2-.1v-.3l.4.1c-.1.2-.1.2-.2.3zM142.6 360.3l-10.3-.9-5.9-.1c-2.9-.1-3.4-1-2.6-3.7.4-1.2.5-2.5.8-3.7.3-1.3.6-2.7 1.2-3.9.3-.6 1.4-.9 2.1-1.3 0 .8.3 1.6.1 2.3l-1.7 5.4c-.5 1.7.1 2.5 2 2.5l10.9.7c2.8.1 5.7.1 8.4-.3.9-.1 1.7-1.5 2.4-2.4 1-1.5 1.7-3.1 2.6-4.6.2-.3.8-.5 1-.4.3.2.5.8.4 1.1-1.2 2.8-2.3 5.6-3.7 8.3-.3.5-1.5.6-2.3.6-1.8.1-3.6 0-5.3 0-.1.2-.1.3-.1.4zM164.1 321.4l.7-.7-.7.7z"/><path fill="#fff" d="M173.5 149.3c-2.4 0-4.8-.1-7.2 0-1.5.1-1.8-.4-1.5-1.9 1.5-6.6 8.2-10.6 14.5-8.4.6.2 1 .9 1.5 1.4.1.1.1.4.1.6l.8 7.5c-2.7.3-5.5.6-8.2 1v-.2z"/></svg>