<?xml version="1.0" encoding="utf-8"?>
<!-- Generator: Adobe Illustrator 17.1.0, SVG Export Plug-In . SVG Version: 6.00 Build 0)  -->
<!DOCTYPE svg PUBLIC "-//W3C//DTD SVG 1.1//EN" "http://www.w3.org/Graphics/SVG/1.1/DTD/svg11.dtd">
<svg version="1.1" id="Ebene_1" xmlns="http://www.w3.org/2000/svg" xmlns:xlink="http://www.w3.org/1999/xlink" x="0px" y="0px"
	 viewBox="0 0 500 500" enable-background="new 0 0 500 500" xml:space="preserve">
<g>
	<path d="M374.9,315.4c-0.1-0.5-0.2-1.1-0.5-1.5c-3.8-6.5-7.5-13.1-11.4-19.4c-4.7-7.6-9.5-15.2-16.4-21.2c-2.4-2.1-4.3-4.9-6.2-7.5
		c-5.4-7.4-12-13.5-18.4-19.9c-2.8-2.8-5-6.2-7.5-9.3c-3.1-3.7-6.5-7.2-9.4-11.1c-4.5-6.1-8.7-12.3-13-18.6
		c-5.3-7.8-11.1-14.8-19.6-19.4c-3.2-1.7-5.8-4.5-8.8-6.6c-1.3-0.9-2.8-1.6-4.3-2.2c-0.3-0.1-0.9,0.2-1.4,0.4c0.3,0.4,0.4,1,0.8,1.2
		c1.2,0.7,2.7,1,3.8,1.8c2.7,2.1,5.4,4.3,8,6.6c3.3,2.9,6.4,6.1,10,8.7c5.6,4,9.2,9.6,13,15.1c3.7,5.3,7.5,10.5,11.5,15.6
		c3.3,4.3,6.7,8.5,10.2,12.5c4.2,4.8,8.7,9.3,13,14c4.1,4.4,8.1,8.9,12,13.5c4.2,4.9,8.4,9.8,12.5,14.8c7.1,8.5,12.3,18.2,17.5,27.9
		c2.9,5.5,3.8,11.6,3.2,17.9c-0.5,5-1.5,6.2-6.4,5.6c-3.1-0.4-6.4,1.2-9.4-1c-0.3-0.2-1.4,0.3-2,0.7c-4.2,3-8.2,6.2-12.5,9.1
		c-5.8,3.9-11.8,7.7-19.2,7.9c-0.4,0-0.9,0.1-1.3-0.1c-5.5-2.2-11.2-4.1-16.4-6.7c-1.9-1-3.1-3.7-4.2-5.9c-1.8-3.5-3.3-7.3-4.8-10.9
		c-4.5-10.3-9.1-20.5-13.3-30.8c-5.3-13-9.6-26.3-15.8-39c-2.9-5.9-4.6-12.3-7-18.4c-1.7-4.2-3.7-8.3-5.3-12.5
		c-1.1-2.9-1.9-5.9-2.9-8.9l0,0c-0.6-1.2-1.4-2.4-1.9-3.7c-3.7-9.5-7.4-19.1-11.1-28.7c-0.8-2-2-3.8-2.9-5.7
		c-0.4-0.9-0.9-1.7-1.2-2.6c-0.1-0.5,0.2-1.2,0.3-1.7c0.3,0.4,0.7,0.7,0.9,1.2c1.4,2.9,3,5.7,4.2,8.7c1.7,4.1,3.3,8.2,4.9,12.3
		c0.8,2.1,2,4,4.6,3.8c2.7-0.1,3.6-2.2,4.3-4.5c1.4-4.6-1-8-3.8-11c-2.7-2.9-5.9-5.4-8.6-8.2c-1.9-2-3.2-4.6-5.2-6.6
		c-4.1-4.1-8.8-7.6-12.7-11.9c-2-2.3-4-2.3-6.5-2.3c-8.1,0.3-16.2,0.4-24.2,0.7c-2.1,0.1-2.3-0.3-1.7-2.4c0.8-2.7,2.6-4.1,5.2-3.8
		c7.1,0.9,14.2-1.5,21.2,0.5c2.4,0.7,5.1,0.3,7.6,0.4c-2.4-2.1-3.4-4.6-3.7-7.9c-0.4-4.3-2-8.3-4.7-11.8c-1.1-1.5-2.6-3.3-4.2-3.7
		c-3.7-1-7.6-1.2-11.4-1.7c-0.5-0.1-1.2,0.3-1.6,0c-0.7-0.5-1.3-1.3-1.7-2.1c-0.1-0.2,0.8-1.1,1.4-1.3c2.4-1,4.9-1.7,7.3-2.7
		c1.8-0.7,2.5-2.1,2.2-4.2c-0.4-2.7-0.5-5.4-0.9-8c-0.5-3.2-1.7-6.1-4.7-7.3c-2.8-0.2-5.7-0.3-8.8-0.3c-2.2,0-4.6-0.2-6.9-0.4
		c-2.8,0.5-5.6,1.2-8.4,1.8c-0.6,0.1-1.3,1-1.4,1.5c-0.7,4.7-1.5,9.4-1.6,14.1c-0.1,3.9,0.9,4.5,4.9,5.7c1.6,0.4,3.2,0.7,3.4,2.8
		c0.3,2.7,0,3.1-2.8,3.3c-3.4,0.3-6.8,0.8-10.2,1.2c-3.2,0.4-5,2.4-5.7,5.4c-0.6,2.5-1.2,5.1-1.7,7.6c-0.1,2.6-0.2,5.2-0.5,7.8
		c1.2-1.4,1.7-3.2,1.8-5.3c0-1.9,0.5-3.9,0.9-5.7c1.6-6.1,4.6-8.5,10.9-8.9c1.9-0.1,3.9-0.5,5.8-0.5c2.7,0.1,3.4-1.4,3.5-3.6
		c0-0.5,0-1.1,0-1.6c0.1-3.9,0.1-3.9-3.7-4.7c-3.2-0.7-4.3-2.2-4.1-5.5c0-0.3,0.3-0.7,0.4-1c0.1,0.3,0.4,0.5,0.4,0.8
		c0.3,3.7,2.8,4.4,5.9,4.4c2.4,0,4.9,0.4,7.3,0.7c1.5,0.2,2.3,1,2.1,2.6c-0.1,1,0.1,2.2,0.3,3.2c0.4,2.4,1.9,3.2,4.3,3.5
		c4.5,0.5,8.9,1.2,13.4,2.1c2.8,0.5,3.7,3.1,4.9,5.2c0.1,0.2-0.2,0.7-0.4,1.1c-0.3-0.1-0.7-0.2-0.8-0.4c-3.9-7-10.5-5.7-16.6-5.3
		c-4.2,0.2-5.8,2.1-5.7,6.2c0.2,9.3-1.2,7.7,8.2,8.4c4.1,0.3,8.2-0.1,12.3-0.1c0.5,0,0.9,0.4,1.4,0.6c-0.4,0.2-0.9,0.7-1.3,0.7
		c-6.7,0-13.3-0.1-20-0.2c-0.7,0-1.7-0.2-2-0.7c-1.3-2.1-3.3-2.9-5.6-3.5c-0.6-0.2-1.1-2-1.1-3.2c-0.1-1.7,0.3-3.4,0.2-5.1
		c-0.2-2-1.5-3.1-3.6-2.9c-2.9,0.2-5.9,0.2-8.6,1.1c-4.1,1.4-5.8,5.2-6.3,9.1c-1,6.9-1.8,5.6,4.8,5.2c1.4-0.1,2.8-0.6,4.2-0.3
		c1.1,0.2,2.7,1,2.9,1.8c0.4,1.7-1,2.9-2.7,2.9c-2.9,0.1-5.8,0-8.7-0.3c-1.7-0.1-3.1,0.1-3.8,1.6c-0.7,1.4-0.8,2.9,0.8,4
		c0,0,0,0,0,0c1.2,0.5,2.4,1.3,3.6,1.4c3,0.3,6,0.2,9,0.4c0.6,0,1.1,0.7,1.7,1c-0.6,0.3-1.2,0.8-1.8,0.8c-2.9-0.1-5.8-0.3-8.7-0.5
		c-0.8,0-1.6-0.1-2.2,0.2c-0.7,0.3-1.2,1-1.7,1.6c0.6,0.4,1.1,1.1,1.7,1.2c0.8,0.2,1.7,0.1,2.6,0c1.6-0.1,3.3-0.5,4.8-0.2
		c5.2,1.2,9.1-1.4,13.2-3.9c1.3-0.8,2.9-1.2,4.4-1.3c4.6-0.5,9.2-1.1,13.8-1c5,0.2,10,1.1,15,1.8c0.5,0.1,1,0.4,1.5,0.7
		c2.6,1.7,5.2,3.3,7.8,5.1c0.7,0.5,1.1,1.5,1.6,2.3c-1.3-0.6-2.5-1.1-3.8-1.7c-3.5-1.7-8.2-1.1-10.9,1.5c-0.7,0.6-0.8,1.8-1.1,2.8
		c0.8-0.2,1.7-0.3,2.4-0.7c3.5-2.3,9.9-1.9,12.6,1c0.5,0.6,0.6,1.6,0.8,2.5c-0.8-0.1-1.7,0.1-2.3-0.3c-3.6-2.4-7.4-0.5-11-0.4
		c-7.4,0.2-14.8,0.5-22.2,0.8c-1.7,0.1-3.4,0.3-5.2,0.3c-6.6-0.1-13.1-0.4-19.7-0.5c-0.9,0-1.7,0.2-2.6,0.1
		c-0.9-0.1-1.8-0.4-2.7-0.6c0.6-0.9,1.1-2.5,2-2.7c2.8-0.7,5.7-0.9,8.6-1.3c0.2-0.2,0.4-0.4,0.7-0.6c-4.7-3.3-11.4-1.7-13.9,3.4
		c-0.8,1.7-2.2,2-3.7,1.6c-0.5,1.8-1.1,3.6-1.7,5.4c0.2-0.1,0.4-0.2,0.7-0.2c6.3-1.2,12.4-2.9,19.1-2.7c10.1,0.4,20.3-0.3,30.4-0.6
		c5.8-0.2,11.6-0.7,17.4-0.5c3.1,0.1,6,1.2,7.9,4.6c4,7.5,7.9,15,10.7,23.1c3.6,10.2,7.8,20.1,11.6,30.1c1.4,3.6,2.7,7.3,4,10.9
		c0.1,0.3,0,0.6,0.1,0.9c-0.3-0.2-0.7-0.4-0.9-0.7c-1.9-2.6-3.8-5.2-5.6-7.8c-0.4-0.6-0.5-1.4-0.7-2.1c-1.5-5-2.5-10.2-5.9-14.5
		c-0.4-0.5-0.6-1.1-0.8-1.8c-2.7-7.6-5.5-15.2-8.2-22.9c-0.3-0.7-0.5-1.4-0.9-2.1c-2.3-3.8-5.4-7.2-5.6-12c0-0.4-0.5-0.8-0.8-1.2
		c-0.3,0.4-0.7,0.7-1,1.2c-1.4,2.5-2.8,5-4.2,7.5c-0.3,0.5-0.6,1.2-1,1.2c-4.5,0.5-3,4.1-2.9,6.5c0.5,11.1,1.3,22.1,2.1,33.2
		c0.6,8.1,1.3,16.1,1.8,24.2c0.1,1.2-0.6,2.5-1,3.7c-0.3-1.2-0.7-2.4-0.8-3.6c-0.4-5.9-0.7-11.8-1-17.7c0-0.5-0.4-1-0.6-1.4
		c-0.2,0.5-0.7,1.1-0.7,1.6c0.2,5.9,0.4,11.8,0.7,17.7c0.1,2.3,0.4,4.6-1.5,6.4c-0.3,0.3-0.6,0.5-0.9,0.8c-0.1-0.4-0.2-0.8-0.2-1.2
		c-0.4-7.5-0.8-15.1-1.2-22.6c0-0.6-0.3-1.2-0.5-1.8c-2,1.5-1.4,3.7-1.2,5.7c0.3,5.1,0.7,10.1,1.4,15.1c0.3,2.3-0.4,3.1-2.7,3.1
		c-8.2-0.1-16.3,0-24.5-0.1c-6-0.1-12-0.3-18-0.5c-3.3-0.1-3.9-0.8-3.1-4c3.5-13.9,4.8-28,4.9-42.4c0.1-7.6,0.9-15.3,1.3-22.9
		c0-0.5,0.2-1.1,0.1-1.6c-0.1-0.4-0.5-0.8-0.7-1.3c-0.3,0.4-0.8,0.8-0.9,1.2c-0.3,3.3-0.6,6.7-0.8,10c-0.5,8.8-0.7,17.7-1.3,26.5
		c-0.4,6.1-1.1,12.3-2,18.3c-0.6,4.1-1.8,8.2-2.7,12.3c-0.1,0.6-0.6,1.1-1,1.6c-0.3-0.6-0.7-1.3-0.8-1.9c-0.3-5.7-0.5-11.4-0.7-17.1
		c-0.2-11-0.5-22-0.3-33c0.1-6.2,1.1-12.5,1.8-18.7c0.2-1.9,1.4-2.5,3-1.9c2.5,0.9,4.8,0.2,7.2-0.1c6-0.8,12-0.9,18-1.3
		c1.3-0.1,2.6-0.1,3.9-0.1c7.2-0.2,14.4-0.5,21.6-0.7c1.1,0,2.2,0.5,3.3,0.7c-0.4,1.2-0.8,2.3-1.2,3.5c-0.2,0.5-0.5,1-0.7,1.5
		c0.6-0.2,1.3-0.2,1.7-0.5c0.9-0.9,1.9-1.9,2.3-3c1.2-2.8,0.1-4.4-3-4.3c-6.3,0.2-12.7,0.5-19,0.8c-6,0.2-12.1,0.5-18.1,0.5
		c-4.5,0-9-0.5-13.5-0.4c-3.2,0.1-6.5,0.7-9.7,1.1c-0.3,0-0.5,0.2-0.8,0.3c0.3,0.2,0.5,0.4,0.8,0.5c1.6,0.4,1.9,1.5,1.8,3
		c-0.5,10.2-1.2,20.5-1.5,30.7c-0.2,6.8,0.4,13.6,0.4,20.4c0.1,14.4,0.1,28.9,0.2,43.3c0,5.9,0.3,11.9,0.6,17.8
		c0,0.7,0.5,1.3,0.8,1.9c0.3-0.6,0.9-1.2,0.9-1.9c0.3-4,0.4-7.9,0.6-11.9c0.2-3.3,0.1-6.7,0.6-10c0.6-4.2,1.7-8.2,2.4-12.4
		c0.5-2.7,2.2-2.7,4.3-2.4c2.4,0.3,2.4,1.7,2,3.5c-1.2,5.1-2.4,10.3-3.6,15.4c-0.2,0.8-0.7,1.7-0.6,2.5c0.4,4-1.2,7.4-3,10.9
		c-0.6,1.2-0.9,2.7-1.2,4c-0.5,1.9,0.1,4.2-2.7,4.8c-0.3,0.1-0.3,1.5-0.4,2.4c-0.3,4-0.6,7.9-0.9,11.9c0,0.4-0.3,0.8-0.5,1.1
		c-0.2-0.4-0.6-0.8-0.6-1.3c-0.2-8-0.3-16-0.7-23.9c-0.7-13.7-1.7-27.4-2.3-41.1c-0.5-12.8-0.6-25.7-0.9-38.5
		c-0.2-9-0.2-17.9,1.4-26.8c0.3-1.8,0.2-3.4-1.3-4.7c-0.2-0.2-0.3-0.4-0.4-0.6c-0.3,0.8-0.6,1.7-0.9,2.5c0.3,0.6,0.4,1.4,0.3,2
		c-1.3,13.2-0.6,26.5-0.5,39.8c0,6.3,0,12.5,0.1,18.8c0.1,5.1,0.4,10.1,0.6,15.2l0,0c0.4,2.4,1,4.9,1,7.3c0.1,5.3-0.2,10.5-0.1,15.8
		c0,2.6,0.7,5.1,0.8,7.7c0.2,4.1,0.1,8.2,0.1,12.3c0,2.6-2.1,3.9-4.5,3.2c-1.2-0.4-2.5-0.5-3.8-0.5c-5.1,0.1-10.1,0.6-15.2,0.3
		c-7.9-0.4-12.3,4.6-10.6,12.4c0.1,0.6,0.1,1.3,0.1,1.9c0.4,3.1,3.8,5.5,6.4,4.1c4.7-2.5,9.7-1.7,14.6-1.7c6.1,0.1,6,0.3,4.3,6.2
		c-0.4,1.3-0.7,2.7-1.1,4.1c-1.2,4,0,6.1,4.2,6.3c4.6,0.2,9.1,1.2,13.7,0.2c0.5-0.1,1.1-0.2,1.6-0.2c5.7,0.6,5.9,0,6.4,6
		c0.5,5,1.6,10,2.8,14.9c1,4.1,2.5,8,3.6,12.1c0.6,2.1,1,4.2,1.2,6.3c1,13.8,2,27.6,3,41.3c0.5,6.3,0.9,12.5,1.4,18.8
		c0.5,0,1-0.1,1.5-0.1c-0.3-5.4-0.7-10.9-1-16.3c-0.5-8.9-1.2-17.9-1.5-26.8c-0.4-9.5-0.4-18.9-0.7-28.4c0-1.2-0.3-2.4-0.3-3.5
		c0-2.5,0-5.1,0.1-7.6c0-2.4,0-4.7,0-7.1c0-3.4,0.2-6.8,0.2-10.3c0-0.7-0.4-1.4-0.5-2.1c-0.2-1.8-0.9-3.8-0.4-5.4
		c1.1-4.1,0.9-8.2,0.9-12.2c0.1-10.8-0.4-21.5-0.5-32.3c-0.1-6.9,0.1-13.8-0.1-20.7c0-2.5,1.1-4,3.3-3.8c4.9,0.4,9.8-0.2,14.6,1.5
		c1.6,0.6,2.2,1.6,2.4,3c0.2,2.4,0.3,4.7,0.5,7.1c0.4,8.3,0.9,16.5,1.2,24.8c0.4,11.7,0.5,23.5,1.2,35.2c0.3,5.5-0.6,10.7-1,16
		c-0.4,6.9,0.2,13.8,0.2,20.7c0,8.5-0.1,17-0.1,25.5c0,5.1,0.2,10.1,0.1,15.2c-0.1,6.8-0.3,13.6-0.4,20.4c0,2.9,0.2,5.7,0.5,8.6
		c0.8,0.3,1.6,0.6,2.3,0.9c0-0.3,0-0.5,0-0.9c0.4-5.9,0.9-11.8,0.9-17.8c0-4.6-0.8-9.2-0.8-13.9c0-5.1,0.7-10.1,0.8-15.2
		c0.1-3.5-0.4-7.1-0.5-10.7c-0.1-3.7,0-7.3-0.1-11c-0.1-4.1-0.3-8.2-0.5-12.3c0-0.8-0.1-1.5,0.1-2.3c0.2-0.9,0.5-1.7,0.7-2.6
		c0.2,0.9,0.6,1.8,0.7,2.7c0.4,9.7,0.6,19.4,1.1,29.1c0.2,4.5,0.8,9,1.2,13.5c0.1,1.6,0,3.4,2.2,3.7c2.4,0.4,4.5-0.7,5.3-2.7
		c0.2-0.5,0.3-1.1,0.3-1.6c-0.1-5.9-0.3-11.8-0.3-17.8c0-7.6,0.3-15.3,0.5-22.9c0-0.9,0.9-1.8,1.3-2.7c1,0.6,2.5,0.9,2.9,1.8
		c1.1,2.2,1.7,4.5,2.4,6.9c0.2,0.9,0,1.9,0,2.9c0,1.4-0.8,3.4,1.4,3.8c2,0.3,3.9-0.6,4.8-2.5c0.5-0.9,0.4-2.1,0.7-3.1
		c0.4-1.1,0.6-2.5,1.4-3.1c3.3-2.4,2.9-5.7,2.1-8.8c-0.4-1.9-0.4-3.1,0.8-4.7c2.6-3.3,1.8-5.8-2.3-7.4c-0.5-0.2-1.1,0.1-1.7,0.2
		c0.2,0.4,0.3,1.1,0.7,1.3c2.8,1.5,2.9,3.1,0.9,5.6c-0.8,1-0.7,3.1-0.4,4.6c0.7,3.2,1.1,6.2-2.1,8.4c-0.6,0.4-0.7,1.5-0.9,2.3
		c-0.2,0.8,0,1.8-0.4,2.5c-0.6,1.1-1.6,2.1-2.5,3.1c-0.2-1.2-0.3-2.3-0.5-3.5c-0.5-2.8-0.9-5.5-1.5-8.2c-0.3-1.4-0.5-2.3,1.2-3
		c2.4-1,4.1-8.1,2.8-10.2c-0.2-0.2-0.6-0.6-0.7-0.6c-0.3,0.1-0.8,0.5-0.8,0.8c-0.1,0.6,0,1.3-0.1,1.9c-0.7,6.7-3.9,8-9.4,6.2
		c-2-0.7-2.3,0-2.5,1.5c-0.1,0.7,0,1.6-0.2,2.2c-0.3,0.8-0.9,1.4-1.4,2.2c-0.9-0.8-2.3-1.4-2.6-2.4c-0.7-2-0.9-4.2-1.1-6.3
		c-0.2-2.1-1.2-1.6-2.3-0.8c-0.4-9.2-0.8-18.4-1.2-27.6c-0.5-9.9-1-19.8-1.5-29.6c-0.4-6.8-0.8-13.5-1.1-20.3
		c-0.1-1.6,0.4-3.1,0.6-4.7c0.2,1.1,0.5,2.3,0.6,3.4c0.4,7.4,0.7,14.8,1.3,22.2c0.2,2.3,1.4,4.5,1.6,6.8c0.9,8.6,1.6,17.3,2.4,26
		c0.2,2.4,0.4,4.8,3.2,5.7c0.2-0.2,0.4-0.4,0.6-0.7c1.7-1.2,1.9-2.7,1.7-4.8c-0.5-5.3-0.7-10.7-1-16c1.5,1.6,3,3.3,4.6,4.9
		c0.5,0.5,1.4,0.8,2.1,1.1c0.3-0.7,1-1.5,1-2.2c-0.2-1.7-0.8-3.3-1.3-5c-1.2-3.7-2.3-7.4-3.6-11.1c-0.5-1.5-1.3-3.2-3.5-2
		c-0.1,0-0.9-0.9-1-1.4c0-0.4,0.8-1.3,1-1.3c1.5,0.6,2.9,1.3,4.3,2.1c1.3,0.8,2.6,1.6,3.6,2.7c0.7,0.9,1.2,2.2,1.3,3.3
		c0.3,5.7,0.3,11.4,0.6,17.1c0.1,1.3,0.8,2.5,1.3,3.7c0.3-1.3,0.9-2.5,0.9-3.8c0-9.8-0.1-19.7-0.1-29.5c0-0.7-0.2-1.5-0.3-2.2
		c-1.5-8.8-1.5-17.7-0.9-26.6c0.2-3.7-0.4-7.4-0.8-11.1c-1-10.5-2.1-21-2.9-31.6c-0.5-7.3-0.6-14.7-0.9-22c0-0.4,0.1-0.8,0.2-1.3
		c0.3,0.4,0.7,0.7,0.9,1.1c0.3,0.5,0.5,1,0.6,1.5c0.4,5,0.8,10.1,1.2,15.1c0.4,4.6,0.8,9.2,1.1,13.8c0.2,3.3,0.3,6.6,0.6,10
		c0.4,4.9,1.1,9.8,1.4,14.7c0.4,5,0.4,10.1,0.6,15.2c0.3,5.9,0.7,11.8,1.1,17.7c0.1,1.9,0.2,3.9,0.3,5.8c0.1,2.1,0.2,4.3,0.2,6.4
		c0,2.3,0,4.5-0.1,6.8c-0.1,3.3-0.3,6.7-0.4,10c-0.2,5.3-0.6,10.6-0.4,15.8c0.2,3.9-1.1,7.9,1,11.6c0.2,0.4,0.6,0.7,0.9,1.1
		c0.2-0.4,0.4-0.7,0.6-1.1c0.4-0.6,0.6-1.5,1.1-1.9c9-5.6,18.1-11.2,27.1-16.8c1.3-0.8,2.2-0.9,3.2,0.6c1.4,2.2,3.4,1,4.9,0.1
		c2.9-1.7,5.3-2.3,8.2,0.2c1.4,1.2,3.8,1.6,5.8,1.5c2.7-0.1,3.9,1.4,5,3.4c2.4,4.6,4.7,9.2,7.1,13.8c0.2,0.3,0.2,0.8,0.2,1.2
		c-0.4,0.1-0.8,0.2-1.2,0.1c-2.3-0.4-4.7-0.8-7-1.2c-4.2-0.8-6.6-3.7-8.5-7.1c-1.4-2.5-2.7-5.2-2.2-8.3c0.1-0.5-0.4-1.1-0.7-1.6
		c-0.6,0.4-1.5,0.6-1.6,1.1c-0.8,2.9-1.1,5.8,0.7,8.4c1.4,2.2,3.1,4.2,4.8,6.1c2.2,2.5,5,3.8,8.5,4.1c2.4,0.2,4.8,1.2,7.1,1.8
		c2.5,0.6,5,1.1,7.4,2c5.5,2,10.9,4.2,16.3,6.4c4.1,1.6,8.2,1.6,11.9-0.6c6.4-3.7,12.8-7.5,18.9-11.8c5.3-3.8,11.1-3.5,17.1-3.2
		c0.8,0,1.5,0.3,2.2,0.3c3.8,0.1,4.2-0.5,5.2-4C377.1,326.9,375.8,321.2,374.9,315.4z M252.4,191.6c0.7,0.7,0.8,2.5,0.5,3.6
		c-0.4,1.4-1.5,2.6-2.2,3.9c-0.8-1.1-1.8-2-2.3-3.2c-2.2-5-4.3-10.1-6.4-15.2C246.9,183.1,249,188,252.4,191.6z M199.6,121.5
		c-0.1,0-0.2-0.3-0.2-0.5c0.5-0.1,1-0.3,1.5-0.4c0.1,0,0.2,0.2,0.3,0.5C200.6,121.3,200.1,121.4,199.6,121.5z M203.1,103.8
		c0.4,0,0.9-0.1,1.2,0.1c0.6,0.4,1.4,0.9,1.6,1.5c1.2,4.1,2.6,8.3,1.3,12.6c-0.2,0.7-0.9,1.3-1.4,1.9c-0.5-0.7-1.4-1.3-1.5-2.1
		c-0.3-1.9-0.3-3.9-0.3-5.8c0.1,0,0.2,0,0.2,0c-0.3-2.4-0.7-4.9-1-7.3C203.1,104.5,203.1,104.1,203.1,103.8z M196,118.7
		c-2.8-0.1-5.6-0.2-8.4-0.3c-3.3-0.1-5.3-2.4-5-5.7c0.1-0.9,0.3-1.7,0.4-2.6c0.5-4.2,2-5.5,6.2-5.6c2,0,4.1-0.3,6.1-0.2
		c4.6,0.1,6.8,2.4,6.8,7c-0.1,0.6-0.2,1.3-0.3,2.1C201.5,117.7,200.2,118.9,196,118.7z M216,145.8c-4.6,0.2-9.2,0.4-13.8,0.4
		c-4.2,0-4.9-0.9-4.9-4.9c-0.6-4.4,1.9-5.8,6.4-5.7c1.4,0,2.8,0.3,4.2,0.4c5.3,0.1,8.7,2.9,9.5,8.2
		C217.4,144.7,216.5,145.8,216,145.8z M178,157.9c-3.9,0.4-7.9,0.5-11.8,0.8c1.6-3.3,4-4.4,7.6-3.5c1.3,0.3,2.8-0.1,4.1,0
		c0.8,0.1,1.4,0.8,2.2,1.2C179.4,157,178.7,157.8,178,157.9z M181.7,146.1c-2.4-0.2-4.9,0.4-7.4,0.6c-3,0.3-4-0.9-3.1-3.8
		c1.3-4.3,4.1-6.6,8.6-6.7c0.6,0,1.3,0,1.9-0.1c4-0.3,4-0.3,3.9,3.7c-0.2,1.3-0.1,2.6-0.5,3.8C184.6,145.1,183.9,146.3,181.7,146.1z
		 M184.8,159.2c-0.7,0-2-1.3-2-1.9c0.1-0.9,1.2-2.3,1.8-2.3c0.9,0,1.8,1.1,3.2,2.1C186.5,158,185.7,159.1,184.8,159.2z M190.3,154.2
		c-0.6-0.4-1.1-1.1-1.8-1.2c-1.5-0.3-3.1-0.4-4.6-0.6c-0.4-0.1-0.7-0.3-1-0.5c1.3-1.3,2.3-3.3,3.8-3.9c2.5-0.9,3.9,0.7,3.9,4.4
		C190.6,152.6,190.5,153.4,190.3,154.2z M159,306.7c0.1-0.2,0.5-0.2,0.8-0.3c0.1,0.4,0.1,0.8,0.2,1.6c-0.9,1.8-1.9,3.7-3,5.7
		c-0.1,0.2-0.5,0.3-0.7,0.5c-0.1-0.3-0.4-0.6-0.4-0.8C156.9,311.1,158,308.9,159,306.7z M155.4,317.2c0.2,0,0.4,0.1,0.5,0.1
		c-0.3,1.2-0.6,2.3-0.8,3.5C155.2,319.6,155.3,318.4,155.4,317.2z M127.6,312c1.2-3.6,3.5-4.9,8.1-4.8l0,0c3,1.4,5.8,1.6,9.2,0.4
		c2.5-0.9,5.6-0.4,8.4-0.3c0.4,0,1.1,0.7,1.3,1.2c0.6,2.1-2.1,5.6-4.3,5.8c-6.7,0.5-13.3,0.9-20,1.4
		C127.4,315.8,126.6,314.7,127.6,312z M151.7,319.1c-0.9,0.3-1.9,0.3-2.9,0.4c-4.7,0.2-9.4,0.4-14.1,0.5c-1.6,0-3.2-0.5-4.8-0.7
		c1.6-0.4,3.1-0.8,4.7-1.1c0.6-0.1,1.3,0,1.9,0c0,0.1,0,0.2,0.1,0.3c3.6-0.6,7.1-1.3,10.7-1.9c1.4-0.2,2.8-0.2,4.2-0.1
		c0.5,0,1.2,0.7,1.2,1.2C152.8,318.2,152.2,318.9,151.7,319.1z M156.4,336c-0.3,0-0.6-0.1-0.8-0.1c0.2-0.2,0.5-0.4,0.7-0.5
		c0.3-0.1,0.6,0,1.1,0.1C156.9,335.7,156.7,335.9,156.4,336z M153.4,331.5c0,0.4-0.1,0.8-0.1,1.1c-0.4-0.3-0.9-0.6-1-1
		c-0.2-0.6-0.3-1.3-0.1-1.9c0.9-3,1.9-5.9,2.9-8.9v0c2.2,1.3,4.5,2.5,4.9,5.5c0.1,1.2,0,1.2-1.1,0.9
		C154.8,326,153.3,327.2,153.4,331.5z M159.6,333c-0.4-0.9-0.7-1.3-0.7-1.5c0.2-0.4,0.6-0.8,0.9-1.1c0.1,0.2,0.4,0.5,0.4,0.7
		C160.1,331.6,159.9,332,159.6,333z M159.4,320c-0.3-0.3-0.8-0.7-0.8-1c0-0.8,0.3-1.6,0.5-3c0.6,1,1.2,1.5,1.1,1.8
		C160.1,318.6,159.7,319.3,159.4,320z M172.4,290c0.3-1.8,0.5-3.6,0.9-5.4c0.9-4.1,2-8.1,3-12.2c0.1-0.3,0.3-0.5,0.5-0.8
		c0.1,0.3,0.3,0.5,0.3,0.8c0.3,5.2,0.2,10.5,0.9,15.7c0.8,6.6-3.3,10.4-7.3,14.4C171.2,298.4,171.8,294.2,172.4,290z M168,304.2
		c0.1-0.3,0.1-0.6,0.3-0.9c0.2-0.4,0.4-0.8,0.5-1.1c0.1,0.4,0.1,0.9,0.2,1.3c0.1,0.4,0.2,0.8,0.3,1.2l0,0c-0.7,1-1.3,1.9-2,2.9
		C167.6,306.4,167.8,305.3,168,304.2z M162.1,319.9c0.4-0.2,0.7-0.4,1.1-0.4c0.2,0,0.3,0.4,0.7,0.9c-0.6,0.1-1,0.3-1.3,0.2
		C162.5,320.5,162.3,320.2,162.1,319.9z M163.5,335.1c0,0-0.8-0.1-0.8-0.2c-0.1-1.4-0.1-2.9-0.1-4.4c0-0.4,0.1-0.8,0.3-1.2
		c0.3-0.8,0.6-1.5,1-2.3c0.2,0.9,0.4,1.8,0.5,2.7c0.1,0.3,0,0.6,0,1c0.2,0.1,0.3,0.1,0.5,0.2C164.5,332.2,164,333.6,163.5,335.1z
		 M179.4,349.8c-0.7-3.8-0.8-7.7-1.5-11.5c-0.1-0.8-1.5-1.8-2.3-1.9c-2.7-0.3-5.4-0.2-8-0.3c-1.2,0-2.7,0.2-1.3-1.8
		c0.3-0.4,0.3-1,0.4-1.5c0.8-4.6,2.4-5.8,7.1-4.8c2.8,0.6,4.8-0.9,5.2-3.7c0.2-1.9,0.1-3.9,0.2-5.8c0.1-0.9,0.3-1.8,0.5-2.7
		c-0.1-2.3,0-4.7-0.3-7c-0.1-1-0.8-1.8-1.2-2.8c-0.6,0.7-1.4,1.3-1.9,2c-2.8,3.8-5.5,7.7-8.3,11.5c-0.3,0.4-0.7,0.6-1.1,0.9
		c-0.1-0.5-0.4-1-0.3-1.5c0.3-3.8,1.5-7.4,3.6-10.6c2.5-3.7,4.4-7.8,8.2-10.7c3.2-2.4,1.8-6.5,1.8-9.7c0-8-0.7-15.9-0.9-23.9
		c0-0.9,0.9-2.5,1.6-2.6c1.7-0.3,2,1.2,2,2.6c0.2,10.3,0.9,20.7,0.4,30.9c-0.3,6.9-2.3,13.7-3.5,20.6c1.9,2.9,0.3,6.1,0.8,9.1
		c0.1,0.8,0,1.8,0.4,2.3c2.8,3.1,2.6,6.8-0.2,10c-1,1.1-1,3.4-0.9,5.1c0.6,5.8,1.5,11.5,2.2,17.3c0.1,0.9,0.1,1.9,0.1,2.9
		C181.3,358.1,180.2,354,179.4,349.8z M175.7,323.8c0,1.5-0.8,2.1-2.3,1.9c-1.7-0.3-3.3-0.6-5-0.8c0.7-1.5,1.2-3.1,2.1-4.5
		c1.6-2.5,3.3-5,5-7.5c0.2-0.3,0.6-0.5,1-0.7c0.1,0.5,0.2,0.9,0.2,1.4c-0.2,1.6-0.4,3.2-0.6,4.8l-0.3,0
		C175.8,320.2,175.8,322,175.7,323.8z M183,344.9c-0.3-0.7-0.5-1.5-0.8-2.4c0.3-0.6,0.6-1.1,0.9-1.7c0.1,0.8,0.4,1.6,0.4,2.4
		C183.5,343.8,183.2,344.4,183,344.9z M218.3,374.9c0.1,0.1-0.7,1-1,1.7c-0.3,0.6-0.6,1.9-0.6,2c3,1,2.7,3.8,2.8,6
		c0.3,3.9,0.1,7.9,0.1,11.9c0,0.7-0.2,1.6-0.6,2.1c-0.4,0.5-1.1,1-1.8,1c-0.3,0-1-0.8-1-1.4c-0.3-1.8-0.5-3.6-0.8-5.8
		c0-6.8,0-14,0-21.3c0-0.8-0.2-1.6,0-2.2c0.4-1,1.1-1.9,1.9-2.6c0.3-0.2,1.7,0.3,1.8,0.7c0.2,1.1,0.5,2.7,0,3.3
		C217.7,371.7,216.1,372.8,218.3,374.9z M216.1,359c1.1,0.9,2.2,1.8,3.4,2.7c-0.7,0.5-1.8,1.6-2.1,1.5c-0.9-0.6-1.6-1.6-2.3-2.5
		C215.6,359.7,215.9,359.3,216.1,359z M208.9,265.7c-0.2-0.3-0.4-0.5-0.5-0.8c-0.1-0.7-0.1-1.4-0.1-2.1c0,0,0.2-0.1,0.3-0.1
		c0.1,0.7,0.2,1.4,0.2,2.1C208.9,265.1,208.9,265.4,208.9,265.7z M218.9,300.4c0.1-0.5,0.4-1,0.5-1.5c0.4,0.4,0.9,0.8,1.1,1.3
		c1.1,3.2,2.2,6.4,3.2,9.7l0.2,0.2c-0.1-0.1-0.1-0.1-0.2-0.2C220.9,307.4,217.6,305.1,218.9,300.4z M213.7,280.9
		c-0.3,3.1-0.6,6.2-1,9.3c0,0.4-0.1,0.8-0.2,1.2c-0.1-0.4-0.2-0.8-0.2-1.3c0-1.4,0-2.8,0-4.2c-0.1,0-0.1,0-0.2,0
		c0-7.6,0-15.2,0-22.8c0-0.4,0.1-0.8,0.2-1.2c0.1,0.4,0.3,0.9,0.3,1.3c0.4,4.7,0.8,9.4,1.1,14.1
		C213.9,278.5,213.8,279.7,213.7,280.9z M214.8,289.6c0,0.4-0.1,0.7-0.2,1c-0.1-0.3-0.3-0.5-0.4-0.8c-0.1-0.4-0.1-0.8-0.1-1.3
		c-0.1-0.9-0.1-1.8-0.2-2.8c0.4,0.9,0.7,1.8,1.1,2.7c-0.1,0-0.2,0.1-0.3,0.1C214.8,288.9,214.9,289.3,214.8,289.6z M217.3,316
		c-0.3-0.9-0.8-1.8-0.9-2.8c-0.2-1.5-0.3-3-0.4-4.5c0-0.4,0.1-0.8,0.1-1.2c0.2,0.3,0.6,0.6,0.6,1c0.3,1.6,0.5,3.2,0.8,5.1
		C217.5,314.2,217.4,315.1,217.3,316z M226.3,265.3c0.4,3.8,0.4,7.7,1,11.5c0.4,2.4-2.3,1.8-2.4,3.2c-0.2,1.7,2.8-0.6,2.6,2
		c-0.2,3,0.3,6,0.4,9c0.1,1.8-0.8,2.5-2.4,1.6c-3.4-1.8-6.7-3.7-6.7-8.3c0-0.5-0.4-1.3-0.6-1.3c-2.9,0.2-1.9-2-2-3.3
		c-0.3-4.3-0.5-8.6-0.8-12.9c0.1,0,0.1,0,0.2,0c-0.1-1.3-0.2-2.6-0.2-3.9c0-0.5,0.2-1.1,0.4-1.6c0.3,0.4,0.9,0.8,1,1.3
		c1.5,5.3,3,10.5,4.6,15.8c0.3,1.1,1.3,2.1,1.9,3.1c-0.1-1.2-0.2-2.4-0.4-3.6c-0.4-2.4-1-4.9-1.4-7.3c-0.3-2,1.7-5.5,3.7-6.3
		C225.3,264.2,226.3,264.9,226.3,265.3z M253.8,239.6c0.2,0.5,0.1,1.2-0.1,1.8c-0.1,0.2-1,0.2-1.4,0c-1.8-0.7-3.5-0.9-5.1,0.4
		c-0.2,0.1-0.5,0.2-0.7,0.4c0.2-0.1,0.5-0.2,0.7-0.4c0.9-1,1.7-2.1,2.7-3.1C251.4,237.3,253.2,237.7,253.8,239.6z M231.1,226.1
		c0-10.5,0-20.1,0-29.6c0-0.8-0.7-1.6-1-2.4c-0.4-1.6-1.2-3.2-1-4.8c0.1-1.5,1.7-2,2.9-0.9c0.9,0.8,1.6,2.1,2.1,3.2
		c4,10.3,8,20.7,12,31.1c1.1,2.9,2.1,5.9,3,8.9c0.3,0.9,0,2.2-0.4,3c-2.8,5.3-7.6,8.7-12.2,12.1c-0.8,0.6-1.8,1.2-2-0.6
		C233.2,239.2,232.1,232.2,231.1,226.1z M249.3,253.4c-0.6,0.2-1.1,0.5-1.7,0.5c-1.6,0.1-3.2,0-4.9,0c0,0,0,0.1,0,0.1
		c-1.6,0-3.2-0.1-4.8,0c-0.8,0.1-1.6,0.7-2.4,1.1c0.7,0.4,1.4,1,2.1,1.1c1.9,0.2,3.9,0.2,5.8,0.2c1.2,0,2.4-0.3,3.5-0.3
		c6.4-0.3,6.3-0.3,6,5.9c-0.1,1.9-0.5,2.1-2.4,2.1c-4.3,0-8.6,0.6-12.9,0.8c-1.2,0-2.5-0.7-3.7-1.1c1.1,0,2.2,0,3.4-0.1
		c4.1-0.2,8.2-0.4,12.3-0.7c0.6,0,1.1-0.7,1.6-1.1c-0.6-0.3-1.3-0.9-1.9-0.9c-3.1,0.1-6.2,0.3-9.3,0.5c-4.9,0.3-7.5-3.1-6-7.7
		c0.2-0.5,0.7-1.3,1.1-1.3c4.2,0,8.4,0.1,12.6,0.2C248.2,252.8,248.8,253.2,249.3,253.4z M248,250.5c0.6-0.2,1.3-0.4,1.9-0.5
		c0.3,0,0.5,0.1,0.8,0.2c-0.5,0.2-1,0.5-1.5,0.7C248.8,250.7,248.4,250.6,248,250.5z M245.6,327.4c-2.1,1.5-4.3,2.9-6.4,4.3
		c-0.3-0.1-0.7-0.2-0.7-0.2c0.1-0.4,0.1-1,0.4-1.1c2-1.2,4.1-2.3,6.2-3.4c0.2-0.1,0.4,0,0.6,0C245.7,327.1,245.7,327.3,245.6,327.4z
		 M249.1,325.7c-0.3,0.2-0.7,0.1-1.1,0.1c0.1-0.3,0.2-0.7,0.4-0.8c4.3-2.6,8.5-5.3,12.8-7.9C257.2,320,253.1,322.9,249.1,325.7z
		 M260.2,315c-4.9,2.6-9.8,5.2-14.3,8.8c-3.1,2.4-6.9,4-10.3,5.9c-1.2,0.7-1.9,0.3-2.1-1c-0.1-0.7-0.1-1.5-0.2-2.2
		c0.2,0,0.3,0,0.5,0c0-6.7,0-13.5,0-20.2c0-1.1,0.2-2.1,0.5-3.2c0.5-1.8,1.6-2.4,3.4-1.6c0.9,0.4,1.8,0.8,2.7,1.2
		c6.6,3.2,13.2,6.3,19.8,9.5c0.6,0.3,1.2,0.8,1.8,1.2C261.4,313.9,260.9,314.7,260.2,315z M266.1,310.8c-0.9,0.2-2,0.4-2.7,0.1
		c-5.4-2.5-10.8-5.3-16.2-7.8c-3-1.4-6.1-2.6-9.2-3.8c-1.8-0.7-2.9-1.7-3-3.7c-0.4-7.6-0.8-15.3-1.3-22.9c-0.1-2.4,0.6-3.6,3.2-3.7
		c5.4-0.2,10.7-0.5,16.1-0.8c0.5,0,1.1-0.1,1.4-0.5c2.2-2.1,3.7-13.3,2.1-16.2c-1.8-3.4-2-3.5-7.5-3.3c-0.8,0-1.5,0.2-2.3,0.1
		c-0.7,0-1.4-0.2-2.1-0.3c0.5-0.8,0.9-1.9,1.6-2.2c0.9-0.4,2.1-0.1,3.1,0c0.6,0.1,1.2,0.8,1.7,0.7c5.7-0.6,7.4,3.4,8.6,7.6
		c0.7,2.3,0.8,4.8,1.2,7.2c0,0.3,0.1,0.7,0.3,0.9c4.4,5.5,6.4,12.2,9.3,18.4c1.4,2.9,2.2,6,3.4,9c0.8,2.1,0.9,3.7-1,5.5
		c-3.9,3.7-3.9,5.8-0.7,10c0.5,0.7,0.9,1.5,1.2,2.3c0.4,1.3,0.1,1.9-1.5,2C269.8,309.5,268,310.3,266.1,310.8z M268,318.8
		c-0.3,0-0.6-0.3-0.9-0.5c0.2-0.3,0.4-0.7,0.7-0.9c0.2-0.1,0.6,0.2,1,0.3l0.4,0.7C268.8,318.5,268.4,318.8,268,318.8z M272.9,315.6
		c-2.3-0.2-4.1-0.3-4-2.6c0-0.6,1.4-1.8,1.6-1.7c1.4,0.7,2.8,1.7,4.1,2.6C274,314.6,273.3,315.2,272.9,315.6z M283.9,319.7
		c-3.1,0.5-6.6-2.4-6.3-5.4c-0.3-0.8-0.4-1.9-0.9-2.2c-3.1-1.9,0.2-2.9,0.5-4.3c0,0,1.2-0.1,1.5,0.2c0.8,1,1.5,2.1,2.2,3.2
		c1.3,2.1,2.7,4.1,4,6.2c0.3,0.5,0.5,1.1,0.7,1.7C285.1,319.4,284.5,319.7,283.9,319.7z M300.3,340.7c-0.4-0.5-1-0.9-1.3-1.5
		c-3.8-7.2-7.5-14.5-11.3-21.7c-1.5-2.9-3.3-5.5-4.8-8.4c-1.7-3.2-4.3-5-7.8-5.7c-2.7-0.5-3.6-2.6-2.3-4.9c0.2-0.3,0.3-0.6,0.6-0.8
		c4.8-3.5,3.8-7.6,1.7-12.2c-1.9-4-3.1-8.3-4.8-12.3c-0.9-2-2.6-3.7-3.4-5.8c-1.1-3.1-1.6-6.4-2.5-9.6c-0.7-2.6-1.7-5.1-2.6-7.6
		c-0.1-0.3-0.2-0.6-0.3-0.9c0,0,0.3-0.1,0.6-0.3c0.4,0.6,1,1.1,1.3,1.8c1.3,2.8,2.6,5.7,3.8,8.6c3.6,8.7,7.2,17.5,10.7,26.3
		c2,5,3.4,10.2,5.5,15.1c2.7,6.4,5.9,12.6,8.8,19c2.8,6.3,5.6,12.6,8.3,18.9C300.7,339.2,300.4,340,300.3,340.7z"/>
	<path d="M259.5,246.9L259.5,246.9L259.5,246.9z"/>
	<path d="M240.7,246.9c0.1-0.1,0.1-0.1,0.2-0.2C240.8,246.8,240.8,246.9,240.7,246.9L240.7,246.9z"/>
	<path d="M266.7,315L266.7,315c-0.1-0.1-0.2-0.3-0.4-0.4c0,0-0.2,0-0.2,0C266.2,314.7,266.5,314.9,266.7,315z"/>
	<path d="M156.6,329.2c-0.2,0.2-0.5,0.4-0.5,0.6c0,0.1,0.3,0.3,0.4,0.5c0.2-0.2,0.4-0.4,0.5-0.7C157,329.6,156.8,329.4,156.6,329.2z
		"/>
	<path d="M219.8,142.7c-0.1-0.2-0.3-0.4-0.5-0.6c-0.1,0.2-0.2,0.4-0.2,0.5c0.1,0.3,0.3,0.5,0.4,0.7
		C219.6,143.1,219.7,143,219.8,142.7z"/>
	<path d="M238.7,250.4c-0.2,0.2-0.3,0.3-0.5,0.4c0.2,0,0.4,0.1,0.5,0.1c0.1,0,0.2-0.1,0.2-0.2C239,250.7,238.9,250.5,238.7,250.4z"
		/>
	<path d="M243.5,251c0-0.2,0.1-0.3,0.1-0.5c0,0-0.2-0.1-0.3-0.1c-0.1,0.1-0.3,0.2-0.4,0.3C243.1,250.8,243.3,250.9,243.5,251z"/>
	<path d="M180.2,111c0-0.2-0.1-0.4-0.1-0.6c-0.1,0.1-0.3,0.2-0.4,0.3c0,0.1,0,0.2,0,0.3C179.9,111,180,111,180.2,111z"/>
	<path d="M152.6,335.7c-0.1-0.1-0.2-0.2-0.4-0.3c0,0-0.1,0.1-0.1,0.2c0,0.1,0.1,0.2,0.1,0.2C152.3,335.8,152.4,335.8,152.6,335.7z"
		/>
	<path d="M215.5,303.6c-0.1,0-0.2-0.1-0.3-0.1c-0.1,0-0.1,0.2-0.2,0.2c0.1,0.1,0.3,0.1,0.4,0.2C215.5,303.8,215.5,303.7,215.5,303.6
		z"/>
	<path d="M182.8,318.3c0-0.1-0.1-0.2-0.1-0.3c-0.1,0.1-0.2,0.1-0.2,0.2c0,0.1,0,0.2,0.1,0.3C182.7,318.4,182.8,318.4,182.8,318.3z"
		/>
	<path d="M220.9,148.5c-0.1,0-0.2-0.1-0.3-0.1c-0.1,0-0.1,0.1-0.2,0.2c0.1,0.1,0.3,0.1,0.4,0.2C220.9,148.7,220.9,148.6,220.9,148.5
		z"/>
	<path d="M167,259.5c0.1-0.2,0.2-0.3,0.2-0.4c-0.1,0-0.2,0-0.2-0.1C167,259.1,167,259.2,167,259.5z"/>
	<path d="M224.5,260c-0.1,0.1-0.1,0.1-0.2,0.2c0.1,0.1,0.3,0.1,0.4,0.2c0-0.1,0.1-0.2,0-0.3C224.7,260,224.5,260,224.5,260z"/>
	<path d="M217.3,320.9c-0.1,0-0.2,0-0.3,0.1c0,0.1,0,0.2,0,0.3c0.1,0,0.3-0.1,0.4-0.1C217.4,321.1,217.4,321,217.3,320.9z"/>
	<path d="M221.7,144.5c0-0.1,0-0.2,0-0.3c-0.1,0.1-0.2,0.1-0.3,0.2c0,0,0.1,0.1,0.1,0.2C221.6,144.6,221.7,144.6,221.7,144.5z"/>
	<path d="M169.9,298.3c0-0.1,0-0.2,0-0.3c-0.1,0.1-0.2,0.2-0.3,0.3c0,0,0.1,0.1,0.1,0.2C169.7,298.4,169.8,298.3,169.9,298.3z"/>
	<polygon points="211.8,350.3 211.8,350.5 211.9,350.3 	"/>
	<polygon points="215,295.8 215,296 215.2,295.8 	"/>
	<polygon points="182.7,162 182.9,162.2 183,162 	"/>
	<polygon points="180.6,107.7 180.7,107.9 180.8,107.8 	"/>
	<polygon points="215.2,298.5 215.1,298.3 215,298.5 	"/>
	<path fill="#FFFFFF" d="M161.3,113.6c2.9,10.6,4,20.8,3.8,30.8c0.6-2.5,1.1-5.1,1.7-7.6c0.7-3,2.5-5,5.7-5.4
		c3.4-0.4,6.8-1,10.2-1.2c2.8-0.2,3.1-0.6,2.8-3.3c-0.2-2.2-1.8-2.4-3.4-2.8c-4-1.1-4.9-1.7-4.9-5.7c0.1-4.7,1-9.4,1.6-14.1
		c0.1-0.6,0.8-1.4,1.4-1.5c2.8-0.6,5.6-1.3,8.4-1.8c-5.7-0.5-11.6-1.4-17.3-3.1c-3.6,4.2-7.3,8.3-11.1,12.3
		C160.6,111.3,160.9,112.4,161.3,113.6z"/>
	<path fill="#FFFFFF" d="M168.5,415.3c4.7,5.3,7.8,11.8,9.1,18.6c0.5,0.1,1,0.2,1.5,0.3c0.3,0.1,0.6,0.2,0.9,0.4
		c0.1,0,0.2-0.1,0.2-0.1c2.4-0.4,4.7,0.4,5.9,2.7c0.1,0.1,0.1,0.2,0.2,0.4c0.5,0,1-0.1,1.5-0.1c-0.5-6.3-1-12.5-1.4-18.8
		c-1-13.8-1.9-27.6-3-41.3c-0.2-2.1-0.6-4.3-1.2-6.3c-1.1-4-2.6-8-3.6-12.1c-1.2-4.9-2.4-9.9-2.8-14.9c-0.5-6-0.7-5.5-6.4-6
		c-0.5-0.1-1.1,0.1-1.6,0.2c-4.6,1-9.1,0-13.7-0.2c-4.2-0.2-5.4-2.3-4.2-6.3c0.4-1.3,0.7-2.7,1.1-4.1c1.7-5.9,1.7-6.1-4.3-6.2
		c-4.9-0.1-9.9-0.8-14.6,1.7c-2.6,1.4-6-1-6.4-4.1c-0.1-0.6,0-1.3-0.1-1.9c-1.7-7.8,2.7-12.8,10.6-12.4c5,0.2,10.1-0.3,15.2-0.3
		c1.3,0,2.6,0.1,3.8,0.5c2.4,0.7,4.5-0.6,4.5-3.2c0-4.1,0-8.2-0.1-12.3c-0.1-2.6-0.8-5.1-0.8-7.7c-0.1-5.3,0.2-10.5,0.1-15.8
		c-0.1-2.4-0.7-4.9-1-7.3c0,0,0,0,0,0c-0.2-5.1-0.5-10.1-0.6-15.2c-0.1-6.3-0.1-12.5-0.1-18.8c-0.1-13.3-0.8-26.5,0.5-39.8
		c0.1-0.6,0-1.5-0.3-2c-2,5.4-4.4,10.9-7,16.3c-0.4,0.8-0.7,1.6-1.1,2.4c-2.8,7.9-5.1,15.9-6.8,24.1c2.3,6.1,1.6,13.3-1.3,19.9
		c2.8-6.5,0.3-0.3-0.1,1.2c-0.5,1.9-1,3.8-1.3,5.8c-0.1,0.7-0.3,1.5-0.4,2.2c-0.1,1.4-0.3,2.9-0.4,4.3c-0.5,7.8-0.6,15.6-0.6,23.4
		c0,11.4-8.9,21.1-20,22.3c0.2,1.8,0.5,3.6,0.7,5.4c1.3,8.6,2.4,17,3.1,25.5c7,0.9,14,2.1,19.9,6.6c7.6,5.7,12.3,9.1,17.2,17.5
		c6.2,10.5,7.9,21.3,9,33.2C168.7,400.3,168.4,407.8,168.5,415.3z"/>
	<path fill="#FFFFFF" d="M382,303.4c-0.3-0.7-0.6-1.4-0.9-2.1c-0.3-0.9-2.3-5.5-1.7-4.4c-0.4-0.9-0.8-1.7-1.2-2.6
		c-1.7-3.5-3.6-7-5.6-10.4c-4-6.8-8.4-13.4-13.2-19.7c-0.5-0.7-1.1-1.5-1.7-2.2c0,0,0,0,0,0c-1.1-1.3-2.1-2.7-3.2-4
		c-2.5-3.1-5-6.1-7.6-9.2c-6-7.1-12.2-14-17.7-21.4c-5.2-7-10.2-14.1-15.4-21c-0.5-0.7-1-1.4-1.6-2.1c-0.2-0.2-0.3-0.4-0.6-0.7
		c-1.2-1.4-2.3-2.9-3.5-4.3c-2.7-3.2-5.4-6.2-8.1-9.4c-6.9-8.1-13.4-16.6-18.5-25.8c-0.1-0.1-0.2-0.1-0.2-0.2
		c-2.5-1.7-5-3.2-7.7-4.5c-4.5-1.8-9-3.8-13.2-6.2c-5.4-3.2-10.3-7.1-15.1-11c-5.5-4.4-10.5-9.2-16-13.5c1.3,1,2.7,2.1,4,3.1
		c-7.3-5.8-12.8-11.8-15.5-21.4c-0.5-1.9-0.9-3.9-1.1-5.9c-3.8-1.7-7.8-2.5-12.2-2.8c2.9,1.2,4.2,4,4.7,7.3c0.4,2.7,0.4,5.4,0.9,8
		c0.3,2-0.3,3.4-2.2,4.2c-2.4,1-4.9,1.7-7.3,2.7c-0.6,0.2-1.5,1.1-1.4,1.3c0.4,0.8,1,1.5,1.7,2.1c0.3,0.2,1-0.1,1.6,0
		c3.8,0.5,7.7,0.7,11.4,1.7c1.6,0.4,3.1,2.2,4.2,3.7c2.7,3.5,4.3,7.5,4.7,11.8c0.3,3.2,1.4,5.8,3.7,7.9c-2.6-0.1-5.3,0.3-7.6-0.4
		c-7.1-2.1-14.2,0.3-21.2-0.5c-2.6-0.3-4.3,1-5.2,3.8c-0.6,2-0.4,2.4,1.7,2.4c8.1-0.3,16.2-0.5,24.2-0.7c2.5-0.1,4.5,0,6.5,2.3
		c3.9,4.3,8.6,7.8,12.7,11.9c2,1.9,3.3,4.6,5.2,6.6c2.7,2.9,5.9,5.3,8.6,8.2c2.8,3,5.1,6.4,3.8,11c-0.7,2.3-1.5,4.4-4.3,4.5
		c-2.6,0.1-3.8-1.7-4.6-3.8c-1.6-4.1-3.2-8.2-4.9-12.3c-1.3-3-2.8-5.8-4.2-8.7c-0.2-0.4-0.6-0.8-0.9-1.2c-0.1,0.6-0.4,1.2-0.3,1.7
		c0.3,0.9,0.7,1.8,1.2,2.6c1,1.9,2.2,3.7,2.9,5.7c3.8,9.5,7.4,19.1,11.1,28.7c0.5,1.3,1.3,2.5,1.9,3.7l0,0c0.9,3,1.7,6,2.9,8.9
		c1.7,4.2,3.7,8.3,5.3,12.5c2.4,6.1,4.1,12.6,7,18.4c6.2,12.6,10.5,26,15.8,39c4.2,10.4,8.8,20.6,13.3,30.8c1.6,3.7,3,7.4,4.8,10.9
		c1.1,2.2,2.3,4.9,4.2,5.9c5.3,2.7,10.9,4.6,16.4,6.7c0.4,0.2,0.9,0.1,1.3,0.1c7.4-0.2,13.3-4,19.2-7.9c4.3-2.8,8.4-6.1,12.5-9.1
		c0.6-0.4,1.7-1,2-0.7c3,2.2,6.3,0.5,9.4,1c4.9,0.6,6-0.6,6.4-5.6c0.6-6.3-0.3-12.4-3.2-17.9c-5.1-9.7-10.4-19.4-17.5-27.9
		c-4.1-5-8.3-9.9-12.5-14.8c-3.9-4.6-8-9.1-12-13.5c-4.3-4.7-8.8-9.2-13-14c-3.6-4-6.9-8.2-10.2-12.5c-3.9-5.1-7.8-10.3-11.5-15.6
		c-3.8-5.5-7.4-11.1-13-15.1c-3.6-2.5-6.7-5.8-10-8.7c-2.6-2.2-5.2-4.5-8-6.6c-1.1-0.8-2.5-1.1-3.8-1.8c-0.4-0.2-0.5-0.8-0.8-1.2
		c0.5-0.1,1-0.5,1.4-0.4c1.5,0.6,3,1.3,4.3,2.2c3,2.1,5.6,4.9,8.8,6.6c8.5,4.5,14.4,11.6,19.6,19.4c4.2,6.2,8.5,12.5,13,18.6
		c2.9,3.9,6.3,7.4,9.4,11.1c2.5,3.1,4.7,6.5,7.5,9.3c6.4,6.4,13,12.5,18.4,19.9c1.9,2.6,3.8,5.4,6.2,7.5c6.9,6,11.6,13.6,16.4,21.2
		c4,6.4,7.6,12.9,11.4,19.4c0.3,0.5,0.4,1,0.5,1.5c0.9,5.8,2.2,11.5,0.6,17.6c-0.9,3.6-1.4,4.1-5.2,4c-0.7,0-1.5-0.3-2.2-0.3
		c-5.9-0.3-11.7-0.6-17.1,3.2c-6.1,4.3-12.5,8.1-18.9,11.8c-3.7,2.1-7.8,2.2-11.9,0.6c-5.4-2.2-10.8-4.4-16.3-6.4
		c-2.4-0.9-4.9-1.3-7.4-2c-2.4-0.6-4.7-1.6-7.1-1.8c-3.5-0.3-6.2-1.6-8.5-4.1c-1.7-1.9-3.4-4-4.8-6.1c-1.7-2.6-1.5-5.6-0.7-8.4
		c0.1-0.5,1.1-0.8,1.6-1.1c0.2,0.5,0.8,1.1,0.7,1.6c-0.6,3.1,0.8,5.8,2.2,8.3c1.9,3.4,4.4,6.4,8.5,7.1c2.3,0.4,4.7,0.8,7,1.2
		c0.4,0.1,0.8-0.1,1.2-0.1c-0.1-0.4-0.1-0.8-0.2-1.2c-2.3-4.6-4.7-9.2-7.1-13.8c-1-2-2.3-3.4-5-3.4c-2,0-4.4-0.3-5.8-1.5
		c-2.9-2.4-5.3-1.9-8.2-0.2c-1.5,0.9-3.5,2.1-4.9-0.1c-1-1.6-1.9-1.4-3.2-0.6c-9,5.6-18.1,11.1-27.1,16.8c-0.5,0.3-0.7,1.2-1.1,1.9
		c-0.2,0.4-0.4,0.7-0.6,1.1c-0.3-0.4-0.7-0.7-0.9-1.1c-2-3.7-0.8-7.8-1-11.6c-0.2-5.3,0.2-10.5,0.4-15.8c0.1-3.3,0.3-6.7,0.4-10
		c0.1-2.3,0.1-4.5,0.1-6.8c0-2.1-0.1-4.3-0.2-6.4c-0.1-1.9-0.2-3.9-0.3-5.8c-0.4-5.9-0.8-11.8-1.1-17.7c-0.3-5.1-0.3-10.1-0.6-15.2
		c-0.3-4.9-1-9.8-1.4-14.7c-0.3-3.3-0.4-6.6-0.6-10c-0.3-4.6-0.8-9.2-1.1-13.8c-0.4-5-0.7-10.1-1.2-15.1c0-0.5-0.3-1-0.6-1.5
		c-0.2-0.4-0.6-0.7-0.9-1.1c-0.1,0.4-0.2,0.8-0.2,1.3c0.3,7.3,0.3,14.7,0.9,22c0.8,10.5,1.9,21.1,2.9,31.6c0.3,3.7,1,7.4,0.8,11.1
		c-0.6,8.9-0.6,17.8,0.9,26.6c0.1,0.7,0.3,1.5,0.3,2.2c0.1,9.8,0.2,19.7,0.1,29.5c0,1.3-0.6,2.5-0.9,3.8c-0.4-1.2-1.2-2.5-1.3-3.7
		c-0.3-5.7-0.3-11.4-0.6-17.1c-0.1-1.1-0.6-2.4-1.3-3.3c-1-1.1-2.3-1.9-3.6-2.7c-1.4-0.8-2.8-1.5-4.3-2.1c-0.2-0.1-1,0.8-1,1.3
		c0,0.5,0.9,1.5,1,1.4c2.2-1.2,3,0.4,3.5,2c1.3,3.7,2.5,7.4,3.6,11.1c0.5,1.6,1.1,3.3,1.3,5c0.1,0.7-0.6,1.5-1,2.2
		c-0.7-0.4-1.5-0.6-2.1-1.1c-1.6-1.6-3.1-3.3-4.6-4.9c0.3,5.3,0.5,10.7,1,16c0.2,2,0.1,3.6-1.7,4.8c0.4,0.4,0.8,0.7,1.2,1.1
		c2.5,2.2,2.4,3.4-0.2,5.5c-1.9,1.5-3.9,1.4-5-0.4c-1.1-1.7-0.4-3.8,1.5-4.8c0.6-0.3,1.2-0.5,1.8-0.7c-2.8-0.9-3-3.3-3.2-5.7
		c-0.8-8.7-1.5-17.3-2.4-26c-0.2-2.3-1.5-4.5-1.6-6.8c-0.6-7.4-0.8-14.8-1.3-22.2c-0.1-1.1-0.4-2.3-0.6-3.4
		c-0.2,1.6-0.7,3.2-0.6,4.7c0.3,6.8,0.7,13.5,1.1,20.3c0.5,9.9,1,19.8,1.5,29.6c0.4,9.2,0.8,18.4,1.2,27.6c1.1-0.8,2.1-1.3,2.3,0.8
		c0.2,2.1,0.4,4.3,1.1,6.3c0.3,1,1.7,1.6,2.6,2.4c0.5-0.7,1.1-1.4,1.4-2.2c0.3-0.7,0.1-1.5,0.2-2.2c0.2-1.5,0.4-2.1,2.5-1.5
		c5.6,1.8,8.7,0.5,9.4-6.2c0.1-0.6-0.1-1.3,0.1-1.9c0.1-0.3,0.5-0.6,0.8-0.8c0.1-0.1,0.5,0.3,0.7,0.6c1.3,2-0.4,9.2-2.8,10.2
		c-1.8,0.7-1.5,1.7-1.2,3c0.6,2.7,1,5.5,1.5,8.2c0.2,1.2,0.3,2.3,0.5,3.5c0.8-1,1.8-2,2.5-3.1c0.4-0.7,0.2-1.7,0.4-2.5
		c0.2-0.8,0.3-1.9,0.9-2.3c3.2-2.2,2.8-5.2,2.1-8.4c-0.3-1.5-0.5-3.6,0.4-4.6c2.1-2.5,1.9-4.1-0.9-5.6c-0.4-0.2-0.5-0.9-0.7-1.3
		c0.6-0.1,1.2-0.4,1.7-0.2c4.1,1.6,5,4.1,2.3,7.4c-1.2,1.6-1.3,2.8-0.8,4.7c0.7,3.1,1.2,6.4-2.1,8.8c-0.8,0.6-1.1,2-1.4,3.1
		c-0.3,1-0.3,2.2-0.7,3.1c-0.9,2-2.8,2.9-4.8,2.5c-2.2-0.3-1.3-2.3-1.4-3.8c0-1,0.3-2,0-2.9c-0.6-2.3-1.3-4.7-2.4-6.9
		c-0.4-0.9-1.9-1.2-2.9-1.8c-0.5,0.9-1.3,1.8-1.3,2.7c-0.3,7.6-0.5,15.3-0.5,22.9c0,5.9,0.2,11.8,0.3,17.8c0,0.5-0.1,1.1-0.3,1.6
		c-0.8,2-2.9,3.1-5.3,2.7c-2.3-0.3-2.1-2.1-2.2-3.7c-0.4-4.5-1-9-1.2-13.5c-0.4-9.7-0.7-19.4-1.1-29.1c0-0.9-0.4-1.8-0.7-2.7
		c-0.2,0.9-0.6,1.7-0.7,2.6c-0.1,0.7-0.1,1.5-0.1,2.3c0.2,4.1,0.4,8.2,0.5,12.3c0.1,3.7,0,7.3,0.1,11c0.1,3.6,0.6,7.1,0.5,10.7
		c-0.1,5.1-0.8,10.1-0.8,15.2c0,4.6,0.8,9.2,0.8,13.9c0,5.9-0.5,11.9-0.9,17.8c0,0.3,0,0.6,0,0.9c0.3,0.1,0.6,0.3,0.9,0.4
		c0.5-0.8,1.1-1.5,1.8-2.2c1-0.8,2-1.6,3-2.3c0.8-0.6,1.7-1.2,2.7-1.7c-0.4-8.3,1.9-16.8,6.4-23.8c-1.4-14.5,4.9-29.7,18.9-38.1
		c14.4-8.7,31.3-12.6,48.1-12c8.8,0.3,17.5,1.4,26.3,1c4.7-1,9.2-2.5,13.7-4.2c10.2-4.6,20.2-9.6,30.8-13.5
		c-1.8,0.8-3.6,1.5-5.4,2.3c6-2.5,11.9-4.8,18.2-6.6c1.2-0.3,2.4-0.7,3.6-1c-0.1-0.8-0.1-1.6-0.2-2.5c-0.6-8.5,0.4-16.2,1.6-24.8
		C381,308.3,381.5,305.8,382,303.4z M253.1,180.3c-2.1-2.3-4.1-4.7-6.3-6.9c-2.1-2.2-4.1-4.4-6.9-5.9c-2.1-1.1-3.6-3.7-5-5.8
		c-2.1-3.1-3.9-6.2-7.6-7.7c-0.4-0.2-0.5-1.2-0.7-1.8c3,0.8,6,1.8,7.6,4.9c0.4,0.7,1.3,1.1,2,1.6c3.8,2.4,6.8,5.5,9.1,9.4
		c1.3,2.3,3.5,4.1,5.2,6.2c1.3,1.7,2.5,3.5,3.7,5.3c0.2,0.3,0.1,0.7,0.2,1.1C253.9,180.5,253.3,180.5,253.1,180.3z M306.1,314.9
		c0.3-0.8,0.4-1.7,0.9-2.2c1.1-1.3,2.3-2.6,3.7-3.6c4-2.7,8.2-5.1,12.3-7.6c0.6-0.3,1.4-0.3,2.1-0.4c0,0,0.1,0.4,0.2,0.6
		c-0.3,0.2-0.6,0.6-0.9,0.8c-1.4,0.9-2.9,1.8-4.3,2.8c-4,2.9-7.9,5.9-11.8,8.9C307.7,314.5,306.8,314.6,306.1,314.9z M337.1,300.8
		c0.1,0.1,0.2,0.3,0.3,0.4c-0.5,0.3-0.9,0.5-1.4,0.8c-1.9,2.9-3.6,5.9-5.7,8.6c-4.8,6.1-7.6,12.9-8.6,20.6c2.6-1.4,5.2-3,7.9-4.2
		c3.9-1.7,7.7-3.8,12.2-3.9c1.9,0,3.8-1.3,5.5-2.4c2-1.3,4-2,6.4-1.4c0.7,0.2,1.5,0.1,2.2,0.2c0.7,0,1.3,0,2,0.1
		c-0.4,0.6-0.8,1.2-1.2,1.8c3.6,0.9,7.1,1.8,10.7,2.7c0.2,0.1,0.5,0.5,0.5,0.7c0,0.2-0.4,0.5-0.7,0.5c-1.2,0-2.4,0.2-3.5-0.3
		c-2.4-1-4.7-2.4-7.1-3.6c-3.4-0.9-6.5-0.6-9.4,1.5c-0.6,0.4-1.5,0.8-1.7,1.4c-0.5,1.4-0.7,2.8-1.9,0.4c0-0.1-1.4,0.3-1.9,0.7
		c-0.6,0.7-0.9,1.6-1.3,2.5c0-1.5-0.5-2.3-2.1-1.5c-1.1,0.5-2.1,1-3.2,1.5c-5,2.1-10,4.3-15.1,6.4c-0.5,0.2-1.5,0-2-0.3
		c-0.3-0.2-0.2-1.2,0-1.7c1.5-3.8,3-7.5,4.5-11.3c0.9-2.2,1.7-4.4,2.9-6.4c2.1-3.4,4.3-6.7,6.7-9.9c0.9-1.2,2.5-1.8,3.8-2.6
		C336.4,301.6,336.8,301.2,337.1,300.8z M304.9,286.7c0-0.7,0.7-1.3,1.1-2c0.2,0.8,0.7,1.5,0.7,2.3c-0.1,4.6-1,9.3,0.8,13.8
		c0,0.4,0,0.9,0,1.3c0.9-0.1,2,0.2,2.7-0.2c6.8-3.5,13.6-7.1,20.3-10.6c0.4-0.2,0.7-0.6,1.1-0.6c0.8-0.1,1.6,0,2.4,0.1
		c-0.4,0.6-0.7,1.5-1.3,1.8c-7.2,3.9-14.4,7.8-21.7,11.6c-3.3,1.7-5.8,0.2-6-3.5C304.9,295.9,304.9,291.3,304.9,286.7z M260.4,211.7
		c1.8,4.1,3.2,8.3,5,12.3c0.6,1.3,1.9,2.6,3.2,3.3c6.8,4,14.2,5.5,22,5.7c3.8,0.1,3.6,0.3,4.6,4.1c2.2,8.3,0.3,16.5-0.2,24.8
		c-0.2,2.9,0,5.8,0.4,8.7c0.9,6.6,1.9,13.2,2.9,19.8c0.5,3.1,1.1,6.2,1.5,9.2c0.1,0.5-0.4,1.2-0.6,1.7c-0.4-0.5-1.1-0.9-1.2-1.4
		c-0.6-3.7-1.1-7.4-1.7-11.2c-1.1-6.6-2.2-13.2-3.4-19.8c-0.3-1.6-0.5-3.2-0.6-4.2c0.6-5.1,1.5-9.6,1.7-14.1
		c0.2-4.2-0.4-8.4-0.7-12.6c-0.1-1.9-1.3-2.8-3.2-3c-3-0.2-6.1-0.2-9-1c-4.7-1.3-9.6-2.7-13.9-5c-2.5-1.4-4.2-4.5-5.6-7.3
		c-1.8-3.5-2.9-7.4-4.4-11.1c-1.2-3.2-2.1-3.6-5.5-3c-0.5,0.1-1-0.1-1.5-0.2c0.2-0.6,0.2-1.3,0.5-1.7c1.5-1.7,4.6-1.5,6.3,0.5
		C258.6,208,259.6,209.8,260.4,211.7z M226.3,342.2c-0.2,0.6-0.7,1-1,1.5c-0.5-0.5-1-0.9-1.4-1.4c-0.2-0.3-0.1-0.9-0.3-1.2
		c-0.2-0.4-0.5-0.8-0.8-1.2c-0.4,0.3-1,0.6-1.2,1c-0.3,0.8-0.4,1.7-0.5,2.5c-0.1,1.8-0.9,2.5-2.8,2c-2.7-0.7-4.4-2.5-4.2-4.5
		c0.2-1.9,2.1-2.9,5.5-2.7c0.9-0.2,1.9-0.4,2.7-0.7c2.8-1,3.7-0.4,3.9,2.5C226.5,340.7,226.5,341.5,226.3,342.2z"/>
	<path fill="#FFFFFF" d="M157.6,258.6c-0.3,0.3-0.5,0.5-0.8,0.8c-0.1-0.1-0.2-0.3-0.3-0.4C156.9,258.9,157.3,258.7,157.6,258.6z"/>
	<path fill="#FFFFFF" d="M349.7,323.4c0.1-0.1,0.2-0.1,0.2-0.2C349.8,323.3,349.7,323.4,349.7,323.4L349.7,323.4z"/>
	<path fill="#FFFFFF" d="M337.7,312.5c-0.1-0.1-0.2-0.3-0.2-0.4c-0.1,0.1-0.3,0.3-0.3,0.4c0,0.1,0.1,0.3,0.2,0.4
		C337.5,312.7,337.6,312.6,337.7,312.5z"/>
	<path fill="#FFFFFF" d="M257.5,171.3c0.1,0.1,0.2,0.3,0.3,0.4c0.1,0,0.3-0.1,0.4-0.2c-0.1-0.1-0.2-0.3-0.3-0.4
		C257.8,171,257.7,171.2,257.5,171.3z"/>
	<polygon fill="#FFFFFF" points="243.1,353.3 243.3,353.2 243.1,353.1 	"/>
	<polygon fill="#FFFFFF" points="345.6,311.4 345.4,311.3 345.4,311.5 	"/>
	<path fill="#FFFFFF" d="M260.2,243.6c-1.3-3.6-2.6-7.3-4-10.9c-3.9-10-8.1-20-11.6-30.1c-2.8-8.1-6.7-15.6-10.7-23.1
		c-1.8-3.4-4.8-4.5-7.9-4.6c-5.8-0.2-11.6,0.3-17.4,0.5c-10.1,0.3-20.3,1-30.4,0.6c-6.7-0.3-12.8,1.5-19.1,2.7
		c-0.3,0.1-0.5,0.1-0.7,0.2c-0.2,0.5-0.3,1-0.5,1.4c0.1,0.2,0.2,0.4,0.4,0.6c1.6,1.3,1.6,3,1.3,4.7c-1.5,8.9-1.5,17.8-1.4,26.8
		c0.3,12.8,0.4,25.7,0.9,38.5c0.6,13.7,1.6,27.4,2.3,41.1c0.4,8,0.4,16,0.7,23.9c0,0.4,0.4,0.8,0.6,1.3c0.2-0.4,0.5-0.7,0.5-1.1
		c0.3-4,0.6-7.9,0.9-11.9c0.1-0.8,0.1-2.3,0.4-2.4c2.9-0.6,2.3-3,2.7-4.8c0.3-1.4,0.6-2.8,1.2-4c1.7-3.4,3.4-6.8,3-10.9
		c-0.1-0.8,0.4-1.7,0.6-2.5c1.2-5.1,2.4-10.3,3.6-15.4c0.4-1.8,0.3-3.2-2-3.5c-2.2-0.3-3.8-0.3-4.3,2.4c-0.8,4.1-1.8,8.2-2.4,12.4
		c-0.5,3.3-0.4,6.7-0.6,10c-0.2,4-0.3,7.9-0.6,11.9c0,0.6-0.6,1.3-0.9,1.9c-0.3-0.6-0.7-1.3-0.8-1.9c-0.2-5.9-0.5-11.9-0.6-17.8
		c-0.1-14.4-0.1-28.9-0.2-43.3c-0.1-6.8-0.6-13.6-0.4-20.4c0.3-10.2,1-20.5,1.5-30.7c0.1-1.5-0.2-2.6-1.8-3
		c-0.3-0.1-0.5-0.3-0.8-0.5c0.3-0.1,0.5-0.2,0.8-0.3c3.2-0.4,6.5-1,9.7-1.1c4.5-0.1,9,0.4,13.5,0.4c6,0,12.1-0.3,18.1-0.5
		c6.3-0.2,12.7-0.6,19-0.8c3.1-0.1,4.2,1.5,3,4.3c-0.5,1.1-1.4,2.1-2.3,3c-0.4,0.4-1.1,0.4-1.7,0.5c0.2-0.5,0.5-1,0.7-1.5
		c0.4-1.2,0.8-2.3,1.2-3.5c-1.1-0.3-2.2-0.8-3.3-0.7c-7.2,0.2-14.4,0.4-21.6,0.7c-1.3,0-2.6,0.1-3.9,0.1c-6,0.4-12,0.5-18,1.3
		c-2.5,0.3-4.8,1-7.2,0.1c-1.6-0.6-2.8,0-3,1.9c-0.6,6.2-1.6,12.4-1.8,18.7c-0.2,11,0.1,22,0.3,33c0.1,5.7,0.4,11.4,0.7,17.1
		c0,0.6,0.5,1.3,0.8,1.9c0.3-0.5,0.8-1,1-1.6c1-4.1,2.1-8.1,2.7-12.3c0.9-6.1,1.6-12.2,2-18.3c0.6-8.8,0.9-17.7,1.3-26.5
		c0.2-3.3,0.5-6.7,0.8-10c0-0.4,0.6-0.8,0.9-1.2c0.2,0.4,0.6,0.8,0.7,1.3c0.1,0.5-0.1,1.1-0.1,1.6c-0.5,7.6-1.3,15.3-1.3,22.9
		c-0.1,14.3-1.5,28.4-4.9,42.4c-0.8,3.1-0.2,3.9,3.1,4c6,0.2,12,0.4,18,0.5c8.2,0.1,16.3,0,24.5,0.1c2.3,0,3-0.8,2.7-3.1
		c-0.6-5-1-10.1-1.4-15.1c-0.1-2-0.8-4.2,1.2-5.7c0.2,0.6,0.5,1.2,0.5,1.8c0.4,7.5,0.8,15,1.2,22.6c0,0.4,0.1,0.8,0.2,1.2
		c0.3-0.3,0.6-0.5,0.9-0.8c1.9-1.8,1.6-4.1,1.5-6.4c-0.3-5.9-0.5-11.8-0.7-17.7c0-0.5,0.4-1.1,0.7-1.6c0.2,0.5,0.5,0.9,0.6,1.4
		c0.4,5.9,0.7,11.8,1,17.7c0.1,1.2,0.5,2.4,0.8,3.6c0.4-1.2,1.1-2.5,1-3.7c-0.5-8.1-1.2-16.1-1.8-24.2c-0.8-11.1-1.6-22.1-2.1-33.2
		c-0.1-2.3-1.6-5.9,2.9-6.5c0.4,0,0.7-0.8,1-1.2c1.4-2.5,2.8-5,4.2-7.5c0.2-0.4,0.6-0.8,1-1.2c0.3,0.4,0.8,0.8,0.8,1.2
		c0.2,4.8,3.3,8.2,5.6,12c0.4,0.6,0.6,1.4,0.9,2.1c2.7,7.6,5.5,15.2,8.2,22.9c0.2,0.6,0.4,1.3,0.8,1.8c3.5,4.2,4.5,9.4,5.9,14.5
		c0.2,0.7,0.3,1.5,0.7,2.1c1.8,2.6,3.7,5.2,5.6,7.8c0.2,0.3,0.6,0.5,0.9,0.7C260.3,244.2,260.3,243.9,260.2,243.6z M218,235.2
		c-0.2-1.3-0.2-2.7-0.8-3.8c-2.9-5.6-2.3-11.7-2.7-17.7c-0.4-5.8-1.1-11.5-1.5-17.3c-0.3-3.7-0.4-7.3-0.4-11c0-0.5,0.6-1.5,0.8-1.5
		c0.8,0.2,1.9,0.5,2.1,1c0.5,1.2,0.6,2.5,0.6,3.8c0.1,7-0.3,14.1,0.2,21.1c0.5,7.6,1.8,15.2,2.8,22.8
		C219.2,233.8,219.9,235,218,235.2z"/>
	<path fill="#FFFFFF" d="M186.2,337.3c0,3.4-0.1,6.8-0.2,10.3c0,2.4,0,4.7,0,7.1c0,2.5-0.1,5.1-0.1,7.6c0,1.2,0.3,2.4,0.3,3.5
		c0.2,9.5,0.3,18.9,0.7,28.4c0.3,8.9,1,17.9,1.5,26.8c0.3,5.4,0.7,10.9,1,16.3c6.3-0.4,13-0.3,18.7,1.5c-0.3-2.8-0.5-5.7-0.5-8.6
		c0-6.8,0.3-13.6,0.4-20.4c0-5.1-0.2-10.1-0.1-15.2c0-8.5,0.2-17,0.1-25.5c0-6.9-0.6-13.8-0.2-20.7c0.3-5.3,1.3-10.6,1-16
		c-0.7-11.7-0.8-23.5-1.2-35.2c-0.3-8.3-0.8-16.5-1.2-24.8c-0.1-2.4-0.2-4.7-0.5-7.1c-0.1-1.5-0.7-2.4-2.4-3
		c-4.8-1.7-9.7-1.1-14.6-1.5c-2.2-0.2-3.3,1.3-3.3,3.8c0.1,6.9,0,13.8,0.1,20.7c0.1,10.8,0.6,21.5,0.5,32.3c0,4.1,0.2,8.2-0.9,12.2
		c-0.4,1.6,0.2,3.6,0.4,5.4C185.8,336,186.2,336.6,186.2,337.3z"/>
	<path fill="#FFFFFF" d="M248.9,248.2c-0.8,0-1.5,0.2-2.3,0.1c-0.7,0-1.4-0.2-2.1-0.3c0.5-0.8,0.9-1.9,1.6-2.2
		c0.9-0.4,2.1-0.1,3.1,0c0.6,0.1,1.2,0.8,1.7,0.7c5.7-0.6,7.4,3.4,8.6,7.6c0.7,2.3,0.8,4.8,1.2,7.2c0,0.3,0.1,0.7,0.3,0.9
		c4.4,5.5,6.4,12.2,9.3,18.4c1.4,2.9,2.2,6,3.4,9c0.8,2.1,0.9,3.7-1,5.5c-3.9,3.7-3.9,5.8-0.7,10c0.5,0.7,0.9,1.5,1.2,2.3
		c0.4,1.3,0.1,1.9-1.5,2c-1.9,0.2-3.8,1-5.7,1.4c-0.9,0.2-2,0.4-2.7,0.1c-5.4-2.5-10.8-5.3-16.2-7.8c-3-1.4-6.1-2.6-9.2-3.8
		c-1.8-0.7-2.9-1.7-3-3.7c-0.4-7.6-0.8-15.3-1.3-22.9c-0.1-2.4,0.6-3.6,3.2-3.7c5.4-0.2,10.7-0.5,16.1-0.8c0.5,0,1.1-0.1,1.4-0.5
		c2.2-2.1,3.7-13.3,2.1-16.2C254.5,248,254.4,248,248.9,248.2z"/>
	<path fill="#FFFFFF" d="M231.5,171.3c-2.7-2.9-9.1-3.3-12.6-1c-0.7,0.4-1.6,0.5-2.4,0.7c0.4-0.9,0.5-2.1,1.1-2.8
		c2.7-2.6,7.4-3.2,10.9-1.5c1.3,0.6,2.5,1.2,3.8,1.7c-0.5-0.8-0.9-1.8-1.6-2.3c-2.5-1.8-5.2-3.4-7.8-5.1c-0.4-0.3-1-0.6-1.5-0.7
		c-5-0.7-10-1.6-15-1.8c-4.6-0.1-9.2,0.5-13.8,1c-1.5,0.2-3.1,0.6-4.4,1.3c-4.1,2.4-8,5.1-13.2,3.9c-1.5-0.3-3.2,0.1-4.8,0.2
		c-0.9,0-1.8,0.2-2.6,0c-0.6-0.2-1.1-0.8-1.7-1.2c0.6-0.5,1.1-1.3,1.7-1.6c0.6-0.3,1.5-0.2,2.2-0.2c2.9,0.1,5.8,0.4,8.7,0.5
		c0.6,0,1.2-0.5,1.8-0.8c-0.6-0.4-1.1-1-1.7-1c-3-0.2-6-0.1-9-0.4c-1.2-0.1-2.4-0.9-3.6-1.4l0,0c-1.6-1.1-1.4-2.6-0.8-4
		c0.8-1.6,2.2-1.8,3.8-1.6c2.9,0.2,5.8,0.3,8.7,0.3c1.7,0,3.1-1.2,2.7-2.9c-0.2-0.8-1.8-1.6-2.9-1.8c-1.3-0.2-2.8,0.3-4.2,0.3
		c-6.6,0.3-5.8,1.7-4.8-5.2c0.5-3.9,2.2-7.7,6.3-9.1c2.7-0.9,5.7-0.8,8.6-1.1c2-0.2,3.4,1,3.6,2.9c0.1,1.7-0.3,3.4-0.2,5.1
		c0.1,1.1,0.5,3,1.1,3.2c2.3,0.6,4.2,1.4,5.6,3.5c0.3,0.5,1.3,0.7,2,0.7c6.7,0.1,13.3,0.2,20,0.2c0.4,0,0.8-0.4,1.3-0.7
		c-0.5-0.2-0.9-0.6-1.4-0.6c-4.1,0-8.2,0.5-12.3,0.1c-9.4-0.7-8,0.9-8.2-8.4c-0.1-4.1,1.5-6,5.7-6.2c6.2-0.4,12.8-1.7,16.6,5.3
		c0.1,0.2,0.5,0.2,0.8,0.4c0.1-0.4,0.5-0.8,0.4-1.1c-1.2-2.1-2.2-4.7-4.9-5.2c-4.4-0.8-8.9-1.6-13.4-2.1c-2.4-0.3-3.9-1.1-4.3-3.5
		c-0.2-1.1-0.4-2.2-0.3-3.2c0.2-1.7-0.6-2.5-2.1-2.6c-2.4-0.3-4.9-0.7-7.3-0.7c-3.1,0-5.6-0.7-5.9-4.4c0-0.3-0.3-0.6-0.4-0.8
		c-0.1,0.3-0.4,0.6-0.4,1c-0.2,3.3,0.9,4.8,4.1,5.5c3.7,0.8,3.7,0.8,3.7,4.7c0,0.5,0,1.1,0,1.6c-0.1,2.2-0.8,3.7-3.5,3.6
		c-1.9-0.1-3.9,0.4-5.8,0.5c-6.3,0.4-9.4,2.8-10.9,8.9c-0.5,1.9-0.9,3.8-0.9,5.7c0,2.1-0.5,3.8-1.8,5.3c-0.7,7.2-2.2,14.2-4.3,21.3
		c1.4,0.4,2.8,0.1,3.7-1.6c2.5-5.1,9.2-6.7,13.9-3.4l0,0c2.6-1,5.2-2.1,7.8-2.9c2.6-0.8,5.2-1.5,7.8-2c5.2-1.1,9,2,13.1,4.3
		c1.4,0.9,2.7,2.1,3.9,3.3c0.3,0.3,0.3,0.9,0.4,1.4c-0.4,0-0.8,0.1-1.2,0.1c-4.8-0.2-9.6-0.6-14.4-0.6c-5.7,0-11.4,0.6-17.1,0.5
		c-3.3,0-1-2.2-0.9-3.4c-2.9,0.4-5.8,0.6-8.6,1.3c-0.8,0.2-1.3,1.7-2,2.7c0.9,0.2,1.8,0.5,2.7,0.6c0.8,0.1,1.7-0.1,2.6-0.1
		c6.6,0.2,13.1,0.4,19.7,0.5c1.7,0,3.4-0.2,5.2-0.3c7.4-0.3,14.8-0.6,22.2-0.8c3.7-0.1,7.4-2,11,0.4c0.6,0.4,1.5,0.2,2.3,0.3
		C232,172.9,232,171.9,231.5,171.3z M207.5,163.9c-1,0-1.9-0.2-2.8-0.5c-0.4-0.1-0.7-0.7-1-1.1c0.4-0.3,0.8-0.9,1.2-0.9
		c4.4,0.3,8.8,0.6,13.2,1c0.3,0,0.5,0.7,0.8,1.1c-0.7,0.3-1.4,0.7-2.2,1c0-0.2-0.1-0.4-0.1-0.6C213.5,163.9,210.5,164,207.5,163.9z"
		/>
	<path fill="#FFFFFF" d="M231.1,226.1c0-10.5,0-20.1,0-29.6c0-0.8-0.7-1.6-1-2.4c-0.4-1.6-1.2-3.2-1-4.8c0.1-1.5,1.7-2,2.9-0.9
		c0.9,0.8,1.6,2.1,2.1,3.2c4,10.3,8,20.7,12,31.1c1.1,2.9,2.1,5.9,3,8.9c0.3,0.9,0,2.2-0.4,3c-2.8,5.3-7.6,8.7-12.2,12.1
		c-0.8,0.6-1.8,1.2-2-0.6C233.2,239.2,232.1,232.2,231.1,226.1z"/>
	<polygon fill="#FFFFFF" points="238.7,242.2 238.7,242.4 238.9,242.4 	"/>
	<path fill="#FFFFFF" d="M233.9,326.5c0-6.7,0-13.5,0-20.2c0-1.1,0.2-2.1,0.5-3.2c0.5-1.8,1.6-2.4,3.4-1.6c0.9,0.4,1.8,0.8,2.7,1.2
		c6.6,3.2,13.2,6.3,19.8,9.5c0.6,0.3,1.2,0.8,1.8,1.2c-0.6,0.6-1.1,1.3-1.8,1.7c-4.9,2.6-9.8,5.2-14.3,8.8c-3.1,2.4-6.9,4-10.3,5.9
		c-1.2,0.7-1.9,0.3-2.1-1c-0.1-0.7-0.1-1.5-0.2-2.2C233.6,326.5,233.7,326.5,233.9,326.5z"/>
	<path fill="#FFFFFF" d="M262,248.9c0.4,0.6,1,1.1,1.3,1.8c1.3,2.8,2.6,5.7,3.8,8.6c3.6,8.7,7.2,17.5,10.7,26.3
		c2,5,3.4,10.2,5.5,15.1c2.7,6.4,5.9,12.6,8.8,19c2.8,6.3,5.6,12.6,8.3,18.9c0.2,0.6,0,1.4-0.1,2.1c-0.4-0.5-1-0.9-1.3-1.5
		c-3.8-7.2-7.5-14.5-11.3-21.7c-1.5-2.9-3.3-5.5-4.8-8.4c-1.7-3.2-4.3-5-7.8-5.7c-2.7-0.5-3.6-2.6-2.3-4.9c0.2-0.3,0.3-0.6,0.6-0.8
		c4.8-3.5,3.8-7.6,1.7-12.2c-1.9-4-3.1-8.3-4.8-12.3c-0.9-2-2.6-3.7-3.4-5.8c-1.1-3.1-1.6-6.4-2.5-9.6c-0.7-2.6-1.7-5.1-2.6-7.6
		c-0.1-0.3-0.2-0.6-0.3-0.9C261.4,249.2,261.7,249.1,262,248.9z"/>
	<path fill="#FFFFFF" d="M179.7,315.7c-0.1-2.3,0-4.7-0.3-7c-0.1-1-0.8-1.8-1.2-2.8c-0.6,0.7-1.4,1.3-1.9,2
		c-2.8,3.8-5.5,7.7-8.3,11.5c-0.3,0.4-0.7,0.6-1.1,0.9c-0.1-0.5-0.4-1-0.3-1.5c0.3-3.8,1.5-7.4,3.6-10.6c2.5-3.7,4.4-7.8,8.2-10.7
		c3.2-2.4,1.8-6.5,1.8-9.7c0-8-0.7-15.9-0.9-23.9c0-0.9,0.9-2.5,1.6-2.6c1.7-0.3,2,1.2,2,2.6c0.2,10.3,0.9,20.7,0.4,30.9
		C182.9,302,181,308.8,179.7,315.7L179.7,315.7z"/>
	<path fill="#FFFFFF" d="M202.1,111.4c-0.1,0.6-0.2,1.3-0.3,2.1c-0.4,4.3-1.7,5.4-5.9,5.3c-2.8-0.1-5.6-0.2-8.4-0.3
		c-3.3-0.1-5.3-2.4-5-5.7c0.1-0.9,0.3-1.7,0.4-2.6c0.5-4.2,2-5.5,6.2-5.6c2,0,4.1-0.3,6.1-0.2C199.9,104.4,202.1,106.7,202.1,111.4z
		"/>
	<path fill="#FFFFFF" d="M215.5,266.8c-0.1-1.3-0.2-2.6-0.2-3.9c0-0.5,0.2-1.1,0.4-1.6c0.3,0.4,0.9,0.8,1,1.3
		c1.5,5.3,3,10.5,4.6,15.8c0.3,1.1,1.3,2.1,1.9,3.1c-0.1-1.2-0.2-2.4-0.4-3.6c-0.4-2.4-1-4.9-1.4-7.3c-0.3-2,1.7-5.5,3.7-6.3
		c0.2-0.1,1.2,0.6,1.2,1c0.4,3.8,0.4,7.7,1,11.5c0.4,2.4-2.3,1.8-2.4,3.2c-0.2,1.7,2.8-0.6,2.6,2c-0.2,3,0.3,6,0.4,9
		c0.1,1.8-0.8,2.5-2.4,1.6c-3.4-1.8-6.7-3.7-6.7-8.3c0-0.5-0.4-1.3-0.6-1.3c-2.9,0.2-1.9-2-2-3.3c-0.3-4.3-0.5-8.6-0.8-12.9
		C215.4,266.8,215.5,266.8,215.5,266.8z"/>
	<polygon fill="#FFFFFF" points="226.3,290.8 226.3,291 226.4,290.9 	"/>
	<path fill="#FFFFFF" d="M135.6,307.2c3,1.4,5.8,1.6,9.2,0.4c2.5-0.9,5.6-0.4,8.4-0.3c0.4,0,1.1,0.7,1.3,1.2
		c0.6,2.1-2.1,5.6-4.3,5.8c-6.7,0.5-13.3,0.9-20,1.4c-2.8,0.2-3.6-1-2.7-3.6C128.8,308.5,131.1,307.1,135.6,307.2L135.6,307.2z"/>
	<path fill="#FFFFFF" d="M182.3,362.3c-1-4.2-2.1-8.3-2.9-12.5c-0.7-3.8-0.8-7.7-1.5-11.5c-0.1-0.8-1.5-1.8-2.3-1.9
		c-2.7-0.3-5.4-0.2-8-0.3c-1.2,0-2.7,0.2-1.3-1.8c0.3-0.4,0.3-1,0.4-1.5c0.8-4.6,2.4-5.8,7.1-4.8c2.8,0.6,4.8-0.9,5.2-3.7
		c0.2-1.9,0.1-3.9,0.2-5.8c0.1-0.9,0.3-1.8,0.5-2.7l0,0c1.9,2.9,0.3,6.1,0.8,9.1c0.1,0.8,0,1.8,0.4,2.3c2.8,3.1,2.6,6.8-0.2,10
		c-1,1.1-1,3.4-0.9,5.1c0.6,5.8,1.5,11.5,2.2,17.3C182.3,360.4,182.3,361.4,182.3,362.3L182.3,362.3z"/>
	<path fill="#FFFFFF" d="M197.3,141.3c-0.6-4.4,1.9-5.8,6.4-5.7c1.4,0,2.8,0.3,4.2,0.4c5.3,0.1,8.7,2.9,9.5,8.2
		c0.1,0.5-0.9,1.6-1.4,1.7c-4.6,0.2-9.2,0.4-13.8,0.4C198,146.1,197.3,145.3,197.3,141.3z"/>
	<path fill="#FFFFFF" d="M242.7,254.1c-1.6,0-3.2-0.1-4.8,0c-0.8,0.1-1.6,0.7-2.4,1.1c0.7,0.4,1.4,1,2.1,1.1
		c1.9,0.2,3.9,0.2,5.8,0.2c1.2,0,2.4-0.3,3.5-0.3c6.4-0.3,6.3-0.3,6,5.9c-0.1,1.9-0.5,2.1-2.4,2.1c-4.3,0-8.6,0.6-12.9,0.8
		c-1.2,0-2.5-0.7-3.7-1.1c1.1,0,2.2,0,3.4-0.1c4.1-0.2,8.2-0.4,12.3-0.7c0.6,0,1.1-0.7,1.6-1.1c-0.6-0.3-1.3-0.9-1.9-0.9
		c-3.1,0.1-6.2,0.3-9.3,0.5c-4.9,0.3-7.5-3.1-6-7.7c0.2-0.5,0.7-1.3,1.1-1.3c4.2,0,8.4,0.1,12.6,0.2c0.6,0,1.1,0.4,1.6,0.6
		c-0.6,0.2-1.1,0.5-1.7,0.5C246,254,244.4,254,242.7,254.1C242.7,254,242.7,254,242.7,254.1z"/>
	<path fill="#FFFFFF" d="M185.7,139.8c-0.2,1.3-0.1,2.6-0.5,3.8c-0.5,1.5-1.2,2.7-3.5,2.5c-2.4-0.2-4.9,0.4-7.4,0.6
		c-3,0.3-4-0.9-3.1-3.8c1.3-4.3,4.1-6.6,8.6-6.7c0.6,0,1.3,0,1.9-0.1C185.7,135.8,185.7,135.8,185.7,139.8z"/>
	<path fill="#FFFFFF" d="M170.7,302.7c0.6-4.2,1.1-8.5,1.7-12.7c0.3-1.8,0.5-3.6,0.9-5.4c0.9-4.1,2-8.1,3-12.2
		c0.1-0.3,0.3-0.5,0.5-0.8c0.1,0.3,0.3,0.5,0.3,0.8c0.3,5.2,0.2,10.5,0.9,15.7C178.8,294.9,174.7,298.7,170.7,302.7L170.7,302.7z"/>
	<path fill="#FFFFFF" d="M215.4,392.3c0-6.8,0-14,0-21.3c0-0.8-0.2-1.6,0-2.2c0.4-1,1.1-1.9,1.9-2.6c0.3-0.2,1.7,0.3,1.8,0.7
		c0.2,1.1,0.5,2.7,0,3.3c-1.4,1.5-3.1,2.6-0.8,4.7c0.1,0.1-0.7,1-1,1.7c-0.3,0.6-0.6,1.9-0.6,2c3,1,2.7,3.8,2.8,6
		c0.3,3.9,0.1,7.9,0.1,11.9c0,0.7-0.2,1.6-0.6,2.1c-0.4,0.5-1.1,1-1.8,1c-0.3,0-1-0.8-1.1-1.4C215.9,396.4,215.7,394.5,215.4,392.3z
		"/>
	<polygon fill="#FFFFFF" points="218.3,386.2 218.4,386 218.2,385.9 	"/>
	<path fill="#FFFFFF" d="M242,180.8c4.9,2.3,7,7.2,10.4,10.9c0.7,0.7,0.8,2.5,0.5,3.6c-0.4,1.4-1.5,2.6-2.2,3.9
		c-0.8-1.1-1.8-2-2.3-3.2C246.2,190.9,244.1,185.8,242,180.8L242,180.8z"/>
	<path fill="#FFFFFF" d="M175.8,318.3c0,1.8,0,3.6,0,5.5c0,1.5-0.8,2.1-2.3,1.9c-1.7-0.3-3.3-0.6-5-0.8c0.7-1.5,1.2-3.1,2.1-4.5
		c1.6-2.5,3.3-5,5-7.5c0.2-0.3,0.6-0.5,1-0.7c0.1,0.5,0.2,0.9,0.2,1.4c-0.2,1.6-0.4,3.2-0.6,4.8
		C175.9,318.3,175.8,318.3,175.8,318.3z"/>
	<path fill="#FFFFFF" d="M277.6,314.3c-0.3-0.8-0.4-1.9-0.9-2.2c-3.1-1.9,0.2-2.9,0.5-4.3c0,0,1.2-0.1,1.5,0.2
		c0.8,1,1.5,2.1,2.2,3.2c1.3,2.1,2.7,4.1,4,6.2c0.3,0.5,0.5,1.1,0.7,1.7c-0.6,0.2-1.2,0.5-1.7,0.6
		C280.8,320.2,277.3,317.4,277.6,314.3z"/>
	<path fill="#FFFFFF" d="M204.1,112.1c-0.3-2.4-0.7-4.9-1-7.3c0-0.3,0-0.6,0-0.9c0.4,0,0.9-0.1,1.2,0.1c0.6,0.4,1.4,0.9,1.6,1.5
		c1.2,4.1,2.6,8.3,1.3,12.6c-0.2,0.7-0.9,1.3-1.4,1.9c-0.5-0.7-1.4-1.3-1.5-2.1c-0.3-1.9-0.3-3.9-0.3-5.8
		C204,112.1,204,112.1,204.1,112.1z"/>
	<path fill="#FFFFFF" d="M136.6,318.5c3.6-0.6,7.1-1.3,10.7-1.9c1.4-0.2,2.8-0.2,4.2-0.1c0.5,0,1.2,0.7,1.2,1.2c0,0.4-0.6,1.2-1,1.3
		c-0.9,0.3-1.9,0.3-2.9,0.4c-4.7,0.2-9.4,0.4-14.1,0.5c-1.6,0-3.2-0.5-4.8-0.7c1.6-0.4,3.1-0.8,4.7-1.1c0.6-0.1,1.3,0,1.9,0
		C136.6,318.2,136.6,318.4,136.6,318.5z"/>
	<path fill="#FFFFFF" d="M166.1,158.7c1.6-3.3,4-4.4,7.6-3.5c1.3,0.3,2.8-0.1,4.1,0c0.8,0.1,1.4,0.8,2.2,1.2
		c-0.7,0.5-1.3,1.4-2.1,1.4C174,158.3,170.1,158.4,166.1,158.7L166.1,158.7z"/>
	<path fill="#FFFFFF" d="M155.1,320.8c2.2,1.3,4.5,2.5,4.9,5.5c0.1,1.2,0,1.2-1.1,0.9c-4.1-1.2-5.5,0-5.4,4.3c0,0.4-0.1,0.8-0.1,1.1
		c-0.4-0.3-0.9-0.6-1-1c-0.2-0.6-0.3-1.3-0.1-1.9C153.1,326.7,154.1,323.8,155.1,320.8L155.1,320.8z"/>
	<path fill="#FFFFFF" d="M190.7,152.5c0,0.2-0.2,0.9-0.4,1.7c-0.6-0.4-1.1-1.1-1.8-1.2c-1.5-0.3-3.1-0.4-4.6-0.6
		c-0.4-0.1-0.7-0.3-1-0.5c1.3-1.3,2.3-3.3,3.8-3.9C189.3,147.2,190.7,148.8,190.7,152.5z"/>
	<path fill="#FFFFFF" d="M212.1,285.9c0-7.6,0-15.2,0-22.8c0-0.4,0.1-0.8,0.2-1.2c0.1,0.4,0.3,0.9,0.3,1.3c0.4,4.7,0.8,9.4,1.1,14.1
		c0.1,1.2,0,2.4-0.2,3.5c-0.3,3.1-0.6,6.2-1,9.3c0,0.4-0.1,0.8-0.2,1.2c-0.1-0.4-0.2-0.8-0.2-1.3c0-1.4,0-2.8,0-4.2
		C212.3,285.9,212.2,285.9,212.1,285.9z"/>
	<path fill="#FFFFFF" d="M223.8,309.8c-3-2.5-6.3-4.7-4.9-9.5c0.1-0.5,0.4-1,0.5-1.5c0.4,0.4,0.9,0.8,1.1,1.3
		C221.7,303.4,222.8,306.6,223.8,309.8L223.8,309.8z"/>
	<path fill="#FFFFFF" d="M272.9,315.6c-2.3-0.2-4.1-0.3-4-2.6c0-0.6,1.4-1.8,1.6-1.7c1.4,0.7,2.8,1.7,4.1,2.6
		C274,314.6,273.3,315.2,272.9,315.6z"/>
	<path fill="#FFFFFF" d="M261.5,316.9c-4.1,2.9-8.2,5.9-12.4,8.8c-0.3,0.2-0.7,0.1-1.1,0.1c0.1-0.3,0.2-0.7,0.4-0.8
		C252.7,322.3,257.1,319.6,261.5,316.9L261.5,316.9z"/>
	<path fill="#FFFFFF" d="M187.8,157.1c-1.3,1-2.2,2-3.1,2.1c-0.7,0-2-1.3-2-1.9c0.1-0.9,1.2-2.3,1.8-2.3
		C185.5,155,186.4,156.1,187.8,157.1z"/>
	<path fill="#FFFFFF" d="M247.2,241.7c0.9-1,1.7-2.1,2.7-3.1c1.5-1.4,3.3-1,3.9,0.9c0.2,0.5,0.1,1.2-0.1,1.8c-0.1,0.2-1,0.2-1.4,0
		C250.5,240.7,248.8,240.4,247.2,241.7L247.2,241.7z"/>
	<path fill="#FFFFFF" d="M164.9,330.8c-0.4,1.4-0.9,2.9-1.4,4.3c0,0-0.8-0.1-0.8-0.2c-0.1-1.4-0.1-2.9-0.1-4.4
		c0-0.4,0.1-0.8,0.3-1.2c0.3-0.8,0.6-1.5,1-2.3c0.2,0.9,0.4,1.8,0.5,2.7c0.1,0.3,0,0.6,0,1C164.6,330.7,164.7,330.7,164.9,330.8z"/>
	<path fill="#FFFFFF" d="M160,307.9c-0.9,1.8-1.9,3.7-3,5.7c-0.1,0.2-0.5,0.3-0.7,0.5c-0.1-0.3-0.4-0.6-0.4-0.8c1-2.2,2-4.4,3.1-6.6
		c0.1-0.2,0.5-0.2,0.8-0.3C159.8,306.8,159.9,307.2,160,307.9z"/>
	<path fill="#FFFFFF" d="M215.1,360.6c0.6-0.9,0.8-1.3,1-1.7c1.1,0.9,2.2,1.8,3.4,2.7c-0.7,0.5-1.8,1.6-2.1,1.5
		C216.5,362.5,215.8,361.5,215.1,360.6z"/>
	<path fill="#FFFFFF" d="M239.2,331.7c-0.3-0.1-0.7-0.2-0.7-0.2c0.1-0.4,0.1-1,0.4-1.1c2-1.2,4.1-2.3,6.2-3.4c0.2-0.1,0.4,0,0.6,0
		c0,0.2,0,0.5-0.1,0.5C243.4,328.9,241.3,330.3,239.2,331.7z"/>
	<path fill="#FFFFFF" d="M217.5,313.6c-0.1,0.6-0.1,1.5-0.2,2.4c-0.3-0.9-0.8-1.8-0.9-2.8c-0.2-1.5-0.3-3-0.4-4.5
		c0-0.4,0.1-0.8,0.1-1.2c0.2,0.3,0.6,0.6,0.6,1C217,310.1,217.2,311.7,217.5,313.6z"/>
	<path fill="#FFFFFF" d="M169.4,304.6c-0.7,1-1.3,1.9-2,2.9c0.2-1.1,0.4-2.3,0.7-3.4c0.1-0.3,0.1-0.6,0.3-0.9
		c0.2-0.4,0.4-0.8,0.5-1.1c0.1,0.4,0.1,0.9,0.2,1.3C169.2,303.8,169.3,304.2,169.4,304.6L169.4,304.6z"/>
	<path fill="#FFFFFF" d="M159.1,316c0.6,1,1.2,1.5,1.1,1.8c-0.1,0.8-0.5,1.5-0.8,2.2c-0.3-0.3-0.8-0.7-0.8-1
		C158.5,318.2,158.8,317.4,159.1,316z"/>
	<path fill="#FFFFFF" d="M182.2,342.5c0.3-0.6,0.6-1.1,0.9-1.7c0.1,0.8,0.4,1.6,0.4,2.4c0,0.5-0.3,1.1-0.4,1.6
		C182.8,344.2,182.5,343.5,182.2,342.5z"/>
	<path fill="#FFFFFF" d="M214.7,288.6c0,0.3,0.1,0.6,0.1,0.9c0,0.4-0.1,0.7-0.2,1c-0.1-0.3-0.3-0.5-0.4-0.8
		c-0.1-0.4-0.1-0.8-0.1-1.3c-0.1-0.9-0.1-1.8-0.2-2.8c0.4,0.9,0.7,1.8,1.1,2.7C214.9,288.6,214.8,288.6,214.7,288.6z"/>
	<path fill="#FFFFFF" d="M155.1,320.8c0.1-1.2,0.2-2.4,0.3-3.6c0.2,0,0.4,0.1,0.5,0.1C155.7,318.5,155.4,319.7,155.1,320.8
		L155.1,320.8z"/>
	<path fill="#FFFFFF" d="M269.2,318.4c-0.4,0.2-0.8,0.4-1.2,0.4c-0.3,0-0.6-0.3-0.9-0.5c0.2-0.3,0.4-0.7,0.7-0.9
		c0.2-0.1,0.6,0.2,1,0.3C268.9,317.9,269,318.1,269.2,318.4z"/>
	<path fill="#FFFFFF" d="M159.6,333c-0.4-0.9-0.7-1.3-0.7-1.5c0.2-0.4,0.6-0.8,0.9-1.1c0.1,0.2,0.4,0.5,0.4,0.7
		C160.1,331.6,159.9,332,159.6,333z"/>
	<path fill="#FFFFFF" d="M249.3,250.9c-0.5-0.2-0.9-0.3-1.3-0.4c0.6-0.2,1.3-0.4,1.9-0.5c0.3,0,0.5,0.1,0.8,0.2
		C250.3,250.5,249.7,250.7,249.3,250.9z"/>
	<path fill="#FFFFFF" d="M163.9,320.4c-0.6,0.1-1,0.3-1.3,0.2c-0.2-0.1-0.4-0.4-0.5-0.7c0.4-0.2,0.7-0.4,1.1-0.4
		C163.4,319.5,163.5,319.9,163.9,320.4z"/>
	<path fill="#FFFFFF" d="M208.9,265.7c-0.2-0.3-0.4-0.5-0.5-0.8c-0.1-0.7-0.1-1.4-0.1-2.1c0,0,0.2-0.1,0.3-0.1
		c0.1,0.7,0.2,1.4,0.2,2.1C208.9,265.1,208.9,265.4,208.9,265.7L208.9,265.7z"/>
	<path fill="#FFFFFF" d="M201.2,121.1c-0.6,0.1-1.1,0.3-1.6,0.4c-0.1,0-0.2-0.3-0.2-0.5c0.5-0.1,1-0.3,1.5-0.4
		C201,120.6,201.1,120.9,201.2,121.1z"/>
	<path fill="#FFFFFF" d="M157.5,335.4c-0.5,0.3-0.8,0.5-1,0.6c-0.3,0.1-0.6-0.1-0.8-0.1c0.2-0.2,0.5-0.4,0.7-0.5
		C156.6,335.3,156.9,335.4,157.5,335.4z"/>
	<path fill="#FFFFFF" d="M156.6,329.2c0.2,0.2,0.4,0.4,0.4,0.5c-0.1,0.3-0.3,0.5-0.5,0.7c-0.2-0.2-0.5-0.4-0.4-0.5
		C156.1,329.6,156.4,329.5,156.6,329.2z"/>
	<path fill="#FFFFFF" d="M219.8,142.7c-0.1,0.3-0.2,0.4-0.2,0.6c-0.1-0.2-0.3-0.5-0.4-0.7c0-0.1,0.1-0.3,0.2-0.5
		C219.5,142.3,219.7,142.5,219.8,142.7z"/>
	<path fill="#FFFFFF" d="M238.7,250.4c0.1,0.1,0.2,0.2,0.3,0.4c-0.1,0.1-0.2,0.2-0.2,0.2c-0.2,0-0.4-0.1-0.5-0.1
		C238.4,250.7,238.6,250.6,238.7,250.4z"/>
	<path fill="#FFFFFF" d="M243.5,251c-0.2-0.1-0.4-0.2-0.5-0.3c0.1-0.1,0.3-0.2,0.4-0.3c0.1,0,0.3,0.1,0.3,0.1
		C243.6,250.7,243.6,250.9,243.5,251z"/>
	<path fill="#FFFFFF" d="M180.2,111c-0.2,0-0.3,0-0.5,0.1c0-0.1-0.1-0.2,0-0.3c0.1-0.1,0.3-0.2,0.4-0.3
		C180.1,110.6,180.1,110.8,180.2,111z"/>
	<path fill="#FFFFFF" d="M152.6,335.7c-0.1,0.1-0.3,0.1-0.4,0.1c0,0-0.1-0.2-0.1-0.2c0-0.1,0.1-0.2,0.1-0.2
		C152.3,335.5,152.4,335.6,152.6,335.7z"/>
	<path fill="#FFFFFF" d="M215.5,303.6c0,0.1,0,0.2,0,0.3c-0.1-0.1-0.3-0.1-0.4-0.2c0.1-0.1,0.1-0.2,0.2-0.2
		C215.4,303.5,215.5,303.6,215.5,303.6z"/>
	<path fill="#FFFFFF" d="M182.8,318.3c-0.1,0.1-0.1,0.1-0.2,0.2c0-0.1-0.1-0.2-0.1-0.3c0-0.1,0.1-0.1,0.2-0.2
		C182.8,318.1,182.8,318.2,182.8,318.3z"/>
	<path fill="#FFFFFF" d="M182.3,362.4c0.1,0.4,0.3,0.8,0.4,1.2C182.6,363.1,182.5,362.7,182.3,362.4L182.3,362.4z"/>
	<path fill="#FFFFFF" d="M220.9,148.5c0,0.1,0,0.2,0,0.3c-0.1-0.1-0.3-0.1-0.4-0.2c0.1-0.1,0.1-0.2,0.2-0.2
		C220.7,148.4,220.8,148.5,220.9,148.5z"/>
	<path fill="#FFFFFF" d="M167,259.5c0-0.2,0-0.3,0-0.4c0.1,0,0.2,0,0.2,0.1C167.1,259.2,167.1,259.3,167,259.5z"/>
	<path fill="#FFFFFF" d="M224.5,260c0.1,0,0.2,0,0.2,0.1c0,0.1,0,0.2,0,0.3c-0.1-0.1-0.3-0.1-0.4-0.2
		C224.3,260.1,224.4,260,224.5,260z"/>
	<path fill="#FFFFFF" d="M217.3,320.9c0,0.1,0.1,0.2,0.1,0.3c-0.1,0-0.3,0.1-0.4,0.1c0-0.1,0-0.2,0-0.3
		C217.1,321,217.2,321,217.3,320.9z"/>
	<path fill="#FFFFFF" d="M242,180.7c-0.3-0.3-0.5-0.6-0.8-0.9C241.5,180.2,241.7,180.5,242,180.7L242,180.7z"/>
	<path fill="#FFFFFF" d="M221.7,144.5c-0.1,0.1-0.1,0.1-0.2,0.2c0-0.1-0.1-0.2-0.1-0.2c0.1-0.1,0.2-0.2,0.3-0.2
		C221.7,144.3,221.7,144.4,221.7,144.5z"/>
	<path fill="#FFFFFF" d="M169.9,298.3c-0.1,0.1-0.1,0.1-0.2,0.2c-0.1-0.1-0.2-0.2-0.1-0.2c0.1-0.1,0.2-0.2,0.3-0.3
		C169.8,298.1,169.9,298.2,169.9,298.3z"/>
	<polygon fill="#FFFFFF" points="211.8,350.3 211.9,350.3 211.8,350.5 	"/>
	<polygon fill="#FFFFFF" points="215,295.8 215.2,295.8 215,296 	"/>
	<path fill="#FFFFFF" d="M266.7,315c-0.2-0.1-0.4-0.3-0.6-0.4c0.1,0,0.2,0,0.2,0C266.4,314.7,266.5,314.9,266.7,315L266.7,315z"/>
	<polygon fill="#FFFFFF" points="182.7,162 183,162 182.9,162.2 	"/>
	<polygon fill="#FFFFFF" points="180.6,107.7 180.8,107.8 180.7,107.9 	"/>
	<polygon fill="#FFFFFF" points="215.2,298.5 215,298.5 215.1,298.3 	"/>
	<path fill="#FFFFFF" d="M240.7,246.9c0.1-0.1,0.1-0.1,0.2-0.2C240.8,246.8,240.8,246.8,240.7,246.9L240.7,246.9z"/>
	<path fill="#FFFFFF" d="M247.2,241.7c-0.4,0.2-0.9,0.4-1.3,0.6l0,0C246.3,242.1,246.8,241.9,247.2,241.7L247.2,241.7z"/>
	<path fill="#FFFFFF" d="M245.2,243L245.2,243L245.2,243z"/>
	<path fill="#FFFFFF" d="M259.5,246.9L259.5,246.9L259.5,246.9z"/>
	<path fill="#FFFFFF" d="M259.5,246.9L259.5,246.9L259.5,246.9z"/>
	<path fill="#FFFFFF" d="M240.7,246.9L240.7,246.9L240.7,246.9z"/>
	<path fill="#FFFFFF" d="M245.2,243c0.2-0.2,0.4-0.4,0.6-0.7l0,0C245.7,242.6,245.5,242.8,245.2,243L245.2,243z"/>
	<path fill="#FFFFFF" d="M177.1,169.1c0.2-0.2,0.4-0.4,0.7-0.6l0,0C177.6,168.6,177.4,168.9,177.1,169.1L177.1,169.1z"/>
	<path fill="#FFFFFF" d="M232.3,168.4L232.3,168.4L232.3,168.4z"/>
	<path fill="#FFFFFF" d="M224.5,310.5L224.5,310.5L224.5,310.5z"/>
	<path fill="#FFFFFF" d="M169.4,304.6L169.4,304.6L169.4,304.6z"/>
	<path fill="#FFFFFF" d="M135.6,307.2L135.6,307.2L135.6,307.2z"/>
	<path fill="#FFFFFF" d="M170.7,302.7L170.7,302.7L170.7,302.7z"/>
	<path fill="#FFFFFF" d="M224.5,310.5c-0.2-0.2-0.4-0.4-0.7-0.6l0,0C224.1,310,224.3,310.3,224.5,310.5L224.5,310.5z"/>
	<path fill="#FFFFFF" d="M219.3,308.5L219.3,308.5L219.3,308.5z"/>
	<path fill="#FFFFFF" d="M212.2,348.1L212.2,348.1L212.2,348.1z"/>
	<path fill="#FFFFFF" d="M218,329.9c0.2-0.2,0.4-0.4,0.6-0.7l0,0C218.4,329.5,218.2,329.7,218,329.9L218,329.9z"/>
	<path fill="#FFFFFF" d="M266.6,315L266.6,315L266.6,315z"/>
	<path fill="#FFFFFF" d="M261.5,317L261.5,317L261.5,317z"/>
	<path d="M292.5,264.8c0.6-5.1,1.5-9.6,1.7-14.1c0.2-4.2-0.4-8.4-0.7-12.6c-0.1-1.9-1.3-2.8-3.2-3c-3-0.2-6.1-0.2-9-1
		c-4.7-1.3-9.6-2.7-13.9-5c-2.5-1.4-4.2-4.5-5.6-7.3c-1.8-3.5-2.9-7.4-4.4-11.1c-1.2-3.2-2.1-3.6-5.5-3c-0.5,0.1-1-0.1-1.5-0.2
		c0.2-0.6,0.2-1.3,0.5-1.7c1.5-1.7,4.6-1.5,6.3,0.5c1.3,1.5,2.3,3.4,3.1,5.2c1.8,4.1,3.2,8.3,5,12.3c0.6,1.3,1.9,2.6,3.2,3.3
		c6.8,4,14.2,5.5,22,5.7c3.8,0.1,3.6,0.3,4.6,4.1c2.2,8.3,0.3,16.5-0.2,24.8c-0.2,2.9,0,5.8,0.4,8.7c0.9,6.6,1.9,13.2,2.9,19.8
		c0.5,3.1,1.1,6.2,1.5,9.2c0.1,0.5-0.4,1.2-0.6,1.7c-0.4-0.5-1.1-0.9-1.2-1.4c-0.6-3.7-1.1-7.4-1.7-11.2c-1.1-6.6-2.2-13.2-3.4-19.8
		C292.8,267.4,292.6,265.8,292.5,264.8z"/>
	<path d="M356.8,321.5c-3.4-0.9-6.5-0.6-9.4,1.5c-0.6,0.4-1.5,0.8-1.7,1.4c-0.5,1.4-0.7,2.8-1.9,0.4c0-0.1-1.4,0.3-1.9,0.7
		c-0.6,0.7-0.9,1.7-1.3,2.5l0,0c0-1.5-0.5-2.3-2.1-1.6c-1.1,0.5-2.1,1-3.2,1.5c-5,2.1-10,4.3-15.1,6.4c-0.5,0.2-1.5,0-2-0.3
		c-0.3-0.2-0.2-1.2,0-1.7c1.5-3.8,3-7.5,4.5-11.3c0.9-2.2,1.7-4.4,2.9-6.4c2.1-3.4,4.3-6.7,6.7-9.9c0.9-1.2,2.5-1.8,3.8-2.6l0,0
		c-1.9,2.9-3.6,5.9-5.7,8.6c-4.8,6.1-7.6,12.9-8.6,20.6l0,0c2.6-1.4,5.2-3,7.9-4.2c3.9-1.7,7.7-3.8,12.2-3.9c1.9,0,3.8-1.3,5.5-2.4
		c2-1.3,4-2,6.4-1.4c0.7,0.2,1.5,0.1,2.2,0.2c0.7,0,1.3,0,2,0.1C357.6,320.2,357.2,320.8,356.8,321.5L356.8,321.5z"/>
	<path d="M307.5,302c0.9-0.1,2,0.2,2.7-0.2c6.8-3.5,13.6-7.1,20.3-10.6c0.4-0.2,0.7-0.6,1.1-0.6c0.8-0.1,1.6,0,2.4,0.1
		c-0.4,0.6-0.7,1.5-1.3,1.8c-7.2,3.9-14.4,7.8-21.7,11.6c-3.3,1.7-5.8,0.2-6-3.5c-0.2-4.6-0.2-9.2-0.2-13.8c0-0.7,0.7-1.3,1.1-2
		c0.2,0.8,0.7,1.5,0.7,2.3c-0.1,4.6-1,9.3,0.8,13.8l0,0C307.5,301.2,307.5,301.6,307.5,302L307.5,302z"/>
	<path d="M226.4,152.2c3,0.8,6,1.8,7.7,4.9c0.4,0.7,1.3,1.1,2,1.6c3.8,2.4,6.8,5.5,9.1,9.4c1.3,2.3,3.5,4.1,5.2,6.2
		c1.3,1.7,2.5,3.5,3.7,5.3c0.2,0.3,0.1,0.7,0.2,1.1c-0.4-0.1-0.9-0.1-1.2-0.4c-2.1-2.3-4.1-4.7-6.3-6.9c-2.1-2.2-4.1-4.4-6.9-5.9
		c-2.1-1.1-3.6-3.7-5-5.8c-2.1-3.1-3.9-6.2-7.6-7.7C226.8,153.9,226.7,152.8,226.4,152.2L226.4,152.2z"/>
	<path d="M237.5,161.9L237.5,161.9L237.5,161.9z"/>
	<path d="M219.8,338.1c0.9-0.2,1.9-0.4,2.7-0.7c2.8-1,3.7-0.4,3.9,2.5c0,0.7,0.1,1.5-0.1,2.2c-0.2,0.6-0.7,1-1,1.5
		c-0.5-0.5-1-0.9-1.4-1.4c-0.2-0.3-0.1-0.9-0.3-1.2c-0.2-0.4-0.5-0.8-0.8-1.2c-0.4,0.3-1,0.6-1.2,1c-0.3,0.8-0.4,1.7-0.5,2.5
		c-0.1,1.8-0.9,2.5-2.8,2c-2.7-0.7-4.4-2.5-4.2-4.5C214.5,338.8,216.4,337.8,219.8,338.1z"/>
	<path d="M325.4,301.7c-0.3,0.2-0.6,0.6-0.9,0.8c-1.4,0.9-2.9,1.8-4.3,2.8c-4,2.9-7.9,5.9-11.8,8.9c-0.6,0.4-1.4,0.5-2.1,0.7
		c0.3-0.8,0.4-1.7,0.9-2.2c1.1-1.3,2.3-2.6,3.7-3.6c4-2.7,8.2-5.1,12.3-7.6c0.6-0.3,1.4-0.3,2.1-0.4
		C325.2,301,325.3,301.4,325.4,301.7z"/>
	<path d="M218,329.9c0.2-0.2,0.4-0.4,0.6-0.7c0.4,0.4,0.8,0.7,1.2,1.1c2.5,2.2,2.4,3.4-0.2,5.5c-1.9,1.5-3.9,1.4-5-0.4
		c-1.1-1.7-0.4-3.8,1.5-4.8C216.8,330.3,217.4,330.2,218,329.9z M218.9,334.1c-0.2-0.4-0.3-0.7-0.4-1c-0.5,0.3-1,0.6-1.4,1
		c-0.1,0.1,0.1,0.5,0.2,0.8C217.8,334.7,218.3,334.4,218.9,334.1z"/>
	<path d="M356.8,321.5c3.6,0.9,7.1,1.8,10.7,2.7c0.2,0.1,0.5,0.5,0.5,0.7c0,0.2-0.4,0.5-0.7,0.5c-1.2,0-2.4,0.2-3.5-0.3
		C361.4,324.1,359.1,322.7,356.8,321.5C356.8,321.5,356.8,321.5,356.8,321.5z"/>
	<path d="M336,302c0.4-0.4,0.7-0.8,1.1-1.2c0.1,0.1,0.2,0.3,0.3,0.4C337,301.5,336.5,301.8,336,302L336,302z"/>
	<path d="M157.7,258.6c-0.3,0.3-0.5,0.6-0.8,0.8c-0.1-0.1-0.2-0.3-0.3-0.4C156.9,258.8,157.3,258.7,157.7,258.6L157.7,258.6z"/>
	<path d="M337.7,312.5c-0.1,0.1-0.2,0.3-0.4,0.4c-0.1-0.1-0.3-0.3-0.2-0.4c0-0.2,0.2-0.3,0.3-0.4
		C337.6,312.2,337.7,312.3,337.7,312.5z"/>
	<path d="M257.5,171.2c0.1-0.1,0.3-0.2,0.4-0.2c0.1,0,0.2,0.2,0.3,0.4c-0.1,0.1-0.3,0.2-0.4,0.2
		C257.7,171.6,257.6,171.4,257.5,171.2z"/>
	<polygon points="243.1,353.3 243.1,353.1 243.3,353.2 	"/>
	<polygon points="345.6,311.4 345.4,311.5 345.4,311.3 	"/>
	<path d="M307.5,300.7c0,0.4,0,0.9,0,1.3l0,0C307.5,301.6,307.5,301.2,307.5,300.7L307.5,300.7z"/>
	<path d="M349.7,323.4c0.1-0.1,0.1-0.1,0.2-0.2C349.8,323.3,349.7,323.4,349.7,323.4L349.7,323.4z"/>
	<path d="M253,217.7L253,217.7L253,217.7z"/>
	<path d="M349.7,323.4L349.7,323.4L349.7,323.4z"/>
	<path d="M340.6,328L340.6,328L340.6,328z"/>
	<path d="M218,235.2c-0.2-1.3-0.2-2.7-0.8-3.8c-2.9-5.6-2.3-11.7-2.7-17.7c-0.4-5.8-1.1-11.5-1.5-17.3c-0.3-3.7-0.4-7.3-0.4-11
		c0-0.5,0.6-1.5,0.8-1.5c0.8,0.2,1.9,0.5,2.1,1c0.5,1.2,0.6,2.5,0.6,3.8c0.1,7-0.3,14.1,0.2,21.1c0.5,7.6,1.8,15.2,2.8,22.8
		C219.2,233.8,219.9,235,218,235.2L218,235.2z"/>
	<path d="M177.1,169.1c0.2-0.2,0.4-0.4,0.6-0.7c2.6-1,5.2-2.1,7.8-2.9c2.6-0.8,5.2-1.5,7.8-2c5.2-1.1,9,2,13.1,4.3
		c1.4,0.9,2.7,2.1,3.9,3.3c0.3,0.3,0.3,0.9,0.4,1.4c-0.4,0-0.8,0.1-1.2,0.1c-4.8-0.2-9.6-0.6-14.4-0.6c-5.7,0-11.4,0.6-17.1,0.5
		C174.7,172.5,177,170.3,177.1,169.1z M181,170.4c2.7,0.1,5.3,0.4,8,0.4c5.1-0.1,10.1-0.3,15.2-0.5c0.3,0,0.7-0.3,1-0.6
		c0.1-0.1-0.2-0.6-0.5-0.8c-0.5-0.4-1.1-0.7-1.6-1C195.2,164,187.9,164.9,181,170.4L181,170.4z"/>
	<path d="M216.5,163.9c-3,0-6,0-9,0c-1,0-1.9-0.2-2.8-0.5c-0.4-0.1-0.7-0.7-1-1.1c0.4-0.3,0.8-0.9,1.2-0.9c4.4,0.3,8.8,0.6,13.2,1
		c0.3,0,0.5,0.7,0.8,1.1c-0.7,0.3-1.4,0.7-2.2,1C216.6,164.3,216.5,164.1,216.5,163.9z"/>
	<polygon points="238.7,242.2 238.9,242.4 238.7,242.4 	"/>
	<polygon points="226.3,290.8 226.4,290.9 226.3,291 	"/>
	<polygon points="218.3,386.2 218.2,385.9 218.4,386 	"/>
	<path fill="#FFFFFF" d="M321.8,331.2L321.8,331.2L321.8,331.2z"/>
	<path fill="#FFFFFF" d="M307.5,300.7c0,0.4,0,0.9,0,1.3C307.5,301.6,307.5,301.2,307.5,300.7z"/>
	<path fill="#FFFFFF" d="M237.5,161.9L237.5,161.9L237.5,161.9z"/>
	<path fill="#FFFFFF" d="M237.5,161.9L237.5,161.9L237.5,161.9z"/>
	<path fill="#FFFFFF" d="M218.9,334.1c-0.6,0.3-1.1,0.6-1.6,0.9c-0.1-0.3-0.3-0.7-0.2-0.8c0.4-0.4,0.9-0.7,1.4-1
		C218.6,333.4,218.7,333.6,218.9,334.1z"/>
	<path fill="#FFFFFF" d="M181,170.4c6.8-5.4,14.1-6.4,22-2.5c0.6,0.3,1.1,0.6,1.6,1c0.2,0.2,0.5,0.7,0.5,0.8c-0.3,0.3-0.6,0.6-1,0.6
		c-5.1,0.2-10.1,0.4-15.2,0.5C186.4,170.8,183.7,170.5,181,170.4L181,170.4z"/>
	<path fill="#FFFFFF" d="M181,170.4L181,170.4L181,170.4z"/>
</g>
</svg>
