<?xml version="1.0" encoding="utf-8"?>
<!-- Generator: Adobe Illustrator 17.1.0, SVG Export Plug-In . SVG Version: 6.00 Build 0)  -->
<!DOCTYPE svg PUBLIC "-//W3C//DTD SVG 1.1//EN" "http://www.w3.org/Graphics/SVG/1.1/DTD/svg11.dtd">
<svg version="1.1" id="Ebene_1" xmlns="http://www.w3.org/2000/svg" xmlns:xlink="http://www.w3.org/1999/xlink" x="0px" y="0px"
	 viewBox="0 0 500 500" enable-background="new 0 0 500 500" xml:space="preserve">
<g>
	<path d="M374.9,294.5c-0.1-0.5-0.2-1.1-0.5-1.5c-3.8-6.5-7.5-13.1-11.4-19.4c-4.7-7.6-9.5-15.2-16.4-21.2c-2.4-2.1-4.3-4.9-6.2-7.5
		c-5.4-7.4-12-13.5-18.4-19.9c-2.8-2.8-5-6.2-7.5-9.3c-3.1-3.7-6.5-7.2-9.4-11.1c-4.5-6.1-8.7-12.3-13-18.6
		c-5.3-7.8-11.1-14.8-19.6-19.4c-3.2-1.7-5.8-4.5-8.8-6.6c-1.3-0.9-2.8-1.6-4.3-2.2c-0.3-0.1-0.9,0.2-1.4,0.4c0.3,0.4,0.4,1,0.8,1.2
		c1.2,0.7,2.7,1,3.8,1.8c2.7,2.1,5.4,4.3,8,6.6c3.3,2.9,6.4,6.1,10,8.7c5.6,4,9.2,9.6,13,15.1c3.7,5.3,7.5,10.5,11.5,15.6
		c3.3,4.3,6.7,8.5,10.2,12.5c4.2,4.8,8.7,9.3,13,14c4.1,4.4,8.1,8.9,12,13.5c4.2,4.9,8.4,9.8,12.5,14.8c7.1,8.5,12.3,18.2,17.5,27.9
		c2.9,5.5,3.8,11.6,3.2,17.9c-0.5,5-1.5,6.2-6.4,5.6c-3.1-0.4-6.4,1.2-9.4-1c-0.3-0.2-1.4,0.3-2,0.7c-4.2,3-8.2,6.2-12.6,9.1
		c-5.8,3.9-11.8,7.7-19.2,7.9c-0.4,0-0.9,0.1-1.3-0.1c-5.5-2.2-11.2-4.1-16.4-6.7c-1.9-1-3.1-3.7-4.2-5.9c-1.8-3.5-3.3-7.3-4.8-10.9
		c-4.5-10.3-9.1-20.5-13.3-30.8c-5.3-13-9.6-26.3-15.8-39c-2.9-5.9-4.6-12.3-7-18.4c-1.7-4.2-3.7-8.3-5.3-12.5
		c-1.1-2.9-1.9-5.9-2.9-8.9l0,0c-0.6-1.2-1.4-2.4-1.9-3.7c-3.7-9.5-7.4-19.1-11.1-28.7c-0.8-2-2-3.8-2.9-5.7
		c-0.4-0.9-0.9-1.7-1.2-2.6c-0.1-0.5,0.2-1.2,0.3-1.7c0.3,0.4,0.7,0.7,0.9,1.2c1.4,2.9,3,5.7,4.2,8.7c1.7,4.1,3.3,8.2,4.9,12.3
		c0.8,2.1,2,4,4.6,3.8c2.7-0.1,3.6-2.2,4.3-4.5c1.4-4.6-1-8-3.8-11c-2.7-2.9-5.9-5.4-8.6-8.2c-1.9-2-3.2-4.6-5.2-6.6
		c-4.1-4.1-8.8-7.6-12.7-11.9c-2-2.3-4-2.3-6.5-2.3c-8.1,0.3-16.2,0.4-24.2,0.7c-2.1,0.1-2.3-0.3-1.7-2.4c0.8-2.7,2.6-4.1,5.2-3.8
		c7.1,0.9,14.2-1.5,21.2,0.5c2.4,0.7,5.1,0.3,7.6,0.4c-2.4-2.1-3.4-4.6-3.7-7.9c-0.4-4.3-2-8.3-4.7-11.8c-1.1-1.5-2.6-3.3-4.2-3.7
		c-3.7-1-7.6-1.2-11.4-1.7c-0.5-0.1-1.2,0.3-1.6,0c-0.7-0.5-1.3-1.3-1.7-2.1c-0.1-0.2,0.8-1.1,1.4-1.3c2.4-1,4.9-1.7,7.3-2.7
		c1.8-0.7,2.5-2.1,2.2-4.2c-0.4-2.7-0.5-5.4-0.9-8c-0.5-3.2-1.7-6.1-4.7-7.3c-2.8-0.2-5.7-0.3-8.8-0.3c-2.2,0-4.6-0.2-6.9-0.4
		c-2.8,0.5-5.6,1.2-8.4,1.8c-0.6,0.1-1.3,1-1.4,1.5c-0.7,4.7-1.5,9.4-1.6,14.1c-0.1,3.9,0.9,4.5,4.9,5.7c1.6,0.4,3.2,0.7,3.4,2.8
		c0.3,2.7,0,3.1-2.8,3.3c-3.4,0.3-6.8,0.8-10.2,1.2c-3.2,0.4-5,2.4-5.7,5.4c-0.6,2.5-1.2,5.1-1.7,7.6c-0.1,2.6-0.2,5.2-0.5,7.8
		c1.2-1.4,1.7-3.2,1.8-5.3c0-1.9,0.5-3.9,0.9-5.7c1.6-6.1,4.6-8.5,10.9-8.9c1.9-0.1,3.9-0.5,5.8-0.5c2.7,0.1,3.4-1.4,3.5-3.6
		c0-0.5,0-1.1,0-1.6c0.1-3.9,0.1-3.9-3.7-4.7c-3.2-0.7-4.3-2.2-4.1-5.5c0-0.3,0.3-0.7,0.4-1c0.1,0.3,0.4,0.5,0.4,0.8
		c0.3,3.7,2.8,4.4,5.9,4.4c2.4,0,4.9,0.4,7.3,0.7c1.5,0.2,2.3,1,2.1,2.6c-0.1,1,0.1,2.2,0.3,3.2c0.4,2.4,1.9,3.2,4.3,3.5
		c4.5,0.5,8.9,1.2,13.4,2.1c2.8,0.5,3.7,3.1,4.9,5.2c0.1,0.2-0.2,0.7-0.4,1.1c-0.3-0.1-0.7-0.2-0.8-0.4c-3.9-7-10.5-5.7-16.6-5.3
		c-4.2,0.2-5.8,2.1-5.7,6.2c0.2,9.3-1.2,7.7,8.2,8.4c4.1,0.3,8.2-0.1,12.3-0.1c0.5,0,0.9,0.4,1.4,0.6c-0.4,0.2-0.9,0.7-1.3,0.7
		c-6.7,0-13.3-0.1-20-0.2c-0.7,0-1.7-0.2-2-0.7c-1.3-2.1-3.3-2.9-5.6-3.5c-0.6-0.2-1.1-2-1.1-3.2c-0.1-1.7,0.3-3.4,0.2-5.1
		c-0.2-2-1.5-3.1-3.6-2.9c-2.9,0.2-5.9,0.2-8.6,1.1c-4.1,1.4-5.8,5.2-6.3,9.1c-1,6.9-1.8,5.6,4.8,5.2c1.4-0.1,2.8-0.6,4.2-0.3
		c1.1,0.2,2.7,1,2.9,1.8c0.4,1.7-1,2.9-2.7,2.9c-2.9,0.1-5.8,0-8.7-0.3c-1.7-0.1-3.1,0.1-3.8,1.6c-0.7,1.4-0.8,2.9,0.8,4
		c0,0,0,0,0,0c1.2,0.5,2.4,1.3,3.6,1.4c3,0.3,6,0.2,9,0.4c0.6,0,1.1,0.7,1.7,1c-0.6,0.3-1.2,0.8-1.8,0.8c-2.9-0.1-5.8-0.3-8.7-0.5
		c-0.8,0-1.6-0.1-2.2,0.2c-0.7,0.3-1.2,1-1.7,1.6c0.6,0.4,1.1,1.1,1.7,1.2c0.8,0.2,1.7,0.1,2.6,0c1.6-0.1,3.3-0.5,4.8-0.2
		c5.2,1.2,9.1-1.4,13.2-3.9c1.3-0.8,2.9-1.2,4.4-1.3c4.6-0.5,9.2-1.1,13.8-1c5,0.2,10,1.1,15,1.8c0.5,0.1,1,0.4,1.5,0.7
		c2.6,1.7,5.2,3.3,7.8,5.1c0.7,0.5,1.1,1.5,1.6,2.3c-1.3-0.6-2.5-1.1-3.8-1.7c-3.5-1.7-8.2-1.1-10.9,1.5c-0.7,0.6-0.8,1.8-1.1,2.8
		c0.8-0.2,1.7-0.3,2.4-0.7c3.5-2.3,9.9-1.9,12.6,1c0.5,0.6,0.6,1.6,0.8,2.5c-0.8-0.1-1.7,0.1-2.3-0.3c-3.6-2.4-7.4-0.5-11-0.4
		c-7.4,0.2-14.8,0.5-22.2,0.8c-1.7,0.1-3.4,0.3-5.2,0.3c-6.6-0.1-13.1-0.4-19.7-0.5c-0.9,0-1.7,0.2-2.6,0.1
		c-0.9-0.1-1.8-0.4-2.7-0.6c0.6-0.9,1.1-2.5,2-2.7c2.8-0.7,5.7-0.9,8.6-1.3c0.2-0.2,0.4-0.4,0.7-0.6c-4.7-3.3-11.4-1.7-13.9,3.4
		c-0.8,1.7-2.2,2-3.7,1.6c-0.5,1.8-1.1,3.6-1.7,5.4c0.2-0.1,0.4-0.2,0.7-0.2c6.3-1.2,12.4-2.9,19.1-2.7c10.1,0.4,20.3-0.3,30.4-0.6
		c5.8-0.2,11.6-0.7,17.4-0.5c3.1,0.1,6,1.2,7.9,4.6c4,7.5,7.9,15,10.7,23.1c3.6,10.2,7.8,20.1,11.6,30.1c1.4,3.6,2.7,7.3,4,10.9
		c0.1,0.3,0,0.6,0.1,0.9c-0.3-0.2-0.7-0.4-0.9-0.7c-1.9-2.6-3.8-5.2-5.6-7.8c-0.4-0.6-0.5-1.4-0.7-2.1c-1.5-5-2.5-10.2-5.9-14.5
		c-0.4-0.5-0.6-1.1-0.8-1.8c-2.7-7.6-5.5-15.2-8.2-22.9c-0.3-0.7-0.5-1.4-0.9-2.1c-2.3-3.8-5.4-7.2-5.6-12c0-0.4-0.5-0.8-0.8-1.2
		c-0.3,0.4-0.7,0.7-1,1.2c-1.4,2.5-2.8,5-4.2,7.5c-0.3,0.5-0.6,1.2-1,1.2c-4.5,0.5-3,4.1-2.9,6.5c0.5,11.1,1.3,22.1,2.1,33.2
		c0.6,8.1,1.3,16.1,1.8,24.2c0.1,1.2-0.6,2.5-1,3.7c-0.3-1.2-0.7-2.4-0.8-3.6c-0.4-5.9-0.7-11.8-1-17.7c0-0.5-0.4-1-0.6-1.4
		c-0.2,0.5-0.7,1.1-0.7,1.6c0.2,5.9,0.4,11.8,0.7,17.7c0.1,2.3,0.4,4.6-1.5,6.4c-0.3,0.3-0.6,0.5-0.9,0.8c-0.1-0.4-0.2-0.8-0.2-1.2
		c-0.4-7.5-0.8-15.1-1.2-22.6c0-0.6-0.3-1.2-0.5-1.8c-2,1.5-1.4,3.7-1.2,5.7c0.3,5.1,0.7,10.1,1.4,15.1c0.3,2.3-0.4,3.1-2.7,3.1
		c-8.2-0.1-16.3,0-24.5-0.1c-6-0.1-12-0.3-18-0.5c-3.3-0.1-3.9-0.8-3.1-4c3.5-13.9,4.8-28,4.9-42.4c0.1-7.6,0.9-15.3,1.3-22.9
		c0-0.5,0.2-1.1,0.1-1.6c-0.1-0.4-0.5-0.8-0.7-1.3c-0.3,0.4-0.8,0.8-0.9,1.2c-0.3,3.3-0.6,6.7-0.8,10c-0.5,8.8-0.7,17.7-1.3,26.5
		c-0.4,6.1-1.1,12.3-2,18.3c-0.6,4.1-1.8,8.2-2.7,12.3c-0.1,0.6-0.6,1.1-1,1.6c-0.3-0.6-0.7-1.3-0.8-1.9c-0.3-5.7-0.5-11.4-0.7-17.1
		c-0.2-11-0.5-22-0.3-33c0.1-6.2,1.1-12.5,1.8-18.7c0.2-1.9,1.4-2.5,3-1.9c2.5,0.9,4.8,0.2,7.2-0.1c6-0.8,12-0.9,18-1.3
		c1.3-0.1,2.6-0.1,3.9-0.1c7.2-0.2,14.4-0.5,21.6-0.7c1.1,0,2.2,0.5,3.3,0.7c-0.4,1.2-0.8,2.3-1.2,3.5c-0.2,0.5-0.5,1-0.7,1.5
		c0.6-0.2,1.3-0.2,1.7-0.5c0.9-0.9,1.9-1.9,2.3-3c1.2-2.8,0.1-4.4-3-4.3c-6.3,0.2-12.7,0.5-19,0.8c-6,0.2-12.1,0.5-18.1,0.5
		c-4.5,0-9-0.5-13.5-0.4c-3.2,0.1-6.5,0.7-9.7,1.1c-0.3,0-0.5,0.2-0.8,0.3c0.3,0.2,0.5,0.4,0.8,0.5c1.6,0.4,1.9,1.5,1.8,3
		c-0.5,10.2-1.2,20.5-1.5,30.7c-0.2,6.8,0.4,13.6,0.4,20.4c0.1,14.4,0.1,28.9,0.2,43.3c0,5.9,0.3,11.9,0.6,17.8
		c0,0.7,0.5,1.3,0.8,1.9c0.3-0.6,0.9-1.2,0.9-1.9c0.3-4,0.4-7.9,0.6-11.9c0.2-3.3,0.1-6.7,0.6-10c0.6-4.2,1.7-8.2,2.4-12.4
		c0.5-2.7,2.2-2.7,4.3-2.4c2.4,0.3,2.4,1.7,2,3.5c-1.2,5.1-2.4,10.3-3.6,15.4c-0.2,0.8-0.7,1.7-0.6,2.5c0.4,4-1.2,7.4-3,10.9
		c-0.6,1.2-0.9,2.7-1.2,4c-0.5,1.9,0.1,4.2-2.7,4.8c-0.3,0.1-0.3,1.5-0.4,2.4c-0.3,4-0.6,7.9-0.9,11.9c0,0.4-0.3,0.8-0.5,1.1
		c-0.2-0.4-0.6-0.8-0.6-1.3c-0.2-8-0.3-16-0.7-23.9c-0.7-13.7-1.7-27.4-2.3-41.1c-0.5-12.8-0.6-25.7-0.9-38.5
		c-0.2-9-0.2-17.9,1.4-26.8c0.3-1.8,0.2-3.4-1.3-4.7c-0.2-0.2-0.3-0.4-0.4-0.6c-0.3,0.8-0.6,1.7-0.9,2.5c0.3,0.6,0.4,1.4,0.3,2
		c-1.3,13.2-0.6,26.5-0.5,39.8c0,6.3,0,12.5,0.1,18.8c0.1,5.1,0.4,10.1,0.6,15.2l0,0c0.4,2.4,1,4.9,1,7.3c0.1,5.3-0.2,10.5-0.1,15.8
		c0,2.6,0.7,5.1,0.8,7.7c0.2,4.1,0.1,8.2,0.1,12.3c0,2.6-2.1,3.9-4.5,3.2c-1.2-0.4-2.5-0.5-3.8-0.5c-5.1,0.1-10.1,0.6-15.2,0.3
		c-7.9-0.4-12.3,4.6-10.6,12.4c0.1,0.6,0.1,1.3,0.1,1.9c0.4,3.1,3.8,5.5,6.4,4.1c4.7-2.5,9.7-1.7,14.6-1.7c6.1,0.1,6,0.3,4.3,6.2
		c-0.4,1.3-0.7,2.7-1.1,4.1c-1.2,4,0,6.1,4.2,6.3c4.6,0.2,9.1,1.2,13.7,0.2c0.5-0.1,1.1-0.2,1.6-0.2c5.7,0.6,5.9,0,6.4,6
		c0.5,5,1.6,10,2.8,14.9c1,4.1,2.5,8,3.6,12.1c0.6,2.1,1,4.2,1.2,6.3c1,13.8,2,27.6,3,41.3c0.5,6.9,1,13.8,1.6,20.7
		c0,0.2,0,0.3,0,0.5c0.1,0.3,0.2,0.5,0.3,0.9c0,0.4,0,0.7,0,1.1c0,0.1,0,0.1,0,0.2c0,0.1,0,0.2,0,0.3c0.5,0.3,0.6,0.8,0.6,1.3
		c0,0,0.1,0,0.1,0c6.8,0.1,13.7,0.3,20.5,0.4c0.3-1.1,0.8-2.1,1.4-3c-0.3-0.5-0.5-1.1-0.4-2.1c0.4-5.9,0.9-11.8,0.9-17.8
		c0-4.6-0.8-9.2-0.8-13.9c0-5.1,0.7-10.1,0.8-15.2c0.1-3.5-0.4-7.1-0.5-10.7c-0.1-3.7,0-7.3-0.1-11c-0.1-4.1-0.3-8.2-0.5-12.3
		c0-0.8-0.1-1.5,0.1-2.3c0.2-0.9,0.5-1.7,0.7-2.6c0.2,0.9,0.6,1.8,0.7,2.7c0.4,9.7,0.6,19.4,1.1,29.1c0.2,4.5,0.8,9,1.2,13.5
		c0.1,1.6,0,3.4,2.2,3.7c2.4,0.4,4.5-0.7,5.3-2.7c0.2-0.5,0.3-1.1,0.3-1.6c-0.1-5.9-0.3-11.8-0.3-17.8c0-7.6,0.3-15.3,0.5-22.9
		c0-0.9,0.9-1.8,1.3-2.7c1,0.6,2.5,0.9,2.9,1.8c1.1,2.2,1.7,4.5,2.4,6.9c0.2,0.9,0,1.9,0,2.9c0,1.4-0.8,3.4,1.4,3.8
		c2,0.3,3.9-0.6,4.8-2.5c0.5-0.9,0.4-2.1,0.7-3.1c0.4-1.1,0.6-2.5,1.4-3.1c3.3-2.4,2.9-5.7,2.1-8.8c-0.4-1.9-0.4-3.1,0.8-4.7
		c2.6-3.3,1.8-5.8-2.3-7.4c-0.5-0.2-1.1,0.1-1.7,0.2c0.2,0.4,0.3,1.1,0.7,1.3c2.8,1.5,2.9,3.1,0.9,5.6c-0.8,1-0.7,3.1-0.4,4.6
		c0.7,3.2,1.1,6.2-2.1,8.4c-0.6,0.4-0.7,1.5-0.9,2.3c-0.2,0.8,0,1.8-0.4,2.5c-0.6,1.1-1.6,2.1-2.5,3.1c-0.2-1.2-0.3-2.3-0.5-3.5
		c-0.5-2.8-0.9-5.5-1.5-8.2c-0.3-1.4-0.5-2.3,1.2-3c2.4-1,4.1-8.1,2.8-10.2c-0.2-0.2-0.6-0.6-0.7-0.6c-0.3,0.1-0.8,0.5-0.8,0.8
		c-0.1,0.6,0,1.3-0.1,1.9c-0.7,6.7-3.9,8-9.4,6.2c-2-0.7-2.3,0-2.5,1.5c-0.1,0.7,0,1.6-0.2,2.2c-0.3,0.8-0.9,1.4-1.4,2.2
		c-0.9-0.8-2.3-1.4-2.6-2.4c-0.7-2-0.9-4.2-1.1-6.3c-0.2-2.1-1.2-1.6-2.3-0.8c-0.4-9.2-0.8-18.4-1.2-27.6c-0.5-9.9-1-19.8-1.5-29.6
		c-0.4-6.8-0.8-13.5-1.1-20.3c-0.1-1.6,0.4-3.1,0.6-4.7c0.2,1.1,0.5,2.3,0.6,3.4c0.4,7.4,0.7,14.8,1.3,22.2c0.2,2.3,1.4,4.5,1.6,6.8
		c0.9,8.6,1.6,17.3,2.4,26c0.2,2.4,0.4,4.8,3.2,5.7c0.2-0.2,0.4-0.4,0.6-0.7c1.7-1.2,1.9-2.7,1.7-4.8c-0.5-5.3-0.7-10.7-1-16
		c1.5,1.6,3,3.3,4.6,4.9c0.5,0.5,1.4,0.8,2.1,1.1c0.3-0.7,1-1.5,1-2.2c-0.2-1.7-0.8-3.3-1.3-5c-1.2-3.7-2.3-7.4-3.6-11.1
		c-0.5-1.5-1.3-3.2-3.5-2c-0.1,0-0.9-0.9-1-1.4c0-0.4,0.8-1.3,1-1.3c1.5,0.6,2.9,1.3,4.3,2.1c1.3,0.8,2.6,1.6,3.6,2.7
		c0.7,0.9,1.2,2.2,1.3,3.3c0.3,5.7,0.3,11.4,0.6,17.1c0.1,1.3,0.8,2.5,1.3,3.7c0.3-1.3,0.9-2.5,0.9-3.8c0-9.8-0.1-19.7-0.1-29.5
		c0-0.7-0.2-1.5-0.3-2.2c-1.5-8.8-1.5-17.7-0.9-26.6c0.2-3.7-0.4-7.4-0.8-11.1c-1-10.5-2.1-21-2.9-31.6c-0.5-7.3-0.6-14.7-0.9-22
		c0-0.4,0.1-0.8,0.2-1.3c0.3,0.4,0.7,0.7,0.9,1.1c0.3,0.5,0.5,1,0.6,1.5c0.4,5,0.8,10.1,1.2,15.1c0.4,4.6,0.8,9.2,1.1,13.8
		c0.2,3.3,0.3,6.6,0.6,10c0.4,4.9,1.1,9.8,1.4,14.7c0.4,5,0.4,10.1,0.6,15.2c0.3,5.9,0.7,11.8,1.1,17.7c0.1,1.9,0.2,3.9,0.3,5.8
		c0.1,2.1,0.2,4.3,0.2,6.4c0,2.3,0,4.5-0.1,6.8c-0.1,3.3-0.3,6.7-0.4,10c-0.2,5.3-0.6,10.6-0.4,15.8c0.2,3.9-1.1,7.9,1,11.6
		c0.2,0.4,0.6,0.7,0.9,1.1c0.2-0.4,0.4-0.7,0.6-1.1c0.4-0.6,0.6-1.5,1.1-1.9c9-5.6,18.1-11.2,27.1-16.8c1.3-0.8,2.2-0.9,3.2,0.6
		c1.4,2.2,3.4,1,4.9,0.1c2.9-1.7,5.3-2.3,8.2,0.2c1.4,1.2,3.8,1.6,5.8,1.5c2.7-0.1,3.9,1.4,5,3.4c2.4,4.6,4.7,9.2,7.1,13.8
		c0.2,0.3,0.2,0.8,0.2,1.2c-0.4,0.1-0.8,0.2-1.2,0.1c-2.3-0.4-4.7-0.8-7-1.2c-4.2-0.8-6.6-3.7-8.5-7.1c-1.4-2.5-2.7-5.2-2.2-8.3
		c0.1-0.5-0.4-1.1-0.7-1.6c-0.6,0.4-1.5,0.6-1.6,1.1c-0.8,2.9-1.1,5.8,0.7,8.4c1.4,2.2,3.1,4.2,4.8,6.1c2.2,2.5,5,3.8,8.5,4.1
		c2.4,0.2,4.8,1.2,7.1,1.8c2.5,0.6,5,1.1,7.4,2c5.5,2,10.9,4.2,16.3,6.4c4.1,1.6,8.2,1.6,11.9-0.6c6.4-3.7,12.8-7.5,18.9-11.8
		c5.3-3.8,11.1-3.5,17.1-3.2c0.8,0,1.5,0.3,2.2,0.3c3.8,0.1,4.2-0.5,5.2-4C377.1,306,375.8,300.3,374.9,294.5z M252.4,170.7
		c0.7,0.7,0.8,2.5,0.5,3.6c-0.4,1.4-1.5,2.6-2.2,3.9c-0.8-1.1-1.8-2-2.3-3.2c-2.2-5-4.3-10.1-6.4-15.2
		C246.9,162.2,249,167.1,252.4,170.7z M199.6,100.6c-0.1,0-0.2-0.3-0.2-0.5c0.5-0.1,1-0.3,1.5-0.4c0.1,0,0.2,0.2,0.3,0.5
		C200.6,100.4,200.1,100.5,199.6,100.6z M203.1,82.9c0.4,0,0.9-0.1,1.2,0.1c0.6,0.4,1.4,0.9,1.6,1.5c1.2,4.1,2.6,8.3,1.3,12.6
		c-0.2,0.7-0.9,1.3-1.4,1.9c-0.5-0.7-1.4-1.3-1.5-2.1c-0.3-1.9-0.3-3.9-0.3-5.8c0.1,0,0.2,0,0.2,0c-0.3-2.4-0.7-4.9-1-7.3
		C203.1,83.6,203.1,83.2,203.1,82.9z M196,97.8c-2.8-0.1-5.6-0.2-8.4-0.3c-3.3-0.1-5.3-2.4-5-5.7c0.1-0.9,0.3-1.7,0.4-2.6
		c0.5-4.2,2-5.5,6.2-5.6c2,0,4.1-0.3,6.1-0.2c4.6,0.1,6.8,2.4,6.8,7c-0.1,0.6-0.2,1.3-0.3,2.1C201.5,96.8,200.2,98,196,97.8z
		 M216,124.9c-4.6,0.2-9.2,0.4-13.8,0.4c-4.2,0-4.9-0.9-4.9-4.9c-0.6-4.4,1.9-5.8,6.4-5.7c1.4,0,2.8,0.3,4.2,0.4
		c5.3,0.1,8.7,2.9,9.5,8.2C217.4,123.8,216.5,124.9,216,124.9z M178,137c-3.9,0.4-7.9,0.5-11.8,0.8c1.6-3.3,4-4.4,7.6-3.5
		c1.3,0.3,2.8-0.1,4.1,0c0.8,0.1,1.4,0.8,2.2,1.2C179.4,136.1,178.7,136.9,178,137z M174.3,125.8c-3,0.3-4-0.9-3.1-3.8
		c1.3-4.3,4.1-6.6,8.6-6.7c0.6,0,1.3,0,1.9-0.1c4-0.3,4-0.3,3.9,3.7c-0.2,1.3-0.1,2.6-0.5,3.8c-0.5,1.5-1.2,2.7-3.5,2.5
		C179.2,125,176.8,125.6,174.3,125.8z M184.8,138.3c-0.7,0-2-1.3-2-1.9c0.1-0.9,1.2-2.3,1.8-2.3c0.9,0,1.8,1.1,3.2,2.1
		C186.5,137.1,185.7,138.2,184.8,138.3z M190.3,133.3c-0.6-0.4-1.1-1.1-1.8-1.2c-1.5-0.3-3.1-0.4-4.6-0.6c-0.4-0.1-0.7-0.3-1-0.5
		c1.3-1.3,2.3-3.3,3.8-3.9c2.5-0.9,3.9,0.7,3.9,4.4C190.6,131.7,190.5,132.5,190.3,133.3z M159,285.8c0.1-0.2,0.5-0.2,0.8-0.3
		c0.1,0.4,0.1,0.8,0.2,1.6c-0.9,1.8-1.9,3.7-3,5.7c-0.1,0.2-0.5,0.3-0.7,0.5c-0.1-0.3-0.4-0.6-0.4-0.8
		C156.9,290.2,158,288,159,285.8z M155.4,296.3c0.2,0,0.4,0.1,0.5,0.1c-0.3,1.2-0.6,2.3-0.8,3.5
		C155.2,298.7,155.3,297.5,155.4,296.3z M127.6,291.1c1.2-3.6,3.5-4.9,8.1-4.8l0,0c3,1.4,5.8,1.6,9.2,0.4c2.5-0.9,5.6-0.4,8.4-0.3
		c0.4,0,1.1,0.7,1.3,1.2c0.6,2.1-2.1,5.6-4.3,5.8c-6.7,0.5-13.3,0.9-20,1.4C127.4,294.9,126.6,293.8,127.6,291.1z M151.7,298.2
		c-0.9,0.3-1.9,0.3-2.9,0.4c-4.7,0.2-9.4,0.4-14.1,0.5c-1.6,0-3.2-0.5-4.8-0.7c1.6-0.4,3.1-0.8,4.7-1.1c0.6-0.1,1.3,0,1.9,0
		c0,0.1,0,0.2,0.1,0.3c3.6-0.6,7.1-1.3,10.7-1.9c1.4-0.2,2.8-0.2,4.2-0.1c0.5,0,1.2,0.7,1.2,1.2C152.8,297.3,152.2,298,151.7,298.2z
		 M156.4,315.1c-0.3,0-0.6-0.1-0.8-0.1c0.2-0.2,0.5-0.4,0.7-0.5c0.3-0.1,0.6,0,1.1,0.1C156.9,314.8,156.7,315,156.4,315.1z
		 M153.4,310.6c0,0.4-0.1,0.8-0.1,1.1c-0.4-0.3-0.9-0.6-1-1c-0.2-0.6-0.3-1.3-0.1-1.9c0.9-3,1.9-5.9,2.9-8.9v0
		c2.2,1.3,4.5,2.5,4.9,5.5c0.1,1.2,0,1.2-1.1,0.9C154.8,305.1,153.3,306.3,153.4,310.6z M159.6,312.1c-0.4-0.9-0.7-1.3-0.7-1.5
		c0.2-0.4,0.6-0.8,0.9-1.1c0.1,0.2,0.4,0.5,0.4,0.7C160.1,310.7,159.9,311.1,159.6,312.1z M159.4,299.1c-0.3-0.3-0.8-0.7-0.8-1
		c0-0.8,0.3-1.6,0.5-3c0.6,1,1.2,1.5,1.1,1.8C160.1,297.7,159.7,298.4,159.4,299.1z M172.4,269.1c0.3-1.8,0.5-3.6,0.9-5.4
		c0.9-4.1,2-8.1,3-12.2c0.1-0.3,0.3-0.5,0.5-0.8c0.1,0.3,0.3,0.5,0.3,0.8c0.3,5.2,0.2,10.5,0.9,15.7c0.8,6.6-3.3,10.4-7.3,14.4
		C171.2,277.5,171.8,273.3,172.4,269.1z M168,283.3c0.1-0.3,0.1-0.6,0.3-0.9c0.2-0.4,0.4-0.8,0.5-1.1c0.1,0.4,0.1,0.9,0.2,1.3
		c0.1,0.4,0.2,0.8,0.3,1.2l0,0c-0.7,1-1.3,1.9-2,2.9C167.6,285.5,167.8,284.4,168,283.3z M162.1,299c0.4-0.2,0.7-0.4,1.1-0.4
		c0.2,0,0.3,0.4,0.7,0.9c-0.6,0.1-1,0.3-1.3,0.2C162.5,299.6,162.3,299.3,162.1,299z M163.5,314.2c0,0-0.8-0.1-0.8-0.2
		c-0.1-1.4-0.1-2.9-0.1-4.4c0-0.4,0.1-0.8,0.3-1.2c0.3-0.8,0.6-1.5,1-2.3c0.2,0.9,0.4,1.8,0.5,2.7c0.1,0.3,0,0.6,0,1
		c0.2,0.1,0.3,0.1,0.5,0.2C164.5,311.3,164,312.7,163.5,314.2z M179.4,328.9c-0.7-3.8-0.8-7.7-1.5-11.5c-0.1-0.8-1.5-1.8-2.3-1.9
		c-2.7-0.3-5.4-0.2-8-0.3c-1.2,0-2.7,0.2-1.3-1.8c0.3-0.4,0.3-1,0.4-1.5c0.8-4.6,2.4-5.8,7.1-4.8c2.8,0.6,4.8-0.9,5.2-3.7
		c0.2-1.9,0.1-3.9,0.2-5.8c0.1-0.9,0.3-1.8,0.5-2.7c-0.1-2.3,0-4.7-0.3-7c-0.1-1-0.8-1.8-1.2-2.8c-0.6,0.7-1.4,1.3-1.9,2
		c-2.8,3.8-5.5,7.7-8.3,11.5c-0.3,0.4-0.7,0.6-1.1,0.9c-0.1-0.5-0.4-1-0.3-1.5c0.3-3.8,1.5-7.4,3.6-10.6c2.5-3.7,4.4-7.8,8.2-10.7
		c3.2-2.4,1.8-6.5,1.8-9.7c0-8-0.7-15.9-0.9-23.9c0-0.9,0.9-2.5,1.6-2.6c1.7-0.3,2,1.2,2,2.6c0.2,10.3,0.9,20.7,0.4,30.9
		c-0.3,6.9-2.3,13.7-3.5,20.6c1.9,2.9,0.3,6.1,0.8,9.1c0.1,0.8,0,1.8,0.4,2.3c2.8,3.1,2.6,6.8-0.2,10c-1,1.1-1,3.4-0.9,5.1
		c0.6,5.8,1.5,11.5,2.2,17.3c0.1,0.9,0.1,1.9,0.1,2.9C181.3,337.2,180.2,333.1,179.4,328.9z M168.4,303.9c0.7-1.5,1.2-3.1,2.1-4.5
		c1.6-2.5,3.3-5,5-7.5c0.2-0.3,0.6-0.5,1-0.7c0.1,0.5,0.2,0.9,0.2,1.4c-0.2,1.6-0.4,3.2-0.6,4.8l-0.3,0c0,1.8,0,3.6,0,5.5
		c0,1.5-0.8,2.1-2.3,1.9C171.8,304.5,170.1,304.2,168.4,303.9z M183,324c-0.3-0.7-0.5-1.5-0.8-2.4c0.3-0.6,0.6-1.1,0.9-1.7
		c0.1,0.8,0.4,1.6,0.4,2.4C183.5,322.9,183.2,323.5,183,324z M218.3,354c0.1,0.1-0.7,1-1,1.7c-0.3,0.6-0.6,1.9-0.6,2
		c3,1,2.7,3.8,2.8,6c0.3,3.9,0.1,7.9,0.1,11.9c0,0.7-0.2,1.6-0.6,2.1c-0.4,0.5-1.1,1-1.8,1c-0.3,0-1-0.8-1-1.4
		c-0.3-1.8-0.5-3.6-0.8-5.8c0-6.8,0-14,0-21.3c0-0.8-0.2-1.6,0-2.2c0.4-1,1.1-1.9,1.9-2.6c0.3-0.2,1.7,0.3,1.8,0.7
		c0.2,1.1,0.5,2.7,0,3.3C217.7,350.8,216.1,351.9,218.3,354z M216.1,338.1c1.1,0.9,2.2,1.8,3.4,2.7c-0.7,0.5-1.8,1.6-2.1,1.5
		c-0.9-0.6-1.6-1.6-2.3-2.5C215.6,338.8,215.9,338.4,216.1,338.1z M208.8,311.6c0.3,5.5-0.6,10.7-1,16c-0.4,6.9,0.2,13.8,0.2,20.7
		c0,8.5-0.1,17-0.1,25.5c0,5.1,0.2,10.1,0.1,15.2c-0.1,6.8-0.3,13.6-0.4,20.4c0,3,0.2,6,0.6,9c0.2,1.9-0.3,2.9-2.3,2.8
		c-2.3-0.1-4.5,0-6.8,0c0,0,0-0.1,0-0.1c-1.9,0-3.9,0-5.8,0c-3.2-0.1-3.5-0.4-3.7-3.5c-0.4-5.8-0.7-11.6-1.1-17.4
		c-0.5-8.9-1.2-17.9-1.5-26.8c-0.4-9.5-0.4-18.9-0.7-28.4c0-1.2-0.3-2.4-0.3-3.5c0-2.5,0-5.1,0.1-7.6c0-2.4,0-4.7,0-7.1
		c0-3.4,0.2-6.8,0.2-10.3c0-0.7-0.4-1.4-0.5-2.1c-0.2-1.8-0.9-3.8-0.4-5.4c1.1-4.1,0.9-8.2,0.9-12.2c0.1-10.8-0.4-21.5-0.5-32.3
		c-0.1-6.9,0.1-13.8-0.1-20.7c0-2.5,1.1-4,3.3-3.8c4.9,0.4,9.8-0.2,14.6,1.5c1.6,0.6,2.2,1.6,2.4,3c0.2,2.4,0.3,4.7,0.5,7.1
		c0.4,8.3,0.9,16.5,1.2,24.8C208,288.1,208,299.9,208.8,311.6z M208.9,244.8c-0.2-0.3-0.4-0.5-0.5-0.8c-0.1-0.7-0.1-1.4-0.1-2.1
		c0,0,0.2-0.1,0.3-0.1c0.1,0.7,0.2,1.4,0.2,2.1C208.9,244.2,208.9,244.5,208.9,244.8z M218.9,279.5c0.1-0.5,0.4-1,0.5-1.5
		c0.4,0.4,0.9,0.8,1.1,1.3c1.1,3.2,2.2,6.4,3.2,9.7l0.2,0.2c-0.1-0.1-0.1-0.1-0.2-0.2C220.9,286.5,217.6,284.2,218.9,279.5z
		 M213.7,260c-0.3,3.1-0.6,6.2-1,9.3c0,0.4-0.1,0.8-0.2,1.2c-0.1-0.4-0.2-0.8-0.2-1.3c0-1.4,0-2.8,0-4.2c-0.1,0-0.1,0-0.2,0
		c0-7.6,0-15.2,0-22.8c0-0.4,0.1-0.8,0.2-1.2c0.1,0.4,0.3,0.9,0.3,1.3c0.4,4.7,0.8,9.4,1.1,14.1C213.9,257.6,213.8,258.8,213.7,260z
		 M214.8,268.7c0,0.4-0.1,0.7-0.2,1c-0.1-0.3-0.3-0.5-0.4-0.8c-0.1-0.4-0.1-0.8-0.1-1.3c-0.1-0.9-0.1-1.8-0.2-2.8
		c0.4,0.9,0.7,1.8,1.1,2.7c-0.1,0-0.2,0.1-0.3,0.1C214.8,268,214.9,268.4,214.8,268.7z M217.3,295.1c-0.3-0.9-0.8-1.8-0.9-2.8
		c-0.2-1.5-0.3-3-0.4-4.5c0-0.4,0.1-0.8,0.1-1.2c0.2,0.3,0.6,0.6,0.6,1c0.3,1.6,0.5,3.2,0.8,5.1
		C217.5,293.3,217.4,294.2,217.3,295.1z M226.3,244.4c0.4,3.8,0.4,7.7,1,11.5c0.4,2.4-2.3,1.8-2.4,3.2c-0.2,1.7,2.8-0.6,2.6,2
		c-0.2,3,0.3,6,0.4,9c0.1,1.8-0.8,2.5-2.4,1.6c-3.4-1.8-6.7-3.7-6.7-8.3c0-0.5-0.4-1.3-0.6-1.3c-2.9,0.2-1.9-2-2-3.3
		c-0.3-4.3-0.5-8.6-0.8-12.9c0.1,0,0.1,0,0.2,0c-0.1-1.3-0.2-2.6-0.2-3.9c0-0.5,0.2-1.1,0.4-1.6c0.3,0.4,0.9,0.8,1,1.3
		c1.5,5.3,3,10.5,4.6,15.8c0.3,1.1,1.3,2.1,1.9,3.1c-0.1-1.2-0.2-2.4-0.4-3.6c-0.4-2.4-1-4.9-1.4-7.3c-0.3-2,1.7-5.5,3.7-6.3
		C225.3,243.3,226.3,244,226.3,244.4z M253.8,218.7c0.2,0.5,0.1,1.2-0.1,1.8c-0.1,0.2-1,0.2-1.4,0c-1.8-0.7-3.5-0.9-5.1,0.4
		c-0.2,0.1-0.5,0.2-0.7,0.4c0.2-0.1,0.5-0.2,0.7-0.4c0.9-1,1.7-2.1,2.7-3.1C251.4,216.4,253.2,216.8,253.8,218.7z M231.1,205.2
		c0-10.5,0-20.1,0-29.6c0-0.8-0.7-1.6-1-2.4c-0.4-1.6-1.2-3.2-1-4.8c0.1-1.5,1.7-2,2.9-0.9c0.9,0.8,1.6,2.1,2.1,3.2
		c4,10.3,8,20.7,12,31.1c1.1,2.9,2.1,5.9,3,8.9c0.3,0.9,0,2.2-0.4,3c-2.8,5.3-7.6,8.7-12.2,12.1c-0.8,0.6-1.8,1.2-2-0.6
		C233.2,218.3,232.1,211.3,231.1,205.2z M249.3,232.5c-0.6,0.2-1.1,0.5-1.7,0.5c-1.6,0.1-3.2,0-4.9,0c0,0,0,0.1,0,0.1
		c-1.6,0-3.2-0.1-4.8,0c-0.8,0.1-1.6,0.7-2.4,1.1c0.7,0.4,1.4,1,2.1,1.1c1.9,0.2,3.9,0.2,5.8,0.2c1.2,0,2.4-0.3,3.5-0.3
		c6.4-0.3,6.3-0.3,6,5.9c-0.1,1.9-0.5,2.1-2.4,2.1c-4.3,0-8.6,0.6-12.9,0.8c-1.2,0-2.5-0.7-3.7-1.1c1.1,0,2.2,0,3.4-0.1
		c4.1-0.2,8.2-0.4,12.3-0.7c0.6,0,1.1-0.7,1.6-1.1c-0.6-0.3-1.3-0.9-1.9-0.9c-3.1,0.1-6.2,0.3-9.4,0.5c-4.9,0.3-7.5-3.1-6-7.7
		c0.2-0.5,0.7-1.3,1.1-1.3c4.2,0,8.4,0.1,12.6,0.2C248.2,231.9,248.8,232.3,249.3,232.5z M248,229.6c0.6-0.2,1.3-0.4,1.9-0.5
		c0.3,0,0.5,0.1,0.8,0.2c-0.5,0.2-1,0.5-1.5,0.7C248.8,229.8,248.4,229.7,248,229.6z M245.6,306.5c-2.1,1.5-4.3,2.9-6.4,4.3
		c-0.3-0.1-0.7-0.2-0.7-0.2c0.1-0.4,0.1-1,0.4-1.1c2-1.2,4.1-2.3,6.2-3.4c0.2-0.1,0.4,0,0.6,0C245.7,306.2,245.7,306.4,245.6,306.5z
		 M249.1,304.8c-0.3,0.2-0.7,0.1-1.1,0.1c0.1-0.3,0.2-0.7,0.4-0.8c4.3-2.6,8.5-5.3,12.8-7.9C257.2,299.1,253.1,302,249.1,304.8z
		 M260.2,294.1c-4.9,2.6-9.8,5.2-14.3,8.8c-3.1,2.4-6.9,4-10.3,5.9c-1.2,0.7-1.9,0.3-2.1-1c-0.1-0.7-0.1-1.5-0.2-2.2
		c0.2,0,0.3,0,0.5,0c0-6.7,0-13.5,0-20.2c0-1.1,0.2-2.1,0.5-3.2c0.5-1.8,1.6-2.4,3.4-1.6c0.9,0.4,1.8,0.8,2.7,1.2
		c6.6,3.2,13.2,6.3,19.8,9.5c0.6,0.3,1.2,0.8,1.8,1.2C261.4,293,260.9,293.8,260.2,294.1z M266.1,289.9c-0.9,0.2-2,0.4-2.7,0.1
		c-5.4-2.5-10.8-5.3-16.2-7.8c-3-1.4-6.1-2.6-9.2-3.8c-1.8-0.7-2.9-1.7-3-3.7c-0.4-7.6-0.8-15.3-1.3-22.9c-0.1-2.4,0.6-3.6,3.2-3.7
		c5.4-0.2,10.7-0.5,16.1-0.8c0.5,0,1.1-0.1,1.4-0.5c2.2-2.1,3.7-13.3,2.1-16.2c-1.8-3.4-2-3.5-7.5-3.3c-0.8,0-1.5,0.2-2.3,0.1
		c-0.7,0-1.4-0.2-2.1-0.3c0.5-0.8,0.9-1.9,1.6-2.2c0.9-0.4,2.1-0.1,3.1,0c0.6,0.1,1.2,0.8,1.7,0.7c5.7-0.6,7.4,3.4,8.6,7.6
		c0.7,2.3,0.8,4.8,1.2,7.2c0,0.3,0.1,0.7,0.3,0.9c4.4,5.5,6.4,12.2,9.3,18.4c1.4,2.9,2.2,6,3.4,9c0.8,2.1,0.9,3.7-1,5.5
		c-3.9,3.7-3.9,5.8-0.7,10c0.5,0.7,0.9,1.5,1.2,2.3c0.4,1.3,0.1,1.9-1.5,2C269.8,288.6,268,289.4,266.1,289.9z M268,297.9
		c-0.3,0-0.6-0.3-0.9-0.5c0.2-0.3,0.4-0.7,0.7-0.9c0.2-0.1,0.6,0.2,1,0.3l0.4,0.7C268.8,297.6,268.4,297.9,268,297.9z M272.9,294.7
		c-2.3-0.2-4.1-0.3-4-2.6c0-0.6,1.4-1.8,1.6-1.7c1.4,0.7,2.8,1.7,4.1,2.6C274,293.7,273.3,294.3,272.9,294.7z M283.9,298.8
		c-3.1,0.5-6.6-2.4-6.3-5.4c-0.3-0.8-0.4-1.9-0.9-2.2c-3.1-1.9,0.2-2.9,0.5-4.3c0,0,1.2-0.1,1.5,0.2c0.8,1,1.5,2.1,2.2,3.2
		c1.3,2.1,2.7,4.1,4,6.2c0.3,0.5,0.5,1.1,0.7,1.7C285.1,298.5,284.5,298.8,283.9,298.8z M300.3,319.8c-0.4-0.5-1-0.9-1.3-1.5
		c-3.8-7.2-7.5-14.5-11.3-21.7c-1.5-2.9-3.3-5.5-4.8-8.4c-1.7-3.2-4.3-5-7.8-5.7c-2.7-0.5-3.6-2.6-2.3-4.9c0.2-0.3,0.3-0.6,0.6-0.8
		c4.8-3.5,3.8-7.6,1.7-12.2c-1.9-4-3.1-8.3-4.8-12.3c-0.9-2-2.6-3.7-3.4-5.8c-1.1-3.1-1.6-6.4-2.5-9.6c-0.7-2.6-1.7-5.1-2.6-7.6
		c-0.1-0.3-0.2-0.6-0.3-0.9c0,0,0.3-0.1,0.6-0.3c0.4,0.6,1,1.1,1.3,1.8c1.3,2.8,2.6,5.7,3.8,8.6c3.6,8.7,7.2,17.5,10.7,26.3
		c2,5,3.4,10.2,5.5,15.1c2.7,6.4,5.9,12.6,8.8,19c2.8,6.3,5.6,12.6,8.3,18.9C300.7,318.3,300.4,319.1,300.3,319.8z"/>
	<path d="M259.5,226L259.5,226L259.5,226z"/>
	<path d="M240.7,226c0.1-0.1,0.1-0.1,0.2-0.2C240.8,225.9,240.8,226,240.7,226L240.7,226z"/>
	<path d="M266.7,294.1L266.7,294.1c-0.1-0.1-0.2-0.3-0.4-0.4c0,0-0.2,0-0.2,0C266.2,293.8,266.5,294,266.7,294.1z"/>
	<path d="M156.6,308.3c-0.2,0.2-0.5,0.4-0.5,0.6c0,0.1,0.3,0.3,0.4,0.5c0.2-0.2,0.4-0.4,0.5-0.7C157,308.7,156.8,308.5,156.6,308.3z
		"/>
	<path d="M219.8,121.8c-0.1-0.2-0.3-0.4-0.5-0.6c-0.1,0.2-0.2,0.4-0.2,0.5c0.1,0.3,0.3,0.5,0.4,0.7
		C219.6,122.2,219.7,122.1,219.8,121.8z"/>
	<path d="M238.7,229.5c-0.2,0.2-0.3,0.3-0.5,0.4c0.2,0,0.4,0.1,0.5,0.1c0.1,0,0.2-0.1,0.2-0.2C239,229.8,238.9,229.6,238.7,229.5z"
		/>
	<path d="M243.5,230.1c0-0.2,0.1-0.3,0.1-0.5c0,0-0.2-0.1-0.3-0.1c-0.1,0.1-0.3,0.2-0.4,0.3C243.1,229.9,243.3,230,243.5,230.1z"/>
	<path d="M180.2,90.1c0-0.2-0.1-0.4-0.1-0.6c-0.1,0.1-0.3,0.2-0.4,0.3c0,0.1,0,0.2,0,0.3C179.9,90.1,180,90.1,180.2,90.1z"/>
	<path d="M152.6,314.8c-0.1-0.1-0.2-0.2-0.4-0.3c0,0-0.1,0.1-0.1,0.2c0,0.1,0.1,0.2,0.1,0.2C152.3,314.9,152.4,314.9,152.6,314.8z"
		/>
	<path d="M215.5,282.7c-0.1,0-0.2-0.1-0.3-0.1c-0.1,0-0.1,0.2-0.2,0.2c0.1,0.1,0.3,0.1,0.4,0.2C215.5,282.9,215.5,282.8,215.5,282.7
		z"/>
	<path d="M182.8,297.4c0-0.1-0.1-0.2-0.1-0.3c-0.1,0.1-0.2,0.1-0.2,0.2c0,0.1,0,0.2,0.1,0.3C182.7,297.5,182.8,297.5,182.8,297.4z"
		/>
	<path d="M220.9,127.6c-0.1,0-0.2-0.1-0.3-0.1c-0.1,0-0.1,0.1-0.2,0.2c0.1,0.1,0.3,0.1,0.4,0.2C220.9,127.8,220.9,127.7,220.9,127.6
		z"/>
	<path d="M167,238.6c0.1-0.2,0.2-0.3,0.2-0.4c-0.1,0-0.2,0-0.2-0.1C167,238.2,167,238.3,167,238.6z"/>
	<path d="M224.5,239.1c-0.1,0.1-0.1,0.1-0.2,0.2c0.1,0.1,0.3,0.1,0.4,0.2c0-0.1,0.1-0.2,0-0.3C224.7,239.1,224.5,239.1,224.5,239.1z
		"/>
	<path d="M217.3,300c-0.1,0-0.2,0-0.3,0.1c0,0.1,0,0.2,0,0.3c0.1,0,0.3-0.1,0.4-0.1C217.4,300.2,217.4,300.1,217.3,300z"/>
	<path d="M221.7,123.6c0-0.1,0-0.2,0-0.3c-0.1,0.1-0.2,0.1-0.3,0.2c0,0,0.1,0.1,0.1,0.2C221.6,123.7,221.7,123.7,221.7,123.6z"/>
	<path d="M169.9,277.4c0-0.1,0-0.2,0-0.3c-0.1,0.1-0.2,0.2-0.3,0.3c0,0,0.1,0.1,0.1,0.2C169.7,277.5,169.8,277.4,169.9,277.4z"/>
	<polygon points="211.8,329.4 211.8,329.6 211.9,329.4 	"/>
	<polygon points="215,274.9 215,275.1 215.2,274.9 	"/>
	<polygon points="182.7,141.1 182.9,141.3 183,141.1 	"/>
	<polygon points="180.6,86.8 180.7,87 180.8,86.9 	"/>
	<polygon points="215.2,277.6 215.1,277.4 215,277.6 	"/>
	<path fill="#FFFFFF" d="M161.3,92.7c2.9,10.6,4,20.8,3.8,30.8c0.6-2.5,1.1-5.1,1.7-7.6c0.7-3,2.5-5,5.7-5.4c3.4-0.4,6.8-1,10.2-1.2
		c2.8-0.2,3.1-0.6,2.8-3.3c-0.2-2.2-1.8-2.4-3.4-2.8c-4-1.1-4.9-1.7-4.9-5.7c0.1-4.7,1-9.4,1.6-14.1c0.1-0.6,0.8-1.4,1.4-1.5
		c2.8-0.6,5.6-1.3,8.4-1.8c-5.7-0.5-11.6-1.4-17.3-3.1c-3.6,4.2-7.3,8.3-11.1,12.3C160.6,90.4,160.9,91.5,161.3,92.7z"/>
	<path fill="#FFFFFF" d="M186.5,397.8c-1-13.8-1.9-27.6-3-41.3c-0.2-2.1-0.6-4.3-1.2-6.3c-1.1-4-2.6-8-3.6-12.1
		c-1.2-4.9-2.4-9.9-2.8-14.9c-0.5-6-0.7-5.5-6.4-6c-0.5-0.1-1.1,0.1-1.6,0.2c-4.6,1-9.1,0-13.7-0.2c-4.2-0.2-5.4-2.3-4.2-6.3
		c0.4-1.3,0.7-2.7,1.1-4.1c1.7-5.9,1.7-6.1-4.3-6.2c-4.9-0.1-9.9-0.8-14.6,1.7c-2.6,1.4-6-1-6.4-4.1c-0.1-0.6,0-1.3-0.1-1.9
		c-1.7-7.8,2.7-12.8,10.6-12.4c5,0.2,10.1-0.3,15.2-0.3c1.3,0,2.6,0.1,3.8,0.5c2.4,0.7,4.5-0.6,4.5-3.2c0-4.1,0-8.2-0.1-12.3
		c-0.1-2.6-0.8-5.1-0.8-7.7c-0.1-5.3,0.2-10.5,0.1-15.8c-0.1-2.4-0.7-4.9-1-7.3c0,0,0,0,0,0c-0.2-5.1-0.5-10.1-0.6-15.2
		c-0.1-6.3-0.1-12.5-0.1-18.8c-0.1-13.3-0.8-26.5,0.5-39.8c0.1-0.6,0-1.5-0.3-2c-2,5.4-4.4,10.9-7,16.3c-0.4,0.8-0.7,1.6-1.1,2.4
		c-2.8,7.9-5.1,15.9-6.8,24.1c2.3,6.1,1.6,13.3-1.3,19.9c2.8-6.5,0.3-0.3-0.1,1.2c-0.5,1.9-1,3.8-1.3,5.8c-0.1,0.7-0.3,1.5-0.4,2.2
		c-0.1,1.4-0.3,2.9-0.4,4.3c-0.5,7.8-0.6,15.6-0.6,23.4c0,11.4-8.9,21.1-20,22.3c0.2,1.8,0.5,3.6,0.7,5.4c1.3,8.6,2.4,17,3.1,25.5
		c7,0.9,14,2.1,19.9,6.6c7.6,5.7,12.3,9.1,17.2,17.5c6.2,10.5,7.9,21.3,9,33.2c0.7,7.5,0.5,15,0.5,22.5c4.7,5.3,7.8,11.8,9.1,18.6
		c0.5,0.1,1,0.2,1.5,0.3c0.3,0.1,0.6,0.2,0.9,0.4c0.1,0,0.2-0.1,0.2-0.1c2.4-0.4,4.7,0.4,5.9,2.7c0.3,0.5,0.4,1,0.4,1.6
		c0.7,0.1,1.1,0.5,1.4,1.1c0-0.2,0-0.3,0-0.5C187.5,411.6,187,404.7,186.5,397.8z"/>
	<path fill="#FFFFFF" d="M382,282.5c-0.3-0.7-0.6-1.4-0.9-2.1c-0.4-1-2.7-6.4-1.5-3.9c-0.5-1-0.9-2-1.4-3c-1.7-3.5-3.6-7-5.6-10.4
		c-4-6.8-8.4-13.4-13.2-19.7c-0.5-0.7-1.1-1.5-1.7-2.2c0,0,0,0,0,0c-1.1-1.3-2.1-2.7-3.2-4c-2.5-3.1-5-6.1-7.6-9.2
		c-6-7.1-12.2-14-17.7-21.4c-5.2-7-10.2-14.1-15.4-21c-0.5-0.7-1-1.4-1.6-2.1c-0.2-0.2-0.3-0.4-0.6-0.7c-1.2-1.4-2.3-2.9-3.5-4.3
		c-2.7-3.2-5.4-6.2-8.1-9.4c-6.9-8.1-13.4-16.6-18.5-25.8c-0.1-0.1-0.2-0.1-0.2-0.2c-2.5-1.7-5-3.2-7.7-4.5c-4.5-1.8-9-3.8-13.2-6.2
		c-5.4-3.2-10.3-7.1-15.1-11c-5.5-4.4-10.5-9.2-16-13.5c1.3,1,2.7,2.1,4,3.1c-7.3-5.8-12.8-11.8-15.5-21.4c-0.5-1.9-0.9-3.9-1.1-5.9
		c-3.8-1.7-7.8-2.5-12.2-2.8c2.9,1.2,4.2,4,4.7,7.3c0.4,2.7,0.4,5.4,0.9,8c0.3,2-0.3,3.4-2.2,4.2c-2.4,1-4.9,1.7-7.3,2.7
		c-0.6,0.2-1.5,1.1-1.4,1.3c0.4,0.8,1,1.5,1.7,2.1c0.3,0.2,1-0.1,1.6,0c3.8,0.5,7.7,0.7,11.4,1.7c1.6,0.4,3.1,2.2,4.2,3.7
		c2.7,3.5,4.3,7.5,4.7,11.8c0.3,3.2,1.4,5.8,3.7,7.9c-2.6-0.1-5.3,0.3-7.6-0.4c-7.1-2.1-14.2,0.3-21.2-0.5c-2.6-0.3-4.3,1-5.2,3.8
		c-0.6,2-0.4,2.4,1.7,2.4c8.1-0.3,16.2-0.5,24.2-0.7c2.5-0.1,4.5,0,6.5,2.3c3.9,4.3,8.6,7.8,12.7,11.9c2,1.9,3.3,4.6,5.2,6.6
		c2.7,2.9,5.9,5.3,8.6,8.2c2.8,3,5.1,6.4,3.8,11c-0.7,2.3-1.5,4.4-4.3,4.5c-2.6,0.1-3.8-1.7-4.6-3.8c-1.6-4.1-3.2-8.2-4.9-12.3
		c-1.3-3-2.8-5.8-4.2-8.7c-0.2-0.4-0.6-0.8-0.9-1.2c-0.1,0.6-0.4,1.2-0.3,1.7c0.3,0.9,0.7,1.8,1.2,2.6c1,1.9,2.2,3.7,2.9,5.7
		c3.8,9.5,7.4,19.1,11.1,28.7c0.5,1.3,1.3,2.5,1.9,3.7l0,0c0.9,3,1.7,6,2.9,8.9c1.7,4.2,3.7,8.3,5.3,12.5c2.4,6.1,4.1,12.6,7,18.4
		c6.2,12.6,10.5,26,15.8,39c4.2,10.4,8.8,20.6,13.3,30.8c1.6,3.7,3,7.4,4.8,10.9c1.1,2.2,2.3,4.9,4.2,5.9c5.3,2.7,10.9,4.6,16.4,6.7
		c0.4,0.2,0.9,0.1,1.3,0.1c7.4-0.2,13.3-4,19.2-7.9c4.3-2.8,8.4-6.1,12.5-9.1c0.6-0.4,1.7-1,2-0.7c3,2.2,6.3,0.5,9.4,1
		c4.9,0.6,6-0.6,6.4-5.6c0.6-6.3-0.3-12.4-3.2-17.9c-5.1-9.7-10.4-19.4-17.5-27.9c-4.1-5-8.3-9.9-12.5-14.8c-3.9-4.6-8-9.1-12-13.5
		c-4.3-4.7-8.8-9.2-13-14c-3.6-4-6.9-8.2-10.2-12.5c-3.9-5.1-7.8-10.3-11.5-15.6c-3.8-5.5-7.4-11.1-13-15.1c-3.6-2.5-6.7-5.8-10-8.7
		c-2.6-2.2-5.2-4.5-8-6.6c-1.1-0.8-2.5-1.1-3.8-1.8c-0.4-0.2-0.5-0.8-0.8-1.2c0.5-0.1,1-0.5,1.4-0.4c1.5,0.6,3,1.3,4.3,2.2
		c3,2.1,5.6,4.9,8.8,6.6c8.5,4.5,14.4,11.6,19.6,19.4c4.2,6.2,8.5,12.5,13,18.6c2.9,3.9,6.3,7.4,9.4,11.1c2.5,3.1,4.7,6.5,7.5,9.3
		c6.4,6.4,13,12.5,18.4,19.9c1.9,2.6,3.8,5.4,6.2,7.5c6.9,6,11.6,13.6,16.4,21.2c4,6.4,7.6,12.9,11.4,19.4c0.3,0.5,0.4,1,0.5,1.5
		c0.9,5.8,2.2,11.5,0.6,17.6c-0.9,3.6-1.4,4.1-5.2,4c-0.7,0-1.5-0.3-2.2-0.3c-5.9-0.3-11.7-0.6-17.1,3.2
		c-6.1,4.3-12.5,8.1-18.9,11.8c-3.7,2.1-7.8,2.2-11.9,0.6c-5.4-2.2-10.8-4.4-16.3-6.4c-2.4-0.9-4.9-1.3-7.4-2
		c-2.4-0.6-4.7-1.6-7.1-1.8c-3.5-0.3-6.2-1.6-8.5-4.1c-1.7-1.9-3.4-4-4.8-6.1c-1.7-2.6-1.5-5.6-0.7-8.4c0.1-0.5,1.1-0.8,1.6-1.1
		c0.2,0.5,0.8,1.1,0.7,1.6c-0.6,3.1,0.8,5.8,2.2,8.3c1.9,3.4,4.4,6.4,8.5,7.1c2.3,0.4,4.7,0.8,7,1.2c0.4,0.1,0.8-0.1,1.2-0.1
		c-0.1-0.4-0.1-0.8-0.2-1.2c-2.3-4.6-4.7-9.2-7.1-13.8c-1-2-2.3-3.4-5-3.4c-2,0-4.4-0.3-5.8-1.5c-2.9-2.4-5.3-1.9-8.2-0.2
		c-1.5,0.9-3.5,2.1-4.9-0.1c-1-1.6-1.9-1.4-3.2-0.6c-9,5.6-18.1,11.1-27.1,16.8c-0.5,0.3-0.7,1.2-1.1,1.9c-0.2,0.4-0.4,0.7-0.6,1.1
		c-0.3-0.4-0.7-0.7-0.9-1.1c-2-3.7-0.8-7.8-1-11.6c-0.2-5.3,0.2-10.5,0.4-15.8c0.1-3.3,0.3-6.7,0.4-10c0.1-2.3,0.1-4.5,0.1-6.8
		c0-2.1-0.1-4.3-0.2-6.4c-0.1-1.9-0.2-3.9-0.3-5.8c-0.4-5.9-0.8-11.8-1.1-17.7c-0.3-5.1-0.3-10.1-0.6-15.2c-0.3-4.9-1-9.8-1.4-14.7
		c-0.3-3.3-0.4-6.6-0.6-10c-0.3-4.6-0.8-9.2-1.1-13.8c-0.4-5-0.7-10.1-1.2-15.1c0-0.5-0.3-1-0.6-1.5c-0.2-0.4-0.6-0.7-0.9-1.1
		c-0.1,0.4-0.2,0.8-0.2,1.3c0.3,7.3,0.3,14.7,0.9,22c0.8,10.5,1.9,21.1,2.9,31.6c0.3,3.7,1,7.4,0.8,11.1c-0.6,8.9-0.6,17.8,0.9,26.6
		c0.1,0.7,0.3,1.5,0.3,2.2c0.1,9.8,0.2,19.7,0.1,29.5c0,1.3-0.6,2.5-0.9,3.8c-0.4-1.2-1.2-2.5-1.3-3.7c-0.3-5.7-0.3-11.4-0.6-17.1
		c-0.1-1.1-0.6-2.4-1.3-3.3c-1-1.1-2.3-1.9-3.6-2.7c-1.4-0.8-2.8-1.5-4.3-2.1c-0.2-0.1-1,0.8-1,1.3c0,0.5,0.9,1.5,1,1.4
		c2.2-1.2,3,0.4,3.5,2c1.3,3.7,2.5,7.4,3.6,11.1c0.5,1.6,1.1,3.3,1.3,5c0.1,0.7-0.6,1.5-1,2.2c-0.7-0.4-1.5-0.6-2.1-1.1
		c-1.6-1.6-3.1-3.3-4.6-4.9c0.3,5.3,0.5,10.7,1,16c0.2,2,0.1,3.6-1.7,4.8c0.4,0.4,0.8,0.7,1.2,1.1c2.5,2.2,2.4,3.4-0.2,5.5
		c-1.9,1.5-3.9,1.4-5-0.4c-1.1-1.7-0.4-3.8,1.5-4.8c0.6-0.3,1.2-0.5,1.8-0.7c-2.8-0.9-3-3.3-3.2-5.7c-0.8-8.7-1.5-17.3-2.4-26
		c-0.2-2.3-1.5-4.5-1.6-6.8c-0.6-7.4-0.8-14.8-1.3-22.2c-0.1-1.1-0.4-2.3-0.6-3.4c-0.2,1.6-0.7,3.2-0.6,4.7
		c0.3,6.8,0.7,13.5,1.1,20.3c0.5,9.9,1,19.8,1.5,29.6c0.4,9.2,0.8,18.4,1.2,27.6c1.1-0.8,2.1-1.3,2.3,0.8c0.2,2.1,0.4,4.3,1.1,6.3
		c0.3,1,1.7,1.6,2.6,2.4c0.5-0.7,1.1-1.4,1.4-2.2c0.3-0.7,0.1-1.5,0.2-2.2c0.2-1.5,0.4-2.1,2.5-1.5c5.6,1.8,8.7,0.5,9.4-6.2
		c0.1-0.6-0.1-1.3,0.1-1.9c0.1-0.3,0.5-0.6,0.8-0.8c0.1-0.1,0.5,0.3,0.7,0.6c1.3,2-0.4,9.2-2.8,10.2c-1.8,0.7-1.5,1.7-1.2,3
		c0.6,2.7,1,5.5,1.5,8.2c0.2,1.2,0.3,2.3,0.5,3.5c0.8-1,1.8-2,2.5-3.1c0.4-0.7,0.2-1.7,0.4-2.5c0.2-0.8,0.3-1.9,0.9-2.3
		c3.2-2.2,2.8-5.2,2.1-8.4c-0.3-1.5-0.5-3.6,0.4-4.6c2.1-2.5,1.9-4.1-0.9-5.6c-0.4-0.2-0.5-0.9-0.7-1.3c0.6-0.1,1.2-0.4,1.7-0.2
		c4.1,1.6,5,4.1,2.3,7.4c-1.2,1.6-1.3,2.8-0.8,4.7c0.7,3.1,1.2,6.4-2.1,8.8c-0.8,0.6-1.1,2-1.4,3.1c-0.3,1-0.3,2.2-0.7,3.1
		c-0.9,2-2.8,2.9-4.8,2.5c-2.2-0.3-1.3-2.3-1.4-3.8c0-1,0.3-2,0-2.9c-0.6-2.3-1.3-4.7-2.4-6.9c-0.4-0.9-1.9-1.2-2.9-1.8
		c-0.5,0.9-1.3,1.8-1.3,2.7c-0.3,7.6-0.5,15.3-0.5,22.9c0,5.9,0.2,11.8,0.3,17.8c0,0.5-0.1,1.1-0.3,1.6c-0.8,2-2.9,3.1-5.3,2.7
		c-2.3-0.3-2.1-2.1-2.2-3.7c-0.4-4.5-1-9-1.2-13.5c-0.4-9.7-0.7-19.4-1.1-29.1c0-0.9-0.4-1.8-0.7-2.7c-0.2,0.9-0.6,1.7-0.7,2.6
		c-0.1,0.7-0.1,1.5-0.1,2.3c0.2,4.1,0.4,8.2,0.5,12.3c0.1,3.7,0,7.3,0.1,11c0.1,3.6,0.6,7.1,0.5,10.7c-0.1,5.1-0.8,10.1-0.8,15.2
		c0,4.6,0.8,9.2,0.8,13.9c0,5.9-0.5,11.9-0.9,17.8c-0.1,0.9,0.1,1.5,0.4,2.1c0.6-1.1,1.4-2,2.3-2.9c1-0.8,2-1.6,3-2.3
		c0.8-0.6,1.7-1.2,2.7-1.7c-0.4-8.3,1.9-16.8,6.4-23.8c-1.4-14.5,4.9-29.7,18.9-38.1c14.4-8.7,31.3-12.6,48.1-12
		c8.8,0.3,17.5,1.4,26.3,1c4.7-1,9.2-2.5,13.7-4.2c10.2-4.6,20.2-9.6,30.8-13.5c-1.8,0.8-3.6,1.5-5.4,2.3c6-2.5,11.9-4.8,18.2-6.6
		c1.2-0.3,2.4-0.7,3.6-1c-0.1-0.8-0.1-1.6-0.2-2.5c-0.6-8.5,0.4-16.2,1.6-24.8C381,287.4,381.5,284.9,382,282.5z M253.1,159.4
		c-2.1-2.3-4.1-4.7-6.3-6.9c-2.1-2.2-4.1-4.4-6.9-5.9c-2.1-1.1-3.6-3.7-5-5.8c-2.1-3.1-3.9-6.2-7.6-7.7c-0.4-0.2-0.5-1.2-0.7-1.8
		c3,0.8,6,1.8,7.6,4.9c0.4,0.7,1.3,1.1,2,1.6c3.8,2.4,6.8,5.5,9.1,9.4c1.3,2.3,3.5,4.1,5.2,6.2c1.3,1.7,2.5,3.5,3.7,5.3
		c0.2,0.3,0.1,0.7,0.2,1.1C253.9,159.6,253.3,159.6,253.1,159.4z M306.1,294c0.3-0.8,0.4-1.7,0.9-2.2c1.1-1.3,2.3-2.6,3.7-3.6
		c4-2.7,8.2-5.1,12.3-7.6c0.6-0.3,1.4-0.3,2.1-0.4c0,0,0.1,0.4,0.2,0.6c-0.3,0.2-0.6,0.6-0.9,0.8c-1.4,0.9-2.9,1.8-4.3,2.8
		c-4,2.9-7.9,5.9-11.8,8.9C307.7,293.6,306.8,293.7,306.1,294z M337.1,279.9c0.1,0.1,0.2,0.3,0.3,0.4c-0.5,0.3-0.9,0.5-1.4,0.8
		c-1.9,2.9-3.6,5.9-5.7,8.6c-4.8,6.1-7.6,12.9-8.6,20.6c2.6-1.4,5.2-3,7.9-4.2c3.9-1.7,7.7-3.8,12.2-3.9c1.9,0,3.8-1.3,5.5-2.4
		c2-1.3,4-2,6.4-1.4c0.7,0.2,1.5,0.1,2.2,0.2c0.7,0,1.3,0,2,0.1c-0.4,0.6-0.8,1.2-1.2,1.8c3.6,0.9,7.1,1.8,10.7,2.7
		c0.2,0.1,0.5,0.5,0.5,0.7c0,0.2-0.4,0.5-0.7,0.5c-1.2,0-2.4,0.2-3.5-0.3c-2.4-1-4.7-2.4-7.1-3.6c-3.4-0.9-6.5-0.6-9.4,1.5
		c-0.6,0.4-1.5,0.8-1.7,1.4c-0.5,1.4-0.7,2.8-1.9,0.4c0-0.1-1.4,0.3-1.9,0.7c-0.6,0.7-0.9,1.6-1.3,2.5c0-1.5-0.5-2.3-2.1-1.5
		c-1.1,0.5-2.1,1-3.2,1.5c-5,2.1-10,4.3-15.1,6.4c-0.5,0.2-1.5,0-2-0.3c-0.3-0.2-0.2-1.2,0-1.7c1.5-3.8,3-7.5,4.5-11.3
		c0.9-2.2,1.7-4.4,2.9-6.4c2.1-3.4,4.3-6.7,6.7-9.9c0.9-1.2,2.5-1.8,3.8-2.6C336.4,280.7,336.8,280.3,337.1,279.9z M304.9,265.8
		c0-0.7,0.7-1.3,1.1-2c0.2,0.8,0.7,1.5,0.7,2.3c-0.1,4.6-1,9.3,0.8,13.8c0,0.4,0,0.9,0,1.3c0.9-0.1,2,0.2,2.7-0.2
		c6.8-3.5,13.6-7.1,20.3-10.6c0.4-0.2,0.7-0.6,1.1-0.6c0.8-0.1,1.6,0,2.4,0.1c-0.4,0.6-0.7,1.5-1.3,1.8c-7.2,3.9-14.4,7.8-21.7,11.6
		c-3.3,1.7-5.8,0.2-6-3.5C304.9,275,304.9,270.4,304.9,265.8z M260.4,190.8c1.8,4.1,3.2,8.3,5,12.3c0.6,1.3,1.9,2.6,3.2,3.3
		c6.8,4,14.2,5.5,22,5.7c3.8,0.1,3.6,0.3,4.6,4.1c2.2,8.3,0.3,16.5-0.2,24.8c-0.2,2.9,0,5.8,0.4,8.7c0.9,6.6,1.9,13.2,2.9,19.8
		c0.5,3.1,1.1,6.2,1.5,9.2c0.1,0.5-0.4,1.2-0.6,1.7c-0.4-0.5-1.1-0.9-1.2-1.4c-0.6-3.7-1.1-7.4-1.7-11.2c-1.1-6.6-2.2-13.2-3.4-19.8
		c-0.3-1.6-0.5-3.2-0.6-4.2c0.6-5.1,1.5-9.6,1.7-14.1c0.2-4.2-0.4-8.4-0.7-12.6c-0.1-1.9-1.3-2.8-3.2-3c-3-0.2-6.1-0.2-9-1
		c-4.7-1.3-9.6-2.7-13.9-5c-2.5-1.4-4.2-4.5-5.6-7.3c-1.8-3.5-2.9-7.4-4.4-11.1c-1.2-3.2-2.1-3.6-5.5-3c-0.5,0.1-1-0.1-1.5-0.2
		c0.2-0.6,0.2-1.3,0.5-1.7c1.5-1.7,4.6-1.5,6.3,0.5C258.6,187.1,259.6,188.9,260.4,190.8z M226.3,321.3c-0.2,0.6-0.7,1-1,1.5
		c-0.5-0.5-1-0.9-1.4-1.4c-0.2-0.3-0.1-0.9-0.3-1.2c-0.2-0.4-0.5-0.8-0.8-1.2c-0.4,0.3-1,0.6-1.2,1c-0.3,0.8-0.4,1.7-0.5,2.5
		c-0.1,1.8-0.9,2.5-2.8,2c-2.7-0.7-4.4-2.5-4.2-4.5c0.2-1.9,2.1-2.9,5.5-2.7c0.9-0.2,1.9-0.4,2.7-0.7c2.8-1,3.7-0.4,3.9,2.5
		C226.5,319.8,226.5,320.6,226.3,321.3z"/>
	<path fill="#FFFFFF" d="M157.6,237.7c-0.3,0.3-0.5,0.5-0.8,0.8c-0.1-0.1-0.2-0.3-0.3-0.4C156.9,237.9,157.3,237.8,157.6,237.7z"/>
	<path fill="#FFFFFF" d="M349.7,302.5c0.1-0.1,0.2-0.1,0.2-0.2C349.8,302.4,349.7,302.5,349.7,302.5L349.7,302.5z"/>
	<path fill="#FFFFFF" d="M337.7,291.6c-0.1-0.1-0.2-0.3-0.2-0.4c-0.1,0.1-0.3,0.3-0.3,0.4c0,0.1,0.1,0.3,0.2,0.4
		C337.5,291.8,337.6,291.7,337.7,291.6z"/>
	<path fill="#FFFFFF" d="M257.5,150.3c0.1,0.1,0.2,0.3,0.3,0.4c0.1,0,0.3-0.1,0.4-0.2c-0.1-0.1-0.2-0.3-0.3-0.4
		C257.8,150.1,257.7,150.3,257.5,150.3z"/>
	<polygon fill="#FFFFFF" points="243.1,332.4 243.3,332.3 243.1,332.2 	"/>
	<polygon fill="#FFFFFF" points="345.6,290.5 345.4,290.4 345.4,290.6 	"/>
	<path fill="#FFFFFF" d="M260.2,222.7c-1.3-3.6-2.6-7.3-4-10.9c-3.9-10-8.1-20-11.6-30.1c-2.8-8.1-6.7-15.6-10.7-23.1
		c-1.8-3.4-4.8-4.5-7.9-4.6c-5.8-0.2-11.6,0.3-17.4,0.5c-10.1,0.3-20.3,1-30.4,0.6c-6.7-0.3-12.8,1.5-19.1,2.7
		c-0.3,0.1-0.5,0.1-0.7,0.2c-0.2,0.5-0.3,1-0.5,1.4c0.1,0.2,0.2,0.4,0.4,0.6c1.6,1.3,1.6,3,1.3,4.7c-1.5,8.9-1.5,17.8-1.4,26.8
		c0.3,12.8,0.4,25.7,0.9,38.5c0.6,13.7,1.6,27.4,2.3,41.1c0.4,8,0.4,16,0.7,23.9c0,0.4,0.4,0.8,0.6,1.3c0.2-0.4,0.5-0.7,0.5-1.1
		c0.3-4,0.6-7.9,0.9-11.9c0.1-0.8,0.1-2.3,0.4-2.4c2.9-0.6,2.3-3,2.7-4.8c0.3-1.4,0.6-2.8,1.2-4c1.7-3.4,3.4-6.8,3-10.9
		c-0.1-0.8,0.4-1.7,0.6-2.5c1.2-5.1,2.4-10.3,3.6-15.4c0.4-1.8,0.3-3.2-2-3.5c-2.2-0.3-3.8-0.3-4.3,2.4c-0.8,4.1-1.8,8.2-2.4,12.4
		c-0.5,3.3-0.4,6.7-0.6,10c-0.2,4-0.3,7.9-0.6,11.9c0,0.6-0.6,1.3-0.9,1.9c-0.3-0.6-0.7-1.3-0.8-1.9c-0.2-5.9-0.5-11.9-0.6-17.8
		c-0.1-14.4-0.1-28.9-0.2-43.3c-0.1-6.8-0.6-13.6-0.4-20.4c0.3-10.2,1-20.5,1.5-30.7c0.1-1.5-0.2-2.6-1.8-3
		c-0.3-0.1-0.5-0.3-0.8-0.5c0.3-0.1,0.5-0.2,0.8-0.3c3.2-0.4,6.5-1,9.7-1.1c4.5-0.1,9,0.4,13.5,0.4c6,0,12.1-0.3,18.1-0.5
		c6.3-0.2,12.7-0.6,19-0.8c3.1-0.1,4.2,1.5,3,4.3c-0.5,1.1-1.4,2.1-2.3,3c-0.4,0.4-1.1,0.4-1.7,0.5c0.2-0.5,0.5-1,0.7-1.5
		c0.4-1.2,0.8-2.3,1.2-3.5c-1.1-0.3-2.2-0.8-3.3-0.7c-7.2,0.2-14.4,0.4-21.6,0.7c-1.3,0-2.6,0.1-3.9,0.1c-6,0.4-12,0.5-18,1.3
		c-2.5,0.3-4.8,1-7.2,0.1c-1.6-0.6-2.8,0-3,1.9c-0.6,6.2-1.6,12.4-1.8,18.7c-0.2,11,0.1,22,0.3,33c0.1,5.7,0.4,11.4,0.7,17.1
		c0,0.6,0.5,1.3,0.8,1.9c0.3-0.5,0.8-1,1-1.6c1-4.1,2.1-8.1,2.7-12.3c0.9-6.1,1.6-12.2,2-18.3c0.6-8.8,0.9-17.7,1.3-26.5
		c0.2-3.3,0.5-6.7,0.8-10c0-0.4,0.6-0.8,0.9-1.2c0.2,0.4,0.6,0.8,0.7,1.3c0.1,0.5-0.1,1.1-0.1,1.6c-0.5,7.6-1.3,15.3-1.3,22.9
		c-0.1,14.3-1.5,28.4-4.9,42.4c-0.8,3.1-0.2,3.9,3.1,4c6,0.2,12,0.4,18,0.5c8.2,0.1,16.3,0,24.5,0.1c2.3,0,3-0.8,2.7-3.1
		c-0.6-5-1-10.1-1.4-15.1c-0.1-2-0.8-4.2,1.2-5.7c0.2,0.6,0.5,1.2,0.5,1.8c0.4,7.5,0.8,15,1.2,22.6c0,0.4,0.1,0.8,0.2,1.2
		c0.3-0.3,0.6-0.5,0.9-0.8c1.9-1.8,1.6-4.1,1.5-6.4c-0.3-5.9-0.5-11.8-0.7-17.7c0-0.5,0.4-1.1,0.7-1.6c0.2,0.5,0.5,0.9,0.6,1.4
		c0.4,5.9,0.7,11.8,1,17.7c0.1,1.2,0.5,2.4,0.8,3.6c0.4-1.2,1.1-2.5,1-3.7c-0.5-8.1-1.2-16.1-1.8-24.2c-0.8-11.1-1.6-22.1-2.1-33.2
		c-0.1-2.3-1.6-5.9,2.9-6.5c0.4,0,0.7-0.8,1-1.2c1.4-2.5,2.8-5,4.2-7.5c0.2-0.4,0.6-0.8,1-1.2c0.3,0.4,0.8,0.8,0.8,1.2
		c0.2,4.8,3.3,8.2,5.6,12c0.4,0.6,0.6,1.4,0.9,2.1c2.7,7.6,5.5,15.2,8.2,22.9c0.2,0.6,0.4,1.3,0.8,1.8c3.5,4.2,4.5,9.4,5.9,14.5
		c0.2,0.7,0.3,1.5,0.7,2.1c1.8,2.6,3.7,5.2,5.6,7.8c0.2,0.3,0.6,0.5,0.9,0.7C260.3,223.3,260.3,223,260.2,222.7z M218,214.3
		c-0.2-1.3-0.2-2.7-0.8-3.8c-2.9-5.6-2.3-11.7-2.7-17.7c-0.4-5.8-1.1-11.5-1.5-17.3c-0.3-3.7-0.4-7.3-0.4-11c0-0.5,0.6-1.5,0.8-1.5
		c0.8,0.2,1.9,0.5,2.1,1c0.5,1.2,0.6,2.5,0.6,3.8c0.1,7-0.3,14.1,0.2,21.1c0.5,7.6,1.8,15.2,2.8,22.8
		C219.2,212.9,219.9,214.1,218,214.3z"/>
	<path fill="#FFFFFF" d="M199.1,421.1c-1.9,0-3.9,0-5.8,0c-3.2-0.1-3.5-0.4-3.7-3.5c-0.4-5.8-0.7-11.6-1.1-17.4
		c-0.5-8.9-1.2-17.9-1.5-26.8c-0.4-9.5-0.4-18.9-0.7-28.4c0-1.2-0.3-2.4-0.3-3.5c0-2.5,0-5.1,0.1-7.6c0-2.4,0-4.7,0-7.1
		c0-3.4,0.2-6.8,0.2-10.3c0-0.7-0.4-1.4-0.5-2.1c-0.2-1.8-0.9-3.8-0.4-5.4c1.1-4.1,0.9-8.2,0.9-12.2c0.1-10.8-0.4-21.5-0.5-32.3
		c-0.1-6.9,0.1-13.8-0.1-20.7c0-2.5,1.1-4,3.3-3.8c4.9,0.4,9.8-0.2,14.6,1.5c1.6,0.6,2.2,1.6,2.4,3c0.2,2.4,0.3,4.7,0.5,7.1
		c0.4,8.3,0.9,16.5,1.2,24.8c0.4,11.7,0.5,23.5,1.2,35.2c0.3,5.5-0.6,10.7-1,16c-0.4,6.9,0.2,13.8,0.2,20.7c0,8.5-0.1,17-0.1,25.5
		c0,5.1,0.2,10.1,0.1,15.2c-0.1,6.8-0.3,13.6-0.4,20.4c0,3,0.2,6,0.6,9c0.2,1.9-0.3,2.9-2.3,2.8
		C203.6,421.1,201.3,421.2,199.1,421.1C199.1,421.2,199.1,421.1,199.1,421.1z"/>
	<path fill="#FFFFFF" d="M248.9,227.3c-0.8,0-1.5,0.2-2.3,0.1c-0.7,0-1.4-0.2-2.1-0.3c0.5-0.8,0.9-1.9,1.6-2.2
		c0.9-0.4,2.1-0.1,3.1,0c0.6,0.1,1.2,0.8,1.7,0.7c5.7-0.6,7.4,3.4,8.6,7.6c0.7,2.3,0.8,4.8,1.2,7.2c0,0.3,0.1,0.7,0.3,0.9
		c4.4,5.5,6.4,12.2,9.3,18.4c1.4,2.9,2.2,6,3.4,9c0.8,2.1,0.9,3.7-1,5.5c-3.9,3.7-3.9,5.8-0.7,10c0.5,0.7,0.9,1.5,1.2,2.3
		c0.4,1.3,0.1,1.9-1.5,2c-1.9,0.2-3.8,1-5.7,1.4c-0.9,0.2-2,0.4-2.7,0.1c-5.4-2.5-10.8-5.3-16.2-7.8c-3-1.4-6.1-2.6-9.2-3.8
		c-1.8-0.7-2.9-1.7-3-3.7c-0.4-7.6-0.8-15.3-1.3-22.9c-0.1-2.4,0.6-3.6,3.2-3.7c5.4-0.2,10.7-0.5,16.1-0.8c0.5,0,1.1-0.1,1.4-0.5
		c2.2-2.1,3.7-13.3,2.1-16.2C254.5,227.1,254.4,227.1,248.9,227.3z"/>
	<path fill="#FFFFFF" d="M231.5,150.4c-2.7-2.9-9.1-3.3-12.6-1c-0.7,0.4-1.6,0.5-2.4,0.7c0.4-0.9,0.5-2.1,1.1-2.8
		c2.7-2.6,7.4-3.2,10.9-1.5c1.3,0.6,2.5,1.2,3.8,1.7c-0.5-0.8-0.9-1.8-1.6-2.3c-2.5-1.8-5.2-3.4-7.8-5.1c-0.4-0.3-1-0.6-1.5-0.7
		c-5-0.7-10-1.6-15-1.8c-4.6-0.1-9.2,0.5-13.8,1c-1.5,0.2-3.1,0.6-4.4,1.3c-4.1,2.4-8,5.1-13.2,3.9c-1.5-0.3-3.2,0.1-4.8,0.2
		c-0.9,0-1.8,0.2-2.6,0c-0.6-0.2-1.1-0.8-1.7-1.2c0.6-0.5,1.1-1.3,1.7-1.6c0.6-0.3,1.5-0.2,2.2-0.2c2.9,0.1,5.8,0.4,8.7,0.5
		c0.6,0,1.2-0.5,1.8-0.8c-0.6-0.4-1.1-1-1.7-1c-3-0.2-6-0.1-9-0.4c-1.2-0.1-2.4-0.9-3.6-1.4l0,0c-1.6-1.1-1.4-2.6-0.8-4
		c0.8-1.6,2.2-1.8,3.8-1.6c2.9,0.2,5.8,0.3,8.7,0.3c1.7,0,3.1-1.2,2.7-2.9c-0.2-0.8-1.8-1.6-2.9-1.8c-1.3-0.2-2.8,0.3-4.2,0.3
		c-6.6,0.3-5.8,1.7-4.8-5.2c0.5-3.9,2.2-7.7,6.3-9.1c2.7-0.9,5.7-0.8,8.6-1.1c2-0.2,3.4,1,3.6,2.9c0.1,1.7-0.3,3.4-0.2,5.1
		c0.1,1.1,0.5,3,1.1,3.2c2.3,0.6,4.2,1.4,5.6,3.5c0.3,0.5,1.3,0.7,2,0.7c6.7,0.1,13.3,0.2,20,0.2c0.4,0,0.8-0.4,1.3-0.7
		c-0.5-0.2-0.9-0.6-1.4-0.6c-4.1,0-8.2,0.5-12.3,0.1c-9.4-0.7-8,0.9-8.2-8.4c-0.1-4.1,1.5-6,5.7-6.2c6.2-0.4,12.8-1.7,16.6,5.3
		c0.1,0.2,0.5,0.2,0.8,0.4c0.1-0.4,0.5-0.8,0.4-1.1c-1.2-2.1-2.2-4.7-4.9-5.2c-4.4-0.8-8.9-1.6-13.4-2.1c-2.4-0.3-3.9-1.1-4.3-3.5
		c-0.2-1.1-0.4-2.2-0.3-3.2c0.2-1.7-0.6-2.5-2.1-2.6c-2.4-0.3-4.9-0.7-7.3-0.7c-3.1,0-5.6-0.7-5.9-4.4c0-0.3-0.3-0.6-0.4-0.8
		c-0.1,0.3-0.4,0.6-0.4,1c-0.2,3.3,0.9,4.8,4.1,5.5c3.7,0.8,3.7,0.8,3.7,4.7c0,0.5,0,1.1,0,1.6c-0.1,2.2-0.8,3.7-3.5,3.6
		c-1.9-0.1-3.9,0.4-5.8,0.5c-6.3,0.4-9.4,2.8-10.9,8.9c-0.5,1.9-0.9,3.8-0.9,5.7c0,2.1-0.5,3.8-1.8,5.3c-0.7,7.2-2.2,14.2-4.3,21.3
		c1.4,0.4,2.8,0.1,3.7-1.6c2.5-5.1,9.2-6.7,13.9-3.4l0,0c2.6-1,5.2-2.1,7.8-2.9c2.6-0.8,5.2-1.5,7.8-2c5.2-1.1,9,2,13.1,4.3
		c1.4,0.9,2.7,2.1,3.9,3.3c0.3,0.3,0.3,0.9,0.4,1.4c-0.4,0-0.8,0.1-1.2,0.1c-4.8-0.2-9.6-0.6-14.4-0.6c-5.7,0-11.4,0.6-17.1,0.5
		c-3.3,0-1-2.2-0.9-3.4c-2.9,0.4-5.8,0.6-8.6,1.3c-0.8,0.2-1.3,1.7-2,2.7c0.9,0.2,1.8,0.5,2.7,0.6c0.8,0.1,1.7-0.1,2.6-0.1
		c6.6,0.2,13.1,0.4,19.7,0.5c1.7,0,3.4-0.2,5.2-0.3c7.4-0.3,14.8-0.6,22.2-0.8c3.7-0.1,7.4-2,11,0.4c0.6,0.4,1.5,0.2,2.3,0.3
		C232,152,232,151,231.5,150.4z M207.5,143c-1,0-1.9-0.2-2.8-0.5c-0.4-0.1-0.7-0.7-1-1.1c0.4-0.3,0.8-0.9,1.2-0.9
		c4.4,0.3,8.8,0.6,13.2,1c0.3,0,0.5,0.7,0.8,1.1c-0.7,0.3-1.4,0.7-2.2,1c0-0.2-0.1-0.4-0.1-0.6C213.5,143,210.5,143.1,207.5,143z"/>
	<path fill="#FFFFFF" d="M231.1,205.2c0-10.5,0-20.1,0-29.6c0-0.8-0.7-1.6-1-2.4c-0.4-1.6-1.2-3.2-1-4.8c0.1-1.5,1.7-2,2.9-0.9
		c0.9,0.8,1.6,2.1,2.1,3.2c4,10.3,8,20.7,12,31.1c1.1,2.9,2.1,5.9,3,8.9c0.3,0.9,0,2.2-0.4,3c-2.8,5.3-7.6,8.7-12.2,12.1
		c-0.8,0.6-1.8,1.2-2-0.6C233.2,218.3,232.1,211.3,231.1,205.2z"/>
	<polygon fill="#FFFFFF" points="238.7,221.3 238.7,221.5 238.9,221.5 	"/>
	<path fill="#FFFFFF" d="M233.9,305.5c0-6.7,0-13.5,0-20.2c0-1.1,0.2-2.1,0.5-3.2c0.5-1.8,1.6-2.4,3.4-1.6c0.9,0.4,1.8,0.8,2.7,1.2
		c6.6,3.2,13.2,6.3,19.8,9.5c0.6,0.3,1.2,0.8,1.8,1.2c-0.6,0.6-1.1,1.3-1.8,1.7c-4.9,2.6-9.8,5.2-14.3,8.8c-3.1,2.4-6.9,4-10.3,5.9
		c-1.2,0.7-1.9,0.3-2.1-1c-0.1-0.7-0.1-1.5-0.2-2.2C233.6,305.6,233.7,305.6,233.9,305.5z"/>
	<path fill="#FFFFFF" d="M262,228c0.4,0.6,1,1.1,1.3,1.8c1.3,2.8,2.6,5.7,3.8,8.6c3.6,8.7,7.2,17.5,10.7,26.3c2,5,3.4,10.2,5.5,15.1
		c2.7,6.4,5.9,12.6,8.8,19c2.8,6.3,5.6,12.6,8.3,18.9c0.2,0.6,0,1.4-0.1,2.1c-0.4-0.5-1-0.9-1.3-1.5c-3.8-7.2-7.5-14.5-11.3-21.7
		c-1.5-2.9-3.3-5.5-4.8-8.4c-1.7-3.2-4.3-5-7.8-5.7c-2.7-0.5-3.6-2.6-2.3-4.9c0.2-0.3,0.3-0.6,0.6-0.8c4.8-3.5,3.8-7.6,1.7-12.2
		c-1.9-4-3.1-8.3-4.8-12.3c-0.9-2-2.6-3.7-3.4-5.8c-1.1-3.1-1.6-6.4-2.5-9.6c-0.7-2.6-1.7-5.1-2.6-7.6c-0.1-0.3-0.2-0.6-0.3-0.9
		C261.4,228.3,261.7,228.2,262,228z"/>
	<path fill="#FFFFFF" d="M179.7,294.7c-0.1-2.3,0-4.7-0.3-7c-0.1-1-0.8-1.8-1.2-2.8c-0.6,0.7-1.4,1.3-1.9,2
		c-2.8,3.8-5.5,7.7-8.3,11.5c-0.3,0.4-0.7,0.6-1.1,0.9c-0.1-0.5-0.4-1-0.3-1.5c0.3-3.8,1.5-7.4,3.6-10.6c2.5-3.7,4.4-7.8,8.2-10.7
		c3.2-2.4,1.8-6.5,1.8-9.7c0-8-0.7-15.9-0.9-23.9c0-0.9,0.9-2.5,1.6-2.6c1.7-0.3,2,1.2,2,2.6c0.2,10.3,0.9,20.7,0.4,30.9
		C182.9,281.1,181,287.9,179.7,294.7L179.7,294.7z"/>
	<path fill="#FFFFFF" d="M202.1,90.5c-0.1,0.6-0.2,1.3-0.3,2.1c-0.4,4.3-1.7,5.4-5.9,5.3c-2.8-0.1-5.6-0.2-8.4-0.3
		c-3.3-0.1-5.3-2.4-5-5.7c0.1-0.9,0.3-1.7,0.4-2.6c0.5-4.2,2-5.5,6.2-5.6c2,0,4.1-0.3,6.1-0.2C199.9,83.5,202.1,85.8,202.1,90.5z"/>
	<path fill="#FFFFFF" d="M215.5,245.9c-0.1-1.3-0.2-2.6-0.2-3.9c0-0.5,0.2-1.1,0.4-1.6c0.3,0.4,0.9,0.8,1,1.3
		c1.5,5.3,3,10.5,4.6,15.8c0.3,1.1,1.3,2.1,1.9,3.1c-0.1-1.2-0.2-2.4-0.4-3.6c-0.4-2.4-1-4.9-1.4-7.3c-0.3-2,1.7-5.5,3.7-6.3
		c0.2-0.1,1.2,0.6,1.2,1c0.4,3.8,0.4,7.7,1,11.5c0.4,2.4-2.3,1.8-2.4,3.2c-0.2,1.7,2.8-0.6,2.6,2c-0.2,3,0.3,6,0.4,9
		c0.1,1.8-0.8,2.5-2.4,1.6c-3.4-1.8-6.7-3.7-6.7-8.3c0-0.5-0.4-1.3-0.6-1.3c-2.9,0.2-1.9-2-2-3.3c-0.3-4.3-0.5-8.6-0.8-12.9
		C215.4,245.9,215.5,245.9,215.5,245.9z"/>
	<polygon fill="#FFFFFF" points="226.3,269.9 226.3,270.1 226.4,270 	"/>
	<path fill="#FFFFFF" d="M135.6,286.3c3,1.4,5.8,1.6,9.2,0.4c2.5-0.9,5.6-0.4,8.4-0.3c0.4,0,1.1,0.7,1.3,1.2
		c0.6,2.1-2.1,5.6-4.3,5.8c-6.7,0.5-13.3,0.9-20,1.4c-2.8,0.2-3.6-1-2.7-3.6C128.8,287.6,131.1,286.2,135.6,286.3L135.6,286.3z"/>
	<path fill="#FFFFFF" d="M182.3,341.4c-1-4.2-2.1-8.3-2.9-12.5c-0.7-3.8-0.8-7.7-1.5-11.5c-0.1-0.8-1.5-1.8-2.3-1.9
		c-2.7-0.3-5.4-0.2-8-0.3c-1.2,0-2.7,0.2-1.3-1.8c0.3-0.4,0.3-1,0.4-1.5c0.8-4.6,2.4-5.8,7.1-4.8c2.8,0.6,4.8-0.9,5.2-3.7
		c0.2-1.9,0.1-3.9,0.2-5.8c0.1-0.9,0.3-1.8,0.5-2.7l0,0c1.9,2.9,0.3,6.1,0.8,9.1c0.1,0.8,0,1.8,0.4,2.3c2.8,3.1,2.6,6.8-0.2,10
		c-1,1.1-1,3.4-0.9,5.1c0.6,5.8,1.5,11.5,2.2,17.3C182.3,339.5,182.3,340.5,182.3,341.4L182.3,341.4z"/>
	<path fill="#FFFFFF" d="M197.3,120.4c-0.6-4.4,1.9-5.8,6.4-5.7c1.4,0,2.8,0.3,4.2,0.4c5.3,0.1,8.7,2.9,9.5,8.2
		c0.1,0.5-0.9,1.6-1.4,1.7c-4.6,0.2-9.2,0.4-13.8,0.4C198,125.2,197.3,124.4,197.3,120.4z"/>
	<path fill="#FFFFFF" d="M242.7,233.2c-1.6,0-3.2-0.1-4.8,0c-0.8,0.1-1.6,0.7-2.4,1.1c0.7,0.4,1.4,1,2.1,1.1
		c1.9,0.2,3.9,0.2,5.8,0.2c1.2,0,2.4-0.3,3.5-0.3c6.4-0.3,6.3-0.3,6,5.9c-0.1,1.9-0.5,2.1-2.4,2.1c-4.3,0-8.6,0.6-12.9,0.8
		c-1.2,0-2.5-0.7-3.7-1.1c1.1,0,2.2,0,3.4-0.1c4.1-0.2,8.2-0.4,12.3-0.7c0.6,0,1.1-0.7,1.6-1.1c-0.6-0.3-1.3-0.9-1.9-0.9
		c-3.1,0.1-6.2,0.3-9.3,0.5c-4.9,0.3-7.5-3.1-6-7.7c0.2-0.5,0.7-1.3,1.1-1.3c4.2,0,8.4,0.1,12.6,0.2c0.6,0,1.1,0.4,1.6,0.6
		c-0.6,0.2-1.1,0.5-1.7,0.5C246,233.1,244.4,233.1,242.7,233.2C242.7,233.1,242.7,233.1,242.7,233.2z"/>
	<path fill="#FFFFFF" d="M185.7,118.9c-0.2,1.3-0.1,2.6-0.5,3.8c-0.5,1.5-1.2,2.7-3.5,2.5c-2.4-0.2-4.9,0.4-7.4,0.6
		c-3,0.3-4-0.9-3.1-3.8c1.3-4.3,4.1-6.6,8.6-6.7c0.6,0,1.3,0,1.9-0.1C185.7,114.9,185.7,114.9,185.7,118.9z"/>
	<path fill="#FFFFFF" d="M170.7,281.8c0.6-4.2,1.1-8.5,1.7-12.7c0.3-1.8,0.5-3.6,0.9-5.4c0.9-4.1,2-8.1,3-12.2
		c0.1-0.3,0.3-0.5,0.5-0.8c0.1,0.3,0.3,0.5,0.3,0.8c0.3,5.2,0.2,10.5,0.9,15.7C178.8,274,174.7,277.8,170.7,281.8L170.7,281.8z"/>
	<path fill="#FFFFFF" d="M215.4,371.4c0-6.8,0-14,0-21.3c0-0.8-0.2-1.6,0-2.2c0.4-1,1.1-1.9,1.9-2.6c0.3-0.2,1.7,0.3,1.8,0.7
		c0.2,1.1,0.5,2.7,0,3.3c-1.4,1.5-3.1,2.6-0.8,4.7c0.1,0.1-0.7,1-1,1.7c-0.3,0.6-0.6,1.9-0.6,2c3,1,2.7,3.8,2.8,6
		c0.3,3.9,0.1,7.9,0.1,11.9c0,0.7-0.2,1.6-0.6,2.1c-0.4,0.5-1.1,1-1.8,1c-0.3,0-1-0.8-1.1-1.4C215.9,375.5,215.7,373.6,215.4,371.4z
		"/>
	<polygon fill="#FFFFFF" points="218.3,365.3 218.4,365.1 218.2,365 	"/>
	<path fill="#FFFFFF" d="M242,159.9c4.9,2.3,7,7.2,10.4,10.9c0.7,0.7,0.8,2.5,0.5,3.6c-0.4,1.4-1.5,2.6-2.2,3.9
		c-0.8-1.1-1.8-2-2.3-3.2C246.2,170,244.1,164.9,242,159.9L242,159.9z"/>
	<path fill="#FFFFFF" d="M175.8,297.4c0,1.8,0,3.6,0,5.5c0,1.5-0.8,2.1-2.3,1.9c-1.7-0.3-3.3-0.6-5-0.8c0.7-1.5,1.2-3.1,2.1-4.5
		c1.6-2.5,3.3-5,5-7.5c0.2-0.3,0.6-0.5,1-0.7c0.1,0.5,0.2,0.9,0.2,1.4c-0.2,1.6-0.4,3.2-0.6,4.8
		C175.9,297.4,175.8,297.4,175.8,297.4z"/>
	<path fill="#FFFFFF" d="M277.6,293.4c-0.3-0.8-0.4-1.9-0.9-2.2c-3.1-1.9,0.2-2.9,0.5-4.3c0,0,1.2-0.1,1.5,0.2
		c0.8,1,1.5,2.1,2.2,3.2c1.3,2.1,2.7,4.1,4,6.2c0.3,0.5,0.5,1.1,0.7,1.7c-0.6,0.2-1.2,0.5-1.7,0.6
		C280.8,299.3,277.3,296.5,277.6,293.4z"/>
	<path fill="#FFFFFF" d="M204.1,91.2c-0.3-2.4-0.7-4.9-1-7.3c0-0.3,0-0.6,0-0.9c0.4,0,0.9-0.1,1.2,0.1c0.6,0.4,1.4,0.9,1.6,1.5
		c1.2,4.1,2.6,8.3,1.3,12.6c-0.2,0.7-0.9,1.3-1.4,1.9c-0.5-0.7-1.4-1.3-1.5-2.1c-0.3-1.9-0.3-3.9-0.3-5.8
		C204,91.2,204,91.2,204.1,91.2z"/>
	<path fill="#FFFFFF" d="M136.6,297.6c3.6-0.6,7.1-1.3,10.7-1.9c1.4-0.2,2.8-0.2,4.2-0.1c0.5,0,1.2,0.7,1.2,1.2c0,0.4-0.6,1.2-1,1.3
		c-0.9,0.3-1.9,0.3-2.9,0.4c-4.7,0.2-9.4,0.4-14.1,0.5c-1.6,0-3.2-0.5-4.8-0.7c1.6-0.4,3.1-0.8,4.7-1.1c0.6-0.1,1.3,0,1.9,0
		C136.6,297.3,136.6,297.5,136.6,297.6z"/>
	<path fill="#FFFFFF" d="M166.1,137.8c1.6-3.3,4-4.4,7.6-3.5c1.3,0.3,2.8-0.1,4.1,0c0.8,0.1,1.4,0.8,2.2,1.2
		c-0.7,0.5-1.3,1.4-2.1,1.4C174,137.4,170.1,137.5,166.1,137.8L166.1,137.8z"/>
	<path fill="#FFFFFF" d="M155.1,299.9c2.2,1.3,4.5,2.5,4.9,5.5c0.1,1.2,0,1.2-1.1,0.9c-4.1-1.2-5.5,0-5.4,4.3c0,0.4-0.1,0.8-0.1,1.1
		c-0.4-0.3-0.9-0.6-1-1c-0.2-0.6-0.3-1.3-0.1-1.9C153.1,305.8,154.1,302.9,155.1,299.9L155.1,299.9z"/>
	<path fill="#FFFFFF" d="M190.7,131.6c0,0.2-0.2,0.9-0.4,1.7c-0.6-0.4-1.1-1.1-1.8-1.2c-1.5-0.3-3.1-0.4-4.6-0.6
		c-0.4-0.1-0.7-0.3-1-0.5c1.3-1.3,2.3-3.3,3.8-3.9C189.3,126.3,190.7,127.9,190.7,131.6z"/>
	<path fill="#FFFFFF" d="M212.1,265c0-7.6,0-15.2,0-22.8c0-0.4,0.1-0.8,0.2-1.2c0.1,0.4,0.3,0.9,0.3,1.3c0.4,4.7,0.8,9.4,1.1,14.1
		c0.1,1.2,0,2.4-0.2,3.5c-0.3,3.1-0.6,6.2-1,9.3c0,0.4-0.1,0.8-0.2,1.2c-0.1-0.4-0.2-0.8-0.2-1.3c0-1.4,0-2.8,0-4.2
		C212.3,265,212.2,265,212.1,265z"/>
	<path fill="#FFFFFF" d="M223.8,288.9c-3-2.5-6.3-4.7-4.9-9.5c0.1-0.5,0.4-1,0.5-1.5c0.4,0.4,0.9,0.8,1.1,1.3
		C221.7,282.5,222.8,285.7,223.8,288.9L223.8,288.9z"/>
	<path fill="#FFFFFF" d="M272.9,294.7c-2.3-0.2-4.1-0.3-4-2.6c0-0.6,1.4-1.8,1.6-1.7c1.4,0.7,2.8,1.7,4.1,2.6
		C274,293.7,273.3,294.3,272.9,294.7z"/>
	<path fill="#FFFFFF" d="M261.5,296c-4.1,2.9-8.2,5.9-12.4,8.8c-0.3,0.2-0.7,0.1-1.1,0.1c0.1-0.3,0.2-0.7,0.4-0.8
		C252.7,301.4,257.1,298.7,261.5,296L261.5,296z"/>
	<path fill="#FFFFFF" d="M187.8,136.2c-1.3,1-2.2,2-3.1,2.1c-0.7,0-2-1.3-2-1.9c0.1-0.9,1.2-2.3,1.8-2.3
		C185.5,134.1,186.4,135.2,187.8,136.2z"/>
	<path fill="#FFFFFF" d="M247.2,220.8c0.9-1,1.7-2.1,2.7-3.1c1.5-1.4,3.3-1,3.9,0.9c0.2,0.5,0.1,1.2-0.1,1.8c-0.1,0.2-1,0.2-1.4,0
		C250.5,219.8,248.8,219.5,247.2,220.8L247.2,220.8z"/>
	<path fill="#FFFFFF" d="M164.9,309.9c-0.4,1.4-0.9,2.9-1.4,4.3c0,0-0.8-0.1-0.8-0.2c-0.1-1.4-0.1-2.9-0.1-4.4
		c0-0.4,0.1-0.8,0.3-1.2c0.3-0.8,0.6-1.5,1-2.3c0.2,0.9,0.4,1.8,0.5,2.7c0.1,0.3,0,0.6,0,1C164.6,309.8,164.7,309.8,164.9,309.9z"/>
	<path fill="#FFFFFF" d="M160,287c-0.9,1.8-1.9,3.7-3,5.7c-0.1,0.2-0.5,0.3-0.7,0.5c-0.1-0.3-0.4-0.6-0.4-0.8c1-2.2,2-4.4,3.1-6.6
		c0.1-0.2,0.5-0.2,0.8-0.3C159.8,285.9,159.9,286.3,160,287z"/>
	<path fill="#FFFFFF" d="M215.1,339.7c0.6-0.9,0.8-1.3,1-1.7c1.1,0.9,2.2,1.8,3.4,2.7c-0.7,0.5-1.8,1.6-2.1,1.5
		C216.5,341.6,215.8,340.6,215.1,339.7z"/>
	<path fill="#FFFFFF" d="M239.2,310.8c-0.3-0.1-0.7-0.2-0.7-0.2c0.1-0.4,0.1-1,0.4-1.1c2-1.2,4.1-2.3,6.2-3.4c0.2-0.1,0.4,0,0.6,0
		c0,0.2,0,0.5-0.1,0.5C243.4,308,241.3,309.4,239.2,310.8z"/>
	<path fill="#FFFFFF" d="M217.5,292.7c-0.1,0.6-0.1,1.5-0.2,2.4c-0.3-0.9-0.8-1.8-0.9-2.8c-0.2-1.5-0.3-3-0.4-4.5
		c0-0.4,0.1-0.8,0.1-1.2c0.2,0.3,0.6,0.6,0.6,1C217,289.2,217.2,290.8,217.5,292.7z"/>
	<path fill="#FFFFFF" d="M169.4,283.7c-0.7,1-1.3,1.9-2,2.9c0.2-1.1,0.4-2.3,0.7-3.4c0.1-0.3,0.1-0.6,0.3-0.9
		c0.2-0.4,0.4-0.8,0.5-1.1c0.1,0.4,0.1,0.9,0.2,1.3C169.2,282.9,169.3,283.3,169.4,283.7L169.4,283.7z"/>
	<path fill="#FFFFFF" d="M159.1,295.1c0.6,1,1.2,1.5,1.1,1.8c-0.1,0.8-0.5,1.5-0.8,2.2c-0.3-0.3-0.8-0.7-0.8-1
		C158.5,297.3,158.8,296.5,159.1,295.1z"/>
	<path fill="#FFFFFF" d="M182.2,321.6c0.3-0.6,0.6-1.1,0.9-1.7c0.1,0.8,0.4,1.6,0.4,2.4c0,0.5-0.3,1.1-0.4,1.6
		C182.8,323.3,182.5,322.5,182.2,321.6z"/>
	<path fill="#FFFFFF" d="M214.7,267.7c0,0.3,0.1,0.6,0.1,0.9c0,0.4-0.1,0.7-0.2,1c-0.1-0.3-0.3-0.5-0.4-0.8
		c-0.1-0.4-0.1-0.8-0.1-1.3c-0.1-0.9-0.1-1.8-0.2-2.8c0.4,0.9,0.7,1.8,1.1,2.7C214.9,267.7,214.8,267.7,214.7,267.7z"/>
	<path fill="#FFFFFF" d="M155.1,299.9c0.1-1.2,0.2-2.4,0.3-3.6c0.2,0,0.4,0.1,0.5,0.1C155.7,297.6,155.4,298.8,155.1,299.9
		L155.1,299.9z"/>
	<path fill="#FFFFFF" d="M269.2,297.4c-0.4,0.2-0.8,0.4-1.2,0.4c-0.3,0-0.6-0.3-0.9-0.5c0.2-0.3,0.4-0.7,0.7-0.9
		c0.2-0.1,0.6,0.2,1,0.3C268.9,297,269,297.2,269.2,297.4z"/>
	<path fill="#FFFFFF" d="M159.6,312.1c-0.4-0.9-0.7-1.3-0.7-1.5c0.2-0.4,0.6-0.8,0.9-1.1c0.1,0.2,0.4,0.5,0.4,0.7
		C160.1,310.7,159.9,311.1,159.6,312.1z"/>
	<path fill="#FFFFFF" d="M249.3,230c-0.5-0.2-0.9-0.3-1.3-0.4c0.6-0.2,1.3-0.4,1.9-0.5c0.3,0,0.5,0.1,0.8,0.2
		C250.3,229.6,249.7,229.8,249.3,230z"/>
	<path fill="#FFFFFF" d="M163.9,299.5c-0.6,0.1-1,0.3-1.3,0.2c-0.2-0.1-0.4-0.4-0.5-0.7c0.4-0.2,0.7-0.4,1.1-0.4
		C163.4,298.6,163.5,299,163.9,299.5z"/>
	<path fill="#FFFFFF" d="M208.9,244.8c-0.2-0.3-0.4-0.5-0.5-0.8c-0.1-0.7-0.1-1.4-0.1-2.1c0,0,0.2-0.1,0.3-0.1
		c0.1,0.7,0.2,1.4,0.2,2.1C208.9,244.2,208.9,244.5,208.9,244.8L208.9,244.8z"/>
	<path fill="#FFFFFF" d="M201.2,100.2c-0.6,0.1-1.1,0.3-1.6,0.4c-0.1,0-0.2-0.3-0.2-0.5c0.5-0.1,1-0.3,1.5-0.4
		C201,99.7,201.1,100,201.2,100.2z"/>
	<path fill="#FFFFFF" d="M157.5,314.5c-0.5,0.3-0.8,0.5-1,0.6c-0.3,0.1-0.6-0.1-0.8-0.1c0.2-0.2,0.5-0.4,0.7-0.5
		C156.6,314.4,156.9,314.5,157.5,314.5z"/>
	<path fill="#FFFFFF" d="M156.6,308.3c0.2,0.2,0.4,0.4,0.4,0.5c-0.1,0.3-0.3,0.5-0.5,0.7c-0.2-0.2-0.5-0.4-0.4-0.5
		C156.1,308.7,156.4,308.6,156.6,308.3z"/>
	<path fill="#FFFFFF" d="M219.8,121.8c-0.1,0.3-0.2,0.4-0.2,0.6c-0.1-0.2-0.3-0.5-0.4-0.7c0-0.1,0.1-0.3,0.2-0.5
		C219.5,121.4,219.7,121.6,219.8,121.8z"/>
	<path fill="#FFFFFF" d="M238.7,229.5c0.1,0.1,0.2,0.2,0.3,0.4c-0.1,0.1-0.2,0.2-0.2,0.2c-0.2,0-0.4-0.1-0.5-0.1
		C238.4,229.8,238.6,229.7,238.7,229.5z"/>
	<path fill="#FFFFFF" d="M243.5,230.1c-0.2-0.1-0.4-0.2-0.5-0.3c0.1-0.1,0.3-0.2,0.4-0.3c0.1,0,0.3,0.1,0.3,0.1
		C243.6,229.8,243.6,230,243.5,230.1z"/>
	<path fill="#FFFFFF" d="M180.2,90.1c-0.2,0-0.3,0-0.5,0.1c0-0.1-0.1-0.2,0-0.3c0.1-0.1,0.3-0.2,0.4-0.3
		C180.1,89.7,180.1,89.9,180.2,90.1z"/>
	<path fill="#FFFFFF" d="M152.6,314.8c-0.1,0.1-0.3,0.1-0.4,0.1c0,0-0.1-0.2-0.1-0.2c0-0.1,0.1-0.2,0.1-0.2
		C152.3,314.6,152.4,314.7,152.6,314.8z"/>
	<path fill="#FFFFFF" d="M215.5,282.7c0,0.1,0,0.2,0,0.3c-0.1-0.1-0.3-0.1-0.4-0.2c0.1-0.1,0.1-0.2,0.2-0.2
		C215.4,282.6,215.5,282.7,215.5,282.7z"/>
	<path fill="#FFFFFF" d="M182.8,297.4c-0.1,0.1-0.1,0.1-0.2,0.2c0-0.1-0.1-0.2-0.1-0.3c0-0.1,0.1-0.1,0.2-0.2
		C182.8,297.2,182.8,297.3,182.8,297.4z"/>
	<path fill="#FFFFFF" d="M182.3,341.5c0.1,0.4,0.3,0.8,0.4,1.2C182.6,342.2,182.5,341.8,182.3,341.5L182.3,341.5z"/>
	<path fill="#FFFFFF" d="M220.9,127.6c0,0.1,0,0.2,0,0.3c-0.1-0.1-0.3-0.1-0.4-0.2c0.1-0.1,0.1-0.2,0.2-0.2
		C220.7,127.5,220.8,127.6,220.9,127.6z"/>
	<path fill="#FFFFFF" d="M167,238.6c0-0.2,0-0.3,0-0.4c0.1,0,0.2,0,0.2,0.1C167.1,238.3,167.1,238.4,167,238.6z"/>
	<path fill="#FFFFFF" d="M224.5,239.1c0.1,0,0.2,0,0.2,0.1c0,0.1,0,0.2,0,0.3c-0.1-0.1-0.3-0.1-0.4-0.2
		C224.3,239.2,224.4,239.1,224.5,239.1z"/>
	<path fill="#FFFFFF" d="M217.3,300c0,0.1,0.1,0.2,0.1,0.3c-0.1,0-0.3,0.1-0.4,0.1c0-0.1,0-0.2,0-0.3
		C217.1,300.1,217.2,300,217.3,300z"/>
	<path fill="#FFFFFF" d="M242,159.8c-0.3-0.3-0.5-0.6-0.8-0.9C241.5,159.3,241.7,159.6,242,159.8L242,159.8z"/>
	<path fill="#FFFFFF" d="M221.7,123.6c-0.1,0.1-0.1,0.1-0.2,0.2c0-0.1-0.1-0.2-0.1-0.2c0.1-0.1,0.2-0.2,0.3-0.2
		C221.7,123.4,221.7,123.5,221.7,123.6z"/>
	<path fill="#FFFFFF" d="M169.9,277.4c-0.1,0.1-0.1,0.1-0.2,0.2c-0.1-0.1-0.2-0.2-0.1-0.2c0.1-0.1,0.2-0.2,0.3-0.3
		C169.8,277.2,169.9,277.3,169.9,277.4z"/>
	<polygon fill="#FFFFFF" points="211.8,329.4 211.9,329.4 211.8,329.6 	"/>
	<polygon fill="#FFFFFF" points="215,274.9 215.2,274.9 215,275.1 	"/>
	<path fill="#FFFFFF" d="M266.7,294.1c-0.2-0.1-0.4-0.3-0.6-0.4c0.1,0,0.2,0,0.2,0C266.4,293.8,266.5,294,266.7,294.1L266.7,294.1z"
		/>
	<polygon fill="#FFFFFF" points="182.7,141.1 183,141.1 182.9,141.3 	"/>
	<polygon fill="#FFFFFF" points="180.6,86.8 180.8,86.9 180.7,87 	"/>
	<polygon fill="#FFFFFF" points="215.2,277.6 215,277.6 215.1,277.4 	"/>
	<path fill="#FFFFFF" d="M240.7,226c0.1-0.1,0.1-0.1,0.2-0.2C240.8,225.9,240.8,225.9,240.7,226L240.7,226z"/>
	<path fill="#FFFFFF" d="M247.2,220.8c-0.4,0.2-0.9,0.4-1.3,0.6l0,0C246.3,221.2,246.8,221,247.2,220.8L247.2,220.8z"/>
	<path fill="#FFFFFF" d="M245.2,222.1L245.2,222.1L245.2,222.1z"/>
	<path fill="#FFFFFF" d="M259.5,226L259.5,226L259.5,226z"/>
	<path fill="#FFFFFF" d="M259.5,226L259.5,226L259.5,226z"/>
	<path fill="#FFFFFF" d="M240.7,226L240.7,226L240.7,226z"/>
	<path fill="#FFFFFF" d="M245.2,222.1c0.2-0.2,0.4-0.4,0.6-0.7l0,0C245.7,221.7,245.5,221.9,245.2,222.1L245.2,222.1z"/>
	<path fill="#FFFFFF" d="M177.1,148.2c0.2-0.2,0.4-0.4,0.7-0.6l0,0C177.6,147.7,177.4,147.9,177.1,148.2L177.1,148.2z"/>
	<path fill="#FFFFFF" d="M232.3,147.5L232.3,147.5L232.3,147.5z"/>
	<path fill="#FFFFFF" d="M224.5,289.6L224.5,289.6L224.5,289.6z"/>
	<path fill="#FFFFFF" d="M169.4,283.7L169.4,283.7L169.4,283.7z"/>
	<path fill="#FFFFFF" d="M135.6,286.3L135.6,286.3L135.6,286.3z"/>
	<path fill="#FFFFFF" d="M170.7,281.8L170.7,281.8L170.7,281.8z"/>
	<path fill="#FFFFFF" d="M224.5,289.6c-0.2-0.2-0.4-0.4-0.7-0.6l0,0C224.1,289.1,224.3,289.4,224.5,289.6L224.5,289.6z"/>
	<path fill="#FFFFFF" d="M219.3,287.6L219.3,287.6L219.3,287.6z"/>
	<path fill="#FFFFFF" d="M212.2,327.2L212.2,327.2L212.2,327.2z"/>
	<path fill="#FFFFFF" d="M218,309c0.2-0.2,0.4-0.4,0.6-0.7l0,0C218.4,308.6,218.2,308.8,218,309L218,309z"/>
	<path fill="#FFFFFF" d="M266.6,294.1L266.6,294.1L266.6,294.1z"/>
	<path fill="#FFFFFF" d="M261.5,296.1L261.5,296.1L261.5,296.1z"/>
	<path d="M292.5,243.9c0.6-5.1,1.5-9.6,1.7-14.1c0.2-4.2-0.4-8.4-0.7-12.6c-0.1-1.9-1.3-2.8-3.2-3c-3-0.2-6.1-0.2-9-1
		c-4.7-1.3-9.6-2.7-13.9-5c-2.5-1.4-4.2-4.5-5.6-7.3c-1.8-3.5-2.9-7.4-4.4-11.1c-1.2-3.2-2.1-3.6-5.5-3c-0.5,0.1-1-0.1-1.5-0.2
		c0.2-0.6,0.2-1.3,0.5-1.7c1.5-1.7,4.6-1.5,6.3,0.5c1.3,1.5,2.3,3.4,3.1,5.2c1.8,4.1,3.2,8.3,5,12.3c0.6,1.3,1.9,2.6,3.2,3.3
		c6.8,4,14.2,5.5,22,5.7c3.8,0.1,3.6,0.3,4.6,4.1c2.2,8.3,0.3,16.5-0.2,24.8c-0.2,2.9,0,5.8,0.4,8.7c0.9,6.6,1.9,13.2,2.9,19.8
		c0.5,3.1,1.1,6.2,1.5,9.2c0.1,0.5-0.4,1.2-0.6,1.7c-0.4-0.5-1.1-0.9-1.2-1.4c-0.6-3.7-1.1-7.4-1.7-11.2c-1.1-6.6-2.2-13.2-3.4-19.8
		C292.8,246.5,292.6,244.9,292.5,243.9z"/>
	<path d="M356.8,300.6c-3.4-0.9-6.5-0.6-9.4,1.5c-0.6,0.4-1.5,0.8-1.7,1.4c-0.5,1.4-0.7,2.8-1.9,0.4c0-0.1-1.4,0.3-1.9,0.7
		c-0.6,0.7-0.9,1.7-1.3,2.5l0,0c0-1.5-0.5-2.3-2.1-1.6c-1.1,0.5-2.1,1-3.2,1.5c-5,2.1-10,4.3-15.1,6.4c-0.5,0.2-1.5,0-2-0.3
		c-0.3-0.2-0.2-1.2,0-1.7c1.5-3.8,3-7.5,4.5-11.3c0.9-2.2,1.7-4.4,2.9-6.4c2.1-3.4,4.3-6.7,6.7-9.9c0.9-1.2,2.5-1.8,3.8-2.6l0,0
		c-1.9,2.9-3.6,5.9-5.7,8.6c-4.8,6.1-7.6,12.9-8.6,20.6l0,0c2.6-1.4,5.2-3,7.9-4.2c3.9-1.7,7.7-3.8,12.2-3.9c1.9,0,3.8-1.3,5.5-2.4
		c2-1.3,4-2,6.4-1.4c0.7,0.2,1.5,0.1,2.2,0.2c0.7,0,1.3,0,2,0.1C357.6,299.3,357.2,299.9,356.8,300.6L356.8,300.6z"/>
	<path d="M307.5,281.1c0.9-0.1,2,0.2,2.7-0.2c6.8-3.5,13.6-7.1,20.3-10.6c0.4-0.2,0.7-0.6,1.1-0.6c0.8-0.1,1.6,0,2.4,0.1
		c-0.4,0.6-0.7,1.5-1.3,1.8c-7.2,3.9-14.4,7.8-21.7,11.6c-3.3,1.7-5.8,0.2-6-3.5c-0.2-4.6-0.2-9.2-0.2-13.8c0-0.7,0.7-1.3,1.1-2
		c0.2,0.8,0.7,1.5,0.7,2.3c-0.1,4.6-1,9.3,0.8,13.8l0,0C307.5,280.3,307.5,280.7,307.5,281.1L307.5,281.1z"/>
	<path d="M226.4,131.3c3,0.8,6,1.8,7.7,4.9c0.4,0.7,1.3,1.1,2,1.6c3.8,2.4,6.8,5.5,9.1,9.4c1.3,2.3,3.5,4.1,5.2,6.2
		c1.3,1.7,2.5,3.5,3.7,5.3c0.2,0.3,0.1,0.7,0.2,1.1c-0.4-0.1-0.9-0.1-1.2-0.4c-2.1-2.3-4.1-4.7-6.3-6.9c-2.1-2.2-4.1-4.4-6.9-5.9
		c-2.1-1.1-3.6-3.7-5-5.8c-2.1-3.1-3.9-6.2-7.6-7.7C226.8,133,226.7,131.9,226.4,131.3L226.4,131.3z"/>
	<path d="M237.5,141L237.5,141L237.5,141z"/>
	<path d="M219.8,317.2c0.9-0.2,1.9-0.4,2.7-0.7c2.8-1,3.7-0.4,3.9,2.5c0,0.7,0.1,1.5-0.1,2.2c-0.2,0.6-0.7,1-1,1.5
		c-0.5-0.5-1-0.9-1.4-1.4c-0.2-0.3-0.1-0.9-0.3-1.2c-0.2-0.4-0.5-0.8-0.8-1.2c-0.4,0.3-1,0.6-1.2,1c-0.3,0.8-0.4,1.7-0.5,2.5
		c-0.1,1.8-0.9,2.5-2.8,2c-2.7-0.7-4.4-2.5-4.2-4.5C214.5,317.9,216.4,316.9,219.8,317.2z"/>
	<path d="M325.4,280.8c-0.3,0.2-0.6,0.6-0.9,0.8c-1.4,0.9-2.9,1.8-4.3,2.8c-4,2.9-7.9,5.9-11.8,8.9c-0.6,0.4-1.4,0.5-2.1,0.7
		c0.3-0.8,0.4-1.7,0.9-2.2c1.1-1.3,2.3-2.6,3.7-3.6c4-2.7,8.2-5.1,12.3-7.6c0.6-0.3,1.4-0.3,2.1-0.4
		C325.2,280.1,325.3,280.5,325.4,280.8z"/>
	<path d="M218,309c0.2-0.2,0.4-0.4,0.6-0.7c0.4,0.4,0.8,0.7,1.2,1.1c2.5,2.2,2.4,3.4-0.2,5.5c-1.9,1.5-3.9,1.4-5-0.4
		c-1.1-1.7-0.4-3.8,1.5-4.8C216.8,309.4,217.4,309.3,218,309z M218.9,313.2c-0.2-0.4-0.3-0.7-0.4-1c-0.5,0.3-1,0.6-1.4,1
		c-0.1,0.1,0.1,0.5,0.2,0.8C217.8,313.8,218.3,313.5,218.9,313.2z"/>
	<path d="M356.8,300.6c3.6,0.9,7.1,1.8,10.7,2.7c0.2,0.1,0.5,0.5,0.5,0.7c0,0.2-0.4,0.5-0.7,0.5c-1.2,0-2.4,0.2-3.5-0.3
		C361.4,303.2,359.1,301.8,356.8,300.6C356.8,300.6,356.8,300.6,356.8,300.6z"/>
	<path d="M336,281.1c0.4-0.4,0.7-0.8,1.1-1.2c0.1,0.1,0.2,0.3,0.3,0.4C337,280.6,336.5,280.9,336,281.1L336,281.1z"/>
	<path d="M157.7,237.7c-0.3,0.3-0.5,0.6-0.8,0.8c-0.1-0.1-0.2-0.3-0.3-0.4C156.9,237.9,157.3,237.8,157.7,237.7L157.7,237.7z"/>
	<path d="M337.7,291.6c-0.1,0.1-0.2,0.3-0.4,0.4c-0.1-0.1-0.3-0.3-0.2-0.4c0-0.2,0.2-0.3,0.3-0.4
		C337.6,291.3,337.7,291.4,337.7,291.6z"/>
	<path d="M257.5,150.3c0.1-0.1,0.3-0.2,0.4-0.2c0.1,0,0.2,0.2,0.3,0.4c-0.1,0.1-0.3,0.2-0.4,0.2
		C257.7,150.7,257.6,150.5,257.5,150.3z"/>
	<polygon points="243.1,332.4 243.1,332.2 243.3,332.3 	"/>
	<polygon points="345.6,290.5 345.4,290.6 345.4,290.4 	"/>
	<path d="M307.5,279.8c0,0.4,0,0.9,0,1.3l0,0C307.5,280.7,307.5,280.3,307.5,279.8L307.5,279.8z"/>
	<path d="M349.7,302.5c0.1-0.1,0.1-0.1,0.2-0.2C349.8,302.4,349.7,302.5,349.7,302.5L349.7,302.5z"/>
	<path d="M253,196.8L253,196.8L253,196.8z"/>
	<path d="M349.7,302.5L349.7,302.5L349.7,302.5z"/>
	<path d="M340.6,307.1L340.6,307.1L340.6,307.1z"/>
	<path d="M218,214.3c-0.2-1.3-0.2-2.7-0.8-3.8c-2.9-5.6-2.3-11.7-2.7-17.7c-0.4-5.8-1.1-11.5-1.5-17.3c-0.3-3.7-0.4-7.3-0.4-11
		c0-0.5,0.6-1.5,0.8-1.5c0.8,0.2,1.9,0.5,2.1,1c0.5,1.2,0.6,2.5,0.6,3.8c0.1,7-0.3,14.1,0.2,21.1c0.5,7.6,1.8,15.2,2.8,22.8
		C219.2,212.9,219.9,214.1,218,214.3L218,214.3z"/>
	<path d="M177.1,148.2c0.2-0.2,0.4-0.4,0.6-0.7c2.6-1,5.2-2.1,7.8-2.9c2.6-0.8,5.2-1.5,7.8-2c5.2-1.1,9,2,13.1,4.3
		c1.4,0.9,2.7,2.1,3.9,3.3c0.3,0.3,0.3,0.9,0.4,1.4c-0.4,0-0.8,0.1-1.2,0.1c-4.8-0.2-9.6-0.6-14.4-0.6c-5.7,0-11.4,0.6-17.1,0.5
		C174.7,151.6,177,149.4,177.1,148.2z M181,149.5c2.7,0.1,5.3,0.4,8,0.4c5.1-0.1,10.1-0.3,15.2-0.5c0.3,0,0.7-0.3,1-0.6
		c0.1-0.1-0.2-0.6-0.5-0.8c-0.5-0.4-1.1-0.7-1.6-1C195.2,143.1,187.9,144,181,149.5L181,149.5z"/>
	<path d="M216.5,143c-3,0-6,0-9,0c-1,0-1.9-0.2-2.8-0.5c-0.4-0.1-0.7-0.7-1-1.1c0.4-0.3,0.8-0.9,1.2-0.9c4.4,0.3,8.8,0.6,13.2,1
		c0.3,0,0.5,0.7,0.8,1.1c-0.7,0.3-1.4,0.7-2.2,1C216.6,143.4,216.5,143.2,216.5,143z"/>
	<polygon points="238.7,221.3 238.9,221.5 238.7,221.5 	"/>
	<polygon points="226.3,269.9 226.4,270 226.3,270.1 	"/>
	<polygon points="218.3,365.3 218.2,365 218.4,365.1 	"/>
	<path fill="#FFFFFF" d="M321.8,310.3L321.8,310.3L321.8,310.3z"/>
	<path fill="#FFFFFF" d="M307.5,279.8c0,0.4,0,0.9,0,1.3C307.5,280.7,307.5,280.3,307.5,279.8z"/>
	<path fill="#FFFFFF" d="M237.5,141L237.5,141L237.5,141z"/>
	<path fill="#FFFFFF" d="M237.5,141L237.5,141L237.5,141z"/>
	<path fill="#FFFFFF" d="M218.9,313.2c-0.6,0.3-1.1,0.6-1.6,0.9c-0.1-0.3-0.3-0.7-0.2-0.8c0.4-0.4,0.9-0.7,1.4-1
		C218.6,312.5,218.7,312.7,218.9,313.2z"/>
	<path fill="#FFFFFF" d="M181,149.5c6.8-5.4,14.1-6.4,22-2.5c0.6,0.3,1.1,0.6,1.6,1c0.2,0.2,0.5,0.7,0.5,0.8c-0.3,0.3-0.6,0.6-1,0.6
		c-5.1,0.2-10.1,0.4-15.2,0.5C186.4,149.9,183.7,149.6,181,149.5L181,149.5z"/>
	<path fill="#FFFFFF" d="M181,149.5L181,149.5L181,149.5z"/>
</g>
</svg>
