<svg xmlns="http://www.w3.org/2000/svg" viewBox="0 0 500 500" enable-background="new 0 0 500 500"><path d="M374.9 315.4c-.1-.5-.2-1.1-.5-1.5-3.8-6.5-7.5-13.1-11.4-19.4-4.7-7.6-9.5-15.2-16.4-21.2-2.4-2.1-4.3-4.9-6.2-7.5-5.4-7.4-12-13.5-18.4-19.9-2.8-2.8-5-6.2-7.5-9.3-3.1-3.7-6.5-7.2-9.4-11.1-4.5-6.1-8.7-12.3-13-18.6-5.3-7.8-11.1-14.8-19.6-19.4-3.2-1.7-5.8-4.5-8.8-6.6-1.3-.9-2.8-1.6-4.3-2.2-.3-.1-.9.2-1.4.4.3.4.4 1 .8 1.2 1.2.7 2.7 1 3.8 1.8 2.7 2.1 5.4 4.3 8 6.6 3.3 2.9 6.4 6.1 10 8.7 5.6 4 9.2 9.6 13 15.1 3.7 5.3 7.5 10.5 11.5 15.6 3.3 4.3 6.7 8.5 10.2 12.5 4.2 4.8 8.7 9.3 13 14 4.1 4.4 8.1 8.9 12 13.5 4.2 4.9 8.4 9.8 12.5 14.8 7.1 8.5 12.3 18.2 17.5 27.9 2.9 5.5 3.8 11.6 3.2 17.9-.5 5-1.5 6.2-6.4 5.6-3.1-.4-6.4 1.2-9.4-1-.3-.2-1.4.3-2 .7-4.2 3-8.2 6.2-12.5 9.1-5.8 3.9-11.8 7.7-19.2 7.9-.4 0-.9.1-1.3-.1-5.5-2.2-11.2-4.1-16.4-6.7-1.9-1-3.1-3.7-4.2-5.9-1.8-3.5-3.3-7.3-4.8-10.9-4.5-10.3-9.1-20.5-13.3-30.8-5.3-13-9.6-26.3-15.8-39-2.9-5.9-4.6-12.3-7-18.4-1.7-4.2-3.7-8.3-5.3-12.5-1.1-2.9-1.9-5.9-2.9-8.9-.6-1.2-1.4-2.4-1.9-3.7-3.7-9.5-7.4-19.1-11.1-28.7-.8-2-2-3.8-2.9-5.7-.4-.9-.9-1.7-1.2-2.6-.1-.5.2-1.2.3-1.7.3.4.7.7.9 1.2 1.4 2.9 3 5.7 4.2 8.7 1.7 4.1 3.3 8.2 4.9 12.3.8 2.1 2 4 4.6 3.8 2.7-.1 3.6-2.2 4.3-4.5 1.4-4.6-1-8-3.8-11-2.7-2.9-5.9-5.4-8.6-8.2-1.9-2-3.2-4.6-5.2-6.6-4.1-4.1-8.8-7.6-12.7-11.9-2-2.3-4-2.3-6.5-2.3-8.1.3-16.2.4-24.2.7-2.1.1-2.3-.3-1.7-2.4.8-2.7 2.6-4.1 5.2-3.8 7.1.9 14.2-1.5 21.2.5 2.4.7 5.1.3 7.6.4-2.4-2.1-3.4-4.6-3.7-7.9-.4-4.3-2-8.3-4.7-11.8-1.1-1.5-2.6-3.3-4.2-3.7-3.7-1-7.6-1.2-11.4-1.7-.5-.1-1.2.3-1.6 0-.7-.5-1.3-1.3-1.7-2.1-.1-.2.8-1.1 1.4-1.3l7.3-2.7c1.8-.7 2.5-2.1 2.2-4.2-.4-2.7-.5-5.4-.9-8-.5-3.2-1.7-6.1-4.7-7.3-2.8-.2-5.7-.3-8.8-.3-2.2 0-4.6-.2-6.9-.4-2.8.5-5.6 1.2-8.4 1.8-.6.1-1.3 1-1.4 1.5-.7 4.7-1.5 9.4-1.6 14.1-.1 3.9.9 4.5 4.9 5.7 1.6.4 3.2.7 3.4 2.8.3 2.7 0 3.1-2.8 3.3-3.4.3-6.8.8-10.2 1.2-3.2.4-5 2.4-5.7 5.4-.6 2.5-1.2 5.1-1.7 7.6-.1 2.6-.2 5.2-.5 7.8 1.2-1.4 1.7-3.2 1.8-5.3 0-1.9.5-3.9.9-5.7 1.6-6.1 4.6-8.5 10.9-8.9 1.9-.1 3.9-.5 5.8-.5 2.7.1 3.4-1.4 3.5-3.6v-1.6c.1-3.9.1-3.9-3.7-4.7-3.2-.7-4.3-2.2-4.1-5.5 0-.3.3-.7.4-1 .1.3.4.5.4.8.3 3.7 2.8 4.4 5.9 4.4 2.4 0 4.9.4 7.3.7 1.5.2 2.3 1 2.1 2.6-.1 1 .1 2.2.3 3.2.4 2.4 1.9 3.2 4.3 3.5 4.5.5 8.9 1.2 13.4 2.1 2.8.5 3.7 3.1 4.9 5.2.1.2-.2.7-.4 1.1-.3-.1-.7-.2-.8-.4-3.9-7-10.5-5.7-16.6-5.3-4.2.2-5.8 2.1-5.7 6.2.2 9.3-1.2 7.7 8.2 8.4 4.1.3 8.2-.1 12.3-.1.5 0 .9.4 1.4.6-.4.2-.9.7-1.3.7-6.7 0-13.3-.1-20-.2-.7 0-1.7-.2-2-.7-1.3-2.1-3.3-2.9-5.6-3.5-.6-.2-1.1-2-1.1-3.2l.2-5.1c-.2-2-1.5-3.1-3.6-2.9-2.9.2-5.9.2-8.6 1.1-4.1 1.4-5.8 5.2-6.3 9.1-1 6.9-1.8 5.6 4.8 5.2 1.4-.1 2.8-.6 4.2-.3 1.1.2 2.7 1 2.9 1.8.4 1.7-1 2.9-2.7 2.9-2.9.1-5.8 0-8.7-.3-1.7-.1-3.1.1-3.8 1.6-.7 1.4-.8 2.9.8 4 1.2.5 2.4 1.3 3.6 1.4 3 .3 6 .2 9 .4.6 0 1.1.7 1.7 1-.6.3-1.2.8-1.8.8-2.9-.1-5.8-.3-8.7-.5-.8 0-1.6-.1-2.2.2-.7.3-1.2 1-1.7 1.6.6.4 1.1 1.1 1.7 1.2.8.2 1.7.1 2.6 0 1.6-.1 3.3-.5 4.8-.2 5.2 1.2 9.1-1.4 13.2-3.9 1.3-.8 2.9-1.2 4.4-1.3 4.6-.5 9.2-1.1 13.8-1 5 .2 10 1.1 15 1.8.5.1 1 .4 1.5.7 2.6 1.7 5.2 3.3 7.8 5.1.7.5 1.1 1.5 1.6 2.3l-3.8-1.7c-3.5-1.7-8.2-1.1-10.9 1.5-.7.6-.8 1.8-1.1 2.8.8-.2 1.7-.3 2.4-.7 3.5-2.3 9.9-1.9 12.6 1 .5.6.6 1.6.8 2.5-.8-.1-1.7.1-2.3-.3-3.6-2.4-7.4-.5-11-.4-7.4.2-14.8.5-22.2.8-1.7.1-3.4.3-5.2.3l-19.7-.5c-.9 0-1.7.2-2.6.1-.9-.1-1.8-.4-2.7-.6.6-.9 1.1-2.5 2-2.7 2.8-.7 5.7-.9 8.6-1.3.2-.2.4-.4.7-.6-4.7-3.3-11.4-1.7-13.9 3.4-.8 1.7-2.2 2-3.7 1.6-.5 1.8-1.1 3.6-1.7 5.4.2-.1.4-.2.7-.2 6.3-1.2 12.4-2.9 19.1-2.7 10.1.4 20.3-.3 30.4-.6 5.8-.2 11.6-.7 17.4-.5 3.1.1 6 1.2 7.9 4.6 4 7.5 7.9 15 10.7 23.1 3.6 10.2 7.8 20.1 11.6 30.1 1.4 3.6 2.7 7.3 4 10.9l.1.9c-.3-.2-.7-.4-.9-.7-1.9-2.6-3.8-5.2-5.6-7.8-.4-.6-.5-1.4-.7-2.1-1.5-5-2.5-10.2-5.9-14.5-.4-.5-.6-1.1-.8-1.8-2.7-7.6-5.5-15.2-8.2-22.9-.3-.7-.5-1.4-.9-2.1-2.3-3.8-5.4-7.2-5.6-12 0-.4-.5-.8-.8-1.2-.3.4-.7.7-1 1.2l-4.2 7.5c-.3.5-.6 1.2-1 1.2-4.5.5-3 4.1-2.9 6.5.5 11.1 1.3 22.1 2.1 33.2.6 8.1 1.3 16.1 1.8 24.2.1 1.2-.6 2.5-1 3.7-.3-1.2-.7-2.4-.8-3.6-.4-5.9-.7-11.8-1-17.7 0-.5-.4-1-.6-1.4-.2.5-.7 1.1-.7 1.6.2 5.9.4 11.8.7 17.7.1 2.3.4 4.6-1.5 6.4l-.9.8c-.1-.4-.2-.8-.2-1.2l-1.2-22.6c0-.6-.3-1.2-.5-1.8-2 1.5-1.4 3.7-1.2 5.7.3 5.1.7 10.1 1.4 15.1.3 2.3-.4 3.1-2.7 3.1l-24.5-.1c-6-.1-12-.3-18-.5-3.3-.1-3.9-.8-3.1-4 3.5-13.9 4.8-28 4.9-42.4.1-7.6.9-15.3 1.3-22.9 0-.5.2-1.1.1-1.6-.1-.4-.5-.8-.7-1.3-.3.4-.8.8-.9 1.2-.3 3.3-.6 6.7-.8 10-.5 8.8-.7 17.7-1.3 26.5-.4 6.1-1.1 12.3-2 18.3-.6 4.1-1.8 8.2-2.7 12.3-.1.6-.6 1.1-1 1.6-.3-.6-.7-1.3-.8-1.9-.3-5.7-.5-11.4-.7-17.1-.2-11-.5-22-.3-33 .1-6.2 1.1-12.5 1.8-18.7.2-1.9 1.4-2.5 3-1.9 2.5.9 4.8.2 7.2-.1 6-.8 12-.9 18-1.3 1.3-.1 2.6-.1 3.9-.1l21.6-.7c1.1 0 2.2.5 3.3.7l-1.2 3.5-.7 1.5c.6-.2 1.3-.2 1.7-.5.9-.9 1.9-1.9 2.3-3 1.2-2.8.1-4.4-3-4.3-6.3.2-12.7.5-19 .8-6 .2-12.1.5-18.1.5-4.5 0-9-.5-13.5-.4-3.2.1-6.5.7-9.7 1.1-.3 0-.5.2-.8.3.3.2.5.4.8.5 1.6.4 1.9 1.5 1.8 3-.5 10.2-1.2 20.5-1.5 30.7-.2 6.8.4 13.6.4 20.4l.2 43.3c0 5.9.3 11.9.6 17.8 0 .7.5 1.3.8 1.9.3-.6.9-1.2.9-1.9.3-4 .4-7.9.6-11.9.2-3.3.1-6.7.6-10 .6-4.2 1.7-8.2 2.4-12.4.5-2.7 2.2-2.7 4.3-2.4 2.4.3 2.4 1.7 2 3.5l-3.6 15.4c-.2.8-.7 1.7-.6 2.5.4 4-1.2 7.4-3 10.9-.6 1.2-.9 2.7-1.2 4-.5 1.9.1 4.2-2.7 4.8-.3.1-.3 1.5-.4 2.4l-.9 11.9c0 .4-.3.8-.5 1.1-.2-.4-.6-.8-.6-1.3-.2-8-.3-16-.7-23.9-.7-13.7-1.7-27.4-2.3-41.1-.5-12.8-.6-25.7-.9-38.5-.2-9-.2-17.9 1.4-26.8.3-1.8.2-3.4-1.3-4.7-.2-.2-.3-.4-.4-.6l-.9 2.5c.3.6.4 1.4.3 2-1.3 13.2-.6 26.5-.5 39.8 0 6.3 0 12.5.1 18.8.1 5.1.4 10.1.6 15.2.4 2.4 1 4.9 1 7.3l-.1 15.8c0 2.6.7 5.1.8 7.7.2 4.1.1 8.2.1 12.3 0 2.6-2.1 3.9-4.5 3.2-1.2-.4-2.5-.5-3.8-.5-5.1.1-10.1.6-15.2.3-7.9-.4-12.3 4.6-10.6 12.4.1.6.1 1.3.1 1.9.4 3.1 3.8 5.5 6.4 4.1 4.7-2.5 9.7-1.7 14.6-1.7 6.1.1 6 .3 4.3 6.2-.4 1.3-.7 2.7-1.1 4.1-1.2 4 0 6.1 4.2 6.3 4.6.2 9.1 1.2 13.7.2.5-.1 1.1-.2 1.6-.2 5.7.6 5.9 0 6.4 6 .5 5 1.6 10 2.8 14.9 1 4.1 2.5 8 3.6 12.1.6 2.1 1 4.2 1.2 6.3 1 13.8 2 27.6 3 41.3l1.4 18.8 1.5-.1-1-16.3c-.5-8.9-1.2-17.9-1.5-26.8-.4-9.5-.4-18.9-.7-28.4 0-1.2-.3-2.4-.3-3.5 0-2.5 0-5.1.1-7.6v-7.1c0-3.4.2-6.8.2-10.3 0-.7-.4-1.4-.5-2.1-.2-1.8-.9-3.8-.4-5.4 1.1-4.1.9-8.2.9-12.2.1-10.8-.4-21.5-.5-32.3-.1-6.9.1-13.8-.1-20.7 0-2.5 1.1-4 3.3-3.8 4.9.4 9.8-.2 14.6 1.5 1.6.6 2.2 1.6 2.4 3l.5 7.1c.4 8.3.9 16.5 1.2 24.8.4 11.7.5 23.5 1.2 35.2.3 5.5-.6 10.7-1 16-.4 6.9.2 13.8.2 20.7l-.1 25.5c0 5.1.2 10.1.1 15.2l-.4 20.4c0 2.9.2 5.7.5 8.6.8.3 1.6.6 2.3.9v-.9c.4-5.9.9-11.8.9-17.8 0-4.6-.8-9.2-.8-13.9 0-5.1.7-10.1.8-15.2.1-3.5-.4-7.1-.5-10.7l-.1-11c-.1-4.1-.3-8.2-.5-12.3 0-.8-.1-1.5.1-2.3l.7-2.6c.2.9.6 1.8.7 2.7.4 9.7.6 19.4 1.1 29.1.2 4.5.8 9 1.2 13.5.1 1.6 0 3.4 2.2 3.7 2.4.4 4.5-.7 5.3-2.7.2-.5.3-1.1.3-1.6-.1-5.9-.3-11.8-.3-17.8 0-7.6.3-15.3.5-22.9 0-.9.9-1.8 1.3-2.7 1 .6 2.5.9 2.9 1.8 1.1 2.2 1.7 4.5 2.4 6.9.2.9 0 1.9 0 2.9 0 1.4-.8 3.4 1.4 3.8 2 .3 3.9-.6 4.8-2.5.5-.9.4-2.1.7-3.1.4-1.1.6-2.5 1.4-3.1 3.3-2.4 2.9-5.7 2.1-8.8-.4-1.9-.4-3.1.8-4.7 2.6-3.3 1.8-5.8-2.3-7.4-.5-.2-1.1.1-1.7.2.2.4.3 1.1.7 1.3 2.8 1.5 2.9 3.1.9 5.6-.8 1-.7 3.1-.4 4.6.7 3.2 1.1 6.2-2.1 8.4-.6.4-.7 1.5-.9 2.3-.2.8 0 1.8-.4 2.5-.6 1.1-1.6 2.1-2.5 3.1l-.5-3.5c-.5-2.8-.9-5.5-1.5-8.2-.3-1.4-.5-2.3 1.2-3 2.4-1 4.1-8.1 2.8-10.2-.2-.2-.6-.6-.7-.6-.3.1-.8.5-.8.8l-.1 1.9c-.7 6.7-3.9 8-9.4 6.2-2-.7-2.3 0-2.5 1.5-.1.7 0 1.6-.2 2.2-.3.8-.9 1.4-1.4 2.2-.9-.8-2.3-1.4-2.6-2.4-.7-2-.9-4.2-1.1-6.3-.2-2.1-1.2-1.6-2.3-.8l-1.2-27.6c-.5-9.9-1-19.8-1.5-29.6-.4-6.8-.8-13.5-1.1-20.3-.1-1.6.4-3.1.6-4.7.2 1.1.5 2.3.6 3.4.4 7.4.7 14.8 1.3 22.2l1.6 6.8c.9 8.6 1.6 17.3 2.4 26 .2 2.4.4 4.8 3.2 5.7.2-.2.4-.4.6-.7 1.7-1.2 1.9-2.7 1.7-4.8-.5-5.3-.7-10.7-1-16 1.5 1.6 3 3.3 4.6 4.9.5.5 1.4.8 2.1 1.1.3-.7 1-1.5 1-2.2-.2-1.7-.8-3.3-1.3-5-1.2-3.7-2.3-7.4-3.6-11.1-.5-1.5-1.3-3.2-3.5-2-.1 0-.9-.9-1-1.4 0-.4.8-1.3 1-1.3 1.5.6 2.9 1.3 4.3 2.1 1.3.8 2.6 1.6 3.6 2.7.7.9 1.2 2.2 1.3 3.3l.6 17.1c.1 1.3.8 2.5 1.3 3.7.3-1.3.9-2.5.9-3.8l-.1-29.5c0-.7-.2-1.5-.3-2.2-1.5-8.8-1.5-17.7-.9-26.6.2-3.7-.4-7.4-.8-11.1-1-10.5-2.1-21-2.9-31.6-.5-7.3-.6-14.7-.9-22 0-.4.1-.8.2-1.3.3.4.7.7.9 1.1.3.5.5 1 .6 1.5l1.2 15.1c.4 4.6.8 9.2 1.1 13.8.2 3.3.3 6.6.6 10 .4 4.9 1.1 9.8 1.4 14.7.4 5 .4 10.1.6 15.2.3 5.9.7 11.8 1.1 17.7l.3 5.8c.1 2.1.2 4.3.2 6.4 0 2.3 0 4.5-.1 6.8l-.4 10c-.2 5.3-.6 10.6-.4 15.8.2 3.9-1.1 7.9 1 11.6.2.4.6.7.9 1.1l.6-1.1c.4-.6.6-1.5 1.1-1.9l27.1-16.8c1.3-.8 2.2-.9 3.2.6 1.4 2.2 3.4 1 4.9.1 2.9-1.7 5.3-2.3 8.2.2 1.4 1.2 3.8 1.6 5.8 1.5 2.7-.1 3.9 1.4 5 3.4l7.1 13.8c.2.3.2.8.2 1.2-.4.1-.8.2-1.2.1l-7-1.2c-4.2-.8-6.6-3.7-8.5-7.1-1.4-2.5-2.7-5.2-2.2-8.3.1-.5-.4-1.1-.7-1.6-.6.4-1.5.6-1.6 1.1-.8 2.9-1.1 5.8.7 8.4 1.4 2.2 3.1 4.2 4.8 6.1 2.2 2.5 5 3.8 8.5 4.1 2.4.2 4.8 1.2 7.1 1.8 2.5.6 5 1.1 7.4 2 5.5 2 10.9 4.2 16.3 6.4 4.1 1.6 8.2 1.6 11.9-.6 6.4-3.7 12.8-7.5 18.9-11.8 5.3-3.8 11.1-3.5 17.1-3.2.8 0 1.5.3 2.2.3 3.8.1 4.2-.5 5.2-4 1-4.9-.3-10.6-1.2-16.4zm-122.5-123.8c.7.7.8 2.5.5 3.6-.4 1.4-1.5 2.6-2.2 3.9-.8-1.1-1.8-2-2.3-3.2-2.2-5-4.3-10.1-6.4-15.2 4.9 2.4 7 7.3 10.4 10.9zm-52.8-70.1c-.1 0-.2-.3-.2-.5l1.5-.4c.1 0 .2.2.3.5-.6.2-1.1.3-1.6.4zm3.5-17.7c.4 0 .9-.1 1.2.1.6.4 1.4.9 1.6 1.5 1.2 4.1 2.6 8.3 1.3 12.6-.2.7-.9 1.3-1.4 1.9-.5-.7-1.4-1.3-1.5-2.1-.3-1.9-.3-3.9-.3-5.8h.2l-1-7.3c-.1-.2-.1-.6-.1-.9zm-7.1 14.9l-8.4-.3c-3.3-.1-5.3-2.4-5-5.7l.4-2.6c.5-4.2 2-5.5 6.2-5.6 2 0 4.1-.3 6.1-.2 4.6.1 6.8 2.4 6.8 7-.1.6-.2 1.3-.3 2.1-.3 4.3-1.6 5.5-5.8 5.3zm20 27.1c-4.6.2-9.2.4-13.8.4-4.2 0-4.9-.9-4.9-4.9-.6-4.4 1.9-5.8 6.4-5.7 1.4 0 2.8.3 4.2.4 5.3.1 8.7 2.9 9.5 8.2 0 .5-.9 1.6-1.4 1.6zm-38 12.1c-3.9.4-7.9.5-11.8.8 1.6-3.3 4-4.4 7.6-3.5 1.3.3 2.8-.1 4.1 0 .8.1 1.4.8 2.2 1.2-.7.6-1.4 1.4-2.1 1.5zm3.7-11.8c-2.4-.2-4.9.4-7.4.6-3 .3-4-.9-3.1-3.8 1.3-4.3 4.1-6.6 8.6-6.7.6 0 1.3 0 1.9-.1 4-.3 4-.3 3.9 3.7-.2 1.3-.1 2.6-.5 3.8-.5 1.5-1.2 2.7-3.4 2.5zm3.1 13.1c-.7 0-2-1.3-2-1.9.1-.9 1.2-2.3 1.8-2.3.9 0 1.8 1.1 3.2 2.1-1.3.9-2.1 2-3 2.1zm5.5-5c-.6-.4-1.1-1.1-1.8-1.2-1.5-.3-3.1-.4-4.6-.6-.4-.1-.7-.3-1-.5 1.3-1.3 2.3-3.3 3.8-3.9 2.5-.9 3.9.7 3.9 4.4 0 .2-.1 1-.3 1.8zm-31.3 152.5c.1-.2.5-.2.8-.3.1.4.1.8.2 1.6-.9 1.8-1.9 3.7-3 5.7-.1.2-.5.3-.7.5-.1-.3-.4-.6-.4-.8 1-2.3 2.1-4.5 3.1-6.7zm-3.6 10.5c.2 0 .4.1.5.1-.3 1.2-.6 2.3-.8 3.5l.3-3.6zm-27.8-5.2c1.2-3.6 3.5-4.9 8.1-4.8 3 1.4 5.8 1.6 9.2.4 2.5-.9 5.6-.4 8.4-.3.4 0 1.1.7 1.3 1.2.6 2.1-2.1 5.6-4.3 5.8l-20 1.4c-2.9.1-3.7-1-2.7-3.7zm24.1 7.1c-.9.3-1.9.3-2.9.4-4.7.2-9.4.4-14.1.5-1.6 0-3.2-.5-4.8-.7 1.6-.4 3.1-.8 4.7-1.1.6-.1 1.3 0 1.9 0 0 .1 0 .2.1.3l10.7-1.9c1.4-.2 2.8-.2 4.2-.1.5 0 1.2.7 1.2 1.2.1.5-.5 1.2-1 1.4zm4.7 16.9c-.3 0-.6-.1-.8-.1.2-.2.5-.4.7-.5.3-.1.6 0 1.1.1-.5.2-.7.4-1 .5zm-3-4.5c0 .4-.1.8-.1 1.1-.4-.3-.9-.6-1-1-.2-.6-.3-1.3-.1-1.9.9-3 1.9-5.9 2.9-8.9 2.2 1.3 4.5 2.5 4.9 5.5.1 1.2 0 1.2-1.1.9-4.1-1.2-5.6 0-5.5 4.3zm6.2 1.5c-.4-.9-.7-1.3-.7-1.5.2-.4.6-.8.9-1.1.1.2.4.5.4.7-.1.5-.3.9-.6 1.9zm-.2-13c-.3-.3-.8-.7-.8-1 0-.8.3-1.6.5-3 .6 1 1.2 1.5 1.1 1.8-.1.8-.5 1.5-.8 2.2zm13-30c.3-1.8.5-3.6.9-5.4.9-4.1 2-8.1 3-12.2.1-.3.3-.5.5-.8.1.3.3.5.3.8.3 5.2.2 10.5.9 15.7.8 6.6-3.3 10.4-7.3 14.4.5-4.1 1.1-8.3 1.7-12.5zm-4.4 14.2c.1-.3.1-.6.3-.9.2-.4.4-.8.5-1.1l.2 1.3.3 1.2-2 2.9c.3-1.2.5-2.3.7-3.4zm-5.9 15.7c.4-.2.7-.4 1.1-.4.2 0 .3.4.7.9-.6.1-1 .3-1.3.2-.1-.1-.3-.4-.5-.7zm1.4 15.2s-.8-.1-.8-.2c-.1-1.4-.1-2.9-.1-4.4 0-.4.1-.8.3-1.2.3-.8.6-1.5 1-2.3.2.9.4 1.8.5 2.7.1.3 0 .6 0 1l.5.2c-.4 1.3-.9 2.7-1.4 4.2zm15.9 14.7l-1.5-11.5c-.1-.8-1.5-1.8-2.3-1.9-2.7-.3-5.4-.2-8-.3-1.2 0-2.7.2-1.3-1.8.3-.4.3-1 .4-1.5.8-4.6 2.4-5.8 7.1-4.8 2.8.6 4.8-.9 5.2-3.7.2-1.9.1-3.9.2-5.8.1-.9.3-1.8.5-2.7-.1-2.3 0-4.7-.3-7-.1-1-.8-1.8-1.2-2.8-.6.7-1.4 1.3-1.9 2l-8.3 11.5c-.3.4-.7.6-1.1.9-.1-.5-.4-1-.3-1.5.3-3.8 1.5-7.4 3.6-10.6 2.5-3.7 4.4-7.8 8.2-10.7 3.2-2.4 1.8-6.5 1.8-9.7 0-8-.7-15.9-.9-23.9 0-.9.9-2.5 1.6-2.6 1.7-.3 2 1.2 2 2.6.2 10.3.9 20.7.4 30.9-.3 6.9-2.3 13.7-3.5 20.6 1.9 2.9.3 6.1.8 9.1.1.8 0 1.8.4 2.3 2.8 3.1 2.6 6.8-.2 10-1 1.1-1 3.4-.9 5.1.6 5.8 1.5 11.5 2.2 17.3.1.9.1 1.9.1 2.9-.9-4.1-2-8.2-2.8-12.4zm-3.7-26c0 1.5-.8 2.1-2.3 1.9-1.7-.3-3.3-.6-5-.8.7-1.5 1.2-3.1 2.1-4.5 1.6-2.5 3.3-5 5-7.5.2-.3.6-.5 1-.7.1.5.2.9.2 1.4l-.6 4.8h-.3c0 1.8 0 3.6-.1 5.4zm7.3 21.1c-.3-.7-.5-1.5-.8-2.4l.9-1.7c.1.8.4 1.6.4 2.4 0 .6-.3 1.2-.5 1.7zm35.3 30c.1.1-.7 1-1 1.7-.3.6-.6 1.9-.6 2 3 1 2.7 3.8 2.8 6 .3 3.9.1 7.9.1 11.9 0 .7-.2 1.6-.6 2.1-.4.5-1.1 1-1.8 1-.3 0-1-.8-1-1.4-.3-1.8-.5-3.6-.8-5.8v-21.3c0-.8-.2-1.6 0-2.2.4-1 1.1-1.9 1.9-2.6.3-.2 1.7.3 1.8.7.2 1.1.5 2.7 0 3.3-1.4 1.4-3 2.5-.8 4.6zm-2.2-15.9c1.1.9 2.2 1.8 3.4 2.7-.7.5-1.8 1.6-2.1 1.5-.9-.6-1.6-1.6-2.3-2.5.5-1 .8-1.4 1-1.7zm-7.2-93.3c-.2-.3-.4-.5-.5-.8-.1-.7-.1-1.4-.1-2.1 0 0 .2-.1.3-.1.1.7.2 1.4.2 2.1.1.3.1.6.1.9zm10 34.7l.5-1.5c.4.4.9.8 1.1 1.3 1.1 3.2 2.2 6.4 3.2 9.7l.2.2-.2-.2c-2.8-2.5-6.1-4.8-4.8-9.5zm-5.2-19.5c-.3 3.1-.6 6.2-1 9.3 0 .4-.1.8-.2 1.2-.1-.4-.2-.8-.2-1.3v-4.2h-.2v-22.8c0-.4.1-.8.2-1.2.1.4.3.9.3 1.3.4 4.7.8 9.4 1.1 14.1.2 1.2.1 2.4 0 3.6zm1.1 8.7c0 .4-.1.7-.2 1l-.4-.8c-.1-.4-.1-.8-.1-1.3-.1-.9-.1-1.8-.2-2.8l1.1 2.7-.3.1c.1.4.2.8.1 1.1zm2.5 26.4c-.3-.9-.8-1.8-.9-2.8-.2-1.5-.3-3-.4-4.5l.1-1.2c.2.3.6.6.6 1 .3 1.6.5 3.2.8 5.1 0 .6-.1 1.5-.2 2.4zm9-50.7c.4 3.8.4 7.7 1 11.5.4 2.4-2.3 1.8-2.4 3.2-.2 1.7 2.8-.6 2.6 2-.2 3 .3 6 .4 9 .1 1.8-.8 2.5-2.4 1.6-3.4-1.8-6.7-3.7-6.7-8.3 0-.5-.4-1.3-.6-1.3-2.9.2-1.9-2-2-3.3l-.8-12.9h.2c-.1-1.3-.2-2.6-.2-3.9 0-.5.2-1.1.4-1.6.3.4.9.8 1 1.3 1.5 5.3 3 10.5 4.6 15.8.3 1.1 1.3 2.1 1.9 3.1-.1-1.2-.2-2.4-.4-3.6l-1.4-7.3c-.3-2 1.7-5.5 3.7-6.3.1-.1 1.1.6 1.1 1zm27.5-25.7c.2.5.1 1.2-.1 1.8-.1.2-1 .2-1.4 0-1.8-.7-3.5-.9-5.1.4-.2.1-.5.2-.7.4.2-.1.5-.2.7-.4.9-1 1.7-2.1 2.7-3.1 1.5-1.4 3.3-1 3.9.9zm-22.7-13.5v-29.6c0-.8-.7-1.6-1-2.4-.4-1.6-1.2-3.2-1-4.8.1-1.5 1.7-2 2.9-.9.9.8 1.6 2.1 2.1 3.2 4 10.3 8 20.7 12 31.1 1.1 2.9 2.1 5.9 3 8.9.3.9 0 2.2-.4 3-2.8 5.3-7.6 8.7-12.2 12.1-.8.6-1.8 1.2-2-.6-1.3-6.9-2.4-13.9-3.4-20zm18.2 27.3c-.6.2-1.1.5-1.7.5-1.6.1-3.2 0-4.9 0v.1c-1.6 0-3.2-.1-4.8 0-.8.1-1.6.7-2.4 1.1.7.4 1.4 1 2.1 1.1 1.9.2 3.9.2 5.8.2 1.2 0 2.4-.3 3.5-.3 6.4-.3 6.3-.3 6 5.9-.1 1.9-.5 2.1-2.4 2.1-4.3 0-8.6.6-12.9.8-1.2 0-2.5-.7-3.7-1.1 1.1 0 2.2 0 3.4-.1 4.1-.2 8.2-.4 12.3-.7.6 0 1.1-.7 1.6-1.1-.6-.3-1.3-.9-1.9-.9-3.1.1-6.2.3-9.3.5-4.9.3-7.5-3.1-6-7.7.2-.5.7-1.3 1.1-1.3 4.2 0 8.4.1 12.6.2.5.1 1.1.5 1.6.7zm-1.3-2.9c.6-.2 1.3-.4 1.9-.5.3 0 .5.1.8.2l-1.5.7c-.4-.2-.8-.3-1.2-.4zm-2.4 76.9c-2.1 1.5-4.3 2.9-6.4 4.3-.3-.1-.7-.2-.7-.2.1-.4.1-1 .4-1.1 2-1.2 4.1-2.3 6.2-3.4.2-.1.4 0 .6 0 0 .1 0 .3-.1.4zm3.5-1.7c-.3.2-.7.1-1.1.1.1-.3.2-.7.4-.8l12.8-7.9c-4 2.9-8.1 5.8-12.1 8.6zm11.1-10.7c-4.9 2.6-9.8 5.2-14.3 8.8-3.1 2.4-6.9 4-10.3 5.9-1.2.7-1.9.3-2.1-1l-.2-2.2h.5v-20.2c0-1.1.2-2.1.5-3.2.5-1.8 1.6-2.4 3.4-1.6l2.7 1.2 19.8 9.5c.6.3 1.2.8 1.8 1.2-.6.5-1.1 1.3-1.8 1.6zm5.9-4.2c-.9.2-2 .4-2.7.1l-16.2-7.8c-3-1.4-6.1-2.6-9.2-3.8-1.8-.7-2.9-1.7-3-3.7-.4-7.6-.8-15.3-1.3-22.9-.1-2.4.6-3.6 3.2-3.7 5.4-.2 10.7-.5 16.1-.8.5 0 1.1-.1 1.4-.5 2.2-2.1 3.7-13.3 2.1-16.2-1.8-3.4-2-3.5-7.5-3.3-.8 0-1.5.2-2.3.1-.7 0-1.4-.2-2.1-.3.5-.8.9-1.9 1.6-2.2.9-.4 2.1-.1 3.1 0 .6.1 1.2.8 1.7.7 5.7-.6 7.4 3.4 8.6 7.6.7 2.3.8 4.8 1.2 7.2 0 .3.1.7.3.9 4.4 5.5 6.4 12.2 9.3 18.4 1.4 2.9 2.2 6 3.4 9 .8 2.1.9 3.7-1 5.5-3.9 3.7-3.9 5.8-.7 10 .5.7.9 1.5 1.2 2.3.4 1.3.1 1.9-1.5 2-2 .1-3.8.9-5.7 1.4zm1.9 8c-.3 0-.6-.3-.9-.5.2-.3.4-.7.7-.9.2-.1.6.2 1 .3l.4.7c-.4.1-.8.4-1.2.4zm4.9-3.2c-2.3-.2-4.1-.3-4-2.6 0-.6 1.4-1.8 1.6-1.7 1.4.7 2.8 1.7 4.1 2.6-.6.7-1.3 1.3-1.7 1.7zm11 4.1c-3.1.5-6.6-2.4-6.3-5.4-.3-.8-.4-1.9-.9-2.2-3.1-1.9.2-2.9.5-4.3 0 0 1.2-.1 1.5.2.8 1 1.5 2.1 2.2 3.2l4 6.2c.3.5.5 1.1.7 1.7-.5.3-1.1.6-1.7.6zm16.4 21c-.4-.5-1-.9-1.3-1.5l-11.3-21.7-4.8-8.4c-1.7-3.2-4.3-5-7.8-5.7-2.7-.5-3.6-2.6-2.3-4.9.2-.3.3-.6.6-.8 4.8-3.5 3.8-7.6 1.7-12.2-1.9-4-3.1-8.3-4.8-12.3-.9-2-2.6-3.7-3.4-5.8-1.1-3.1-1.6-6.4-2.5-9.6-.7-2.6-1.7-5.1-2.6-7.6l-.3-.9s.3-.1.6-.3c.4.6 1 1.1 1.3 1.8 1.3 2.8 2.6 5.7 3.8 8.6 3.6 8.7 7.2 17.5 10.7 26.3 2 5 3.4 10.2 5.5 15.1 2.7 6.4 5.9 12.6 8.8 19 2.8 6.3 5.6 12.6 8.3 18.9.2.5-.1 1.3-.2 2zM259.5 246.9zM240.7 246.9l.2-.2c-.1.1-.1.2-.2.2zM266.7 315c-.1-.1-.2-.3-.4-.4h-.2c.1.1.4.3.6.4zM156.6 329.2c-.2.2-.5.4-.5.6l.4.5c.2-.2.4-.4.5-.7l-.4-.4zM219.8 142.7c-.1-.2-.3-.4-.5-.6-.1.2-.2.4-.2.5.1.3.3.5.4.7.1-.2.2-.3.3-.6zM238.7 250.4c-.2.2-.3.3-.5.4.2 0 .4.1.5.1.1 0 .2-.1.2-.2.1 0 0-.2-.2-.3zM243.5 251l.1-.5s-.2-.1-.3-.1l-.4.3.6.3zM180.2 111l-.1-.6-.4.3v.3h.5zM152.6 335.7c-.1-.1-.2-.2-.4-.3 0 0-.1.1-.1.2s.1.2.1.2c.1 0 .2 0 .4-.1zM215.5 303.6l-.3-.1-.2.2.4.2c.1-.1.1-.2.1-.3zM182.8 318.3l-.1-.3c-.1.1-.2.1-.2.2s0 .2.1.3c.1-.1.2-.1.2-.2zM220.9 148.5l-.3-.1c-.1 0-.1.1-.2.2l.4.2c.1-.1.1-.2.1-.3zM167 259.5c.1-.2.2-.3.2-.4-.1 0-.2 0-.2-.1v.5zM224.5 260l-.2.2.4.2c0-.1.1-.2 0-.3 0-.1-.2-.1-.2-.1zM217.3 320.9c-.1 0-.2 0-.3.1v.3l.4-.1c0-.1 0-.2-.1-.3zM221.7 144.5v-.3l-.3.2s.1.1.1.2c.1 0 .2 0 .2-.1zM169.9 298.3v-.3l-.3.3s.1.1.1.2c0-.1.1-.2.2-.2zM211.8 350.3v.2l.1-.2zM215 295.8v.2l.2-.2zM182.7 162l.2.2.1-.2zM180.6 107.7l.1.2.1-.1zM215.2 298.5l-.1-.2-.1.2z"/><path fill="#fff" d="M161.3 113.6c2.9 10.6 4 20.8 3.8 30.8l1.7-7.6c.7-3 2.5-5 5.7-5.4 3.4-.4 6.8-1 10.2-1.2 2.8-.2 3.1-.6 2.8-3.3-.2-2.2-1.8-2.4-3.4-2.8-4-1.1-4.9-1.7-4.9-5.7.1-4.7 1-9.4 1.6-14.1.1-.6.8-1.4 1.4-1.5 2.8-.6 5.6-1.3 8.4-1.8-5.7-.5-11.6-1.4-17.3-3.1-3.6 4.2-7.3 8.3-11.1 12.3.4 1.1.7 2.2 1.1 3.4zM168.5 415.3c4.7 5.3 7.8 11.8 9.1 18.6l1.5.3c.3.1.6.2.9.4.1 0 .2-.1.2-.1 2.4-.4 4.7.4 5.9 2.7.1.1.1.2.2.4l1.5-.1c-.5-6.3-1-12.5-1.4-18.8-1-13.8-1.9-27.6-3-41.3-.2-2.1-.6-4.3-1.2-6.3-1.1-4-2.6-8-3.6-12.1-1.2-4.9-2.4-9.9-2.8-14.9-.5-6-.7-5.5-6.4-6-.5-.1-1.1.1-1.6.2-4.6 1-9.1 0-13.7-.2-4.2-.2-5.4-2.3-4.2-6.3.4-1.3.7-2.7 1.1-4.1 1.7-5.9 1.7-6.1-4.3-6.2-4.9-.1-9.9-.8-14.6 1.7-2.6 1.4-6-1-6.4-4.1l-.1-1.9c-1.7-7.8 2.7-12.8 10.6-12.4 5 .2 10.1-.3 15.2-.3 1.3 0 2.6.1 3.8.5 2.4.7 4.5-.6 4.5-3.2 0-4.1 0-8.2-.1-12.3-.1-2.6-.8-5.1-.8-7.7l.1-15.8c-.1-2.4-.7-4.9-1-7.3-.2-5.1-.5-10.1-.6-15.2-.1-6.3-.1-12.5-.1-18.8-.1-13.3-.8-26.5.5-39.8.1-.6 0-1.5-.3-2-2 5.4-4.4 10.9-7 16.3l-1.1 2.4c-2.8 7.9-5.1 15.9-6.8 24.1 2.3 6.1 1.6 13.3-1.3 19.9 2.8-6.5.3-.3-.1 1.2-.5 1.9-1 3.8-1.3 5.8l-.4 2.2-.4 4.3c-.5 7.8-.6 15.6-.6 23.4 0 11.4-8.9 21.1-20 22.3l.7 5.4c1.3 8.6 2.4 17 3.1 25.5 7 .9 14 2.1 19.9 6.6 7.6 5.7 12.3 9.1 17.2 17.5 6.2 10.5 7.9 21.3 9 33.2.4 7.3.1 14.8.2 22.3zM382 303.4l-.9-2.1c-.3-.9-2.3-5.5-1.7-4.4l-1.2-2.6c-1.7-3.5-3.6-7-5.6-10.4-4-6.8-8.4-13.4-13.2-19.7-.5-.7-1.1-1.5-1.7-2.2l-3.2-4c-2.5-3.1-5-6.1-7.6-9.2-6-7.1-12.2-14-17.7-21.4-5.2-7-10.2-14.1-15.4-21-.5-.7-1-1.4-1.6-2.1-.2-.2-.3-.4-.6-.7l-3.5-4.3-8.1-9.4c-6.9-8.1-13.4-16.6-18.5-25.8-.1-.1-.2-.1-.2-.2-2.5-1.7-5-3.2-7.7-4.5-4.5-1.8-9-3.8-13.2-6.2-5.4-3.2-10.3-7.1-15.1-11-5.5-4.4-10.5-9.2-16-13.5l4 3.1c-7.3-5.8-12.8-11.8-15.5-21.4-.5-1.9-.9-3.9-1.1-5.9-3.8-1.7-7.8-2.5-12.2-2.8 2.9 1.2 4.2 4 4.7 7.3.4 2.7.4 5.4.9 8 .3 2-.3 3.4-2.2 4.2l-7.3 2.7c-.6.2-1.5 1.1-1.4 1.3.4.8 1 1.5 1.7 2.1.3.2 1-.1 1.6 0 3.8.5 7.7.7 11.4 1.7 1.6.4 3.1 2.2 4.2 3.7 2.7 3.5 4.3 7.5 4.7 11.8.3 3.2 1.4 5.8 3.7 7.9-2.6-.1-5.3.3-7.6-.4-7.1-2.1-14.2.3-21.2-.5-2.6-.3-4.3 1-5.2 3.8-.6 2-.4 2.4 1.7 2.4 8.1-.3 16.2-.5 24.2-.7 2.5-.1 4.5 0 6.5 2.3 3.9 4.3 8.6 7.8 12.7 11.9 2 1.9 3.3 4.6 5.2 6.6l8.6 8.2c2.8 3 5.1 6.4 3.8 11-.7 2.3-1.5 4.4-4.3 4.5-2.6.1-3.8-1.7-4.6-3.8-1.6-4.1-3.2-8.2-4.9-12.3-1.3-3-2.8-5.8-4.2-8.7-.2-.4-.6-.8-.9-1.2-.1.6-.4 1.2-.3 1.7.3.9.7 1.8 1.2 2.6 1 1.9 2.2 3.7 2.9 5.7 3.8 9.5 7.4 19.1 11.1 28.7.5 1.3 1.3 2.5 1.9 3.7.9 3 1.7 6 2.9 8.9 1.7 4.2 3.7 8.3 5.3 12.5 2.4 6.1 4.1 12.6 7 18.4 6.2 12.6 10.5 26 15.8 39 4.2 10.4 8.8 20.6 13.3 30.8 1.6 3.7 3 7.4 4.8 10.9 1.1 2.2 2.3 4.9 4.2 5.9 5.3 2.7 10.9 4.6 16.4 6.7.4.2.9.1 1.3.1 7.4-.2 13.3-4 19.2-7.9 4.3-2.8 8.4-6.1 12.5-9.1.6-.4 1.7-1 2-.7 3 2.2 6.3.5 9.4 1 4.9.6 6-.6 6.4-5.6.6-6.3-.3-12.4-3.2-17.9-5.1-9.7-10.4-19.4-17.5-27.9-4.1-5-8.3-9.9-12.5-14.8-3.9-4.6-8-9.1-12-13.5-4.3-4.7-8.8-9.2-13-14-3.6-4-6.9-8.2-10.2-12.5-3.9-5.1-7.8-10.3-11.5-15.6-3.8-5.5-7.4-11.1-13-15.1-3.6-2.5-6.7-5.8-10-8.7-2.6-2.2-5.2-4.5-8-6.6-1.1-.8-2.5-1.1-3.8-1.8-.4-.2-.5-.8-.8-1.2.5-.1 1-.5 1.4-.4 1.5.6 3 1.3 4.3 2.2 3 2.1 5.6 4.9 8.8 6.6 8.5 4.5 14.4 11.6 19.6 19.4 4.2 6.2 8.5 12.5 13 18.6 2.9 3.9 6.3 7.4 9.4 11.1 2.5 3.1 4.7 6.5 7.5 9.3 6.4 6.4 13 12.5 18.4 19.9 1.9 2.6 3.8 5.4 6.2 7.5 6.9 6 11.6 13.6 16.4 21.2 4 6.4 7.6 12.9 11.4 19.4.3.5.4 1 .5 1.5.9 5.8 2.2 11.5.6 17.6-.9 3.6-1.4 4.1-5.2 4l-2.2-.3c-5.9-.3-11.7-.6-17.1 3.2-6.1 4.3-12.5 8.1-18.9 11.8-3.7 2.1-7.8 2.2-11.9.6-5.4-2.2-10.8-4.4-16.3-6.4-2.4-.9-4.9-1.3-7.4-2-2.4-.6-4.7-1.6-7.1-1.8-3.5-.3-6.2-1.6-8.5-4.1-1.7-1.9-3.4-4-4.8-6.1-1.7-2.6-1.5-5.6-.7-8.4.1-.5 1.1-.8 1.6-1.1.2.5.8 1.1.7 1.6-.6 3.1.8 5.8 2.2 8.3 1.9 3.4 4.4 6.4 8.5 7.1l7 1.2c.4.1.8-.1 1.2-.1l-.2-1.2c-2.3-4.6-4.7-9.2-7.1-13.8-1-2-2.3-3.4-5-3.4-2 0-4.4-.3-5.8-1.5-2.9-2.4-5.3-1.9-8.2-.2-1.5.9-3.5 2.1-4.9-.1-1-1.6-1.9-1.4-3.2-.6-9 5.6-18.1 11.1-27.1 16.8-.5.3-.7 1.2-1.1 1.9l-.6 1.1c-.3-.4-.7-.7-.9-1.1-2-3.7-.8-7.8-1-11.6-.2-5.3.2-10.5.4-15.8l.4-10c.1-2.3.1-4.5.1-6.8 0-2.1-.1-4.3-.2-6.4l-.3-5.8c-.4-5.9-.8-11.8-1.1-17.7l-.6-15.2c-.3-4.9-1-9.8-1.4-14.7-.3-3.3-.4-6.6-.6-10l-1.1-13.8c-.4-5-.7-10.1-1.2-15.1 0-.5-.3-1-.6-1.5-.2-.4-.6-.7-.9-1.1-.1.4-.2.8-.2 1.3.3 7.3.3 14.7.9 22 .8 10.5 1.9 21.1 2.9 31.6.3 3.7 1 7.4.8 11.1-.6 8.9-.6 17.8.9 26.6.1.7.3 1.5.3 2.2.1 9.8.2 19.7.1 29.5 0 1.3-.6 2.5-.9 3.8-.4-1.2-1.2-2.5-1.3-3.7l-.6-17.1c-.1-1.1-.6-2.4-1.3-3.3-1-1.1-2.3-1.9-3.6-2.7-1.4-.8-2.8-1.5-4.3-2.1-.2-.1-1 .8-1 1.3s.9 1.5 1 1.4c2.2-1.2 3 .4 3.5 2 1.3 3.7 2.5 7.4 3.6 11.1.5 1.6 1.1 3.3 1.3 5 .1.7-.6 1.5-1 2.2-.7-.4-1.5-.6-2.1-1.1-1.6-1.6-3.1-3.3-4.6-4.9.3 5.3.5 10.7 1 16 .2 2 .1 3.6-1.7 4.8l1.2 1.1c2.5 2.2 2.4 3.4-.2 5.5-1.9 1.5-3.9 1.4-5-.4-1.1-1.7-.4-3.8 1.5-4.8.6-.3 1.2-.5 1.8-.7-2.8-.9-3-3.3-3.2-5.7-.8-8.7-1.5-17.3-2.4-26-.2-2.3-1.5-4.5-1.6-6.8-.6-7.4-.8-14.8-1.3-22.2-.1-1.1-.4-2.3-.6-3.4-.2 1.6-.7 3.2-.6 4.7.3 6.8.7 13.5 1.1 20.3.5 9.9 1 19.8 1.5 29.6l1.2 27.6c1.1-.8 2.1-1.3 2.3.8.2 2.1.4 4.3 1.1 6.3.3 1 1.7 1.6 2.6 2.4.5-.7 1.1-1.4 1.4-2.2.3-.7.1-1.5.2-2.2.2-1.5.4-2.1 2.5-1.5 5.6 1.8 8.7.5 9.4-6.2.1-.6-.1-1.3.1-1.9.1-.3.5-.6.8-.8.1-.1.5.3.7.6 1.3 2-.4 9.2-2.8 10.2-1.8.7-1.5 1.7-1.2 3 .6 2.7 1 5.5 1.5 8.2l.5 3.5c.8-1 1.8-2 2.5-3.1.4-.7.2-1.7.4-2.5s.3-1.9.9-2.3c3.2-2.2 2.8-5.2 2.1-8.4-.3-1.5-.5-3.6.4-4.6 2.1-2.5 1.9-4.1-.9-5.6-.4-.2-.5-.9-.7-1.3.6-.1 1.2-.4 1.7-.2 4.1 1.6 5 4.1 2.3 7.4-1.2 1.6-1.3 2.8-.8 4.7.7 3.1 1.2 6.4-2.1 8.8-.8.6-1.1 2-1.4 3.1-.3 1-.3 2.2-.7 3.1-.9 2-2.8 2.9-4.8 2.5-2.2-.3-1.3-2.3-1.4-3.8 0-1 .3-2 0-2.9-.6-2.3-1.3-4.7-2.4-6.9-.4-.9-1.9-1.2-2.9-1.8-.5.9-1.3 1.8-1.3 2.7-.3 7.6-.5 15.3-.5 22.9 0 5.9.2 11.8.3 17.8 0 .5-.1 1.1-.3 1.6-.8 2-2.9 3.1-5.3 2.7-2.3-.3-2.1-2.1-2.2-3.7-.4-4.5-1-9-1.2-13.5l-1.1-29.1c0-.9-.4-1.8-.7-2.7-.2.9-.6 1.7-.7 2.6-.1.7-.1 1.5-.1 2.3.2 4.1.4 8.2.5 12.3l.1 11c.1 3.6.6 7.1.5 10.7-.1 5.1-.8 10.1-.8 15.2 0 4.6.8 9.2.8 13.9 0 5.9-.5 11.9-.9 17.8v.9l.9.4c.5-.8 1.1-1.5 1.8-2.2 1-.8 2-1.6 3-2.3.8-.6 1.7-1.2 2.7-1.7-.4-8.3 1.9-16.8 6.4-23.8-1.4-14.5 4.9-29.7 18.9-38.1 14.4-8.7 31.3-12.6 48.1-12 8.8.3 17.5 1.4 26.3 1 4.7-1 9.2-2.5 13.7-4.2 10.2-4.6 20.2-9.6 30.8-13.5l-5.4 2.3c6-2.5 11.9-4.8 18.2-6.6l3.6-1c-.1-.8-.1-1.6-.2-2.5-.6-8.5.4-16.2 1.6-24.8.6-3.3 1.1-5.8 1.6-8.2zm-128.9-123.1c-2.1-2.3-4.1-4.7-6.3-6.9-2.1-2.2-4.1-4.4-6.9-5.9-2.1-1.1-3.6-3.7-5-5.8-2.1-3.1-3.9-6.2-7.6-7.7-.4-.2-.5-1.2-.7-1.8 3 .8 6 1.8 7.6 4.9.4.7 1.3 1.1 2 1.6 3.8 2.4 6.8 5.5 9.1 9.4 1.3 2.3 3.5 4.1 5.2 6.2 1.3 1.7 2.5 3.5 3.7 5.3.2.3.1.7.2 1.1-.5-.2-1.1-.2-1.3-.4zm53 134.6c.3-.8.4-1.7.9-2.2 1.1-1.3 2.3-2.6 3.7-3.6 4-2.7 8.2-5.1 12.3-7.6.6-.3 1.4-.3 2.1-.4 0 0 .1.4.2.6l-.9.8c-1.4.9-2.9 1.8-4.3 2.8-4 2.9-7.9 5.9-11.8 8.9-.6.3-1.5.4-2.2.7zm31-14.1l.3.4-1.4.8c-1.9 2.9-3.6 5.9-5.7 8.6-4.8 6.1-7.6 12.9-8.6 20.6 2.6-1.4 5.2-3 7.9-4.2 3.9-1.7 7.7-3.8 12.2-3.9 1.9 0 3.8-1.3 5.5-2.4 2-1.3 4-2 6.4-1.4.7.2 1.5.1 2.2.2.7 0 1.3 0 2 .1l-1.2 1.8 10.7 2.7c.2.1.5.5.5.7 0 .2-.4.5-.7.5-1.2 0-2.4.2-3.5-.3-2.4-1-4.7-2.4-7.1-3.6-3.4-.9-6.5-.6-9.4 1.5-.6.4-1.5.8-1.7 1.4-.5 1.4-.7 2.8-1.9.4 0-.1-1.4.3-1.9.7-.6.7-.9 1.6-1.3 2.5 0-1.5-.5-2.3-2.1-1.5l-3.2 1.5c-5 2.1-10 4.3-15.1 6.4-.5.2-1.5 0-2-.3-.3-.2-.2-1.2 0-1.7l4.5-11.3c.9-2.2 1.7-4.4 2.9-6.4 2.1-3.4 4.3-6.7 6.7-9.9.9-1.2 2.5-1.8 3.8-2.6.5-.5.9-.9 1.2-1.3zm-32.2-14.1c0-.7.7-1.3 1.1-2 .2.8.7 1.5.7 2.3-.1 4.6-1 9.3.8 13.8v1.3c.9-.1 2 .2 2.7-.2 6.8-3.5 13.6-7.1 20.3-10.6.4-.2.7-.6 1.1-.6.8-.1 1.6 0 2.4.1-.4.6-.7 1.5-1.3 1.8-7.2 3.9-14.4 7.8-21.7 11.6-3.3 1.7-5.8.2-6-3.5-.1-4.8-.1-9.4-.1-14zm-44.5-75c1.8 4.1 3.2 8.3 5 12.3.6 1.3 1.9 2.6 3.2 3.3 6.8 4 14.2 5.5 22 5.7 3.8.1 3.6.3 4.6 4.1 2.2 8.3.3 16.5-.2 24.8-.2 2.9 0 5.8.4 8.7.9 6.6 1.9 13.2 2.9 19.8.5 3.1 1.1 6.2 1.5 9.2.1.5-.4 1.2-.6 1.7-.4-.5-1.1-.9-1.2-1.4-.6-3.7-1.1-7.4-1.7-11.2-1.1-6.6-2.2-13.2-3.4-19.8-.3-1.6-.5-3.2-.6-4.2.6-5.1 1.5-9.6 1.7-14.1.2-4.2-.4-8.4-.7-12.6-.1-1.9-1.3-2.8-3.2-3-3-.2-6.1-.2-9-1-4.7-1.3-9.6-2.7-13.9-5-2.5-1.4-4.2-4.5-5.6-7.3-1.8-3.5-2.9-7.4-4.4-11.1-1.2-3.2-2.1-3.6-5.5-3-.5.1-1-.1-1.5-.2.2-.6.2-1.3.5-1.7 1.5-1.7 4.6-1.5 6.3.5 1.6 1.8 2.6 3.6 3.4 5.5zm-34.1 130.5c-.2.6-.7 1-1 1.5-.5-.5-1-.9-1.4-1.4l-.3-1.2c-.2-.4-.5-.8-.8-1.2-.4.3-1 .6-1.2 1-.3.8-.4 1.7-.5 2.5-.1 1.8-.9 2.5-2.8 2-2.7-.7-4.4-2.5-4.2-4.5.2-1.9 2.1-2.9 5.5-2.7.9-.2 1.9-.4 2.7-.7 2.8-1 3.7-.4 3.9 2.5.3.7.3 1.5.1 2.2zM157.6 258.6l-.8.8-.3-.4c.4-.1.8-.3 1.1-.4zM349.7 323.4c.1-.1.2-.1.2-.2l-.2.2zM337.7 312.5c-.1-.1-.2-.3-.2-.4-.1.1-.3.3-.3.4 0 .1.1.3.2.4.1-.2.2-.3.3-.4zM257.5 171.3l.3.4c.1 0 .3-.1.4-.2l-.3-.4c-.1-.1-.2.1-.4.2zM243.1 353.3l.2-.1-.2-.1zM345.6 311.4l-.2-.1v.2zM260.2 243.6c-1.3-3.6-2.6-7.3-4-10.9-3.9-10-8.1-20-11.6-30.1-2.8-8.1-6.7-15.6-10.7-23.1-1.8-3.4-4.8-4.5-7.9-4.6-5.8-.2-11.6.3-17.4.5-10.1.3-20.3 1-30.4.6-6.7-.3-12.8 1.5-19.1 2.7-.3.1-.5.1-.7.2-.2.5-.3 1-.5 1.4.1.2.2.4.4.6 1.6 1.3 1.6 3 1.3 4.7-1.5 8.9-1.5 17.8-1.4 26.8.3 12.8.4 25.7.9 38.5.6 13.7 1.6 27.4 2.3 41.1.4 8 .4 16 .7 23.9 0 .4.4.8.6 1.3.2-.4.5-.7.5-1.1l.9-11.9c.1-.8.1-2.3.4-2.4 2.9-.6 2.3-3 2.7-4.8.3-1.4.6-2.8 1.2-4 1.7-3.4 3.4-6.8 3-10.9-.1-.8.4-1.7.6-2.5l3.6-15.4c.4-1.8.3-3.2-2-3.5-2.2-.3-3.8-.3-4.3 2.4-.8 4.1-1.8 8.2-2.4 12.4-.5 3.3-.4 6.7-.6 10-.2 4-.3 7.9-.6 11.9 0 .6-.6 1.3-.9 1.9-.3-.6-.7-1.3-.8-1.9-.2-5.9-.5-11.9-.6-17.8l-.2-43.3c-.1-6.8-.6-13.6-.4-20.4.3-10.2 1-20.5 1.5-30.7.1-1.5-.2-2.6-1.8-3-.3-.1-.5-.3-.8-.5l.8-.3c3.2-.4 6.5-1 9.7-1.1 4.5-.1 9 .4 13.5.4 6 0 12.1-.3 18.1-.5l19-.8c3.1-.1 4.2 1.5 3 4.3-.5 1.1-1.4 2.1-2.3 3-.4.4-1.1.4-1.7.5l.7-1.5 1.2-3.5c-1.1-.3-2.2-.8-3.3-.7-7.2.2-14.4.4-21.6.7l-3.9.1c-6 .4-12 .5-18 1.3-2.5.3-4.8 1-7.2.1-1.6-.6-2.8 0-3 1.9-.6 6.2-1.6 12.4-1.8 18.7-.2 11 .1 22 .3 33 .1 5.7.4 11.4.7 17.1 0 .6.5 1.3.8 1.9.3-.5.8-1 1-1.6 1-4.1 2.1-8.1 2.7-12.3.9-6.1 1.6-12.2 2-18.3.6-8.8.9-17.7 1.3-26.5.2-3.3.5-6.7.8-10 0-.4.6-.8.9-1.2.2.4.6.8.7 1.3.1.5-.1 1.1-.1 1.6-.5 7.6-1.3 15.3-1.3 22.9-.1 14.3-1.5 28.4-4.9 42.4-.8 3.1-.2 3.9 3.1 4 6 .2 12 .4 18 .5l24.5.1c2.3 0 3-.8 2.7-3.1-.6-5-1-10.1-1.4-15.1-.1-2-.8-4.2 1.2-5.7.2.6.5 1.2.5 1.8.4 7.5.8 15 1.2 22.6 0 .4.1.8.2 1.2l.9-.8c1.9-1.8 1.6-4.1 1.5-6.4-.3-5.9-.5-11.8-.7-17.7 0-.5.4-1.1.7-1.6.2.5.5.9.6 1.4.4 5.9.7 11.8 1 17.7.1 1.2.5 2.4.8 3.6.4-1.2 1.1-2.5 1-3.7-.5-8.1-1.2-16.1-1.8-24.2-.8-11.1-1.6-22.1-2.1-33.2-.1-2.3-1.6-5.9 2.9-6.5.4 0 .7-.8 1-1.2l4.2-7.5c.2-.4.6-.8 1-1.2.3.4.8.8.8 1.2.2 4.8 3.3 8.2 5.6 12 .4.6.6 1.4.9 2.1 2.7 7.6 5.5 15.2 8.2 22.9.2.6.4 1.3.8 1.8 3.5 4.2 4.5 9.4 5.9 14.5.2.7.3 1.5.7 2.1 1.8 2.6 3.7 5.2 5.6 7.8.2.3.6.5.9.7.1-.5.1-.8 0-1.1zm-42.2-8.4c-.2-1.3-.2-2.7-.8-3.8-2.9-5.6-2.3-11.7-2.7-17.7l-1.5-17.3c-.3-3.7-.4-7.3-.4-11 0-.5.6-1.5.8-1.5.8.2 1.9.5 2.1 1 .5 1.2.6 2.5.6 3.8.1 7-.3 14.1.2 21.1.5 7.6 1.8 15.2 2.8 22.8.1 1.2.8 2.4-1.1 2.6zM186.2 337.3c0 3.4-.1 6.8-.2 10.3v7.1l-.1 7.6c0 1.2.3 2.4.3 3.5.2 9.5.3 18.9.7 28.4.3 8.9 1 17.9 1.5 26.8l1 16.3c6.3-.4 13-.3 18.7 1.5-.3-2.8-.5-5.7-.5-8.6 0-6.8.3-13.6.4-20.4 0-5.1-.2-10.1-.1-15.2 0-8.5.2-17 .1-25.5 0-6.9-.6-13.8-.2-20.7.3-5.3 1.3-10.6 1-16-.7-11.7-.8-23.5-1.2-35.2-.3-8.3-.8-16.5-1.2-24.8-.1-2.4-.2-4.7-.5-7.1-.1-1.5-.7-2.4-2.4-3-4.8-1.7-9.7-1.1-14.6-1.5-2.2-.2-3.3 1.3-3.3 3.8l.1 20.7c.1 10.8.6 21.5.5 32.3 0 4.1.2 8.2-.9 12.2-.4 1.6.2 3.6.4 5.4.1.8.5 1.4.5 2.1zM248.9 248.2c-.8 0-1.5.2-2.3.1-.7 0-1.4-.2-2.1-.3.5-.8.9-1.9 1.6-2.2.9-.4 2.1-.1 3.1 0 .6.1 1.2.8 1.7.7 5.7-.6 7.4 3.4 8.6 7.6.7 2.3.8 4.8 1.2 7.2 0 .3.1.7.3.9 4.4 5.5 6.4 12.2 9.3 18.4 1.4 2.9 2.2 6 3.4 9 .8 2.1.9 3.7-1 5.5-3.9 3.7-3.9 5.8-.7 10 .5.7.9 1.5 1.2 2.3.4 1.3.1 1.9-1.5 2-1.9.2-3.8 1-5.7 1.4-.9.2-2 .4-2.7.1l-16.2-7.8c-3-1.4-6.1-2.6-9.2-3.8-1.8-.7-2.9-1.7-3-3.7-.4-7.6-.8-15.3-1.3-22.9-.1-2.4.6-3.6 3.2-3.7 5.4-.2 10.7-.5 16.1-.8.5 0 1.1-.1 1.4-.5 2.2-2.1 3.7-13.3 2.1-16.2-1.9-3.5-2-3.5-7.5-3.3zM231.5 171.3c-2.7-2.9-9.1-3.3-12.6-1-.7.4-1.6.5-2.4.7.4-.9.5-2.1 1.1-2.8 2.7-2.6 7.4-3.2 10.9-1.5 1.3.6 2.5 1.2 3.8 1.7-.5-.8-.9-1.8-1.6-2.3-2.5-1.8-5.2-3.4-7.8-5.1-.4-.3-1-.6-1.5-.7-5-.7-10-1.6-15-1.8-4.6-.1-9.2.5-13.8 1-1.5.2-3.1.6-4.4 1.3-4.1 2.4-8 5.1-13.2 3.9-1.5-.3-3.2.1-4.8.2-.9 0-1.8.2-2.6 0-.6-.2-1.1-.8-1.7-1.2.6-.5 1.1-1.3 1.7-1.6.6-.3 1.5-.2 2.2-.2l8.7.5c.6 0 1.2-.5 1.8-.8-.6-.4-1.1-1-1.7-1-3-.2-6-.1-9-.4-1.2-.1-2.4-.9-3.6-1.4-1.6-1.1-1.4-2.6-.8-4 .8-1.6 2.2-1.8 3.8-1.6 2.9.2 5.8.3 8.7.3 1.7 0 3.1-1.2 2.7-2.9-.2-.8-1.8-1.6-2.9-1.8-1.3-.2-2.8.3-4.2.3-6.6.3-5.8 1.7-4.8-5.2.5-3.9 2.2-7.7 6.3-9.1 2.7-.9 5.7-.8 8.6-1.1 2-.2 3.4 1 3.6 2.9l-.2 5.1c.1 1.1.5 3 1.1 3.2 2.3.6 4.2 1.4 5.6 3.5.3.5 1.3.7 2 .7 6.7.1 13.3.2 20 .2.4 0 .8-.4 1.3-.7-.5-.2-.9-.6-1.4-.6-4.1 0-8.2.5-12.3.1-9.4-.7-8 .9-8.2-8.4-.1-4.1 1.5-6 5.7-6.2 6.2-.4 12.8-1.7 16.6 5.3.1.2.5.2.8.4.1-.4.5-.8.4-1.1-1.2-2.1-2.2-4.7-4.9-5.2-4.4-.8-8.9-1.6-13.4-2.1-2.4-.3-3.9-1.1-4.3-3.5-.2-1.1-.4-2.2-.3-3.2.2-1.7-.6-2.5-2.1-2.6-2.4-.3-4.9-.7-7.3-.7-3.1 0-5.6-.7-5.9-4.4 0-.3-.3-.6-.4-.8-.1.3-.4.6-.4 1-.2 3.3.9 4.8 4.1 5.5 3.7.8 3.7.8 3.7 4.7v1.6c-.1 2.2-.8 3.7-3.5 3.6-1.9-.1-3.9.4-5.8.5-6.3.4-9.4 2.8-10.9 8.9-.5 1.9-.9 3.8-.9 5.7 0 2.1-.5 3.8-1.8 5.3-.7 7.2-2.2 14.2-4.3 21.3 1.4.4 2.8.1 3.7-1.6 2.5-5.1 9.2-6.7 13.9-3.4 2.6-1 5.2-2.1 7.8-2.9 2.6-.8 5.2-1.5 7.8-2 5.2-1.1 9 2 13.1 4.3 1.4.9 2.7 2.1 3.9 3.3.3.3.3.9.4 1.4l-1.2.1c-4.8-.2-9.6-.6-14.4-.6-5.7 0-11.4.6-17.1.5-3.3 0-1-2.2-.9-3.4-2.9.4-5.8.6-8.6 1.3-.8.2-1.3 1.7-2 2.7.9.2 1.8.5 2.7.6.8.1 1.7-.1 2.6-.1 6.6.2 13.1.4 19.7.5 1.7 0 3.4-.2 5.2-.3 7.4-.3 14.8-.6 22.2-.8 3.7-.1 7.4-2 11 .4.6.4 1.5.2 2.3.3-.1-1.1-.1-2.1-.6-2.7zm-24-7.4c-1 0-1.9-.2-2.8-.5-.4-.1-.7-.7-1-1.1.4-.3.8-.9 1.2-.9 4.4.3 8.8.6 13.2 1 .3 0 .5.7.8 1.1-.7.3-1.4.7-2.2 1l-.1-.6c-3.1 0-6.1.1-9.1 0zM231.1 226.1v-29.6c0-.8-.7-1.6-1-2.4-.4-1.6-1.2-3.2-1-4.8.1-1.5 1.7-2 2.9-.9.9.8 1.6 2.1 2.1 3.2 4 10.3 8 20.7 12 31.1 1.1 2.9 2.1 5.9 3 8.9.3.9 0 2.2-.4 3-2.8 5.3-7.6 8.7-12.2 12.1-.8.6-1.8 1.2-2-.6-1.3-6.9-2.4-13.9-3.4-20zM238.7 242.2v.2h.2zM233.9 326.5v-20.2c0-1.1.2-2.1.5-3.2.5-1.8 1.6-2.4 3.4-1.6l2.7 1.2 19.8 9.5c.6.3 1.2.8 1.8 1.2-.6.6-1.1 1.3-1.8 1.7-4.9 2.6-9.8 5.2-14.3 8.8-3.1 2.4-6.9 4-10.3 5.9-1.2.7-1.9.3-2.1-1l-.2-2.2c.2-.1.3-.1.5-.1zM262 248.9c.4.6 1 1.1 1.3 1.8 1.3 2.8 2.6 5.7 3.8 8.6 3.6 8.7 7.2 17.5 10.7 26.3 2 5 3.4 10.2 5.5 15.1 2.7 6.4 5.9 12.6 8.8 19 2.8 6.3 5.6 12.6 8.3 18.9.2.6 0 1.4-.1 2.1-.4-.5-1-.9-1.3-1.5l-11.3-21.7-4.8-8.4c-1.7-3.2-4.3-5-7.8-5.7-2.7-.5-3.6-2.6-2.3-4.9.2-.3.3-.6.6-.8 4.8-3.5 3.8-7.6 1.7-12.2-1.9-4-3.1-8.3-4.8-12.3-.9-2-2.6-3.7-3.4-5.8-1.1-3.1-1.6-6.4-2.5-9.6-.7-2.6-1.7-5.1-2.6-7.6l-.3-.9c-.1-.1.2-.2.5-.4zM179.7 315.7c-.1-2.3 0-4.7-.3-7-.1-1-.8-1.8-1.2-2.8-.6.7-1.4 1.3-1.9 2l-8.3 11.5c-.3.4-.7.6-1.1.9-.1-.5-.4-1-.3-1.5.3-3.8 1.5-7.4 3.6-10.6 2.5-3.7 4.4-7.8 8.2-10.7 3.2-2.4 1.8-6.5 1.8-9.7 0-8-.7-15.9-.9-23.9 0-.9.9-2.5 1.6-2.6 1.7-.3 2 1.2 2 2.6.2 10.3.9 20.7.4 30.9-.4 7.2-2.3 14-3.6 20.9zM202.1 111.4c-.1.6-.2 1.3-.3 2.1-.4 4.3-1.7 5.4-5.9 5.3l-8.4-.3c-3.3-.1-5.3-2.4-5-5.7l.4-2.6c.5-4.2 2-5.5 6.2-5.6 2 0 4.1-.3 6.1-.2 4.7 0 6.9 2.3 6.9 7zM215.5 266.8c-.1-1.3-.2-2.6-.2-3.9 0-.5.2-1.1.4-1.6.3.4.9.8 1 1.3 1.5 5.3 3 10.5 4.6 15.8.3 1.1 1.3 2.1 1.9 3.1-.1-1.2-.2-2.4-.4-3.6l-1.4-7.3c-.3-2 1.7-5.5 3.7-6.3.2-.1 1.2.6 1.2 1 .4 3.8.4 7.7 1 11.5.4 2.4-2.3 1.8-2.4 3.2-.2 1.7 2.8-.6 2.6 2-.2 3 .3 6 .4 9 .1 1.8-.8 2.5-2.4 1.6-3.4-1.8-6.7-3.7-6.7-8.3 0-.5-.4-1.3-.6-1.3-2.9.2-1.9-2-2-3.3l-.8-12.9h.1zM226.3 290.8v.2l.1-.1zM135.6 307.2c3 1.4 5.8 1.6 9.2.4 2.5-.9 5.6-.4 8.4-.3.4 0 1.1.7 1.3 1.2.6 2.1-2.1 5.6-4.3 5.8l-20 1.4c-2.8.2-3.6-1-2.7-3.6 1.3-3.6 3.6-5 8.1-4.9zM182.3 362.3c-1-4.2-2.1-8.3-2.9-12.5l-1.5-11.5c-.1-.8-1.5-1.8-2.3-1.9-2.7-.3-5.4-.2-8-.3-1.2 0-2.7.2-1.3-1.8.3-.4.3-1 .4-1.5.8-4.6 2.4-5.8 7.1-4.8 2.8.6 4.8-.9 5.2-3.7.2-1.9.1-3.9.2-5.8.1-.9.3-1.8.5-2.7 1.9 2.9.3 6.1.8 9.1.1.8 0 1.8.4 2.3 2.8 3.1 2.6 6.8-.2 10-1 1.1-1 3.4-.9 5.1.6 5.8 1.5 11.5 2.2 17.3.3.8.3 1.8.3 2.7zM197.3 141.3c-.6-4.4 1.9-5.8 6.4-5.7 1.4 0 2.8.3 4.2.4 5.3.1 8.7 2.9 9.5 8.2.1.5-.9 1.6-1.4 1.7-4.6.2-9.2.4-13.8.4-4.2-.2-4.9-1-4.9-5zM242.7 254.1c-1.6 0-3.2-.1-4.8 0-.8.1-1.6.7-2.4 1.1.7.4 1.4 1 2.1 1.1 1.9.2 3.9.2 5.8.2 1.2 0 2.4-.3 3.5-.3 6.4-.3 6.3-.3 6 5.9-.1 1.9-.5 2.1-2.4 2.1-4.3 0-8.6.6-12.9.8-1.2 0-2.5-.7-3.7-1.1 1.1 0 2.2 0 3.4-.1 4.1-.2 8.2-.4 12.3-.7.6 0 1.1-.7 1.6-1.1-.6-.3-1.3-.9-1.9-.9-3.1.1-6.2.3-9.3.5-4.9.3-7.5-3.1-6-7.7.2-.5.7-1.3 1.1-1.3 4.2 0 8.4.1 12.6.2.6 0 1.1.4 1.6.6-.6.2-1.1.5-1.7.5-1.6.1-3.2.1-4.9.2zM185.7 139.8c-.2 1.3-.1 2.6-.5 3.8-.5 1.5-1.2 2.7-3.5 2.5-2.4-.2-4.9.4-7.4.6-3 .3-4-.9-3.1-3.8 1.3-4.3 4.1-6.6 8.6-6.7.6 0 1.3 0 1.9-.1 4-.3 4-.3 4 3.7zM170.7 302.7l1.7-12.7c.3-1.8.5-3.6.9-5.4.9-4.1 2-8.1 3-12.2.1-.3.3-.5.5-.8.1.3.3.5.3.8.3 5.2.2 10.5.9 15.7.8 6.8-3.3 10.6-7.3 14.6zM215.4 392.3v-21.3c0-.8-.2-1.6 0-2.2.4-1 1.1-1.9 1.9-2.6.3-.2 1.7.3 1.8.7.2 1.1.5 2.7 0 3.3-1.4 1.5-3.1 2.6-.8 4.7.1.1-.7 1-1 1.7-.3.6-.6 1.9-.6 2 3 1 2.7 3.8 2.8 6 .3 3.9.1 7.9.1 11.9 0 .7-.2 1.6-.6 2.1-.4.5-1.1 1-1.8 1-.3 0-1-.8-1.1-1.4-.2-1.8-.4-3.7-.7-5.9zM218.3 386.2l.1-.2-.2-.1zM242 180.8c4.9 2.3 7 7.2 10.4 10.9.7.7.8 2.5.5 3.6-.4 1.4-1.5 2.6-2.2 3.9-.8-1.1-1.8-2-2.3-3.2-2.2-5.1-4.3-10.2-6.4-15.2zM175.8 318.3v5.5c0 1.5-.8 2.1-2.3 1.9-1.7-.3-3.3-.6-5-.8.7-1.5 1.2-3.1 2.1-4.5 1.6-2.5 3.3-5 5-7.5.2-.3.6-.5 1-.7.1.5.2.9.2 1.4l-.6 4.8c-.3-.1-.4-.1-.4-.1zM277.6 314.3c-.3-.8-.4-1.9-.9-2.2-3.1-1.9.2-2.9.5-4.3 0 0 1.2-.1 1.5.2.8 1 1.5 2.1 2.2 3.2l4 6.2c.3.5.5 1.1.7 1.7-.6.2-1.2.5-1.7.6-3.1.5-6.6-2.3-6.3-5.4zM204.1 112.1l-1-7.3v-.9c.4 0 .9-.1 1.2.1.6.4 1.4.9 1.6 1.5 1.2 4.1 2.6 8.3 1.3 12.6-.2.7-.9 1.3-1.4 1.9-.5-.7-1.4-1.3-1.5-2.1-.3-1.9-.3-3.9-.3-5.8h.1zM136.6 318.5l10.7-1.9c1.4-.2 2.8-.2 4.2-.1.5 0 1.2.7 1.2 1.2 0 .4-.6 1.2-1 1.3-.9.3-1.9.3-2.9.4-4.7.2-9.4.4-14.1.5-1.6 0-3.2-.5-4.8-.7 1.6-.4 3.1-.8 4.7-1.1.6-.1 1.3 0 1.9 0 .1.1.1.3.1.4zM166.1 158.7c1.6-3.3 4-4.4 7.6-3.5 1.3.3 2.8-.1 4.1 0 .8.1 1.4.8 2.2 1.2-.7.5-1.3 1.4-2.1 1.4-3.9.5-7.8.6-11.8.9zM155.1 320.8c2.2 1.3 4.5 2.5 4.9 5.5.1 1.2 0 1.2-1.1.9-4.1-1.2-5.5 0-5.4 4.3 0 .4-.1.8-.1 1.1-.4-.3-.9-.6-1-1-.2-.6-.3-1.3-.1-1.9.8-3 1.8-5.9 2.8-8.9zM190.7 152.5c0 .2-.2.9-.4 1.7-.6-.4-1.1-1.1-1.8-1.2-1.5-.3-3.1-.4-4.6-.6-.4-.1-.7-.3-1-.5 1.3-1.3 2.3-3.3 3.8-3.9 2.6-.8 4 .8 4 4.5zM212.1 285.9v-22.8c0-.4.1-.8.2-1.2.1.4.3.9.3 1.3.4 4.7.8 9.4 1.1 14.1.1 1.2 0 2.4-.2 3.5-.3 3.1-.6 6.2-1 9.3 0 .4-.1.8-.2 1.2-.1-.4-.2-.8-.2-1.3v-4.2c.2.1.1.1 0 .1zM223.8 309.8c-3-2.5-6.3-4.7-4.9-9.5l.5-1.5c.4.4.9.8 1.1 1.3 1.2 3.3 2.3 6.5 3.3 9.7zM272.9 315.6c-2.3-.2-4.1-.3-4-2.6 0-.6 1.4-1.8 1.6-1.7 1.4.7 2.8 1.7 4.1 2.6-.6.7-1.3 1.3-1.7 1.7zM261.5 316.9c-4.1 2.9-8.2 5.9-12.4 8.8-.3.2-.7.1-1.1.1.1-.3.2-.7.4-.8 4.3-2.7 8.7-5.4 13.1-8.1zM187.8 157.1c-1.3 1-2.2 2-3.1 2.1-.7 0-2-1.3-2-1.9.1-.9 1.2-2.3 1.8-2.3 1 0 1.9 1.1 3.3 2.1zM247.2 241.7c.9-1 1.7-2.1 2.7-3.1 1.5-1.4 3.3-1 3.9.9.2.5.1 1.2-.1 1.8-.1.2-1 .2-1.4 0-1.8-.6-3.5-.9-5.1.4zM164.9 330.8c-.4 1.4-.9 2.9-1.4 4.3 0 0-.8-.1-.8-.2-.1-1.4-.1-2.9-.1-4.4 0-.4.1-.8.3-1.2.3-.8.6-1.5 1-2.3.2.9.4 1.8.5 2.7.1.3 0 .6 0 1 .2 0 .3 0 .5.1zM160 307.9c-.9 1.8-1.9 3.7-3 5.7-.1.2-.5.3-.7.5-.1-.3-.4-.6-.4-.8 1-2.2 2-4.4 3.1-6.6.1-.2.5-.2.8-.3 0 .4.1.8.2 1.5zM215.1 360.6c.6-.9.8-1.3 1-1.7 1.1.9 2.2 1.8 3.4 2.7-.7.5-1.8 1.6-2.1 1.5-.9-.6-1.6-1.6-2.3-2.5zM239.2 331.7c-.3-.1-.7-.2-.7-.2.1-.4.1-1 .4-1.1 2-1.2 4.1-2.3 6.2-3.4.2-.1.4 0 .6 0 0 .2 0 .5-.1.5-2.2 1.4-4.3 2.8-6.4 4.2zM217.5 313.6c-.1.6-.1 1.5-.2 2.4-.3-.9-.8-1.8-.9-2.8-.2-1.5-.3-3-.4-4.5l.1-1.2c.2.3.6.6.6 1 .3 1.6.5 3.2.8 5.1zM169.4 304.6l-2 2.9c.2-1.1.4-2.3.7-3.4.1-.3.1-.6.3-.9.2-.4.4-.8.5-1.1l.2 1.3.3 1.2zM159.1 316c.6 1 1.2 1.5 1.1 1.8-.1.8-.5 1.5-.8 2.2-.3-.3-.8-.7-.8-1-.1-.8.2-1.6.5-3zM182.2 342.5l.9-1.7c.1.8.4 1.6.4 2.4 0 .5-.3 1.1-.4 1.6-.3-.6-.6-1.3-.9-2.3zM214.7 288.6l.1.9c0 .4-.1.7-.2 1l-.4-.8c-.1-.4-.1-.8-.1-1.3-.1-.9-.1-1.8-.2-2.8l1.1 2.7c-.1.3-.2.3-.3.3zM155.1 320.8l.3-3.6c.2 0 .4.1.5.1-.2 1.2-.5 2.4-.8 3.5zM269.2 318.4c-.4.2-.8.4-1.2.4-.3 0-.6-.3-.9-.5.2-.3.4-.7.7-.9.2-.1.6.2 1 .3.1.2.2.4.4.7zM159.6 333c-.4-.9-.7-1.3-.7-1.5.2-.4.6-.8.9-1.1.1.2.4.5.4.7-.1.5-.3.9-.6 1.9zM249.3 250.9c-.5-.2-.9-.3-1.3-.4.6-.2 1.3-.4 1.9-.5.3 0 .5.1.8.2-.4.3-1 .5-1.4.7zM163.9 320.4c-.6.1-1 .3-1.3.2-.2-.1-.4-.4-.5-.7.4-.2.7-.4 1.1-.4.2 0 .3.4.7.9zM208.9 265.7c-.2-.3-.4-.5-.5-.8-.1-.7-.1-1.4-.1-2.1 0 0 .2-.1.3-.1.1.7.2 1.4.2 2.1.1.3.1.6.1.9zM201.2 121.1c-.6.1-1.1.3-1.6.4-.1 0-.2-.3-.2-.5l1.5-.4c.1 0 .2.3.3.5zM157.5 335.4c-.5.3-.8.5-1 .6-.3.1-.6-.1-.8-.1.2-.2.5-.4.7-.5.2-.1.5 0 1.1 0zM156.6 329.2c.2.2.4.4.4.5-.1.3-.3.5-.5.7-.2-.2-.5-.4-.4-.5 0-.3.3-.4.5-.7zM219.8 142.7c-.1.3-.2.4-.2.6l-.4-.7c0-.1.1-.3.2-.5l.4.6zM238.7 250.4c.1.1.2.2.3.4l-.2.2c-.2 0-.4-.1-.5-.1l.4-.5zM243.5 251c-.2-.1-.4-.2-.5-.3l.4-.3c.1 0 .3.1.3.1-.1.2-.1.4-.2.5zM180.2 111c-.2 0-.3 0-.5.1 0-.1-.1-.2 0-.3l.4-.3c0 .1 0 .3.1.5zM152.6 335.7c-.1.1-.3.1-.4.1l-.1-.2c0-.1.1-.2.1-.2.1.1.2.2.4.3zM215.5 303.6v.3l-.4-.2c.1-.1.1-.2.2-.2s.2.1.2.1zM182.8 318.3l-.2.2-.1-.3c0-.1.1-.1.2-.2.1.1.1.2.1.3zM182.3 362.4l.4 1.2c-.1-.5-.2-.9-.4-1.2zM220.9 148.5v.3l-.4-.2c.1-.1.1-.2.2-.2 0 0 .1.1.2.1zM167 259.5v-.4c.1 0 .2 0 .2.1-.1 0-.1.1-.2.3zM224.5 260c.1 0 .2 0 .2.1v.3l-.4-.2c0-.1.1-.2.2-.2zM217.3 320.9l.1.3-.4.1v-.3c.1 0 .2 0 .3-.1zM242 180.7l-.8-.9c.3.4.5.7.8.9zM221.7 144.5l-.2.2c0-.1-.1-.2-.1-.2.1-.1.2-.2.3-.2v.2zM169.9 298.3l-.2.2c-.1-.1-.2-.2-.1-.2l.3-.3c-.1.1 0 .2 0 .3zM211.8 350.3h.1l-.1.2zM215 295.8h.2l-.2.2zM266.7 315l-.6-.4h.2c.1.1.2.3.4.4zM182.7 162h.3l-.1.2zM180.6 107.7l.2.1-.1.1zM215.2 298.5h-.2l.1-.2zM240.7 246.9l.2-.2-.2.2zM247.2 241.7l-1.3.6 1.3-.6zM245.2 243zM259.5 246.9zM259.5 246.9zM240.7 246.9zM245.2 243c.2-.2.4-.4.6-.7-.1.3-.3.5-.6.7zM177.1 169.1c.2-.2.4-.4.7-.6l-.7.6zM232.3 168.4zM224.5 310.5zM169.4 304.6zM135.6 307.2zM170.7 302.7zM224.5 310.5c-.2-.2-.4-.4-.7-.6.3.1.5.4.7.6zM219.3 308.5zM212.2 348.1zM218 329.9c.2-.2.4-.4.6-.7-.2.3-.4.5-.6.7zM266.6 315zM261.5 317z"/><path d="M292.5 264.8c.6-5.1 1.5-9.6 1.7-14.1.2-4.2-.4-8.4-.7-12.6-.1-1.9-1.3-2.8-3.2-3-3-.2-6.1-.2-9-1-4.7-1.3-9.6-2.7-13.9-5-2.5-1.4-4.2-4.5-5.6-7.3-1.8-3.5-2.9-7.4-4.4-11.1-1.2-3.2-2.1-3.6-5.5-3-.5.1-1-.1-1.5-.2.2-.6.2-1.3.5-1.7 1.5-1.7 4.6-1.5 6.3.5 1.3 1.5 2.3 3.4 3.1 5.2 1.8 4.1 3.2 8.3 5 12.3.6 1.3 1.9 2.6 3.2 3.3 6.8 4 14.2 5.5 22 5.7 3.8.1 3.6.3 4.6 4.1 2.2 8.3.3 16.5-.2 24.8-.2 2.9 0 5.8.4 8.7.9 6.6 1.9 13.2 2.9 19.8.5 3.1 1.1 6.2 1.5 9.2.1.5-.4 1.2-.6 1.7-.4-.5-1.1-.9-1.2-1.4-.6-3.7-1.1-7.4-1.7-11.2-1.1-6.6-2.2-13.2-3.4-19.8 0-1.3-.2-2.9-.3-3.9zM356.8 321.5c-3.4-.9-6.5-.6-9.4 1.5-.6.4-1.5.8-1.7 1.4-.5 1.4-.7 2.8-1.9.4 0-.1-1.4.3-1.9.7-.6.7-.9 1.7-1.3 2.5 0-1.5-.5-2.3-2.1-1.6l-3.2 1.5c-5 2.1-10 4.3-15.1 6.4-.5.2-1.5 0-2-.3-.3-.2-.2-1.2 0-1.7l4.5-11.3c.9-2.2 1.7-4.4 2.9-6.4 2.1-3.4 4.3-6.7 6.7-9.9.9-1.2 2.5-1.8 3.8-2.6-1.9 2.9-3.6 5.9-5.7 8.6-4.8 6.1-7.6 12.9-8.6 20.6 2.6-1.4 5.2-3 7.9-4.2 3.9-1.7 7.7-3.8 12.2-3.9 1.9 0 3.8-1.3 5.5-2.4 2-1.3 4-2 6.4-1.4.7.2 1.5.1 2.2.2.7 0 1.3 0 2 .1-.4.5-.8 1.1-1.2 1.8zM307.5 302c.9-.1 2 .2 2.7-.2 6.8-3.5 13.6-7.1 20.3-10.6.4-.2.7-.6 1.1-.6.8-.1 1.6 0 2.4.1-.4.6-.7 1.5-1.3 1.8-7.2 3.9-14.4 7.8-21.7 11.6-3.3 1.7-5.8.2-6-3.5-.2-4.6-.2-9.2-.2-13.8 0-.7.7-1.3 1.1-2 .2.8.7 1.5.7 2.3-.1 4.6-1 9.3.8 13.8.1.3.1.7.1 1.1zM226.4 152.2c3 .8 6 1.8 7.7 4.9.4.7 1.3 1.1 2 1.6 3.8 2.4 6.8 5.5 9.1 9.4 1.3 2.3 3.5 4.1 5.2 6.2 1.3 1.7 2.5 3.5 3.7 5.3.2.3.1.7.2 1.1-.4-.1-.9-.1-1.2-.4-2.1-2.3-4.1-4.7-6.3-6.9-2.1-2.2-4.1-4.4-6.9-5.9-2.1-1.1-3.6-3.7-5-5.8-2.1-3.1-3.9-6.2-7.6-7.7-.5-.1-.6-1.2-.9-1.8zM237.5 161.9zM219.8 338.1c.9-.2 1.9-.4 2.7-.7 2.8-1 3.7-.4 3.9 2.5 0 .7.1 1.5-.1 2.2-.2.6-.7 1-1 1.5-.5-.5-1-.9-1.4-1.4l-.3-1.2c-.2-.4-.5-.8-.8-1.2-.4.3-1 .6-1.2 1-.3.8-.4 1.7-.5 2.5-.1 1.8-.9 2.5-2.8 2-2.7-.7-4.4-2.5-4.2-4.5.4-2 2.3-3 5.7-2.7zM325.4 301.7l-.9.8c-1.4.9-2.9 1.8-4.3 2.8-4 2.9-7.9 5.9-11.8 8.9-.6.4-1.4.5-2.1.7.3-.8.4-1.7.9-2.2 1.1-1.3 2.3-2.6 3.7-3.6 4-2.7 8.2-5.1 12.3-7.6.6-.3 1.4-.3 2.1-.4-.1-.1 0 .3.1.6zM218 329.9c.2-.2.4-.4.6-.7l1.2 1.1c2.5 2.2 2.4 3.4-.2 5.5-1.9 1.5-3.9 1.4-5-.4-1.1-1.7-.4-3.8 1.5-4.8.7-.3 1.3-.4 1.9-.7zm.9 4.2c-.2-.4-.3-.7-.4-1-.5.3-1 .6-1.4 1-.1.1.1.5.2.8.5-.2 1-.5 1.6-.8zM356.8 321.5l10.7 2.7c.2.1.5.5.5.7 0 .2-.4.5-.7.5-1.2 0-2.4.2-3.5-.3-2.4-1-4.7-2.4-7-3.6zM336 302l1.1-1.2.3.4c-.4.3-.9.6-1.4.8zM157.7 258.6c-.3.3-.5.6-.8.8l-.3-.4c.3-.2.7-.3 1.1-.4zM337.7 312.5c-.1.1-.2.3-.4.4-.1-.1-.3-.3-.2-.4 0-.2.2-.3.3-.4.2.1.3.2.3.4zM257.5 171.2c.1-.1.3-.2.4-.2.1 0 .2.2.3.4-.1.1-.3.2-.4.2-.1 0-.2-.2-.3-.4zM243.1 353.3v-.2l.2.1zM345.6 311.4l-.2.1v-.2zM307.5 300.7v1.3-1.3zM349.7 323.4l.2-.2-.2.2zM253 217.7zM349.7 323.4zM340.6 328zM218 235.2c-.2-1.3-.2-2.7-.8-3.8-2.9-5.6-2.3-11.7-2.7-17.7l-1.5-17.3c-.3-3.7-.4-7.3-.4-11 0-.5.6-1.5.8-1.5.8.2 1.9.5 2.1 1 .5 1.2.6 2.5.6 3.8.1 7-.3 14.1.2 21.1.5 7.6 1.8 15.2 2.8 22.8.1 1.2.8 2.4-1.1 2.6zM177.1 169.1c.2-.2.4-.4.6-.7 2.6-1 5.2-2.1 7.8-2.9 2.6-.8 5.2-1.5 7.8-2 5.2-1.1 9 2 13.1 4.3 1.4.9 2.7 2.1 3.9 3.3.3.3.3.9.4 1.4l-1.2.1c-4.8-.2-9.6-.6-14.4-.6-5.7 0-11.4.6-17.1.5-3.3 0-1-2.2-.9-3.4zm3.9 1.3c2.7.1 5.3.4 8 .4 5.1-.1 10.1-.3 15.2-.5.3 0 .7-.3 1-.6.1-.1-.2-.6-.5-.8-.5-.4-1.1-.7-1.6-1-7.9-3.9-15.2-3-22.1 2.5zM216.5 163.9h-9c-1 0-1.9-.2-2.8-.5-.4-.1-.7-.7-1-1.1.4-.3.8-.9 1.2-.9 4.4.3 8.8.6 13.2 1 .3 0 .5.7.8 1.1-.7.3-1.4.7-2.2 1-.1-.2-.2-.4-.2-.6zM238.7 242.2l.2.2h-.2zM226.3 290.8l.1.1-.1.1zM218.3 386.2l-.1-.3.2.1z"/><path fill="#fff" d="M321.8 331.2zM307.5 300.7v1.3-1.3zM237.5 161.9zM237.5 161.9zM218.9 334.1c-.6.3-1.1.6-1.6.9-.1-.3-.3-.7-.2-.8.4-.4.9-.7 1.4-1 .1.2.2.4.4.9zM181 170.4c6.8-5.4 14.1-6.4 22-2.5.6.3 1.1.6 1.6 1 .2.2.5.7.5.8-.3.3-.6.6-1 .6-5.1.2-10.1.4-15.2.5-2.5 0-5.2-.3-7.9-.4zM181 170.4z"/></svg>