<?xml version="1.0" encoding="utf-8"?>
<!-- Generator: Adobe Illustrator 17.1.0, SVG Export Plug-In . SVG Version: 6.00 Build 0)  -->
<!DOCTYPE svg PUBLIC "-//W3C//DTD SVG 1.1//EN" "http://www.w3.org/Graphics/SVG/1.1/DTD/svg11.dtd">
<svg version="1.1" xmlns="http://www.w3.org/2000/svg" xmlns:xlink="http://www.w3.org/1999/xlink" x="0px" y="0px"
	 viewBox="0 0 500 500" enable-background="new 0 0 500 500" xml:space="preserve">
<g id="Ebene_1">
</g>
<g id="Ebene_3">
	<g>
		<path fill="#1D1D1B" d="M117.7,105.6c-19.8,0-39,3.2-56.7,9.1v313.1c17.7,5.9,36.8,9.1,56.7,9.1c95.4,0,172.7-74.2,172.7-165.7
			S213.1,105.6,117.7,105.6z"/>
		<rect x="61" y="154" fill="#E62836" width="169" height="159"/>
		<ellipse fill="#1D1D1B" cx="356.7" cy="349.3" rx="35.1" ry="33.5"/>
		<polygon fill="#822836" points="337.3,302.2 308.5,278.5 295.7,312.6 287.1,277.3 255.7,297.8 270.5,264.3 232.5,263.3 265,244.5 
			234.9,222.3 272.8,225.4 262.1,190.6 290.9,214.3 303.7,180.2 312.3,215.5 343.7,195.1 328.9,228.5 366.9,229.6 334.4,248.3 
			364.4,270.5 326.6,267.4 		"/>
		<g>
			<polygon fill="#E62836" points="430.3,251.3 419.5,281.2 304.6,243.8 315,214.8 315.3,213.8 318.2,205.8 371.5,57 419.6,72.7 
				366.3,221.5 408.4,235.2 405.5,243.2 			"/>
			<polygon fill="#1D1D1B" points="396.6,288.4 303.1,257.9 308.1,244 401.5,274.5 			"/>
		</g>
	</g>
</g>
<g id="Ebene_4">
</g>
<g id="Ebene_2">
</g>
</svg>
