<?xml version="1.0" encoding="utf-8"?>
<!-- Generator: Adobe Illustrator 17.1.0, SVG Export Plug-In . SVG Version: 6.00 Build 0)  -->
<!DOCTYPE svg PUBLIC "-//W3C//DTD SVG 1.1//EN" "http://www.w3.org/Graphics/SVG/1.1/DTD/svg11.dtd">
<svg version="1.1" id="Ebene_1" xmlns="http://www.w3.org/2000/svg" xmlns:xlink="http://www.w3.org/1999/xlink" x="0px" y="0px"
	 viewBox="0 0 500 500" enable-background="new 0 0 500 500" xml:space="preserve">
<g id="Ebene_1_1_">
</g>
<g id="Ebene_4">
</g>
<g id="Ebene_2">
</g>
<g>
	<path fill="#1D1D1B" d="M117.4,108.6c-19.8,0-39.4,3.2-56.4,9.1v313.1c17,5.9,36.6,9.1,56.4,9.1c95.4,0,172.7-74.2,172.7-165.7
		C290.2,182.8,212.8,108.6,117.4,108.6z"/>
	<path fill="#7CB34B" d="M229.8,157c-7.5-14.4-168.8,0-168.8,0v159c0,0,156,3.9,168.9,0C236.2,322.7,237.3,171.4,229.8,157z"/>
	<polygon fill="#406127" points="336.8,305.3 308.1,281.5 295.3,315.7 286.7,280.4 255.3,300.8 270,267.4 232.1,266.3 264.6,247.6 
		234.5,225.4 272.4,228.5 261.7,193.6 290.5,217.4 303.3,183.2 311.9,218.5 343.3,198.1 328.5,231.5 366.5,232.6 334,251.4 
		364,273.5 326.2,270.5 	"/>
	<path fill="#1D1D1B" d="M396.1,291.4l-40.5-13.2l3.6,40.7c18,1.4,32.2,15.8,32.2,33.4c0,18.5-15.7,33.5-35.1,33.5
		c-19.4,0-35.2-15-35.2-33.5c0-15.2,10.6-28.1,25.1-32.2l-4.1-46.3l-39.5-12.9l5-13.9l93.5,30.5L396.1,291.4z"/>
	<path fill="#7CB34B" d="M429.9,254.3c6.7,6,8.1,11.7,9.5,17.2c-1.4,5.6-4.3,9.3-7,12.4c-2.8,3.1-8.9,1.8-13.3,0.4
		c-16.5-5.4-112.9-34.1-114.9-37.5c-2-3.4,10.4-29,10.4-29l0.4-1c0,0,3-6,2.9-8c14.6-19,53.3-148.8,53.3-148.8s44.5,13.3,48.1,15.7
		c3.6,2.4-47.5,140.4-53.3,148.8C360.1,233,410.4,236.9,429.9,254.3z"/>
</g>
</svg>
