<?xml version="1.0" encoding="utf-8"?>
<!-- Generator: Adobe Illustrator 17.1.0, SVG Export Plug-In . SVG Version: 6.00 Build 0)  -->
<!DOCTYPE svg PUBLIC "-//W3C//DTD SVG 1.1//EN" "http://www.w3.org/Graphics/SVG/1.1/DTD/svg11.dtd">
<svg version="1.1" xmlns="http://www.w3.org/2000/svg" xmlns:xlink="http://www.w3.org/1999/xlink" x="0px" y="0px"
	 viewBox="0 0 500 500" enable-background="new 0 0 500 500" xml:space="preserve">
<g id="Ebene_1">
	<g>
		<polygon fill="#1D1D1B" points="339.9,97.2 339.4,101.4 162.9,79.1 163.4,74.9 73,63.5 70.2,85.7 160.6,97.1 161.1,93 
			241.7,103.2 228,211.6 243.3,213.5 257,105.1 337.6,115.3 337.1,119.4 427.5,130.8 430.3,108.6 		"/>
		<polyline fill="none" stroke="#000000" stroke-width="4.2031" stroke-miterlimit="10" points="206.9,328.9 221.9,210.1 
			249.7,213.6 234.7,332.4 		"/>
		
			<rect x="213.7" y="226.3" transform="matrix(0.9921 0.1253 -0.1253 0.9921 43.2588 -25.0377)" fill="#1D1D1B" stroke="#1D1D1B" stroke-width="4" stroke-miterlimit="10" width="14" height="210.2"/>
		<path fill="#E62836" d="M399.1,360.8c0,0-88.4,17.3-105,1.1c-16.6-16.3-22-144-11-158.1c0.9-1.1,2-1.9,3.3-2.5l30.2-102.8
			l14.1,1.8l-29.5,100.4c21.5,3,57.4,15.4,94.6,4.1l-18.8-80.3l14.8,1.9l17.9,76.5C444.5,211.7,399.1,360.8,399.1,360.8z"/>
	</g>
</g>
<g id="Ebene_3">
</g>
<g id="Ebene_4">
</g>
<g id="Ebene_2">
</g>
</svg>
