<?xml version="1.0" encoding="utf-8"?>
<!-- Generator: Adobe Illustrator 17.1.0, SVG Export Plug-In . SVG Version: 6.00 Build 0)  -->
<!DOCTYPE svg PUBLIC "-//W3C//DTD SVG 1.1//EN" "http://www.w3.org/Graphics/SVG/1.1/DTD/svg11.dtd">
<svg version="1.1" id="Layer_1" xmlns="http://www.w3.org/2000/svg" xmlns:xlink="http://www.w3.org/1999/xlink" x="0px" y="0px"
	 viewBox="0 0 415 415" enable-background="new 0 0 415 415" xml:space="preserve">
<path fill="#1D1D1B" d="M321.5,165.4L210.8,88.7c-2.5-1.9-6-2.1-8.7-0.2l-108.9,77c-2.1,1.3-3.5,3.6-3.5,6.2v137.5
	c0,4,3.3,7.3,7.3,7.3h220.8c4,0,7.3-3.3,7.3-7.3V171.7C325.2,169,323.7,166.6,321.5,165.4z M206.4,103.4l98.5,68.2l-88.7,58.7
	l-4.7-3.2c-2.5-2-6-2.2-8.7-0.3l-4.7,3.3L110,171.5L206.4,103.4z M104.4,185.3l80.8,53.6l-80.8,56.2V185.3z M120.4,301.9l86.6-60.3
	l4.7,3.3c0.2,0.1,0.4,0.3,0.6,0.4l82.2,56.6H120.4z M310.6,295.3l-81.4-56.1l81.4-53.9V295.3z"/>
</svg>
