<?xml version="1.0" encoding="utf-8"?>
<!-- Generator: Adobe Illustrator 17.1.0, SVG Export Plug-In . SVG Version: 6.00 Build 0)  -->
<!DOCTYPE svg PUBLIC "-//W3C//DTD SVG 1.1//EN" "http://www.w3.org/Graphics/SVG/1.1/DTD/svg11.dtd">
<svg version="1.1" xmlns="http://www.w3.org/2000/svg" xmlns:xlink="http://www.w3.org/1999/xlink" x="0px" y="0px"
	 viewBox="0 0 500 500" enable-background="new 0 0 500 500" xml:space="preserve">
<g id="Ebene_1">
</g>
<g id="Ebene_3">
</g>
<g id="Ebene_4">
	<g>
		<g>
			<polyline fill="#1D1D1B" points="86.8,181.9 86.8,212.8 102.2,212.8 102.2,181.9 			"/>
			<polyline fill="none" stroke="#000000" stroke-width="4.2031" stroke-miterlimit="10" points="80.4,331.8 80.5,212 108.5,212.1 
				108.4,331.9 			"/>
			<rect x="87.4" y="227.5" fill="#1D1D1B" stroke="#1D1D1B" stroke-width="4" stroke-miterlimit="10" width="14" height="210.2"/>
		</g>
		<rect x="56" y="151" fill="#1D1D1B" width="77" height="31"/>
		<rect x="117" y="228" fill="#E62836" width="108" height="170"/>
		<path fill="#E62836" d="M431.3,278.2c0,0-50.6-72.3-55.4-79.8c-4.7-7.5-20.5-8-24.3-1.1c-3.8,6.9-43.7,79.5-43.7,79.5
			c-1.4,0.5-2.5,1.2-3.3,2.2c-10.9,12.2-5.5,123,11,137.2c16.6,14.1,105-0.9,105-0.9S466.1,285.9,431.3,278.2z M322.7,276.3
			c0,0,37.6-69.5,41.4-74c3.7-4.5,53.2,77.6,53.2,77.6C380.2,289.7,344.2,279,322.7,276.3z"/>
		<polygon fill="#822836" points="373,62 373,172 353,172 353,82 187,82 187,172 206.6,172 176.6,222 146.6,172 167,172 167,62 		
			"/>
	</g>
</g>
<g id="Ebene_2">
</g>
</svg>
