<?xml version="1.0" encoding="utf-8"?>
<!-- Generator: Adobe Illustrator 17.1.0, SVG Export Plug-In . SVG Version: 6.00 Build 0)  -->
<!DOCTYPE svg PUBLIC "-//W3C//DTD SVG 1.1//EN" "http://www.w3.org/Graphics/SVG/1.1/DTD/svg11.dtd">
<svg version="1.1" id="Ebene_1" xmlns="http://www.w3.org/2000/svg" xmlns:xlink="http://www.w3.org/1999/xlink" x="0px" y="0px"
	 viewBox="0 0 500 500" enable-background="new 0 0 500 500" xml:space="preserve">
<g id="Ebene_1_1_">
</g>
<g id="Ebene_3">
</g>
<g>
	<g>
		<polyline fill="#1D1D1B" points="92.8,184.5 92.8,215.4 108.2,215.4 108.2,184.6 		"/>
		<polyline fill="none" stroke="#000000" stroke-width="4.2031" stroke-miterlimit="10" points="86.4,334.5 86.5,214.7 114.5,214.8 
			114.4,334.5 		"/>
		<rect x="93.4" y="230.2" fill="#1D1D1B" stroke="#1D1D1B" stroke-width="4" stroke-miterlimit="10" width="14" height="210.2"/>
	</g>
	<path fill="#1D1D1B" d="M139,184.7H62c0,0-28-34.8,0.1-32.9c68.7,6.6,38.1,0.6,76.9,1.9C157.3,156.6,139,184.7,139,184.7z"/>
	<path fill="#7CB34B" d="M231,400.7c2.4,3.8-116.2,8.8-108,0c8.2-8.8-1.5-166.1,0-170s101.3-10.8,108,0
		C237.7,241.5,228.6,396.8,231,400.7z"/>
	<path fill="#7CB34B" d="M437.3,280.9c0,0-50.6-72.3-55.4-79.8c-4.7-7.5-20.5-8-24.3-1.1c-3.8,6.9-43.7,79.5-43.7,79.5
		c-1.4,0.5-2.5,1.2-3.3,2.2c-10.9,12.2-5.5,123,11,137.2c16.6,14.1,105-0.9,105-0.9S472.1,288.6,437.3,280.9z M328.7,279
		c0,0,37.6-69.5,41.4-74c3.7-4.5,53.2,77.6,53.2,77.6C386.2,292.4,350.2,281.7,328.7,279z"/>
	
		<polygon fill="#406127" stroke="#406127" stroke-width="2" stroke-linecap="round" stroke-linejoin="round" stroke-miterlimit="10" points="
		383.8,59.7 383.8,169.7 363.8,169.7 363.8,79.7 197.8,79.7 197.8,169.7 210.9,167.2 187.4,219.7 163.5,165.5 177.8,169.7 
		177.8,59.7 	"/>
</g>
</svg>
