<?xml version="1.0" encoding="utf-8"?>
<!-- Generator: Adobe Illustrator 17.1.0, SVG Export Plug-In . SVG Version: 6.00 Build 0)  -->
<!DOCTYPE svg PUBLIC "-//W3C//DTD SVG 1.1//EN" "http://www.w3.org/Graphics/SVG/1.1/DTD/svg11.dtd">
<svg version="1.1" id="Ebene_1" xmlns="http://www.w3.org/2000/svg" xmlns:xlink="http://www.w3.org/1999/xlink" x="0px" y="0px"
	 viewBox="0 0 500 500" enable-background="new 0 0 500 500" xml:space="preserve">
<g>
	<g>
		<path fill="#FFFBD8" d="M357.7,296.3c6.5-7.2,14.3-13,18.7-22c3.5-7.2-4.5-9.1-9.9-11.6c-3.6-1.6-7.1-4.9-8.9-8.4
			c-1.6-3.2-1.2-7.5-4.3-9.9c-4.9-3.7-12.3-3-15.4,1.8c-4.4,6.8-2.8,15.5-9.1,21.6c-3.7,3.5-8.5,3.6-12.9,6
			c-5.2,2.8-9,8.1-12.8,12.5c-13.9,15.9-5.4,33.4,3.3,50.2c2.7,5.3,3.6,7,0.5,12.8c-2.6,4.8-9.4,9.1-10.3,14.5
			c-0.8,5.4,5.5,10.4,10.3,11.8c5.9,1.7,9-0.4,12.4-5.1c4-5.6,6.2-10.6,12.2-14.2c5.2-3.1,7.7-5.2,6.7-11.5
			c-0.6-4.3-1.3-8.5-1.8-12.9c-0.7-5.7-1.2-10.8-1.2-16.6c0-5.6-1.1-14.7,1.5-19.7c1.2-2.3,2.7-2.8,3.1-5.7c0.2-1.8-1.1-7.5,0.4-8.8
			c3.1-2.9,3.8,2.4,3.9,4c0.3,2.9,0.3,3.1,2.6,5c1.9,1.5,7.6,6.9,10.2,4.5"/>
	</g>
	<g>
		<path fill="#FFF8A7" d="M150.3,288.6c-5.4,0.5-14.8-4.8-17-10.1c-2.8-6.7,2.3-11.3,8.7-12.1c5.5-0.7,15.3,2.8,18.2-3.7
			c3.2-7.2-3.3-10.6-3.1-16.9c0.4-11.3,16.8-10.9,23.7-5.9c2.3,1.7,3.9,4,5.4,6.4c3.3,5.4,7.2,7.6,13.5,8c2.4,0.2,7.2-1.5,9.3-0.5
			c2.1,1,2.6,7.8,2.8,9.5c0.7,5.7,2.3,14.1,0.9,19.8c-1,4.2-4.8,7.8-8.9,8.8c-3.9,0.9-9.5-1-13,1c-8.1,4.6-3.1,18.9-2.5,25.8
			c0.8,8.8-5.2,11.9-12.9,11.9c-3.6,0-11.4-1.5-13.3-5.3c-1.4-2.9,0.7-7.3,2-9.8c2.2-4.5-1.1-9.7-1.4-14.9
			c-0.4-5.3-0.8-5.7-0.8-11.2c0-4.8,1-6.2-2.3-4.1c-3.6,2.3-2.1,0.3-3.2,3C155.6,289.7,152.2,287.6,150.3,288.6"/>
	</g>
	<path fill="none" stroke="#1D1D1B" stroke-width="2.3973" stroke-miterlimit="10" d="M422.5,246.3L340.1,196
		c-26.5-1.1-56.1,0-83.5,0c-21.7,0-43.5,0-65.2,0c-8.9,0-20.1-0.5-29.8,1.4c-0.4,0.1-0.7-0.1-1,0.1l-83.1,48.7l39.9,65.5l42.9-26.2
		v150.1h179.8V285.9l42.4,25.9L422.5,246.3z"/>
	<path fill="#1D1D1B" d="M161.5,343.9c-0.9-10.1-3.7-21.3-1.5-31.3c3.3-15.7,6.7-31.5,10-47.2c4-18.7,8-37.5,12-56.2
		c3.3-15.6,2-14.4,18.8-14.4C187.7,244.5,174.6,294.2,161.5,343.9z"/>
	<path fill="#1D1D1B" d="M338.9,343.9c0.9-10.1,3.8-21.3,1.6-31.3c-3.4-15.7-6.8-31.5-10.2-47.2c-4-18.7-8.1-37.5-12.1-56.2
		c-3.4-15.6-2.1-14.4-18.8-14.4C312.5,244.5,325.7,294.2,338.9,343.9z"/>
	
		<ellipse fill="#FFFFFF" stroke="#1D1D1B" stroke-width="3.596" stroke-miterlimit="10" cx="249.5" cy="127.2" rx="66.4" ry="62.9"/>
	<path fill="#1D1D1B" d="M220,106.7c-10,0-10,15.6,0,15.6C231,122.3,231,106.7,220,106.7z"/>
	<path fill="#1D1D1B" d="M272,106.7c-10,0-10,15.6,0,15.6S282,106.7,272,106.7z"/>
	<path fill="#1D1D1B" d="M227.8,163.6c25.8-21.1,36.8,0,36.8,0"/>
</g>
</svg>
