<?xml version="1.0" encoding="utf-8"?>
<!-- Generator: Adobe Illustrator 17.1.0, SVG Export Plug-In . SVG Version: 6.00 Build 0)  -->
<!DOCTYPE svg PUBLIC "-//W3C//DTD SVG 1.1//EN" "http://www.w3.org/Graphics/SVG/1.1/DTD/svg11.dtd">
<svg version="1.1" xmlns="http://www.w3.org/2000/svg" xmlns:xlink="http://www.w3.org/1999/xlink" x="0px" y="0px"
	 viewBox="0 0 500 500" enable-background="new 0 0 500 500" xml:space="preserve">
<g id="Ebene_1">
</g>
<g id="Ebene_3">
</g>
<g id="Ebene_4">
</g>
<g id="Ebene_2">
	<g>
		<path fill="#E62836" d="M441.8,258.8l-91.6-47.1c-29.5-1-62.4,0-92.8,0c-24.2,0-48.3,0-72.5,0c-9.9,0-22.4-0.4-33.2,1.3
			c-0.4,0.1-0.8-0.1-1.2,0.1l-92.4,45.7l44.4,61.4l47.7-24.5v140.8h199.9V295.9l47.2,24.3L441.8,258.8z"/>
		<g>
			<g>
				<path fill="#822836" d="M369.8,305.7c7.2-6.8,15.9-12.2,20.8-20.7c3.9-6.7-5.1-8.6-11-10.8c-4-1.5-7.9-4.6-9.9-7.9
					c-1.8-3-1.3-7.1-4.8-9.3c-5.4-3.5-13.7-2.8-17.1,1.7c-4.9,6.4-3.1,14.5-10.2,20.2c-4.1,3.3-9.5,3.4-14.4,5.6
					c-5.8,2.6-10,7.6-14.3,11.8c-15.5,14.9-6,31.4,3.6,47.1c3,5,4,6.6,0.5,12c-2.9,4.5-10.5,8.5-11.4,13.6c-0.9,5.1,6.1,9.8,11.4,11
					c6.6,1.6,10-0.4,13.7-4.8c4.5-5.2,6.9-10,13.5-13.4c5.7-2.9,8.5-4.8,7.5-10.8c-0.7-4-1.4-8-2-12.1c-0.8-5.4-1.4-10.1-1.4-15.6
					c0-5.3-1.3-13.8,1.7-18.5c1.4-2.2,3-2.6,3.4-5.4c0.3-1.7-1.3-7,0.4-8.3c3.5-2.7,4.2,2.2,4.4,3.7c0.3,2.7,0.3,2.9,2.9,4.6
					c2.2,1.4,8.5,6.5,11.4,4.3"/>
			</g>
			<g>
				<path fill="#822836" d="M139.1,298.5c-6,0.5-16.4-4.5-18.9-9.5c-3.1-6.2,2.6-10.6,9.7-11.4c6.1-0.7,17.1,2.6,20.2-3.4
					c3.5-6.7-3.7-9.9-3.4-15.9c0.5-10.6,18.7-10.2,26.4-5.5c2.6,1.6,4.3,3.7,6,6c3.6,5.1,8,7.1,15,7.5c2.7,0.2,8-1.4,10.3-0.5
					c2.4,1,2.9,7.4,3.1,8.9c0.7,5.3,2.5,13.3,1,18.6c-1.1,3.9-5.3,7.4-9.9,8.3c-4.4,0.9-10.5-1-14.5,0.9c-9,4.3-3.5,17.8-2.8,24.2
					c0.9,8.2-5.8,11.2-14.4,11.2c-4,0-12.7-1.4-14.8-5c-1.6-2.7,0.8-6.8,2.2-9.2c2.5-4.2-1.2-9.1-1.6-14c-0.4-4.9-0.8-5.4-0.9-10.5
					c-0.1-4.5,1.1-5.8-2.5-3.9c-4,2.1-2.4,0.3-3.6,2.8C145,299.6,141.2,297.6,139.1,298.5"/>
			</g>
		</g>
		<g>
			<path fill="#1D1D1B" d="M151.6,350.4c-1-9.5-4.1-20-1.7-29.4c3.7-14.8,7.4-29.5,11.2-44.3c4.4-17.6,8.9-35.1,13.3-52.7
				c3.7-14.6,2.2-13.5,20.9-13.5C180.7,257.1,166.1,303.7,151.6,350.4z"/>
			<path fill="#1D1D1B" d="M348.8,350.4c1-9.5,4.2-20,1.8-29.4c-3.8-14.8-7.5-29.5-11.3-44.3c-4.5-17.6-9-35.1-13.5-52.7
				c-3.7-14.6-2.3-13.5-20.9-13.5C319.6,257.1,334.2,303.7,348.8,350.4z"/>
		</g>
		<g>
			<ellipse fill="#1D1D1B" cx="249.5" cy="139.6" rx="73.8" ry="66.6"/>
			<g>
				<g>
					<path fill="#FFFFFF" d="M217,117.9c-11,0-11,16.5,0,16.5S228,117.9,217,117.9z"/>
					<path fill="#FFFFFF" d="M273,117.9c-9,0-9,16.5,0,16.5C286,134.3,286,117.9,273,117.9z"/>
				</g>
				<path fill="#FFFFFF" d="M225.3,178.1c28.7-22.3,40.9,0,40.9,0"/>
			</g>
		</g>
	</g>
</g>
</svg>
